M48
; DRILL file KiCad 10.0.3 date 2026-10-10T14:26:49
; FORMAT={-:-/ absolute / metric / decimal}
; #@! TF.CreationDate,2026-10-10T14:26:49+10:30
; #@! TF.GenerationSoftware,Kicad,Pcbnew,10.0.3
; #@! TF.FileFunction,Plated,1,2,PTH
FMAT,2
METRIC
; #@! TA.AperFunction,Plated,PTH,ViaDrill
T1C0.300
; #@! TA.AperFunction,Plated,PTH,ComponentDrill
T2C1.000
%
G90
G05
T1
X26.675Y-52.979
X27.4Y-47.725
X30.683Y-28.074
X32.077Y-38.356
X32.283Y-35.3
X32.286Y-27.281
X33.175Y-32.16
X36.221Y-28.575
X37.928Y-29.462
X47.378Y-47.953
X49.093Y-38.603
X49.389Y-52.775
X50.558Y-39.399
X51.053Y-40.045
X52.152Y-26.573
X52.408Y-40.136
X52.692Y-41.207
X53.224Y-38.458
X53.717Y-36.635
X53.852Y-40.012
X53.962Y-40.936
X54.639Y-41.673
X55.07Y-36.193
X55.712Y-35.559
X55.946Y-25.321
X57.334Y-46.975
X57.645Y-35.564
X58.428Y-35.632
X59.271Y-42.374
X59.72Y-65.401
X60.054Y-42.346
X60.436Y-41.397
X61.368Y-39.855
X61.748Y-46.223
X62.124Y-35.316
X64.15Y-35.887
X65.763Y-53.887
X66.569Y-61.827
X67.74Y-58.604
X68.788Y-61.942
X69.272Y-40.45
X69.527Y-61.427
X69.959Y-59.013
X70.29Y-41.453
X71.709Y-39.093
X73.972Y-44.972
X77.44Y-41.265
X77.589Y-33.414
X80.709Y-42.046
X81.564Y-35.739
X87.75Y-34.1
T2
X32.0Y-66.4
X34.54Y-66.4
X37.08Y-66.4
X39.62Y-66.4
X42.16Y-66.4
X44.7Y-66.4
X47.24Y-66.4
X49.78Y-66.4
X62.0Y-66.4
X64.54Y-66.4
X67.08Y-66.4
X69.62Y-66.4
X72.16Y-66.4
X74.7Y-66.4
X77.24Y-66.4
X79.78Y-66.4
X82.32Y-66.4
X84.86Y-66.4
M30
