%TF.GenerationSoftware,KiCad,Pcbnew,10.0.3*%
%TF.CreationDate,2026-10-10T16:30:23+10:30*%
%TF.ProjectId,STPM34_Breakout,5354504d-3334-45f4-9272-65616b6f7574,A*%
%TF.SameCoordinates,Original*%
%TF.FileFunction,Copper,L1,Top*%
%TF.FilePolarity,Positive*%
%FSLAX46Y46*%
G04 Gerber Fmt 4.6, Leading zero omitted, Abs format (unit mm)*
G04 Created by KiCad (PCBNEW 10.0.3) date 2026-10-10 16:30:23*
%MOMM*%
%LPD*%
G01*
G04 APERTURE LIST*
G04 Aperture macros list*
%AMRoundRect*
0 Rectangle with rounded corners*
0 $1 Rounding radius*
0 $2 $3 $4 $5 $6 $7 $8 $9 X,Y pos of 4 corners*
0 Add a 4 corners polygon primitive as box body*
4,1,4,$2,$3,$4,$5,$6,$7,$8,$9,$2,$3,0*
0 Add four circle primitives for the rounded corners*
1,1,$1+$1,$2,$3*
1,1,$1+$1,$4,$5*
1,1,$1+$1,$6,$7*
1,1,$1+$1,$8,$9*
0 Add four rect primitives between the rounded corners*
20,1,$1+$1,$2,$3,$4,$5,0*
20,1,$1+$1,$4,$5,$6,$7,0*
20,1,$1+$1,$6,$7,$8,$9,0*
20,1,$1+$1,$8,$9,$2,$3,0*%
G04 Aperture macros list end*
%TA.AperFunction,EtchedComponent*%
%ADD10C,0.000000*%
%TD*%
%TA.AperFunction,SMDPad,CuDef*%
%ADD11RoundRect,0.200000X-0.200000X-0.275000X0.200000X-0.275000X0.200000X0.275000X-0.200000X0.275000X0*%
%TD*%
%TA.AperFunction,SMDPad,CuDef*%
%ADD12RoundRect,0.225000X0.250000X-0.225000X0.250000X0.225000X-0.250000X0.225000X-0.250000X-0.225000X0*%
%TD*%
%TA.AperFunction,SMDPad,CuDef*%
%ADD13RoundRect,0.250000X0.475000X-0.250000X0.475000X0.250000X-0.475000X0.250000X-0.475000X-0.250000X0*%
%TD*%
%TA.AperFunction,SMDPad,CuDef*%
%ADD14C,0.500000*%
%TD*%
%TA.AperFunction,SMDPad,CuDef*%
%ADD15RoundRect,0.062500X-0.375000X-0.062500X0.375000X-0.062500X0.375000X0.062500X-0.375000X0.062500X0*%
%TD*%
%TA.AperFunction,SMDPad,CuDef*%
%ADD16RoundRect,0.062500X-0.062500X-0.375000X0.062500X-0.375000X0.062500X0.375000X-0.062500X0.375000X0*%
%TD*%
%TA.AperFunction,HeatsinkPad*%
%ADD17R,3.450000X3.450000*%
%TD*%
%TA.AperFunction,SMDPad,CuDef*%
%ADD18R,1.500000X1.500000*%
%TD*%
%TA.AperFunction,ComponentPad*%
%ADD19R,1.700000X1.700000*%
%TD*%
%TA.AperFunction,ComponentPad*%
%ADD20C,1.700000*%
%TD*%
%TA.AperFunction,SMDPad,CuDef*%
%ADD21RoundRect,0.250000X-0.450000X-0.350000X0.450000X-0.350000X0.450000X0.350000X-0.450000X0.350000X0*%
%TD*%
%TA.AperFunction,ViaPad*%
%ADD22C,0.600000*%
%TD*%
%TA.AperFunction,Conductor*%
%ADD23C,0.180000*%
%TD*%
%TA.AperFunction,Conductor*%
%ADD24C,0.150000*%
%TD*%
G04 APERTURE END LIST*
D10*
%TA.AperFunction,EtchedComponent*%
%TO.C,NT1*%
G36*
X74750000Y-47500000D02*
G01*
X74250000Y-47500000D01*
X74250000Y-45500000D01*
X74750000Y-45500000D01*
X74750000Y-47500000D01*
G37*
%TD.AperFunction*%
%TD*%
D11*
%TO.P,R2,1*%
%TO.N,CT1_N*%
X33175000Y-31200000D03*
%TO.P,R2,2*%
%TO.N,IIN1*%
X34825000Y-31200000D03*
%TD*%
%TO.P,R6,1*%
%TO.N,VAC_P_MID*%
X31175000Y-47000000D03*
%TO.P,R6,2*%
%TO.N,VDIV_P*%
X32825000Y-47000000D03*
%TD*%
%TO.P,R1,1*%
%TO.N,CT1_P*%
X33175000Y-27800000D03*
%TO.P,R1,2*%
%TO.N,IIP1*%
X34825000Y-27800000D03*
%TD*%
%TO.P,R4,1*%
%TO.N,CT2_N*%
X33175000Y-38700000D03*
%TO.P,R4,2*%
%TO.N,IIN2*%
X34825000Y-38700000D03*
%TD*%
D12*
%TO.P,C15,1*%
%TO.N,VREF2*%
X62500000Y-46975000D03*
%TO.P,C15,2*%
%TO.N,GND_REF*%
X62500000Y-45425000D03*
%TD*%
D11*
%TO.P,R10,1*%
%TO.N,VDIV_N*%
X35675000Y-52000000D03*
%TO.P,R10,2*%
%TO.N,GNDA*%
X37325000Y-52000000D03*
%TD*%
%TO.P,R11,1*%
%TO.N,VDIV_P*%
X40175000Y-47000000D03*
%TO.P,R11,2*%
%TO.N,VIP1*%
X41825000Y-47000000D03*
%TD*%
D13*
%TO.P,C11,1*%
%TO.N,VDDD*%
X70500000Y-40450000D03*
%TO.P,C11,2*%
%TO.N,DGND*%
X70500000Y-38550000D03*
%TD*%
D11*
%TO.P,R3,1*%
%TO.N,CT2_P*%
X33175000Y-35300000D03*
%TO.P,R3,2*%
%TO.N,IIP2*%
X34825000Y-35300000D03*
%TD*%
D12*
%TO.P,C12,1*%
%TO.N,VREF1*%
X56000000Y-46975000D03*
%TO.P,C12,2*%
%TO.N,GND_REF*%
X56000000Y-45425000D03*
%TD*%
D14*
%TO.P,NT1,1*%
%TO.N,GNDA*%
X74500000Y-47500000D03*
%TO.P,NT1,2*%
%TO.N,GND_REF*%
X74500000Y-46500000D03*
%TO.P,NT1,3*%
%TO.N,DGND*%
X74500000Y-45500000D03*
%TD*%
D11*
%TO.P,R19,1*%
%TO.N,V2AC_N_MID*%
X55675000Y-58000000D03*
%TO.P,R19,2*%
%TO.N,V2DIV_N*%
X57325000Y-58000000D03*
%TD*%
%TO.P,R21,1*%
%TO.N,V2DIV_P*%
X64675000Y-53000000D03*
%TO.P,R21,2*%
%TO.N,VIP2*%
X66325000Y-53000000D03*
%TD*%
%TO.P,R17,1*%
%TO.N,V2DIV_P*%
X60175000Y-53000000D03*
%TO.P,R17,2*%
%TO.N,GNDA*%
X61825000Y-53000000D03*
%TD*%
D13*
%TO.P,C9,1*%
%TO.N,+3V3*%
X69500000Y-31450000D03*
%TO.P,C9,2*%
%TO.N,DGND*%
X69500000Y-29550000D03*
%TD*%
D11*
%TO.P,R14,1*%
%TO.N,SCS*%
X78175000Y-42000000D03*
%TO.P,R14,2*%
%TO.N,MODE_BIAS*%
X79825000Y-42000000D03*
%TD*%
%TO.P,RB2,1*%
%TO.N,CT2_P*%
X27675000Y-37000000D03*
%TO.P,RB2,2*%
%TO.N,CT2_N*%
X29325000Y-37000000D03*
%TD*%
%TO.P,R15,1*%
%TO.N,V2AC_P*%
X51175000Y-53000000D03*
%TO.P,R15,2*%
%TO.N,V2AC_P_MID*%
X52825000Y-53000000D03*
%TD*%
%TO.P,R18,1*%
%TO.N,V2AC_N*%
X51175000Y-58000000D03*
%TO.P,R18,2*%
%TO.N,V2AC_N_MID*%
X52825000Y-58000000D03*
%TD*%
%TO.P,R9,1*%
%TO.N,VAC_N_MID*%
X31175000Y-52000000D03*
%TO.P,R9,2*%
%TO.N,VDIV_N*%
X32825000Y-52000000D03*
%TD*%
%TO.P,R22,1*%
%TO.N,V2DIV_N*%
X64675000Y-58000000D03*
%TO.P,R22,2*%
%TO.N,VIN2*%
X66325000Y-58000000D03*
%TD*%
D15*
%TO.P,U1,1*%
%TO.N,CLKOUT_ZCR*%
X55562500Y-37250000D03*
%TO.P,U1,2*%
%TO.N,XTAL2*%
X55562500Y-37750000D03*
%TO.P,U1,3*%
%TO.N,XTAL1*%
X55562500Y-38250000D03*
%TO.P,U1,4*%
%TO.N,LED1*%
X55562500Y-38750000D03*
%TO.P,U1,5*%
%TO.N,LED2*%
X55562500Y-39250000D03*
%TO.P,U1,6*%
%TO.N,INT1*%
X55562500Y-39750000D03*
%TO.P,U1,7*%
%TO.N,INT2*%
X55562500Y-40250000D03*
%TO.P,U1,8*%
%TO.N,EN*%
X55562500Y-40750000D03*
D16*
%TO.P,U1,9*%
%TO.N,VIP1*%
X56250000Y-41437500D03*
%TO.P,U1,10*%
%TO.N,VIN1*%
X56750000Y-41437500D03*
%TO.P,U1,11*%
%TO.N,IIP1*%
X57250000Y-41437500D03*
%TO.P,U1,12*%
%TO.N,IIN1*%
X57750000Y-41437500D03*
%TO.P,U1,13*%
%TO.N,IIN2*%
X58250000Y-41437500D03*
%TO.P,U1,14*%
%TO.N,IIP2*%
X58750000Y-41437500D03*
%TO.P,U1,15*%
%TO.N,VIN2*%
X59250000Y-41437500D03*
%TO.P,U1,16*%
%TO.N,VIP2*%
X59750000Y-41437500D03*
D15*
%TO.P,U1,17*%
%TO.N,VREF1*%
X60437500Y-40750000D03*
%TO.P,U1,18*%
%TO.N,GND_REF*%
X60437500Y-40250000D03*
%TO.P,U1,19*%
%TO.N,VREF2*%
X60437500Y-39750000D03*
%TO.P,U1,20*%
%TO.N,GNDA*%
X60437500Y-39250000D03*
%TO.P,U1,21*%
%TO.N,VDDA*%
X60437500Y-38750000D03*
%TO.P,U1,22*%
%TO.N,GNDA*%
X60437500Y-38250000D03*
%TO.P,U1,23*%
%TO.N,+3V3*%
X60437500Y-37750000D03*
%TO.P,U1,24*%
%TO.N,unconnected-(U1-NC-Pad24)*%
X60437500Y-37250000D03*
D16*
%TO.P,U1,25*%
%TO.N,DGND*%
X59750000Y-36562500D03*
%TO.P,U1,26*%
X59250000Y-36562500D03*
%TO.P,U1,27*%
%TO.N,VDDD*%
X58750000Y-36562500D03*
%TO.P,U1,28*%
%TO.N,SYN*%
X58250000Y-36562500D03*
%TO.P,U1,29*%
%TO.N,SCS*%
X57750000Y-36562500D03*
%TO.P,U1,30*%
%TO.N,SCL*%
X57250000Y-36562500D03*
%TO.P,U1,31*%
%TO.N,MOSI_RXD*%
X56750000Y-36562500D03*
%TO.P,U1,32*%
%TO.N,MISO_TXD*%
X56250000Y-36562500D03*
D17*
%TO.P,U1,33*%
%TO.N,N/C*%
X58000000Y-39000000D03*
%TD*%
D13*
%TO.P,C10,1*%
%TO.N,VDDA*%
X70500000Y-35950000D03*
%TO.P,C10,2*%
%TO.N,GNDA*%
X70500000Y-34050000D03*
%TD*%
D11*
%TO.P,R7,1*%
%TO.N,VDIV_P*%
X35675000Y-47000000D03*
%TO.P,R7,2*%
%TO.N,GNDA*%
X37325000Y-47000000D03*
%TD*%
D12*
%TO.P,C14,1*%
%TO.N,XTAL2*%
X55200000Y-27775000D03*
%TO.P,C14,2*%
%TO.N,DGND*%
X55200000Y-26225000D03*
%TD*%
%TO.P,C2,1*%
%TO.N,IIN1*%
X39000000Y-31975000D03*
%TO.P,C2,2*%
%TO.N,GNDA*%
X39000000Y-30425000D03*
%TD*%
D11*
%TO.P,R16,1*%
%TO.N,V2AC_P_MID*%
X55675000Y-53000000D03*
%TO.P,R16,2*%
%TO.N,V2DIV_P*%
X57325000Y-53000000D03*
%TD*%
D12*
%TO.P,C5,1*%
%TO.N,VIP1*%
X44500000Y-47775000D03*
%TO.P,C5,2*%
%TO.N,GNDA*%
X44500000Y-46225000D03*
%TD*%
%TO.P,C13,1*%
%TO.N,XTAL1*%
X55200000Y-24575000D03*
%TO.P,C13,2*%
%TO.N,DGND*%
X55200000Y-23025000D03*
%TD*%
D11*
%TO.P,R5,1*%
%TO.N,VAC_P*%
X26675000Y-47000000D03*
%TO.P,R5,2*%
%TO.N,VAC_P_MID*%
X28325000Y-47000000D03*
%TD*%
D18*
%TO.P,SW1,1*%
%TO.N,EN*%
X89000000Y-41900000D03*
%TO.P,SW1,2*%
%TO.N,DGND*%
X89000000Y-34100000D03*
%TD*%
D12*
%TO.P,C4,1*%
%TO.N,IIN2*%
X39000000Y-39475000D03*
%TO.P,C4,2*%
%TO.N,GNDA*%
X39000000Y-37925000D03*
%TD*%
%TO.P,C3,1*%
%TO.N,IIP2*%
X39000000Y-36075000D03*
%TO.P,C3,2*%
%TO.N,GNDA*%
X39000000Y-34525000D03*
%TD*%
%TO.P,C7,1*%
%TO.N,VIP2*%
X69000000Y-53775000D03*
%TO.P,C7,2*%
%TO.N,GNDA*%
X69000000Y-52225000D03*
%TD*%
D11*
%TO.P,R20,1*%
%TO.N,V2DIV_N*%
X60175000Y-58000000D03*
%TO.P,R20,2*%
%TO.N,GNDA*%
X61825000Y-58000000D03*
%TD*%
%TO.P,RB1,1*%
%TO.N,CT1_P*%
X27675000Y-29500000D03*
%TO.P,RB1,2*%
%TO.N,CT1_N*%
X29325000Y-29500000D03*
%TD*%
%TO.P,R8,1*%
%TO.N,VAC_N*%
X26675000Y-52000000D03*
%TO.P,R8,2*%
%TO.N,VAC_N_MID*%
X28325000Y-52000000D03*
%TD*%
D19*
%TO.P,J1,1*%
%TO.N,VAC_P*%
X32000000Y-66400000D03*
D20*
%TO.P,J1,2*%
%TO.N,VAC_N*%
X34540000Y-66400000D03*
%TO.P,J1,3*%
%TO.N,V2AC_P*%
X37080000Y-66400000D03*
%TO.P,J1,4*%
%TO.N,V2AC_N*%
X39620000Y-66400000D03*
%TO.P,J1,5*%
%TO.N,CT1_P*%
X42160000Y-66400000D03*
%TO.P,J1,6*%
%TO.N,CT1_N*%
X44700000Y-66400000D03*
%TO.P,J1,7*%
%TO.N,CT2_P*%
X47240000Y-66400000D03*
%TO.P,J1,8*%
%TO.N,CT2_N*%
X49780000Y-66400000D03*
%TD*%
D21*
%TO.P,Y1,1*%
%TO.N,XTAL1*%
X50900000Y-25650000D03*
%TO.P,Y1,2*%
%TO.N,XTAL2*%
X53100000Y-25650000D03*
%TO.P,Y1,3*%
%TO.N,N/C*%
X53100000Y-23950000D03*
%TO.P,Y1,4*%
X50900000Y-23950000D03*
%TD*%
D12*
%TO.P,C8,1*%
%TO.N,VIN2*%
X69000000Y-58775000D03*
%TO.P,C8,2*%
%TO.N,GNDA*%
X69000000Y-57225000D03*
%TD*%
%TO.P,C1,1*%
%TO.N,IIP1*%
X39000000Y-28575000D03*
%TO.P,C1,2*%
%TO.N,GNDA*%
X39000000Y-27025000D03*
%TD*%
D19*
%TO.P,J2,1*%
%TO.N,+3V3*%
X62000000Y-66400000D03*
D20*
%TO.P,J2,2*%
%TO.N,DGND*%
X64540000Y-66400000D03*
%TO.P,J2,3*%
%TO.N,SCS*%
X67080000Y-66400000D03*
%TO.P,J2,4*%
%TO.N,SCL*%
X69620000Y-66400000D03*
%TO.P,J2,5*%
%TO.N,MOSI_RXD*%
X72160000Y-66400000D03*
%TO.P,J2,6*%
%TO.N,MISO_TXD*%
X74700000Y-66400000D03*
%TO.P,J2,7*%
%TO.N,SYN*%
X77240000Y-66400000D03*
%TO.P,J2,8*%
%TO.N,EN*%
X79780000Y-66400000D03*
%TO.P,J2,9*%
%TO.N,INT1*%
X82320000Y-66400000D03*
%TO.P,J2,10*%
%TO.N,INT2*%
X84860000Y-66400000D03*
%TD*%
D12*
%TO.P,C6,1*%
%TO.N,VIN1*%
X44500000Y-52775000D03*
%TO.P,C6,2*%
%TO.N,GNDA*%
X44500000Y-51225000D03*
%TD*%
D11*
%TO.P,R13,1*%
%TO.N,+3V3*%
X79175000Y-35000000D03*
%TO.P,R13,2*%
%TO.N,EN*%
X80825000Y-35000000D03*
%TD*%
%TO.P,R12,1*%
%TO.N,VDIV_N*%
X40175000Y-52000000D03*
%TO.P,R12,2*%
%TO.N,VIN1*%
X41825000Y-52000000D03*
%TD*%
D22*
%TO.N,CT1_N*%
X33175000Y-32160100D03*
%TO.N,IIN1*%
X37928500Y-29462000D03*
X49092900Y-38603000D03*
%TO.N,CT1_P*%
X32286200Y-27281500D03*
%TO.N,IIP1*%
X51052700Y-40045500D03*
X36221200Y-28575000D03*
%TO.N,CT2_N*%
X32076900Y-38356200D03*
%TO.N,VREF2*%
X61367800Y-39854600D03*
X61747900Y-46222900D03*
%TO.N,VIP1*%
X52407800Y-40135700D03*
X47377800Y-47952500D03*
%TO.N,VDDD*%
X64150400Y-35887300D03*
X69272400Y-40450000D03*
%TO.N,DGND*%
X87750200Y-34100000D03*
X73972400Y-44972400D03*
X71708900Y-39093500D03*
%TO.N,CT2_P*%
X32283100Y-35300000D03*
%TO.N,VREF1*%
X57333900Y-46975000D03*
X60435900Y-41396700D03*
%TO.N,VIP2*%
X60053900Y-42346100D03*
X65763400Y-53887500D03*
%TO.N,+3V3*%
X77588900Y-33413900D03*
%TO.N,SCS*%
X70290500Y-41453500D03*
X77439700Y-41264700D03*
X57644800Y-35563700D03*
%TO.N,MODE_BIAS*%
X80709400Y-42046500D03*
%TO.N,VIN2*%
X67740500Y-58604000D03*
X59270900Y-42374400D03*
%TO.N,CLKOUT_ZCR*%
X53716700Y-36635000D03*
%TO.N,XTAL1*%
X52152000Y-26572900D03*
X53224300Y-38457900D03*
X55946000Y-25321000D03*
%TO.N,LED1*%
X30682900Y-28073700D03*
%TO.N,LED2*%
X50558400Y-39399500D03*
%TO.N,INT1*%
X69527000Y-61427500D03*
X53851800Y-40012500D03*
%TO.N,INT2*%
X53962400Y-40936300D03*
%TO.N,EN*%
X81564500Y-35739500D03*
X54639000Y-41673500D03*
X59719700Y-65401300D03*
%TO.N,VIN1*%
X52691900Y-41207000D03*
X49388700Y-52775000D03*
%TO.N,SYN*%
X68788300Y-61942300D03*
X58428500Y-35631600D03*
%TO.N,SCL*%
X69958700Y-59013200D03*
X62124200Y-35315600D03*
%TO.N,MOSI_RXD*%
X55711500Y-35559500D03*
X66569200Y-61826600D03*
%TO.N,MISO_TXD*%
X55070200Y-36193000D03*
%TO.N,VAC_P*%
X27400300Y-47725300D03*
%TO.N,VAC_N*%
X26675000Y-52979300D03*
%TD*%
%TO.N,CT1_N*%
D23*
X31475000Y-29500000D02*
X33175000Y-31200000D01*
X29325000Y-29500000D02*
X31475000Y-29500000D01*
X33175000Y-32160100D02*
X33175000Y-31200000D01*
%TO.N,IIN1*%
X49092900Y-38928100D02*
X53521300Y-43356500D01*
X53521300Y-43356500D02*
X56319000Y-43356500D01*
X56319000Y-43356500D02*
X57750000Y-41925500D01*
X57750000Y-41925500D02*
X57750000Y-41437500D01*
X37207800Y-30182700D02*
X37928500Y-29462000D01*
X34825000Y-31200000D02*
X36190500Y-31200000D01*
X49092900Y-38603000D02*
X49092900Y-38928100D01*
X36190500Y-31200000D02*
X37207800Y-30182700D01*
X37207800Y-30182700D02*
X39000000Y-31975000D01*
%TO.N,VAC_P_MID*%
X28325000Y-47000000D02*
X31175000Y-47000000D01*
%TO.N,VDIV_P*%
X36448800Y-46226200D02*
X39401200Y-46226200D01*
X39401200Y-46226200D02*
X40175000Y-47000000D01*
X35675000Y-47000000D02*
X32825000Y-47000000D01*
X35675000Y-47000000D02*
X36448800Y-46226200D01*
%TO.N,CT1_P*%
X32286200Y-27281500D02*
X32656500Y-27281500D01*
X32656500Y-27281500D02*
X33175000Y-27800000D01*
X32286200Y-27281500D02*
X29893500Y-27281500D01*
X29893500Y-27281500D02*
X27675000Y-29500000D01*
%TO.N,IIP1*%
X51052700Y-40376300D02*
X53671200Y-42994800D01*
X35600000Y-28575000D02*
X34825000Y-27800000D01*
X39000000Y-28575000D02*
X36221200Y-28575000D01*
X57250000Y-41892700D02*
X57250000Y-41437500D01*
X51052700Y-40045500D02*
X51052700Y-40376300D01*
X56147900Y-42994800D02*
X57250000Y-41892700D01*
X53671200Y-42994800D02*
X56147900Y-42994800D01*
X36221200Y-28575000D02*
X35600000Y-28575000D01*
%TO.N,CT2_N*%
X30720700Y-37000000D02*
X32076900Y-38356200D01*
X29325000Y-37000000D02*
X30720700Y-37000000D01*
X32831200Y-38356200D02*
X33175000Y-38700000D01*
X32076900Y-38356200D02*
X32831200Y-38356200D01*
%TO.N,IIN2*%
X44953200Y-35300000D02*
X53371400Y-43718200D01*
X34825000Y-38700000D02*
X34152500Y-38027500D01*
X56519400Y-43718200D02*
X58250000Y-41987600D01*
X53371400Y-43718200D02*
X56519400Y-43718200D01*
X35600000Y-39475000D02*
X34825000Y-38700000D01*
X34385400Y-34512600D02*
X36234000Y-34512600D01*
X36234000Y-34512600D02*
X37021400Y-35300000D01*
X37021400Y-35300000D02*
X44953200Y-35300000D01*
X34152500Y-34745500D02*
X34385400Y-34512600D01*
X34152500Y-38027500D02*
X34152500Y-34745500D01*
X58250000Y-41987600D02*
X58250000Y-41437500D01*
X39000000Y-39475000D02*
X35600000Y-39475000D01*
%TO.N,VREF2*%
D24*
X60542100Y-39854600D02*
X60437500Y-39750000D01*
X61367800Y-39854600D02*
X60542100Y-39854600D01*
D23*
X61747900Y-46222900D02*
X62500000Y-46975000D01*
%TO.N,GND_REF*%
X61182600Y-45425000D02*
X61182600Y-40584400D01*
X61182600Y-40584400D02*
X60848200Y-40250000D01*
X56000000Y-45425000D02*
X61182600Y-45425000D01*
X63575000Y-46500000D02*
X74500000Y-46500000D01*
X62500000Y-45425000D02*
X63575000Y-46500000D01*
X60848200Y-40250000D02*
X60437500Y-40250000D01*
X61182600Y-45425000D02*
X62500000Y-45425000D01*
%TO.N,VDIV_N*%
X35675000Y-52000000D02*
X36448700Y-52773700D01*
X32825000Y-52000000D02*
X35675000Y-52000000D01*
X36448700Y-52773700D02*
X39401300Y-52773700D01*
X39401300Y-52773700D02*
X40175000Y-52000000D01*
%TO.N,GNDA*%
X29725300Y-40221300D02*
X26990900Y-37486900D01*
X65863200Y-57225000D02*
X65654000Y-57434200D01*
X69000000Y-57225000D02*
X65863200Y-57225000D01*
X39798900Y-31223900D02*
X39798900Y-33726100D01*
X69000000Y-52225000D02*
X62600000Y-52225000D01*
X39789800Y-38714800D02*
X39789800Y-39942200D01*
X75043200Y-46956800D02*
X74500000Y-47500000D01*
X69775000Y-52225000D02*
X69000000Y-52225000D01*
X39776100Y-29648900D02*
X39000000Y-30425000D01*
X41441900Y-42152500D02*
X41441900Y-46225000D01*
X40617300Y-47794500D02*
X40846000Y-47565800D01*
X39798900Y-33726100D02*
X39000000Y-34525000D01*
X61825000Y-53000000D02*
X60050000Y-51225000D01*
X60437500Y-38250000D02*
X66734300Y-38250000D01*
X74500000Y-47500000D02*
X69775000Y-52225000D01*
X71554300Y-36439700D02*
X71554300Y-35538600D01*
X67711000Y-39711300D02*
X70745700Y-42746000D01*
X60050000Y-51225000D02*
X44500000Y-51225000D01*
X60437500Y-39250000D02*
X67711000Y-39250000D01*
X39000000Y-30425000D02*
X39798900Y-31223900D01*
X67711000Y-39250000D02*
X67711000Y-39711300D01*
X62600000Y-52225000D02*
X61825000Y-53000000D01*
X37325000Y-51225000D02*
X37325000Y-52000000D01*
X39510700Y-40221300D02*
X41441900Y-42152500D01*
D24*
X40846000Y-47385600D02*
X41000000Y-47231600D01*
D23*
X39000000Y-37925000D02*
X39789800Y-38714800D01*
X69000000Y-52225000D02*
X69773900Y-52998900D01*
X37325000Y-47000000D02*
X37325000Y-47794500D01*
X66734300Y-38250000D02*
X70500000Y-34484300D01*
X41000000Y-46666900D02*
X41441900Y-46225000D01*
X37325000Y-47794500D02*
X37325000Y-51225000D01*
X41441900Y-46225000D02*
X44500000Y-46225000D01*
X37325000Y-47794500D02*
X40617300Y-47794500D01*
X72611500Y-42746000D02*
X75043200Y-45177700D01*
X70500000Y-34484300D02*
X70500000Y-34050000D01*
X62579200Y-58754200D02*
X61825000Y-58000000D01*
X39510700Y-40221300D02*
X29725300Y-40221300D01*
X29428400Y-34102100D02*
X38577100Y-34102100D01*
X65500000Y-57768400D02*
X65500000Y-58393100D01*
X70745700Y-42746000D02*
X72611500Y-42746000D01*
X44500000Y-51225000D02*
X37325000Y-51225000D01*
X67711000Y-39250000D02*
X69503800Y-37457200D01*
X69773900Y-52998900D02*
X69773900Y-56451100D01*
X39000000Y-27025000D02*
X39776100Y-27801100D01*
X38577100Y-34102100D02*
X39000000Y-34525000D01*
X65138900Y-58754200D02*
X62579200Y-58754200D01*
D24*
X65654000Y-57614400D02*
X65500000Y-57768400D01*
D23*
X26990900Y-37486900D02*
X26990900Y-36539600D01*
D24*
X40846000Y-47565800D02*
X40846000Y-47385600D01*
D23*
X69773900Y-56451100D02*
X69000000Y-57225000D01*
D24*
X65654000Y-57434200D02*
X65654000Y-57614400D01*
D23*
X39776100Y-27801100D02*
X39776100Y-29648900D01*
X70536800Y-37457200D02*
X71554300Y-36439700D01*
X41000000Y-47231600D02*
X41000000Y-46666900D01*
X71554300Y-35538600D02*
X70500000Y-34484300D01*
X75043200Y-45177700D02*
X75043200Y-46956800D01*
X39789800Y-39942200D02*
X39510700Y-40221300D01*
X26990900Y-36539600D02*
X29428400Y-34102100D01*
X65500000Y-58393100D02*
X65138900Y-58754200D01*
X69503800Y-37457200D02*
X70536800Y-37457200D01*
%TO.N,VIP1*%
X53281600Y-41173700D02*
X53281600Y-40915800D01*
X54379300Y-42271400D02*
X53281600Y-41173700D01*
X47377800Y-47952500D02*
X44677500Y-47952500D01*
X53281600Y-40915800D02*
X52501500Y-40135700D01*
X44500000Y-47775000D02*
X42600000Y-47775000D01*
X52501500Y-40135700D02*
X52407800Y-40135700D01*
X56250000Y-41437500D02*
X55416100Y-42271400D01*
X44677500Y-47952500D02*
X44500000Y-47775000D01*
X55416100Y-42271400D02*
X54379300Y-42271400D01*
X42600000Y-47775000D02*
X41825000Y-47000000D01*
%TO.N,VDDD*%
X61887400Y-35887300D02*
X64150400Y-35887300D01*
X59096100Y-35801600D02*
X61801700Y-35801600D01*
X70500000Y-40450000D02*
X69272400Y-40450000D01*
X58750000Y-36147700D02*
X59096100Y-35801600D01*
X61801700Y-35801600D02*
X61887400Y-35887300D01*
X58750000Y-36562500D02*
X58750000Y-36147700D01*
%TO.N,DGND*%
X83200200Y-29550000D02*
X87750200Y-34100000D01*
X69500000Y-29550000D02*
X68371200Y-30678800D01*
X55200000Y-26225000D02*
X66175000Y-26225000D01*
X64328200Y-36562500D02*
X59750000Y-36562500D01*
X80000000Y-35345600D02*
X76795600Y-38550000D01*
X54402800Y-23822200D02*
X54402800Y-25427800D01*
X71043500Y-39093500D02*
X70500000Y-38550000D01*
X76795600Y-38550000D02*
X70500000Y-38550000D01*
X69500000Y-29550000D02*
X83200200Y-29550000D01*
X68371200Y-32519500D02*
X64328200Y-36562500D01*
X87978300Y-34100000D02*
X87750200Y-34100000D01*
X68371200Y-30678800D02*
X68371200Y-32519500D01*
X87750200Y-34100000D02*
X80578300Y-34100000D01*
X54402800Y-25427800D02*
X55200000Y-26225000D01*
X80578300Y-34100000D02*
X80000000Y-34678300D01*
X80000000Y-34678300D02*
X80000000Y-35345600D01*
X59250000Y-36562500D02*
X59750000Y-36562500D01*
X89000000Y-34100000D02*
X87978300Y-34100000D01*
X71708900Y-39093500D02*
X71043500Y-39093500D01*
X55200000Y-23025000D02*
X54402800Y-23822200D01*
X74500000Y-45500000D02*
X73972400Y-44972400D01*
X66175000Y-26225000D02*
X69500000Y-29550000D01*
%TO.N,CT2_P*%
X29375000Y-35300000D02*
X27675000Y-37000000D01*
X32283100Y-35300000D02*
X33175000Y-35300000D01*
X32283100Y-35300000D02*
X29375000Y-35300000D01*
%TO.N,IIP2*%
X39000000Y-36075000D02*
X35600000Y-36075000D01*
X35600000Y-36075000D02*
X34825000Y-35300000D01*
X39000000Y-36075000D02*
X47004900Y-44079900D01*
X56713700Y-44079900D02*
X58750000Y-42043600D01*
X58750000Y-42043600D02*
X58750000Y-41437500D01*
X47004900Y-44079900D02*
X56713700Y-44079900D01*
%TO.N,VREF1*%
X60437500Y-41395100D02*
X60435900Y-41396700D01*
X56000000Y-46975000D02*
X57333900Y-46975000D01*
X60437500Y-40750000D02*
X60437500Y-41395100D01*
%TO.N,V2AC_N_MID*%
X52825000Y-58000000D02*
X55675000Y-58000000D01*
%TO.N,V2DIV_N*%
X60959000Y-57216000D02*
X63891000Y-57216000D01*
X63891000Y-57216000D02*
X64675000Y-58000000D01*
X60175000Y-58000000D02*
X57325000Y-58000000D01*
X60175000Y-58000000D02*
X60959000Y-57216000D01*
%TO.N,V2DIV_P*%
X57325000Y-53000000D02*
X60175000Y-53000000D01*
X60175000Y-53000000D02*
X60948700Y-53773700D01*
X63901300Y-53773700D02*
X64675000Y-53000000D01*
X60948700Y-53773700D02*
X63901300Y-53773700D01*
%TO.N,VIP2*%
X69000000Y-53775000D02*
X67100000Y-53775000D01*
X59750000Y-41437500D02*
X59750000Y-42042200D01*
X59750000Y-42042200D02*
X60053900Y-42346100D01*
X67100000Y-53775000D02*
X66488000Y-53162900D01*
X66488000Y-53162900D02*
X65763400Y-53887500D01*
X66488000Y-53162900D02*
X66325000Y-53000000D01*
%TO.N,+3V3*%
X77588900Y-33413900D02*
X75625000Y-31450000D01*
X75625000Y-31450000D02*
X69500000Y-31450000D01*
X60437500Y-37750000D02*
X63696900Y-37750000D01*
X63696900Y-37750000D02*
X69500000Y-31946900D01*
X69500000Y-31946900D02*
X69500000Y-31450000D01*
X79175000Y-35000000D02*
X77588900Y-33413900D01*
%TO.N,SCS*%
X57750000Y-36562500D02*
X57750000Y-35668900D01*
X77439700Y-41264700D02*
X78175000Y-42000000D01*
X70479300Y-41264700D02*
X70290500Y-41453500D01*
X77439700Y-41264700D02*
X70479300Y-41264700D01*
X57750000Y-35668900D02*
X57644800Y-35563700D01*
%TO.N,MODE_BIAS*%
X79871500Y-42046500D02*
X79825000Y-42000000D01*
X80709400Y-42046500D02*
X79871500Y-42046500D01*
%TO.N,V2AC_P*%
X50480000Y-53000000D02*
X51175000Y-53000000D01*
X37080000Y-66400000D02*
X50480000Y-53000000D01*
%TO.N,V2AC_P_MID*%
X55675000Y-53000000D02*
X52825000Y-53000000D01*
%TO.N,V2AC_N*%
X39620000Y-66400000D02*
X48020000Y-58000000D01*
X48020000Y-58000000D02*
X51175000Y-58000000D01*
%TO.N,VAC_N_MID*%
X28325000Y-52000000D02*
X31175000Y-52000000D01*
%TO.N,VIN2*%
X69000000Y-58775000D02*
X67911500Y-58775000D01*
X67911500Y-58775000D02*
X67740500Y-58604000D01*
X59250000Y-41437500D02*
X59250000Y-42353500D01*
X67740500Y-58604000D02*
X66929000Y-58604000D01*
X66929000Y-58604000D02*
X66325000Y-58000000D01*
X59250000Y-42353500D02*
X59270900Y-42374400D01*
%TO.N,CLKOUT_ZCR*%
X54331700Y-37250000D02*
X55562500Y-37250000D01*
X53716700Y-36635000D02*
X54331700Y-37250000D01*
%TO.N,XTAL2*%
X53100000Y-25650000D02*
X53100000Y-25675000D01*
X53127100Y-37645400D02*
X53127100Y-29847900D01*
X53127100Y-29847900D02*
X55200000Y-27775000D01*
X53100000Y-25675000D02*
X55200000Y-27775000D01*
D24*
X53127100Y-37645400D02*
X55457900Y-37645400D01*
X55457900Y-37645400D02*
X55562500Y-37750000D01*
%TO.N,XTAL1*%
X53328900Y-38250000D02*
X53224300Y-38354600D01*
D23*
X55946000Y-25321000D02*
X55200000Y-24575000D01*
X51822900Y-26572900D02*
X52152000Y-26572900D01*
D24*
X55562500Y-38250000D02*
X53328900Y-38250000D01*
D23*
X53224300Y-38354600D02*
X53224300Y-38457900D01*
X50900000Y-25650000D02*
X51822900Y-26572900D01*
%TO.N,LED1*%
X34001900Y-28128600D02*
X33578600Y-28551900D01*
X39997800Y-26260300D02*
X35198600Y-26260300D01*
X31161100Y-28551900D02*
X30682900Y-28073700D01*
X34001900Y-27457000D02*
X34001900Y-28128600D01*
X33578600Y-28551900D02*
X31161100Y-28551900D01*
X52794400Y-39056900D02*
X39997800Y-26260300D01*
X35198600Y-26260300D02*
X34001900Y-27457000D01*
X53831200Y-38750000D02*
X53524300Y-39056900D01*
X55562500Y-38750000D02*
X53831200Y-38750000D01*
X53524300Y-39056900D02*
X52794400Y-39056900D01*
%TO.N,LED2*%
X54355200Y-39435000D02*
X54540200Y-39250000D01*
X50558400Y-39399500D02*
X50593900Y-39435000D01*
X50593900Y-39435000D02*
X54355200Y-39435000D01*
X54540200Y-39250000D02*
X55562500Y-39250000D01*
%TO.N,INT1*%
X77347500Y-61427500D02*
X69527000Y-61427500D01*
X53851800Y-40012500D02*
X54044300Y-39820000D01*
X82320000Y-66400000D02*
X77347500Y-61427500D01*
X54044300Y-39820000D02*
X55492500Y-39820000D01*
X55492500Y-39820000D02*
X55562500Y-39750000D01*
%TO.N,INT2*%
X53962400Y-40936300D02*
X54648700Y-40250000D01*
X54648700Y-40250000D02*
X55562500Y-40250000D01*
%TO.N,EN*%
X79780000Y-66400000D02*
X78248800Y-67931200D01*
X87978300Y-41900000D02*
X81817800Y-35739500D01*
X81817800Y-35739500D02*
X81564500Y-35739500D01*
X78248800Y-67931200D02*
X61437900Y-67931200D01*
X59719700Y-66213000D02*
X59719700Y-65401300D01*
X80825000Y-35000000D02*
X81564500Y-35739500D01*
X89000000Y-41900000D02*
X87978300Y-41900000D01*
X54639000Y-41673500D02*
X55562500Y-40750000D01*
X61437900Y-67931200D02*
X59719700Y-66213000D01*
%TO.N,VIN1*%
X54118000Y-42633100D02*
X52691900Y-41207000D01*
X42600000Y-52775000D02*
X41825000Y-52000000D01*
X49388700Y-52775000D02*
X44500000Y-52775000D01*
X56750000Y-41437500D02*
X56750000Y-41869100D01*
X56750000Y-41869100D02*
X55986000Y-42633100D01*
X55986000Y-42633100D02*
X54118000Y-42633100D01*
X44500000Y-52775000D02*
X42600000Y-52775000D01*
%TO.N,VDDA*%
X70500000Y-35950000D02*
X69990100Y-35950000D01*
X67190100Y-38750000D02*
X60437500Y-38750000D01*
X69990100Y-35950000D02*
X67190100Y-38750000D01*
%TO.N,SYN*%
X58250000Y-35810100D02*
X58428500Y-35631600D01*
X68788300Y-61942300D02*
X68845200Y-61999200D01*
X68845200Y-61999200D02*
X72839200Y-61999200D01*
X72839200Y-61999200D02*
X77240000Y-66400000D01*
X58250000Y-36562500D02*
X58250000Y-35810100D01*
%TO.N,SCL*%
X61746300Y-34937700D02*
X62124200Y-35315600D01*
X57250000Y-36562500D02*
X57250000Y-36149800D01*
X69620000Y-66400000D02*
X68148000Y-64928000D01*
X57445500Y-34937700D02*
X61746300Y-34937700D01*
X57065600Y-35317600D02*
X57445500Y-34937700D01*
X68148000Y-60823900D02*
X69958700Y-59013200D01*
X57065600Y-35965400D02*
X57065600Y-35317600D01*
X68148000Y-64928000D02*
X68148000Y-60823900D01*
X57250000Y-36149800D02*
X57065600Y-35965400D01*
%TO.N,MOSI_RXD*%
X55711500Y-35559500D02*
X56221300Y-35559500D01*
X71033300Y-67526700D02*
X69146300Y-67526700D01*
X68201700Y-66582100D02*
X68201700Y-65534100D01*
X68201700Y-65534100D02*
X66569200Y-63901600D01*
X56646900Y-35985100D02*
X56646900Y-36459400D01*
X72160000Y-66400000D02*
X71033300Y-67526700D01*
X56646900Y-36459400D02*
X56750000Y-36562500D01*
X66569200Y-63901600D02*
X66569200Y-61826600D01*
X69146300Y-67526700D02*
X68201700Y-66582100D01*
X56221300Y-35559500D02*
X56646900Y-35985100D01*
%TO.N,MISO_TXD*%
X55070200Y-36193000D02*
X55880500Y-36193000D01*
X55880500Y-36193000D02*
X56250000Y-36562500D01*
%TO.N,VAC_P*%
X27400300Y-47725300D02*
X26675000Y-47000000D01*
%TO.N,VAC_N*%
X26675000Y-52979300D02*
X26675000Y-52000000D01*
%TD*%
%TA.AperFunction,Conductor*%
%TO.N,GNDA*%
G36*
X91973808Y-21003294D02*
G01*
X91984296Y-21002335D01*
X92017603Y-21014011D01*
X92204942Y-21111534D01*
X92214310Y-21116942D01*
X92542130Y-21325786D01*
X92550991Y-21331991D01*
X92859353Y-21568605D01*
X92867640Y-21575559D01*
X93154204Y-21838146D01*
X93161853Y-21845795D01*
X93424440Y-22132359D01*
X93431394Y-22140646D01*
X93668008Y-22449008D01*
X93674213Y-22457869D01*
X93883057Y-22785689D01*
X93888465Y-22795057D01*
X93985989Y-22982397D01*
X94000000Y-23039654D01*
X94000000Y-66960343D01*
X93985990Y-67017599D01*
X93972606Y-67043310D01*
X93891101Y-67199881D01*
X93888462Y-67204950D01*
X93883052Y-67214319D01*
X93674217Y-67542122D01*
X93668013Y-67550983D01*
X93431393Y-67859352D01*
X93424439Y-67867639D01*
X93161852Y-68154203D01*
X93154203Y-68161852D01*
X92867639Y-68424439D01*
X92859352Y-68431393D01*
X92550983Y-68668013D01*
X92542122Y-68674217D01*
X92214319Y-68883052D01*
X92204951Y-68888461D01*
X92125983Y-68929569D01*
X92017601Y-68985989D01*
X91960345Y-69000000D01*
X23039654Y-69000000D01*
X22982397Y-68985989D01*
X22795057Y-68888465D01*
X22785689Y-68883057D01*
X22457869Y-68674213D01*
X22449008Y-68668008D01*
X22140646Y-68431394D01*
X22132359Y-68424440D01*
X21845795Y-68161853D01*
X21838146Y-68154204D01*
X21575559Y-67867640D01*
X21568605Y-67859353D01*
X21331991Y-67550991D01*
X21325786Y-67542130D01*
X21292793Y-67490342D01*
X21116941Y-67214309D01*
X21111534Y-67204942D01*
X21108899Y-67199881D01*
X21027394Y-67043310D01*
X21014011Y-67017601D01*
X21014011Y-67017599D01*
X21000000Y-66960344D01*
X21000000Y-64893713D01*
X23649500Y-64893713D01*
X23649500Y-65106287D01*
X23682754Y-65316243D01*
X23737860Y-65485842D01*
X23748444Y-65518414D01*
X23844951Y-65707820D01*
X23969890Y-65879786D01*
X24120213Y-66030109D01*
X24292179Y-66155048D01*
X24292181Y-66155049D01*
X24292184Y-66155051D01*
X24481588Y-66251557D01*
X24683757Y-66317246D01*
X24893713Y-66350500D01*
X24893714Y-66350500D01*
X25106286Y-66350500D01*
X25106287Y-66350500D01*
X25316243Y-66317246D01*
X25518412Y-66251557D01*
X25707816Y-66155051D01*
X25792415Y-66093587D01*
X25879786Y-66030109D01*
X25879788Y-66030106D01*
X25879792Y-66030104D01*
X26030104Y-65879792D01*
X26030106Y-65879788D01*
X26030109Y-65879786D01*
X26155048Y-65707820D01*
X26155047Y-65707820D01*
X26155051Y-65707816D01*
X26245527Y-65530247D01*
X30949500Y-65530247D01*
X30949500Y-67269752D01*
X30961131Y-67328229D01*
X30961132Y-67328230D01*
X31005447Y-67394552D01*
X31071769Y-67438867D01*
X31071770Y-67438868D01*
X31130247Y-67450499D01*
X31130250Y-67450500D01*
X31130252Y-67450500D01*
X32869750Y-67450500D01*
X32869751Y-67450499D01*
X32892472Y-67445980D01*
X32928229Y-67438868D01*
X32928229Y-67438867D01*
X32928231Y-67438867D01*
X32994552Y-67394552D01*
X33038867Y-67328231D01*
X33038867Y-67328229D01*
X33038868Y-67328229D01*
X33050499Y-67269752D01*
X33050500Y-67269750D01*
X33050500Y-66296530D01*
X33489500Y-66296530D01*
X33489500Y-66503469D01*
X33529868Y-66706412D01*
X33529870Y-66706420D01*
X33591571Y-66855380D01*
X33609059Y-66897598D01*
X33658841Y-66972102D01*
X33724024Y-67069657D01*
X33870342Y-67215975D01*
X33870345Y-67215977D01*
X34042402Y-67330941D01*
X34233580Y-67410130D01*
X34436530Y-67450499D01*
X34436534Y-67450500D01*
X34436535Y-67450500D01*
X34643466Y-67450500D01*
X34643467Y-67450499D01*
X34846420Y-67410130D01*
X35037598Y-67330941D01*
X35209655Y-67215977D01*
X35355977Y-67069655D01*
X35470941Y-66897598D01*
X35550130Y-66706420D01*
X35590500Y-66503465D01*
X35590500Y-66296535D01*
X35590499Y-66296530D01*
X36029500Y-66296530D01*
X36029500Y-66503469D01*
X36069868Y-66706412D01*
X36069870Y-66706420D01*
X36131571Y-66855380D01*
X36149059Y-66897598D01*
X36198841Y-66972102D01*
X36264024Y-67069657D01*
X36410342Y-67215975D01*
X36410345Y-67215977D01*
X36582402Y-67330941D01*
X36773580Y-67410130D01*
X36976530Y-67450499D01*
X36976534Y-67450500D01*
X36976535Y-67450500D01*
X37183466Y-67450500D01*
X37183467Y-67450499D01*
X37386420Y-67410130D01*
X37577598Y-67330941D01*
X37749655Y-67215977D01*
X37895977Y-67069655D01*
X38010941Y-66897598D01*
X38090130Y-66706420D01*
X38130500Y-66503465D01*
X38130500Y-66296535D01*
X38130499Y-66296530D01*
X38569500Y-66296530D01*
X38569500Y-66503469D01*
X38609868Y-66706412D01*
X38609870Y-66706420D01*
X38671571Y-66855380D01*
X38689059Y-66897598D01*
X38738841Y-66972102D01*
X38804024Y-67069657D01*
X38950342Y-67215975D01*
X38950345Y-67215977D01*
X39122402Y-67330941D01*
X39313580Y-67410130D01*
X39516530Y-67450499D01*
X39516534Y-67450500D01*
X39516535Y-67450500D01*
X39723466Y-67450500D01*
X39723467Y-67450499D01*
X39926420Y-67410130D01*
X40117598Y-67330941D01*
X40289655Y-67215977D01*
X40435977Y-67069655D01*
X40550941Y-66897598D01*
X40630130Y-66706420D01*
X40670500Y-66503465D01*
X40670500Y-66296535D01*
X40670499Y-66296530D01*
X41109500Y-66296530D01*
X41109500Y-66503469D01*
X41149868Y-66706412D01*
X41149870Y-66706420D01*
X41211571Y-66855380D01*
X41229059Y-66897598D01*
X41278841Y-66972102D01*
X41344024Y-67069657D01*
X41490342Y-67215975D01*
X41490345Y-67215977D01*
X41662402Y-67330941D01*
X41853580Y-67410130D01*
X42056530Y-67450499D01*
X42056534Y-67450500D01*
X42056535Y-67450500D01*
X42263466Y-67450500D01*
X42263467Y-67450499D01*
X42466420Y-67410130D01*
X42657598Y-67330941D01*
X42829655Y-67215977D01*
X42975977Y-67069655D01*
X43090941Y-66897598D01*
X43170130Y-66706420D01*
X43210500Y-66503465D01*
X43210500Y-66296535D01*
X43210499Y-66296530D01*
X43649500Y-66296530D01*
X43649500Y-66503469D01*
X43689868Y-66706412D01*
X43689870Y-66706420D01*
X43751571Y-66855380D01*
X43769059Y-66897598D01*
X43818841Y-66972102D01*
X43884024Y-67069657D01*
X44030342Y-67215975D01*
X44030345Y-67215977D01*
X44202402Y-67330941D01*
X44393580Y-67410130D01*
X44596530Y-67450499D01*
X44596534Y-67450500D01*
X44596535Y-67450500D01*
X44803466Y-67450500D01*
X44803467Y-67450499D01*
X45006420Y-67410130D01*
X45197598Y-67330941D01*
X45369655Y-67215977D01*
X45515977Y-67069655D01*
X45630941Y-66897598D01*
X45710130Y-66706420D01*
X45750500Y-66503465D01*
X45750500Y-66296535D01*
X45750499Y-66296530D01*
X46189500Y-66296530D01*
X46189500Y-66503469D01*
X46229868Y-66706412D01*
X46229870Y-66706420D01*
X46291571Y-66855380D01*
X46309059Y-66897598D01*
X46358841Y-66972102D01*
X46424024Y-67069657D01*
X46570342Y-67215975D01*
X46570345Y-67215977D01*
X46742402Y-67330941D01*
X46933580Y-67410130D01*
X47136530Y-67450499D01*
X47136534Y-67450500D01*
X47136535Y-67450500D01*
X47343466Y-67450500D01*
X47343467Y-67450499D01*
X47546420Y-67410130D01*
X47737598Y-67330941D01*
X47909655Y-67215977D01*
X48055977Y-67069655D01*
X48170941Y-66897598D01*
X48250130Y-66706420D01*
X48290500Y-66503465D01*
X48290500Y-66296535D01*
X48290499Y-66296530D01*
X48729500Y-66296530D01*
X48729500Y-66503469D01*
X48769868Y-66706412D01*
X48769870Y-66706420D01*
X48831571Y-66855380D01*
X48849059Y-66897598D01*
X48898841Y-66972102D01*
X48964024Y-67069657D01*
X49110342Y-67215975D01*
X49110345Y-67215977D01*
X49282402Y-67330941D01*
X49473580Y-67410130D01*
X49676530Y-67450499D01*
X49676534Y-67450500D01*
X49676535Y-67450500D01*
X49883466Y-67450500D01*
X49883467Y-67450499D01*
X50086420Y-67410130D01*
X50277598Y-67330941D01*
X50449655Y-67215977D01*
X50595977Y-67069655D01*
X50710941Y-66897598D01*
X50790130Y-66706420D01*
X50830500Y-66503465D01*
X50830500Y-66296535D01*
X50790130Y-66093580D01*
X50710941Y-65902402D01*
X50595977Y-65730345D01*
X50595975Y-65730342D01*
X50449657Y-65584024D01*
X50277596Y-65469057D01*
X50211891Y-65441842D01*
X50086420Y-65389870D01*
X50086412Y-65389868D01*
X49883469Y-65349500D01*
X49883465Y-65349500D01*
X49676535Y-65349500D01*
X49676530Y-65349500D01*
X49473587Y-65389868D01*
X49473579Y-65389870D01*
X49282403Y-65469058D01*
X49110342Y-65584024D01*
X48964024Y-65730342D01*
X48849058Y-65902403D01*
X48769870Y-66093579D01*
X48769868Y-66093587D01*
X48729500Y-66296530D01*
X48290499Y-66296530D01*
X48250130Y-66093580D01*
X48170941Y-65902402D01*
X48055977Y-65730345D01*
X48055975Y-65730342D01*
X47909657Y-65584024D01*
X47811463Y-65518414D01*
X47737598Y-65469059D01*
X47737593Y-65469057D01*
X47546420Y-65389870D01*
X47546412Y-65389868D01*
X47343469Y-65349500D01*
X47343465Y-65349500D01*
X47136535Y-65349500D01*
X47136530Y-65349500D01*
X46933587Y-65389868D01*
X46933579Y-65389870D01*
X46742403Y-65469058D01*
X46570342Y-65584024D01*
X46424024Y-65730342D01*
X46309058Y-65902403D01*
X46229870Y-66093579D01*
X46229868Y-66093587D01*
X46189500Y-66296530D01*
X45750499Y-66296530D01*
X45710130Y-66093580D01*
X45630941Y-65902402D01*
X45515977Y-65730345D01*
X45515975Y-65730342D01*
X45369657Y-65584024D01*
X45271463Y-65518414D01*
X45197598Y-65469059D01*
X45197593Y-65469057D01*
X45006420Y-65389870D01*
X45006412Y-65389868D01*
X44803469Y-65349500D01*
X44803465Y-65349500D01*
X44596535Y-65349500D01*
X44596530Y-65349500D01*
X44393587Y-65389868D01*
X44393579Y-65389870D01*
X44202403Y-65469058D01*
X44030342Y-65584024D01*
X43884024Y-65730342D01*
X43769058Y-65902403D01*
X43689870Y-66093579D01*
X43689868Y-66093587D01*
X43649500Y-66296530D01*
X43210499Y-66296530D01*
X43170130Y-66093580D01*
X43090941Y-65902402D01*
X42975977Y-65730345D01*
X42975975Y-65730342D01*
X42829657Y-65584024D01*
X42731463Y-65518414D01*
X42657598Y-65469059D01*
X42657593Y-65469057D01*
X42466420Y-65389870D01*
X42466412Y-65389868D01*
X42263469Y-65349500D01*
X42263465Y-65349500D01*
X42056535Y-65349500D01*
X42056530Y-65349500D01*
X41853587Y-65389868D01*
X41853579Y-65389870D01*
X41662403Y-65469058D01*
X41490342Y-65584024D01*
X41344024Y-65730342D01*
X41229058Y-65902403D01*
X41149870Y-66093579D01*
X41149868Y-66093587D01*
X41109500Y-66296530D01*
X40670499Y-66296530D01*
X40630130Y-66093580D01*
X40576052Y-65963027D01*
X40568584Y-65893559D01*
X40599859Y-65831079D01*
X40602905Y-65827922D01*
X41095419Y-65335408D01*
X59219200Y-65335408D01*
X59219200Y-65467192D01*
X59232924Y-65518412D01*
X59253308Y-65594487D01*
X59286254Y-65651550D01*
X59319200Y-65708614D01*
X59319202Y-65708616D01*
X59392881Y-65782295D01*
X59426366Y-65843618D01*
X59429200Y-65869976D01*
X59429200Y-66251244D01*
X59448997Y-66325130D01*
X59463645Y-66350500D01*
X59487242Y-66391371D01*
X61259529Y-68163658D01*
X61325771Y-68201903D01*
X61399655Y-68221700D01*
X61399657Y-68221700D01*
X78287043Y-68221700D01*
X78287045Y-68221700D01*
X78360929Y-68201903D01*
X78427171Y-68163658D01*
X79207896Y-67382931D01*
X79269217Y-67349448D01*
X79338908Y-67354432D01*
X79343015Y-67356048D01*
X79473580Y-67410130D01*
X79676530Y-67450499D01*
X79676534Y-67450500D01*
X79676535Y-67450500D01*
X79883466Y-67450500D01*
X79883467Y-67450499D01*
X80086420Y-67410130D01*
X80277598Y-67330941D01*
X80449655Y-67215977D01*
X80595977Y-67069655D01*
X80710941Y-66897598D01*
X80790130Y-66706420D01*
X80830500Y-66503465D01*
X80830500Y-66296535D01*
X80790130Y-66093580D01*
X80710941Y-65902402D01*
X80595977Y-65730345D01*
X80595975Y-65730342D01*
X80449657Y-65584024D01*
X80351463Y-65518414D01*
X80277598Y-65469059D01*
X80277593Y-65469057D01*
X80086420Y-65389870D01*
X80086412Y-65389868D01*
X79883469Y-65349500D01*
X79883465Y-65349500D01*
X79676535Y-65349500D01*
X79676530Y-65349500D01*
X79473587Y-65389868D01*
X79473579Y-65389870D01*
X79282403Y-65469058D01*
X79110342Y-65584024D01*
X78964024Y-65730342D01*
X78849058Y-65902403D01*
X78769870Y-66093579D01*
X78769868Y-66093587D01*
X78729500Y-66296530D01*
X78729500Y-66503469D01*
X78769868Y-66706412D01*
X78769870Y-66706420D01*
X78823946Y-66836970D01*
X78831415Y-66906438D01*
X78800140Y-66968917D01*
X78797066Y-66972103D01*
X78164790Y-67604381D01*
X78103467Y-67637866D01*
X78077109Y-67640700D01*
X77613164Y-67640700D01*
X77546125Y-67621015D01*
X77500370Y-67568211D01*
X77490426Y-67499053D01*
X77519451Y-67435497D01*
X77565709Y-67402139D01*
X77737598Y-67330941D01*
X77909655Y-67215977D01*
X78055977Y-67069655D01*
X78170941Y-66897598D01*
X78250130Y-66706420D01*
X78290500Y-66503465D01*
X78290500Y-66296535D01*
X78250130Y-66093580D01*
X78170941Y-65902402D01*
X78055977Y-65730345D01*
X78055975Y-65730342D01*
X77909657Y-65584024D01*
X77811463Y-65518414D01*
X77737598Y-65469059D01*
X77737593Y-65469057D01*
X77546420Y-65389870D01*
X77546412Y-65389868D01*
X77343469Y-65349500D01*
X77343465Y-65349500D01*
X77136535Y-65349500D01*
X77136530Y-65349500D01*
X76933587Y-65389868D01*
X76933579Y-65389870D01*
X76803029Y-65443946D01*
X76733559Y-65451415D01*
X76671080Y-65420140D01*
X76667895Y-65417066D01*
X73180510Y-61929681D01*
X73147025Y-61868358D01*
X73152009Y-61798666D01*
X73193881Y-61742733D01*
X73259345Y-61718316D01*
X73268191Y-61718000D01*
X77175809Y-61718000D01*
X77242848Y-61737685D01*
X77263490Y-61754319D01*
X81337066Y-65827895D01*
X81370551Y-65889218D01*
X81365567Y-65958910D01*
X81363946Y-65963029D01*
X81309870Y-66093579D01*
X81309868Y-66093587D01*
X81269500Y-66296530D01*
X81269500Y-66503469D01*
X81309868Y-66706412D01*
X81309870Y-66706420D01*
X81371571Y-66855380D01*
X81389059Y-66897598D01*
X81438841Y-66972102D01*
X81504024Y-67069657D01*
X81650342Y-67215975D01*
X81650345Y-67215977D01*
X81822402Y-67330941D01*
X82013580Y-67410130D01*
X82216530Y-67450499D01*
X82216534Y-67450500D01*
X82216535Y-67450500D01*
X82423466Y-67450500D01*
X82423467Y-67450499D01*
X82626420Y-67410130D01*
X82817598Y-67330941D01*
X82989655Y-67215977D01*
X83135977Y-67069655D01*
X83250941Y-66897598D01*
X83330130Y-66706420D01*
X83370500Y-66503465D01*
X83370500Y-66296535D01*
X83370499Y-66296530D01*
X83809500Y-66296530D01*
X83809500Y-66503469D01*
X83849868Y-66706412D01*
X83849870Y-66706420D01*
X83911571Y-66855380D01*
X83929059Y-66897598D01*
X83978841Y-66972102D01*
X84044024Y-67069657D01*
X84190342Y-67215975D01*
X84190345Y-67215977D01*
X84362402Y-67330941D01*
X84553580Y-67410130D01*
X84756530Y-67450499D01*
X84756534Y-67450500D01*
X84756535Y-67450500D01*
X84963466Y-67450500D01*
X84963467Y-67450499D01*
X85166420Y-67410130D01*
X85357598Y-67330941D01*
X85529655Y-67215977D01*
X85675977Y-67069655D01*
X85790941Y-66897598D01*
X85870130Y-66706420D01*
X85910500Y-66503465D01*
X85910500Y-66296535D01*
X85870130Y-66093580D01*
X85790941Y-65902402D01*
X85675977Y-65730345D01*
X85675975Y-65730342D01*
X85529657Y-65584024D01*
X85431463Y-65518414D01*
X85357598Y-65469059D01*
X85357593Y-65469057D01*
X85166420Y-65389870D01*
X85166412Y-65389868D01*
X84963469Y-65349500D01*
X84963465Y-65349500D01*
X84756535Y-65349500D01*
X84756530Y-65349500D01*
X84553587Y-65389868D01*
X84553579Y-65389870D01*
X84362403Y-65469058D01*
X84190342Y-65584024D01*
X84044024Y-65730342D01*
X83929058Y-65902403D01*
X83849870Y-66093579D01*
X83849868Y-66093587D01*
X83809500Y-66296530D01*
X83370499Y-66296530D01*
X83330130Y-66093580D01*
X83250941Y-65902402D01*
X83135977Y-65730345D01*
X83135975Y-65730342D01*
X82989657Y-65584024D01*
X82891463Y-65518414D01*
X82817598Y-65469059D01*
X82817593Y-65469057D01*
X82626420Y-65389870D01*
X82626412Y-65389868D01*
X82423469Y-65349500D01*
X82423465Y-65349500D01*
X82216535Y-65349500D01*
X82216530Y-65349500D01*
X82013587Y-65389868D01*
X82013579Y-65389870D01*
X81883029Y-65443946D01*
X81813559Y-65451415D01*
X81751080Y-65420140D01*
X81747895Y-65417066D01*
X81224542Y-64893713D01*
X88649500Y-64893713D01*
X88649500Y-65106287D01*
X88682754Y-65316243D01*
X88737860Y-65485842D01*
X88748444Y-65518414D01*
X88844951Y-65707820D01*
X88969890Y-65879786D01*
X89120213Y-66030109D01*
X89292179Y-66155048D01*
X89292181Y-66155049D01*
X89292184Y-66155051D01*
X89481588Y-66251557D01*
X89683757Y-66317246D01*
X89893713Y-66350500D01*
X89893714Y-66350500D01*
X90106286Y-66350500D01*
X90106287Y-66350500D01*
X90316243Y-66317246D01*
X90518412Y-66251557D01*
X90707816Y-66155051D01*
X90792415Y-66093587D01*
X90879786Y-66030109D01*
X90879788Y-66030106D01*
X90879792Y-66030104D01*
X91030104Y-65879792D01*
X91030106Y-65879788D01*
X91030109Y-65879786D01*
X91155048Y-65707820D01*
X91155047Y-65707820D01*
X91155051Y-65707816D01*
X91251557Y-65518412D01*
X91317246Y-65316243D01*
X91350500Y-65106287D01*
X91350500Y-64893713D01*
X91317246Y-64683757D01*
X91251557Y-64481588D01*
X91155051Y-64292184D01*
X91155049Y-64292181D01*
X91155048Y-64292179D01*
X91030109Y-64120213D01*
X90879786Y-63969890D01*
X90707820Y-63844951D01*
X90518414Y-63748444D01*
X90518413Y-63748443D01*
X90518412Y-63748443D01*
X90316243Y-63682754D01*
X90316241Y-63682753D01*
X90316240Y-63682753D01*
X90154957Y-63657208D01*
X90106287Y-63649500D01*
X89893713Y-63649500D01*
X89845042Y-63657208D01*
X89683760Y-63682753D01*
X89481585Y-63748444D01*
X89292179Y-63844951D01*
X89120213Y-63969890D01*
X88969890Y-64120213D01*
X88844951Y-64292179D01*
X88748444Y-64481585D01*
X88682753Y-64683760D01*
X88667088Y-64782667D01*
X88649500Y-64893713D01*
X81224542Y-64893713D01*
X77525873Y-61195044D01*
X77525871Y-61195042D01*
X77492750Y-61175919D01*
X77459630Y-61156797D01*
X77422687Y-61146898D01*
X77385745Y-61137000D01*
X77385744Y-61137000D01*
X69995677Y-61137000D01*
X69928638Y-61117315D01*
X69907996Y-61100682D01*
X69834314Y-61027000D01*
X69777250Y-60994054D01*
X69720187Y-60961108D01*
X69598680Y-60928551D01*
X69592892Y-60927000D01*
X69461108Y-60927000D01*
X69333812Y-60961108D01*
X69219686Y-61027000D01*
X69219683Y-61027002D01*
X69126502Y-61120183D01*
X69126500Y-61120186D01*
X69060609Y-61234312D01*
X69027003Y-61359731D01*
X68990638Y-61419391D01*
X68927791Y-61449920D01*
X68875136Y-61447412D01*
X68854192Y-61441800D01*
X68722408Y-61441800D01*
X68722406Y-61441800D01*
X68594592Y-61476047D01*
X68524743Y-61474384D01*
X68466880Y-61435221D01*
X68439377Y-61370992D01*
X68438500Y-61356272D01*
X68438500Y-60995590D01*
X68458185Y-60928551D01*
X68474814Y-60907914D01*
X69832709Y-59550018D01*
X69894032Y-59516534D01*
X69920390Y-59513700D01*
X70024590Y-59513700D01*
X70024592Y-59513700D01*
X70151886Y-59479592D01*
X70266014Y-59413700D01*
X70359200Y-59320514D01*
X70425092Y-59206386D01*
X70459200Y-59079092D01*
X70459200Y-58947308D01*
X70425092Y-58820014D01*
X70359200Y-58705886D01*
X70266014Y-58612700D01*
X70208950Y-58579754D01*
X70151887Y-58546808D01*
X70088239Y-58529754D01*
X70024592Y-58512700D01*
X69892808Y-58512700D01*
X69892806Y-58512700D01*
X69816789Y-58533068D01*
X69746939Y-58531404D01*
X69689077Y-58492241D01*
X69662223Y-58432688D01*
X69659719Y-58416874D01*
X69598528Y-58296780D01*
X69598526Y-58296778D01*
X69598523Y-58296774D01*
X69579575Y-58277826D01*
X69546090Y-58216503D01*
X69551074Y-58146811D01*
X69592946Y-58090878D01*
X69602160Y-58084606D01*
X69702731Y-58022573D01*
X69822572Y-57902732D01*
X69822575Y-57902728D01*
X69911542Y-57758492D01*
X69911547Y-57758481D01*
X69964855Y-57597606D01*
X69974999Y-57498322D01*
X69975000Y-57498309D01*
X69975000Y-57475000D01*
X68025001Y-57475000D01*
X68025001Y-57498322D01*
X68035144Y-57597607D01*
X68088452Y-57758481D01*
X68088457Y-57758492D01*
X68177424Y-57902728D01*
X68177427Y-57902732D01*
X68297266Y-58022571D01*
X68397840Y-58084606D01*
X68444564Y-58136554D01*
X68455787Y-58205517D01*
X68434527Y-58260969D01*
X68428222Y-58270029D01*
X68401472Y-58296780D01*
X68379218Y-58340455D01*
X68374370Y-58347423D01*
X68353491Y-58364212D01*
X68335095Y-58383691D01*
X68326677Y-58385775D01*
X68319922Y-58391208D01*
X68293283Y-58394044D01*
X68267274Y-58400485D01*
X68259066Y-58397687D01*
X68250445Y-58398606D01*
X68226500Y-58386589D01*
X68201139Y-58377947D01*
X68194250Y-58370405D01*
X68187998Y-58367268D01*
X68181761Y-58356733D01*
X68165199Y-58338600D01*
X68158397Y-58326819D01*
X68141000Y-58296686D01*
X68047814Y-58203500D01*
X67980552Y-58164666D01*
X67933687Y-58137608D01*
X67870039Y-58120554D01*
X67806392Y-58103500D01*
X67674608Y-58103500D01*
X67547312Y-58137608D01*
X67433186Y-58203500D01*
X67359504Y-58277182D01*
X67332573Y-58291886D01*
X67306758Y-58308477D01*
X67300555Y-58309368D01*
X67298180Y-58310666D01*
X67271823Y-58313500D01*
X67100691Y-58313500D01*
X67033652Y-58293815D01*
X67013010Y-58277181D01*
X66961818Y-58225989D01*
X66928333Y-58164666D01*
X66925499Y-58138308D01*
X66925499Y-57693482D01*
X66924918Y-57689815D01*
X66910646Y-57599696D01*
X66853050Y-57486658D01*
X66853046Y-57486654D01*
X66853045Y-57486652D01*
X66763347Y-57396954D01*
X66763344Y-57396952D01*
X66763342Y-57396950D01*
X66686517Y-57357805D01*
X66650301Y-57339352D01*
X66556524Y-57324500D01*
X66093482Y-57324500D01*
X66012519Y-57337323D01*
X65999696Y-57339354D01*
X65886658Y-57396950D01*
X65886657Y-57396951D01*
X65886652Y-57396954D01*
X65796954Y-57486652D01*
X65796951Y-57486657D01*
X65796950Y-57486658D01*
X65791007Y-57498322D01*
X65739352Y-57599698D01*
X65724500Y-57693475D01*
X65724500Y-58306517D01*
X65733444Y-58362989D01*
X65739354Y-58400304D01*
X65796950Y-58513342D01*
X65796952Y-58513344D01*
X65796954Y-58513347D01*
X65886652Y-58603045D01*
X65886654Y-58603046D01*
X65886658Y-58603050D01*
X65999694Y-58660645D01*
X65999698Y-58660647D01*
X66093475Y-58675499D01*
X66093481Y-58675500D01*
X66538308Y-58675499D01*
X66605347Y-58695183D01*
X66625989Y-58711818D01*
X66750629Y-58836458D01*
X66816871Y-58874703D01*
X66890755Y-58894500D01*
X66967245Y-58894500D01*
X67271823Y-58894500D01*
X67338862Y-58914185D01*
X67359504Y-58930818D01*
X67433186Y-59004500D01*
X67532021Y-59061563D01*
X67546158Y-59069725D01*
X67547314Y-59070392D01*
X67674608Y-59104500D01*
X67674610Y-59104500D01*
X67806390Y-59104500D01*
X67806392Y-59104500D01*
X67933686Y-59070392D01*
X67933687Y-59070391D01*
X67936174Y-59069725D01*
X67968267Y-59065500D01*
X68229837Y-59065500D01*
X68296876Y-59085185D01*
X68340320Y-59133203D01*
X68401472Y-59253220D01*
X68401473Y-59253221D01*
X68401476Y-59253225D01*
X68496774Y-59348523D01*
X68496778Y-59348526D01*
X68496780Y-59348528D01*
X68616874Y-59409719D01*
X68616876Y-59409719D01*
X68616878Y-59409720D01*
X68716507Y-59425500D01*
X68716512Y-59425500D01*
X68836209Y-59425500D01*
X68903248Y-59445185D01*
X68949003Y-59497989D01*
X68958947Y-59567147D01*
X68929922Y-59630703D01*
X68923890Y-59637181D01*
X67915544Y-60645526D01*
X67915542Y-60645529D01*
X67877297Y-60711769D01*
X67857500Y-60785655D01*
X67857500Y-64479709D01*
X67837815Y-64546748D01*
X67785011Y-64592503D01*
X67715853Y-64602447D01*
X67652297Y-64573422D01*
X67645819Y-64567390D01*
X66896019Y-63817590D01*
X66862534Y-63756267D01*
X66859700Y-63729909D01*
X66859700Y-62295276D01*
X66879385Y-62228237D01*
X66896019Y-62207595D01*
X66969700Y-62133914D01*
X67035592Y-62019786D01*
X67069700Y-61892492D01*
X67069700Y-61760708D01*
X67035592Y-61633414D01*
X66969700Y-61519286D01*
X66876514Y-61426100D01*
X66819450Y-61393154D01*
X66762387Y-61360208D01*
X66698739Y-61343154D01*
X66635092Y-61326100D01*
X66503308Y-61326100D01*
X66376012Y-61360208D01*
X66261886Y-61426100D01*
X66261883Y-61426102D01*
X66168702Y-61519283D01*
X66168700Y-61519286D01*
X66102808Y-61633412D01*
X66068700Y-61760708D01*
X66068700Y-61892491D01*
X66102808Y-62019787D01*
X66135754Y-62076850D01*
X66168700Y-62133914D01*
X66168702Y-62133916D01*
X66242381Y-62207595D01*
X66275866Y-62268918D01*
X66278700Y-62295276D01*
X66278700Y-63863355D01*
X66278700Y-63939845D01*
X66286752Y-63969896D01*
X66298497Y-64013730D01*
X66317619Y-64046850D01*
X66336742Y-64079971D01*
X66336744Y-64079973D01*
X67422208Y-65165437D01*
X67455693Y-65226760D01*
X67450709Y-65296452D01*
X67408837Y-65352385D01*
X67343373Y-65376802D01*
X67310336Y-65374735D01*
X67183469Y-65349500D01*
X67183465Y-65349500D01*
X66976535Y-65349500D01*
X66976530Y-65349500D01*
X66773587Y-65389868D01*
X66773579Y-65389870D01*
X66582403Y-65469058D01*
X66410342Y-65584024D01*
X66264024Y-65730342D01*
X66149058Y-65902403D01*
X66069870Y-66093579D01*
X66069868Y-66093587D01*
X66029500Y-66296530D01*
X66029500Y-66503469D01*
X66069868Y-66706412D01*
X66069870Y-66706420D01*
X66131571Y-66855380D01*
X66149059Y-66897598D01*
X66198841Y-66972102D01*
X66264024Y-67069657D01*
X66410342Y-67215975D01*
X66410345Y-67215977D01*
X66582402Y-67330941D01*
X66754289Y-67402139D01*
X66808692Y-67445980D01*
X66830757Y-67512274D01*
X66813478Y-67579973D01*
X66762341Y-67627584D01*
X66706836Y-67640700D01*
X64913164Y-67640700D01*
X64846125Y-67621015D01*
X64800370Y-67568211D01*
X64790426Y-67499053D01*
X64819451Y-67435497D01*
X64865709Y-67402139D01*
X65037598Y-67330941D01*
X65209655Y-67215977D01*
X65355977Y-67069655D01*
X65470941Y-66897598D01*
X65550130Y-66706420D01*
X65590500Y-66503465D01*
X65590500Y-66296535D01*
X65550130Y-66093580D01*
X65470941Y-65902402D01*
X65355977Y-65730345D01*
X65355975Y-65730342D01*
X65209657Y-65584024D01*
X65111463Y-65518414D01*
X65037598Y-65469059D01*
X65037593Y-65469057D01*
X64846420Y-65389870D01*
X64846412Y-65389868D01*
X64643469Y-65349500D01*
X64643465Y-65349500D01*
X64436535Y-65349500D01*
X64436530Y-65349500D01*
X64233587Y-65389868D01*
X64233579Y-65389870D01*
X64042403Y-65469058D01*
X63870342Y-65584024D01*
X63724024Y-65730342D01*
X63609058Y-65902403D01*
X63529870Y-66093579D01*
X63529868Y-66093587D01*
X63489500Y-66296530D01*
X63489500Y-66503469D01*
X63529868Y-66706412D01*
X63529870Y-66706420D01*
X63591571Y-66855380D01*
X63609059Y-66897598D01*
X63658841Y-66972102D01*
X63724024Y-67069657D01*
X63870342Y-67215975D01*
X63870345Y-67215977D01*
X64042402Y-67330941D01*
X64214289Y-67402139D01*
X64268692Y-67445980D01*
X64290757Y-67512274D01*
X64273478Y-67579973D01*
X64222341Y-67627584D01*
X64166836Y-67640700D01*
X63034940Y-67640700D01*
X62967901Y-67621015D01*
X62922146Y-67568211D01*
X62912202Y-67499053D01*
X62941227Y-67435497D01*
X62966048Y-67413598D01*
X62994552Y-67394552D01*
X63038867Y-67328231D01*
X63038867Y-67328229D01*
X63038868Y-67328229D01*
X63050499Y-67269752D01*
X63050500Y-67269750D01*
X63050500Y-65530249D01*
X63050499Y-65530247D01*
X63038868Y-65471770D01*
X63038867Y-65471769D01*
X62994552Y-65405447D01*
X62928230Y-65361132D01*
X62928229Y-65361131D01*
X62869752Y-65349500D01*
X62869748Y-65349500D01*
X61130252Y-65349500D01*
X61130247Y-65349500D01*
X61071770Y-65361131D01*
X61071769Y-65361132D01*
X61005447Y-65405447D01*
X60961132Y-65471769D01*
X60961131Y-65471770D01*
X60949500Y-65530247D01*
X60949500Y-66732609D01*
X60929815Y-66799648D01*
X60877011Y-66845403D01*
X60807853Y-66855347D01*
X60744297Y-66826322D01*
X60737819Y-66820290D01*
X60046519Y-66128990D01*
X60031815Y-66102062D01*
X60015223Y-66076244D01*
X60014331Y-66070043D01*
X60013034Y-66067667D01*
X60010200Y-66041309D01*
X60010200Y-65869976D01*
X60029885Y-65802937D01*
X60046519Y-65782295D01*
X60075687Y-65753127D01*
X60120200Y-65708614D01*
X60186092Y-65594486D01*
X60220200Y-65467192D01*
X60220200Y-65335408D01*
X60186092Y-65208114D01*
X60120200Y-65093986D01*
X60027014Y-65000800D01*
X59969950Y-64967854D01*
X59912887Y-64934908D01*
X59849239Y-64917854D01*
X59785592Y-64900800D01*
X59653808Y-64900800D01*
X59526512Y-64934908D01*
X59412386Y-65000800D01*
X59412383Y-65000802D01*
X59319202Y-65093983D01*
X59319200Y-65093986D01*
X59253308Y-65208112D01*
X59229638Y-65296452D01*
X59219200Y-65335408D01*
X41095419Y-65335408D01*
X48104010Y-58326819D01*
X48165333Y-58293334D01*
X48191691Y-58290500D01*
X50466057Y-58290500D01*
X50533096Y-58310185D01*
X50578851Y-58362989D01*
X50588531Y-58395106D01*
X50589353Y-58400301D01*
X50589353Y-58400302D01*
X50589354Y-58400304D01*
X50646950Y-58513342D01*
X50646952Y-58513344D01*
X50646954Y-58513347D01*
X50736652Y-58603045D01*
X50736654Y-58603046D01*
X50736658Y-58603050D01*
X50849694Y-58660645D01*
X50849698Y-58660647D01*
X50943475Y-58675499D01*
X50943481Y-58675500D01*
X51406518Y-58675499D01*
X51500304Y-58660646D01*
X51613342Y-58603050D01*
X51703050Y-58513342D01*
X51760646Y-58400304D01*
X51760646Y-58400302D01*
X51760647Y-58400301D01*
X51775499Y-58306524D01*
X51775500Y-58306519D01*
X51775499Y-57693482D01*
X51775498Y-57693475D01*
X52224500Y-57693475D01*
X52224500Y-58306517D01*
X52233444Y-58362989D01*
X52239354Y-58400304D01*
X52296950Y-58513342D01*
X52296952Y-58513344D01*
X52296954Y-58513347D01*
X52386652Y-58603045D01*
X52386654Y-58603046D01*
X52386658Y-58603050D01*
X52499694Y-58660645D01*
X52499698Y-58660647D01*
X52593475Y-58675499D01*
X52593481Y-58675500D01*
X53056518Y-58675499D01*
X53150304Y-58660646D01*
X53263342Y-58603050D01*
X53353050Y-58513342D01*
X53410646Y-58400304D01*
X53411006Y-58398030D01*
X53411471Y-58395099D01*
X53441402Y-58331965D01*
X53500715Y-58295035D01*
X53533944Y-58290500D01*
X54966057Y-58290500D01*
X55033096Y-58310185D01*
X55078851Y-58362989D01*
X55088531Y-58395106D01*
X55089353Y-58400301D01*
X55089353Y-58400302D01*
X55089354Y-58400304D01*
X55146950Y-58513342D01*
X55146952Y-58513344D01*
X55146954Y-58513347D01*
X55236652Y-58603045D01*
X55236654Y-58603046D01*
X55236658Y-58603050D01*
X55349694Y-58660645D01*
X55349698Y-58660647D01*
X55443475Y-58675499D01*
X55443481Y-58675500D01*
X55906518Y-58675499D01*
X56000304Y-58660646D01*
X56113342Y-58603050D01*
X56203050Y-58513342D01*
X56260646Y-58400304D01*
X56260646Y-58400302D01*
X56260647Y-58400301D01*
X56275499Y-58306524D01*
X56275500Y-58306519D01*
X56275499Y-57693482D01*
X56275498Y-57693475D01*
X56724500Y-57693475D01*
X56724500Y-58306517D01*
X56733444Y-58362989D01*
X56739354Y-58400304D01*
X56796950Y-58513342D01*
X56796952Y-58513344D01*
X56796954Y-58513347D01*
X56886652Y-58603045D01*
X56886654Y-58603046D01*
X56886658Y-58603050D01*
X56999694Y-58660645D01*
X56999698Y-58660647D01*
X57093475Y-58675499D01*
X57093481Y-58675500D01*
X57556518Y-58675499D01*
X57650304Y-58660646D01*
X57763342Y-58603050D01*
X57853050Y-58513342D01*
X57910646Y-58400304D01*
X57911006Y-58398030D01*
X57911471Y-58395099D01*
X57941402Y-58331965D01*
X58000715Y-58295035D01*
X58033944Y-58290500D01*
X59466057Y-58290500D01*
X59533096Y-58310185D01*
X59578851Y-58362989D01*
X59588531Y-58395106D01*
X59589353Y-58400301D01*
X59589353Y-58400302D01*
X59589354Y-58400304D01*
X59646950Y-58513342D01*
X59646952Y-58513344D01*
X59646954Y-58513347D01*
X59736652Y-58603045D01*
X59736654Y-58603046D01*
X59736658Y-58603050D01*
X59849694Y-58660645D01*
X59849698Y-58660647D01*
X59943475Y-58675499D01*
X59943481Y-58675500D01*
X60406518Y-58675499D01*
X60500304Y-58660646D01*
X60613342Y-58603050D01*
X60703050Y-58513342D01*
X60727995Y-58464384D01*
X60775967Y-58413591D01*
X60843788Y-58396796D01*
X60909923Y-58419333D01*
X60953375Y-58474048D01*
X60956863Y-58483791D01*
X60981981Y-58564396D01*
X61069927Y-58709877D01*
X61190122Y-58830072D01*
X61335604Y-58918019D01*
X61335603Y-58918019D01*
X61497894Y-58968590D01*
X61497893Y-58968590D01*
X61568408Y-58974998D01*
X61568426Y-58974999D01*
X62075000Y-58974999D01*
X62081581Y-58974999D01*
X62152102Y-58968591D01*
X62152107Y-58968590D01*
X62314396Y-58918018D01*
X62459877Y-58830072D01*
X62580072Y-58709877D01*
X62668019Y-58564395D01*
X62718590Y-58402106D01*
X62725000Y-58331572D01*
X62725000Y-58250000D01*
X62075000Y-58250000D01*
X62075000Y-58974999D01*
X61568426Y-58974999D01*
X61574999Y-58974998D01*
X61575000Y-58974998D01*
X61575000Y-57630500D01*
X61594685Y-57563461D01*
X61647489Y-57517706D01*
X61699000Y-57506500D01*
X61951000Y-57506500D01*
X62018039Y-57526185D01*
X62063794Y-57578989D01*
X62075000Y-57630500D01*
X62075000Y-57750000D01*
X62724999Y-57750000D01*
X62724999Y-57668419D01*
X62722573Y-57641722D01*
X62736110Y-57573176D01*
X62784556Y-57522830D01*
X62846064Y-57506500D01*
X63719309Y-57506500D01*
X63786348Y-57526185D01*
X63806990Y-57542819D01*
X64038181Y-57774010D01*
X64071666Y-57835333D01*
X64074500Y-57861691D01*
X64074500Y-58306517D01*
X64083444Y-58362989D01*
X64089354Y-58400304D01*
X64146950Y-58513342D01*
X64146952Y-58513344D01*
X64146954Y-58513347D01*
X64236652Y-58603045D01*
X64236654Y-58603046D01*
X64236658Y-58603050D01*
X64349694Y-58660645D01*
X64349698Y-58660647D01*
X64443475Y-58675499D01*
X64443481Y-58675500D01*
X64906518Y-58675499D01*
X65000304Y-58660646D01*
X65113342Y-58603050D01*
X65203050Y-58513342D01*
X65260646Y-58400304D01*
X65260646Y-58400302D01*
X65260647Y-58400301D01*
X65275499Y-58306524D01*
X65275500Y-58306519D01*
X65275499Y-57693482D01*
X65260646Y-57599696D01*
X65203050Y-57486658D01*
X65203046Y-57486654D01*
X65203045Y-57486652D01*
X65113347Y-57396954D01*
X65113344Y-57396952D01*
X65113342Y-57396950D01*
X65036517Y-57357805D01*
X65000301Y-57339352D01*
X64906524Y-57324500D01*
X64461691Y-57324500D01*
X64394652Y-57304815D01*
X64374010Y-57288181D01*
X64069373Y-56983544D01*
X64069371Y-56983542D01*
X64036250Y-56964419D01*
X64014180Y-56951677D01*
X68025000Y-56951677D01*
X68025000Y-56975000D01*
X68750000Y-56975000D01*
X69250000Y-56975000D01*
X69974999Y-56975000D01*
X69974999Y-56951692D01*
X69974998Y-56951677D01*
X69964855Y-56852392D01*
X69911547Y-56691518D01*
X69911542Y-56691507D01*
X69822575Y-56547271D01*
X69822572Y-56547267D01*
X69702732Y-56427427D01*
X69702728Y-56427424D01*
X69558492Y-56338457D01*
X69558481Y-56338452D01*
X69397606Y-56285144D01*
X69298322Y-56275000D01*
X69250000Y-56275000D01*
X69250000Y-56975000D01*
X68750000Y-56975000D01*
X68750000Y-56275000D01*
X68749999Y-56274999D01*
X68701693Y-56275000D01*
X68701675Y-56275001D01*
X68602392Y-56285144D01*
X68441518Y-56338452D01*
X68441507Y-56338457D01*
X68297271Y-56427424D01*
X68297267Y-56427427D01*
X68177427Y-56547267D01*
X68177424Y-56547271D01*
X68088457Y-56691507D01*
X68088452Y-56691518D01*
X68035144Y-56852393D01*
X68025000Y-56951677D01*
X64014180Y-56951677D01*
X64003130Y-56945297D01*
X63966187Y-56935398D01*
X63929245Y-56925500D01*
X60997245Y-56925500D01*
X60920754Y-56925500D01*
X60865341Y-56940347D01*
X60846870Y-56945297D01*
X60780629Y-56983541D01*
X60780626Y-56983543D01*
X60475988Y-57288181D01*
X60414665Y-57321666D01*
X60388307Y-57324500D01*
X59943482Y-57324500D01*
X59862519Y-57337323D01*
X59849696Y-57339354D01*
X59736658Y-57396950D01*
X59736657Y-57396951D01*
X59736652Y-57396954D01*
X59646954Y-57486652D01*
X59646951Y-57486657D01*
X59646950Y-57486658D01*
X59607817Y-57563461D01*
X59589353Y-57599698D01*
X59588529Y-57604901D01*
X59558598Y-57668035D01*
X59499285Y-57704965D01*
X59466056Y-57709500D01*
X58033943Y-57709500D01*
X57966904Y-57689815D01*
X57921149Y-57637011D01*
X57911469Y-57604894D01*
X57910646Y-57599698D01*
X57910646Y-57599696D01*
X57853050Y-57486658D01*
X57853046Y-57486654D01*
X57853045Y-57486652D01*
X57763347Y-57396954D01*
X57763344Y-57396952D01*
X57763342Y-57396950D01*
X57686517Y-57357805D01*
X57650301Y-57339352D01*
X57556524Y-57324500D01*
X57093482Y-57324500D01*
X57012519Y-57337323D01*
X56999696Y-57339354D01*
X56886658Y-57396950D01*
X56886657Y-57396951D01*
X56886652Y-57396954D01*
X56796954Y-57486652D01*
X56796951Y-57486657D01*
X56796950Y-57486658D01*
X56791007Y-57498322D01*
X56739352Y-57599698D01*
X56724500Y-57693475D01*
X56275498Y-57693475D01*
X56260646Y-57599696D01*
X56203050Y-57486658D01*
X56203046Y-57486654D01*
X56203045Y-57486652D01*
X56113347Y-57396954D01*
X56113344Y-57396952D01*
X56113342Y-57396950D01*
X56036517Y-57357805D01*
X56000301Y-57339352D01*
X55906524Y-57324500D01*
X55443482Y-57324500D01*
X55362519Y-57337323D01*
X55349696Y-57339354D01*
X55236658Y-57396950D01*
X55236657Y-57396951D01*
X55236652Y-57396954D01*
X55146954Y-57486652D01*
X55146951Y-57486657D01*
X55146950Y-57486658D01*
X55107817Y-57563461D01*
X55089353Y-57599698D01*
X55088529Y-57604901D01*
X55058598Y-57668035D01*
X54999285Y-57704965D01*
X54966056Y-57709500D01*
X53533943Y-57709500D01*
X53466904Y-57689815D01*
X53421149Y-57637011D01*
X53411469Y-57604894D01*
X53410646Y-57599698D01*
X53410646Y-57599696D01*
X53353050Y-57486658D01*
X53353046Y-57486654D01*
X53353045Y-57486652D01*
X53263347Y-57396954D01*
X53263344Y-57396952D01*
X53263342Y-57396950D01*
X53186517Y-57357805D01*
X53150301Y-57339352D01*
X53056524Y-57324500D01*
X52593482Y-57324500D01*
X52512519Y-57337323D01*
X52499696Y-57339354D01*
X52386658Y-57396950D01*
X52386657Y-57396951D01*
X52386652Y-57396954D01*
X52296954Y-57486652D01*
X52296951Y-57486657D01*
X52296950Y-57486658D01*
X52291007Y-57498322D01*
X52239352Y-57599698D01*
X52224500Y-57693475D01*
X51775498Y-57693475D01*
X51760646Y-57599696D01*
X51703050Y-57486658D01*
X51703046Y-57486654D01*
X51703045Y-57486652D01*
X51613347Y-57396954D01*
X51613344Y-57396952D01*
X51613342Y-57396950D01*
X51536517Y-57357805D01*
X51500301Y-57339352D01*
X51406524Y-57324500D01*
X50943482Y-57324500D01*
X50862519Y-57337323D01*
X50849696Y-57339354D01*
X50736658Y-57396950D01*
X50736657Y-57396951D01*
X50736652Y-57396954D01*
X50646954Y-57486652D01*
X50646951Y-57486657D01*
X50646950Y-57486658D01*
X50607817Y-57563461D01*
X50589353Y-57599698D01*
X50588529Y-57604901D01*
X50558598Y-57668035D01*
X50499285Y-57704965D01*
X50466056Y-57709500D01*
X47981755Y-57709500D01*
X47907869Y-57729297D01*
X47841629Y-57767542D01*
X47841626Y-57767544D01*
X40192103Y-65417066D01*
X40130780Y-65450551D01*
X40061088Y-65445567D01*
X40056993Y-65443955D01*
X39926420Y-65389870D01*
X39926412Y-65389868D01*
X39723469Y-65349500D01*
X39723465Y-65349500D01*
X39516535Y-65349500D01*
X39516530Y-65349500D01*
X39313587Y-65389868D01*
X39313579Y-65389870D01*
X39122403Y-65469058D01*
X38950342Y-65584024D01*
X38804024Y-65730342D01*
X38689058Y-65902403D01*
X38609870Y-66093579D01*
X38609868Y-66093587D01*
X38569500Y-66296530D01*
X38130499Y-66296530D01*
X38090130Y-66093580D01*
X38036052Y-65963027D01*
X38028584Y-65893559D01*
X38059859Y-65831079D01*
X38062905Y-65827922D01*
X50435314Y-53455513D01*
X50496635Y-53422030D01*
X50566327Y-53427014D01*
X50622260Y-53468886D01*
X50633477Y-53486900D01*
X50646949Y-53513340D01*
X50646954Y-53513347D01*
X50736652Y-53603045D01*
X50736654Y-53603046D01*
X50736658Y-53603050D01*
X50849694Y-53660645D01*
X50849698Y-53660647D01*
X50943475Y-53675499D01*
X50943481Y-53675500D01*
X51406518Y-53675499D01*
X51500304Y-53660646D01*
X51613342Y-53603050D01*
X51703050Y-53513342D01*
X51760646Y-53400304D01*
X51760646Y-53400302D01*
X51760647Y-53400301D01*
X51775499Y-53306524D01*
X51775499Y-53306523D01*
X51775500Y-53306519D01*
X51775499Y-52693482D01*
X51775498Y-52693475D01*
X52224500Y-52693475D01*
X52224500Y-53306517D01*
X52232844Y-53359200D01*
X52239354Y-53400304D01*
X52296950Y-53513342D01*
X52296952Y-53513344D01*
X52296954Y-53513347D01*
X52386652Y-53603045D01*
X52386654Y-53603046D01*
X52386658Y-53603050D01*
X52499694Y-53660645D01*
X52499698Y-53660647D01*
X52593475Y-53675499D01*
X52593481Y-53675500D01*
X53056518Y-53675499D01*
X53150304Y-53660646D01*
X53263342Y-53603050D01*
X53353050Y-53513342D01*
X53410646Y-53400304D01*
X53411147Y-53397141D01*
X53411471Y-53395099D01*
X53441402Y-53331965D01*
X53500715Y-53295035D01*
X53533944Y-53290500D01*
X54966057Y-53290500D01*
X55033096Y-53310185D01*
X55078851Y-53362989D01*
X55088531Y-53395106D01*
X55089353Y-53400301D01*
X55089353Y-53400302D01*
X55089354Y-53400304D01*
X55146950Y-53513342D01*
X55146952Y-53513344D01*
X55146954Y-53513347D01*
X55236652Y-53603045D01*
X55236654Y-53603046D01*
X55236658Y-53603050D01*
X55349694Y-53660645D01*
X55349698Y-53660647D01*
X55443475Y-53675499D01*
X55443481Y-53675500D01*
X55906518Y-53675499D01*
X56000304Y-53660646D01*
X56113342Y-53603050D01*
X56203050Y-53513342D01*
X56260646Y-53400304D01*
X56260646Y-53400302D01*
X56260647Y-53400301D01*
X56275499Y-53306524D01*
X56275499Y-53306523D01*
X56275500Y-53306519D01*
X56275499Y-52693482D01*
X56275498Y-52693475D01*
X56724500Y-52693475D01*
X56724500Y-53306517D01*
X56732844Y-53359200D01*
X56739354Y-53400304D01*
X56796950Y-53513342D01*
X56796952Y-53513344D01*
X56796954Y-53513347D01*
X56886652Y-53603045D01*
X56886654Y-53603046D01*
X56886658Y-53603050D01*
X56999694Y-53660645D01*
X56999698Y-53660647D01*
X57093475Y-53675499D01*
X57093481Y-53675500D01*
X57556518Y-53675499D01*
X57650304Y-53660646D01*
X57763342Y-53603050D01*
X57853050Y-53513342D01*
X57910646Y-53400304D01*
X57911147Y-53397141D01*
X57911471Y-53395099D01*
X57941402Y-53331965D01*
X58000715Y-53295035D01*
X58033944Y-53290500D01*
X59466057Y-53290500D01*
X59533096Y-53310185D01*
X59578851Y-53362989D01*
X59588531Y-53395106D01*
X59589353Y-53400301D01*
X59589353Y-53400302D01*
X59589354Y-53400304D01*
X59646950Y-53513342D01*
X59646952Y-53513344D01*
X59646954Y-53513347D01*
X59736652Y-53603045D01*
X59736654Y-53603046D01*
X59736658Y-53603050D01*
X59849694Y-53660645D01*
X59849698Y-53660647D01*
X59943475Y-53675499D01*
X59943481Y-53675500D01*
X60388308Y-53675499D01*
X60455347Y-53695183D01*
X60475989Y-53711818D01*
X60716242Y-53952071D01*
X60770329Y-54006158D01*
X60836571Y-54044403D01*
X60910455Y-54064200D01*
X60910457Y-54064200D01*
X63939543Y-54064200D01*
X63939545Y-54064200D01*
X64013429Y-54044403D01*
X64079671Y-54006158D01*
X64374012Y-53711815D01*
X64435332Y-53678333D01*
X64461681Y-53675499D01*
X64906518Y-53675499D01*
X65000304Y-53660646D01*
X65106218Y-53606679D01*
X65174885Y-53593784D01*
X65239626Y-53620060D01*
X65279883Y-53677167D01*
X65282875Y-53746972D01*
X65282287Y-53749252D01*
X65262900Y-53821608D01*
X65262900Y-53953392D01*
X65277382Y-54007440D01*
X65297008Y-54080687D01*
X65327281Y-54133121D01*
X65362900Y-54194814D01*
X65456086Y-54288000D01*
X65570214Y-54353892D01*
X65697508Y-54388000D01*
X65697510Y-54388000D01*
X65829290Y-54388000D01*
X65829292Y-54388000D01*
X65956586Y-54353892D01*
X66070714Y-54288000D01*
X66163900Y-54194814D01*
X66229792Y-54080686D01*
X66263900Y-53953392D01*
X66263900Y-53849190D01*
X66272544Y-53819749D01*
X66279068Y-53789763D01*
X66282822Y-53784747D01*
X66283585Y-53782151D01*
X66300219Y-53761509D01*
X66349910Y-53711818D01*
X66411233Y-53678333D01*
X66437591Y-53675499D01*
X66538351Y-53675499D01*
X66605390Y-53695184D01*
X66626039Y-53711825D01*
X66862154Y-53947979D01*
X66862184Y-53948013D01*
X66867541Y-53953370D01*
X66867542Y-53953371D01*
X66891332Y-53977161D01*
X66921609Y-54007443D01*
X66921612Y-54007445D01*
X66921626Y-54007455D01*
X66921629Y-54007458D01*
X66921633Y-54007460D01*
X66921730Y-54007533D01*
X66922768Y-54008115D01*
X66953567Y-54025897D01*
X66953574Y-54025904D01*
X66953575Y-54025903D01*
X66987843Y-54045691D01*
X66987845Y-54045692D01*
X66987849Y-54045694D01*
X66987853Y-54045695D01*
X66987866Y-54045700D01*
X66987871Y-54045703D01*
X67022949Y-54055102D01*
X67061731Y-54065497D01*
X67061737Y-54065497D01*
X67061750Y-54065498D01*
X67061755Y-54065500D01*
X67061759Y-54065500D01*
X67099976Y-54065500D01*
X67138221Y-54065503D01*
X67138222Y-54065502D01*
X67146449Y-54065503D01*
X67146510Y-54065500D01*
X68229837Y-54065500D01*
X68296876Y-54085185D01*
X68340320Y-54133203D01*
X68371713Y-54194814D01*
X68401473Y-54253221D01*
X68401476Y-54253225D01*
X68496774Y-54348523D01*
X68496778Y-54348526D01*
X68496780Y-54348528D01*
X68616874Y-54409719D01*
X68616876Y-54409719D01*
X68616878Y-54409720D01*
X68716507Y-54425500D01*
X68716512Y-54425500D01*
X69283493Y-54425500D01*
X69383121Y-54409720D01*
X69383121Y-54409719D01*
X69383126Y-54409719D01*
X69503220Y-54348528D01*
X69598528Y-54253220D01*
X69659719Y-54133126D01*
X69659720Y-54133121D01*
X69675500Y-54033493D01*
X69675500Y-53516506D01*
X69659720Y-53416878D01*
X69659719Y-53416876D01*
X69659719Y-53416874D01*
X69598528Y-53296780D01*
X69598526Y-53296778D01*
X69598523Y-53296774D01*
X69579575Y-53277826D01*
X69546090Y-53216503D01*
X69551074Y-53146811D01*
X69592946Y-53090878D01*
X69602160Y-53084606D01*
X69702731Y-53022573D01*
X69822572Y-52902732D01*
X69822575Y-52902728D01*
X69911542Y-52758492D01*
X69911547Y-52758481D01*
X69964855Y-52597606D01*
X69974999Y-52498322D01*
X69975000Y-52498309D01*
X69975000Y-52475000D01*
X68025001Y-52475000D01*
X68025001Y-52498322D01*
X68035144Y-52597607D01*
X68088452Y-52758481D01*
X68088457Y-52758492D01*
X68177424Y-52902728D01*
X68177427Y-52902732D01*
X68297266Y-53022571D01*
X68397840Y-53084606D01*
X68444564Y-53136554D01*
X68455787Y-53205517D01*
X68438881Y-53254260D01*
X68431083Y-53267168D01*
X68401472Y-53296780D01*
X68340281Y-53416874D01*
X68340149Y-53417704D01*
X68335975Y-53424615D01*
X68313386Y-53445314D01*
X68292347Y-53467591D01*
X68287707Y-53468846D01*
X68284463Y-53471819D01*
X68263130Y-53475494D01*
X68229837Y-53484500D01*
X67271711Y-53484500D01*
X67204672Y-53464815D01*
X67184026Y-53448177D01*
X66961809Y-53225924D01*
X66928331Y-53164599D01*
X66925499Y-53138251D01*
X66925499Y-52693482D01*
X66922651Y-52675499D01*
X66910646Y-52599696D01*
X66853050Y-52486658D01*
X66853046Y-52486654D01*
X66853045Y-52486652D01*
X66763347Y-52396954D01*
X66763344Y-52396952D01*
X66763342Y-52396950D01*
X66686517Y-52357805D01*
X66650301Y-52339352D01*
X66556524Y-52324500D01*
X66093482Y-52324500D01*
X66012519Y-52337323D01*
X65999696Y-52339354D01*
X65886658Y-52396950D01*
X65886657Y-52396951D01*
X65886652Y-52396954D01*
X65796954Y-52486652D01*
X65796952Y-52486656D01*
X65796950Y-52486658D01*
X65791007Y-52498322D01*
X65739352Y-52599698D01*
X65724500Y-52693475D01*
X65724500Y-53284618D01*
X65704815Y-53351657D01*
X65652601Y-53397141D01*
X65642903Y-53401630D01*
X65570214Y-53421108D01*
X65456086Y-53487000D01*
X65453977Y-53489108D01*
X65441105Y-53495069D01*
X65411850Y-53499431D01*
X65383104Y-53506406D01*
X65377678Y-53504528D01*
X65372000Y-53505375D01*
X65345025Y-53493226D01*
X65317077Y-53483553D01*
X65313528Y-53479041D01*
X65308293Y-53476683D01*
X65292170Y-53451881D01*
X65273886Y-53428632D01*
X65273223Y-53422737D01*
X65270211Y-53418103D01*
X65270089Y-53394829D01*
X65266531Y-53363147D01*
X65268847Y-53348523D01*
X65275500Y-53306519D01*
X65275499Y-52693482D01*
X65260646Y-52599696D01*
X65203050Y-52486658D01*
X65203046Y-52486654D01*
X65203045Y-52486652D01*
X65113347Y-52396954D01*
X65113344Y-52396952D01*
X65113342Y-52396950D01*
X65036517Y-52357805D01*
X65000301Y-52339352D01*
X64906524Y-52324500D01*
X64443482Y-52324500D01*
X64362519Y-52337323D01*
X64349696Y-52339354D01*
X64236658Y-52396950D01*
X64236657Y-52396951D01*
X64236652Y-52396954D01*
X64146954Y-52486652D01*
X64146952Y-52486656D01*
X64146950Y-52486658D01*
X64141007Y-52498322D01*
X64089352Y-52599698D01*
X64074500Y-52693475D01*
X64074500Y-53138308D01*
X64054815Y-53205347D01*
X64038181Y-53225989D01*
X63817290Y-53446881D01*
X63755967Y-53480366D01*
X63729609Y-53483200D01*
X62847000Y-53483200D01*
X62779961Y-53463515D01*
X62734206Y-53410711D01*
X62723509Y-53347978D01*
X62725000Y-53331571D01*
X62725000Y-53250000D01*
X62075000Y-53250000D01*
X62075000Y-53359200D01*
X62055315Y-53426239D01*
X62002511Y-53471994D01*
X61951000Y-53483200D01*
X61699000Y-53483200D01*
X61631961Y-53463515D01*
X61586206Y-53410711D01*
X61575000Y-53359200D01*
X61575000Y-52750000D01*
X62075000Y-52750000D01*
X62724999Y-52750000D01*
X62724999Y-52668417D01*
X62718591Y-52597897D01*
X62718590Y-52597892D01*
X62668018Y-52435603D01*
X62580072Y-52290122D01*
X62459877Y-52169927D01*
X62314395Y-52081980D01*
X62314396Y-52081980D01*
X62266042Y-52066913D01*
X62152105Y-52031409D01*
X62152106Y-52031409D01*
X62081572Y-52025000D01*
X62075000Y-52025000D01*
X62075000Y-52750000D01*
X61575000Y-52750000D01*
X61575000Y-52025000D01*
X61574999Y-52024999D01*
X61568436Y-52025000D01*
X61568417Y-52025001D01*
X61497897Y-52031408D01*
X61497892Y-52031409D01*
X61335603Y-52081981D01*
X61190122Y-52169927D01*
X61069927Y-52290122D01*
X60981981Y-52435603D01*
X60956863Y-52516209D01*
X60918125Y-52574356D01*
X60854100Y-52602330D01*
X60785115Y-52591248D01*
X60733072Y-52544629D01*
X60728002Y-52535630D01*
X60703050Y-52486658D01*
X60703048Y-52486656D01*
X60703045Y-52486652D01*
X60613347Y-52396954D01*
X60613344Y-52396952D01*
X60613342Y-52396950D01*
X60536517Y-52357805D01*
X60500301Y-52339352D01*
X60406524Y-52324500D01*
X59943482Y-52324500D01*
X59862519Y-52337323D01*
X59849696Y-52339354D01*
X59736658Y-52396950D01*
X59736657Y-52396951D01*
X59736652Y-52396954D01*
X59646954Y-52486652D01*
X59646952Y-52486656D01*
X59646950Y-52486658D01*
X59590419Y-52597606D01*
X59589353Y-52599698D01*
X59588529Y-52604901D01*
X59558598Y-52668035D01*
X59499285Y-52704965D01*
X59466056Y-52709500D01*
X58033943Y-52709500D01*
X57966904Y-52689815D01*
X57921149Y-52637011D01*
X57911469Y-52604894D01*
X57910646Y-52599698D01*
X57910646Y-52599696D01*
X57853050Y-52486658D01*
X57853046Y-52486654D01*
X57853045Y-52486652D01*
X57763347Y-52396954D01*
X57763344Y-52396952D01*
X57763342Y-52396950D01*
X57686517Y-52357805D01*
X57650301Y-52339352D01*
X57556524Y-52324500D01*
X57093482Y-52324500D01*
X57012519Y-52337323D01*
X56999696Y-52339354D01*
X56886658Y-52396950D01*
X56886657Y-52396951D01*
X56886652Y-52396954D01*
X56796954Y-52486652D01*
X56796952Y-52486656D01*
X56796950Y-52486658D01*
X56791007Y-52498322D01*
X56739352Y-52599698D01*
X56724500Y-52693475D01*
X56275498Y-52693475D01*
X56260646Y-52599696D01*
X56203050Y-52486658D01*
X56203046Y-52486654D01*
X56203045Y-52486652D01*
X56113347Y-52396954D01*
X56113344Y-52396952D01*
X56113342Y-52396950D01*
X56036517Y-52357805D01*
X56000301Y-52339352D01*
X55906524Y-52324500D01*
X55443482Y-52324500D01*
X55362519Y-52337323D01*
X55349696Y-52339354D01*
X55236658Y-52396950D01*
X55236657Y-52396951D01*
X55236652Y-52396954D01*
X55146954Y-52486652D01*
X55146952Y-52486656D01*
X55146950Y-52486658D01*
X55090419Y-52597606D01*
X55089353Y-52599698D01*
X55088529Y-52604901D01*
X55058598Y-52668035D01*
X54999285Y-52704965D01*
X54966056Y-52709500D01*
X53533943Y-52709500D01*
X53466904Y-52689815D01*
X53421149Y-52637011D01*
X53411469Y-52604894D01*
X53410646Y-52599698D01*
X53410646Y-52599696D01*
X53353050Y-52486658D01*
X53353046Y-52486654D01*
X53353045Y-52486652D01*
X53263347Y-52396954D01*
X53263344Y-52396952D01*
X53263342Y-52396950D01*
X53186517Y-52357805D01*
X53150301Y-52339352D01*
X53056524Y-52324500D01*
X52593482Y-52324500D01*
X52512519Y-52337323D01*
X52499696Y-52339354D01*
X52386658Y-52396950D01*
X52386657Y-52396951D01*
X52386652Y-52396954D01*
X52296954Y-52486652D01*
X52296952Y-52486656D01*
X52296950Y-52486658D01*
X52291007Y-52498322D01*
X52239352Y-52599698D01*
X52224500Y-52693475D01*
X51775498Y-52693475D01*
X51760646Y-52599696D01*
X51703050Y-52486658D01*
X51703046Y-52486654D01*
X51703045Y-52486652D01*
X51613347Y-52396954D01*
X51613344Y-52396952D01*
X51613342Y-52396950D01*
X51536517Y-52357805D01*
X51500301Y-52339352D01*
X51406524Y-52324500D01*
X50943482Y-52324500D01*
X50862519Y-52337323D01*
X50849696Y-52339354D01*
X50736658Y-52396950D01*
X50736657Y-52396951D01*
X50736652Y-52396954D01*
X50646954Y-52486652D01*
X50646952Y-52486656D01*
X50646950Y-52486658D01*
X50590419Y-52597606D01*
X50589353Y-52599698D01*
X50588529Y-52604901D01*
X50558598Y-52668035D01*
X50499285Y-52704965D01*
X50466056Y-52709500D01*
X50441755Y-52709500D01*
X50367869Y-52729297D01*
X50301629Y-52767542D01*
X50301626Y-52767544D01*
X50092318Y-52976852D01*
X50030995Y-53010337D01*
X49961303Y-53005353D01*
X49905370Y-52963481D01*
X49880953Y-52898017D01*
X49884862Y-52857079D01*
X49889200Y-52840892D01*
X49889200Y-52709108D01*
X49855092Y-52581814D01*
X49789200Y-52467686D01*
X49696014Y-52374500D01*
X49638950Y-52341554D01*
X49581887Y-52308608D01*
X49512895Y-52290122D01*
X49454592Y-52274500D01*
X49322808Y-52274500D01*
X49195512Y-52308608D01*
X49081386Y-52374500D01*
X49007704Y-52448182D01*
X48946380Y-52481666D01*
X48920023Y-52484500D01*
X45270163Y-52484500D01*
X45259820Y-52481463D01*
X45249112Y-52482700D01*
X45226879Y-52471790D01*
X45203124Y-52464815D01*
X45194413Y-52455859D01*
X45186388Y-52451921D01*
X45171355Y-52432151D01*
X45164025Y-52424615D01*
X45159850Y-52417704D01*
X45159719Y-52416874D01*
X45098528Y-52296780D01*
X45068914Y-52267166D01*
X45061118Y-52254260D01*
X45055898Y-52234466D01*
X45046090Y-52216503D01*
X45047172Y-52201370D01*
X45043304Y-52186700D01*
X45049613Y-52167229D01*
X45051074Y-52146811D01*
X45060167Y-52134664D01*
X45064844Y-52120233D01*
X45080679Y-52107263D01*
X45092946Y-52090878D01*
X45102160Y-52084606D01*
X45202731Y-52022573D01*
X45273627Y-51951677D01*
X68025000Y-51951677D01*
X68025000Y-51975000D01*
X68750000Y-51975000D01*
X69250000Y-51975000D01*
X69974999Y-51975000D01*
X69974999Y-51951692D01*
X69974998Y-51951677D01*
X69964855Y-51852392D01*
X69911547Y-51691518D01*
X69911542Y-51691507D01*
X69822575Y-51547271D01*
X69822572Y-51547267D01*
X69702732Y-51427427D01*
X69702728Y-51427424D01*
X69558492Y-51338457D01*
X69558481Y-51338452D01*
X69397606Y-51285144D01*
X69298322Y-51275000D01*
X69250000Y-51275000D01*
X69250000Y-51975000D01*
X68750000Y-51975000D01*
X68750000Y-51275000D01*
X68749999Y-51274999D01*
X68701693Y-51275000D01*
X68701675Y-51275001D01*
X68602392Y-51285144D01*
X68441518Y-51338452D01*
X68441507Y-51338457D01*
X68297271Y-51427424D01*
X68297267Y-51427427D01*
X68177427Y-51547267D01*
X68177424Y-51547271D01*
X68088457Y-51691507D01*
X68088452Y-51691518D01*
X68035144Y-51852393D01*
X68025000Y-51951677D01*
X45273627Y-51951677D01*
X45322572Y-51902732D01*
X45322575Y-51902728D01*
X45411542Y-51758492D01*
X45411547Y-51758481D01*
X45464855Y-51597606D01*
X45474999Y-51498322D01*
X45475000Y-51498309D01*
X45475000Y-51475000D01*
X43525001Y-51475000D01*
X43525001Y-51498322D01*
X43535144Y-51597607D01*
X43588452Y-51758481D01*
X43588457Y-51758492D01*
X43677424Y-51902728D01*
X43677427Y-51902732D01*
X43797266Y-52022571D01*
X43897840Y-52084606D01*
X43944564Y-52136554D01*
X43955787Y-52205517D01*
X43938881Y-52254260D01*
X43931083Y-52267168D01*
X43901472Y-52296780D01*
X43840281Y-52416874D01*
X43840149Y-52417704D01*
X43835975Y-52424615D01*
X43813386Y-52445314D01*
X43792347Y-52467591D01*
X43787707Y-52468846D01*
X43784463Y-52471819D01*
X43763130Y-52475494D01*
X43729837Y-52484500D01*
X42771691Y-52484500D01*
X42704652Y-52464815D01*
X42684010Y-52448181D01*
X42461818Y-52225989D01*
X42428333Y-52164666D01*
X42425499Y-52138308D01*
X42425499Y-51693482D01*
X42421469Y-51668035D01*
X42410646Y-51599696D01*
X42353050Y-51486658D01*
X42353046Y-51486654D01*
X42353045Y-51486652D01*
X42263347Y-51396954D01*
X42263344Y-51396952D01*
X42263342Y-51396950D01*
X42186517Y-51357805D01*
X42150301Y-51339352D01*
X42056524Y-51324500D01*
X41593482Y-51324500D01*
X41512519Y-51337323D01*
X41499696Y-51339354D01*
X41386658Y-51396950D01*
X41386657Y-51396951D01*
X41386652Y-51396954D01*
X41296954Y-51486652D01*
X41296952Y-51486656D01*
X41296950Y-51486658D01*
X41291007Y-51498322D01*
X41239352Y-51599698D01*
X41224500Y-51693475D01*
X41224500Y-52306517D01*
X41228531Y-52331965D01*
X41239354Y-52400304D01*
X41296950Y-52513342D01*
X41296952Y-52513344D01*
X41296954Y-52513347D01*
X41386652Y-52603045D01*
X41386654Y-52603046D01*
X41386658Y-52603050D01*
X41499694Y-52660645D01*
X41499698Y-52660647D01*
X41593475Y-52675499D01*
X41593481Y-52675500D01*
X42038308Y-52675499D01*
X42105347Y-52695183D01*
X42125989Y-52711818D01*
X42367542Y-52953371D01*
X42421629Y-53007458D01*
X42478994Y-53040578D01*
X42485617Y-53044402D01*
X42487871Y-53045703D01*
X42561755Y-53065500D01*
X43729837Y-53065500D01*
X43796876Y-53085185D01*
X43840320Y-53133203D01*
X43901472Y-53253220D01*
X43901473Y-53253221D01*
X43901476Y-53253225D01*
X43996774Y-53348523D01*
X43996778Y-53348526D01*
X43996780Y-53348528D01*
X44116874Y-53409719D01*
X44116876Y-53409719D01*
X44116878Y-53409720D01*
X44216507Y-53425500D01*
X44216512Y-53425500D01*
X44783493Y-53425500D01*
X44883121Y-53409720D01*
X44883121Y-53409719D01*
X44883126Y-53409719D01*
X45003220Y-53348528D01*
X45098528Y-53253220D01*
X45159679Y-53133203D01*
X45207653Y-53082409D01*
X45270163Y-53065500D01*
X48920023Y-53065500D01*
X48987062Y-53085185D01*
X49007704Y-53101818D01*
X49081386Y-53175500D01*
X49195514Y-53241392D01*
X49322808Y-53275500D01*
X49322810Y-53275500D01*
X49454590Y-53275500D01*
X49454592Y-53275500D01*
X49470777Y-53271163D01*
X49540625Y-53272824D01*
X49598488Y-53311985D01*
X49625994Y-53376213D01*
X49614409Y-53445116D01*
X49590552Y-53478618D01*
X37652103Y-65417066D01*
X37590780Y-65450551D01*
X37521088Y-65445567D01*
X37516993Y-65443955D01*
X37386420Y-65389870D01*
X37386412Y-65389868D01*
X37183469Y-65349500D01*
X37183465Y-65349500D01*
X36976535Y-65349500D01*
X36976530Y-65349500D01*
X36773587Y-65389868D01*
X36773579Y-65389870D01*
X36582403Y-65469058D01*
X36410342Y-65584024D01*
X36264024Y-65730342D01*
X36149058Y-65902403D01*
X36069870Y-66093579D01*
X36069868Y-66093587D01*
X36029500Y-66296530D01*
X35590499Y-66296530D01*
X35550130Y-66093580D01*
X35470941Y-65902402D01*
X35355977Y-65730345D01*
X35355975Y-65730342D01*
X35209657Y-65584024D01*
X35111463Y-65518414D01*
X35037598Y-65469059D01*
X35037593Y-65469057D01*
X34846420Y-65389870D01*
X34846412Y-65389868D01*
X34643469Y-65349500D01*
X34643465Y-65349500D01*
X34436535Y-65349500D01*
X34436530Y-65349500D01*
X34233587Y-65389868D01*
X34233579Y-65389870D01*
X34042403Y-65469058D01*
X33870342Y-65584024D01*
X33724024Y-65730342D01*
X33609058Y-65902403D01*
X33529870Y-66093579D01*
X33529868Y-66093587D01*
X33489500Y-66296530D01*
X33050500Y-66296530D01*
X33050500Y-65530249D01*
X33050499Y-65530247D01*
X33038868Y-65471770D01*
X33038867Y-65471769D01*
X32994552Y-65405447D01*
X32928230Y-65361132D01*
X32928229Y-65361131D01*
X32869752Y-65349500D01*
X32869748Y-65349500D01*
X31130252Y-65349500D01*
X31130247Y-65349500D01*
X31071770Y-65361131D01*
X31071769Y-65361132D01*
X31005447Y-65405447D01*
X30961132Y-65471769D01*
X30961131Y-65471770D01*
X30949500Y-65530247D01*
X26245527Y-65530247D01*
X26251557Y-65518412D01*
X26317246Y-65316243D01*
X26350500Y-65106287D01*
X26350500Y-64893713D01*
X26317246Y-64683757D01*
X26251557Y-64481588D01*
X26155051Y-64292184D01*
X26155049Y-64292181D01*
X26155048Y-64292179D01*
X26030109Y-64120213D01*
X25879786Y-63969890D01*
X25707820Y-63844951D01*
X25518414Y-63748444D01*
X25518413Y-63748443D01*
X25518412Y-63748443D01*
X25316243Y-63682754D01*
X25316241Y-63682753D01*
X25316240Y-63682753D01*
X25154957Y-63657208D01*
X25106287Y-63649500D01*
X24893713Y-63649500D01*
X24845042Y-63657208D01*
X24683760Y-63682753D01*
X24481585Y-63748444D01*
X24292179Y-63844951D01*
X24120213Y-63969890D01*
X23969890Y-64120213D01*
X23844951Y-64292179D01*
X23748444Y-64481585D01*
X23682753Y-64683760D01*
X23667088Y-64782667D01*
X23649500Y-64893713D01*
X21000000Y-64893713D01*
X21000000Y-51693475D01*
X26074500Y-51693475D01*
X26074500Y-52306517D01*
X26078531Y-52331965D01*
X26089354Y-52400304D01*
X26146950Y-52513342D01*
X26218601Y-52584993D01*
X26252085Y-52646314D01*
X26247101Y-52716006D01*
X26238307Y-52734672D01*
X26208608Y-52786111D01*
X26193930Y-52840892D01*
X26174500Y-52913408D01*
X26174500Y-53045192D01*
X26184447Y-53082314D01*
X26208608Y-53172487D01*
X26234021Y-53216503D01*
X26274500Y-53286614D01*
X26367686Y-53379800D01*
X26481814Y-53445692D01*
X26609108Y-53479800D01*
X26609110Y-53479800D01*
X26740890Y-53479800D01*
X26740892Y-53479800D01*
X26868186Y-53445692D01*
X26982314Y-53379800D01*
X27075500Y-53286614D01*
X27141392Y-53172486D01*
X27175500Y-53045192D01*
X27175500Y-52913408D01*
X27141392Y-52786114D01*
X27130671Y-52767544D01*
X27111693Y-52734673D01*
X27095220Y-52666773D01*
X27118072Y-52600746D01*
X27131394Y-52584997D01*
X27203050Y-52513342D01*
X27260646Y-52400304D01*
X27260646Y-52400302D01*
X27260647Y-52400301D01*
X27275499Y-52306524D01*
X27275500Y-52306519D01*
X27275499Y-51693482D01*
X27275498Y-51693475D01*
X27724500Y-51693475D01*
X27724500Y-52306517D01*
X27728531Y-52331965D01*
X27739354Y-52400304D01*
X27796950Y-52513342D01*
X27796952Y-52513344D01*
X27796954Y-52513347D01*
X27886652Y-52603045D01*
X27886654Y-52603046D01*
X27886658Y-52603050D01*
X27999694Y-52660645D01*
X27999698Y-52660647D01*
X28093475Y-52675499D01*
X28093481Y-52675500D01*
X28556518Y-52675499D01*
X28650304Y-52660646D01*
X28763342Y-52603050D01*
X28853050Y-52513342D01*
X28910646Y-52400304D01*
X28911177Y-52396950D01*
X28911471Y-52395099D01*
X28941402Y-52331965D01*
X29000715Y-52295035D01*
X29033944Y-52290500D01*
X30466057Y-52290500D01*
X30533096Y-52310185D01*
X30578851Y-52362989D01*
X30588531Y-52395106D01*
X30589353Y-52400301D01*
X30589353Y-52400302D01*
X30589354Y-52400304D01*
X30646950Y-52513342D01*
X30646952Y-52513344D01*
X30646954Y-52513347D01*
X30736652Y-52603045D01*
X30736654Y-52603046D01*
X30736658Y-52603050D01*
X30849694Y-52660645D01*
X30849698Y-52660647D01*
X30943475Y-52675499D01*
X30943481Y-52675500D01*
X31406518Y-52675499D01*
X31500304Y-52660646D01*
X31613342Y-52603050D01*
X31703050Y-52513342D01*
X31760646Y-52400304D01*
X31760646Y-52400302D01*
X31760647Y-52400301D01*
X31775499Y-52306524D01*
X31775500Y-52306519D01*
X31775499Y-51693482D01*
X31775498Y-51693475D01*
X32224500Y-51693475D01*
X32224500Y-52306517D01*
X32228531Y-52331965D01*
X32239354Y-52400304D01*
X32296950Y-52513342D01*
X32296952Y-52513344D01*
X32296954Y-52513347D01*
X32386652Y-52603045D01*
X32386654Y-52603046D01*
X32386658Y-52603050D01*
X32499694Y-52660645D01*
X32499698Y-52660647D01*
X32593475Y-52675499D01*
X32593481Y-52675500D01*
X33056518Y-52675499D01*
X33150304Y-52660646D01*
X33263342Y-52603050D01*
X33353050Y-52513342D01*
X33410646Y-52400304D01*
X33411177Y-52396950D01*
X33411471Y-52395099D01*
X33441402Y-52331965D01*
X33500715Y-52295035D01*
X33533944Y-52290500D01*
X34966057Y-52290500D01*
X35033096Y-52310185D01*
X35078851Y-52362989D01*
X35088531Y-52395106D01*
X35089353Y-52400301D01*
X35089353Y-52400302D01*
X35089354Y-52400304D01*
X35146950Y-52513342D01*
X35146952Y-52513344D01*
X35146954Y-52513347D01*
X35236652Y-52603045D01*
X35236654Y-52603046D01*
X35236658Y-52603050D01*
X35349694Y-52660645D01*
X35349698Y-52660647D01*
X35443475Y-52675499D01*
X35443481Y-52675500D01*
X35888308Y-52675499D01*
X35955347Y-52695183D01*
X35975989Y-52711818D01*
X36216242Y-52952071D01*
X36270329Y-53006158D01*
X36336571Y-53044403D01*
X36410455Y-53064200D01*
X36410457Y-53064200D01*
X39439543Y-53064200D01*
X39439545Y-53064200D01*
X39513429Y-53044403D01*
X39579671Y-53006158D01*
X39874012Y-52711815D01*
X39935332Y-52678333D01*
X39961681Y-52675499D01*
X40406518Y-52675499D01*
X40500304Y-52660646D01*
X40613342Y-52603050D01*
X40703050Y-52513342D01*
X40760646Y-52400304D01*
X40760646Y-52400302D01*
X40760647Y-52400301D01*
X40775499Y-52306524D01*
X40775500Y-52306519D01*
X40775499Y-51693482D01*
X40760646Y-51599696D01*
X40703050Y-51486658D01*
X40703046Y-51486654D01*
X40703045Y-51486652D01*
X40613347Y-51396954D01*
X40613344Y-51396952D01*
X40613342Y-51396950D01*
X40536517Y-51357805D01*
X40500301Y-51339352D01*
X40406524Y-51324500D01*
X39943482Y-51324500D01*
X39862519Y-51337323D01*
X39849696Y-51339354D01*
X39736658Y-51396950D01*
X39736657Y-51396951D01*
X39736652Y-51396954D01*
X39646954Y-51486652D01*
X39646952Y-51486656D01*
X39646950Y-51486658D01*
X39641007Y-51498322D01*
X39589352Y-51599698D01*
X39574500Y-51693475D01*
X39574500Y-52138308D01*
X39554815Y-52205347D01*
X39538181Y-52225989D01*
X39317290Y-52446881D01*
X39255967Y-52480366D01*
X39229609Y-52483200D01*
X38347000Y-52483200D01*
X38279961Y-52463515D01*
X38234206Y-52410711D01*
X38223509Y-52347978D01*
X38225000Y-52331571D01*
X38225000Y-52250000D01*
X37575000Y-52250000D01*
X37575000Y-52359200D01*
X37555315Y-52426239D01*
X37502511Y-52471994D01*
X37451000Y-52483200D01*
X37199000Y-52483200D01*
X37131961Y-52463515D01*
X37086206Y-52410711D01*
X37075000Y-52359200D01*
X37075000Y-51750000D01*
X37575000Y-51750000D01*
X38224999Y-51750000D01*
X38224999Y-51668417D01*
X38218591Y-51597897D01*
X38218590Y-51597892D01*
X38168018Y-51435603D01*
X38080072Y-51290122D01*
X37959877Y-51169927D01*
X37814395Y-51081980D01*
X37814396Y-51081980D01*
X37766042Y-51066913D01*
X37652105Y-51031409D01*
X37652106Y-51031409D01*
X37581572Y-51025000D01*
X37575000Y-51025000D01*
X37575000Y-51750000D01*
X37075000Y-51750000D01*
X37075000Y-51025000D01*
X37074999Y-51024999D01*
X37068436Y-51025000D01*
X37068417Y-51025001D01*
X36997897Y-51031408D01*
X36997892Y-51031409D01*
X36835603Y-51081981D01*
X36690122Y-51169927D01*
X36569927Y-51290122D01*
X36481981Y-51435603D01*
X36456863Y-51516209D01*
X36418125Y-51574356D01*
X36354100Y-51602330D01*
X36285115Y-51591248D01*
X36233072Y-51544629D01*
X36228002Y-51535630D01*
X36203050Y-51486658D01*
X36203048Y-51486656D01*
X36203045Y-51486652D01*
X36113347Y-51396954D01*
X36113344Y-51396952D01*
X36113342Y-51396950D01*
X36036517Y-51357805D01*
X36000301Y-51339352D01*
X35906524Y-51324500D01*
X35443482Y-51324500D01*
X35362519Y-51337323D01*
X35349696Y-51339354D01*
X35236658Y-51396950D01*
X35236657Y-51396951D01*
X35236652Y-51396954D01*
X35146954Y-51486652D01*
X35146952Y-51486656D01*
X35146950Y-51486658D01*
X35090419Y-51597606D01*
X35089353Y-51599698D01*
X35088529Y-51604901D01*
X35058598Y-51668035D01*
X34999285Y-51704965D01*
X34966056Y-51709500D01*
X33533943Y-51709500D01*
X33466904Y-51689815D01*
X33421149Y-51637011D01*
X33411469Y-51604894D01*
X33410646Y-51599698D01*
X33410646Y-51599696D01*
X33353050Y-51486658D01*
X33353046Y-51486654D01*
X33353045Y-51486652D01*
X33263347Y-51396954D01*
X33263344Y-51396952D01*
X33263342Y-51396950D01*
X33186517Y-51357805D01*
X33150301Y-51339352D01*
X33056524Y-51324500D01*
X32593482Y-51324500D01*
X32512519Y-51337323D01*
X32499696Y-51339354D01*
X32386658Y-51396950D01*
X32386657Y-51396951D01*
X32386652Y-51396954D01*
X32296954Y-51486652D01*
X32296952Y-51486656D01*
X32296950Y-51486658D01*
X32291007Y-51498322D01*
X32239352Y-51599698D01*
X32224500Y-51693475D01*
X31775498Y-51693475D01*
X31760646Y-51599696D01*
X31703050Y-51486658D01*
X31703046Y-51486654D01*
X31703045Y-51486652D01*
X31613347Y-51396954D01*
X31613344Y-51396952D01*
X31613342Y-51396950D01*
X31536517Y-51357805D01*
X31500301Y-51339352D01*
X31406524Y-51324500D01*
X30943482Y-51324500D01*
X30862519Y-51337323D01*
X30849696Y-51339354D01*
X30736658Y-51396950D01*
X30736657Y-51396951D01*
X30736652Y-51396954D01*
X30646954Y-51486652D01*
X30646952Y-51486656D01*
X30646950Y-51486658D01*
X30590419Y-51597606D01*
X30589353Y-51599698D01*
X30588529Y-51604901D01*
X30558598Y-51668035D01*
X30499285Y-51704965D01*
X30466056Y-51709500D01*
X29033943Y-51709500D01*
X28966904Y-51689815D01*
X28921149Y-51637011D01*
X28911469Y-51604894D01*
X28910646Y-51599698D01*
X28910646Y-51599696D01*
X28853050Y-51486658D01*
X28853046Y-51486654D01*
X28853045Y-51486652D01*
X28763347Y-51396954D01*
X28763344Y-51396952D01*
X28763342Y-51396950D01*
X28686517Y-51357805D01*
X28650301Y-51339352D01*
X28556524Y-51324500D01*
X28093482Y-51324500D01*
X28012519Y-51337323D01*
X27999696Y-51339354D01*
X27886658Y-51396950D01*
X27886657Y-51396951D01*
X27886652Y-51396954D01*
X27796954Y-51486652D01*
X27796952Y-51486656D01*
X27796950Y-51486658D01*
X27791007Y-51498322D01*
X27739352Y-51599698D01*
X27724500Y-51693475D01*
X27275498Y-51693475D01*
X27260646Y-51599696D01*
X27203050Y-51486658D01*
X27203046Y-51486654D01*
X27203045Y-51486652D01*
X27113347Y-51396954D01*
X27113344Y-51396952D01*
X27113342Y-51396950D01*
X27036517Y-51357805D01*
X27000301Y-51339352D01*
X26906524Y-51324500D01*
X26443482Y-51324500D01*
X26362519Y-51337323D01*
X26349696Y-51339354D01*
X26236658Y-51396950D01*
X26236657Y-51396951D01*
X26236652Y-51396954D01*
X26146954Y-51486652D01*
X26146952Y-51486656D01*
X26146950Y-51486658D01*
X26141007Y-51498322D01*
X26089352Y-51599698D01*
X26074500Y-51693475D01*
X21000000Y-51693475D01*
X21000000Y-50951677D01*
X43525000Y-50951677D01*
X43525000Y-50975000D01*
X44250000Y-50975000D01*
X44750000Y-50975000D01*
X45474999Y-50975000D01*
X45474999Y-50951692D01*
X45474998Y-50951677D01*
X45464855Y-50852392D01*
X45411547Y-50691518D01*
X45411542Y-50691507D01*
X45322575Y-50547271D01*
X45322572Y-50547267D01*
X45202732Y-50427427D01*
X45202728Y-50427424D01*
X45058492Y-50338457D01*
X45058481Y-50338452D01*
X44897606Y-50285144D01*
X44798322Y-50275000D01*
X44750000Y-50275000D01*
X44750000Y-50975000D01*
X44250000Y-50975000D01*
X44250000Y-50275000D01*
X44249999Y-50274999D01*
X44201693Y-50275000D01*
X44201675Y-50275001D01*
X44102392Y-50285144D01*
X43941518Y-50338452D01*
X43941507Y-50338457D01*
X43797271Y-50427424D01*
X43797267Y-50427427D01*
X43677427Y-50547267D01*
X43677424Y-50547271D01*
X43588457Y-50691507D01*
X43588452Y-50691518D01*
X43535144Y-50852393D01*
X43525000Y-50951677D01*
X21000000Y-50951677D01*
X21000000Y-46693475D01*
X26074500Y-46693475D01*
X26074500Y-47306517D01*
X26083564Y-47363744D01*
X26089354Y-47400304D01*
X26146950Y-47513342D01*
X26146952Y-47513344D01*
X26146954Y-47513347D01*
X26236652Y-47603045D01*
X26236654Y-47603046D01*
X26236658Y-47603050D01*
X26346791Y-47659166D01*
X26349698Y-47660647D01*
X26443475Y-47675499D01*
X26443481Y-47675500D01*
X26775823Y-47675499D01*
X26842862Y-47695183D01*
X26888617Y-47747987D01*
X26898761Y-47783306D01*
X26899799Y-47791187D01*
X26933908Y-47918487D01*
X26954049Y-47953371D01*
X26999800Y-48032614D01*
X27092986Y-48125800D01*
X27207114Y-48191692D01*
X27334408Y-48225800D01*
X27334410Y-48225800D01*
X27466190Y-48225800D01*
X27466192Y-48225800D01*
X27593486Y-48191692D01*
X27707614Y-48125800D01*
X27800800Y-48032614D01*
X27866692Y-47918486D01*
X27900800Y-47791192D01*
X27900800Y-47790168D01*
X27901043Y-47789337D01*
X27901861Y-47783132D01*
X27902828Y-47783259D01*
X27920485Y-47723129D01*
X27973289Y-47677374D01*
X28042447Y-47667430D01*
X28044198Y-47667695D01*
X28093475Y-47675499D01*
X28093481Y-47675500D01*
X28556518Y-47675499D01*
X28650304Y-47660646D01*
X28763342Y-47603050D01*
X28853050Y-47513342D01*
X28910646Y-47400304D01*
X28911202Y-47396796D01*
X28911471Y-47395099D01*
X28941402Y-47331965D01*
X29000715Y-47295035D01*
X29033944Y-47290500D01*
X30466057Y-47290500D01*
X30533096Y-47310185D01*
X30578851Y-47362989D01*
X30588531Y-47395106D01*
X30589353Y-47400301D01*
X30589353Y-47400302D01*
X30589354Y-47400304D01*
X30646950Y-47513342D01*
X30646952Y-47513344D01*
X30646954Y-47513347D01*
X30736652Y-47603045D01*
X30736654Y-47603046D01*
X30736658Y-47603050D01*
X30846791Y-47659166D01*
X30849698Y-47660647D01*
X30943475Y-47675499D01*
X30943481Y-47675500D01*
X31406518Y-47675499D01*
X31500304Y-47660646D01*
X31613342Y-47603050D01*
X31703050Y-47513342D01*
X31760646Y-47400304D01*
X31760646Y-47400302D01*
X31760647Y-47400301D01*
X31775499Y-47306524D01*
X31775500Y-47306519D01*
X31775499Y-46693482D01*
X31775498Y-46693475D01*
X32224500Y-46693475D01*
X32224500Y-47306517D01*
X32233564Y-47363744D01*
X32239354Y-47400304D01*
X32296950Y-47513342D01*
X32296952Y-47513344D01*
X32296954Y-47513347D01*
X32386652Y-47603045D01*
X32386654Y-47603046D01*
X32386658Y-47603050D01*
X32496791Y-47659166D01*
X32499698Y-47660647D01*
X32593475Y-47675499D01*
X32593481Y-47675500D01*
X33056518Y-47675499D01*
X33150304Y-47660646D01*
X33263342Y-47603050D01*
X33353050Y-47513342D01*
X33410646Y-47400304D01*
X33411202Y-47396796D01*
X33411471Y-47395099D01*
X33441402Y-47331965D01*
X33500715Y-47295035D01*
X33533944Y-47290500D01*
X34966057Y-47290500D01*
X35033096Y-47310185D01*
X35078851Y-47362989D01*
X35088531Y-47395106D01*
X35089353Y-47400301D01*
X35089353Y-47400302D01*
X35089354Y-47400304D01*
X35146950Y-47513342D01*
X35146952Y-47513344D01*
X35146954Y-47513347D01*
X35236652Y-47603045D01*
X35236654Y-47603046D01*
X35236658Y-47603050D01*
X35346791Y-47659166D01*
X35349698Y-47660647D01*
X35443475Y-47675499D01*
X35443481Y-47675500D01*
X35906518Y-47675499D01*
X36000304Y-47660646D01*
X36113342Y-47603050D01*
X36203050Y-47513342D01*
X36227995Y-47464384D01*
X36275967Y-47413591D01*
X36343788Y-47396796D01*
X36409923Y-47419333D01*
X36453375Y-47474048D01*
X36456863Y-47483791D01*
X36481981Y-47564396D01*
X36569927Y-47709877D01*
X36690122Y-47830072D01*
X36835604Y-47918019D01*
X36835603Y-47918019D01*
X36997894Y-47968590D01*
X36997893Y-47968590D01*
X37068408Y-47974998D01*
X37068426Y-47974999D01*
X37575000Y-47974999D01*
X37581581Y-47974999D01*
X37652102Y-47968591D01*
X37652107Y-47968590D01*
X37814396Y-47918018D01*
X37959877Y-47830072D01*
X38080072Y-47709877D01*
X38168019Y-47564395D01*
X38218590Y-47402106D01*
X38225000Y-47331572D01*
X38225000Y-47250000D01*
X37575000Y-47250000D01*
X37575000Y-47974999D01*
X37068426Y-47974999D01*
X37074999Y-47974998D01*
X37075000Y-47974998D01*
X37075000Y-46640700D01*
X37094685Y-46573661D01*
X37147489Y-46527906D01*
X37199000Y-46516700D01*
X37451000Y-46516700D01*
X37518039Y-46536385D01*
X37563794Y-46589189D01*
X37575000Y-46640700D01*
X37575000Y-46750000D01*
X38224999Y-46750000D01*
X38224999Y-46668418D01*
X38223500Y-46651921D01*
X38237037Y-46583375D01*
X38285484Y-46533030D01*
X38346991Y-46516700D01*
X39229509Y-46516700D01*
X39296548Y-46536385D01*
X39317190Y-46553019D01*
X39538181Y-46774010D01*
X39571666Y-46835333D01*
X39574500Y-46861691D01*
X39574500Y-47306517D01*
X39583564Y-47363744D01*
X39589354Y-47400304D01*
X39646950Y-47513342D01*
X39646952Y-47513344D01*
X39646954Y-47513347D01*
X39736652Y-47603045D01*
X39736654Y-47603046D01*
X39736658Y-47603050D01*
X39846791Y-47659166D01*
X39849698Y-47660647D01*
X39943475Y-47675499D01*
X39943481Y-47675500D01*
X40406518Y-47675499D01*
X40500304Y-47660646D01*
X40613342Y-47603050D01*
X40703050Y-47513342D01*
X40760646Y-47400304D01*
X40760646Y-47400302D01*
X40760647Y-47400301D01*
X40775499Y-47306524D01*
X40775500Y-47306519D01*
X40775499Y-46693482D01*
X40775498Y-46693475D01*
X41224500Y-46693475D01*
X41224500Y-47306517D01*
X41233564Y-47363744D01*
X41239354Y-47400304D01*
X41296950Y-47513342D01*
X41296952Y-47513344D01*
X41296954Y-47513347D01*
X41386652Y-47603045D01*
X41386654Y-47603046D01*
X41386658Y-47603050D01*
X41496791Y-47659166D01*
X41499698Y-47660647D01*
X41593475Y-47675499D01*
X41593481Y-47675500D01*
X42038308Y-47675499D01*
X42105347Y-47695183D01*
X42125989Y-47711818D01*
X42367542Y-47953371D01*
X42421629Y-48007458D01*
X42487871Y-48045703D01*
X42561755Y-48065500D01*
X42638246Y-48065500D01*
X43729837Y-48065500D01*
X43796876Y-48085185D01*
X43840320Y-48133203D01*
X43901472Y-48253220D01*
X43901473Y-48253221D01*
X43901476Y-48253225D01*
X43996774Y-48348523D01*
X43996778Y-48348526D01*
X43996780Y-48348528D01*
X44116874Y-48409719D01*
X44116876Y-48409719D01*
X44116878Y-48409720D01*
X44216507Y-48425500D01*
X44216512Y-48425500D01*
X44783493Y-48425500D01*
X44883121Y-48409720D01*
X44883121Y-48409719D01*
X44883126Y-48409719D01*
X45003220Y-48348528D01*
X45003225Y-48348523D01*
X45072430Y-48279319D01*
X45133753Y-48245834D01*
X45160111Y-48243000D01*
X46909123Y-48243000D01*
X46976162Y-48262685D01*
X46996804Y-48279318D01*
X47070486Y-48353000D01*
X47184614Y-48418892D01*
X47311908Y-48453000D01*
X47311910Y-48453000D01*
X47443690Y-48453000D01*
X47443692Y-48453000D01*
X47570986Y-48418892D01*
X47685114Y-48353000D01*
X47778300Y-48259814D01*
X47825780Y-48177577D01*
X74175975Y-48177577D01*
X74281236Y-48221178D01*
X74281240Y-48221179D01*
X74426126Y-48249999D01*
X74426129Y-48250000D01*
X74573871Y-48250000D01*
X74573873Y-48249999D01*
X74718760Y-48221179D01*
X74718775Y-48221175D01*
X74824024Y-48177578D01*
X74824024Y-48177577D01*
X74500001Y-47853554D01*
X74500000Y-47853554D01*
X74175975Y-48177577D01*
X47825780Y-48177577D01*
X47844192Y-48145686D01*
X47878300Y-48018392D01*
X47878300Y-47886608D01*
X47844192Y-47759314D01*
X47778300Y-47645186D01*
X47685114Y-47552000D01*
X47618157Y-47513342D01*
X47570987Y-47486108D01*
X47501879Y-47467591D01*
X47443692Y-47452000D01*
X47311908Y-47452000D01*
X47184612Y-47486108D01*
X47070486Y-47552000D01*
X46996804Y-47625682D01*
X46935480Y-47659166D01*
X46909123Y-47662000D01*
X45299500Y-47662000D01*
X45232461Y-47642315D01*
X45186706Y-47589511D01*
X45175500Y-47538000D01*
X45175500Y-47516506D01*
X45159720Y-47416878D01*
X45159719Y-47416876D01*
X45159719Y-47416874D01*
X45098528Y-47296780D01*
X45098526Y-47296778D01*
X45098523Y-47296774D01*
X45079575Y-47277826D01*
X45046090Y-47216503D01*
X45051074Y-47146811D01*
X45092946Y-47090878D01*
X45102160Y-47084606D01*
X45202731Y-47022573D01*
X45322572Y-46902732D01*
X45322575Y-46902728D01*
X45411542Y-46758492D01*
X45411547Y-46758481D01*
X45425457Y-46716506D01*
X55324500Y-46716506D01*
X55324500Y-47233493D01*
X55340279Y-47333121D01*
X55340280Y-47333124D01*
X55340281Y-47333126D01*
X55401472Y-47453220D01*
X55401473Y-47453221D01*
X55401476Y-47453225D01*
X55496774Y-47548523D01*
X55496778Y-47548526D01*
X55496780Y-47548528D01*
X55616874Y-47609719D01*
X55616876Y-47609719D01*
X55616878Y-47609720D01*
X55716507Y-47625500D01*
X55716512Y-47625500D01*
X56283493Y-47625500D01*
X56383121Y-47609720D01*
X56383121Y-47609719D01*
X56383126Y-47609719D01*
X56503220Y-47548528D01*
X56598528Y-47453220D01*
X56659679Y-47333203D01*
X56670127Y-47322140D01*
X56676450Y-47308297D01*
X56693630Y-47297255D01*
X56707653Y-47282409D01*
X56723332Y-47278167D01*
X56735228Y-47270523D01*
X56770163Y-47265500D01*
X56865223Y-47265500D01*
X56932262Y-47285185D01*
X56952904Y-47301818D01*
X57026586Y-47375500D01*
X57140714Y-47441392D01*
X57268008Y-47475500D01*
X57268010Y-47475500D01*
X57399790Y-47475500D01*
X57399792Y-47475500D01*
X57527086Y-47441392D01*
X57641214Y-47375500D01*
X57734400Y-47282314D01*
X57800292Y-47168186D01*
X57834400Y-47040892D01*
X57834400Y-46909108D01*
X57800292Y-46781814D01*
X57798783Y-46779201D01*
X57771796Y-46732458D01*
X57734400Y-46667686D01*
X57641214Y-46574500D01*
X57541102Y-46516700D01*
X57527087Y-46508608D01*
X57463439Y-46491554D01*
X57399792Y-46474500D01*
X57268008Y-46474500D01*
X57140712Y-46508608D01*
X57026586Y-46574500D01*
X56952904Y-46648182D01*
X56925973Y-46662886D01*
X56900158Y-46679477D01*
X56893955Y-46680368D01*
X56891580Y-46681666D01*
X56865223Y-46684500D01*
X56770163Y-46684500D01*
X56703124Y-46664815D01*
X56659679Y-46616796D01*
X56598528Y-46496780D01*
X56598526Y-46496778D01*
X56598523Y-46496774D01*
X56503225Y-46401476D01*
X56503221Y-46401473D01*
X56503220Y-46401472D01*
X56383126Y-46340281D01*
X56383124Y-46340280D01*
X56383121Y-46340279D01*
X56283493Y-46324500D01*
X56283488Y-46324500D01*
X55716512Y-46324500D01*
X55716507Y-46324500D01*
X55616878Y-46340279D01*
X55496778Y-46401473D01*
X55496774Y-46401476D01*
X55401476Y-46496774D01*
X55401473Y-46496778D01*
X55340279Y-46616878D01*
X55324500Y-46716506D01*
X45425457Y-46716506D01*
X45439994Y-46672636D01*
X45464855Y-46597607D01*
X45474999Y-46498322D01*
X45475000Y-46498309D01*
X45475000Y-46475000D01*
X43525001Y-46475000D01*
X43525001Y-46498322D01*
X43535144Y-46597607D01*
X43588452Y-46758481D01*
X43588457Y-46758492D01*
X43677424Y-46902728D01*
X43677427Y-46902732D01*
X43797266Y-47022571D01*
X43897840Y-47084606D01*
X43944564Y-47136554D01*
X43955787Y-47205517D01*
X43938881Y-47254260D01*
X43931083Y-47267168D01*
X43901472Y-47296780D01*
X43840281Y-47416874D01*
X43840149Y-47417704D01*
X43835975Y-47424615D01*
X43813386Y-47445314D01*
X43792347Y-47467591D01*
X43787707Y-47468846D01*
X43784463Y-47471819D01*
X43763130Y-47475494D01*
X43729837Y-47484500D01*
X42771691Y-47484500D01*
X42704652Y-47464815D01*
X42684010Y-47448181D01*
X42461818Y-47225989D01*
X42428333Y-47164666D01*
X42425499Y-47138308D01*
X42425499Y-46693482D01*
X42424623Y-46687953D01*
X42410646Y-46599696D01*
X42353050Y-46486658D01*
X42353046Y-46486654D01*
X42353045Y-46486652D01*
X42263347Y-46396954D01*
X42263344Y-46396952D01*
X42263342Y-46396950D01*
X42186517Y-46357805D01*
X42150301Y-46339352D01*
X42056524Y-46324500D01*
X41593482Y-46324500D01*
X41512519Y-46337323D01*
X41499696Y-46339354D01*
X41386658Y-46396950D01*
X41386657Y-46396951D01*
X41386652Y-46396954D01*
X41296954Y-46486652D01*
X41296951Y-46486657D01*
X41296950Y-46486658D01*
X41291007Y-46498322D01*
X41239352Y-46599698D01*
X41224500Y-46693475D01*
X40775498Y-46693475D01*
X40760646Y-46599696D01*
X40703050Y-46486658D01*
X40703046Y-46486654D01*
X40703045Y-46486652D01*
X40613347Y-46396954D01*
X40613344Y-46396952D01*
X40613342Y-46396950D01*
X40536517Y-46357805D01*
X40500301Y-46339352D01*
X40406524Y-46324500D01*
X39961691Y-46324500D01*
X39894652Y-46304815D01*
X39874010Y-46288181D01*
X39579573Y-45993744D01*
X39579571Y-45993742D01*
X39546450Y-45974619D01*
X39513330Y-45955497D01*
X39499074Y-45951677D01*
X43525000Y-45951677D01*
X43525000Y-45975000D01*
X44250000Y-45975000D01*
X44750000Y-45975000D01*
X45474999Y-45975000D01*
X45474999Y-45951692D01*
X45474998Y-45951677D01*
X45464855Y-45852392D01*
X45411547Y-45691518D01*
X45411542Y-45691507D01*
X45322575Y-45547271D01*
X45322572Y-45547267D01*
X45202732Y-45427427D01*
X45202728Y-45427424D01*
X45058492Y-45338457D01*
X45058481Y-45338452D01*
X44897606Y-45285144D01*
X44798322Y-45275000D01*
X44750000Y-45275000D01*
X44750000Y-45975000D01*
X44250000Y-45975000D01*
X44250000Y-45275000D01*
X44249999Y-45274999D01*
X44201693Y-45275000D01*
X44201675Y-45275001D01*
X44102392Y-45285144D01*
X43941518Y-45338452D01*
X43941507Y-45338457D01*
X43797271Y-45427424D01*
X43797267Y-45427427D01*
X43677427Y-45547267D01*
X43677424Y-45547271D01*
X43588457Y-45691507D01*
X43588452Y-45691518D01*
X43535144Y-45852393D01*
X43525000Y-45951677D01*
X39499074Y-45951677D01*
X39476387Y-45945598D01*
X39439445Y-45935700D01*
X36487045Y-45935700D01*
X36410554Y-45935700D01*
X36355319Y-45950500D01*
X36355318Y-45950499D01*
X36336671Y-45955496D01*
X36270429Y-45993742D01*
X36270426Y-45993744D01*
X35975989Y-46288181D01*
X35914666Y-46321666D01*
X35888308Y-46324500D01*
X35443482Y-46324500D01*
X35362519Y-46337323D01*
X35349696Y-46339354D01*
X35236658Y-46396950D01*
X35236657Y-46396951D01*
X35236652Y-46396954D01*
X35146954Y-46486652D01*
X35146951Y-46486657D01*
X35146950Y-46486658D01*
X35141007Y-46498322D01*
X35089353Y-46599698D01*
X35088529Y-46604901D01*
X35058598Y-46668035D01*
X34999285Y-46704965D01*
X34966056Y-46709500D01*
X33533943Y-46709500D01*
X33466904Y-46689815D01*
X33421149Y-46637011D01*
X33411469Y-46604894D01*
X33410646Y-46599698D01*
X33410646Y-46599696D01*
X33353050Y-46486658D01*
X33353046Y-46486654D01*
X33353045Y-46486652D01*
X33263347Y-46396954D01*
X33263344Y-46396952D01*
X33263342Y-46396950D01*
X33186517Y-46357805D01*
X33150301Y-46339352D01*
X33056524Y-46324500D01*
X32593482Y-46324500D01*
X32512519Y-46337323D01*
X32499696Y-46339354D01*
X32386658Y-46396950D01*
X32386657Y-46396951D01*
X32386652Y-46396954D01*
X32296954Y-46486652D01*
X32296951Y-46486657D01*
X32296950Y-46486658D01*
X32291007Y-46498322D01*
X32239352Y-46599698D01*
X32224500Y-46693475D01*
X31775498Y-46693475D01*
X31760646Y-46599696D01*
X31703050Y-46486658D01*
X31703046Y-46486654D01*
X31703045Y-46486652D01*
X31613347Y-46396954D01*
X31613344Y-46396952D01*
X31613342Y-46396950D01*
X31536517Y-46357805D01*
X31500301Y-46339352D01*
X31406524Y-46324500D01*
X30943482Y-46324500D01*
X30862519Y-46337323D01*
X30849696Y-46339354D01*
X30736658Y-46396950D01*
X30736657Y-46396951D01*
X30736652Y-46396954D01*
X30646954Y-46486652D01*
X30646951Y-46486657D01*
X30646950Y-46486658D01*
X30641007Y-46498322D01*
X30589353Y-46599698D01*
X30588529Y-46604901D01*
X30558598Y-46668035D01*
X30499285Y-46704965D01*
X30466056Y-46709500D01*
X29033943Y-46709500D01*
X28966904Y-46689815D01*
X28921149Y-46637011D01*
X28911469Y-46604894D01*
X28910646Y-46599698D01*
X28910646Y-46599696D01*
X28853050Y-46486658D01*
X28853046Y-46486654D01*
X28853045Y-46486652D01*
X28763347Y-46396954D01*
X28763344Y-46396952D01*
X28763342Y-46396950D01*
X28686517Y-46357805D01*
X28650301Y-46339352D01*
X28556524Y-46324500D01*
X28093482Y-46324500D01*
X28012519Y-46337323D01*
X27999696Y-46339354D01*
X27886658Y-46396950D01*
X27886657Y-46396951D01*
X27886652Y-46396954D01*
X27796954Y-46486652D01*
X27796951Y-46486657D01*
X27796950Y-46486658D01*
X27791007Y-46498322D01*
X27739352Y-46599698D01*
X27724500Y-46693475D01*
X27724500Y-47132413D01*
X27719251Y-47150286D01*
X27719006Y-47168915D01*
X27709611Y-47183117D01*
X27704815Y-47199452D01*
X27690738Y-47211649D01*
X27680459Y-47227190D01*
X27664876Y-47234059D01*
X27652011Y-47245207D01*
X27633572Y-47247858D01*
X27616525Y-47255373D01*
X27592410Y-47253776D01*
X27582853Y-47255151D01*
X27581234Y-47254907D01*
X27574745Y-47253886D01*
X27466192Y-47224800D01*
X27389808Y-47224800D01*
X27380233Y-47223294D01*
X27357054Y-47212336D01*
X27332460Y-47205115D01*
X27325995Y-47197654D01*
X27317066Y-47193433D01*
X27303489Y-47171681D01*
X27286705Y-47152311D01*
X27284193Y-47140765D01*
X27280071Y-47134161D01*
X27280224Y-47122522D01*
X27275499Y-47100800D01*
X27275499Y-46693482D01*
X27274623Y-46687953D01*
X27260646Y-46599696D01*
X27203050Y-46486658D01*
X27203046Y-46486654D01*
X27203045Y-46486652D01*
X27113347Y-46396954D01*
X27113344Y-46396952D01*
X27113342Y-46396950D01*
X27036517Y-46357805D01*
X27000301Y-46339352D01*
X26906524Y-46324500D01*
X26443482Y-46324500D01*
X26362519Y-46337323D01*
X26349696Y-46339354D01*
X26236658Y-46396950D01*
X26236657Y-46396951D01*
X26236652Y-46396954D01*
X26146954Y-46486652D01*
X26146951Y-46486657D01*
X26146950Y-46486658D01*
X26141007Y-46498322D01*
X26089352Y-46599698D01*
X26074500Y-46693475D01*
X21000000Y-46693475D01*
X21000000Y-29193475D01*
X27074500Y-29193475D01*
X27074500Y-29806517D01*
X27079965Y-29841022D01*
X27089354Y-29900304D01*
X27146950Y-30013342D01*
X27146952Y-30013344D01*
X27146954Y-30013347D01*
X27236652Y-30103045D01*
X27236654Y-30103046D01*
X27236658Y-30103050D01*
X27332123Y-30151692D01*
X27349698Y-30160647D01*
X27443475Y-30175499D01*
X27443481Y-30175500D01*
X27906518Y-30175499D01*
X28000304Y-30160646D01*
X28113342Y-30103050D01*
X28203050Y-30013342D01*
X28260646Y-29900304D01*
X28260646Y-29900302D01*
X28260647Y-29900301D01*
X28275499Y-29806524D01*
X28275500Y-29806519D01*
X28275499Y-29361689D01*
X28295183Y-29294651D01*
X28311813Y-29274014D01*
X28517154Y-29068673D01*
X28578475Y-29035190D01*
X28648167Y-29040174D01*
X28704100Y-29082046D01*
X28728517Y-29147510D01*
X28727307Y-29175749D01*
X28724500Y-29193475D01*
X28724500Y-29806517D01*
X28729965Y-29841022D01*
X28739354Y-29900304D01*
X28796950Y-30013342D01*
X28796952Y-30013344D01*
X28796954Y-30013347D01*
X28886652Y-30103045D01*
X28886654Y-30103046D01*
X28886658Y-30103050D01*
X28982123Y-30151692D01*
X28999698Y-30160647D01*
X29093475Y-30175499D01*
X29093481Y-30175500D01*
X29556518Y-30175499D01*
X29650304Y-30160646D01*
X29763342Y-30103050D01*
X29853050Y-30013342D01*
X29910646Y-29900304D01*
X29911006Y-29898030D01*
X29911471Y-29895099D01*
X29941402Y-29831965D01*
X30000715Y-29795035D01*
X30033944Y-29790500D01*
X31303309Y-29790500D01*
X31370348Y-29810185D01*
X31390990Y-29826819D01*
X32538181Y-30974010D01*
X32571666Y-31035333D01*
X32574500Y-31061691D01*
X32574500Y-31506517D01*
X32578531Y-31531965D01*
X32589354Y-31600304D01*
X32646950Y-31713342D01*
X32646952Y-31713344D01*
X32646954Y-31713347D01*
X32711572Y-31777965D01*
X32745057Y-31839288D01*
X32740073Y-31908980D01*
X32731279Y-31927645D01*
X32708608Y-31966911D01*
X32674500Y-32094208D01*
X32674500Y-32225991D01*
X32708608Y-32353287D01*
X32720781Y-32374371D01*
X32774500Y-32467414D01*
X32867686Y-32560600D01*
X32981814Y-32626492D01*
X33109108Y-32660600D01*
X33109110Y-32660600D01*
X33240890Y-32660600D01*
X33240892Y-32660600D01*
X33368186Y-32626492D01*
X33482314Y-32560600D01*
X33575500Y-32467414D01*
X33641392Y-32353286D01*
X33675500Y-32225992D01*
X33675500Y-32094208D01*
X33641392Y-31966914D01*
X33641390Y-31966910D01*
X33618721Y-31927646D01*
X33602248Y-31859746D01*
X33625100Y-31793719D01*
X33638421Y-31777970D01*
X33703050Y-31713342D01*
X33760646Y-31600304D01*
X33760646Y-31600302D01*
X33760647Y-31600301D01*
X33775499Y-31506524D01*
X33775500Y-31506519D01*
X33775499Y-30893482D01*
X33760646Y-30799696D01*
X33703050Y-30686658D01*
X33703046Y-30686654D01*
X33703045Y-30686652D01*
X33613347Y-30596954D01*
X33613344Y-30596952D01*
X33613342Y-30596950D01*
X33536517Y-30557805D01*
X33500301Y-30539352D01*
X33406524Y-30524500D01*
X32961691Y-30524500D01*
X32894652Y-30504815D01*
X32874010Y-30488181D01*
X31653373Y-29267544D01*
X31653371Y-29267542D01*
X31605347Y-29239815D01*
X31587130Y-29229297D01*
X31534902Y-29215303D01*
X31513245Y-29209500D01*
X31513244Y-29209500D01*
X30033943Y-29209500D01*
X29966904Y-29189815D01*
X29921149Y-29137011D01*
X29911469Y-29104894D01*
X29910646Y-29099698D01*
X29910646Y-29099696D01*
X29853050Y-28986658D01*
X29853046Y-28986654D01*
X29853045Y-28986652D01*
X29763347Y-28896954D01*
X29763344Y-28896952D01*
X29763342Y-28896950D01*
X29662763Y-28845702D01*
X29650301Y-28839352D01*
X29556524Y-28824500D01*
X29093481Y-28824500D01*
X29075751Y-28827309D01*
X29006458Y-28818353D01*
X28953007Y-28773356D01*
X28932368Y-28706604D01*
X28951094Y-28639291D01*
X28968674Y-28617154D01*
X29157495Y-28428334D01*
X29977510Y-27608319D01*
X30004437Y-27593615D01*
X30030256Y-27577023D01*
X30036456Y-27576131D01*
X30038833Y-27574834D01*
X30065191Y-27572000D01*
X30180111Y-27572000D01*
X30247150Y-27591685D01*
X30292905Y-27644489D01*
X30302849Y-27713647D01*
X30284155Y-27758015D01*
X30286464Y-27759348D01*
X30282401Y-27766384D01*
X30282400Y-27766386D01*
X30262584Y-27800706D01*
X30216508Y-27880512D01*
X30198744Y-27946811D01*
X30182400Y-28007808D01*
X30182400Y-28139592D01*
X30195182Y-28187297D01*
X30216508Y-28266887D01*
X30226677Y-28284500D01*
X30282400Y-28381014D01*
X30375586Y-28474200D01*
X30489714Y-28540092D01*
X30617008Y-28574200D01*
X30617010Y-28574200D01*
X30721209Y-28574200D01*
X30788248Y-28593885D01*
X30808890Y-28610519D01*
X30928642Y-28730271D01*
X30982729Y-28784358D01*
X31048971Y-28822603D01*
X31122855Y-28842400D01*
X31122857Y-28842400D01*
X33616843Y-28842400D01*
X33616845Y-28842400D01*
X33690729Y-28822603D01*
X33756971Y-28784358D01*
X34174787Y-28366542D01*
X34236110Y-28333057D01*
X34305802Y-28338041D01*
X34350149Y-28366542D01*
X34386652Y-28403045D01*
X34386654Y-28403046D01*
X34386658Y-28403050D01*
X34499696Y-28460646D01*
X34499698Y-28460647D01*
X34593475Y-28475499D01*
X34593481Y-28475500D01*
X35038308Y-28475499D01*
X35105347Y-28495183D01*
X35125989Y-28511818D01*
X35367542Y-28753371D01*
X35421629Y-28807458D01*
X35487871Y-28845703D01*
X35561755Y-28865500D01*
X35752523Y-28865500D01*
X35819562Y-28885185D01*
X35840204Y-28901818D01*
X35913886Y-28975500D01*
X36028014Y-29041392D01*
X36155308Y-29075500D01*
X36155310Y-29075500D01*
X36287090Y-29075500D01*
X36287092Y-29075500D01*
X36414386Y-29041392D01*
X36528514Y-28975500D01*
X36602196Y-28901818D01*
X36663520Y-28868334D01*
X36689877Y-28865500D01*
X37517824Y-28865500D01*
X37584863Y-28885185D01*
X37630618Y-28937989D01*
X37640562Y-29007147D01*
X37611537Y-29070703D01*
X37605505Y-29077181D01*
X37528002Y-29154683D01*
X37528000Y-29154686D01*
X37462108Y-29268812D01*
X37428000Y-29396108D01*
X37428000Y-29500308D01*
X37408315Y-29567347D01*
X37391681Y-29587989D01*
X37029428Y-29950243D01*
X37019641Y-29960030D01*
X36972250Y-30007417D01*
X36972222Y-30007447D01*
X36106490Y-30873181D01*
X36045167Y-30906666D01*
X36018809Y-30909500D01*
X35533943Y-30909500D01*
X35466904Y-30889815D01*
X35421149Y-30837011D01*
X35411469Y-30804894D01*
X35410646Y-30799698D01*
X35410646Y-30799696D01*
X35353050Y-30686658D01*
X35353046Y-30686654D01*
X35353045Y-30686652D01*
X35263347Y-30596954D01*
X35263344Y-30596952D01*
X35263342Y-30596950D01*
X35186517Y-30557805D01*
X35150301Y-30539352D01*
X35056524Y-30524500D01*
X34593482Y-30524500D01*
X34512519Y-30537323D01*
X34499696Y-30539354D01*
X34386658Y-30596950D01*
X34386657Y-30596951D01*
X34386652Y-30596954D01*
X34296954Y-30686652D01*
X34296951Y-30686657D01*
X34296950Y-30686658D01*
X34291007Y-30698322D01*
X34239352Y-30799698D01*
X34224500Y-30893475D01*
X34224500Y-31506517D01*
X34228531Y-31531965D01*
X34239354Y-31600304D01*
X34296950Y-31713342D01*
X34296952Y-31713344D01*
X34296954Y-31713347D01*
X34386652Y-31803045D01*
X34386654Y-31803046D01*
X34386658Y-31803050D01*
X34484270Y-31852786D01*
X34499698Y-31860647D01*
X34593475Y-31875499D01*
X34593481Y-31875500D01*
X35056518Y-31875499D01*
X35150304Y-31860646D01*
X35263342Y-31803050D01*
X35353050Y-31713342D01*
X35410646Y-31600304D01*
X35411006Y-31598030D01*
X35411471Y-31595099D01*
X35441402Y-31531965D01*
X35500715Y-31495035D01*
X35533944Y-31490500D01*
X36228743Y-31490500D01*
X36228745Y-31490500D01*
X36302629Y-31470703D01*
X36368871Y-31432458D01*
X37120110Y-30681217D01*
X37181433Y-30647733D01*
X37251124Y-30652717D01*
X37295474Y-30681219D01*
X38288185Y-31673986D01*
X38321667Y-31735309D01*
X38324500Y-31761664D01*
X38324500Y-32233493D01*
X38340279Y-32333121D01*
X38340280Y-32333124D01*
X38340281Y-32333126D01*
X38381920Y-32414847D01*
X38401473Y-32453221D01*
X38401476Y-32453225D01*
X38496774Y-32548523D01*
X38496778Y-32548526D01*
X38496780Y-32548528D01*
X38616874Y-32609719D01*
X38616876Y-32609719D01*
X38616878Y-32609720D01*
X38716507Y-32625500D01*
X38716512Y-32625500D01*
X39283493Y-32625500D01*
X39383121Y-32609720D01*
X39383121Y-32609719D01*
X39383126Y-32609719D01*
X39503220Y-32548528D01*
X39598528Y-32453220D01*
X39659719Y-32333126D01*
X39659720Y-32333121D01*
X39675500Y-32233493D01*
X39675500Y-31716506D01*
X39659720Y-31616878D01*
X39659719Y-31616876D01*
X39659719Y-31616874D01*
X39598528Y-31496780D01*
X39598526Y-31496778D01*
X39598523Y-31496774D01*
X39579575Y-31477826D01*
X39546090Y-31416503D01*
X39551074Y-31346811D01*
X39592946Y-31290878D01*
X39602160Y-31284606D01*
X39702731Y-31222573D01*
X39822572Y-31102732D01*
X39822575Y-31102728D01*
X39911542Y-30958492D01*
X39911547Y-30958481D01*
X39964855Y-30797606D01*
X39974999Y-30698322D01*
X39975000Y-30698309D01*
X39975000Y-30675000D01*
X38162255Y-30675000D01*
X38095216Y-30655315D01*
X38074571Y-30638679D01*
X38032848Y-30596954D01*
X37882245Y-30446342D01*
X37706299Y-30270385D01*
X37672816Y-30209060D01*
X37677803Y-30139369D01*
X37706298Y-30095029D01*
X37802511Y-29998816D01*
X37829439Y-29984113D01*
X37855255Y-29967523D01*
X37861457Y-29966631D01*
X37863833Y-29965334D01*
X37890190Y-29962500D01*
X37907014Y-29962500D01*
X37974053Y-29982185D01*
X38019808Y-30034989D01*
X38030372Y-30099103D01*
X38025000Y-30151677D01*
X38025000Y-30175000D01*
X38750000Y-30175000D01*
X39250000Y-30175000D01*
X39974999Y-30175000D01*
X39974999Y-30151692D01*
X39974998Y-30151677D01*
X39964855Y-30052392D01*
X39911547Y-29891518D01*
X39911542Y-29891507D01*
X39822575Y-29747271D01*
X39822572Y-29747267D01*
X39702732Y-29627427D01*
X39702728Y-29627424D01*
X39558492Y-29538457D01*
X39558481Y-29538452D01*
X39397606Y-29485144D01*
X39298322Y-29475000D01*
X39250000Y-29475000D01*
X39250000Y-30175000D01*
X38750000Y-30175000D01*
X38750000Y-29475000D01*
X38749999Y-29474999D01*
X38701693Y-29475000D01*
X38701675Y-29475001D01*
X38602392Y-29485144D01*
X38589807Y-29489314D01*
X38577160Y-29489748D01*
X38565529Y-29494729D01*
X38542904Y-29490924D01*
X38519978Y-29491712D01*
X38509106Y-29485241D01*
X38496627Y-29483143D01*
X38479650Y-29467710D01*
X38459938Y-29455978D01*
X38453059Y-29443536D01*
X38444927Y-29436144D01*
X38431033Y-29403700D01*
X38429000Y-29396112D01*
X38429000Y-29396108D01*
X38413537Y-29338399D01*
X38415200Y-29268554D01*
X38454362Y-29210691D01*
X38518591Y-29183187D01*
X38587493Y-29194773D01*
X38589543Y-29195793D01*
X38616874Y-29209719D01*
X38616876Y-29209719D01*
X38616878Y-29209720D01*
X38716507Y-29225500D01*
X38716512Y-29225500D01*
X39283493Y-29225500D01*
X39383121Y-29209720D01*
X39383121Y-29209719D01*
X39383126Y-29209719D01*
X39503220Y-29148528D01*
X39598528Y-29053220D01*
X39659719Y-28933126D01*
X39665408Y-28897207D01*
X39675500Y-28833493D01*
X39675500Y-28316506D01*
X39659720Y-28216878D01*
X39659719Y-28216876D01*
X39659719Y-28216874D01*
X39598528Y-28096780D01*
X39598526Y-28096778D01*
X39598523Y-28096774D01*
X39579575Y-28077826D01*
X39546090Y-28016503D01*
X39551074Y-27946811D01*
X39592946Y-27890878D01*
X39602160Y-27884606D01*
X39702731Y-27822573D01*
X39822572Y-27702732D01*
X39822575Y-27702728D01*
X39911542Y-27558492D01*
X39911547Y-27558481D01*
X39964855Y-27397606D01*
X39974999Y-27298322D01*
X39975000Y-27298309D01*
X39975000Y-27275000D01*
X38025001Y-27275000D01*
X38025001Y-27298322D01*
X38035144Y-27397607D01*
X38088452Y-27558481D01*
X38088457Y-27558492D01*
X38177424Y-27702728D01*
X38177427Y-27702732D01*
X38297266Y-27822571D01*
X38397840Y-27884606D01*
X38444564Y-27936554D01*
X38455787Y-28005517D01*
X38438881Y-28054260D01*
X38431083Y-28067168D01*
X38401472Y-28096780D01*
X38340281Y-28216874D01*
X38340149Y-28217704D01*
X38335975Y-28224615D01*
X38313386Y-28245314D01*
X38292347Y-28267591D01*
X38287707Y-28268846D01*
X38284463Y-28271819D01*
X38263130Y-28275494D01*
X38229837Y-28284500D01*
X36689877Y-28284500D01*
X36622838Y-28264815D01*
X36602196Y-28248182D01*
X36570888Y-28216874D01*
X36528514Y-28174500D01*
X36465930Y-28138367D01*
X36414387Y-28108608D01*
X36350739Y-28091554D01*
X36287092Y-28074500D01*
X36155308Y-28074500D01*
X36028012Y-28108608D01*
X35913886Y-28174500D01*
X35849788Y-28238598D01*
X35788464Y-28272082D01*
X35718773Y-28267097D01*
X35674426Y-28238597D01*
X35461818Y-28025989D01*
X35428333Y-27964666D01*
X35425499Y-27938308D01*
X35425499Y-27493482D01*
X35422415Y-27474010D01*
X35410646Y-27399696D01*
X35353050Y-27286658D01*
X35353046Y-27286654D01*
X35353045Y-27286652D01*
X35263347Y-27196954D01*
X35263344Y-27196952D01*
X35263342Y-27196950D01*
X35186517Y-27157805D01*
X35150301Y-27139352D01*
X35056524Y-27124500D01*
X35056519Y-27124500D01*
X35044590Y-27124500D01*
X34977551Y-27104815D01*
X34931796Y-27052011D01*
X34921852Y-26982853D01*
X34950877Y-26919297D01*
X34956909Y-26912819D01*
X35054621Y-26815108D01*
X35282610Y-26587119D01*
X35343933Y-26553634D01*
X35370291Y-26550800D01*
X37908209Y-26550800D01*
X37975248Y-26570485D01*
X38021003Y-26623289D01*
X38031567Y-26687402D01*
X38025000Y-26751675D01*
X38025000Y-26775000D01*
X38750000Y-26775000D01*
X38750000Y-26674800D01*
X38769685Y-26607761D01*
X38822489Y-26562006D01*
X38874000Y-26550800D01*
X39126000Y-26550800D01*
X39193039Y-26570485D01*
X39238794Y-26623289D01*
X39250000Y-26674800D01*
X39250000Y-26775000D01*
X39995238Y-26775000D01*
X40011977Y-26765860D01*
X40081669Y-26770844D01*
X40126016Y-26799345D01*
X52259490Y-38932819D01*
X52292975Y-38994142D01*
X52287991Y-39063834D01*
X52246119Y-39119767D01*
X52180655Y-39144184D01*
X52171809Y-39144500D01*
X51060192Y-39144500D01*
X50993153Y-39124815D01*
X50961818Y-39095989D01*
X50958898Y-39092184D01*
X50865716Y-38999002D01*
X50865714Y-38999000D01*
X50808650Y-38966054D01*
X50751587Y-38933108D01*
X50680430Y-38914042D01*
X50624292Y-38899000D01*
X50492508Y-38899000D01*
X50365212Y-38933108D01*
X50251086Y-38999000D01*
X50251083Y-38999002D01*
X50157902Y-39092183D01*
X50157900Y-39092186D01*
X50092007Y-39206314D01*
X50092007Y-39206315D01*
X50082070Y-39243400D01*
X50045705Y-39303060D01*
X49982857Y-39333588D01*
X49913482Y-39325293D01*
X49874615Y-39298986D01*
X49557950Y-38982321D01*
X49524465Y-38920998D01*
X49529449Y-38851306D01*
X49538241Y-38832645D01*
X49559292Y-38796186D01*
X49593400Y-38668892D01*
X49593400Y-38537108D01*
X49559292Y-38409814D01*
X49493400Y-38295686D01*
X49400214Y-38202500D01*
X49310297Y-38150586D01*
X49286087Y-38136608D01*
X49222439Y-38119554D01*
X49158792Y-38102500D01*
X49027008Y-38102500D01*
X48899712Y-38136608D01*
X48785586Y-38202500D01*
X48785583Y-38202502D01*
X48692402Y-38295683D01*
X48692400Y-38295686D01*
X48651428Y-38366651D01*
X48600860Y-38414866D01*
X48532253Y-38428088D01*
X48467388Y-38402120D01*
X48456360Y-38392331D01*
X45131573Y-35067544D01*
X45131571Y-35067542D01*
X45084030Y-35040094D01*
X45065330Y-35029297D01*
X45028387Y-35019398D01*
X44991445Y-35009500D01*
X44991444Y-35009500D01*
X40090738Y-35009500D01*
X40023699Y-34989815D01*
X39977944Y-34937011D01*
X39967380Y-34872896D01*
X39974999Y-34798319D01*
X39975000Y-34798309D01*
X39975000Y-34775000D01*
X38025001Y-34775000D01*
X38025001Y-34798322D01*
X38032620Y-34872898D01*
X38019850Y-34941591D01*
X37971970Y-34992475D01*
X37909262Y-35009500D01*
X37193091Y-35009500D01*
X37126052Y-34989815D01*
X37105410Y-34973181D01*
X36412373Y-34280144D01*
X36412371Y-34280142D01*
X36379250Y-34261019D01*
X36363069Y-34251677D01*
X38025000Y-34251677D01*
X38025000Y-34275000D01*
X38750000Y-34275000D01*
X39250000Y-34275000D01*
X39974999Y-34275000D01*
X39974999Y-34251692D01*
X39974998Y-34251677D01*
X39964855Y-34152392D01*
X39911547Y-33991518D01*
X39911542Y-33991507D01*
X39822575Y-33847271D01*
X39822572Y-33847267D01*
X39702732Y-33727427D01*
X39702728Y-33727424D01*
X39558492Y-33638457D01*
X39558481Y-33638452D01*
X39397606Y-33585144D01*
X39298322Y-33575000D01*
X39250000Y-33575000D01*
X39250000Y-34275000D01*
X38750000Y-34275000D01*
X38750000Y-33575000D01*
X38749999Y-33574999D01*
X38701693Y-33575000D01*
X38701675Y-33575001D01*
X38602392Y-33585144D01*
X38441518Y-33638452D01*
X38441507Y-33638457D01*
X38297271Y-33727424D01*
X38297267Y-33727427D01*
X38177427Y-33847267D01*
X38177424Y-33847271D01*
X38088457Y-33991507D01*
X38088452Y-33991518D01*
X38035144Y-34152393D01*
X38025000Y-34251677D01*
X36363069Y-34251677D01*
X36346130Y-34241897D01*
X36309187Y-34231998D01*
X36272245Y-34222100D01*
X34423645Y-34222100D01*
X34347154Y-34222100D01*
X34273271Y-34241897D01*
X34273269Y-34241897D01*
X34273269Y-34241898D01*
X34207029Y-34280142D01*
X34207026Y-34280144D01*
X33920044Y-34567126D01*
X33920042Y-34567129D01*
X33890023Y-34619124D01*
X33881797Y-34633371D01*
X33880194Y-34639354D01*
X33867218Y-34687782D01*
X33830853Y-34747442D01*
X33768006Y-34777971D01*
X33698630Y-34769676D01*
X33659762Y-34743369D01*
X33613347Y-34696954D01*
X33613344Y-34696952D01*
X33613342Y-34696950D01*
X33515703Y-34647200D01*
X33500301Y-34639352D01*
X33406524Y-34624500D01*
X32943482Y-34624500D01*
X32862519Y-34637323D01*
X32849696Y-34639354D01*
X32736658Y-34696950D01*
X32736657Y-34696951D01*
X32736652Y-34696954D01*
X32646950Y-34786657D01*
X32641214Y-34794552D01*
X32639161Y-34793060D01*
X32601003Y-34833450D01*
X32533180Y-34850235D01*
X32484114Y-34835950D01*
X32483796Y-34836719D01*
X32476794Y-34833818D01*
X32476506Y-34833735D01*
X32476288Y-34833609D01*
X32476287Y-34833608D01*
X32476286Y-34833608D01*
X32348992Y-34799500D01*
X32217208Y-34799500D01*
X32089912Y-34833608D01*
X31975786Y-34899500D01*
X31902104Y-34973182D01*
X31840780Y-35006666D01*
X31814423Y-35009500D01*
X29336755Y-35009500D01*
X29262869Y-35029297D01*
X29196629Y-35067542D01*
X29196626Y-35067544D01*
X27975988Y-36288181D01*
X27914665Y-36321666D01*
X27888307Y-36324500D01*
X27443482Y-36324500D01*
X27362519Y-36337323D01*
X27349696Y-36339354D01*
X27236658Y-36396950D01*
X27236657Y-36396951D01*
X27236652Y-36396954D01*
X27146954Y-36486652D01*
X27146951Y-36486657D01*
X27146950Y-36486658D01*
X27139992Y-36500314D01*
X27089352Y-36599698D01*
X27074500Y-36693475D01*
X27074500Y-37306517D01*
X27077716Y-37326819D01*
X27089354Y-37400304D01*
X27146950Y-37513342D01*
X27146952Y-37513344D01*
X27146954Y-37513347D01*
X27236652Y-37603045D01*
X27236654Y-37603046D01*
X27236658Y-37603050D01*
X27339783Y-37655595D01*
X27349698Y-37660647D01*
X27443475Y-37675499D01*
X27443481Y-37675500D01*
X27906518Y-37675499D01*
X28000304Y-37660646D01*
X28113342Y-37603050D01*
X28203050Y-37513342D01*
X28260646Y-37400304D01*
X28260646Y-37400302D01*
X28260647Y-37400301D01*
X28275499Y-37306524D01*
X28275500Y-37306519D01*
X28275499Y-36861689D01*
X28295183Y-36794651D01*
X28311813Y-36774014D01*
X28517154Y-36568673D01*
X28578475Y-36535190D01*
X28648167Y-36540174D01*
X28704100Y-36582046D01*
X28728517Y-36647510D01*
X28727307Y-36675749D01*
X28724500Y-36693475D01*
X28724500Y-37306517D01*
X28727716Y-37326819D01*
X28739354Y-37400304D01*
X28796950Y-37513342D01*
X28796952Y-37513344D01*
X28796954Y-37513347D01*
X28886652Y-37603045D01*
X28886654Y-37603046D01*
X28886658Y-37603050D01*
X28989783Y-37655595D01*
X28999698Y-37660647D01*
X29093475Y-37675499D01*
X29093481Y-37675500D01*
X29556518Y-37675499D01*
X29650304Y-37660646D01*
X29763342Y-37603050D01*
X29853050Y-37513342D01*
X29910646Y-37400304D01*
X29911006Y-37398030D01*
X29911471Y-37395099D01*
X29941402Y-37331965D01*
X30000715Y-37295035D01*
X30033944Y-37290500D01*
X30549009Y-37290500D01*
X30616048Y-37310185D01*
X30636689Y-37326818D01*
X31540082Y-38230212D01*
X31573566Y-38291533D01*
X31576400Y-38317891D01*
X31576400Y-38422092D01*
X31585664Y-38456666D01*
X31610508Y-38549387D01*
X31617612Y-38561691D01*
X31676400Y-38663514D01*
X31769586Y-38756700D01*
X31883714Y-38822592D01*
X32011008Y-38856700D01*
X32011010Y-38856700D01*
X32142790Y-38856700D01*
X32142792Y-38856700D01*
X32270086Y-38822592D01*
X32384214Y-38756700D01*
X32384216Y-38756697D01*
X32388499Y-38754225D01*
X32456399Y-38737752D01*
X32522426Y-38760604D01*
X32565617Y-38815525D01*
X32574500Y-38861611D01*
X32574500Y-39006517D01*
X32583009Y-39060240D01*
X32589354Y-39100304D01*
X32646950Y-39213342D01*
X32646952Y-39213344D01*
X32646954Y-39213347D01*
X32736652Y-39303045D01*
X32736654Y-39303046D01*
X32736658Y-39303050D01*
X32849694Y-39360645D01*
X32849698Y-39360647D01*
X32943475Y-39375499D01*
X32943481Y-39375500D01*
X33406518Y-39375499D01*
X33500304Y-39360646D01*
X33613342Y-39303050D01*
X33703050Y-39213342D01*
X33760646Y-39100304D01*
X33760646Y-39100302D01*
X33760647Y-39100301D01*
X33771282Y-39033147D01*
X33775500Y-39006519D01*
X33775499Y-38393482D01*
X33775499Y-38393476D01*
X33772692Y-38375753D01*
X33781647Y-38306460D01*
X33826643Y-38253008D01*
X33893395Y-38232369D01*
X33960709Y-38251094D01*
X33982846Y-38268675D01*
X34188181Y-38474010D01*
X34221666Y-38535333D01*
X34224500Y-38561691D01*
X34224500Y-39006517D01*
X34233009Y-39060240D01*
X34239354Y-39100304D01*
X34296950Y-39213342D01*
X34296952Y-39213344D01*
X34296954Y-39213347D01*
X34386652Y-39303045D01*
X34386654Y-39303046D01*
X34386658Y-39303050D01*
X34499694Y-39360645D01*
X34499698Y-39360647D01*
X34593475Y-39375499D01*
X34593481Y-39375500D01*
X35038308Y-39375499D01*
X35105347Y-39395183D01*
X35125989Y-39411818D01*
X35367542Y-39653371D01*
X35421629Y-39707458D01*
X35487871Y-39745703D01*
X35561755Y-39765500D01*
X38229837Y-39765500D01*
X38296876Y-39785185D01*
X38340320Y-39833203D01*
X38399577Y-39949500D01*
X38401473Y-39953221D01*
X38401476Y-39953225D01*
X38496774Y-40048523D01*
X38496778Y-40048526D01*
X38496780Y-40048528D01*
X38616874Y-40109719D01*
X38616876Y-40109719D01*
X38616878Y-40109720D01*
X38716507Y-40125500D01*
X38716512Y-40125500D01*
X39283493Y-40125500D01*
X39383121Y-40109720D01*
X39383121Y-40109719D01*
X39383126Y-40109719D01*
X39503220Y-40048528D01*
X39598528Y-39953220D01*
X39659719Y-39833126D01*
X39663106Y-39811743D01*
X39675500Y-39733493D01*
X39675500Y-39216506D01*
X39659720Y-39116878D01*
X39659719Y-39116876D01*
X39659719Y-39116874D01*
X39598528Y-38996780D01*
X39598526Y-38996778D01*
X39598523Y-38996774D01*
X39579575Y-38977826D01*
X39546090Y-38916503D01*
X39551074Y-38846811D01*
X39592946Y-38790878D01*
X39602160Y-38784606D01*
X39702731Y-38722573D01*
X39822572Y-38602732D01*
X39822575Y-38602728D01*
X39911542Y-38458492D01*
X39911547Y-38458481D01*
X39964855Y-38297606D01*
X39974999Y-38198322D01*
X39975000Y-38198309D01*
X39975000Y-38175000D01*
X38025001Y-38175000D01*
X38025001Y-38198322D01*
X38035144Y-38297607D01*
X38088452Y-38458481D01*
X38088457Y-38458492D01*
X38177424Y-38602728D01*
X38177427Y-38602732D01*
X38297266Y-38722571D01*
X38397840Y-38784606D01*
X38444564Y-38836554D01*
X38455787Y-38905517D01*
X38438881Y-38954260D01*
X38431083Y-38967168D01*
X38401472Y-38996780D01*
X38340281Y-39116874D01*
X38340149Y-39117704D01*
X38335975Y-39124615D01*
X38313386Y-39145314D01*
X38292347Y-39167591D01*
X38287707Y-39168846D01*
X38284463Y-39171819D01*
X38263130Y-39175494D01*
X38229837Y-39184500D01*
X35771691Y-39184500D01*
X35704652Y-39164815D01*
X35684010Y-39148181D01*
X35461818Y-38925989D01*
X35428333Y-38864666D01*
X35425499Y-38838308D01*
X35425499Y-38393482D01*
X35422168Y-38372449D01*
X35410646Y-38299696D01*
X35353050Y-38186658D01*
X35353046Y-38186654D01*
X35353045Y-38186652D01*
X35263347Y-38096954D01*
X35263344Y-38096952D01*
X35263342Y-38096950D01*
X35183258Y-38056145D01*
X35150301Y-38039352D01*
X35056524Y-38024500D01*
X34611691Y-38024500D01*
X34582250Y-38015855D01*
X34552264Y-38009332D01*
X34547248Y-38005577D01*
X34544652Y-38004815D01*
X34524010Y-37988181D01*
X34479319Y-37943490D01*
X34445834Y-37882167D01*
X34443000Y-37855809D01*
X34443000Y-37651677D01*
X38025000Y-37651677D01*
X38025000Y-37675000D01*
X38750000Y-37675000D01*
X38750000Y-36975000D01*
X38749999Y-36974999D01*
X38701693Y-36975000D01*
X38701675Y-36975001D01*
X38602392Y-36985144D01*
X38441518Y-37038452D01*
X38441507Y-37038457D01*
X38297271Y-37127424D01*
X38297267Y-37127427D01*
X38177427Y-37247267D01*
X38177424Y-37247271D01*
X38088457Y-37391507D01*
X38088452Y-37391518D01*
X38035144Y-37552393D01*
X38025000Y-37651677D01*
X34443000Y-37651677D01*
X34443000Y-36096852D01*
X34462685Y-36029813D01*
X34515489Y-35984058D01*
X34584647Y-35974114D01*
X34586398Y-35974379D01*
X34593475Y-35975499D01*
X34593481Y-35975500D01*
X35038308Y-35975499D01*
X35105347Y-35995183D01*
X35125989Y-36011818D01*
X35367542Y-36253371D01*
X35421629Y-36307458D01*
X35487871Y-36345703D01*
X35561755Y-36365500D01*
X35638246Y-36365500D01*
X38229837Y-36365500D01*
X38296876Y-36385185D01*
X38340320Y-36433203D01*
X38394825Y-36540174D01*
X38401473Y-36553221D01*
X38401476Y-36553225D01*
X38496774Y-36648523D01*
X38496778Y-36648526D01*
X38496780Y-36648528D01*
X38616874Y-36709719D01*
X38616876Y-36709719D01*
X38616878Y-36709720D01*
X38716507Y-36725500D01*
X38716512Y-36725500D01*
X39188309Y-36725500D01*
X39217749Y-36734144D01*
X39247736Y-36740668D01*
X39252751Y-36744422D01*
X39255348Y-36745185D01*
X39275990Y-36761819D01*
X39281904Y-36767733D01*
X39315389Y-36829056D01*
X39310405Y-36898748D01*
X39281905Y-36943095D01*
X39250000Y-36975000D01*
X39250000Y-37675000D01*
X39974999Y-37675000D01*
X39994404Y-37655595D01*
X40055727Y-37622110D01*
X40125419Y-37627094D01*
X40169766Y-37655595D01*
X46772442Y-44258271D01*
X46826529Y-44312358D01*
X46892771Y-44350603D01*
X46966655Y-44370400D01*
X46966657Y-44370400D01*
X56751943Y-44370400D01*
X56751945Y-44370400D01*
X56825829Y-44350603D01*
X56892071Y-44312358D01*
X58628871Y-42575557D01*
X58690192Y-42542074D01*
X58759884Y-42547058D01*
X58815817Y-42588930D01*
X58823936Y-42601239D01*
X58863494Y-42669752D01*
X58870400Y-42681714D01*
X58963586Y-42774900D01*
X59062421Y-42831963D01*
X59074381Y-42838868D01*
X59077714Y-42840792D01*
X59205008Y-42874900D01*
X59205010Y-42874900D01*
X59336790Y-42874900D01*
X59336792Y-42874900D01*
X59464086Y-42840792D01*
X59578214Y-42774900D01*
X59590504Y-42762609D01*
X59651823Y-42729126D01*
X59721514Y-42734108D01*
X59740184Y-42742904D01*
X59860710Y-42812490D01*
X59860711Y-42812490D01*
X59860714Y-42812492D01*
X59988008Y-42846600D01*
X59988010Y-42846600D01*
X60119790Y-42846600D01*
X60119792Y-42846600D01*
X60247086Y-42812492D01*
X60361214Y-42746600D01*
X60454400Y-42653414D01*
X60520292Y-42539286D01*
X60554400Y-42411992D01*
X60554400Y-42280208D01*
X60520292Y-42152914D01*
X60496895Y-42112390D01*
X60470756Y-42067115D01*
X60466750Y-42050603D01*
X60458052Y-42036006D01*
X60458683Y-42017352D01*
X60454283Y-41999215D01*
X60459840Y-41983158D01*
X60460415Y-41966176D01*
X60471030Y-41950825D01*
X60477135Y-41933188D01*
X60490721Y-41922350D01*
X60500156Y-41908709D01*
X60521365Y-41897909D01*
X60530476Y-41890643D01*
X60538079Y-41887476D01*
X60629086Y-41863092D01*
X60713036Y-41814622D01*
X60720433Y-41811543D01*
X60747517Y-41808579D01*
X60774000Y-41802155D01*
X60781743Y-41804835D01*
X60789888Y-41803944D01*
X60814274Y-41816094D01*
X60840027Y-41825007D01*
X60845092Y-41831448D01*
X60852426Y-41835102D01*
X60866374Y-41858510D01*
X60883217Y-41879928D01*
X60885168Y-41890050D01*
X60888191Y-41895124D01*
X60887885Y-41904149D01*
X60892100Y-41926015D01*
X60892100Y-45010500D01*
X60872415Y-45077539D01*
X60819611Y-45123294D01*
X60768100Y-45134500D01*
X56770163Y-45134500D01*
X56703124Y-45114815D01*
X56659679Y-45066796D01*
X56598528Y-44946780D01*
X56598526Y-44946778D01*
X56598523Y-44946774D01*
X56503225Y-44851476D01*
X56503221Y-44851473D01*
X56503220Y-44851472D01*
X56383126Y-44790281D01*
X56383124Y-44790280D01*
X56383121Y-44790279D01*
X56283493Y-44774500D01*
X56283488Y-44774500D01*
X55716512Y-44774500D01*
X55716507Y-44774500D01*
X55616878Y-44790279D01*
X55496778Y-44851473D01*
X55496774Y-44851476D01*
X55401476Y-44946774D01*
X55401473Y-44946778D01*
X55340279Y-45066878D01*
X55324500Y-45166506D01*
X55324500Y-45683493D01*
X55340279Y-45783121D01*
X55340280Y-45783124D01*
X55340281Y-45783126D01*
X55401472Y-45903220D01*
X55401473Y-45903221D01*
X55401476Y-45903225D01*
X55496774Y-45998523D01*
X55496778Y-45998526D01*
X55496780Y-45998528D01*
X55616874Y-46059719D01*
X55616876Y-46059719D01*
X55616878Y-46059720D01*
X55716507Y-46075500D01*
X55716512Y-46075500D01*
X56283493Y-46075500D01*
X56383121Y-46059720D01*
X56383121Y-46059719D01*
X56383126Y-46059719D01*
X56503220Y-45998528D01*
X56598528Y-45903220D01*
X56659679Y-45783203D01*
X56707653Y-45732409D01*
X56770163Y-45715500D01*
X61144355Y-45715500D01*
X61249485Y-45715500D01*
X61316524Y-45735185D01*
X61362279Y-45787989D01*
X61372223Y-45857147D01*
X61350745Y-45908133D01*
X61351464Y-45908548D01*
X61348159Y-45914271D01*
X61347856Y-45914992D01*
X61347401Y-45915583D01*
X61281508Y-46029712D01*
X61269198Y-46075655D01*
X61247400Y-46157008D01*
X61247400Y-46288792D01*
X61260947Y-46339352D01*
X61281508Y-46416087D01*
X61295715Y-46440693D01*
X61347400Y-46530214D01*
X61440586Y-46623400D01*
X61554714Y-46689292D01*
X61682008Y-46723400D01*
X61682010Y-46723400D01*
X61700500Y-46723400D01*
X61767539Y-46743085D01*
X61813294Y-46795889D01*
X61824500Y-46847400D01*
X61824500Y-47233493D01*
X61840279Y-47333121D01*
X61840280Y-47333124D01*
X61840281Y-47333126D01*
X61901472Y-47453220D01*
X61901473Y-47453221D01*
X61901476Y-47453225D01*
X61996774Y-47548523D01*
X61996778Y-47548526D01*
X61996780Y-47548528D01*
X62116874Y-47609719D01*
X62116876Y-47609719D01*
X62116878Y-47609720D01*
X62216507Y-47625500D01*
X62216512Y-47625500D01*
X62783493Y-47625500D01*
X62883121Y-47609720D01*
X62883121Y-47609719D01*
X62883126Y-47609719D01*
X63003220Y-47548528D01*
X63098528Y-47453220D01*
X63112333Y-47426126D01*
X73750000Y-47426126D01*
X73750000Y-47573873D01*
X73778820Y-47718759D01*
X73778822Y-47718767D01*
X73822421Y-47824024D01*
X74146446Y-47500000D01*
X74146446Y-47499999D01*
X74853554Y-47499999D01*
X74853554Y-47500001D01*
X75177577Y-47824024D01*
X75177578Y-47824024D01*
X75221175Y-47718775D01*
X75221179Y-47718760D01*
X75249999Y-47573873D01*
X75250000Y-47573871D01*
X75250000Y-47426128D01*
X75249999Y-47426126D01*
X75221179Y-47281240D01*
X75221178Y-47281236D01*
X75177577Y-47175975D01*
X74853554Y-47499999D01*
X74146446Y-47499999D01*
X73822421Y-47175974D01*
X73822420Y-47175974D01*
X73778823Y-47281228D01*
X73778820Y-47281240D01*
X73750000Y-47426126D01*
X63112333Y-47426126D01*
X63159719Y-47333126D01*
X63159719Y-47333124D01*
X63159720Y-47333123D01*
X63175500Y-47233493D01*
X63175500Y-46810691D01*
X63195185Y-46743652D01*
X63247989Y-46697897D01*
X63317147Y-46687953D01*
X63380703Y-46716978D01*
X63387181Y-46723010D01*
X63396629Y-46732458D01*
X63462871Y-46770703D01*
X63536755Y-46790500D01*
X63613246Y-46790500D01*
X74092691Y-46790500D01*
X74159730Y-46810185D01*
X74180372Y-46826819D01*
X74500000Y-47146446D01*
X74500001Y-47146446D01*
X74847119Y-46799326D01*
X74858502Y-46779201D01*
X74860482Y-46776619D01*
X74860489Y-46776613D01*
X74919799Y-46673886D01*
X74950500Y-46559309D01*
X74950500Y-46440691D01*
X74919799Y-46326114D01*
X74860489Y-46223387D01*
X74776613Y-46139511D01*
X74720972Y-46107386D01*
X74672757Y-46056820D01*
X74659535Y-45988213D01*
X74685503Y-45923348D01*
X74720973Y-45892613D01*
X74776613Y-45860489D01*
X74860489Y-45776613D01*
X74919799Y-45673886D01*
X74950500Y-45559309D01*
X74950500Y-45440691D01*
X74919799Y-45326114D01*
X74860489Y-45223387D01*
X74776613Y-45139511D01*
X74725249Y-45109856D01*
X74673887Y-45080201D01*
X74564806Y-45050973D01*
X74505146Y-45014607D01*
X74474617Y-44951760D01*
X74472900Y-44931198D01*
X74472900Y-44906510D01*
X74472900Y-44906508D01*
X74438792Y-44779214D01*
X74372900Y-44665086D01*
X74279714Y-44571900D01*
X74222650Y-44538954D01*
X74165587Y-44506008D01*
X74101939Y-44488954D01*
X74038292Y-44471900D01*
X73906508Y-44471900D01*
X73779212Y-44506008D01*
X73665086Y-44571900D01*
X73665083Y-44571902D01*
X73571902Y-44665083D01*
X73571900Y-44665086D01*
X73506008Y-44779212D01*
X73471900Y-44906508D01*
X73471900Y-45038292D01*
X73479560Y-45066878D01*
X73506008Y-45165587D01*
X73538954Y-45222650D01*
X73571900Y-45279714D01*
X73665086Y-45372900D01*
X73779214Y-45438792D01*
X73906508Y-45472900D01*
X73906510Y-45472900D01*
X73931199Y-45472900D01*
X73998238Y-45492585D01*
X74043993Y-45545389D01*
X74050970Y-45564798D01*
X74070668Y-45638309D01*
X74080201Y-45673887D01*
X74090381Y-45691518D01*
X74139511Y-45776613D01*
X74223387Y-45860489D01*
X74279027Y-45892613D01*
X74302297Y-45917019D01*
X74326050Y-45940926D01*
X74326327Y-45942221D01*
X74327242Y-45943181D01*
X74333618Y-45976269D01*
X74340681Y-46009247D01*
X74340213Y-46010488D01*
X74340464Y-46011788D01*
X74327941Y-46043066D01*
X74316052Y-46074632D01*
X74314895Y-46075655D01*
X74314496Y-46076653D01*
X74291014Y-46099508D01*
X74285248Y-46103795D01*
X74223387Y-46139511D01*
X74183300Y-46179597D01*
X74176024Y-46185008D01*
X74151414Y-46194096D01*
X74128394Y-46206666D01*
X74112849Y-46208337D01*
X74110481Y-46209212D01*
X74108593Y-46208794D01*
X74102036Y-46209500D01*
X63746691Y-46209500D01*
X63679652Y-46189815D01*
X63659010Y-46173181D01*
X63211819Y-45725990D01*
X63178334Y-45664667D01*
X63175500Y-45638309D01*
X63175500Y-45166506D01*
X63159720Y-45066878D01*
X63159719Y-45066876D01*
X63159719Y-45066874D01*
X63098528Y-44946780D01*
X63098526Y-44946778D01*
X63098523Y-44946774D01*
X63003225Y-44851476D01*
X63003221Y-44851473D01*
X63003220Y-44851472D01*
X62883126Y-44790281D01*
X62883124Y-44790280D01*
X62883121Y-44790279D01*
X62783493Y-44774500D01*
X62783488Y-44774500D01*
X62216512Y-44774500D01*
X62216507Y-44774500D01*
X62116878Y-44790279D01*
X61996778Y-44851473D01*
X61996774Y-44851476D01*
X61901476Y-44946774D01*
X61901473Y-44946778D01*
X61901472Y-44946780D01*
X61840320Y-45066796D01*
X61829872Y-45077859D01*
X61823550Y-45091703D01*
X61806369Y-45102744D01*
X61792347Y-45117591D01*
X61776667Y-45121832D01*
X61764772Y-45129477D01*
X61729837Y-45134500D01*
X61597100Y-45134500D01*
X61530061Y-45114815D01*
X61484306Y-45062011D01*
X61473100Y-45010500D01*
X61473100Y-40546157D01*
X61473100Y-40546155D01*
X61454789Y-40477817D01*
X61456452Y-40407971D01*
X61472603Y-40384108D01*
X68771900Y-40384108D01*
X68771900Y-40515892D01*
X68785918Y-40568208D01*
X68806008Y-40643187D01*
X68834596Y-40692702D01*
X68871900Y-40757314D01*
X68965086Y-40850500D01*
X69053786Y-40901711D01*
X69077005Y-40915117D01*
X69079214Y-40916392D01*
X69206508Y-40950500D01*
X69206510Y-40950500D01*
X69338290Y-40950500D01*
X69338292Y-40950500D01*
X69465586Y-40916392D01*
X69481259Y-40907342D01*
X69549159Y-40890870D01*
X69615186Y-40913722D01*
X69643029Y-40941095D01*
X69698981Y-41016908D01*
X69702851Y-41022151D01*
X69795136Y-41090260D01*
X69837387Y-41145907D01*
X69842846Y-41215563D01*
X69828891Y-41252029D01*
X69824108Y-41260312D01*
X69790000Y-41387608D01*
X69790000Y-41519391D01*
X69824108Y-41646687D01*
X69834797Y-41665200D01*
X69890000Y-41760814D01*
X69983186Y-41854000D01*
X70097314Y-41919892D01*
X70224608Y-41954000D01*
X70224610Y-41954000D01*
X70356390Y-41954000D01*
X70356392Y-41954000D01*
X70483686Y-41919892D01*
X70597814Y-41854000D01*
X70691000Y-41760814D01*
X70756892Y-41646686D01*
X70756894Y-41646677D01*
X70760001Y-41639179D01*
X70761286Y-41639711D01*
X70793146Y-41587445D01*
X70855993Y-41556917D01*
X70876554Y-41555200D01*
X76971023Y-41555200D01*
X77038062Y-41574885D01*
X77058704Y-41591518D01*
X77132386Y-41665200D01*
X77246514Y-41731092D01*
X77373808Y-41765200D01*
X77373810Y-41765200D01*
X77450500Y-41765200D01*
X77517539Y-41784885D01*
X77563294Y-41837689D01*
X77574500Y-41889200D01*
X77574500Y-42306517D01*
X77585292Y-42374657D01*
X77589354Y-42400304D01*
X77646950Y-42513342D01*
X77646952Y-42513344D01*
X77646954Y-42513347D01*
X77736652Y-42603045D01*
X77736654Y-42603046D01*
X77736658Y-42603050D01*
X77849694Y-42660645D01*
X77849698Y-42660647D01*
X77943475Y-42675499D01*
X77943481Y-42675500D01*
X78406518Y-42675499D01*
X78500304Y-42660646D01*
X78613342Y-42603050D01*
X78703050Y-42513342D01*
X78760646Y-42400304D01*
X78760646Y-42400302D01*
X78760647Y-42400301D01*
X78775499Y-42306524D01*
X78775500Y-42306519D01*
X78775499Y-41693482D01*
X78775498Y-41693475D01*
X79224500Y-41693475D01*
X79224500Y-42306517D01*
X79235292Y-42374657D01*
X79239354Y-42400304D01*
X79296950Y-42513342D01*
X79296952Y-42513344D01*
X79296954Y-42513347D01*
X79386652Y-42603045D01*
X79386654Y-42603046D01*
X79386658Y-42603050D01*
X79499694Y-42660645D01*
X79499698Y-42660647D01*
X79593475Y-42675499D01*
X79593481Y-42675500D01*
X80056518Y-42675499D01*
X80150304Y-42660646D01*
X80263342Y-42603050D01*
X80345778Y-42520613D01*
X80407099Y-42487130D01*
X80476791Y-42492114D01*
X80495458Y-42500909D01*
X80516210Y-42512890D01*
X80516211Y-42512890D01*
X80516214Y-42512892D01*
X80643508Y-42547000D01*
X80643510Y-42547000D01*
X80775290Y-42547000D01*
X80775292Y-42547000D01*
X80902586Y-42512892D01*
X81016714Y-42447000D01*
X81109900Y-42353814D01*
X81175792Y-42239686D01*
X81209900Y-42112392D01*
X81209900Y-41980608D01*
X81175792Y-41853314D01*
X81109900Y-41739186D01*
X81016714Y-41646000D01*
X80936515Y-41599697D01*
X80902587Y-41580108D01*
X80809627Y-41555200D01*
X80775292Y-41546000D01*
X80643508Y-41546000D01*
X80511536Y-41581361D01*
X80441686Y-41579698D01*
X80383824Y-41540535D01*
X80368958Y-41517880D01*
X80353050Y-41486658D01*
X80353047Y-41486655D01*
X80353045Y-41486652D01*
X80263347Y-41396954D01*
X80263344Y-41396952D01*
X80263342Y-41396950D01*
X80168627Y-41348690D01*
X80150301Y-41339352D01*
X80056524Y-41324500D01*
X79593482Y-41324500D01*
X79512519Y-41337323D01*
X79499696Y-41339354D01*
X79386658Y-41396950D01*
X79386657Y-41396951D01*
X79386652Y-41396954D01*
X79296954Y-41486652D01*
X79296951Y-41486657D01*
X79296950Y-41486658D01*
X79281042Y-41517880D01*
X79239352Y-41599698D01*
X79224500Y-41693475D01*
X78775498Y-41693475D01*
X78760646Y-41599696D01*
X78703050Y-41486658D01*
X78703046Y-41486654D01*
X78703045Y-41486652D01*
X78613347Y-41396954D01*
X78613344Y-41396952D01*
X78613342Y-41396950D01*
X78518627Y-41348690D01*
X78500301Y-41339352D01*
X78406524Y-41324500D01*
X78064200Y-41324500D01*
X77997161Y-41304815D01*
X77951406Y-41252011D01*
X77941576Y-41206826D01*
X77941261Y-41206868D01*
X77940763Y-41203091D01*
X77940200Y-41200500D01*
X77940200Y-41198810D01*
X77940200Y-41198808D01*
X77906092Y-41071514D01*
X77840200Y-40957386D01*
X77747014Y-40864200D01*
X77675870Y-40823125D01*
X77632887Y-40798308D01*
X77569239Y-40781254D01*
X77505592Y-40764200D01*
X77373808Y-40764200D01*
X77246512Y-40798308D01*
X77132386Y-40864200D01*
X77058704Y-40937882D01*
X76997380Y-40971366D01*
X76971023Y-40974200D01*
X71531099Y-40974200D01*
X71464060Y-40954515D01*
X71418305Y-40901711D01*
X71408361Y-40832553D01*
X71414057Y-40809246D01*
X71422646Y-40784698D01*
X71425500Y-40754269D01*
X71425500Y-40145730D01*
X71422646Y-40115300D01*
X71422646Y-40115298D01*
X71382704Y-40001154D01*
X71377793Y-39987118D01*
X71297150Y-39877850D01*
X71187882Y-39797207D01*
X71187880Y-39797206D01*
X71059700Y-39752353D01*
X71029270Y-39749500D01*
X71029266Y-39749500D01*
X69970734Y-39749500D01*
X69970730Y-39749500D01*
X69940300Y-39752353D01*
X69940298Y-39752353D01*
X69812119Y-39797206D01*
X69812117Y-39797207D01*
X69702850Y-39877850D01*
X69643030Y-39958903D01*
X69587382Y-40001154D01*
X69517726Y-40006612D01*
X69481263Y-39992658D01*
X69465589Y-39983609D01*
X69465586Y-39983608D01*
X69338292Y-39949500D01*
X69206508Y-39949500D01*
X69079212Y-39983608D01*
X68965086Y-40049500D01*
X68965083Y-40049502D01*
X68871902Y-40142683D01*
X68871900Y-40142686D01*
X68806008Y-40256812D01*
X68776454Y-40367112D01*
X68771900Y-40384108D01*
X61472603Y-40384108D01*
X61495614Y-40350108D01*
X61519009Y-40334868D01*
X61530280Y-40329219D01*
X61560986Y-40320992D01*
X61675114Y-40255100D01*
X61768300Y-40161914D01*
X61834192Y-40047786D01*
X61868300Y-39920492D01*
X61868300Y-39788708D01*
X61834192Y-39661414D01*
X61768300Y-39547286D01*
X61675114Y-39454100D01*
X61582824Y-39400816D01*
X61560987Y-39388208D01*
X61471397Y-39364203D01*
X61433692Y-39354100D01*
X61433691Y-39354100D01*
X61433687Y-39354099D01*
X61427924Y-39353340D01*
X61418642Y-39349232D01*
X61408494Y-39349174D01*
X61387230Y-39335334D01*
X61364030Y-39325068D01*
X61358442Y-39316595D01*
X61349936Y-39311059D01*
X61339531Y-39287920D01*
X61332759Y-39277652D01*
X61308760Y-39330203D01*
X61249982Y-39367977D01*
X61247159Y-39368769D01*
X61239672Y-39370776D01*
X61207582Y-39375000D01*
X60561500Y-39375000D01*
X60552814Y-39372449D01*
X60543853Y-39373738D01*
X60519812Y-39362759D01*
X60494461Y-39355315D01*
X60488533Y-39348474D01*
X60480297Y-39344713D01*
X60466007Y-39322478D01*
X60448706Y-39302511D01*
X60446418Y-39291996D01*
X60442523Y-39285935D01*
X60437500Y-39251000D01*
X60437500Y-39249000D01*
X60457185Y-39181961D01*
X60509989Y-39136206D01*
X60561500Y-39125000D01*
X61215047Y-39125000D01*
X61282086Y-39144685D01*
X61325727Y-39195049D01*
X61330398Y-39186432D01*
X61331626Y-39178236D01*
X61350859Y-39148691D01*
X61350879Y-39148656D01*
X61408657Y-39082754D01*
X61425060Y-39072346D01*
X61438245Y-39058084D01*
X61454707Y-39053536D01*
X61467654Y-39045322D01*
X61484096Y-39045417D01*
X61501897Y-39040500D01*
X67228343Y-39040500D01*
X67228345Y-39040500D01*
X67302229Y-39020703D01*
X67368471Y-38982458D01*
X69709628Y-36641299D01*
X69770949Y-36607816D01*
X69838262Y-36611941D01*
X69940299Y-36647646D01*
X69970730Y-36650500D01*
X69970734Y-36650500D01*
X71029270Y-36650500D01*
X71059699Y-36647646D01*
X71059701Y-36647646D01*
X71123790Y-36625219D01*
X71187882Y-36602793D01*
X71297150Y-36522150D01*
X71377793Y-36412882D01*
X71401300Y-36345702D01*
X71422646Y-36284701D01*
X71422646Y-36284699D01*
X71425500Y-36254269D01*
X71425500Y-35645730D01*
X71422646Y-35615300D01*
X71422646Y-35615298D01*
X71382263Y-35499894D01*
X71377793Y-35487118D01*
X71297150Y-35377850D01*
X71187882Y-35297207D01*
X71187880Y-35297206D01*
X71123967Y-35274842D01*
X71067191Y-35234120D01*
X71041444Y-35169168D01*
X71054901Y-35100606D01*
X71103288Y-35050203D01*
X71125918Y-35040095D01*
X71294119Y-34984358D01*
X71294124Y-34984356D01*
X71443345Y-34892315D01*
X71567315Y-34768345D01*
X71659356Y-34619124D01*
X71659358Y-34619119D01*
X71714505Y-34452697D01*
X71714506Y-34452690D01*
X71724999Y-34349986D01*
X71725000Y-34349973D01*
X71725000Y-34300000D01*
X69275001Y-34300000D01*
X69275001Y-34349986D01*
X69285494Y-34452697D01*
X69340641Y-34619119D01*
X69340643Y-34619124D01*
X69432684Y-34768345D01*
X69556654Y-34892315D01*
X69705875Y-34984356D01*
X69705882Y-34984359D01*
X69874081Y-35040094D01*
X69931526Y-35079866D01*
X69958350Y-35144382D01*
X69946035Y-35213158D01*
X69898493Y-35264358D01*
X69876035Y-35274841D01*
X69837101Y-35288465D01*
X69812118Y-35297207D01*
X69812117Y-35297207D01*
X69812116Y-35297208D01*
X69702850Y-35377850D01*
X69622207Y-35487117D01*
X69622206Y-35487119D01*
X69577353Y-35615298D01*
X69577353Y-35615300D01*
X69574500Y-35645730D01*
X69574500Y-35903409D01*
X69554815Y-35970448D01*
X69538181Y-35991090D01*
X67106090Y-38423181D01*
X67044767Y-38456666D01*
X67018409Y-38459500D01*
X61501897Y-38459500D01*
X61493211Y-38456949D01*
X61484250Y-38458238D01*
X61460209Y-38447259D01*
X61434858Y-38439815D01*
X61428930Y-38432974D01*
X61420694Y-38429213D01*
X61411439Y-38414812D01*
X61408671Y-38417241D01*
X61371627Y-38375000D01*
X60561500Y-38375000D01*
X60552814Y-38372449D01*
X60543853Y-38373738D01*
X60519812Y-38362759D01*
X60494461Y-38355315D01*
X60488533Y-38348474D01*
X60480297Y-38344713D01*
X60466007Y-38322478D01*
X60448706Y-38302511D01*
X60446418Y-38291996D01*
X60442523Y-38285935D01*
X60437500Y-38251000D01*
X60437500Y-38249000D01*
X60457185Y-38181961D01*
X60509989Y-38136206D01*
X60561500Y-38125000D01*
X61371626Y-38125000D01*
X61408671Y-38082759D01*
X61411592Y-38085320D01*
X61418999Y-38078902D01*
X61438245Y-38058084D01*
X61445262Y-38056145D01*
X61450386Y-38051706D01*
X61473214Y-38048423D01*
X61501897Y-38040500D01*
X63735143Y-38040500D01*
X63735145Y-38040500D01*
X63809029Y-38020703D01*
X63875271Y-37982458D01*
X68107716Y-33750013D01*
X69275000Y-33750013D01*
X69275000Y-33800000D01*
X70250000Y-33800000D01*
X70750000Y-33800000D01*
X71724999Y-33800000D01*
X71724999Y-33750028D01*
X71724998Y-33750013D01*
X71714505Y-33647302D01*
X71659358Y-33480880D01*
X71659356Y-33480875D01*
X71567315Y-33331654D01*
X71443345Y-33207684D01*
X71294124Y-33115643D01*
X71294119Y-33115641D01*
X71127697Y-33060494D01*
X71127690Y-33060493D01*
X71024986Y-33050000D01*
X70750000Y-33050000D01*
X70750000Y-33800000D01*
X70250000Y-33800000D01*
X70250000Y-33050000D01*
X69975029Y-33050000D01*
X69975012Y-33050001D01*
X69872302Y-33060494D01*
X69705880Y-33115641D01*
X69705875Y-33115643D01*
X69556654Y-33207684D01*
X69432684Y-33331654D01*
X69340643Y-33480875D01*
X69340641Y-33480880D01*
X69285494Y-33647302D01*
X69285493Y-33647309D01*
X69275000Y-33750013D01*
X68107716Y-33750013D01*
X69670910Y-32186819D01*
X69732233Y-32153334D01*
X69758591Y-32150500D01*
X70029270Y-32150500D01*
X70059699Y-32147646D01*
X70059701Y-32147646D01*
X70123790Y-32125219D01*
X70187882Y-32102793D01*
X70297150Y-32022150D01*
X70377793Y-31912882D01*
X70409054Y-31823544D01*
X70449776Y-31766769D01*
X70514729Y-31741022D01*
X70526095Y-31740500D01*
X75453309Y-31740500D01*
X75520348Y-31760185D01*
X75540990Y-31776819D01*
X77052081Y-33287910D01*
X77085566Y-33349233D01*
X77088400Y-33375591D01*
X77088400Y-33479791D01*
X77122508Y-33607087D01*
X77140617Y-33638452D01*
X77188400Y-33721214D01*
X77281586Y-33814400D01*
X77395714Y-33880292D01*
X77523008Y-33914400D01*
X77523010Y-33914400D01*
X77627209Y-33914400D01*
X77694248Y-33934085D01*
X77714890Y-33950719D01*
X78538181Y-34774010D01*
X78571666Y-34835333D01*
X78574500Y-34861691D01*
X78574500Y-35306517D01*
X78583971Y-35366312D01*
X78589354Y-35400304D01*
X78646950Y-35513342D01*
X78646952Y-35513344D01*
X78646954Y-35513347D01*
X78736652Y-35603045D01*
X78736654Y-35603046D01*
X78736658Y-35603050D01*
X78820430Y-35645734D01*
X78849698Y-35660647D01*
X78943474Y-35675499D01*
X78943475Y-35675499D01*
X78943481Y-35675500D01*
X78959905Y-35675499D01*
X79026943Y-35695180D01*
X79072700Y-35747982D01*
X79082647Y-35817140D01*
X79053625Y-35880697D01*
X79047589Y-35887180D01*
X76711590Y-38223181D01*
X76650267Y-38256666D01*
X76623909Y-38259500D01*
X71526095Y-38259500D01*
X71459056Y-38239815D01*
X71413301Y-38187011D01*
X71409054Y-38176456D01*
X71395110Y-38136608D01*
X71377793Y-38087118D01*
X71297150Y-37977850D01*
X71187882Y-37897207D01*
X71187880Y-37897206D01*
X71059700Y-37852353D01*
X71029270Y-37849500D01*
X71029266Y-37849500D01*
X69970734Y-37849500D01*
X69970730Y-37849500D01*
X69940300Y-37852353D01*
X69940298Y-37852353D01*
X69812119Y-37897206D01*
X69812117Y-37897207D01*
X69702850Y-37977850D01*
X69622207Y-38087117D01*
X69622206Y-38087119D01*
X69577353Y-38215298D01*
X69577353Y-38215300D01*
X69574500Y-38245730D01*
X69574500Y-38854269D01*
X69577353Y-38884699D01*
X69577353Y-38884701D01*
X69619980Y-39006518D01*
X69622207Y-39012882D01*
X69702850Y-39122150D01*
X69812118Y-39202793D01*
X69842280Y-39213347D01*
X69940299Y-39247646D01*
X69970730Y-39250500D01*
X69970734Y-39250500D01*
X70738309Y-39250500D01*
X70805348Y-39270185D01*
X70825990Y-39286819D01*
X70865129Y-39325958D01*
X70931371Y-39364203D01*
X71005255Y-39384000D01*
X71240223Y-39384000D01*
X71307262Y-39403685D01*
X71327904Y-39420318D01*
X71401586Y-39494000D01*
X71515714Y-39559892D01*
X71643008Y-39594000D01*
X71643010Y-39594000D01*
X71774790Y-39594000D01*
X71774792Y-39594000D01*
X71902086Y-39559892D01*
X72016214Y-39494000D01*
X72109400Y-39400814D01*
X72175292Y-39286686D01*
X72209400Y-39159392D01*
X72209400Y-39027608D01*
X72201089Y-38996590D01*
X72202752Y-38926744D01*
X72241914Y-38868881D01*
X72306142Y-38841377D01*
X72320864Y-38840500D01*
X76833843Y-38840500D01*
X76833845Y-38840500D01*
X76907729Y-38820703D01*
X76973971Y-38782458D01*
X80182337Y-35574092D01*
X80243660Y-35540607D01*
X80313352Y-35545591D01*
X80357699Y-35574092D01*
X80386652Y-35603045D01*
X80386654Y-35603046D01*
X80386658Y-35603050D01*
X80470430Y-35645734D01*
X80499698Y-35660647D01*
X80593475Y-35675499D01*
X80593481Y-35675500D01*
X80940000Y-35675499D01*
X81007039Y-35695183D01*
X81052794Y-35747987D01*
X81064000Y-35799499D01*
X81064000Y-35805392D01*
X81070318Y-35828970D01*
X81098108Y-35932687D01*
X81122826Y-35975499D01*
X81164000Y-36046814D01*
X81257186Y-36140000D01*
X81371314Y-36205892D01*
X81498608Y-36240000D01*
X81498610Y-36240000D01*
X81630390Y-36240000D01*
X81630392Y-36240000D01*
X81757686Y-36205892D01*
X81757694Y-36205887D01*
X81762939Y-36203716D01*
X81832409Y-36196250D01*
X81894887Y-36227527D01*
X81898069Y-36230598D01*
X87745842Y-42078371D01*
X87799929Y-42132458D01*
X87866171Y-42170703D01*
X87940055Y-42190500D01*
X87940066Y-42190500D01*
X87941680Y-42190713D01*
X87942953Y-42191276D01*
X87947905Y-42192603D01*
X87947698Y-42193375D01*
X88005578Y-42218977D01*
X88044051Y-42277299D01*
X88049500Y-42313653D01*
X88049500Y-42669752D01*
X88061131Y-42728229D01*
X88061132Y-42728230D01*
X88105447Y-42794552D01*
X88171769Y-42838867D01*
X88171770Y-42838868D01*
X88230247Y-42850499D01*
X88230250Y-42850500D01*
X88230252Y-42850500D01*
X89769750Y-42850500D01*
X89769751Y-42850499D01*
X89789360Y-42846599D01*
X89828229Y-42838868D01*
X89828229Y-42838867D01*
X89828231Y-42838867D01*
X89894552Y-42794552D01*
X89938867Y-42728231D01*
X89938867Y-42728229D01*
X89938868Y-42728229D01*
X89950499Y-42669752D01*
X89950500Y-42669750D01*
X89950500Y-41130249D01*
X89950499Y-41130247D01*
X89938868Y-41071770D01*
X89938867Y-41071769D01*
X89894552Y-41005447D01*
X89828230Y-40961132D01*
X89828229Y-40961131D01*
X89769752Y-40949500D01*
X89769748Y-40949500D01*
X88230252Y-40949500D01*
X88230247Y-40949500D01*
X88171770Y-40961131D01*
X88171769Y-40961132D01*
X88105447Y-41005447D01*
X88061132Y-41071769D01*
X88061131Y-41071770D01*
X88049500Y-41130247D01*
X88049500Y-41261009D01*
X88029815Y-41328048D01*
X87977011Y-41373803D01*
X87907853Y-41383747D01*
X87844297Y-41354722D01*
X87837819Y-41348690D01*
X82036218Y-35547089D01*
X82016512Y-35521408D01*
X81965000Y-35432186D01*
X81871814Y-35339000D01*
X81805458Y-35300689D01*
X81757687Y-35273108D01*
X81679592Y-35252183D01*
X81630392Y-35239000D01*
X81549499Y-35239000D01*
X81482460Y-35219315D01*
X81436705Y-35166511D01*
X81425499Y-35115000D01*
X81425499Y-34693482D01*
X81424130Y-34684837D01*
X81410646Y-34599696D01*
X81395919Y-34570793D01*
X81383023Y-34502127D01*
X81409299Y-34437386D01*
X81466405Y-34397128D01*
X81506404Y-34390500D01*
X87281523Y-34390500D01*
X87348562Y-34410185D01*
X87369204Y-34426818D01*
X87442886Y-34500500D01*
X87557014Y-34566392D01*
X87684308Y-34600500D01*
X87684310Y-34600500D01*
X87816089Y-34600500D01*
X87816092Y-34600500D01*
X87893409Y-34579783D01*
X87963256Y-34581446D01*
X88021119Y-34620608D01*
X88048623Y-34684837D01*
X88049500Y-34699558D01*
X88049500Y-34869752D01*
X88061131Y-34928229D01*
X88061132Y-34928230D01*
X88105447Y-34994552D01*
X88171769Y-35038867D01*
X88171770Y-35038868D01*
X88230247Y-35050499D01*
X88230250Y-35050500D01*
X88230252Y-35050500D01*
X89769750Y-35050500D01*
X89769751Y-35050499D01*
X89784568Y-35047552D01*
X89828229Y-35038868D01*
X89828229Y-35038867D01*
X89828231Y-35038867D01*
X89894552Y-34994552D01*
X89938867Y-34928231D01*
X89938867Y-34928229D01*
X89938868Y-34928229D01*
X89950499Y-34869752D01*
X89950500Y-34869750D01*
X89950500Y-33330249D01*
X89950499Y-33330247D01*
X89938868Y-33271770D01*
X89938867Y-33271769D01*
X89894552Y-33205447D01*
X89828230Y-33161132D01*
X89828229Y-33161131D01*
X89769752Y-33149500D01*
X89769748Y-33149500D01*
X88230252Y-33149500D01*
X88230247Y-33149500D01*
X88171770Y-33161131D01*
X88171769Y-33161132D01*
X88105447Y-33205447D01*
X88061132Y-33271769D01*
X88061131Y-33271770D01*
X88049500Y-33330247D01*
X88049500Y-33500441D01*
X88029815Y-33567480D01*
X87977011Y-33613235D01*
X87911119Y-33623604D01*
X87902135Y-33622555D01*
X87816092Y-33599500D01*
X87704679Y-33599500D01*
X87697510Y-33598663D01*
X87671726Y-33587706D01*
X87644852Y-33579815D01*
X87635586Y-33572348D01*
X87633206Y-33571337D01*
X87631838Y-33569328D01*
X87624210Y-33563181D01*
X83378573Y-29317544D01*
X83378571Y-29317542D01*
X83338923Y-29294651D01*
X83312330Y-29279297D01*
X83268458Y-29267542D01*
X83238445Y-29259500D01*
X83238444Y-29259500D01*
X70526095Y-29259500D01*
X70459056Y-29239815D01*
X70413301Y-29187011D01*
X70409054Y-29176456D01*
X70384013Y-29104894D01*
X70377793Y-29087118D01*
X70297150Y-28977850D01*
X70187882Y-28897207D01*
X70187880Y-28897206D01*
X70059700Y-28852353D01*
X70029270Y-28849500D01*
X70029266Y-28849500D01*
X69261691Y-28849500D01*
X69194652Y-28829815D01*
X69174010Y-28813181D01*
X66353373Y-25992544D01*
X66353371Y-25992542D01*
X66308286Y-25966512D01*
X66287130Y-25954297D01*
X66250187Y-25944398D01*
X66213245Y-25934500D01*
X66213244Y-25934500D01*
X56339676Y-25934500D01*
X56272637Y-25914815D01*
X56226882Y-25862011D01*
X56216938Y-25792853D01*
X56245963Y-25729297D01*
X56251995Y-25722819D01*
X56266998Y-25707816D01*
X56346500Y-25628314D01*
X56412392Y-25514186D01*
X56446500Y-25386892D01*
X56446500Y-25255108D01*
X56412392Y-25127814D01*
X56346500Y-25013686D01*
X56253314Y-24920500D01*
X56206918Y-24893713D01*
X88649500Y-24893713D01*
X88649500Y-25106286D01*
X88682496Y-25314619D01*
X88682754Y-25316243D01*
X88747070Y-25514187D01*
X88748444Y-25518414D01*
X88844951Y-25707820D01*
X88969890Y-25879786D01*
X89120213Y-26030109D01*
X89292179Y-26155048D01*
X89292181Y-26155049D01*
X89292184Y-26155051D01*
X89481588Y-26251557D01*
X89683757Y-26317246D01*
X89893713Y-26350500D01*
X89893714Y-26350500D01*
X90106286Y-26350500D01*
X90106287Y-26350500D01*
X90316243Y-26317246D01*
X90518412Y-26251557D01*
X90707816Y-26155051D01*
X90729789Y-26139086D01*
X90879786Y-26030109D01*
X90879788Y-26030106D01*
X90879792Y-26030104D01*
X91030104Y-25879792D01*
X91030106Y-25879788D01*
X91030109Y-25879786D01*
X91155048Y-25707820D01*
X91155047Y-25707820D01*
X91155051Y-25707816D01*
X91251557Y-25518412D01*
X91317246Y-25316243D01*
X91350500Y-25106287D01*
X91350500Y-24893713D01*
X91317246Y-24683757D01*
X91251557Y-24481588D01*
X91155051Y-24292184D01*
X91155049Y-24292181D01*
X91155048Y-24292179D01*
X91030109Y-24120213D01*
X90879786Y-23969890D01*
X90707820Y-23844951D01*
X90518414Y-23748444D01*
X90518413Y-23748443D01*
X90518412Y-23748443D01*
X90316243Y-23682754D01*
X90316241Y-23682753D01*
X90316240Y-23682753D01*
X90154957Y-23657208D01*
X90106287Y-23649500D01*
X89893713Y-23649500D01*
X89845042Y-23657208D01*
X89683760Y-23682753D01*
X89481585Y-23748444D01*
X89292179Y-23844951D01*
X89120213Y-23969890D01*
X88969890Y-24120213D01*
X88844951Y-24292179D01*
X88748444Y-24481585D01*
X88682753Y-24683760D01*
X88649500Y-24893713D01*
X56206918Y-24893713D01*
X56195434Y-24887083D01*
X56139187Y-24854608D01*
X56030679Y-24825534D01*
X56011892Y-24820500D01*
X55999500Y-24820500D01*
X55932461Y-24800815D01*
X55886706Y-24748011D01*
X55875500Y-24696500D01*
X55875500Y-24316506D01*
X55859720Y-24216878D01*
X55859719Y-24216876D01*
X55859719Y-24216874D01*
X55798528Y-24096780D01*
X55798526Y-24096778D01*
X55798523Y-24096774D01*
X55703225Y-24001476D01*
X55703221Y-24001473D01*
X55703220Y-24001472D01*
X55583126Y-23940281D01*
X55583124Y-23940280D01*
X55583121Y-23940279D01*
X55483493Y-23924500D01*
X55483488Y-23924500D01*
X55010691Y-23924500D01*
X54989445Y-23918261D01*
X54967357Y-23916682D01*
X54956573Y-23908609D01*
X54943652Y-23904815D01*
X54929152Y-23888081D01*
X54911424Y-23874810D01*
X54906716Y-23862189D01*
X54897897Y-23852011D01*
X54894745Y-23830093D01*
X54887007Y-23809346D01*
X54889869Y-23796185D01*
X54887953Y-23782853D01*
X54897152Y-23762709D01*
X54901859Y-23741073D01*
X54915127Y-23723347D01*
X54916978Y-23719297D01*
X54923010Y-23712819D01*
X54924010Y-23711819D01*
X54985333Y-23678334D01*
X55011691Y-23675500D01*
X55483493Y-23675500D01*
X55583121Y-23659720D01*
X55583121Y-23659719D01*
X55583126Y-23659719D01*
X55703220Y-23598528D01*
X55798528Y-23503220D01*
X55859719Y-23383126D01*
X55868769Y-23325989D01*
X55875500Y-23283493D01*
X55875500Y-22766506D01*
X55859720Y-22666878D01*
X55859719Y-22666876D01*
X55859719Y-22666874D01*
X55798528Y-22546780D01*
X55798526Y-22546778D01*
X55798523Y-22546774D01*
X55703225Y-22451476D01*
X55703221Y-22451473D01*
X55703220Y-22451472D01*
X55583126Y-22390281D01*
X55583124Y-22390280D01*
X55583121Y-22390279D01*
X55483493Y-22374500D01*
X55483488Y-22374500D01*
X54916512Y-22374500D01*
X54916507Y-22374500D01*
X54816878Y-22390279D01*
X54696778Y-22451473D01*
X54696774Y-22451476D01*
X54601476Y-22546774D01*
X54601473Y-22546778D01*
X54540279Y-22666878D01*
X54524500Y-22766506D01*
X54524500Y-23238308D01*
X54504815Y-23305347D01*
X54488181Y-23325989D01*
X54224429Y-23589742D01*
X54224426Y-23589745D01*
X54209981Y-23604189D01*
X54148657Y-23637672D01*
X54078965Y-23632685D01*
X54023033Y-23590812D01*
X53998845Y-23528082D01*
X53997646Y-23515300D01*
X53997646Y-23515298D01*
X53952793Y-23387119D01*
X53952792Y-23387117D01*
X53872150Y-23277850D01*
X53762882Y-23197207D01*
X53762880Y-23197206D01*
X53634700Y-23152353D01*
X53604270Y-23149500D01*
X53604266Y-23149500D01*
X52595734Y-23149500D01*
X52595730Y-23149500D01*
X52565300Y-23152353D01*
X52565298Y-23152353D01*
X52437119Y-23197206D01*
X52437117Y-23197207D01*
X52327850Y-23277850D01*
X52247207Y-23387117D01*
X52247206Y-23387119D01*
X52202353Y-23515298D01*
X52202353Y-23515300D01*
X52199500Y-23545730D01*
X52199500Y-24354269D01*
X52202353Y-24384699D01*
X52202353Y-24384701D01*
X52247206Y-24512880D01*
X52247207Y-24512882D01*
X52327850Y-24622150D01*
X52397548Y-24673589D01*
X52433645Y-24700230D01*
X52475895Y-24755878D01*
X52481354Y-24825534D01*
X52448286Y-24887083D01*
X52433645Y-24899770D01*
X52327850Y-24977850D01*
X52247207Y-25087117D01*
X52247206Y-25087119D01*
X52202353Y-25215298D01*
X52202353Y-25215300D01*
X52199500Y-25245730D01*
X52199500Y-25948726D01*
X52191460Y-25976105D01*
X52186405Y-26004188D01*
X52181742Y-26009199D01*
X52179815Y-26015765D01*
X52158254Y-26034447D01*
X52138814Y-26055344D01*
X52131025Y-26058041D01*
X52127011Y-26061520D01*
X52106212Y-26068862D01*
X52092372Y-26072400D01*
X52086108Y-26072400D01*
X51958814Y-26106508D01*
X51958704Y-26106571D01*
X51955212Y-26107464D01*
X51921028Y-26106256D01*
X51886743Y-26105440D01*
X51886127Y-26105023D01*
X51885386Y-26104997D01*
X51857254Y-26085481D01*
X51828881Y-26066277D01*
X51828588Y-26065594D01*
X51827978Y-26065171D01*
X51814854Y-26033520D01*
X51801377Y-26002048D01*
X51801305Y-26000845D01*
X51801216Y-26000630D01*
X51801273Y-26000310D01*
X51800500Y-25987328D01*
X51800500Y-25245730D01*
X51797646Y-25215300D01*
X51797646Y-25215298D01*
X51752793Y-25087119D01*
X51752792Y-25087117D01*
X51672150Y-24977850D01*
X51672148Y-24977849D01*
X51672148Y-24977848D01*
X51566355Y-24899770D01*
X51524104Y-24844123D01*
X51518645Y-24774467D01*
X51551712Y-24712917D01*
X51566355Y-24700230D01*
X51602452Y-24673589D01*
X51672150Y-24622150D01*
X51752793Y-24512882D01*
X51784042Y-24423577D01*
X51797646Y-24384701D01*
X51797646Y-24384699D01*
X51800500Y-24354269D01*
X51800500Y-23545730D01*
X51797646Y-23515300D01*
X51797646Y-23515298D01*
X51752793Y-23387119D01*
X51752792Y-23387117D01*
X51672150Y-23277850D01*
X51562882Y-23197207D01*
X51562880Y-23197206D01*
X51434700Y-23152353D01*
X51404270Y-23149500D01*
X51404266Y-23149500D01*
X50395734Y-23149500D01*
X50395730Y-23149500D01*
X50365300Y-23152353D01*
X50365298Y-23152353D01*
X50237119Y-23197206D01*
X50237117Y-23197207D01*
X50127850Y-23277850D01*
X50047207Y-23387117D01*
X50047206Y-23387119D01*
X50002353Y-23515298D01*
X50002353Y-23515300D01*
X49999500Y-23545730D01*
X49999500Y-24354269D01*
X50002353Y-24384699D01*
X50002353Y-24384701D01*
X50047206Y-24512880D01*
X50047207Y-24512882D01*
X50127850Y-24622150D01*
X50197548Y-24673589D01*
X50233645Y-24700230D01*
X50275895Y-24755878D01*
X50281354Y-24825534D01*
X50248286Y-24887083D01*
X50233645Y-24899770D01*
X50127850Y-24977850D01*
X50047207Y-25087117D01*
X50047206Y-25087119D01*
X50002353Y-25215298D01*
X50002353Y-25215300D01*
X49999500Y-25245730D01*
X49999500Y-26054269D01*
X50002353Y-26084699D01*
X50002353Y-26084701D01*
X50041271Y-26195918D01*
X50047207Y-26212882D01*
X50127850Y-26322150D01*
X50237118Y-26402793D01*
X50279845Y-26417744D01*
X50365299Y-26447646D01*
X50395730Y-26450500D01*
X50395734Y-26450500D01*
X51238309Y-26450500D01*
X51305348Y-26470185D01*
X51325990Y-26486819D01*
X51644529Y-26805358D01*
X51710771Y-26843603D01*
X51712098Y-26844369D01*
X51748474Y-26876270D01*
X51751499Y-26880212D01*
X51751500Y-26880214D01*
X51844686Y-26973400D01*
X51958814Y-27039292D01*
X52086108Y-27073400D01*
X52086110Y-27073400D01*
X52217890Y-27073400D01*
X52217892Y-27073400D01*
X52345186Y-27039292D01*
X52459314Y-26973400D01*
X52552500Y-26880214D01*
X52618392Y-26766086D01*
X52652500Y-26638792D01*
X52652500Y-26574500D01*
X52672185Y-26507461D01*
X52724989Y-26461706D01*
X52776500Y-26450500D01*
X53413309Y-26450500D01*
X53480348Y-26470185D01*
X53500990Y-26486819D01*
X54488181Y-27474010D01*
X54521666Y-27535333D01*
X54524500Y-27561691D01*
X54524500Y-27988308D01*
X54504815Y-28055347D01*
X54488181Y-28075989D01*
X52948729Y-29615442D01*
X52894644Y-29669526D01*
X52894642Y-29669529D01*
X52856397Y-29735769D01*
X52836600Y-29809655D01*
X52836600Y-37683644D01*
X52856397Y-37757530D01*
X52875519Y-37790650D01*
X52894642Y-37823771D01*
X52894644Y-37823773D01*
X52936667Y-37865796D01*
X52970152Y-37927119D01*
X52965168Y-37996811D01*
X52923296Y-38052744D01*
X52921574Y-38053879D01*
X52916983Y-38057402D01*
X52823802Y-38150583D01*
X52823800Y-38150586D01*
X52757908Y-38264712D01*
X52740617Y-38329245D01*
X52704251Y-38388906D01*
X52641404Y-38419434D01*
X52572029Y-38411139D01*
X52533161Y-38384832D01*
X40176173Y-26027844D01*
X40176171Y-26027842D01*
X40129039Y-26000630D01*
X40109930Y-25989597D01*
X40072987Y-25979698D01*
X40036045Y-25969800D01*
X35236845Y-25969800D01*
X35160354Y-25969800D01*
X35086471Y-25989597D01*
X35086469Y-25989597D01*
X35086469Y-25989598D01*
X35020229Y-26027842D01*
X35020226Y-26027844D01*
X33823529Y-27224542D01*
X33823505Y-27224566D01*
X33819888Y-27228181D01*
X33758556Y-27261649D01*
X33688865Y-27256646D01*
X33644550Y-27228157D01*
X33613347Y-27196954D01*
X33613344Y-27196952D01*
X33613342Y-27196950D01*
X33536517Y-27157805D01*
X33500301Y-27139352D01*
X33406524Y-27124500D01*
X32961691Y-27124500D01*
X32896678Y-27106090D01*
X32884293Y-27098464D01*
X32834871Y-27049042D01*
X32768629Y-27010797D01*
X32721323Y-26998121D01*
X32705898Y-26988624D01*
X32696847Y-26978578D01*
X32683230Y-26970716D01*
X32667196Y-26954682D01*
X32593514Y-26881000D01*
X32536450Y-26848054D01*
X32479387Y-26815108D01*
X32415739Y-26798054D01*
X32352092Y-26781000D01*
X32220308Y-26781000D01*
X32093012Y-26815108D01*
X31978886Y-26881000D01*
X31905204Y-26954682D01*
X31843880Y-26988166D01*
X31817523Y-26991000D01*
X29855255Y-26991000D01*
X29781369Y-27010797D01*
X29715129Y-27049042D01*
X29715126Y-27049044D01*
X27975988Y-28788181D01*
X27914665Y-28821666D01*
X27888307Y-28824500D01*
X27443482Y-28824500D01*
X27362519Y-28837323D01*
X27349696Y-28839354D01*
X27236658Y-28896950D01*
X27236657Y-28896951D01*
X27236652Y-28896954D01*
X27146954Y-28986652D01*
X27146951Y-28986657D01*
X27146950Y-28986658D01*
X27127751Y-29024337D01*
X27089352Y-29099698D01*
X27074500Y-29193475D01*
X21000000Y-29193475D01*
X21000000Y-24893713D01*
X23649500Y-24893713D01*
X23649500Y-25106286D01*
X23682496Y-25314619D01*
X23682754Y-25316243D01*
X23747070Y-25514187D01*
X23748444Y-25518414D01*
X23844951Y-25707820D01*
X23969890Y-25879786D01*
X24120213Y-26030109D01*
X24292179Y-26155048D01*
X24292181Y-26155049D01*
X24292184Y-26155051D01*
X24481588Y-26251557D01*
X24683757Y-26317246D01*
X24893713Y-26350500D01*
X24893714Y-26350500D01*
X25106286Y-26350500D01*
X25106287Y-26350500D01*
X25316243Y-26317246D01*
X25518412Y-26251557D01*
X25707816Y-26155051D01*
X25729789Y-26139086D01*
X25879786Y-26030109D01*
X25879788Y-26030106D01*
X25879792Y-26030104D01*
X26030104Y-25879792D01*
X26030106Y-25879788D01*
X26030109Y-25879786D01*
X26155048Y-25707820D01*
X26155047Y-25707820D01*
X26155051Y-25707816D01*
X26251557Y-25518412D01*
X26317246Y-25316243D01*
X26350500Y-25106287D01*
X26350500Y-24893713D01*
X26317246Y-24683757D01*
X26251557Y-24481588D01*
X26155051Y-24292184D01*
X26155049Y-24292181D01*
X26155048Y-24292179D01*
X26030109Y-24120213D01*
X25879786Y-23969890D01*
X25707820Y-23844951D01*
X25518414Y-23748444D01*
X25518413Y-23748443D01*
X25518412Y-23748443D01*
X25316243Y-23682754D01*
X25316241Y-23682753D01*
X25316240Y-23682753D01*
X25154957Y-23657208D01*
X25106287Y-23649500D01*
X24893713Y-23649500D01*
X24845042Y-23657208D01*
X24683760Y-23682753D01*
X24481585Y-23748444D01*
X24292179Y-23844951D01*
X24120213Y-23969890D01*
X23969890Y-24120213D01*
X23844951Y-24292179D01*
X23748444Y-24481585D01*
X23682753Y-24683760D01*
X23649500Y-24893713D01*
X21000000Y-24893713D01*
X21000000Y-23039652D01*
X21003294Y-23026189D01*
X21002335Y-23015702D01*
X21014009Y-22982398D01*
X21111539Y-22795045D01*
X21116934Y-22785700D01*
X21325793Y-22457857D01*
X21331983Y-22449018D01*
X21568612Y-22140637D01*
X21575550Y-22132368D01*
X21838157Y-21845783D01*
X21845783Y-21838157D01*
X22132368Y-21575550D01*
X22140637Y-21568612D01*
X22449018Y-21331983D01*
X22457857Y-21325793D01*
X22785700Y-21116934D01*
X22795045Y-21111539D01*
X22982396Y-21014010D01*
X23039653Y-21000000D01*
X91960346Y-21000000D01*
X91973808Y-21003294D01*
G37*
%TD.AperFunction*%
%TD*%
M02*
