%TF.GenerationSoftware,KiCad,Pcbnew,10.0.3*%
%TF.CreationDate,2026-10-10T14:26:48+10:30*%
%TF.ProjectId,STPM34_Breakout,5354504d-3334-45f4-9272-65616b6f7574,A*%
%TF.SameCoordinates,Original*%
%TF.FileFunction,Copper,L2,Bot*%
%TF.FilePolarity,Positive*%
%FSLAX46Y46*%
G04 Gerber Fmt 4.6, Leading zero omitted, Abs format (unit mm)*
G04 Created by KiCad (PCBNEW 10.0.3) date 2026-10-10 14:26:48*
%MOMM*%
%LPD*%
G01*
G04 APERTURE LIST*
%TA.AperFunction,EtchedComponent*%
%ADD10C,0.000000*%
%TD*%
%TA.AperFunction,ComponentPad*%
%ADD11R,1.700000X1.700000*%
%TD*%
%TA.AperFunction,ComponentPad*%
%ADD12C,1.700000*%
%TD*%
%TA.AperFunction,SMDPad,CuDef*%
%ADD13C,1.500000*%
%TD*%
%TA.AperFunction,SMDPad,CuDef*%
%ADD14R,1.500000X1.000000*%
%TD*%
%TA.AperFunction,ViaPad*%
%ADD15C,0.600000*%
%TD*%
%TA.AperFunction,Conductor*%
%ADD16C,0.180000*%
%TD*%
%TA.AperFunction,Conductor*%
%ADD17C,0.150000*%
%TD*%
G04 APERTURE END LIST*
D10*
%TA.AperFunction,EtchedComponent*%
%TO.C,SJ1*%
G36*
X84800000Y-29400000D02*
G01*
X84200000Y-29400000D01*
X84200000Y-28900000D01*
X84800000Y-28900000D01*
X84800000Y-29400000D01*
G37*
%TD.AperFunction*%
%TD*%
D11*
%TO.P,J1,1*%
%TO.N,VAC_P*%
X32000000Y-66400000D03*
D12*
%TO.P,J1,2*%
%TO.N,VAC_N*%
X34540000Y-66400000D03*
%TO.P,J1,3*%
%TO.N,V2AC_P*%
X37080000Y-66400000D03*
%TO.P,J1,4*%
%TO.N,V2AC_N*%
X39620000Y-66400000D03*
%TO.P,J1,5*%
%TO.N,CT1_P*%
X42160000Y-66400000D03*
%TO.P,J1,6*%
%TO.N,CT1_N*%
X44700000Y-66400000D03*
%TO.P,J1,7*%
%TO.N,CT2_P*%
X47240000Y-66400000D03*
%TO.P,J1,8*%
%TO.N,CT2_N*%
X49780000Y-66400000D03*
%TD*%
D11*
%TO.P,J2,1*%
%TO.N,+3V3*%
X62000000Y-66400000D03*
D12*
%TO.P,J2,2*%
%TO.N,DGND*%
X64540000Y-66400000D03*
%TO.P,J2,3*%
%TO.N,SCS*%
X67080000Y-66400000D03*
%TO.P,J2,4*%
%TO.N,SCL*%
X69620000Y-66400000D03*
%TO.P,J2,5*%
%TO.N,MOSI_RXD*%
X72160000Y-66400000D03*
%TO.P,J2,6*%
%TO.N,MISO_TXD*%
X74700000Y-66400000D03*
%TO.P,J2,7*%
%TO.N,SYN*%
X77240000Y-66400000D03*
%TO.P,J2,8*%
%TO.N,EN*%
X79780000Y-66400000D03*
%TO.P,J2,9*%
%TO.N,INT1*%
X82320000Y-66400000D03*
%TO.P,J2,10*%
%TO.N,INT2*%
X84860000Y-66400000D03*
%TD*%
D13*
%TO.P,TP3,1*%
%TO.N,CLKOUT_ZCR*%
X40500000Y-23500000D03*
%TD*%
%TO.P,TP1,1*%
%TO.N,LED1*%
X29500000Y-23500000D03*
%TD*%
D14*
%TO.P,SJ1,1*%
%TO.N,DGND*%
X84500000Y-29800000D03*
%TO.P,SJ1,2*%
%TO.N,MODE_BIAS*%
X84500000Y-28500000D03*
%TO.P,SJ1,3*%
%TO.N,+3V3*%
X84500000Y-27200000D03*
%TD*%
D13*
%TO.P,TP2,1*%
%TO.N,LED2*%
X35000000Y-23500000D03*
%TD*%
D15*
%TO.N,CT1_N*%
X33175000Y-32160100D03*
%TO.N,IIN1*%
X37928500Y-29462000D03*
X49092900Y-38603000D03*
%TO.N,CT1_P*%
X32286200Y-27281500D03*
%TO.N,IIP1*%
X51052700Y-40045500D03*
X36221200Y-28575000D03*
%TO.N,CT2_N*%
X32076900Y-38356200D03*
%TO.N,VREF2*%
X61367800Y-39854600D03*
X61747900Y-46222900D03*
%TO.N,VIP1*%
X52407800Y-40135700D03*
X47377800Y-47952500D03*
%TO.N,VDDD*%
X64150400Y-35887300D03*
X69272400Y-40450000D03*
%TO.N,DGND*%
X87750200Y-34100000D03*
X73972400Y-44972400D03*
X71708900Y-39093500D03*
%TO.N,CT2_P*%
X32283100Y-35300000D03*
%TO.N,VREF1*%
X57333900Y-46975000D03*
X60435900Y-41396700D03*
%TO.N,VIP2*%
X60053900Y-42346100D03*
X65763400Y-53887500D03*
%TO.N,+3V3*%
X77588900Y-33413900D03*
%TO.N,SCS*%
X70290500Y-41453500D03*
X77439700Y-41264700D03*
X57644800Y-35563700D03*
%TO.N,MODE_BIAS*%
X80709400Y-42046500D03*
%TO.N,VIN2*%
X67740500Y-58604000D03*
X59270900Y-42374400D03*
%TO.N,CLKOUT_ZCR*%
X53716700Y-36635000D03*
%TO.N,XTAL1*%
X52152000Y-26572900D03*
X53224300Y-38457900D03*
X55946000Y-25321000D03*
%TO.N,LED1*%
X30682900Y-28073700D03*
%TO.N,LED2*%
X50558400Y-39399500D03*
%TO.N,INT1*%
X69527000Y-61427500D03*
X53851800Y-40012500D03*
%TO.N,INT2*%
X53962400Y-40936300D03*
%TO.N,EN*%
X81564500Y-35739500D03*
X54639000Y-41673500D03*
X59719700Y-65401300D03*
%TO.N,VIN1*%
X52691900Y-41207000D03*
X49388700Y-52775000D03*
%TO.N,SYN*%
X68788300Y-61942300D03*
X58428500Y-35631600D03*
%TO.N,SCL*%
X69958700Y-59013200D03*
X62124200Y-35315600D03*
%TO.N,MOSI_RXD*%
X55711500Y-35559500D03*
X66569200Y-61826600D03*
%TO.N,MISO_TXD*%
X55070200Y-36193000D03*
%TO.N,VAC_P*%
X27400300Y-47725300D03*
%TO.N,VAC_N*%
X26675000Y-52979300D03*
%TD*%
%TO.N,CT1_N*%
D16*
X44700000Y-66400000D02*
X31087100Y-52787100D01*
X31087100Y-52787100D02*
X31087100Y-34248000D01*
X31087100Y-34248000D02*
X33175000Y-32160100D01*
%TO.N,IIN1*%
X47069500Y-38603000D02*
X37928500Y-29462000D01*
X49092900Y-38603000D02*
X47069500Y-38603000D01*
%TO.N,CT1_P*%
X30691900Y-54931900D02*
X30691900Y-28875800D01*
X30691900Y-28875800D02*
X32286200Y-27281500D01*
X42160000Y-66400000D02*
X30691900Y-54931900D01*
%TO.N,IIP1*%
X47691700Y-40045500D02*
X36221200Y-28575000D01*
X51052700Y-40045500D02*
X47691700Y-40045500D01*
%TO.N,CT2_N*%
X49780000Y-66400000D02*
X49780000Y-56059300D01*
X49780000Y-56059300D02*
X32076900Y-38356200D01*
%TO.N,VREF2*%
X61747900Y-46222900D02*
X61747900Y-40234700D01*
X61747900Y-40234700D02*
X61367800Y-39854600D01*
%TO.N,VIP1*%
X47377800Y-45165700D02*
X47377800Y-47952500D01*
X52407800Y-40135700D02*
X47377800Y-45165700D01*
%TO.N,VDDD*%
X64709700Y-35887300D02*
X64150400Y-35887300D01*
X69272400Y-40450000D02*
X64709700Y-35887300D01*
%TO.N,DGND*%
X68336100Y-63749300D02*
X73972400Y-58113000D01*
X73972400Y-58113000D02*
X73972400Y-44972400D01*
X84500000Y-30849800D02*
X87750200Y-34100000D01*
X84500000Y-29800000D02*
X84500000Y-30849800D01*
X64540000Y-66400000D02*
X67190700Y-63749300D01*
X73972400Y-44972400D02*
X71708900Y-42708900D01*
X71708900Y-42708900D02*
X71708900Y-39093500D01*
X67190700Y-63749300D02*
X68336100Y-63749300D01*
%TO.N,CT2_P*%
X31486200Y-36096900D02*
X32283100Y-35300000D01*
X47240000Y-66400000D02*
X31486200Y-50646200D01*
X31486200Y-50646200D02*
X31486200Y-36096900D01*
%TO.N,VREF1*%
X60635300Y-43673600D02*
X57333900Y-46975000D01*
X60635300Y-41596100D02*
X60635300Y-43673600D01*
X60435900Y-41396700D02*
X60635300Y-41596100D01*
%TO.N,VIP2*%
X61007600Y-49131700D02*
X61007600Y-41083900D01*
X59831300Y-42123500D02*
X60053900Y-42346100D01*
X60206200Y-40816700D02*
X59831300Y-41191600D01*
X60740400Y-40816700D02*
X60206200Y-40816700D01*
X65763400Y-53887500D02*
X61007600Y-49131700D01*
X61007600Y-41083900D02*
X60740400Y-40816700D01*
X59831300Y-41191600D02*
X59831300Y-42123500D01*
%TO.N,+3V3*%
X76734300Y-55862700D02*
X68486000Y-64111000D01*
X83268000Y-27432800D02*
X77588900Y-33111900D01*
X63121700Y-66680400D02*
X63121700Y-66400000D01*
X65015400Y-67525000D02*
X63966300Y-67525000D01*
X62000000Y-66400000D02*
X63121700Y-66400000D01*
X68486000Y-64111000D02*
X67774600Y-64111000D01*
X65958300Y-65927300D02*
X65958300Y-66582100D01*
X67774600Y-64111000D02*
X65958300Y-65927300D01*
X76734300Y-34268500D02*
X76734300Y-55862700D01*
X65958300Y-66582100D02*
X65015400Y-67525000D01*
X63966300Y-67525000D02*
X63121700Y-66680400D01*
D17*
X83268000Y-27432800D02*
X83500800Y-27200000D01*
D16*
X77588900Y-33111900D02*
X77588900Y-33413900D01*
D17*
X84500000Y-27200000D02*
X83500800Y-27200000D01*
D16*
X77588900Y-33413900D02*
X76734300Y-34268500D01*
%TO.N,SCS*%
X58464600Y-34743900D02*
X57644800Y-35563700D01*
X77439700Y-56040300D02*
X77439700Y-41264700D01*
X68833700Y-41453500D02*
X62695900Y-35315700D01*
X62695900Y-35315700D02*
X62695900Y-35078700D01*
X70290500Y-41453500D02*
X68833700Y-41453500D01*
X67080000Y-66400000D02*
X77439700Y-56040300D01*
X62361100Y-34743900D02*
X58464600Y-34743900D01*
X62695900Y-35078700D02*
X62361100Y-34743900D01*
%TO.N,MODE_BIAS*%
X80709400Y-42046500D02*
X80709400Y-31291400D01*
D17*
X84500000Y-28500000D02*
X83500800Y-28500000D01*
D16*
X80709400Y-31291400D02*
X83268000Y-28732800D01*
D17*
X83268000Y-28732800D02*
X83500800Y-28500000D01*
%TO.N,VIN2*%
D16*
X61111800Y-39271900D02*
X61607400Y-39271900D01*
X59270900Y-42374400D02*
X59270900Y-41112800D01*
X67740500Y-45405000D02*
X67740500Y-58604000D01*
X59270900Y-41112800D02*
X61111800Y-39271900D01*
X61607400Y-39271900D02*
X67740500Y-45405000D01*
%TO.N,CLKOUT_ZCR*%
X53635000Y-36635000D02*
X53716700Y-36635000D01*
X40500000Y-23500000D02*
X53635000Y-36635000D01*
%TO.N,XTAL1*%
X54308500Y-26572900D02*
X54308500Y-37373700D01*
X54694100Y-26572900D02*
X55946000Y-25321000D01*
X52152000Y-26572900D02*
X54308500Y-26572900D01*
X54308500Y-26572900D02*
X54694100Y-26572900D01*
X54308500Y-37373700D02*
X53224300Y-38457900D01*
%TO.N,LED1*%
X29500000Y-23500000D02*
X29500000Y-26890800D01*
X29500000Y-26890800D02*
X30682900Y-28073700D01*
%TO.N,LED2*%
X50558400Y-39058400D02*
X35000000Y-23500000D01*
X50558400Y-39399500D02*
X50558400Y-39058400D01*
%TO.N,INT1*%
X69527000Y-61427500D02*
X69527000Y-62046800D01*
X69527000Y-62046800D02*
X69036000Y-62537800D01*
X55210700Y-51276600D02*
X55210700Y-41371400D01*
X69036000Y-62537800D02*
X66471900Y-62537800D01*
X55210700Y-41371400D02*
X53851800Y-40012500D01*
X66471900Y-62537800D02*
X55210700Y-51276600D01*
%TO.N,INT2*%
X73430000Y-66056500D02*
X73430000Y-66788300D01*
X61373300Y-67886700D02*
X53962400Y-60475800D01*
X83732700Y-65272700D02*
X74213800Y-65272700D01*
X84860000Y-66400000D02*
X83732700Y-65272700D01*
X74213800Y-65272700D02*
X73430000Y-66056500D01*
X73430000Y-66788300D02*
X72331600Y-67886700D01*
X72331600Y-67886700D02*
X61373300Y-67886700D01*
X53962400Y-60475800D02*
X53962400Y-40936300D01*
%TO.N,EN*%
X79780000Y-66400000D02*
X80963000Y-67583000D01*
X59719700Y-65401300D02*
X54639000Y-60320600D01*
X54639000Y-60320600D02*
X54639000Y-41673500D01*
X85323300Y-67583000D02*
X86016300Y-66890000D01*
X80963000Y-67583000D02*
X85323300Y-67583000D01*
X86016300Y-66890000D02*
X86016300Y-40191300D01*
X86016300Y-40191300D02*
X81564500Y-35739500D01*
%TO.N,VIN1*%
X49388700Y-52775000D02*
X49388700Y-44510200D01*
X49388700Y-44510200D02*
X52691900Y-41207000D01*
%TO.N,SYN*%
X68788300Y-45941100D02*
X68788300Y-61942300D01*
X58478800Y-35631600D02*
X68788300Y-45941100D01*
X58428500Y-35631600D02*
X58478800Y-35631600D01*
%TO.N,SCL*%
X62124200Y-35315600D02*
X69958700Y-43150100D01*
X69958700Y-43150100D02*
X69958700Y-59013200D01*
%TO.N,MOSI_RXD*%
X66569200Y-61826600D02*
X55711500Y-50968900D01*
X55711500Y-50968900D02*
X55711500Y-35559500D01*
%TO.N,MISO_TXD*%
X61174800Y-68287400D02*
X53279200Y-60391800D01*
X53279200Y-39776000D02*
X55070200Y-37985000D01*
X53279200Y-60391800D02*
X53279200Y-39776000D01*
X72812600Y-68287400D02*
X61174800Y-68287400D01*
X74700000Y-66400000D02*
X72812600Y-68287400D01*
X55070200Y-37985000D02*
X55070200Y-36193000D01*
%TO.N,VAC_P*%
X26072000Y-59350300D02*
X26072000Y-49053600D01*
X32000000Y-66400000D02*
X32000000Y-65278300D01*
X26072000Y-49053600D02*
X27400300Y-47725300D01*
X32000000Y-65278300D02*
X26072000Y-59350300D01*
%TO.N,VAC_N*%
X26675000Y-58535000D02*
X26675000Y-52979300D01*
X34540000Y-66400000D02*
X26675000Y-58535000D01*
%TD*%
%TA.AperFunction,Conductor*%
%TO.N,DGND*%
G36*
X65223881Y-66730327D02*
G01*
X65257366Y-66791650D01*
X65252382Y-66861342D01*
X65223881Y-66905689D01*
X65045689Y-67083881D01*
X64984366Y-67117366D01*
X64914674Y-67112382D01*
X64870327Y-67083881D01*
X64669408Y-66882962D01*
X64732993Y-66865925D01*
X64847007Y-66800099D01*
X64940099Y-66707007D01*
X65005925Y-66592993D01*
X65022962Y-66529408D01*
X65223881Y-66730327D01*
G37*
%TD.AperFunction*%
%TA.AperFunction,Conductor*%
G36*
X55134703Y-51611878D02*
G01*
X55141181Y-51617910D01*
X66293529Y-62770258D01*
X66359771Y-62808503D01*
X66433655Y-62828300D01*
X66433657Y-62828300D01*
X69058509Y-62828300D01*
X69125548Y-62847985D01*
X69171303Y-62900789D01*
X69181247Y-62969947D01*
X69152222Y-63033503D01*
X69146190Y-63039981D01*
X68401990Y-63784181D01*
X68340667Y-63817666D01*
X68314309Y-63820500D01*
X67736355Y-63820500D01*
X67662469Y-63840297D01*
X67596229Y-63878542D01*
X67596226Y-63878544D01*
X65834190Y-65640580D01*
X65772867Y-65674065D01*
X65703175Y-65669081D01*
X65662828Y-65638877D01*
X65655269Y-65638282D01*
X65022962Y-66270590D01*
X65005925Y-66207007D01*
X64940099Y-66092993D01*
X64847007Y-65999901D01*
X64732993Y-65934075D01*
X64669409Y-65917037D01*
X65301716Y-65284728D01*
X65247550Y-65245375D01*
X65058217Y-65148904D01*
X64856129Y-65083242D01*
X64646246Y-65050000D01*
X64433754Y-65050000D01*
X64223872Y-65083242D01*
X64223869Y-65083242D01*
X64021782Y-65148904D01*
X63832439Y-65245380D01*
X63778282Y-65284727D01*
X63778282Y-65284728D01*
X64410591Y-65917037D01*
X64347007Y-65934075D01*
X64232993Y-65999901D01*
X64139901Y-66092993D01*
X64074075Y-66207007D01*
X64057037Y-66270591D01*
X63424728Y-65638282D01*
X63424727Y-65638282D01*
X63385380Y-65692439D01*
X63286694Y-65886121D01*
X63285678Y-65885603D01*
X63245212Y-65935813D01*
X63178916Y-65957872D01*
X63111218Y-65940588D01*
X63063612Y-65889447D01*
X63050500Y-65833951D01*
X63050500Y-65530249D01*
X63050499Y-65530247D01*
X63038868Y-65471770D01*
X63038867Y-65471769D01*
X62994552Y-65405447D01*
X62928230Y-65361132D01*
X62928229Y-65361131D01*
X62869752Y-65349500D01*
X62869748Y-65349500D01*
X61130252Y-65349500D01*
X61130247Y-65349500D01*
X61071770Y-65361131D01*
X61071769Y-65361132D01*
X61005447Y-65405447D01*
X60961132Y-65471769D01*
X60961131Y-65471770D01*
X60949500Y-65530247D01*
X60949500Y-66752709D01*
X60929815Y-66819748D01*
X60877011Y-66865503D01*
X60807853Y-66875447D01*
X60744297Y-66846422D01*
X60737819Y-66840390D01*
X59933474Y-66036045D01*
X59899989Y-65974722D01*
X59904973Y-65905030D01*
X59946845Y-65849097D01*
X59959132Y-65840991D01*
X60027014Y-65801800D01*
X60120200Y-65708614D01*
X60186092Y-65594486D01*
X60220200Y-65467192D01*
X60220200Y-65335408D01*
X60186092Y-65208114D01*
X60120200Y-65093986D01*
X60027014Y-65000800D01*
X59969950Y-64967854D01*
X59912887Y-64934908D01*
X59849239Y-64917854D01*
X59785592Y-64900800D01*
X59681391Y-64900800D01*
X59614352Y-64881115D01*
X59593710Y-64864481D01*
X54965819Y-60236590D01*
X54932334Y-60175267D01*
X54929500Y-60148909D01*
X54929500Y-51705591D01*
X54949185Y-51638552D01*
X55001989Y-51592797D01*
X55071147Y-51582853D01*
X55134703Y-51611878D01*
G37*
%TD.AperFunction*%
%TA.AperFunction,Conductor*%
G36*
X92017603Y-21014011D02*
G01*
X92204942Y-21111534D01*
X92214310Y-21116942D01*
X92542130Y-21325786D01*
X92550991Y-21331991D01*
X92859353Y-21568605D01*
X92867640Y-21575559D01*
X93154204Y-21838146D01*
X93161853Y-21845795D01*
X93424440Y-22132359D01*
X93431394Y-22140646D01*
X93668008Y-22449008D01*
X93674213Y-22457869D01*
X93883057Y-22785689D01*
X93888465Y-22795057D01*
X93985989Y-22982397D01*
X94000000Y-23039654D01*
X94000000Y-66960343D01*
X93985990Y-67017599D01*
X93959560Y-67068371D01*
X93921158Y-67142142D01*
X93888462Y-67204950D01*
X93883052Y-67214319D01*
X93674217Y-67542122D01*
X93668013Y-67550983D01*
X93431393Y-67859352D01*
X93424439Y-67867639D01*
X93161852Y-68154203D01*
X93154203Y-68161852D01*
X92867639Y-68424439D01*
X92859352Y-68431393D01*
X92550983Y-68668013D01*
X92542122Y-68674217D01*
X92214319Y-68883052D01*
X92204951Y-68888461D01*
X92125983Y-68929569D01*
X92017601Y-68985989D01*
X91960345Y-69000000D01*
X23039654Y-69000000D01*
X22982397Y-68985989D01*
X22795057Y-68888465D01*
X22785689Y-68883057D01*
X22457869Y-68674213D01*
X22449008Y-68668008D01*
X22140646Y-68431394D01*
X22132359Y-68424440D01*
X21845795Y-68161853D01*
X21838146Y-68154204D01*
X21575559Y-67867640D01*
X21568605Y-67859353D01*
X21331991Y-67550991D01*
X21325786Y-67542130D01*
X21208252Y-67357639D01*
X21116941Y-67214309D01*
X21111534Y-67204942D01*
X21014011Y-67017601D01*
X21014011Y-67017599D01*
X21000000Y-66960344D01*
X21000000Y-64893713D01*
X23649500Y-64893713D01*
X23649500Y-65106286D01*
X23671529Y-65245375D01*
X23682754Y-65316243D01*
X23745026Y-65507897D01*
X23748444Y-65518414D01*
X23844951Y-65707820D01*
X23969890Y-65879786D01*
X24120213Y-66030109D01*
X24292179Y-66155048D01*
X24292181Y-66155049D01*
X24292184Y-66155051D01*
X24481588Y-66251557D01*
X24683757Y-66317246D01*
X24893713Y-66350500D01*
X24893714Y-66350500D01*
X25106286Y-66350500D01*
X25106287Y-66350500D01*
X25316243Y-66317246D01*
X25518412Y-66251557D01*
X25707816Y-66155051D01*
X25792415Y-66093587D01*
X25879786Y-66030109D01*
X25879788Y-66030106D01*
X25879792Y-66030104D01*
X26030104Y-65879792D01*
X26030106Y-65879788D01*
X26030109Y-65879786D01*
X26155048Y-65707820D01*
X26155047Y-65707820D01*
X26155051Y-65707816D01*
X26251557Y-65518412D01*
X26317246Y-65316243D01*
X26350500Y-65106287D01*
X26350500Y-64893713D01*
X26317246Y-64683757D01*
X26251557Y-64481588D01*
X26155051Y-64292184D01*
X26155049Y-64292181D01*
X26155048Y-64292179D01*
X26030109Y-64120213D01*
X25879786Y-63969890D01*
X25707820Y-63844951D01*
X25518414Y-63748444D01*
X25518413Y-63748443D01*
X25518412Y-63748443D01*
X25316243Y-63682754D01*
X25316241Y-63682753D01*
X25316240Y-63682753D01*
X25154957Y-63657208D01*
X25106287Y-63649500D01*
X24893713Y-63649500D01*
X24845042Y-63657208D01*
X24683760Y-63682753D01*
X24481585Y-63748444D01*
X24292179Y-63844951D01*
X24120213Y-63969890D01*
X23969890Y-64120213D01*
X23844951Y-64292179D01*
X23748444Y-64481585D01*
X23682753Y-64683760D01*
X23649500Y-64893713D01*
X21000000Y-64893713D01*
X21000000Y-49015355D01*
X25781500Y-49015355D01*
X25781500Y-59388544D01*
X25801297Y-59462430D01*
X25811206Y-59479592D01*
X25839542Y-59528671D01*
X25839544Y-59528673D01*
X31448690Y-65137819D01*
X31482175Y-65199142D01*
X31477191Y-65268834D01*
X31435319Y-65324767D01*
X31369855Y-65349184D01*
X31361009Y-65349500D01*
X31130247Y-65349500D01*
X31071770Y-65361131D01*
X31071769Y-65361132D01*
X31005447Y-65405447D01*
X30961132Y-65471769D01*
X30961131Y-65471770D01*
X30949500Y-65530247D01*
X30949500Y-67269752D01*
X30961131Y-67328229D01*
X30961132Y-67328230D01*
X31005447Y-67394552D01*
X31071769Y-67438867D01*
X31071770Y-67438868D01*
X31130247Y-67450499D01*
X31130250Y-67450500D01*
X31130252Y-67450500D01*
X32869750Y-67450500D01*
X32869751Y-67450499D01*
X32884568Y-67447552D01*
X32928229Y-67438868D01*
X32928229Y-67438867D01*
X32928231Y-67438867D01*
X32994552Y-67394552D01*
X33038867Y-67328231D01*
X33038867Y-67328229D01*
X33038868Y-67328229D01*
X33050499Y-67269752D01*
X33050500Y-67269750D01*
X33050500Y-65620691D01*
X33070185Y-65553652D01*
X33122989Y-65507897D01*
X33192147Y-65497953D01*
X33255703Y-65526978D01*
X33262181Y-65533010D01*
X33557066Y-65827895D01*
X33590551Y-65889218D01*
X33585567Y-65958910D01*
X33583946Y-65963029D01*
X33529870Y-66093579D01*
X33529868Y-66093587D01*
X33489500Y-66296530D01*
X33489500Y-66503469D01*
X33529868Y-66706412D01*
X33529870Y-66706420D01*
X33595939Y-66865925D01*
X33609059Y-66897598D01*
X33623180Y-66918731D01*
X33724024Y-67069657D01*
X33870342Y-67215975D01*
X33870345Y-67215977D01*
X34042402Y-67330941D01*
X34233580Y-67410130D01*
X34378052Y-67438867D01*
X34436530Y-67450499D01*
X34436534Y-67450500D01*
X34436535Y-67450500D01*
X34643466Y-67450500D01*
X34643467Y-67450499D01*
X34846420Y-67410130D01*
X35037598Y-67330941D01*
X35209655Y-67215977D01*
X35355977Y-67069655D01*
X35470941Y-66897598D01*
X35550130Y-66706420D01*
X35590500Y-66503465D01*
X35590500Y-66296535D01*
X35590499Y-66296530D01*
X36029500Y-66296530D01*
X36029500Y-66503469D01*
X36069868Y-66706412D01*
X36069870Y-66706420D01*
X36135939Y-66865925D01*
X36149059Y-66897598D01*
X36163180Y-66918731D01*
X36264024Y-67069657D01*
X36410342Y-67215975D01*
X36410345Y-67215977D01*
X36582402Y-67330941D01*
X36773580Y-67410130D01*
X36918052Y-67438867D01*
X36976530Y-67450499D01*
X36976534Y-67450500D01*
X36976535Y-67450500D01*
X37183466Y-67450500D01*
X37183467Y-67450499D01*
X37386420Y-67410130D01*
X37577598Y-67330941D01*
X37749655Y-67215977D01*
X37895977Y-67069655D01*
X38010941Y-66897598D01*
X38090130Y-66706420D01*
X38130500Y-66503465D01*
X38130500Y-66296535D01*
X38130499Y-66296530D01*
X38569500Y-66296530D01*
X38569500Y-66503469D01*
X38609868Y-66706412D01*
X38609870Y-66706420D01*
X38675939Y-66865925D01*
X38689059Y-66897598D01*
X38703180Y-66918731D01*
X38804024Y-67069657D01*
X38950342Y-67215975D01*
X38950345Y-67215977D01*
X39122402Y-67330941D01*
X39313580Y-67410130D01*
X39458052Y-67438867D01*
X39516530Y-67450499D01*
X39516534Y-67450500D01*
X39516535Y-67450500D01*
X39723466Y-67450500D01*
X39723467Y-67450499D01*
X39926420Y-67410130D01*
X40117598Y-67330941D01*
X40289655Y-67215977D01*
X40435977Y-67069655D01*
X40550941Y-66897598D01*
X40630130Y-66706420D01*
X40670500Y-66503465D01*
X40670500Y-66296535D01*
X40630130Y-66093580D01*
X40550941Y-65902402D01*
X40435977Y-65730345D01*
X40435976Y-65730344D01*
X40435975Y-65730342D01*
X40289657Y-65584024D01*
X40191463Y-65518414D01*
X40117598Y-65469059D01*
X40117593Y-65469057D01*
X39926420Y-65389870D01*
X39926412Y-65389868D01*
X39723469Y-65349500D01*
X39723465Y-65349500D01*
X39516535Y-65349500D01*
X39516530Y-65349500D01*
X39313587Y-65389868D01*
X39313579Y-65389870D01*
X39122403Y-65469058D01*
X38950342Y-65584024D01*
X38804024Y-65730342D01*
X38689058Y-65902403D01*
X38609870Y-66093579D01*
X38609868Y-66093587D01*
X38569500Y-66296530D01*
X38130499Y-66296530D01*
X38090130Y-66093580D01*
X38010941Y-65902402D01*
X37895977Y-65730345D01*
X37895976Y-65730344D01*
X37895975Y-65730342D01*
X37749657Y-65584024D01*
X37651463Y-65518414D01*
X37577598Y-65469059D01*
X37577593Y-65469057D01*
X37386420Y-65389870D01*
X37386412Y-65389868D01*
X37183469Y-65349500D01*
X37183465Y-65349500D01*
X36976535Y-65349500D01*
X36976530Y-65349500D01*
X36773587Y-65389868D01*
X36773579Y-65389870D01*
X36582403Y-65469058D01*
X36410342Y-65584024D01*
X36264024Y-65730342D01*
X36149058Y-65902403D01*
X36069870Y-66093579D01*
X36069868Y-66093587D01*
X36029500Y-66296530D01*
X35590499Y-66296530D01*
X35550130Y-66093580D01*
X35470941Y-65902402D01*
X35355977Y-65730345D01*
X35355976Y-65730344D01*
X35355975Y-65730342D01*
X35209657Y-65584024D01*
X35111463Y-65518414D01*
X35037598Y-65469059D01*
X35037593Y-65469057D01*
X34846420Y-65389870D01*
X34846412Y-65389868D01*
X34643469Y-65349500D01*
X34643465Y-65349500D01*
X34436535Y-65349500D01*
X34436530Y-65349500D01*
X34233587Y-65389868D01*
X34233579Y-65389870D01*
X34103029Y-65443946D01*
X34033559Y-65451415D01*
X33971080Y-65420140D01*
X33967895Y-65417066D01*
X27001819Y-58450990D01*
X26968334Y-58389667D01*
X26965500Y-58363309D01*
X26965500Y-53447976D01*
X26985185Y-53380937D01*
X27001819Y-53360295D01*
X27036562Y-53325552D01*
X27075500Y-53286614D01*
X27141392Y-53172486D01*
X27175500Y-53045192D01*
X27175500Y-52913408D01*
X27141392Y-52786114D01*
X27075500Y-52671986D01*
X26982314Y-52578800D01*
X26925250Y-52545854D01*
X26868187Y-52512908D01*
X26804539Y-52495854D01*
X26740892Y-52478800D01*
X26609108Y-52478800D01*
X26518593Y-52503053D01*
X26448743Y-52501390D01*
X26390881Y-52462227D01*
X26363377Y-52397998D01*
X26362500Y-52383278D01*
X26362500Y-49225290D01*
X26382185Y-49158251D01*
X26398815Y-49137613D01*
X27274309Y-48262118D01*
X27335632Y-48228634D01*
X27361990Y-48225800D01*
X27466190Y-48225800D01*
X27466192Y-48225800D01*
X27593486Y-48191692D01*
X27707614Y-48125800D01*
X27800800Y-48032614D01*
X27866692Y-47918486D01*
X27900800Y-47791192D01*
X27900800Y-47659408D01*
X27866692Y-47532114D01*
X27800800Y-47417986D01*
X27707614Y-47324800D01*
X27634030Y-47282316D01*
X27593487Y-47258908D01*
X27529839Y-47241854D01*
X27466192Y-47224800D01*
X27334408Y-47224800D01*
X27207112Y-47258908D01*
X27092986Y-47324800D01*
X27092983Y-47324802D01*
X26999802Y-47417983D01*
X26999800Y-47417986D01*
X26933908Y-47532112D01*
X26899800Y-47659408D01*
X26899800Y-47763608D01*
X26880115Y-47830647D01*
X26863481Y-47851289D01*
X25893629Y-48821142D01*
X25839544Y-48875226D01*
X25839542Y-48875229D01*
X25801297Y-48941469D01*
X25781500Y-49015355D01*
X21000000Y-49015355D01*
X21000000Y-24893713D01*
X23649500Y-24893713D01*
X23649500Y-25106287D01*
X23682754Y-25316243D01*
X23747070Y-25514187D01*
X23748444Y-25518414D01*
X23844951Y-25707820D01*
X23969890Y-25879786D01*
X24120213Y-26030109D01*
X24292179Y-26155048D01*
X24292181Y-26155049D01*
X24292184Y-26155051D01*
X24481588Y-26251557D01*
X24683757Y-26317246D01*
X24893713Y-26350500D01*
X24893714Y-26350500D01*
X25106286Y-26350500D01*
X25106287Y-26350500D01*
X25316243Y-26317246D01*
X25518412Y-26251557D01*
X25707816Y-26155051D01*
X25774630Y-26106508D01*
X25879786Y-26030109D01*
X25879788Y-26030106D01*
X25879792Y-26030104D01*
X26030104Y-25879792D01*
X26030106Y-25879788D01*
X26030109Y-25879786D01*
X26155048Y-25707820D01*
X26155047Y-25707820D01*
X26155051Y-25707816D01*
X26251557Y-25518412D01*
X26317246Y-25316243D01*
X26350500Y-25106287D01*
X26350500Y-24893713D01*
X26317246Y-24683757D01*
X26251557Y-24481588D01*
X26155051Y-24292184D01*
X26155049Y-24292181D01*
X26155048Y-24292179D01*
X26030109Y-24120213D01*
X25879786Y-23969890D01*
X25707820Y-23844951D01*
X25518414Y-23748444D01*
X25518413Y-23748443D01*
X25518412Y-23748443D01*
X25316243Y-23682754D01*
X25316241Y-23682753D01*
X25316240Y-23682753D01*
X25154957Y-23657208D01*
X25106287Y-23649500D01*
X24893713Y-23649500D01*
X24845042Y-23657208D01*
X24683760Y-23682753D01*
X24481585Y-23748444D01*
X24292179Y-23844951D01*
X24120213Y-23969890D01*
X23969890Y-24120213D01*
X23844951Y-24292179D01*
X23748444Y-24481585D01*
X23682753Y-24683760D01*
X23661096Y-24820500D01*
X23649500Y-24893713D01*
X21000000Y-24893713D01*
X21000000Y-23406379D01*
X28549500Y-23406379D01*
X28549500Y-23593620D01*
X28586025Y-23777243D01*
X28586027Y-23777251D01*
X28657676Y-23950228D01*
X28657681Y-23950237D01*
X28761697Y-24105907D01*
X28761700Y-24105911D01*
X28894088Y-24238299D01*
X28894092Y-24238302D01*
X29049762Y-24342318D01*
X29049771Y-24342323D01*
X29132953Y-24376778D01*
X29187356Y-24420619D01*
X29209421Y-24486913D01*
X29209500Y-24491339D01*
X29209500Y-26929044D01*
X29229297Y-27002930D01*
X29248419Y-27036050D01*
X29267542Y-27069171D01*
X29267544Y-27069173D01*
X30146081Y-27947710D01*
X30179566Y-28009033D01*
X30182400Y-28035391D01*
X30182400Y-28139592D01*
X30191754Y-28174502D01*
X30216508Y-28266887D01*
X30249454Y-28323950D01*
X30282400Y-28381014D01*
X30375586Y-28474200D01*
X30375587Y-28474201D01*
X30375589Y-28474202D01*
X30430320Y-28505801D01*
X30478536Y-28556368D01*
X30491758Y-28624975D01*
X30465790Y-28689840D01*
X30461916Y-28694205D01*
X30459442Y-28697429D01*
X30421197Y-28763669D01*
X30401400Y-28837555D01*
X30401400Y-54970144D01*
X30421197Y-55044030D01*
X30440319Y-55077150D01*
X30459442Y-55110271D01*
X30459444Y-55110273D01*
X41177066Y-65827895D01*
X41210551Y-65889218D01*
X41205567Y-65958910D01*
X41203946Y-65963029D01*
X41149870Y-66093579D01*
X41149868Y-66093587D01*
X41109500Y-66296530D01*
X41109500Y-66503469D01*
X41149868Y-66706412D01*
X41149870Y-66706420D01*
X41215939Y-66865925D01*
X41229059Y-66897598D01*
X41243180Y-66918731D01*
X41344024Y-67069657D01*
X41490342Y-67215975D01*
X41490345Y-67215977D01*
X41662402Y-67330941D01*
X41853580Y-67410130D01*
X41998052Y-67438867D01*
X42056530Y-67450499D01*
X42056534Y-67450500D01*
X42056535Y-67450500D01*
X42263466Y-67450500D01*
X42263467Y-67450499D01*
X42466420Y-67410130D01*
X42657598Y-67330941D01*
X42829655Y-67215977D01*
X42975977Y-67069655D01*
X43090941Y-66897598D01*
X43170130Y-66706420D01*
X43210500Y-66503465D01*
X43210500Y-66296535D01*
X43170130Y-66093580D01*
X43090941Y-65902402D01*
X42975977Y-65730345D01*
X42975976Y-65730344D01*
X42975975Y-65730342D01*
X42829657Y-65584024D01*
X42731463Y-65518414D01*
X42657598Y-65469059D01*
X42657593Y-65469057D01*
X42466420Y-65389870D01*
X42466412Y-65389868D01*
X42263469Y-65349500D01*
X42263465Y-65349500D01*
X42056535Y-65349500D01*
X42056530Y-65349500D01*
X41853587Y-65389868D01*
X41853579Y-65389870D01*
X41723029Y-65443946D01*
X41653559Y-65451415D01*
X41591080Y-65420140D01*
X41587895Y-65417066D01*
X31018719Y-54847890D01*
X30985234Y-54786567D01*
X30982400Y-54760209D01*
X30982400Y-53392591D01*
X31002085Y-53325552D01*
X31054889Y-53279797D01*
X31124047Y-53269853D01*
X31187603Y-53298878D01*
X31194081Y-53304910D01*
X43717066Y-65827895D01*
X43750551Y-65889218D01*
X43745567Y-65958910D01*
X43743946Y-65963029D01*
X43689870Y-66093579D01*
X43689868Y-66093587D01*
X43649500Y-66296530D01*
X43649500Y-66503469D01*
X43689868Y-66706412D01*
X43689870Y-66706420D01*
X43755939Y-66865925D01*
X43769059Y-66897598D01*
X43783180Y-66918731D01*
X43884024Y-67069657D01*
X44030342Y-67215975D01*
X44030345Y-67215977D01*
X44202402Y-67330941D01*
X44393580Y-67410130D01*
X44538052Y-67438867D01*
X44596530Y-67450499D01*
X44596534Y-67450500D01*
X44596535Y-67450500D01*
X44803466Y-67450500D01*
X44803467Y-67450499D01*
X45006420Y-67410130D01*
X45197598Y-67330941D01*
X45369655Y-67215977D01*
X45515977Y-67069655D01*
X45630941Y-66897598D01*
X45710130Y-66706420D01*
X45750500Y-66503465D01*
X45750500Y-66296535D01*
X45710130Y-66093580D01*
X45630941Y-65902402D01*
X45515977Y-65730345D01*
X45515976Y-65730344D01*
X45515975Y-65730342D01*
X45369657Y-65584024D01*
X45271463Y-65518414D01*
X45197598Y-65469059D01*
X45197593Y-65469057D01*
X45006420Y-65389870D01*
X45006412Y-65389868D01*
X44803469Y-65349500D01*
X44803465Y-65349500D01*
X44596535Y-65349500D01*
X44596530Y-65349500D01*
X44393587Y-65389868D01*
X44393579Y-65389870D01*
X44263029Y-65443946D01*
X44193559Y-65451415D01*
X44131080Y-65420140D01*
X44127895Y-65417066D01*
X31413919Y-52703090D01*
X31380434Y-52641767D01*
X31377600Y-52615409D01*
X31377600Y-51247791D01*
X31397285Y-51180752D01*
X31450089Y-51134997D01*
X31519247Y-51125053D01*
X31582803Y-51154078D01*
X31589281Y-51160110D01*
X46257066Y-65827895D01*
X46290551Y-65889218D01*
X46285567Y-65958910D01*
X46283946Y-65963029D01*
X46229870Y-66093579D01*
X46229868Y-66093587D01*
X46189500Y-66296530D01*
X46189500Y-66503469D01*
X46229868Y-66706412D01*
X46229870Y-66706420D01*
X46295939Y-66865925D01*
X46309059Y-66897598D01*
X46323180Y-66918731D01*
X46424024Y-67069657D01*
X46570342Y-67215975D01*
X46570345Y-67215977D01*
X46742402Y-67330941D01*
X46933580Y-67410130D01*
X47078052Y-67438867D01*
X47136530Y-67450499D01*
X47136534Y-67450500D01*
X47136535Y-67450500D01*
X47343466Y-67450500D01*
X47343467Y-67450499D01*
X47546420Y-67410130D01*
X47737598Y-67330941D01*
X47909655Y-67215977D01*
X48055977Y-67069655D01*
X48170941Y-66897598D01*
X48250130Y-66706420D01*
X48290500Y-66503465D01*
X48290500Y-66296535D01*
X48250130Y-66093580D01*
X48170941Y-65902402D01*
X48055977Y-65730345D01*
X48055976Y-65730344D01*
X48055975Y-65730342D01*
X47909657Y-65584024D01*
X47811463Y-65518414D01*
X47737598Y-65469059D01*
X47737593Y-65469057D01*
X47546420Y-65389870D01*
X47546412Y-65389868D01*
X47343469Y-65349500D01*
X47343465Y-65349500D01*
X47136535Y-65349500D01*
X47136530Y-65349500D01*
X46933587Y-65389868D01*
X46933579Y-65389870D01*
X46803029Y-65443946D01*
X46733559Y-65451415D01*
X46671080Y-65420140D01*
X46667895Y-65417066D01*
X31813019Y-50562190D01*
X31779534Y-50500867D01*
X31776700Y-50474509D01*
X31776700Y-38955517D01*
X31796385Y-38888478D01*
X31849189Y-38842723D01*
X31915158Y-38832363D01*
X31924096Y-38833412D01*
X32011008Y-38856700D01*
X32122461Y-38856700D01*
X32129667Y-38857546D01*
X32155407Y-38868503D01*
X32182248Y-38876385D01*
X32191573Y-38883899D01*
X32193954Y-38884913D01*
X32195315Y-38886915D01*
X32202890Y-38893019D01*
X49453181Y-56143310D01*
X49486666Y-56204633D01*
X49489500Y-56230991D01*
X49489500Y-65300421D01*
X49469815Y-65367460D01*
X49417011Y-65413215D01*
X49412953Y-65414982D01*
X49282404Y-65469057D01*
X49110342Y-65584024D01*
X48964024Y-65730342D01*
X48849058Y-65902403D01*
X48769870Y-66093579D01*
X48769868Y-66093587D01*
X48729500Y-66296530D01*
X48729500Y-66503469D01*
X48769868Y-66706412D01*
X48769870Y-66706420D01*
X48835939Y-66865925D01*
X48849059Y-66897598D01*
X48863180Y-66918731D01*
X48964024Y-67069657D01*
X49110342Y-67215975D01*
X49110345Y-67215977D01*
X49282402Y-67330941D01*
X49473580Y-67410130D01*
X49618052Y-67438867D01*
X49676530Y-67450499D01*
X49676534Y-67450500D01*
X49676535Y-67450500D01*
X49883466Y-67450500D01*
X49883467Y-67450499D01*
X50086420Y-67410130D01*
X50277598Y-67330941D01*
X50449655Y-67215977D01*
X50595977Y-67069655D01*
X50710941Y-66897598D01*
X50790130Y-66706420D01*
X50830500Y-66503465D01*
X50830500Y-66296535D01*
X50790130Y-66093580D01*
X50710941Y-65902402D01*
X50595977Y-65730345D01*
X50595976Y-65730344D01*
X50595975Y-65730342D01*
X50449657Y-65584024D01*
X50277595Y-65469057D01*
X50147047Y-65414982D01*
X50092643Y-65371140D01*
X50070579Y-65304846D01*
X50070500Y-65300421D01*
X50070500Y-56021057D01*
X50070500Y-56021055D01*
X50050703Y-55947171D01*
X50012458Y-55880929D01*
X49958371Y-55826842D01*
X32613719Y-38482190D01*
X32580234Y-38420867D01*
X32577400Y-38394509D01*
X32577400Y-38290310D01*
X32577400Y-38290308D01*
X32543292Y-38163014D01*
X32477400Y-38048886D01*
X32384214Y-37955700D01*
X32289454Y-37900990D01*
X32270087Y-37889808D01*
X32206439Y-37872754D01*
X32142792Y-37855700D01*
X32011008Y-37855700D01*
X32011006Y-37855700D01*
X31932792Y-37876657D01*
X31862942Y-37874994D01*
X31805080Y-37835830D01*
X31777577Y-37771602D01*
X31776700Y-37756882D01*
X31776700Y-36268590D01*
X31796385Y-36201551D01*
X31813015Y-36180913D01*
X32157109Y-35836818D01*
X32218432Y-35803334D01*
X32244790Y-35800500D01*
X32348990Y-35800500D01*
X32348992Y-35800500D01*
X32476286Y-35766392D01*
X32590414Y-35700500D01*
X32683600Y-35607314D01*
X32749492Y-35493186D01*
X32783600Y-35365892D01*
X32783600Y-35234108D01*
X32749492Y-35106814D01*
X32683600Y-34992686D01*
X32590414Y-34899500D01*
X32498169Y-34846242D01*
X32476287Y-34833608D01*
X32412639Y-34816554D01*
X32348992Y-34799500D01*
X32217208Y-34799500D01*
X32089912Y-34833608D01*
X31975786Y-34899500D01*
X31975783Y-34899502D01*
X31882602Y-34992683D01*
X31882600Y-34992686D01*
X31816708Y-35106812D01*
X31782600Y-35234108D01*
X31782600Y-35338308D01*
X31773955Y-35367748D01*
X31767432Y-35397735D01*
X31763677Y-35402750D01*
X31762915Y-35405347D01*
X31746281Y-35425989D01*
X31589281Y-35582989D01*
X31527958Y-35616474D01*
X31458266Y-35611490D01*
X31402333Y-35569618D01*
X31377916Y-35504154D01*
X31377600Y-35495308D01*
X31377600Y-34419690D01*
X31397285Y-34352651D01*
X31413914Y-34332014D01*
X33049009Y-32696918D01*
X33110332Y-32663434D01*
X33136690Y-32660600D01*
X33240890Y-32660600D01*
X33240892Y-32660600D01*
X33368186Y-32626492D01*
X33482314Y-32560600D01*
X33575500Y-32467414D01*
X33641392Y-32353286D01*
X33675500Y-32225992D01*
X33675500Y-32094208D01*
X33641392Y-31966914D01*
X33575500Y-31852786D01*
X33482314Y-31759600D01*
X33425250Y-31726654D01*
X33368187Y-31693708D01*
X33304539Y-31676654D01*
X33240892Y-31659600D01*
X33109108Y-31659600D01*
X32981812Y-31693708D01*
X32867686Y-31759600D01*
X32867683Y-31759602D01*
X32774502Y-31852783D01*
X32774500Y-31852786D01*
X32708608Y-31966912D01*
X32674500Y-32094208D01*
X32674500Y-32198408D01*
X32654815Y-32265447D01*
X32638181Y-32286089D01*
X31194081Y-33730189D01*
X31132758Y-33763674D01*
X31063066Y-33758690D01*
X31007133Y-33716818D01*
X30982716Y-33651354D01*
X30982400Y-33642508D01*
X30982400Y-29047490D01*
X31002085Y-28980451D01*
X31018714Y-28959813D01*
X32160209Y-27818318D01*
X32221532Y-27784834D01*
X32247890Y-27782000D01*
X32352090Y-27782000D01*
X32352092Y-27782000D01*
X32479386Y-27747892D01*
X32593514Y-27682000D01*
X32686700Y-27588814D01*
X32752592Y-27474686D01*
X32786700Y-27347392D01*
X32786700Y-27215608D01*
X32752592Y-27088314D01*
X32686700Y-26974186D01*
X32593514Y-26881000D01*
X32528739Y-26843602D01*
X32479387Y-26815108D01*
X32415739Y-26798054D01*
X32352092Y-26781000D01*
X32220308Y-26781000D01*
X32093012Y-26815108D01*
X31978886Y-26881000D01*
X31978883Y-26881002D01*
X31885702Y-26974183D01*
X31885700Y-26974186D01*
X31819808Y-27088312D01*
X31785700Y-27215608D01*
X31785700Y-27319808D01*
X31766015Y-27386847D01*
X31749381Y-27407489D01*
X31310068Y-27846801D01*
X31248745Y-27880286D01*
X31179053Y-27875302D01*
X31123120Y-27833430D01*
X31115008Y-27821133D01*
X31083400Y-27766386D01*
X30990214Y-27673200D01*
X30933150Y-27640254D01*
X30876087Y-27607308D01*
X30807061Y-27588813D01*
X30748792Y-27573200D01*
X30644591Y-27573200D01*
X30577552Y-27553515D01*
X30556910Y-27536881D01*
X29826819Y-26806790D01*
X29793334Y-26745467D01*
X29790500Y-26719109D01*
X29790500Y-24491339D01*
X29810185Y-24424300D01*
X29862989Y-24378545D01*
X29867047Y-24376778D01*
X29878466Y-24372048D01*
X29950231Y-24342322D01*
X30105908Y-24238302D01*
X30238302Y-24105908D01*
X30342322Y-23950231D01*
X30413973Y-23777251D01*
X30450500Y-23593616D01*
X30450500Y-23406384D01*
X30450499Y-23406379D01*
X34049500Y-23406379D01*
X34049500Y-23593620D01*
X34086025Y-23777243D01*
X34086027Y-23777251D01*
X34157676Y-23950228D01*
X34157681Y-23950237D01*
X34261697Y-24105907D01*
X34261700Y-24105911D01*
X34394088Y-24238299D01*
X34394092Y-24238302D01*
X34549762Y-24342318D01*
X34549768Y-24342321D01*
X34549769Y-24342322D01*
X34722749Y-24413973D01*
X34906379Y-24450499D01*
X34906383Y-24450500D01*
X34906384Y-24450500D01*
X35093617Y-24450500D01*
X35093618Y-24450499D01*
X35277251Y-24413973D01*
X35360434Y-24379516D01*
X35429903Y-24372048D01*
X35492383Y-24403323D01*
X35495568Y-24406397D01*
X49005005Y-37915834D01*
X49038490Y-37977157D01*
X49033506Y-38046849D01*
X48991634Y-38102782D01*
X48949418Y-38123290D01*
X48899712Y-38136608D01*
X48785586Y-38202500D01*
X48711904Y-38276182D01*
X48650580Y-38309666D01*
X48624223Y-38312500D01*
X47241191Y-38312500D01*
X47174152Y-38292815D01*
X47153510Y-38276181D01*
X38465319Y-29587990D01*
X38431834Y-29526667D01*
X38429000Y-29500309D01*
X38429000Y-29396110D01*
X38429000Y-29396108D01*
X38394892Y-29268814D01*
X38329000Y-29154686D01*
X38235814Y-29061500D01*
X38163498Y-29019748D01*
X38121687Y-28995608D01*
X38046630Y-28975497D01*
X37994392Y-28961500D01*
X37862608Y-28961500D01*
X37735312Y-28995608D01*
X37621186Y-29061500D01*
X37621183Y-29061502D01*
X37528002Y-29154683D01*
X37528000Y-29154686D01*
X37493031Y-29215254D01*
X37442463Y-29263469D01*
X37373856Y-29276691D01*
X37308992Y-29250723D01*
X37297963Y-29240934D01*
X36758019Y-28700990D01*
X36724534Y-28639667D01*
X36721700Y-28613309D01*
X36721700Y-28509110D01*
X36721700Y-28509108D01*
X36687592Y-28381814D01*
X36621700Y-28267686D01*
X36528514Y-28174500D01*
X36468050Y-28139591D01*
X36414387Y-28108608D01*
X36350739Y-28091554D01*
X36287092Y-28074500D01*
X36155308Y-28074500D01*
X36028012Y-28108608D01*
X35913886Y-28174500D01*
X35913883Y-28174502D01*
X35820702Y-28267683D01*
X35820700Y-28267686D01*
X35754808Y-28381812D01*
X35733907Y-28459818D01*
X35720700Y-28509108D01*
X35720700Y-28640892D01*
X35734985Y-28694205D01*
X35754808Y-28768187D01*
X35777087Y-28806775D01*
X35820700Y-28882314D01*
X35913886Y-28975500D01*
X36028014Y-29041392D01*
X36155308Y-29075500D01*
X36155310Y-29075500D01*
X36259509Y-29075500D01*
X36326548Y-29095185D01*
X36347190Y-29111819D01*
X47459242Y-40223871D01*
X47513329Y-40277958D01*
X47579571Y-40316203D01*
X47653455Y-40336000D01*
X50584023Y-40336000D01*
X50651062Y-40355685D01*
X50671704Y-40372318D01*
X50745386Y-40446000D01*
X50859514Y-40511892D01*
X50986808Y-40546000D01*
X50986810Y-40546000D01*
X51118590Y-40546000D01*
X51118592Y-40546000D01*
X51245886Y-40511892D01*
X51317205Y-40470715D01*
X51385104Y-40454243D01*
X51451132Y-40477095D01*
X51494322Y-40532016D01*
X51500964Y-40601569D01*
X51468948Y-40663672D01*
X51466886Y-40665784D01*
X47199429Y-44933242D01*
X47145344Y-44987326D01*
X47145342Y-44987329D01*
X47107097Y-45053569D01*
X47087300Y-45127455D01*
X47087300Y-47483823D01*
X47067615Y-47550862D01*
X47050982Y-47571504D01*
X46977300Y-47645186D01*
X46911408Y-47759312D01*
X46877300Y-47886608D01*
X46877300Y-48018392D01*
X46881111Y-48032614D01*
X46911408Y-48145687D01*
X46937969Y-48191691D01*
X46977300Y-48259814D01*
X47070486Y-48353000D01*
X47184614Y-48418892D01*
X47311908Y-48453000D01*
X47311910Y-48453000D01*
X47443690Y-48453000D01*
X47443692Y-48453000D01*
X47570986Y-48418892D01*
X47685114Y-48353000D01*
X47778300Y-48259814D01*
X47844192Y-48145686D01*
X47878300Y-48018392D01*
X47878300Y-47886608D01*
X47844192Y-47759314D01*
X47778300Y-47645186D01*
X47704618Y-47571504D01*
X47671134Y-47510180D01*
X47668300Y-47483823D01*
X47668300Y-45337390D01*
X47687985Y-45270351D01*
X47704614Y-45249714D01*
X52002595Y-40951732D01*
X52063916Y-40918249D01*
X52133608Y-40923233D01*
X52189541Y-40965105D01*
X52213958Y-41030569D01*
X52213516Y-41053107D01*
X52212479Y-41062438D01*
X52191400Y-41141108D01*
X52191400Y-41252177D01*
X52190642Y-41259000D01*
X52179700Y-41285153D01*
X52171715Y-41312347D01*
X52164659Y-41321102D01*
X52163675Y-41323456D01*
X52161624Y-41324869D01*
X52155081Y-41332989D01*
X49210329Y-44277742D01*
X49156244Y-44331826D01*
X49156242Y-44331829D01*
X49117997Y-44398069D01*
X49098200Y-44471955D01*
X49098200Y-52306323D01*
X49078515Y-52373362D01*
X49061882Y-52394004D01*
X48988200Y-52467686D01*
X48922308Y-52581812D01*
X48888200Y-52709108D01*
X48888200Y-52840891D01*
X48922308Y-52968187D01*
X48955254Y-53025250D01*
X48988200Y-53082314D01*
X49081386Y-53175500D01*
X49195514Y-53241392D01*
X49322808Y-53275500D01*
X49322810Y-53275500D01*
X49454590Y-53275500D01*
X49454592Y-53275500D01*
X49581886Y-53241392D01*
X49696014Y-53175500D01*
X49789200Y-53082314D01*
X49855092Y-52968186D01*
X49889200Y-52840892D01*
X49889200Y-52709108D01*
X49855092Y-52581814D01*
X49789200Y-52467686D01*
X49715518Y-52394004D01*
X49682034Y-52332680D01*
X49679200Y-52306323D01*
X49679200Y-44681890D01*
X49698885Y-44614851D01*
X49715514Y-44594214D01*
X52565909Y-41743818D01*
X52586836Y-41732391D01*
X52605294Y-41717292D01*
X52619920Y-41714326D01*
X52627232Y-41710334D01*
X52639427Y-41708312D01*
X52646490Y-41707500D01*
X52757792Y-41707500D01*
X52841445Y-41685085D01*
X52850537Y-41684040D01*
X52876307Y-41688493D01*
X52902456Y-41689116D01*
X52910186Y-41694348D01*
X52919386Y-41695938D01*
X52938658Y-41713617D01*
X52960319Y-41728278D01*
X52963994Y-41736860D01*
X52970872Y-41743170D01*
X52977526Y-41768461D01*
X52987823Y-41792507D01*
X52988700Y-41807228D01*
X52988700Y-60430044D01*
X53008497Y-60503930D01*
X53027619Y-60537050D01*
X53046742Y-60570171D01*
X60942342Y-68465771D01*
X60996429Y-68519858D01*
X61062671Y-68558103D01*
X61136555Y-68577900D01*
X61136557Y-68577900D01*
X72850843Y-68577900D01*
X72850845Y-68577900D01*
X72924729Y-68558103D01*
X72990971Y-68519858D01*
X74127896Y-67382931D01*
X74189217Y-67349448D01*
X74258908Y-67354432D01*
X74263015Y-67356048D01*
X74393580Y-67410130D01*
X74538052Y-67438867D01*
X74596530Y-67450499D01*
X74596534Y-67450500D01*
X74596535Y-67450500D01*
X74803466Y-67450500D01*
X74803467Y-67450499D01*
X75006420Y-67410130D01*
X75197598Y-67330941D01*
X75369655Y-67215977D01*
X75515977Y-67069655D01*
X75630941Y-66897598D01*
X75710130Y-66706420D01*
X75750500Y-66503465D01*
X75750500Y-66296535D01*
X75710130Y-66093580D01*
X75630941Y-65902402D01*
X75533178Y-65756089D01*
X75512302Y-65689413D01*
X75530787Y-65622033D01*
X75582766Y-65575343D01*
X75636282Y-65563200D01*
X76303718Y-65563200D01*
X76370757Y-65582885D01*
X76416512Y-65635689D01*
X76426456Y-65704847D01*
X76406821Y-65756090D01*
X76309058Y-65902403D01*
X76229870Y-66093579D01*
X76229868Y-66093587D01*
X76189500Y-66296530D01*
X76189500Y-66503469D01*
X76229868Y-66706412D01*
X76229870Y-66706420D01*
X76295939Y-66865925D01*
X76309059Y-66897598D01*
X76323180Y-66918731D01*
X76424024Y-67069657D01*
X76570342Y-67215975D01*
X76570345Y-67215977D01*
X76742402Y-67330941D01*
X76933580Y-67410130D01*
X77078052Y-67438867D01*
X77136530Y-67450499D01*
X77136534Y-67450500D01*
X77136535Y-67450500D01*
X77343466Y-67450500D01*
X77343467Y-67450499D01*
X77546420Y-67410130D01*
X77737598Y-67330941D01*
X77909655Y-67215977D01*
X78055977Y-67069655D01*
X78170941Y-66897598D01*
X78250130Y-66706420D01*
X78290500Y-66503465D01*
X78290500Y-66296535D01*
X78250130Y-66093580D01*
X78170941Y-65902402D01*
X78073178Y-65756089D01*
X78052302Y-65689413D01*
X78070787Y-65622033D01*
X78122766Y-65575343D01*
X78176282Y-65563200D01*
X78843718Y-65563200D01*
X78910757Y-65582885D01*
X78956512Y-65635689D01*
X78966456Y-65704847D01*
X78946821Y-65756090D01*
X78849058Y-65902403D01*
X78769870Y-66093579D01*
X78769868Y-66093587D01*
X78729500Y-66296530D01*
X78729500Y-66503469D01*
X78769868Y-66706412D01*
X78769870Y-66706420D01*
X78835939Y-66865925D01*
X78849059Y-66897598D01*
X78863180Y-66918731D01*
X78964024Y-67069657D01*
X79110342Y-67215975D01*
X79110345Y-67215977D01*
X79282402Y-67330941D01*
X79473580Y-67410130D01*
X79618052Y-67438867D01*
X79676530Y-67450499D01*
X79676534Y-67450500D01*
X79676535Y-67450500D01*
X79883466Y-67450500D01*
X79883467Y-67450499D01*
X80086420Y-67410130D01*
X80216973Y-67356052D01*
X80286439Y-67348584D01*
X80348918Y-67379858D01*
X80352104Y-67382933D01*
X80730542Y-67761371D01*
X80784629Y-67815458D01*
X80850871Y-67853703D01*
X80924755Y-67873500D01*
X80924757Y-67873500D01*
X85361543Y-67873500D01*
X85361545Y-67873500D01*
X85435429Y-67853703D01*
X85501671Y-67815458D01*
X86248758Y-67068371D01*
X86287003Y-67002129D01*
X86306800Y-66928245D01*
X86306800Y-66851755D01*
X86306800Y-64893713D01*
X88649500Y-64893713D01*
X88649500Y-65106286D01*
X88671529Y-65245375D01*
X88682754Y-65316243D01*
X88745026Y-65507897D01*
X88748444Y-65518414D01*
X88844951Y-65707820D01*
X88969890Y-65879786D01*
X89120213Y-66030109D01*
X89292179Y-66155048D01*
X89292181Y-66155049D01*
X89292184Y-66155051D01*
X89481588Y-66251557D01*
X89683757Y-66317246D01*
X89893713Y-66350500D01*
X89893714Y-66350500D01*
X90106286Y-66350500D01*
X90106287Y-66350500D01*
X90316243Y-66317246D01*
X90518412Y-66251557D01*
X90707816Y-66155051D01*
X90792415Y-66093587D01*
X90879786Y-66030109D01*
X90879788Y-66030106D01*
X90879792Y-66030104D01*
X91030104Y-65879792D01*
X91030106Y-65879788D01*
X91030109Y-65879786D01*
X91155048Y-65707820D01*
X91155047Y-65707820D01*
X91155051Y-65707816D01*
X91251557Y-65518412D01*
X91317246Y-65316243D01*
X91350500Y-65106287D01*
X91350500Y-64893713D01*
X91317246Y-64683757D01*
X91251557Y-64481588D01*
X91155051Y-64292184D01*
X91155049Y-64292181D01*
X91155048Y-64292179D01*
X91030109Y-64120213D01*
X90879786Y-63969890D01*
X90707820Y-63844951D01*
X90518414Y-63748444D01*
X90518413Y-63748443D01*
X90518412Y-63748443D01*
X90316243Y-63682754D01*
X90316241Y-63682753D01*
X90316240Y-63682753D01*
X90154957Y-63657208D01*
X90106287Y-63649500D01*
X89893713Y-63649500D01*
X89845042Y-63657208D01*
X89683760Y-63682753D01*
X89481585Y-63748444D01*
X89292179Y-63844951D01*
X89120213Y-63969890D01*
X88969890Y-64120213D01*
X88844951Y-64292179D01*
X88748444Y-64481585D01*
X88682753Y-64683760D01*
X88649500Y-64893713D01*
X86306800Y-64893713D01*
X86306800Y-40153055D01*
X86287003Y-40079171D01*
X86248758Y-40012929D01*
X86194671Y-39958842D01*
X82101319Y-35865490D01*
X82067834Y-35804167D01*
X82065000Y-35777809D01*
X82065000Y-35673610D01*
X82065000Y-35673608D01*
X82030892Y-35546314D01*
X81965000Y-35432186D01*
X81871814Y-35339000D01*
X81814258Y-35305770D01*
X81757687Y-35273108D01*
X81679592Y-35252183D01*
X81630392Y-35239000D01*
X81498608Y-35239000D01*
X81371312Y-35273108D01*
X81257186Y-35339000D01*
X81257183Y-35339002D01*
X81211581Y-35384605D01*
X81150258Y-35418090D01*
X81080566Y-35413106D01*
X81024633Y-35371234D01*
X81000216Y-35305770D01*
X80999900Y-35296924D01*
X80999900Y-31463090D01*
X81019585Y-31396051D01*
X81036214Y-31375414D01*
X82063784Y-30347844D01*
X83250000Y-30347844D01*
X83256401Y-30407372D01*
X83256403Y-30407379D01*
X83306645Y-30542086D01*
X83306649Y-30542093D01*
X83392809Y-30657187D01*
X83392812Y-30657190D01*
X83507906Y-30743350D01*
X83507913Y-30743354D01*
X83642620Y-30793596D01*
X83642627Y-30793598D01*
X83702155Y-30799999D01*
X83702172Y-30800000D01*
X84250000Y-30800000D01*
X84750000Y-30800000D01*
X85297828Y-30800000D01*
X85297844Y-30799999D01*
X85357372Y-30793598D01*
X85357379Y-30793596D01*
X85492086Y-30743354D01*
X85492093Y-30743350D01*
X85607187Y-30657190D01*
X85607190Y-30657187D01*
X85693350Y-30542093D01*
X85693354Y-30542086D01*
X85743596Y-30407379D01*
X85743598Y-30407372D01*
X85749999Y-30347844D01*
X85750000Y-30347827D01*
X85750000Y-30050000D01*
X84750000Y-30050000D01*
X84750000Y-30800000D01*
X84250000Y-30800000D01*
X84250000Y-30050000D01*
X83250000Y-30050000D01*
X83250000Y-30347844D01*
X82063784Y-30347844D01*
X83038321Y-29373307D01*
X83099642Y-29339824D01*
X83169334Y-29344808D01*
X83225267Y-29386680D01*
X83249684Y-29452144D01*
X83250000Y-29460990D01*
X83250000Y-29550000D01*
X85750000Y-29550000D01*
X85750000Y-29252172D01*
X85749999Y-29252155D01*
X85743598Y-29192627D01*
X85743596Y-29192620D01*
X85693354Y-29057913D01*
X85693350Y-29057906D01*
X85607190Y-28942812D01*
X85500188Y-28862709D01*
X85458318Y-28806775D01*
X85450500Y-28763443D01*
X85450500Y-27980249D01*
X85450499Y-27980247D01*
X85438868Y-27921770D01*
X85438867Y-27921768D01*
X85436945Y-27918892D01*
X85434681Y-27911664D01*
X85434194Y-27910487D01*
X85434299Y-27910443D01*
X85416066Y-27852215D01*
X85434550Y-27784835D01*
X85436945Y-27781108D01*
X85438867Y-27778231D01*
X85438868Y-27778229D01*
X85450133Y-27721593D01*
X85450500Y-27719748D01*
X85450500Y-26680252D01*
X85450500Y-26680249D01*
X85450499Y-26680247D01*
X85438868Y-26621770D01*
X85438867Y-26621769D01*
X85394552Y-26555447D01*
X85328230Y-26511132D01*
X85328229Y-26511131D01*
X85269752Y-26499500D01*
X85269748Y-26499500D01*
X83730252Y-26499500D01*
X83730247Y-26499500D01*
X83671770Y-26511131D01*
X83671769Y-26511132D01*
X83605447Y-26555447D01*
X83561132Y-26621769D01*
X83561131Y-26621770D01*
X83549500Y-26680247D01*
X83549500Y-26802148D01*
X83529815Y-26869187D01*
X83477011Y-26914942D01*
X83470044Y-26917871D01*
X83452822Y-26924500D01*
X83446000Y-26924500D01*
X83357834Y-26961020D01*
X83356415Y-26961607D01*
X83356391Y-26961617D01*
X83344743Y-26966442D01*
X83151366Y-27159818D01*
X83125688Y-27179522D01*
X83089628Y-27200342D01*
X83089625Y-27200344D01*
X77414358Y-32875612D01*
X77414352Y-32875618D01*
X77410529Y-32879442D01*
X77356442Y-32933529D01*
X77335887Y-32969128D01*
X77328914Y-32977440D01*
X77313056Y-32987989D01*
X77295927Y-33005120D01*
X77281586Y-33013400D01*
X77188400Y-33106586D01*
X77122508Y-33220712D01*
X77088400Y-33348008D01*
X77088400Y-33452208D01*
X77068715Y-33519247D01*
X77052081Y-33539889D01*
X76555929Y-34036042D01*
X76501844Y-34090126D01*
X76501842Y-34090129D01*
X76463597Y-34156369D01*
X76443800Y-34230255D01*
X76443800Y-55691009D01*
X76424115Y-55758048D01*
X76407481Y-55778690D01*
X70029181Y-62156990D01*
X70009744Y-62167602D01*
X69993011Y-62182103D01*
X69979679Y-62184019D01*
X69967858Y-62190475D01*
X69945771Y-62188895D01*
X69923853Y-62192047D01*
X69911601Y-62186451D01*
X69898166Y-62185491D01*
X69880439Y-62172220D01*
X69860297Y-62163022D01*
X69853014Y-62151690D01*
X69842233Y-62143619D01*
X69834495Y-62122873D01*
X69822523Y-62104244D01*
X69819371Y-62082325D01*
X69817816Y-62078155D01*
X69817500Y-62069309D01*
X69817500Y-61896176D01*
X69837185Y-61829137D01*
X69853819Y-61808495D01*
X69927500Y-61734814D01*
X69993392Y-61620686D01*
X70027500Y-61493392D01*
X70027500Y-61361608D01*
X69993392Y-61234314D01*
X69927500Y-61120186D01*
X69834314Y-61027000D01*
X69777250Y-60994054D01*
X69720187Y-60961108D01*
X69640114Y-60939653D01*
X69592892Y-60927000D01*
X69461108Y-60927000D01*
X69333814Y-60961108D01*
X69333813Y-60961108D01*
X69333811Y-60961109D01*
X69333810Y-60961109D01*
X69264800Y-61000953D01*
X69196900Y-61017426D01*
X69130873Y-60994574D01*
X69087683Y-60939653D01*
X69078800Y-60893566D01*
X69078800Y-45902857D01*
X69078800Y-45902855D01*
X69059003Y-45828971D01*
X69020758Y-45762729D01*
X68966671Y-45708642D01*
X58965319Y-35707290D01*
X58931834Y-35645967D01*
X58929000Y-35619609D01*
X58929000Y-35565710D01*
X58929000Y-35565708D01*
X58894892Y-35438414D01*
X58829000Y-35324286D01*
X58750795Y-35246081D01*
X58717310Y-35184758D01*
X58722294Y-35115066D01*
X58764166Y-35059133D01*
X58829630Y-35034716D01*
X58838476Y-35034400D01*
X61519792Y-35034400D01*
X61586831Y-35054085D01*
X61632586Y-35106889D01*
X61642530Y-35176047D01*
X61639569Y-35190481D01*
X61623700Y-35249708D01*
X61623700Y-35381492D01*
X61637283Y-35432186D01*
X61657808Y-35508787D01*
X61679474Y-35546312D01*
X61723700Y-35622914D01*
X61816886Y-35716100D01*
X61903994Y-35766392D01*
X61927099Y-35779732D01*
X61931014Y-35781992D01*
X62058308Y-35816100D01*
X62058310Y-35816100D01*
X62162509Y-35816100D01*
X62229548Y-35835785D01*
X62250190Y-35852419D01*
X69631881Y-43234110D01*
X69665366Y-43295433D01*
X69668200Y-43321791D01*
X69668200Y-58544523D01*
X69648515Y-58611562D01*
X69631882Y-58632204D01*
X69558200Y-58705886D01*
X69492308Y-58820012D01*
X69458200Y-58947308D01*
X69458200Y-59079091D01*
X69492308Y-59206387D01*
X69505925Y-59229971D01*
X69558200Y-59320514D01*
X69651386Y-59413700D01*
X69765514Y-59479592D01*
X69892808Y-59513700D01*
X69892810Y-59513700D01*
X70024590Y-59513700D01*
X70024592Y-59513700D01*
X70151886Y-59479592D01*
X70266014Y-59413700D01*
X70359200Y-59320514D01*
X70425092Y-59206386D01*
X70459200Y-59079092D01*
X70459200Y-58947308D01*
X70425092Y-58820014D01*
X70425024Y-58819897D01*
X70363521Y-58713371D01*
X70359200Y-58705886D01*
X70285518Y-58632204D01*
X70252034Y-58570880D01*
X70249200Y-58544523D01*
X70249200Y-43111857D01*
X70249200Y-43111855D01*
X70229403Y-43037971D01*
X70191158Y-42971729D01*
X70137071Y-42917642D01*
X69175110Y-41955681D01*
X69141625Y-41894358D01*
X69146609Y-41824666D01*
X69188481Y-41768733D01*
X69253945Y-41744316D01*
X69262791Y-41744000D01*
X69821823Y-41744000D01*
X69888862Y-41763685D01*
X69909504Y-41780318D01*
X69983186Y-41854000D01*
X70097314Y-41919892D01*
X70224608Y-41954000D01*
X70224610Y-41954000D01*
X70356390Y-41954000D01*
X70356392Y-41954000D01*
X70483686Y-41919892D01*
X70597814Y-41854000D01*
X70691000Y-41760814D01*
X70756892Y-41646686D01*
X70791000Y-41519392D01*
X70791000Y-41387608D01*
X70756892Y-41260314D01*
X70756133Y-41259000D01*
X70726173Y-41207108D01*
X70691000Y-41146186D01*
X70597814Y-41053000D01*
X70507178Y-41000671D01*
X70483687Y-40987108D01*
X70420039Y-40970054D01*
X70356392Y-40953000D01*
X70224608Y-40953000D01*
X70097312Y-40987108D01*
X69983186Y-41053000D01*
X69909504Y-41126682D01*
X69848180Y-41160166D01*
X69821823Y-41163000D01*
X69487105Y-41163000D01*
X69420066Y-41143315D01*
X69374311Y-41090511D01*
X69364367Y-41021353D01*
X69393392Y-40957797D01*
X69452170Y-40920023D01*
X69454969Y-40919236D01*
X69465586Y-40916392D01*
X69579714Y-40850500D01*
X69672900Y-40757314D01*
X69738792Y-40643186D01*
X69772900Y-40515892D01*
X69772900Y-40384108D01*
X69738792Y-40256814D01*
X69737802Y-40255100D01*
X69719772Y-40223871D01*
X69672900Y-40142686D01*
X69579714Y-40049500D01*
X69497861Y-40002242D01*
X69465587Y-39983608D01*
X69373157Y-39958842D01*
X69338292Y-39949500D01*
X69234091Y-39949500D01*
X69167052Y-39929815D01*
X69146410Y-39913181D01*
X64888073Y-35654844D01*
X64888071Y-35654842D01*
X64844335Y-35629591D01*
X64821830Y-35616597D01*
X64784887Y-35606698D01*
X64747945Y-35596800D01*
X64747944Y-35596800D01*
X64619077Y-35596800D01*
X64552038Y-35577115D01*
X64531396Y-35560482D01*
X64517226Y-35546312D01*
X64457714Y-35486800D01*
X64400650Y-35453854D01*
X64343587Y-35420908D01*
X64257102Y-35397735D01*
X64216292Y-35386800D01*
X64084508Y-35386800D01*
X63957212Y-35420908D01*
X63843086Y-35486800D01*
X63843083Y-35486802D01*
X63749902Y-35579983D01*
X63749895Y-35579992D01*
X63692016Y-35680240D01*
X63641449Y-35728455D01*
X63572841Y-35741677D01*
X63507977Y-35715709D01*
X63496949Y-35705920D01*
X63022719Y-35231690D01*
X62989234Y-35170367D01*
X62986400Y-35144009D01*
X62986400Y-35040457D01*
X62986400Y-35040455D01*
X62966603Y-34966571D01*
X62928358Y-34900329D01*
X62874271Y-34846242D01*
X62539471Y-34511442D01*
X62506350Y-34492319D01*
X62473230Y-34473197D01*
X62436287Y-34463298D01*
X62399345Y-34453400D01*
X58502845Y-34453400D01*
X58426355Y-34453400D01*
X58352469Y-34473197D01*
X58286229Y-34511442D01*
X58286226Y-34511444D01*
X57770789Y-35026881D01*
X57709466Y-35060366D01*
X57683108Y-35063200D01*
X57578908Y-35063200D01*
X57451612Y-35097308D01*
X57337486Y-35163200D01*
X57337483Y-35163202D01*
X57244302Y-35256383D01*
X57244300Y-35256386D01*
X57178408Y-35370512D01*
X57161884Y-35432183D01*
X57144300Y-35497808D01*
X57144300Y-35629592D01*
X57157871Y-35680240D01*
X57178408Y-35756887D01*
X57205225Y-35803334D01*
X57244300Y-35871014D01*
X57337486Y-35964200D01*
X57430249Y-36017757D01*
X57451610Y-36030090D01*
X57451614Y-36030092D01*
X57578908Y-36064200D01*
X57578910Y-36064200D01*
X57710690Y-36064200D01*
X57710692Y-36064200D01*
X57837986Y-36030092D01*
X57933853Y-35974742D01*
X58001752Y-35958269D01*
X58067779Y-35981121D01*
X58083534Y-35994448D01*
X58121186Y-36032100D01*
X58235314Y-36097992D01*
X58362608Y-36132100D01*
X58362610Y-36132100D01*
X58494390Y-36132100D01*
X58494392Y-36132100D01*
X58494393Y-36132099D01*
X58499218Y-36131464D01*
X58568254Y-36142225D01*
X58603092Y-36166721D01*
X61206090Y-38769719D01*
X61239575Y-38831042D01*
X61234591Y-38900734D01*
X61192719Y-38956667D01*
X61127255Y-38981084D01*
X61118409Y-38981400D01*
X61073555Y-38981400D01*
X60999669Y-39001197D01*
X60933429Y-39039442D01*
X60933426Y-39039444D01*
X59038444Y-40934426D01*
X59038442Y-40934429D01*
X59000197Y-41000669D01*
X58980400Y-41074555D01*
X58980400Y-41905723D01*
X58960715Y-41972762D01*
X58944082Y-41993404D01*
X58870400Y-42067086D01*
X58804508Y-42181212D01*
X58788840Y-42239687D01*
X58770400Y-42308508D01*
X58770400Y-42440292D01*
X58787454Y-42503939D01*
X58804508Y-42567587D01*
X58837454Y-42624650D01*
X58870400Y-42681714D01*
X58963586Y-42774900D01*
X59077714Y-42840792D01*
X59205008Y-42874900D01*
X59205010Y-42874900D01*
X59336790Y-42874900D01*
X59336792Y-42874900D01*
X59464086Y-42840792D01*
X59578214Y-42774900D01*
X59590504Y-42762609D01*
X59651823Y-42729126D01*
X59721514Y-42734108D01*
X59740184Y-42742904D01*
X59860710Y-42812490D01*
X59860711Y-42812490D01*
X59860714Y-42812492D01*
X59988008Y-42846600D01*
X59988010Y-42846600D01*
X60119790Y-42846600D01*
X60119792Y-42846600D01*
X60188708Y-42828134D01*
X60258556Y-42829797D01*
X60316419Y-42868960D01*
X60343923Y-42933188D01*
X60344800Y-42947909D01*
X60344800Y-43501908D01*
X60325115Y-43568947D01*
X60308481Y-43589589D01*
X57459889Y-46438181D01*
X57398566Y-46471666D01*
X57372208Y-46474500D01*
X57268008Y-46474500D01*
X57140712Y-46508608D01*
X57026586Y-46574500D01*
X57026583Y-46574502D01*
X56933402Y-46667683D01*
X56933400Y-46667686D01*
X56867508Y-46781812D01*
X56833400Y-46909108D01*
X56833400Y-47040891D01*
X56867508Y-47168187D01*
X56900194Y-47224800D01*
X56933400Y-47282314D01*
X57026586Y-47375500D01*
X57140714Y-47441392D01*
X57268008Y-47475500D01*
X57268010Y-47475500D01*
X57399790Y-47475500D01*
X57399792Y-47475500D01*
X57527086Y-47441392D01*
X57641214Y-47375500D01*
X57734400Y-47282314D01*
X57800292Y-47168186D01*
X57834400Y-47040892D01*
X57834400Y-46936690D01*
X57854085Y-46869651D01*
X57870719Y-46849009D01*
X59230718Y-45489010D01*
X60505421Y-44214307D01*
X60566742Y-44180824D01*
X60636434Y-44185808D01*
X60692367Y-44227680D01*
X60716784Y-44293144D01*
X60717100Y-44301990D01*
X60717100Y-49169944D01*
X60736897Y-49243830D01*
X60756019Y-49276950D01*
X60775142Y-49310071D01*
X60775144Y-49310073D01*
X65226581Y-53761510D01*
X65260066Y-53822833D01*
X65262900Y-53849191D01*
X65262900Y-53953391D01*
X65297008Y-54080687D01*
X65329954Y-54137750D01*
X65362900Y-54194814D01*
X65456086Y-54288000D01*
X65570214Y-54353892D01*
X65697508Y-54388000D01*
X65697510Y-54388000D01*
X65829290Y-54388000D01*
X65829292Y-54388000D01*
X65956586Y-54353892D01*
X66070714Y-54288000D01*
X66163900Y-54194814D01*
X66229792Y-54080686D01*
X66263900Y-53953392D01*
X66263900Y-53821608D01*
X66229792Y-53694314D01*
X66163900Y-53580186D01*
X66070714Y-53487000D01*
X66003123Y-53447976D01*
X65956587Y-53421108D01*
X65892939Y-53404054D01*
X65829292Y-53387000D01*
X65725091Y-53387000D01*
X65658052Y-53367315D01*
X65637410Y-53350681D01*
X61334419Y-49047690D01*
X61300934Y-48986367D01*
X61298100Y-48960009D01*
X61298100Y-46755910D01*
X61317785Y-46688871D01*
X61370589Y-46643116D01*
X61439747Y-46633172D01*
X61484099Y-46648522D01*
X61554714Y-46689292D01*
X61682008Y-46723400D01*
X61682010Y-46723400D01*
X61813790Y-46723400D01*
X61813792Y-46723400D01*
X61941086Y-46689292D01*
X62055214Y-46623400D01*
X62148400Y-46530214D01*
X62214292Y-46416086D01*
X62248400Y-46288792D01*
X62248400Y-46157008D01*
X62214292Y-46029714D01*
X62148400Y-45915586D01*
X62074718Y-45841904D01*
X62041234Y-45780580D01*
X62038400Y-45754223D01*
X62038400Y-40413091D01*
X62058085Y-40346052D01*
X62110889Y-40300297D01*
X62180047Y-40290353D01*
X62243603Y-40319378D01*
X62250081Y-40325410D01*
X67413681Y-45489010D01*
X67447166Y-45550333D01*
X67450000Y-45576691D01*
X67450000Y-58135323D01*
X67430315Y-58202362D01*
X67413682Y-58223004D01*
X67340000Y-58296686D01*
X67274108Y-58410812D01*
X67263343Y-58450990D01*
X67240000Y-58538108D01*
X67240000Y-58669892D01*
X67251650Y-58713371D01*
X67274108Y-58797187D01*
X67298237Y-58838978D01*
X67340000Y-58911314D01*
X67433186Y-59004500D01*
X67547314Y-59070392D01*
X67674608Y-59104500D01*
X67674610Y-59104500D01*
X67806390Y-59104500D01*
X67806392Y-59104500D01*
X67933686Y-59070392D01*
X68047814Y-59004500D01*
X68141000Y-58911314D01*
X68206892Y-58797186D01*
X68241000Y-58669892D01*
X68241000Y-58538108D01*
X68206892Y-58410814D01*
X68141000Y-58296686D01*
X68067318Y-58223004D01*
X68033834Y-58161680D01*
X68031000Y-58135323D01*
X68031000Y-45893991D01*
X68050685Y-45826952D01*
X68103489Y-45781197D01*
X68172647Y-45771253D01*
X68236203Y-45800278D01*
X68242681Y-45806310D01*
X68461481Y-46025110D01*
X68494966Y-46086433D01*
X68497800Y-46112791D01*
X68497800Y-61473623D01*
X68478115Y-61540662D01*
X68461482Y-61561304D01*
X68387800Y-61634986D01*
X68321908Y-61749112D01*
X68305997Y-61808495D01*
X68287800Y-61876408D01*
X68287800Y-62008192D01*
X68306546Y-62078155D01*
X68310044Y-62091207D01*
X68308381Y-62161057D01*
X68269218Y-62218919D01*
X68204990Y-62246423D01*
X68190269Y-62247300D01*
X67119011Y-62247300D01*
X67051972Y-62227615D01*
X67006217Y-62174811D01*
X66996273Y-62105653D01*
X67011624Y-62061299D01*
X67035591Y-62019787D01*
X67035592Y-62019786D01*
X67069700Y-61892492D01*
X67069700Y-61760708D01*
X67035592Y-61633414D01*
X66969700Y-61519286D01*
X66876514Y-61426100D01*
X66819450Y-61393154D01*
X66762387Y-61360208D01*
X66698739Y-61343154D01*
X66635092Y-61326100D01*
X66530891Y-61326100D01*
X66463852Y-61306415D01*
X66443210Y-61289781D01*
X56038319Y-50884890D01*
X56004834Y-50823567D01*
X56002000Y-50797209D01*
X56002000Y-36028176D01*
X56021685Y-35961137D01*
X56038319Y-35940495D01*
X56071980Y-35906834D01*
X56112000Y-35866814D01*
X56177892Y-35752686D01*
X56212000Y-35625392D01*
X56212000Y-35493608D01*
X56177892Y-35366314D01*
X56177648Y-35365892D01*
X56153625Y-35324283D01*
X56112000Y-35252186D01*
X56018814Y-35159000D01*
X55955445Y-35122414D01*
X55904687Y-35093108D01*
X55811820Y-35068225D01*
X55777392Y-35059000D01*
X55645608Y-35059000D01*
X55518312Y-35093108D01*
X55404186Y-35159000D01*
X55404183Y-35159002D01*
X55311002Y-35252183D01*
X55311000Y-35252186D01*
X55245108Y-35366312D01*
X55211000Y-35493608D01*
X55211000Y-35568500D01*
X55191315Y-35635539D01*
X55138511Y-35681294D01*
X55087000Y-35692500D01*
X55004308Y-35692500D01*
X54877014Y-35726608D01*
X54877013Y-35726608D01*
X54877011Y-35726609D01*
X54877010Y-35726609D01*
X54785000Y-35779732D01*
X54717100Y-35796205D01*
X54651073Y-35773353D01*
X54607882Y-35718431D01*
X54599000Y-35672345D01*
X54599000Y-26987400D01*
X54618685Y-26920361D01*
X54671489Y-26874606D01*
X54723000Y-26863400D01*
X54732343Y-26863400D01*
X54732345Y-26863400D01*
X54806229Y-26843603D01*
X54872471Y-26805358D01*
X55820009Y-25857818D01*
X55881332Y-25824334D01*
X55907690Y-25821500D01*
X56011890Y-25821500D01*
X56011892Y-25821500D01*
X56139186Y-25787392D01*
X56253314Y-25721500D01*
X56346500Y-25628314D01*
X56412392Y-25514186D01*
X56446500Y-25386892D01*
X56446500Y-25255108D01*
X56412392Y-25127814D01*
X56346500Y-25013686D01*
X56253314Y-24920500D01*
X56206918Y-24893713D01*
X88649500Y-24893713D01*
X88649500Y-25106287D01*
X88682754Y-25316243D01*
X88747070Y-25514187D01*
X88748444Y-25518414D01*
X88844951Y-25707820D01*
X88969890Y-25879786D01*
X89120213Y-26030109D01*
X89292179Y-26155048D01*
X89292181Y-26155049D01*
X89292184Y-26155051D01*
X89481588Y-26251557D01*
X89683757Y-26317246D01*
X89893713Y-26350500D01*
X89893714Y-26350500D01*
X90106286Y-26350500D01*
X90106287Y-26350500D01*
X90316243Y-26317246D01*
X90518412Y-26251557D01*
X90707816Y-26155051D01*
X90774630Y-26106508D01*
X90879786Y-26030109D01*
X90879788Y-26030106D01*
X90879792Y-26030104D01*
X91030104Y-25879792D01*
X91030106Y-25879788D01*
X91030109Y-25879786D01*
X91155048Y-25707820D01*
X91155047Y-25707820D01*
X91155051Y-25707816D01*
X91251557Y-25518412D01*
X91317246Y-25316243D01*
X91350500Y-25106287D01*
X91350500Y-24893713D01*
X91317246Y-24683757D01*
X91251557Y-24481588D01*
X91155051Y-24292184D01*
X91155049Y-24292181D01*
X91155048Y-24292179D01*
X91030109Y-24120213D01*
X90879786Y-23969890D01*
X90707820Y-23844951D01*
X90518414Y-23748444D01*
X90518413Y-23748443D01*
X90518412Y-23748443D01*
X90316243Y-23682754D01*
X90316241Y-23682753D01*
X90316240Y-23682753D01*
X90154957Y-23657208D01*
X90106287Y-23649500D01*
X89893713Y-23649500D01*
X89845042Y-23657208D01*
X89683760Y-23682753D01*
X89481585Y-23748444D01*
X89292179Y-23844951D01*
X89120213Y-23969890D01*
X88969890Y-24120213D01*
X88844951Y-24292179D01*
X88748444Y-24481585D01*
X88682753Y-24683760D01*
X88661096Y-24820500D01*
X88649500Y-24893713D01*
X56206918Y-24893713D01*
X56196250Y-24887554D01*
X56139187Y-24854608D01*
X56075539Y-24837554D01*
X56011892Y-24820500D01*
X55880108Y-24820500D01*
X55752812Y-24854608D01*
X55638686Y-24920500D01*
X55638683Y-24920502D01*
X55545502Y-25013683D01*
X55545500Y-25013686D01*
X55479608Y-25127812D01*
X55445500Y-25255108D01*
X55445500Y-25359308D01*
X55425815Y-25426347D01*
X55409181Y-25446989D01*
X54610090Y-26246081D01*
X54548767Y-26279566D01*
X54522409Y-26282400D01*
X52620677Y-26282400D01*
X52553638Y-26262715D01*
X52532996Y-26246082D01*
X52532995Y-26246081D01*
X52459314Y-26172400D01*
X52402250Y-26139454D01*
X52345187Y-26106508D01*
X52281539Y-26089454D01*
X52217892Y-26072400D01*
X52086108Y-26072400D01*
X51958812Y-26106508D01*
X51844686Y-26172400D01*
X51844683Y-26172402D01*
X51751502Y-26265583D01*
X51751500Y-26265586D01*
X51685608Y-26379712D01*
X51651500Y-26507008D01*
X51651500Y-26638791D01*
X51685608Y-26766087D01*
X51713911Y-26815108D01*
X51751500Y-26880214D01*
X51844686Y-26973400D01*
X51958814Y-27039292D01*
X52086108Y-27073400D01*
X52086110Y-27073400D01*
X52217890Y-27073400D01*
X52217892Y-27073400D01*
X52345186Y-27039292D01*
X52459314Y-26973400D01*
X52532996Y-26899718D01*
X52594320Y-26866234D01*
X52620677Y-26863400D01*
X53894000Y-26863400D01*
X53961039Y-26883085D01*
X54006794Y-26935889D01*
X54018000Y-26987400D01*
X54018000Y-36035977D01*
X53998315Y-36103016D01*
X53945511Y-36148771D01*
X53876353Y-36158715D01*
X53861907Y-36155752D01*
X53803118Y-36140000D01*
X53782592Y-36134500D01*
X53650808Y-36134500D01*
X53650806Y-36134500D01*
X53636766Y-36138262D01*
X53566916Y-36136597D01*
X53516996Y-36106167D01*
X41406397Y-23995568D01*
X41372912Y-23934245D01*
X41377896Y-23864553D01*
X41379517Y-23860434D01*
X41385931Y-23844949D01*
X41413973Y-23777251D01*
X41450500Y-23593616D01*
X41450500Y-23406384D01*
X41413973Y-23222749D01*
X41342322Y-23049769D01*
X41342321Y-23049768D01*
X41342318Y-23049762D01*
X41238302Y-22894092D01*
X41238299Y-22894088D01*
X41105911Y-22761700D01*
X41105907Y-22761697D01*
X40950237Y-22657681D01*
X40950228Y-22657676D01*
X40777251Y-22586027D01*
X40777243Y-22586025D01*
X40593620Y-22549500D01*
X40593616Y-22549500D01*
X40406384Y-22549500D01*
X40406379Y-22549500D01*
X40222756Y-22586025D01*
X40222748Y-22586027D01*
X40049771Y-22657676D01*
X40049762Y-22657681D01*
X39894092Y-22761697D01*
X39894088Y-22761700D01*
X39761700Y-22894088D01*
X39761697Y-22894092D01*
X39657681Y-23049762D01*
X39657676Y-23049771D01*
X39586027Y-23222748D01*
X39586025Y-23222756D01*
X39549500Y-23406379D01*
X39549500Y-23593620D01*
X39586025Y-23777243D01*
X39586027Y-23777251D01*
X39657676Y-23950228D01*
X39657681Y-23950237D01*
X39761697Y-24105907D01*
X39761700Y-24105911D01*
X39894088Y-24238299D01*
X39894092Y-24238302D01*
X40049762Y-24342318D01*
X40049768Y-24342321D01*
X40049769Y-24342322D01*
X40222749Y-24413973D01*
X40406379Y-24450499D01*
X40406383Y-24450500D01*
X40406384Y-24450500D01*
X40593617Y-24450500D01*
X40593618Y-24450499D01*
X40777251Y-24413973D01*
X40860434Y-24379516D01*
X40929903Y-24372048D01*
X40992383Y-24403323D01*
X40995568Y-24406397D01*
X53179881Y-36590710D01*
X53213366Y-36652033D01*
X53216200Y-36678391D01*
X53216200Y-36700891D01*
X53250308Y-36828187D01*
X53283254Y-36885250D01*
X53316200Y-36942314D01*
X53409386Y-37035500D01*
X53523514Y-37101392D01*
X53650808Y-37135500D01*
X53650810Y-37135500D01*
X53782589Y-37135500D01*
X53782592Y-37135500D01*
X53818177Y-37125965D01*
X53888024Y-37127628D01*
X53945887Y-37166790D01*
X53973391Y-37231018D01*
X53961805Y-37299921D01*
X53937949Y-37333421D01*
X53350289Y-37921081D01*
X53288966Y-37954566D01*
X53262608Y-37957400D01*
X53158408Y-37957400D01*
X53031112Y-37991508D01*
X52916986Y-38057400D01*
X52916983Y-38057402D01*
X52823802Y-38150583D01*
X52823800Y-38150586D01*
X52757908Y-38264712D01*
X52723800Y-38392008D01*
X52723800Y-38523791D01*
X52757908Y-38651087D01*
X52762113Y-38658370D01*
X52823800Y-38765214D01*
X52916986Y-38858400D01*
X53006907Y-38910316D01*
X53020619Y-38918233D01*
X53031114Y-38924292D01*
X53158408Y-38958400D01*
X53158410Y-38958400D01*
X53290189Y-38958400D01*
X53290192Y-38958400D01*
X53383833Y-38933309D01*
X53453680Y-38934972D01*
X53511543Y-38974134D01*
X53539047Y-39038363D01*
X53527461Y-39107265D01*
X53503605Y-39140765D01*
X53100829Y-39543542D01*
X53046744Y-39597626D01*
X53046742Y-39597629D01*
X53008497Y-39663871D01*
X52997428Y-39705183D01*
X52987012Y-39744055D01*
X52950647Y-39803715D01*
X52887799Y-39834244D01*
X52818424Y-39825949D01*
X52779556Y-39799642D01*
X52715116Y-39735202D01*
X52715114Y-39735200D01*
X52658050Y-39702254D01*
X52600987Y-39669308D01*
X52537339Y-39652254D01*
X52473692Y-39635200D01*
X52341908Y-39635200D01*
X52214612Y-39669308D01*
X52100486Y-39735200D01*
X52100483Y-39735202D01*
X52007302Y-39828383D01*
X52007300Y-39828386D01*
X51941408Y-39942512D01*
X51907300Y-40069808D01*
X51907300Y-40174008D01*
X51887615Y-40241047D01*
X51870981Y-40261689D01*
X51672984Y-40459685D01*
X51611661Y-40493170D01*
X51541969Y-40488186D01*
X51486036Y-40446314D01*
X51461619Y-40380850D01*
X51476471Y-40312577D01*
X51477917Y-40310003D01*
X51519089Y-40238691D01*
X51519088Y-40238691D01*
X51519092Y-40238686D01*
X51553200Y-40111392D01*
X51553200Y-39979608D01*
X51519092Y-39852314D01*
X51453200Y-39738186D01*
X51360014Y-39645000D01*
X51245886Y-39579108D01*
X51150804Y-39553631D01*
X51091146Y-39517267D01*
X51060617Y-39454420D01*
X51058900Y-39433857D01*
X51058900Y-39333610D01*
X51058900Y-39333608D01*
X51024792Y-39206314D01*
X51024787Y-39206306D01*
X50986947Y-39140765D01*
X50958900Y-39092186D01*
X50865714Y-38999000D01*
X50859967Y-38993253D01*
X50861819Y-38991400D01*
X50831344Y-38951683D01*
X50829105Y-38946279D01*
X50829103Y-38946271D01*
X50790858Y-38880029D01*
X50736771Y-38825942D01*
X35906397Y-23995568D01*
X35872912Y-23934245D01*
X35877896Y-23864553D01*
X35879517Y-23860434D01*
X35885931Y-23844949D01*
X35913973Y-23777251D01*
X35950500Y-23593616D01*
X35950500Y-23406384D01*
X35913973Y-23222749D01*
X35842322Y-23049769D01*
X35842321Y-23049768D01*
X35842318Y-23049762D01*
X35738302Y-22894092D01*
X35738299Y-22894088D01*
X35605911Y-22761700D01*
X35605907Y-22761697D01*
X35450237Y-22657681D01*
X35450228Y-22657676D01*
X35277251Y-22586027D01*
X35277243Y-22586025D01*
X35093620Y-22549500D01*
X35093616Y-22549500D01*
X34906384Y-22549500D01*
X34906379Y-22549500D01*
X34722756Y-22586025D01*
X34722748Y-22586027D01*
X34549771Y-22657676D01*
X34549762Y-22657681D01*
X34394092Y-22761697D01*
X34394088Y-22761700D01*
X34261700Y-22894088D01*
X34261697Y-22894092D01*
X34157681Y-23049762D01*
X34157676Y-23049771D01*
X34086027Y-23222748D01*
X34086025Y-23222756D01*
X34049500Y-23406379D01*
X30450499Y-23406379D01*
X30413973Y-23222749D01*
X30342322Y-23049769D01*
X30342321Y-23049768D01*
X30342318Y-23049762D01*
X30238302Y-22894092D01*
X30238299Y-22894088D01*
X30105911Y-22761700D01*
X30105907Y-22761697D01*
X29950237Y-22657681D01*
X29950228Y-22657676D01*
X29777251Y-22586027D01*
X29777243Y-22586025D01*
X29593620Y-22549500D01*
X29593616Y-22549500D01*
X29406384Y-22549500D01*
X29406379Y-22549500D01*
X29222756Y-22586025D01*
X29222748Y-22586027D01*
X29049771Y-22657676D01*
X29049762Y-22657681D01*
X28894092Y-22761697D01*
X28894088Y-22761700D01*
X28761700Y-22894088D01*
X28761697Y-22894092D01*
X28657681Y-23049762D01*
X28657676Y-23049771D01*
X28586027Y-23222748D01*
X28586025Y-23222756D01*
X28549500Y-23406379D01*
X21000000Y-23406379D01*
X21000000Y-23039652D01*
X21003294Y-23026189D01*
X21002335Y-23015702D01*
X21014009Y-22982398D01*
X21111539Y-22795045D01*
X21116934Y-22785700D01*
X21325793Y-22457857D01*
X21331983Y-22449018D01*
X21568612Y-22140637D01*
X21575550Y-22132368D01*
X21838157Y-21845783D01*
X21845783Y-21838157D01*
X22132368Y-21575550D01*
X22140637Y-21568612D01*
X22449018Y-21331983D01*
X22457857Y-21325793D01*
X22785700Y-21116934D01*
X22795045Y-21111539D01*
X22982396Y-21014010D01*
X23039653Y-21000000D01*
X91960346Y-21000000D01*
X92017603Y-21014011D01*
G37*
%TD.AperFunction*%
%TD*%
M02*
