%TF.GenerationSoftware,KiCad,Pcbnew,10.0.3*%
%TF.CreationDate,2026-10-10T16:30:23+10:30*%
%TF.ProjectId,STPM34_Breakout,5354504d-3334-45f4-9272-65616b6f7574,A*%
%TF.SameCoordinates,Original*%
%TF.FileFunction,Legend,Bot*%
%TF.FilePolarity,Positive*%
%FSLAX46Y46*%
G04 Gerber Fmt 4.6, Leading zero omitted, Abs format (unit mm)*
G04 Created by KiCad (PCBNEW 10.0.3) date 2026-10-10 16:30:23*
%MOMM*%
%LPD*%
G01*
G04 APERTURE LIST*
%ADD10C,0.200000*%
%ADD11C,0.120000*%
%ADD12C,0.010000*%
%ADD13C,2.200000*%
%ADD14R,1.700000X1.700000*%
%ADD15C,1.700000*%
%ADD16C,1.500000*%
%ADD17R,1.500000X1.000000*%
G04 APERTURE END LIST*
D10*
X38095237Y-59059695D02*
X37638094Y-59059695D01*
X37866666Y-59859695D02*
X37866666Y-59059695D01*
X37409523Y-59631123D02*
X37028570Y-59631123D01*
X37485713Y-59859695D02*
X37219046Y-59059695D01*
X37219046Y-59059695D02*
X36952380Y-59859695D01*
X36685713Y-59859695D02*
X36685713Y-59059695D01*
X36685713Y-59059695D02*
X36380951Y-59059695D01*
X36380951Y-59059695D02*
X36304761Y-59097790D01*
X36304761Y-59097790D02*
X36266666Y-59135885D01*
X36266666Y-59135885D02*
X36228570Y-59212076D01*
X36228570Y-59212076D02*
X36228570Y-59326361D01*
X36228570Y-59326361D02*
X36266666Y-59402552D01*
X36266666Y-59402552D02*
X36304761Y-59440647D01*
X36304761Y-59440647D02*
X36380951Y-59478742D01*
X36380951Y-59478742D02*
X36685713Y-59478742D01*
X35428570Y-59859695D02*
X35695237Y-59478742D01*
X35885713Y-59859695D02*
X35885713Y-59059695D01*
X35885713Y-59059695D02*
X35580951Y-59059695D01*
X35580951Y-59059695D02*
X35504761Y-59097790D01*
X35504761Y-59097790D02*
X35466666Y-59135885D01*
X35466666Y-59135885D02*
X35428570Y-59212076D01*
X35428570Y-59212076D02*
X35428570Y-59326361D01*
X35428570Y-59326361D02*
X35466666Y-59402552D01*
X35466666Y-59402552D02*
X35504761Y-59440647D01*
X35504761Y-59440647D02*
X35580951Y-59478742D01*
X35580951Y-59478742D02*
X35885713Y-59478742D01*
X34323808Y-59059695D02*
X34171427Y-59059695D01*
X34171427Y-59059695D02*
X34095237Y-59097790D01*
X34095237Y-59097790D02*
X34019046Y-59173980D01*
X34019046Y-59173980D02*
X33980951Y-59326361D01*
X33980951Y-59326361D02*
X33980951Y-59593028D01*
X33980951Y-59593028D02*
X34019046Y-59745409D01*
X34019046Y-59745409D02*
X34095237Y-59821600D01*
X34095237Y-59821600D02*
X34171427Y-59859695D01*
X34171427Y-59859695D02*
X34323808Y-59859695D01*
X34323808Y-59859695D02*
X34399999Y-59821600D01*
X34399999Y-59821600D02*
X34476189Y-59745409D01*
X34476189Y-59745409D02*
X34514285Y-59593028D01*
X34514285Y-59593028D02*
X34514285Y-59326361D01*
X34514285Y-59326361D02*
X34476189Y-59173980D01*
X34476189Y-59173980D02*
X34399999Y-59097790D01*
X34399999Y-59097790D02*
X34323808Y-59059695D01*
X33638094Y-59859695D02*
X33638094Y-59059695D01*
X33638094Y-59440647D02*
X33180951Y-59440647D01*
X33180951Y-59859695D02*
X33180951Y-59059695D01*
X32419047Y-59859695D02*
X32799999Y-59859695D01*
X32799999Y-59859695D02*
X32799999Y-59059695D01*
X31123809Y-59859695D02*
X31580952Y-59859695D01*
X31352380Y-59859695D02*
X31352380Y-59059695D01*
X31352380Y-59059695D02*
X31428571Y-59173980D01*
X31428571Y-59173980D02*
X31504761Y-59250171D01*
X31504761Y-59250171D02*
X31580952Y-59288266D01*
X30780951Y-59783504D02*
X30742856Y-59821600D01*
X30742856Y-59821600D02*
X30780951Y-59859695D01*
X30780951Y-59859695D02*
X30819047Y-59821600D01*
X30819047Y-59821600D02*
X30780951Y-59783504D01*
X30780951Y-59783504D02*
X30780951Y-59859695D01*
X30247618Y-59059695D02*
X30171428Y-59059695D01*
X30171428Y-59059695D02*
X30095237Y-59097790D01*
X30095237Y-59097790D02*
X30057142Y-59135885D01*
X30057142Y-59135885D02*
X30019047Y-59212076D01*
X30019047Y-59212076D02*
X29980952Y-59364457D01*
X29980952Y-59364457D02*
X29980952Y-59554933D01*
X29980952Y-59554933D02*
X30019047Y-59707314D01*
X30019047Y-59707314D02*
X30057142Y-59783504D01*
X30057142Y-59783504D02*
X30095237Y-59821600D01*
X30095237Y-59821600D02*
X30171428Y-59859695D01*
X30171428Y-59859695D02*
X30247618Y-59859695D01*
X30247618Y-59859695D02*
X30323809Y-59821600D01*
X30323809Y-59821600D02*
X30361904Y-59783504D01*
X30361904Y-59783504D02*
X30399999Y-59707314D01*
X30399999Y-59707314D02*
X30438095Y-59554933D01*
X30438095Y-59554933D02*
X30438095Y-59364457D01*
X30438095Y-59364457D02*
X30399999Y-59212076D01*
X30399999Y-59212076D02*
X30361904Y-59135885D01*
X30361904Y-59135885D02*
X30323809Y-59097790D01*
X30323809Y-59097790D02*
X30247618Y-59059695D01*
X53485715Y-59326361D02*
X53295239Y-59859695D01*
X53295239Y-59859695D02*
X53104762Y-59326361D01*
X52380953Y-59859695D02*
X52838096Y-59859695D01*
X52609524Y-59859695D02*
X52609524Y-59059695D01*
X52609524Y-59059695D02*
X52685715Y-59173980D01*
X52685715Y-59173980D02*
X52761905Y-59250171D01*
X52761905Y-59250171D02*
X52838096Y-59288266D01*
X52038095Y-59783504D02*
X52000000Y-59821600D01*
X52000000Y-59821600D02*
X52038095Y-59859695D01*
X52038095Y-59859695D02*
X52076191Y-59821600D01*
X52076191Y-59821600D02*
X52038095Y-59783504D01*
X52038095Y-59783504D02*
X52038095Y-59859695D01*
X51504762Y-59059695D02*
X51428572Y-59059695D01*
X51428572Y-59059695D02*
X51352381Y-59097790D01*
X51352381Y-59097790D02*
X51314286Y-59135885D01*
X51314286Y-59135885D02*
X51276191Y-59212076D01*
X51276191Y-59212076D02*
X51238096Y-59364457D01*
X51238096Y-59364457D02*
X51238096Y-59554933D01*
X51238096Y-59554933D02*
X51276191Y-59707314D01*
X51276191Y-59707314D02*
X51314286Y-59783504D01*
X51314286Y-59783504D02*
X51352381Y-59821600D01*
X51352381Y-59821600D02*
X51428572Y-59859695D01*
X51428572Y-59859695D02*
X51504762Y-59859695D01*
X51504762Y-59859695D02*
X51580953Y-59821600D01*
X51580953Y-59821600D02*
X51619048Y-59783504D01*
X51619048Y-59783504D02*
X51657143Y-59707314D01*
X51657143Y-59707314D02*
X51695239Y-59554933D01*
X51695239Y-59554933D02*
X51695239Y-59364457D01*
X51695239Y-59364457D02*
X51657143Y-59212076D01*
X51657143Y-59212076D02*
X51619048Y-59135885D01*
X51619048Y-59135885D02*
X51580953Y-59097790D01*
X51580953Y-59097790D02*
X51504762Y-59059695D01*
X50323810Y-59135885D02*
X50285714Y-59097790D01*
X50285714Y-59097790D02*
X50209524Y-59059695D01*
X50209524Y-59059695D02*
X50019048Y-59059695D01*
X50019048Y-59059695D02*
X49942857Y-59097790D01*
X49942857Y-59097790D02*
X49904762Y-59135885D01*
X49904762Y-59135885D02*
X49866667Y-59212076D01*
X49866667Y-59212076D02*
X49866667Y-59288266D01*
X49866667Y-59288266D02*
X49904762Y-59402552D01*
X49904762Y-59402552D02*
X50361905Y-59859695D01*
X50361905Y-59859695D02*
X49866667Y-59859695D01*
X49371428Y-59059695D02*
X49295238Y-59059695D01*
X49295238Y-59059695D02*
X49219047Y-59097790D01*
X49219047Y-59097790D02*
X49180952Y-59135885D01*
X49180952Y-59135885D02*
X49142857Y-59212076D01*
X49142857Y-59212076D02*
X49104762Y-59364457D01*
X49104762Y-59364457D02*
X49104762Y-59554933D01*
X49104762Y-59554933D02*
X49142857Y-59707314D01*
X49142857Y-59707314D02*
X49180952Y-59783504D01*
X49180952Y-59783504D02*
X49219047Y-59821600D01*
X49219047Y-59821600D02*
X49295238Y-59859695D01*
X49295238Y-59859695D02*
X49371428Y-59859695D01*
X49371428Y-59859695D02*
X49447619Y-59821600D01*
X49447619Y-59821600D02*
X49485714Y-59783504D01*
X49485714Y-59783504D02*
X49523809Y-59707314D01*
X49523809Y-59707314D02*
X49561905Y-59554933D01*
X49561905Y-59554933D02*
X49561905Y-59364457D01*
X49561905Y-59364457D02*
X49523809Y-59212076D01*
X49523809Y-59212076D02*
X49485714Y-59135885D01*
X49485714Y-59135885D02*
X49447619Y-59097790D01*
X49447619Y-59097790D02*
X49371428Y-59059695D01*
X48800000Y-59135885D02*
X48761904Y-59097790D01*
X48761904Y-59097790D02*
X48685714Y-59059695D01*
X48685714Y-59059695D02*
X48495238Y-59059695D01*
X48495238Y-59059695D02*
X48419047Y-59097790D01*
X48419047Y-59097790D02*
X48380952Y-59135885D01*
X48380952Y-59135885D02*
X48342857Y-59212076D01*
X48342857Y-59212076D02*
X48342857Y-59288266D01*
X48342857Y-59288266D02*
X48380952Y-59402552D01*
X48380952Y-59402552D02*
X48838095Y-59859695D01*
X48838095Y-59859695D02*
X48342857Y-59859695D01*
X47657142Y-59059695D02*
X47809523Y-59059695D01*
X47809523Y-59059695D02*
X47885714Y-59097790D01*
X47885714Y-59097790D02*
X47923809Y-59135885D01*
X47923809Y-59135885D02*
X47999999Y-59250171D01*
X47999999Y-59250171D02*
X48038095Y-59402552D01*
X48038095Y-59402552D02*
X48038095Y-59707314D01*
X48038095Y-59707314D02*
X47999999Y-59783504D01*
X47999999Y-59783504D02*
X47961904Y-59821600D01*
X47961904Y-59821600D02*
X47885714Y-59859695D01*
X47885714Y-59859695D02*
X47733333Y-59859695D01*
X47733333Y-59859695D02*
X47657142Y-59821600D01*
X47657142Y-59821600D02*
X47619047Y-59783504D01*
X47619047Y-59783504D02*
X47580952Y-59707314D01*
X47580952Y-59707314D02*
X47580952Y-59516838D01*
X47580952Y-59516838D02*
X47619047Y-59440647D01*
X47619047Y-59440647D02*
X47657142Y-59402552D01*
X47657142Y-59402552D02*
X47733333Y-59364457D01*
X47733333Y-59364457D02*
X47885714Y-59364457D01*
X47885714Y-59364457D02*
X47961904Y-59402552D01*
X47961904Y-59402552D02*
X47999999Y-59440647D01*
X47999999Y-59440647D02*
X48038095Y-59516838D01*
X47238094Y-59554933D02*
X46628571Y-59554933D01*
X45828571Y-59859695D02*
X46285714Y-59859695D01*
X46057142Y-59859695D02*
X46057142Y-59059695D01*
X46057142Y-59059695D02*
X46133333Y-59173980D01*
X46133333Y-59173980D02*
X46209523Y-59250171D01*
X46209523Y-59250171D02*
X46285714Y-59288266D01*
X45333332Y-59059695D02*
X45257142Y-59059695D01*
X45257142Y-59059695D02*
X45180951Y-59097790D01*
X45180951Y-59097790D02*
X45142856Y-59135885D01*
X45142856Y-59135885D02*
X45104761Y-59212076D01*
X45104761Y-59212076D02*
X45066666Y-59364457D01*
X45066666Y-59364457D02*
X45066666Y-59554933D01*
X45066666Y-59554933D02*
X45104761Y-59707314D01*
X45104761Y-59707314D02*
X45142856Y-59783504D01*
X45142856Y-59783504D02*
X45180951Y-59821600D01*
X45180951Y-59821600D02*
X45257142Y-59859695D01*
X45257142Y-59859695D02*
X45333332Y-59859695D01*
X45333332Y-59859695D02*
X45409523Y-59821600D01*
X45409523Y-59821600D02*
X45447618Y-59783504D01*
X45447618Y-59783504D02*
X45485713Y-59707314D01*
X45485713Y-59707314D02*
X45523809Y-59554933D01*
X45523809Y-59554933D02*
X45523809Y-59364457D01*
X45523809Y-59364457D02*
X45485713Y-59212076D01*
X45485713Y-59212076D02*
X45447618Y-59135885D01*
X45447618Y-59135885D02*
X45409523Y-59097790D01*
X45409523Y-59097790D02*
X45333332Y-59059695D01*
X44723808Y-59554933D02*
X44114285Y-59554933D01*
X43314285Y-59859695D02*
X43771428Y-59859695D01*
X43542856Y-59859695D02*
X43542856Y-59059695D01*
X43542856Y-59059695D02*
X43619047Y-59173980D01*
X43619047Y-59173980D02*
X43695237Y-59250171D01*
X43695237Y-59250171D02*
X43771428Y-59288266D01*
X42819046Y-59059695D02*
X42742856Y-59059695D01*
X42742856Y-59059695D02*
X42666665Y-59097790D01*
X42666665Y-59097790D02*
X42628570Y-59135885D01*
X42628570Y-59135885D02*
X42590475Y-59212076D01*
X42590475Y-59212076D02*
X42552380Y-59364457D01*
X42552380Y-59364457D02*
X42552380Y-59554933D01*
X42552380Y-59554933D02*
X42590475Y-59707314D01*
X42590475Y-59707314D02*
X42628570Y-59783504D01*
X42628570Y-59783504D02*
X42666665Y-59821600D01*
X42666665Y-59821600D02*
X42742856Y-59859695D01*
X42742856Y-59859695D02*
X42819046Y-59859695D01*
X42819046Y-59859695D02*
X42895237Y-59821600D01*
X42895237Y-59821600D02*
X42933332Y-59783504D01*
X42933332Y-59783504D02*
X42971427Y-59707314D01*
X42971427Y-59707314D02*
X43009523Y-59554933D01*
X43009523Y-59554933D02*
X43009523Y-59364457D01*
X43009523Y-59364457D02*
X42971427Y-59212076D01*
X42971427Y-59212076D02*
X42933332Y-59135885D01*
X42933332Y-59135885D02*
X42895237Y-59097790D01*
X42895237Y-59097790D02*
X42819046Y-59059695D01*
X60876189Y-34359695D02*
X60876189Y-33559695D01*
X60876189Y-33559695D02*
X60419046Y-34359695D01*
X60419046Y-34359695D02*
X60419046Y-33559695D01*
X59885713Y-33559695D02*
X59733332Y-33559695D01*
X59733332Y-33559695D02*
X59657142Y-33597790D01*
X59657142Y-33597790D02*
X59580951Y-33673980D01*
X59580951Y-33673980D02*
X59542856Y-33826361D01*
X59542856Y-33826361D02*
X59542856Y-34093028D01*
X59542856Y-34093028D02*
X59580951Y-34245409D01*
X59580951Y-34245409D02*
X59657142Y-34321600D01*
X59657142Y-34321600D02*
X59733332Y-34359695D01*
X59733332Y-34359695D02*
X59885713Y-34359695D01*
X59885713Y-34359695D02*
X59961904Y-34321600D01*
X59961904Y-34321600D02*
X60038094Y-34245409D01*
X60038094Y-34245409D02*
X60076190Y-34093028D01*
X60076190Y-34093028D02*
X60076190Y-33826361D01*
X60076190Y-33826361D02*
X60038094Y-33673980D01*
X60038094Y-33673980D02*
X59961904Y-33597790D01*
X59961904Y-33597790D02*
X59885713Y-33559695D01*
X59314285Y-33559695D02*
X58857142Y-33559695D01*
X59085714Y-34359695D02*
X59085714Y-33559695D01*
X57714285Y-33940647D02*
X57980951Y-33940647D01*
X57980951Y-34359695D02*
X57980951Y-33559695D01*
X57980951Y-33559695D02*
X57599999Y-33559695D01*
X57142856Y-33559695D02*
X56990475Y-33559695D01*
X56990475Y-33559695D02*
X56914285Y-33597790D01*
X56914285Y-33597790D02*
X56838094Y-33673980D01*
X56838094Y-33673980D02*
X56799999Y-33826361D01*
X56799999Y-33826361D02*
X56799999Y-34093028D01*
X56799999Y-34093028D02*
X56838094Y-34245409D01*
X56838094Y-34245409D02*
X56914285Y-34321600D01*
X56914285Y-34321600D02*
X56990475Y-34359695D01*
X56990475Y-34359695D02*
X57142856Y-34359695D01*
X57142856Y-34359695D02*
X57219047Y-34321600D01*
X57219047Y-34321600D02*
X57295237Y-34245409D01*
X57295237Y-34245409D02*
X57333333Y-34093028D01*
X57333333Y-34093028D02*
X57333333Y-33826361D01*
X57333333Y-33826361D02*
X57295237Y-33673980D01*
X57295237Y-33673980D02*
X57219047Y-33597790D01*
X57219047Y-33597790D02*
X57142856Y-33559695D01*
X55999999Y-34359695D02*
X56266666Y-33978742D01*
X56457142Y-34359695D02*
X56457142Y-33559695D01*
X56457142Y-33559695D02*
X56152380Y-33559695D01*
X56152380Y-33559695D02*
X56076190Y-33597790D01*
X56076190Y-33597790D02*
X56038095Y-33635885D01*
X56038095Y-33635885D02*
X55999999Y-33712076D01*
X55999999Y-33712076D02*
X55999999Y-33826361D01*
X55999999Y-33826361D02*
X56038095Y-33902552D01*
X56038095Y-33902552D02*
X56076190Y-33940647D01*
X56076190Y-33940647D02*
X56152380Y-33978742D01*
X56152380Y-33978742D02*
X56457142Y-33978742D01*
X55047618Y-34359695D02*
X55047618Y-33559695D01*
X55047618Y-33559695D02*
X54857142Y-33559695D01*
X54857142Y-33559695D02*
X54742856Y-33597790D01*
X54742856Y-33597790D02*
X54666666Y-33673980D01*
X54666666Y-33673980D02*
X54628571Y-33750171D01*
X54628571Y-33750171D02*
X54590475Y-33902552D01*
X54590475Y-33902552D02*
X54590475Y-34016838D01*
X54590475Y-34016838D02*
X54628571Y-34169219D01*
X54628571Y-34169219D02*
X54666666Y-34245409D01*
X54666666Y-34245409D02*
X54742856Y-34321600D01*
X54742856Y-34321600D02*
X54857142Y-34359695D01*
X54857142Y-34359695D02*
X55047618Y-34359695D01*
X54247618Y-34359695D02*
X54247618Y-33559695D01*
X53409523Y-34359695D02*
X53676190Y-33978742D01*
X53866666Y-34359695D02*
X53866666Y-33559695D01*
X53866666Y-33559695D02*
X53561904Y-33559695D01*
X53561904Y-33559695D02*
X53485714Y-33597790D01*
X53485714Y-33597790D02*
X53447619Y-33635885D01*
X53447619Y-33635885D02*
X53409523Y-33712076D01*
X53409523Y-33712076D02*
X53409523Y-33826361D01*
X53409523Y-33826361D02*
X53447619Y-33902552D01*
X53447619Y-33902552D02*
X53485714Y-33940647D01*
X53485714Y-33940647D02*
X53561904Y-33978742D01*
X53561904Y-33978742D02*
X53866666Y-33978742D01*
X53066666Y-33940647D02*
X52800000Y-33940647D01*
X52685714Y-34359695D02*
X53066666Y-34359695D01*
X53066666Y-34359695D02*
X53066666Y-33559695D01*
X53066666Y-33559695D02*
X52685714Y-33559695D01*
X51885713Y-34283504D02*
X51923809Y-34321600D01*
X51923809Y-34321600D02*
X52038094Y-34359695D01*
X52038094Y-34359695D02*
X52114285Y-34359695D01*
X52114285Y-34359695D02*
X52228571Y-34321600D01*
X52228571Y-34321600D02*
X52304761Y-34245409D01*
X52304761Y-34245409D02*
X52342856Y-34169219D01*
X52342856Y-34169219D02*
X52380952Y-34016838D01*
X52380952Y-34016838D02*
X52380952Y-33902552D01*
X52380952Y-33902552D02*
X52342856Y-33750171D01*
X52342856Y-33750171D02*
X52304761Y-33673980D01*
X52304761Y-33673980D02*
X52228571Y-33597790D01*
X52228571Y-33597790D02*
X52114285Y-33559695D01*
X52114285Y-33559695D02*
X52038094Y-33559695D01*
X52038094Y-33559695D02*
X51923809Y-33597790D01*
X51923809Y-33597790D02*
X51885713Y-33635885D01*
X51657142Y-33559695D02*
X51199999Y-33559695D01*
X51428571Y-34359695D02*
X51428571Y-33559695D01*
X50323808Y-34359695D02*
X50323808Y-33559695D01*
X50323808Y-33559695D02*
X50057142Y-34131123D01*
X50057142Y-34131123D02*
X49790475Y-33559695D01*
X49790475Y-33559695D02*
X49790475Y-34359695D01*
X49447618Y-34131123D02*
X49066665Y-34131123D01*
X49523808Y-34359695D02*
X49257141Y-33559695D01*
X49257141Y-33559695D02*
X48990475Y-34359695D01*
X48723808Y-34359695D02*
X48723808Y-33559695D01*
X48342856Y-34359695D02*
X48342856Y-33559695D01*
X48342856Y-33559695D02*
X47885713Y-34359695D01*
X47885713Y-34359695D02*
X47885713Y-33559695D01*
X47542857Y-34321600D02*
X47428571Y-34359695D01*
X47428571Y-34359695D02*
X47238095Y-34359695D01*
X47238095Y-34359695D02*
X47161904Y-34321600D01*
X47161904Y-34321600D02*
X47123809Y-34283504D01*
X47123809Y-34283504D02*
X47085714Y-34207314D01*
X47085714Y-34207314D02*
X47085714Y-34131123D01*
X47085714Y-34131123D02*
X47123809Y-34054933D01*
X47123809Y-34054933D02*
X47161904Y-34016838D01*
X47161904Y-34016838D02*
X47238095Y-33978742D01*
X47238095Y-33978742D02*
X47390476Y-33940647D01*
X47390476Y-33940647D02*
X47466666Y-33902552D01*
X47466666Y-33902552D02*
X47504761Y-33864457D01*
X47504761Y-33864457D02*
X47542857Y-33788266D01*
X47542857Y-33788266D02*
X47542857Y-33712076D01*
X47542857Y-33712076D02*
X47504761Y-33635885D01*
X47504761Y-33635885D02*
X47466666Y-33597790D01*
X47466666Y-33597790D02*
X47390476Y-33559695D01*
X47390476Y-33559695D02*
X47199999Y-33559695D01*
X47199999Y-33559695D02*
X47085714Y-33597790D01*
X64342856Y-36059695D02*
X64342856Y-35259695D01*
X64000000Y-36021600D02*
X63885714Y-36059695D01*
X63885714Y-36059695D02*
X63695238Y-36059695D01*
X63695238Y-36059695D02*
X63619047Y-36021600D01*
X63619047Y-36021600D02*
X63580952Y-35983504D01*
X63580952Y-35983504D02*
X63542857Y-35907314D01*
X63542857Y-35907314D02*
X63542857Y-35831123D01*
X63542857Y-35831123D02*
X63580952Y-35754933D01*
X63580952Y-35754933D02*
X63619047Y-35716838D01*
X63619047Y-35716838D02*
X63695238Y-35678742D01*
X63695238Y-35678742D02*
X63847619Y-35640647D01*
X63847619Y-35640647D02*
X63923809Y-35602552D01*
X63923809Y-35602552D02*
X63961904Y-35564457D01*
X63961904Y-35564457D02*
X64000000Y-35488266D01*
X64000000Y-35488266D02*
X64000000Y-35412076D01*
X64000000Y-35412076D02*
X63961904Y-35335885D01*
X63961904Y-35335885D02*
X63923809Y-35297790D01*
X63923809Y-35297790D02*
X63847619Y-35259695D01*
X63847619Y-35259695D02*
X63657142Y-35259695D01*
X63657142Y-35259695D02*
X63542857Y-35297790D01*
X63047618Y-35259695D02*
X62895237Y-35259695D01*
X62895237Y-35259695D02*
X62819047Y-35297790D01*
X62819047Y-35297790D02*
X62742856Y-35373980D01*
X62742856Y-35373980D02*
X62704761Y-35526361D01*
X62704761Y-35526361D02*
X62704761Y-35793028D01*
X62704761Y-35793028D02*
X62742856Y-35945409D01*
X62742856Y-35945409D02*
X62819047Y-36021600D01*
X62819047Y-36021600D02*
X62895237Y-36059695D01*
X62895237Y-36059695D02*
X63047618Y-36059695D01*
X63047618Y-36059695D02*
X63123809Y-36021600D01*
X63123809Y-36021600D02*
X63199999Y-35945409D01*
X63199999Y-35945409D02*
X63238095Y-35793028D01*
X63238095Y-35793028D02*
X63238095Y-35526361D01*
X63238095Y-35526361D02*
X63199999Y-35373980D01*
X63199999Y-35373980D02*
X63123809Y-35297790D01*
X63123809Y-35297790D02*
X63047618Y-35259695D01*
X61980952Y-36059695D02*
X62361904Y-36059695D01*
X62361904Y-36059695D02*
X62361904Y-35259695D01*
X61752381Y-35831123D02*
X61371428Y-35831123D01*
X61828571Y-36059695D02*
X61561904Y-35259695D01*
X61561904Y-35259695D02*
X61295238Y-36059695D01*
X61142857Y-35259695D02*
X60685714Y-35259695D01*
X60914286Y-36059695D02*
X60914286Y-35259695D01*
X60419047Y-35640647D02*
X60152381Y-35640647D01*
X60038095Y-36059695D02*
X60419047Y-36059695D01*
X60419047Y-36059695D02*
X60419047Y-35259695D01*
X60419047Y-35259695D02*
X60038095Y-35259695D01*
X59695237Y-36059695D02*
X59695237Y-35259695D01*
X59695237Y-35259695D02*
X59504761Y-35259695D01*
X59504761Y-35259695D02*
X59390475Y-35297790D01*
X59390475Y-35297790D02*
X59314285Y-35373980D01*
X59314285Y-35373980D02*
X59276190Y-35450171D01*
X59276190Y-35450171D02*
X59238094Y-35602552D01*
X59238094Y-35602552D02*
X59238094Y-35716838D01*
X59238094Y-35716838D02*
X59276190Y-35869219D01*
X59276190Y-35869219D02*
X59314285Y-35945409D01*
X59314285Y-35945409D02*
X59390475Y-36021600D01*
X59390475Y-36021600D02*
X59504761Y-36059695D01*
X59504761Y-36059695D02*
X59695237Y-36059695D01*
X58247618Y-36059695D02*
X58095237Y-36059695D01*
X58095237Y-36059695D02*
X58019047Y-36021600D01*
X58019047Y-36021600D02*
X57980951Y-35983504D01*
X57980951Y-35983504D02*
X57904761Y-35869219D01*
X57904761Y-35869219D02*
X57866666Y-35716838D01*
X57866666Y-35716838D02*
X57866666Y-35412076D01*
X57866666Y-35412076D02*
X57904761Y-35335885D01*
X57904761Y-35335885D02*
X57942856Y-35297790D01*
X57942856Y-35297790D02*
X58019047Y-35259695D01*
X58019047Y-35259695D02*
X58171428Y-35259695D01*
X58171428Y-35259695D02*
X58247618Y-35297790D01*
X58247618Y-35297790D02*
X58285713Y-35335885D01*
X58285713Y-35335885D02*
X58323809Y-35412076D01*
X58323809Y-35412076D02*
X58323809Y-35602552D01*
X58323809Y-35602552D02*
X58285713Y-35678742D01*
X58285713Y-35678742D02*
X58247618Y-35716838D01*
X58247618Y-35716838D02*
X58171428Y-35754933D01*
X58171428Y-35754933D02*
X58019047Y-35754933D01*
X58019047Y-35754933D02*
X57942856Y-35716838D01*
X57942856Y-35716838D02*
X57904761Y-35678742D01*
X57904761Y-35678742D02*
X57866666Y-35602552D01*
X57638094Y-35259695D02*
X57371427Y-36059695D01*
X57371427Y-36059695D02*
X57104761Y-35259695D01*
X56876190Y-35831123D02*
X56495237Y-35831123D01*
X56952380Y-36059695D02*
X56685713Y-35259695D01*
X56685713Y-35259695D02*
X56419047Y-36059695D01*
X55695237Y-35983504D02*
X55733333Y-36021600D01*
X55733333Y-36021600D02*
X55847618Y-36059695D01*
X55847618Y-36059695D02*
X55923809Y-36059695D01*
X55923809Y-36059695D02*
X56038095Y-36021600D01*
X56038095Y-36021600D02*
X56114285Y-35945409D01*
X56114285Y-35945409D02*
X56152380Y-35869219D01*
X56152380Y-35869219D02*
X56190476Y-35716838D01*
X56190476Y-35716838D02*
X56190476Y-35602552D01*
X56190476Y-35602552D02*
X56152380Y-35450171D01*
X56152380Y-35450171D02*
X56114285Y-35373980D01*
X56114285Y-35373980D02*
X56038095Y-35297790D01*
X56038095Y-35297790D02*
X55923809Y-35259695D01*
X55923809Y-35259695D02*
X55847618Y-35259695D01*
X55847618Y-35259695D02*
X55733333Y-35297790D01*
X55733333Y-35297790D02*
X55695237Y-35335885D01*
X54742856Y-35754933D02*
X54133333Y-35754933D01*
X54438094Y-36059695D02*
X54438094Y-35450171D01*
X52685713Y-35983504D02*
X52723809Y-36021600D01*
X52723809Y-36021600D02*
X52838094Y-36059695D01*
X52838094Y-36059695D02*
X52914285Y-36059695D01*
X52914285Y-36059695D02*
X53028571Y-36021600D01*
X53028571Y-36021600D02*
X53104761Y-35945409D01*
X53104761Y-35945409D02*
X53142856Y-35869219D01*
X53142856Y-35869219D02*
X53180952Y-35716838D01*
X53180952Y-35716838D02*
X53180952Y-35602552D01*
X53180952Y-35602552D02*
X53142856Y-35450171D01*
X53142856Y-35450171D02*
X53104761Y-35373980D01*
X53104761Y-35373980D02*
X53028571Y-35297790D01*
X53028571Y-35297790D02*
X52914285Y-35259695D01*
X52914285Y-35259695D02*
X52838094Y-35259695D01*
X52838094Y-35259695D02*
X52723809Y-35297790D01*
X52723809Y-35297790D02*
X52685713Y-35335885D01*
X52457142Y-35259695D02*
X51999999Y-35259695D01*
X52228571Y-36059695D02*
X52228571Y-35259695D01*
X51123808Y-36059695D02*
X51123808Y-35259695D01*
X50742856Y-36059695D02*
X50742856Y-35259695D01*
X50742856Y-35259695D02*
X50285713Y-36059695D01*
X50285713Y-36059695D02*
X50285713Y-35259695D01*
X49904761Y-36059695D02*
X49904761Y-35259695D01*
X49904761Y-35259695D02*
X49599999Y-35259695D01*
X49599999Y-35259695D02*
X49523809Y-35297790D01*
X49523809Y-35297790D02*
X49485714Y-35335885D01*
X49485714Y-35335885D02*
X49447618Y-35412076D01*
X49447618Y-35412076D02*
X49447618Y-35526361D01*
X49447618Y-35526361D02*
X49485714Y-35602552D01*
X49485714Y-35602552D02*
X49523809Y-35640647D01*
X49523809Y-35640647D02*
X49599999Y-35678742D01*
X49599999Y-35678742D02*
X49904761Y-35678742D01*
X49104761Y-35259695D02*
X49104761Y-35907314D01*
X49104761Y-35907314D02*
X49066666Y-35983504D01*
X49066666Y-35983504D02*
X49028571Y-36021600D01*
X49028571Y-36021600D02*
X48952380Y-36059695D01*
X48952380Y-36059695D02*
X48799999Y-36059695D01*
X48799999Y-36059695D02*
X48723809Y-36021600D01*
X48723809Y-36021600D02*
X48685714Y-35983504D01*
X48685714Y-35983504D02*
X48647618Y-35907314D01*
X48647618Y-35907314D02*
X48647618Y-35259695D01*
X48380952Y-35259695D02*
X47923809Y-35259695D01*
X48152381Y-36059695D02*
X48152381Y-35259695D01*
X47695238Y-36021600D02*
X47580952Y-36059695D01*
X47580952Y-36059695D02*
X47390476Y-36059695D01*
X47390476Y-36059695D02*
X47314285Y-36021600D01*
X47314285Y-36021600D02*
X47276190Y-35983504D01*
X47276190Y-35983504D02*
X47238095Y-35907314D01*
X47238095Y-35907314D02*
X47238095Y-35831123D01*
X47238095Y-35831123D02*
X47276190Y-35754933D01*
X47276190Y-35754933D02*
X47314285Y-35716838D01*
X47314285Y-35716838D02*
X47390476Y-35678742D01*
X47390476Y-35678742D02*
X47542857Y-35640647D01*
X47542857Y-35640647D02*
X47619047Y-35602552D01*
X47619047Y-35602552D02*
X47657142Y-35564457D01*
X47657142Y-35564457D02*
X47695238Y-35488266D01*
X47695238Y-35488266D02*
X47695238Y-35412076D01*
X47695238Y-35412076D02*
X47657142Y-35335885D01*
X47657142Y-35335885D02*
X47619047Y-35297790D01*
X47619047Y-35297790D02*
X47542857Y-35259695D01*
X47542857Y-35259695D02*
X47352380Y-35259695D01*
X47352380Y-35259695D02*
X47238095Y-35297790D01*
X46133332Y-35259695D02*
X45980951Y-35259695D01*
X45980951Y-35259695D02*
X45904761Y-35297790D01*
X45904761Y-35297790D02*
X45828570Y-35373980D01*
X45828570Y-35373980D02*
X45790475Y-35526361D01*
X45790475Y-35526361D02*
X45790475Y-35793028D01*
X45790475Y-35793028D02*
X45828570Y-35945409D01*
X45828570Y-35945409D02*
X45904761Y-36021600D01*
X45904761Y-36021600D02*
X45980951Y-36059695D01*
X45980951Y-36059695D02*
X46133332Y-36059695D01*
X46133332Y-36059695D02*
X46209523Y-36021600D01*
X46209523Y-36021600D02*
X46285713Y-35945409D01*
X46285713Y-35945409D02*
X46323809Y-35793028D01*
X46323809Y-35793028D02*
X46323809Y-35526361D01*
X46323809Y-35526361D02*
X46285713Y-35373980D01*
X46285713Y-35373980D02*
X46209523Y-35297790D01*
X46209523Y-35297790D02*
X46133332Y-35259695D01*
X45447618Y-36059695D02*
X45447618Y-35259695D01*
X45447618Y-35259695D02*
X44990475Y-36059695D01*
X44990475Y-36059695D02*
X44990475Y-35259695D01*
X44228571Y-36059695D02*
X44609523Y-36059695D01*
X44609523Y-36059695D02*
X44609523Y-35259695D01*
X43809523Y-35678742D02*
X43809523Y-36059695D01*
X44076190Y-35259695D02*
X43809523Y-35678742D01*
X43809523Y-35678742D02*
X43542857Y-35259695D01*
X87319047Y-33321600D02*
X87204761Y-33359695D01*
X87204761Y-33359695D02*
X87014285Y-33359695D01*
X87014285Y-33359695D02*
X86938094Y-33321600D01*
X86938094Y-33321600D02*
X86899999Y-33283504D01*
X86899999Y-33283504D02*
X86861904Y-33207314D01*
X86861904Y-33207314D02*
X86861904Y-33131123D01*
X86861904Y-33131123D02*
X86899999Y-33054933D01*
X86899999Y-33054933D02*
X86938094Y-33016838D01*
X86938094Y-33016838D02*
X87014285Y-32978742D01*
X87014285Y-32978742D02*
X87166666Y-32940647D01*
X87166666Y-32940647D02*
X87242856Y-32902552D01*
X87242856Y-32902552D02*
X87280951Y-32864457D01*
X87280951Y-32864457D02*
X87319047Y-32788266D01*
X87319047Y-32788266D02*
X87319047Y-32712076D01*
X87319047Y-32712076D02*
X87280951Y-32635885D01*
X87280951Y-32635885D02*
X87242856Y-32597790D01*
X87242856Y-32597790D02*
X87166666Y-32559695D01*
X87166666Y-32559695D02*
X86976189Y-32559695D01*
X86976189Y-32559695D02*
X86861904Y-32597790D01*
X86519046Y-33359695D02*
X86519046Y-32559695D01*
X86519046Y-32559695D02*
X86214284Y-32559695D01*
X86214284Y-32559695D02*
X86138094Y-32597790D01*
X86138094Y-32597790D02*
X86099999Y-32635885D01*
X86099999Y-32635885D02*
X86061903Y-32712076D01*
X86061903Y-32712076D02*
X86061903Y-32826361D01*
X86061903Y-32826361D02*
X86099999Y-32902552D01*
X86099999Y-32902552D02*
X86138094Y-32940647D01*
X86138094Y-32940647D02*
X86214284Y-32978742D01*
X86214284Y-32978742D02*
X86519046Y-32978742D01*
X85719046Y-33359695D02*
X85719046Y-32559695D01*
X29859695Y-28604761D02*
X29859695Y-28223809D01*
X29859695Y-28223809D02*
X29059695Y-28223809D01*
X29440647Y-28871428D02*
X29440647Y-29138094D01*
X29859695Y-29252380D02*
X29859695Y-28871428D01*
X29859695Y-28871428D02*
X29059695Y-28871428D01*
X29059695Y-28871428D02*
X29059695Y-29252380D01*
X29859695Y-29595238D02*
X29059695Y-29595238D01*
X29059695Y-29595238D02*
X29059695Y-29785714D01*
X29059695Y-29785714D02*
X29097790Y-29900000D01*
X29097790Y-29900000D02*
X29173980Y-29976190D01*
X29173980Y-29976190D02*
X29250171Y-30014285D01*
X29250171Y-30014285D02*
X29402552Y-30052381D01*
X29402552Y-30052381D02*
X29516838Y-30052381D01*
X29516838Y-30052381D02*
X29669219Y-30014285D01*
X29669219Y-30014285D02*
X29745409Y-29976190D01*
X29745409Y-29976190D02*
X29821600Y-29900000D01*
X29821600Y-29900000D02*
X29859695Y-29785714D01*
X29859695Y-29785714D02*
X29859695Y-29595238D01*
X29859695Y-30814285D02*
X29859695Y-30357142D01*
X29859695Y-30585714D02*
X29059695Y-30585714D01*
X29059695Y-30585714D02*
X29173980Y-30509523D01*
X29173980Y-30509523D02*
X29250171Y-30433333D01*
X29250171Y-30433333D02*
X29288266Y-30357142D01*
X31559695Y-61657143D02*
X32359695Y-61923810D01*
X32359695Y-61923810D02*
X31559695Y-62190476D01*
X32359695Y-62876190D02*
X32359695Y-62419047D01*
X32359695Y-62647619D02*
X31559695Y-62647619D01*
X31559695Y-62647619D02*
X31673980Y-62571428D01*
X31673980Y-62571428D02*
X31750171Y-62495238D01*
X31750171Y-62495238D02*
X31788266Y-62419047D01*
X32054933Y-63219048D02*
X32054933Y-63828572D01*
X32359695Y-63523810D02*
X31750171Y-63523810D01*
X34099695Y-61657143D02*
X34899695Y-61923810D01*
X34899695Y-61923810D02*
X34099695Y-62190476D01*
X34899695Y-62876190D02*
X34899695Y-62419047D01*
X34899695Y-62647619D02*
X34099695Y-62647619D01*
X34099695Y-62647619D02*
X34213980Y-62571428D01*
X34213980Y-62571428D02*
X34290171Y-62495238D01*
X34290171Y-62495238D02*
X34328266Y-62419047D01*
X34594933Y-63219048D02*
X34594933Y-63828572D01*
X35359695Y-28604761D02*
X35359695Y-28223809D01*
X35359695Y-28223809D02*
X34559695Y-28223809D01*
X34940647Y-28871428D02*
X34940647Y-29138094D01*
X35359695Y-29252380D02*
X35359695Y-28871428D01*
X35359695Y-28871428D02*
X34559695Y-28871428D01*
X34559695Y-28871428D02*
X34559695Y-29252380D01*
X35359695Y-29595238D02*
X34559695Y-29595238D01*
X34559695Y-29595238D02*
X34559695Y-29785714D01*
X34559695Y-29785714D02*
X34597790Y-29900000D01*
X34597790Y-29900000D02*
X34673980Y-29976190D01*
X34673980Y-29976190D02*
X34750171Y-30014285D01*
X34750171Y-30014285D02*
X34902552Y-30052381D01*
X34902552Y-30052381D02*
X35016838Y-30052381D01*
X35016838Y-30052381D02*
X35169219Y-30014285D01*
X35169219Y-30014285D02*
X35245409Y-29976190D01*
X35245409Y-29976190D02*
X35321600Y-29900000D01*
X35321600Y-29900000D02*
X35359695Y-29785714D01*
X35359695Y-29785714D02*
X35359695Y-29595238D01*
X34635885Y-30357142D02*
X34597790Y-30395238D01*
X34597790Y-30395238D02*
X34559695Y-30471428D01*
X34559695Y-30471428D02*
X34559695Y-30661904D01*
X34559695Y-30661904D02*
X34597790Y-30738095D01*
X34597790Y-30738095D02*
X34635885Y-30776190D01*
X34635885Y-30776190D02*
X34712076Y-30814285D01*
X34712076Y-30814285D02*
X34788266Y-30814285D01*
X34788266Y-30814285D02*
X34902552Y-30776190D01*
X34902552Y-30776190D02*
X35359695Y-30319047D01*
X35359695Y-30319047D02*
X35359695Y-30814285D01*
X36639695Y-61657143D02*
X37439695Y-61923810D01*
X37439695Y-61923810D02*
X36639695Y-62190476D01*
X36715885Y-62419047D02*
X36677790Y-62457143D01*
X36677790Y-62457143D02*
X36639695Y-62533333D01*
X36639695Y-62533333D02*
X36639695Y-62723809D01*
X36639695Y-62723809D02*
X36677790Y-62800000D01*
X36677790Y-62800000D02*
X36715885Y-62838095D01*
X36715885Y-62838095D02*
X36792076Y-62876190D01*
X36792076Y-62876190D02*
X36868266Y-62876190D01*
X36868266Y-62876190D02*
X36982552Y-62838095D01*
X36982552Y-62838095D02*
X37439695Y-62380952D01*
X37439695Y-62380952D02*
X37439695Y-62876190D01*
X37134933Y-63219048D02*
X37134933Y-63828572D01*
X37439695Y-63523810D02*
X36830171Y-63523810D01*
X39179695Y-61657143D02*
X39979695Y-61923810D01*
X39979695Y-61923810D02*
X39179695Y-62190476D01*
X39255885Y-62419047D02*
X39217790Y-62457143D01*
X39217790Y-62457143D02*
X39179695Y-62533333D01*
X39179695Y-62533333D02*
X39179695Y-62723809D01*
X39179695Y-62723809D02*
X39217790Y-62800000D01*
X39217790Y-62800000D02*
X39255885Y-62838095D01*
X39255885Y-62838095D02*
X39332076Y-62876190D01*
X39332076Y-62876190D02*
X39408266Y-62876190D01*
X39408266Y-62876190D02*
X39522552Y-62838095D01*
X39522552Y-62838095D02*
X39979695Y-62380952D01*
X39979695Y-62380952D02*
X39979695Y-62876190D01*
X39674933Y-63219048D02*
X39674933Y-63828572D01*
X40783504Y-27423810D02*
X40821600Y-27385714D01*
X40821600Y-27385714D02*
X40859695Y-27271429D01*
X40859695Y-27271429D02*
X40859695Y-27195238D01*
X40859695Y-27195238D02*
X40821600Y-27080952D01*
X40821600Y-27080952D02*
X40745409Y-27004762D01*
X40745409Y-27004762D02*
X40669219Y-26966667D01*
X40669219Y-26966667D02*
X40516838Y-26928571D01*
X40516838Y-26928571D02*
X40402552Y-26928571D01*
X40402552Y-26928571D02*
X40250171Y-26966667D01*
X40250171Y-26966667D02*
X40173980Y-27004762D01*
X40173980Y-27004762D02*
X40097790Y-27080952D01*
X40097790Y-27080952D02*
X40059695Y-27195238D01*
X40059695Y-27195238D02*
X40059695Y-27271429D01*
X40059695Y-27271429D02*
X40097790Y-27385714D01*
X40097790Y-27385714D02*
X40135885Y-27423810D01*
X40859695Y-28147619D02*
X40859695Y-27766667D01*
X40859695Y-27766667D02*
X40059695Y-27766667D01*
X40859695Y-28414286D02*
X40059695Y-28414286D01*
X40859695Y-28871429D02*
X40402552Y-28528571D01*
X40059695Y-28871429D02*
X40516838Y-28414286D01*
X40021600Y-29785714D02*
X41050171Y-29100000D01*
X40059695Y-29976190D02*
X40059695Y-30509524D01*
X40059695Y-30509524D02*
X40859695Y-29976190D01*
X40859695Y-29976190D02*
X40859695Y-30509524D01*
X40783504Y-31271429D02*
X40821600Y-31233333D01*
X40821600Y-31233333D02*
X40859695Y-31119048D01*
X40859695Y-31119048D02*
X40859695Y-31042857D01*
X40859695Y-31042857D02*
X40821600Y-30928571D01*
X40821600Y-30928571D02*
X40745409Y-30852381D01*
X40745409Y-30852381D02*
X40669219Y-30814286D01*
X40669219Y-30814286D02*
X40516838Y-30776190D01*
X40516838Y-30776190D02*
X40402552Y-30776190D01*
X40402552Y-30776190D02*
X40250171Y-30814286D01*
X40250171Y-30814286D02*
X40173980Y-30852381D01*
X40173980Y-30852381D02*
X40097790Y-30928571D01*
X40097790Y-30928571D02*
X40059695Y-31042857D01*
X40059695Y-31042857D02*
X40059695Y-31119048D01*
X40059695Y-31119048D02*
X40097790Y-31233333D01*
X40097790Y-31233333D02*
X40135885Y-31271429D01*
X40859695Y-32071429D02*
X40478742Y-31804762D01*
X40859695Y-31614286D02*
X40059695Y-31614286D01*
X40059695Y-31614286D02*
X40059695Y-31919048D01*
X40059695Y-31919048D02*
X40097790Y-31995238D01*
X40097790Y-31995238D02*
X40135885Y-32033333D01*
X40135885Y-32033333D02*
X40212076Y-32071429D01*
X40212076Y-32071429D02*
X40326361Y-32071429D01*
X40326361Y-32071429D02*
X40402552Y-32033333D01*
X40402552Y-32033333D02*
X40440647Y-31995238D01*
X40440647Y-31995238D02*
X40478742Y-31919048D01*
X40478742Y-31919048D02*
X40478742Y-31614286D01*
X42443504Y-61866667D02*
X42481600Y-61828571D01*
X42481600Y-61828571D02*
X42519695Y-61714286D01*
X42519695Y-61714286D02*
X42519695Y-61638095D01*
X42519695Y-61638095D02*
X42481600Y-61523809D01*
X42481600Y-61523809D02*
X42405409Y-61447619D01*
X42405409Y-61447619D02*
X42329219Y-61409524D01*
X42329219Y-61409524D02*
X42176838Y-61371428D01*
X42176838Y-61371428D02*
X42062552Y-61371428D01*
X42062552Y-61371428D02*
X41910171Y-61409524D01*
X41910171Y-61409524D02*
X41833980Y-61447619D01*
X41833980Y-61447619D02*
X41757790Y-61523809D01*
X41757790Y-61523809D02*
X41719695Y-61638095D01*
X41719695Y-61638095D02*
X41719695Y-61714286D01*
X41719695Y-61714286D02*
X41757790Y-61828571D01*
X41757790Y-61828571D02*
X41795885Y-61866667D01*
X41719695Y-62095238D02*
X41719695Y-62552381D01*
X42519695Y-62323809D02*
X41719695Y-62323809D01*
X42519695Y-63238095D02*
X42519695Y-62780952D01*
X42519695Y-63009524D02*
X41719695Y-63009524D01*
X41719695Y-63009524D02*
X41833980Y-62933333D01*
X41833980Y-62933333D02*
X41910171Y-62857143D01*
X41910171Y-62857143D02*
X41948266Y-62780952D01*
X42214933Y-63580953D02*
X42214933Y-64190477D01*
X42519695Y-63885715D02*
X41910171Y-63885715D01*
X44983504Y-61866667D02*
X45021600Y-61828571D01*
X45021600Y-61828571D02*
X45059695Y-61714286D01*
X45059695Y-61714286D02*
X45059695Y-61638095D01*
X45059695Y-61638095D02*
X45021600Y-61523809D01*
X45021600Y-61523809D02*
X44945409Y-61447619D01*
X44945409Y-61447619D02*
X44869219Y-61409524D01*
X44869219Y-61409524D02*
X44716838Y-61371428D01*
X44716838Y-61371428D02*
X44602552Y-61371428D01*
X44602552Y-61371428D02*
X44450171Y-61409524D01*
X44450171Y-61409524D02*
X44373980Y-61447619D01*
X44373980Y-61447619D02*
X44297790Y-61523809D01*
X44297790Y-61523809D02*
X44259695Y-61638095D01*
X44259695Y-61638095D02*
X44259695Y-61714286D01*
X44259695Y-61714286D02*
X44297790Y-61828571D01*
X44297790Y-61828571D02*
X44335885Y-61866667D01*
X44259695Y-62095238D02*
X44259695Y-62552381D01*
X45059695Y-62323809D02*
X44259695Y-62323809D01*
X45059695Y-63238095D02*
X45059695Y-62780952D01*
X45059695Y-63009524D02*
X44259695Y-63009524D01*
X44259695Y-63009524D02*
X44373980Y-62933333D01*
X44373980Y-62933333D02*
X44450171Y-62857143D01*
X44450171Y-62857143D02*
X44488266Y-62780952D01*
X44754933Y-63580953D02*
X44754933Y-64190477D01*
X47523504Y-61866667D02*
X47561600Y-61828571D01*
X47561600Y-61828571D02*
X47599695Y-61714286D01*
X47599695Y-61714286D02*
X47599695Y-61638095D01*
X47599695Y-61638095D02*
X47561600Y-61523809D01*
X47561600Y-61523809D02*
X47485409Y-61447619D01*
X47485409Y-61447619D02*
X47409219Y-61409524D01*
X47409219Y-61409524D02*
X47256838Y-61371428D01*
X47256838Y-61371428D02*
X47142552Y-61371428D01*
X47142552Y-61371428D02*
X46990171Y-61409524D01*
X46990171Y-61409524D02*
X46913980Y-61447619D01*
X46913980Y-61447619D02*
X46837790Y-61523809D01*
X46837790Y-61523809D02*
X46799695Y-61638095D01*
X46799695Y-61638095D02*
X46799695Y-61714286D01*
X46799695Y-61714286D02*
X46837790Y-61828571D01*
X46837790Y-61828571D02*
X46875885Y-61866667D01*
X46799695Y-62095238D02*
X46799695Y-62552381D01*
X47599695Y-62323809D02*
X46799695Y-62323809D01*
X46875885Y-62780952D02*
X46837790Y-62819048D01*
X46837790Y-62819048D02*
X46799695Y-62895238D01*
X46799695Y-62895238D02*
X46799695Y-63085714D01*
X46799695Y-63085714D02*
X46837790Y-63161905D01*
X46837790Y-63161905D02*
X46875885Y-63200000D01*
X46875885Y-63200000D02*
X46952076Y-63238095D01*
X46952076Y-63238095D02*
X47028266Y-63238095D01*
X47028266Y-63238095D02*
X47142552Y-63200000D01*
X47142552Y-63200000D02*
X47599695Y-62742857D01*
X47599695Y-62742857D02*
X47599695Y-63238095D01*
X47294933Y-63580953D02*
X47294933Y-64190477D01*
X47599695Y-63885715D02*
X46990171Y-63885715D01*
X50063504Y-61866667D02*
X50101600Y-61828571D01*
X50101600Y-61828571D02*
X50139695Y-61714286D01*
X50139695Y-61714286D02*
X50139695Y-61638095D01*
X50139695Y-61638095D02*
X50101600Y-61523809D01*
X50101600Y-61523809D02*
X50025409Y-61447619D01*
X50025409Y-61447619D02*
X49949219Y-61409524D01*
X49949219Y-61409524D02*
X49796838Y-61371428D01*
X49796838Y-61371428D02*
X49682552Y-61371428D01*
X49682552Y-61371428D02*
X49530171Y-61409524D01*
X49530171Y-61409524D02*
X49453980Y-61447619D01*
X49453980Y-61447619D02*
X49377790Y-61523809D01*
X49377790Y-61523809D02*
X49339695Y-61638095D01*
X49339695Y-61638095D02*
X49339695Y-61714286D01*
X49339695Y-61714286D02*
X49377790Y-61828571D01*
X49377790Y-61828571D02*
X49415885Y-61866667D01*
X49339695Y-62095238D02*
X49339695Y-62552381D01*
X50139695Y-62323809D02*
X49339695Y-62323809D01*
X49415885Y-62780952D02*
X49377790Y-62819048D01*
X49377790Y-62819048D02*
X49339695Y-62895238D01*
X49339695Y-62895238D02*
X49339695Y-63085714D01*
X49339695Y-63085714D02*
X49377790Y-63161905D01*
X49377790Y-63161905D02*
X49415885Y-63200000D01*
X49415885Y-63200000D02*
X49492076Y-63238095D01*
X49492076Y-63238095D02*
X49568266Y-63238095D01*
X49568266Y-63238095D02*
X49682552Y-63200000D01*
X49682552Y-63200000D02*
X50139695Y-62742857D01*
X50139695Y-62742857D02*
X50139695Y-63238095D01*
X49834933Y-63580953D02*
X49834933Y-64190477D01*
X61559695Y-61809523D02*
X61559695Y-62304761D01*
X61559695Y-62304761D02*
X61864457Y-62038095D01*
X61864457Y-62038095D02*
X61864457Y-62152380D01*
X61864457Y-62152380D02*
X61902552Y-62228571D01*
X61902552Y-62228571D02*
X61940647Y-62266666D01*
X61940647Y-62266666D02*
X62016838Y-62304761D01*
X62016838Y-62304761D02*
X62207314Y-62304761D01*
X62207314Y-62304761D02*
X62283504Y-62266666D01*
X62283504Y-62266666D02*
X62321600Y-62228571D01*
X62321600Y-62228571D02*
X62359695Y-62152380D01*
X62359695Y-62152380D02*
X62359695Y-61923809D01*
X62359695Y-61923809D02*
X62321600Y-61847618D01*
X62321600Y-61847618D02*
X62283504Y-61809523D01*
X61559695Y-62533333D02*
X62359695Y-62800000D01*
X62359695Y-62800000D02*
X61559695Y-63066666D01*
X61559695Y-63257142D02*
X61559695Y-63752380D01*
X61559695Y-63752380D02*
X61864457Y-63485714D01*
X61864457Y-63485714D02*
X61864457Y-63599999D01*
X61864457Y-63599999D02*
X61902552Y-63676190D01*
X61902552Y-63676190D02*
X61940647Y-63714285D01*
X61940647Y-63714285D02*
X62016838Y-63752380D01*
X62016838Y-63752380D02*
X62207314Y-63752380D01*
X62207314Y-63752380D02*
X62283504Y-63714285D01*
X62283504Y-63714285D02*
X62321600Y-63676190D01*
X62321600Y-63676190D02*
X62359695Y-63599999D01*
X62359695Y-63599999D02*
X62359695Y-63371428D01*
X62359695Y-63371428D02*
X62321600Y-63295237D01*
X62321600Y-63295237D02*
X62283504Y-63257142D01*
X64137790Y-62190476D02*
X64099695Y-62114286D01*
X64099695Y-62114286D02*
X64099695Y-62000000D01*
X64099695Y-62000000D02*
X64137790Y-61885714D01*
X64137790Y-61885714D02*
X64213980Y-61809524D01*
X64213980Y-61809524D02*
X64290171Y-61771429D01*
X64290171Y-61771429D02*
X64442552Y-61733333D01*
X64442552Y-61733333D02*
X64556838Y-61733333D01*
X64556838Y-61733333D02*
X64709219Y-61771429D01*
X64709219Y-61771429D02*
X64785409Y-61809524D01*
X64785409Y-61809524D02*
X64861600Y-61885714D01*
X64861600Y-61885714D02*
X64899695Y-62000000D01*
X64899695Y-62000000D02*
X64899695Y-62076191D01*
X64899695Y-62076191D02*
X64861600Y-62190476D01*
X64861600Y-62190476D02*
X64823504Y-62228572D01*
X64823504Y-62228572D02*
X64556838Y-62228572D01*
X64556838Y-62228572D02*
X64556838Y-62076191D01*
X64899695Y-62571429D02*
X64099695Y-62571429D01*
X64099695Y-62571429D02*
X64899695Y-63028572D01*
X64899695Y-63028572D02*
X64099695Y-63028572D01*
X64899695Y-63409524D02*
X64099695Y-63409524D01*
X64099695Y-63409524D02*
X64099695Y-63600000D01*
X64099695Y-63600000D02*
X64137790Y-63714286D01*
X64137790Y-63714286D02*
X64213980Y-63790476D01*
X64213980Y-63790476D02*
X64290171Y-63828571D01*
X64290171Y-63828571D02*
X64442552Y-63866667D01*
X64442552Y-63866667D02*
X64556838Y-63866667D01*
X64556838Y-63866667D02*
X64709219Y-63828571D01*
X64709219Y-63828571D02*
X64785409Y-63790476D01*
X64785409Y-63790476D02*
X64861600Y-63714286D01*
X64861600Y-63714286D02*
X64899695Y-63600000D01*
X64899695Y-63600000D02*
X64899695Y-63409524D01*
X67401600Y-61790475D02*
X67439695Y-61904761D01*
X67439695Y-61904761D02*
X67439695Y-62095237D01*
X67439695Y-62095237D02*
X67401600Y-62171428D01*
X67401600Y-62171428D02*
X67363504Y-62209523D01*
X67363504Y-62209523D02*
X67287314Y-62247618D01*
X67287314Y-62247618D02*
X67211123Y-62247618D01*
X67211123Y-62247618D02*
X67134933Y-62209523D01*
X67134933Y-62209523D02*
X67096838Y-62171428D01*
X67096838Y-62171428D02*
X67058742Y-62095237D01*
X67058742Y-62095237D02*
X67020647Y-61942856D01*
X67020647Y-61942856D02*
X66982552Y-61866666D01*
X66982552Y-61866666D02*
X66944457Y-61828571D01*
X66944457Y-61828571D02*
X66868266Y-61790475D01*
X66868266Y-61790475D02*
X66792076Y-61790475D01*
X66792076Y-61790475D02*
X66715885Y-61828571D01*
X66715885Y-61828571D02*
X66677790Y-61866666D01*
X66677790Y-61866666D02*
X66639695Y-61942856D01*
X66639695Y-61942856D02*
X66639695Y-62133333D01*
X66639695Y-62133333D02*
X66677790Y-62247618D01*
X67363504Y-63047619D02*
X67401600Y-63009523D01*
X67401600Y-63009523D02*
X67439695Y-62895238D01*
X67439695Y-62895238D02*
X67439695Y-62819047D01*
X67439695Y-62819047D02*
X67401600Y-62704761D01*
X67401600Y-62704761D02*
X67325409Y-62628571D01*
X67325409Y-62628571D02*
X67249219Y-62590476D01*
X67249219Y-62590476D02*
X67096838Y-62552380D01*
X67096838Y-62552380D02*
X66982552Y-62552380D01*
X66982552Y-62552380D02*
X66830171Y-62590476D01*
X66830171Y-62590476D02*
X66753980Y-62628571D01*
X66753980Y-62628571D02*
X66677790Y-62704761D01*
X66677790Y-62704761D02*
X66639695Y-62819047D01*
X66639695Y-62819047D02*
X66639695Y-62895238D01*
X66639695Y-62895238D02*
X66677790Y-63009523D01*
X66677790Y-63009523D02*
X66715885Y-63047619D01*
X67401600Y-63352380D02*
X67439695Y-63466666D01*
X67439695Y-63466666D02*
X67439695Y-63657142D01*
X67439695Y-63657142D02*
X67401600Y-63733333D01*
X67401600Y-63733333D02*
X67363504Y-63771428D01*
X67363504Y-63771428D02*
X67287314Y-63809523D01*
X67287314Y-63809523D02*
X67211123Y-63809523D01*
X67211123Y-63809523D02*
X67134933Y-63771428D01*
X67134933Y-63771428D02*
X67096838Y-63733333D01*
X67096838Y-63733333D02*
X67058742Y-63657142D01*
X67058742Y-63657142D02*
X67020647Y-63504761D01*
X67020647Y-63504761D02*
X66982552Y-63428571D01*
X66982552Y-63428571D02*
X66944457Y-63390476D01*
X66944457Y-63390476D02*
X66868266Y-63352380D01*
X66868266Y-63352380D02*
X66792076Y-63352380D01*
X66792076Y-63352380D02*
X66715885Y-63390476D01*
X66715885Y-63390476D02*
X66677790Y-63428571D01*
X66677790Y-63428571D02*
X66639695Y-63504761D01*
X66639695Y-63504761D02*
X66639695Y-63695238D01*
X66639695Y-63695238D02*
X66677790Y-63809523D01*
X69941600Y-61847618D02*
X69979695Y-61961904D01*
X69979695Y-61961904D02*
X69979695Y-62152380D01*
X69979695Y-62152380D02*
X69941600Y-62228571D01*
X69941600Y-62228571D02*
X69903504Y-62266666D01*
X69903504Y-62266666D02*
X69827314Y-62304761D01*
X69827314Y-62304761D02*
X69751123Y-62304761D01*
X69751123Y-62304761D02*
X69674933Y-62266666D01*
X69674933Y-62266666D02*
X69636838Y-62228571D01*
X69636838Y-62228571D02*
X69598742Y-62152380D01*
X69598742Y-62152380D02*
X69560647Y-61999999D01*
X69560647Y-61999999D02*
X69522552Y-61923809D01*
X69522552Y-61923809D02*
X69484457Y-61885714D01*
X69484457Y-61885714D02*
X69408266Y-61847618D01*
X69408266Y-61847618D02*
X69332076Y-61847618D01*
X69332076Y-61847618D02*
X69255885Y-61885714D01*
X69255885Y-61885714D02*
X69217790Y-61923809D01*
X69217790Y-61923809D02*
X69179695Y-61999999D01*
X69179695Y-61999999D02*
X69179695Y-62190476D01*
X69179695Y-62190476D02*
X69217790Y-62304761D01*
X69903504Y-63104762D02*
X69941600Y-63066666D01*
X69941600Y-63066666D02*
X69979695Y-62952381D01*
X69979695Y-62952381D02*
X69979695Y-62876190D01*
X69979695Y-62876190D02*
X69941600Y-62761904D01*
X69941600Y-62761904D02*
X69865409Y-62685714D01*
X69865409Y-62685714D02*
X69789219Y-62647619D01*
X69789219Y-62647619D02*
X69636838Y-62609523D01*
X69636838Y-62609523D02*
X69522552Y-62609523D01*
X69522552Y-62609523D02*
X69370171Y-62647619D01*
X69370171Y-62647619D02*
X69293980Y-62685714D01*
X69293980Y-62685714D02*
X69217790Y-62761904D01*
X69217790Y-62761904D02*
X69179695Y-62876190D01*
X69179695Y-62876190D02*
X69179695Y-62952381D01*
X69179695Y-62952381D02*
X69217790Y-63066666D01*
X69217790Y-63066666D02*
X69255885Y-63104762D01*
X69979695Y-63828571D02*
X69979695Y-63447619D01*
X69979695Y-63447619D02*
X69179695Y-63447619D01*
X72519695Y-61542857D02*
X71719695Y-61542857D01*
X71719695Y-61542857D02*
X72291123Y-61809523D01*
X72291123Y-61809523D02*
X71719695Y-62076190D01*
X71719695Y-62076190D02*
X72519695Y-62076190D01*
X71719695Y-62609524D02*
X71719695Y-62761905D01*
X71719695Y-62761905D02*
X71757790Y-62838095D01*
X71757790Y-62838095D02*
X71833980Y-62914286D01*
X71833980Y-62914286D02*
X71986361Y-62952381D01*
X71986361Y-62952381D02*
X72253028Y-62952381D01*
X72253028Y-62952381D02*
X72405409Y-62914286D01*
X72405409Y-62914286D02*
X72481600Y-62838095D01*
X72481600Y-62838095D02*
X72519695Y-62761905D01*
X72519695Y-62761905D02*
X72519695Y-62609524D01*
X72519695Y-62609524D02*
X72481600Y-62533333D01*
X72481600Y-62533333D02*
X72405409Y-62457143D01*
X72405409Y-62457143D02*
X72253028Y-62419047D01*
X72253028Y-62419047D02*
X71986361Y-62419047D01*
X71986361Y-62419047D02*
X71833980Y-62457143D01*
X71833980Y-62457143D02*
X71757790Y-62533333D01*
X71757790Y-62533333D02*
X71719695Y-62609524D01*
X72481600Y-63257142D02*
X72519695Y-63371428D01*
X72519695Y-63371428D02*
X72519695Y-63561904D01*
X72519695Y-63561904D02*
X72481600Y-63638095D01*
X72481600Y-63638095D02*
X72443504Y-63676190D01*
X72443504Y-63676190D02*
X72367314Y-63714285D01*
X72367314Y-63714285D02*
X72291123Y-63714285D01*
X72291123Y-63714285D02*
X72214933Y-63676190D01*
X72214933Y-63676190D02*
X72176838Y-63638095D01*
X72176838Y-63638095D02*
X72138742Y-63561904D01*
X72138742Y-63561904D02*
X72100647Y-63409523D01*
X72100647Y-63409523D02*
X72062552Y-63333333D01*
X72062552Y-63333333D02*
X72024457Y-63295238D01*
X72024457Y-63295238D02*
X71948266Y-63257142D01*
X71948266Y-63257142D02*
X71872076Y-63257142D01*
X71872076Y-63257142D02*
X71795885Y-63295238D01*
X71795885Y-63295238D02*
X71757790Y-63333333D01*
X71757790Y-63333333D02*
X71719695Y-63409523D01*
X71719695Y-63409523D02*
X71719695Y-63600000D01*
X71719695Y-63600000D02*
X71757790Y-63714285D01*
X72519695Y-64057143D02*
X71719695Y-64057143D01*
X75059695Y-61542857D02*
X74259695Y-61542857D01*
X74259695Y-61542857D02*
X74831123Y-61809523D01*
X74831123Y-61809523D02*
X74259695Y-62076190D01*
X74259695Y-62076190D02*
X75059695Y-62076190D01*
X75059695Y-62457143D02*
X74259695Y-62457143D01*
X75021600Y-62799999D02*
X75059695Y-62914285D01*
X75059695Y-62914285D02*
X75059695Y-63104761D01*
X75059695Y-63104761D02*
X75021600Y-63180952D01*
X75021600Y-63180952D02*
X74983504Y-63219047D01*
X74983504Y-63219047D02*
X74907314Y-63257142D01*
X74907314Y-63257142D02*
X74831123Y-63257142D01*
X74831123Y-63257142D02*
X74754933Y-63219047D01*
X74754933Y-63219047D02*
X74716838Y-63180952D01*
X74716838Y-63180952D02*
X74678742Y-63104761D01*
X74678742Y-63104761D02*
X74640647Y-62952380D01*
X74640647Y-62952380D02*
X74602552Y-62876190D01*
X74602552Y-62876190D02*
X74564457Y-62838095D01*
X74564457Y-62838095D02*
X74488266Y-62799999D01*
X74488266Y-62799999D02*
X74412076Y-62799999D01*
X74412076Y-62799999D02*
X74335885Y-62838095D01*
X74335885Y-62838095D02*
X74297790Y-62876190D01*
X74297790Y-62876190D02*
X74259695Y-62952380D01*
X74259695Y-62952380D02*
X74259695Y-63142857D01*
X74259695Y-63142857D02*
X74297790Y-63257142D01*
X74259695Y-63752381D02*
X74259695Y-63904762D01*
X74259695Y-63904762D02*
X74297790Y-63980952D01*
X74297790Y-63980952D02*
X74373980Y-64057143D01*
X74373980Y-64057143D02*
X74526361Y-64095238D01*
X74526361Y-64095238D02*
X74793028Y-64095238D01*
X74793028Y-64095238D02*
X74945409Y-64057143D01*
X74945409Y-64057143D02*
X75021600Y-63980952D01*
X75021600Y-63980952D02*
X75059695Y-63904762D01*
X75059695Y-63904762D02*
X75059695Y-63752381D01*
X75059695Y-63752381D02*
X75021600Y-63676190D01*
X75021600Y-63676190D02*
X74945409Y-63600000D01*
X74945409Y-63600000D02*
X74793028Y-63561904D01*
X74793028Y-63561904D02*
X74526361Y-63561904D01*
X74526361Y-63561904D02*
X74373980Y-63600000D01*
X74373980Y-63600000D02*
X74297790Y-63676190D01*
X74297790Y-63676190D02*
X74259695Y-63752381D01*
X77561600Y-61809523D02*
X77599695Y-61923809D01*
X77599695Y-61923809D02*
X77599695Y-62114285D01*
X77599695Y-62114285D02*
X77561600Y-62190476D01*
X77561600Y-62190476D02*
X77523504Y-62228571D01*
X77523504Y-62228571D02*
X77447314Y-62266666D01*
X77447314Y-62266666D02*
X77371123Y-62266666D01*
X77371123Y-62266666D02*
X77294933Y-62228571D01*
X77294933Y-62228571D02*
X77256838Y-62190476D01*
X77256838Y-62190476D02*
X77218742Y-62114285D01*
X77218742Y-62114285D02*
X77180647Y-61961904D01*
X77180647Y-61961904D02*
X77142552Y-61885714D01*
X77142552Y-61885714D02*
X77104457Y-61847619D01*
X77104457Y-61847619D02*
X77028266Y-61809523D01*
X77028266Y-61809523D02*
X76952076Y-61809523D01*
X76952076Y-61809523D02*
X76875885Y-61847619D01*
X76875885Y-61847619D02*
X76837790Y-61885714D01*
X76837790Y-61885714D02*
X76799695Y-61961904D01*
X76799695Y-61961904D02*
X76799695Y-62152381D01*
X76799695Y-62152381D02*
X76837790Y-62266666D01*
X77218742Y-62761905D02*
X77599695Y-62761905D01*
X76799695Y-62495238D02*
X77218742Y-62761905D01*
X77218742Y-62761905D02*
X76799695Y-63028571D01*
X77599695Y-63295238D02*
X76799695Y-63295238D01*
X76799695Y-63295238D02*
X77599695Y-63752381D01*
X77599695Y-63752381D02*
X76799695Y-63752381D01*
X79720647Y-62209524D02*
X79720647Y-62476190D01*
X80139695Y-62590476D02*
X80139695Y-62209524D01*
X80139695Y-62209524D02*
X79339695Y-62209524D01*
X79339695Y-62209524D02*
X79339695Y-62590476D01*
X80139695Y-62933334D02*
X79339695Y-62933334D01*
X79339695Y-62933334D02*
X80139695Y-63390477D01*
X80139695Y-63390477D02*
X79339695Y-63390477D01*
X82679695Y-61695238D02*
X81879695Y-61695238D01*
X82679695Y-62076190D02*
X81879695Y-62076190D01*
X81879695Y-62076190D02*
X82679695Y-62533333D01*
X82679695Y-62533333D02*
X81879695Y-62533333D01*
X81879695Y-62799999D02*
X81879695Y-63257142D01*
X82679695Y-63028570D02*
X81879695Y-63028570D01*
X82679695Y-63942856D02*
X82679695Y-63485713D01*
X82679695Y-63714285D02*
X81879695Y-63714285D01*
X81879695Y-63714285D02*
X81993980Y-63638094D01*
X81993980Y-63638094D02*
X82070171Y-63561904D01*
X82070171Y-63561904D02*
X82108266Y-63485713D01*
X85219695Y-61695238D02*
X84419695Y-61695238D01*
X85219695Y-62076190D02*
X84419695Y-62076190D01*
X84419695Y-62076190D02*
X85219695Y-62533333D01*
X85219695Y-62533333D02*
X84419695Y-62533333D01*
X84419695Y-62799999D02*
X84419695Y-63257142D01*
X85219695Y-63028570D02*
X84419695Y-63028570D01*
X84495885Y-63485713D02*
X84457790Y-63523809D01*
X84457790Y-63523809D02*
X84419695Y-63599999D01*
X84419695Y-63599999D02*
X84419695Y-63790475D01*
X84419695Y-63790475D02*
X84457790Y-63866666D01*
X84457790Y-63866666D02*
X84495885Y-63904761D01*
X84495885Y-63904761D02*
X84572076Y-63942856D01*
X84572076Y-63942856D02*
X84648266Y-63942856D01*
X84648266Y-63942856D02*
X84762552Y-63904761D01*
X84762552Y-63904761D02*
X85219695Y-63447618D01*
X85219695Y-63447618D02*
X85219695Y-63942856D01*
X86759695Y-27223810D02*
X87407314Y-27223810D01*
X87407314Y-27223810D02*
X87483504Y-27261905D01*
X87483504Y-27261905D02*
X87521600Y-27300000D01*
X87521600Y-27300000D02*
X87559695Y-27376191D01*
X87559695Y-27376191D02*
X87559695Y-27528572D01*
X87559695Y-27528572D02*
X87521600Y-27604762D01*
X87521600Y-27604762D02*
X87483504Y-27642857D01*
X87483504Y-27642857D02*
X87407314Y-27680953D01*
X87407314Y-27680953D02*
X86759695Y-27680953D01*
X87331123Y-28023809D02*
X87331123Y-28404762D01*
X87559695Y-27947619D02*
X86759695Y-28214286D01*
X86759695Y-28214286D02*
X87559695Y-28480952D01*
X87559695Y-29204762D02*
X87178742Y-28938095D01*
X87559695Y-28747619D02*
X86759695Y-28747619D01*
X86759695Y-28747619D02*
X86759695Y-29052381D01*
X86759695Y-29052381D02*
X86797790Y-29128571D01*
X86797790Y-29128571D02*
X86835885Y-29166666D01*
X86835885Y-29166666D02*
X86912076Y-29204762D01*
X86912076Y-29204762D02*
X87026361Y-29204762D01*
X87026361Y-29204762D02*
X87102552Y-29166666D01*
X87102552Y-29166666D02*
X87140647Y-29128571D01*
X87140647Y-29128571D02*
X87178742Y-29052381D01*
X87178742Y-29052381D02*
X87178742Y-28747619D01*
X86759695Y-29433333D02*
X86759695Y-29890476D01*
X87559695Y-29661904D02*
X86759695Y-29661904D01*
%TO.C,TP3*%
D11*
X41450000Y-23500000D02*
G75*
G02*
X39550000Y-23500000I-950000J0D01*
G01*
X39550000Y-23500000D02*
G75*
G02*
X41450000Y-23500000I950000J0D01*
G01*
D12*
%TO.C,LOGO_OSHW*%
X86408440Y-60175251D02*
X86398031Y-60179800D01*
X86373186Y-60199477D01*
X86351941Y-60227928D01*
X86338802Y-60258291D01*
X86336663Y-60273259D01*
X86343833Y-60294156D01*
X86359560Y-60305214D01*
X86376422Y-60311910D01*
X86384143Y-60313143D01*
X86387903Y-60304189D01*
X86395326Y-60284705D01*
X86398583Y-60275901D01*
X86416846Y-60245446D01*
X86443288Y-60230256D01*
X86477194Y-60230724D01*
X86479705Y-60231322D01*
X86497807Y-60239904D01*
X86511114Y-60256636D01*
X86520204Y-60283572D01*
X86525650Y-60322769D01*
X86528028Y-60376282D01*
X86528252Y-60404757D01*
X86528362Y-60449643D01*
X86529087Y-60480241D01*
X86531015Y-60499683D01*
X86534735Y-60511097D01*
X86540836Y-60517614D01*
X86549909Y-60522363D01*
X86550432Y-60522602D01*
X86567903Y-60529989D01*
X86576558Y-60532708D01*
X86577888Y-60524485D01*
X86579027Y-60501755D01*
X86579892Y-60467429D01*
X86580401Y-60424416D01*
X86580503Y-60392939D01*
X86579985Y-60332028D01*
X86577958Y-60285819D01*
X86573715Y-60251614D01*
X86566547Y-60226716D01*
X86555746Y-60208426D01*
X86540604Y-60194048D01*
X86525652Y-60184013D01*
X86489697Y-60170658D01*
X86447853Y-60167646D01*
X86408440Y-60175251D01*
G36*
X86489697Y-60170658D02*
G01*
X86525652Y-60184013D01*
X86540604Y-60194048D01*
X86555746Y-60208426D01*
X86566547Y-60226716D01*
X86573715Y-60251614D01*
X86577958Y-60285819D01*
X86579985Y-60332028D01*
X86580503Y-60392939D01*
X86580401Y-60424416D01*
X86579892Y-60467429D01*
X86579027Y-60501755D01*
X86577888Y-60524485D01*
X86576558Y-60532708D01*
X86567903Y-60529989D01*
X86550432Y-60522602D01*
X86549909Y-60522363D01*
X86540836Y-60517614D01*
X86534735Y-60511097D01*
X86531015Y-60499683D01*
X86529087Y-60480241D01*
X86528362Y-60449643D01*
X86528252Y-60404757D01*
X86528028Y-60376282D01*
X86525650Y-60322769D01*
X86520204Y-60283572D01*
X86511114Y-60256636D01*
X86497807Y-60239904D01*
X86479705Y-60231322D01*
X86477194Y-60230724D01*
X86443288Y-60230256D01*
X86416846Y-60245446D01*
X86398583Y-60275901D01*
X86395326Y-60284705D01*
X86387903Y-60304189D01*
X86384143Y-60313143D01*
X86376422Y-60311910D01*
X86359560Y-60305214D01*
X86343833Y-60294156D01*
X86336663Y-60273259D01*
X86338802Y-60258291D01*
X86351941Y-60227928D01*
X86373186Y-60199477D01*
X86398031Y-60179800D01*
X86408440Y-60175251D01*
X86447853Y-60167646D01*
X86489697Y-60170658D01*
G37*
X88770344Y-60156668D02*
X88742397Y-60172834D01*
X88722966Y-60188880D01*
X88708755Y-60205690D01*
X88698965Y-60226249D01*
X88692797Y-60253536D01*
X88689452Y-60290535D01*
X88688130Y-60340227D01*
X88687977Y-60375948D01*
X88687977Y-60507435D01*
X88724988Y-60524026D01*
X88762000Y-60540618D01*
X88766354Y-60396602D01*
X88768154Y-60342817D01*
X88770041Y-60303777D01*
X88772379Y-60276816D01*
X88775532Y-60259262D01*
X88779861Y-60248449D01*
X88785730Y-60241707D01*
X88787613Y-60240247D01*
X88816143Y-60228850D01*
X88844982Y-60233360D01*
X88862148Y-60245326D01*
X88869132Y-60253805D01*
X88873965Y-60264932D01*
X88877037Y-60281800D01*
X88878735Y-60307504D01*
X88879446Y-60345137D01*
X88879566Y-60384357D01*
X88879589Y-60433561D01*
X88880432Y-60468390D01*
X88883252Y-60491879D01*
X88889208Y-60507068D01*
X88899458Y-60516994D01*
X88915161Y-60524694D01*
X88936135Y-60532695D01*
X88959042Y-60541404D01*
X88956315Y-60386833D01*
X88955217Y-60331111D01*
X88953933Y-60289933D01*
X88952091Y-60260427D01*
X88949324Y-60239719D01*
X88945259Y-60224937D01*
X88939529Y-60213210D01*
X88932620Y-60202862D01*
X88899286Y-60169808D01*
X88858612Y-60150693D01*
X88814372Y-60146115D01*
X88770344Y-60156668D01*
G36*
X88858612Y-60150693D02*
G01*
X88899286Y-60169808D01*
X88932620Y-60202862D01*
X88939529Y-60213210D01*
X88945259Y-60224937D01*
X88949324Y-60239719D01*
X88952091Y-60260427D01*
X88953933Y-60289933D01*
X88955217Y-60331111D01*
X88956315Y-60386833D01*
X88959042Y-60541404D01*
X88936135Y-60532695D01*
X88915161Y-60524694D01*
X88899458Y-60516994D01*
X88889208Y-60507068D01*
X88883252Y-60491879D01*
X88880432Y-60468390D01*
X88879589Y-60433561D01*
X88879566Y-60384357D01*
X88879446Y-60345137D01*
X88878735Y-60307504D01*
X88877037Y-60281800D01*
X88873965Y-60264932D01*
X88869132Y-60253805D01*
X88862148Y-60245326D01*
X88844982Y-60233360D01*
X88816143Y-60228850D01*
X88787613Y-60240247D01*
X88785730Y-60241707D01*
X88779861Y-60248449D01*
X88775532Y-60259262D01*
X88772379Y-60276816D01*
X88770041Y-60303777D01*
X88768154Y-60342817D01*
X88766354Y-60396602D01*
X88762000Y-60540618D01*
X88724988Y-60524026D01*
X88687977Y-60507435D01*
X88687977Y-60375948D01*
X88688130Y-60340227D01*
X88689452Y-60290535D01*
X88692797Y-60253536D01*
X88698965Y-60226249D01*
X88708755Y-60205690D01*
X88722966Y-60188880D01*
X88742397Y-60172834D01*
X88770344Y-60156668D01*
X88814372Y-60146115D01*
X88858612Y-60150693D01*
G37*
X87682044Y-60169853D02*
X87642485Y-60184450D01*
X87610436Y-60210270D01*
X87597902Y-60228445D01*
X87584237Y-60261796D01*
X87584520Y-60285912D01*
X87598863Y-60302130D01*
X87604170Y-60304888D01*
X87627082Y-60313486D01*
X87638783Y-60311283D01*
X87642747Y-60296844D01*
X87642948Y-60288868D01*
X87650205Y-60259526D01*
X87669117Y-60238999D01*
X87695405Y-60229086D01*
X87724783Y-60231580D01*
X87748664Y-60244536D01*
X87756730Y-60251926D01*
X87762447Y-60260892D01*
X87766309Y-60274445D01*
X87768810Y-60295597D01*
X87770442Y-60327360D01*
X87771699Y-60372744D01*
X87772024Y-60387114D01*
X87773211Y-60436274D01*
X87774561Y-60470873D01*
X87776586Y-60493765D01*
X87779796Y-60507802D01*
X87784706Y-60515839D01*
X87791825Y-60520727D01*
X87796383Y-60522886D01*
X87815739Y-60530271D01*
X87827133Y-60532708D01*
X87830898Y-60524569D01*
X87833196Y-60499960D01*
X87834040Y-60458599D01*
X87833441Y-60400201D01*
X87833255Y-60391194D01*
X87831939Y-60337915D01*
X87830384Y-60299011D01*
X87828171Y-60271440D01*
X87824882Y-60252161D01*
X87820099Y-60238132D01*
X87813404Y-60226311D01*
X87809902Y-60221246D01*
X87789822Y-60198834D01*
X87767364Y-60181402D01*
X87764615Y-60179880D01*
X87724344Y-60167866D01*
X87682044Y-60169853D01*
G36*
X87764615Y-60179880D02*
G01*
X87767364Y-60181402D01*
X87789822Y-60198834D01*
X87809902Y-60221246D01*
X87813404Y-60226311D01*
X87820099Y-60238132D01*
X87824882Y-60252161D01*
X87828171Y-60271440D01*
X87830384Y-60299011D01*
X87831939Y-60337915D01*
X87833255Y-60391194D01*
X87833441Y-60400201D01*
X87834040Y-60458599D01*
X87833196Y-60499960D01*
X87830898Y-60524569D01*
X87827133Y-60532708D01*
X87815739Y-60530271D01*
X87796383Y-60522886D01*
X87791825Y-60520727D01*
X87784706Y-60515839D01*
X87779796Y-60507802D01*
X87776586Y-60493765D01*
X87774561Y-60470873D01*
X87773211Y-60436274D01*
X87772024Y-60387114D01*
X87771699Y-60372744D01*
X87770442Y-60327360D01*
X87768810Y-60295597D01*
X87766309Y-60274445D01*
X87762447Y-60260892D01*
X87756730Y-60251926D01*
X87748664Y-60244536D01*
X87724783Y-60231580D01*
X87695405Y-60229086D01*
X87669117Y-60238999D01*
X87650205Y-60259526D01*
X87642948Y-60288868D01*
X87642747Y-60296844D01*
X87638783Y-60311283D01*
X87627082Y-60313486D01*
X87604170Y-60304888D01*
X87598863Y-60302130D01*
X87584520Y-60285912D01*
X87584237Y-60261796D01*
X87597902Y-60228445D01*
X87610436Y-60210270D01*
X87642485Y-60184450D01*
X87682044Y-60169853D01*
X87724344Y-60167866D01*
X87764615Y-60179880D01*
G37*
X86932100Y-60175198D02*
X86930771Y-60198110D01*
X86929730Y-60232932D01*
X86929061Y-60276908D01*
X86928846Y-60323033D01*
X86928846Y-60479118D01*
X86956404Y-60506676D01*
X86975395Y-60523657D01*
X86992066Y-60530536D01*
X87014851Y-60530101D01*
X87023896Y-60528993D01*
X87052164Y-60525769D01*
X87075546Y-60523921D01*
X87081246Y-60523751D01*
X87100460Y-60524867D01*
X87127941Y-60527668D01*
X87138596Y-60528993D01*
X87164766Y-60531041D01*
X87182353Y-60526592D01*
X87199792Y-60512856D01*
X87206087Y-60506676D01*
X87233646Y-60479118D01*
X87233646Y-60187161D01*
X87211464Y-60177055D01*
X87192365Y-60169569D01*
X87181190Y-60166948D01*
X87178325Y-60175231D01*
X87175647Y-60198372D01*
X87173335Y-60233814D01*
X87171567Y-60278998D01*
X87170714Y-60317172D01*
X87168332Y-60467394D01*
X87147545Y-60470334D01*
X87128639Y-60468279D01*
X87119375Y-60461625D01*
X87116786Y-60449185D01*
X87114575Y-60422687D01*
X87112919Y-60385488D01*
X87111993Y-60340945D01*
X87111859Y-60318024D01*
X87111726Y-60186070D01*
X87084300Y-60176509D01*
X87064889Y-60170009D01*
X87054331Y-60166977D01*
X87054026Y-60166948D01*
X87052967Y-60175189D01*
X87051803Y-60198038D01*
X87050631Y-60232689D01*
X87049550Y-60276336D01*
X87048794Y-60317172D01*
X87046412Y-60467394D01*
X86994160Y-60467394D01*
X86991762Y-60330344D01*
X86989365Y-60193293D01*
X86963892Y-60180121D01*
X86945085Y-60171076D01*
X86933954Y-60166971D01*
X86933633Y-60166948D01*
X86932100Y-60175198D01*
G36*
X87192365Y-60169569D02*
G01*
X87211464Y-60177055D01*
X87233646Y-60187161D01*
X87233646Y-60479118D01*
X87206087Y-60506676D01*
X87199792Y-60512856D01*
X87182353Y-60526592D01*
X87164766Y-60531041D01*
X87138596Y-60528993D01*
X87127941Y-60527668D01*
X87100460Y-60524867D01*
X87081246Y-60523751D01*
X87075546Y-60523921D01*
X87052164Y-60525769D01*
X87023896Y-60528993D01*
X87014851Y-60530101D01*
X86992066Y-60530536D01*
X86975395Y-60523657D01*
X86956404Y-60506676D01*
X86928846Y-60479118D01*
X86928846Y-60323033D01*
X86929061Y-60276908D01*
X86929730Y-60232932D01*
X86930771Y-60198110D01*
X86932100Y-60175198D01*
X86933633Y-60166948D01*
X86933954Y-60166971D01*
X86945085Y-60171076D01*
X86963892Y-60180121D01*
X86989365Y-60193293D01*
X86991762Y-60330344D01*
X86994160Y-60467394D01*
X87046412Y-60467394D01*
X87048794Y-60317172D01*
X87049550Y-60276336D01*
X87050631Y-60232689D01*
X87051803Y-60198038D01*
X87052967Y-60175189D01*
X87054026Y-60166948D01*
X87054331Y-60166977D01*
X87064889Y-60170009D01*
X87084300Y-60176509D01*
X87111726Y-60186070D01*
X87111859Y-60318024D01*
X87111993Y-60340945D01*
X87112919Y-60385488D01*
X87114575Y-60422687D01*
X87116786Y-60449185D01*
X87119375Y-60461625D01*
X87128639Y-60468279D01*
X87147545Y-60470334D01*
X87168332Y-60467394D01*
X87170714Y-60317172D01*
X87171567Y-60278998D01*
X87173335Y-60233814D01*
X87175647Y-60198372D01*
X87178325Y-60175231D01*
X87181190Y-60166948D01*
X87192365Y-60169569D01*
G37*
X88374468Y-60110773D02*
X88371917Y-60146368D01*
X88368985Y-60167343D01*
X88364923Y-60176492D01*
X88358979Y-60176609D01*
X88357052Y-60175517D01*
X88331414Y-60167609D01*
X88298064Y-60168071D01*
X88264158Y-60176200D01*
X88242951Y-60186717D01*
X88221207Y-60203517D01*
X88205312Y-60222529D01*
X88194401Y-60246688D01*
X88187607Y-60278926D01*
X88184067Y-60322176D01*
X88182914Y-60379371D01*
X88182894Y-60390342D01*
X88182880Y-60513588D01*
X88210305Y-60523148D01*
X88229784Y-60529652D01*
X88240471Y-60532681D01*
X88240785Y-60532708D01*
X88241838Y-60524497D01*
X88242734Y-60501846D01*
X88243404Y-60467734D01*
X88243782Y-60425140D01*
X88243840Y-60399244D01*
X88243961Y-60348184D01*
X88244585Y-60311589D01*
X88246101Y-60286506D01*
X88248902Y-60269985D01*
X88253376Y-60259074D01*
X88259913Y-60250819D01*
X88263996Y-60246844D01*
X88292037Y-60230825D01*
X88322637Y-60229625D01*
X88350399Y-60243173D01*
X88355534Y-60248064D01*
X88363064Y-60257262D01*
X88368287Y-60268171D01*
X88371621Y-60283945D01*
X88373484Y-60307737D01*
X88374294Y-60342699D01*
X88374468Y-60390904D01*
X88374468Y-60513588D01*
X88401894Y-60523148D01*
X88421372Y-60529652D01*
X88432059Y-60532681D01*
X88432374Y-60532708D01*
X88433178Y-60524374D01*
X88433903Y-60500863D01*
X88434519Y-60464420D01*
X88434999Y-60417285D01*
X88435311Y-60361699D01*
X88435428Y-60299905D01*
X88435428Y-60061605D01*
X88407126Y-60049666D01*
X88378823Y-60037728D01*
X88374468Y-60110773D01*
G36*
X88407126Y-60049666D02*
G01*
X88435428Y-60061605D01*
X88435428Y-60299905D01*
X88435311Y-60361699D01*
X88434999Y-60417285D01*
X88434519Y-60464420D01*
X88433903Y-60500863D01*
X88433178Y-60524374D01*
X88432374Y-60532708D01*
X88432059Y-60532681D01*
X88421372Y-60529652D01*
X88401894Y-60523148D01*
X88374468Y-60513588D01*
X88374468Y-60390904D01*
X88374294Y-60342699D01*
X88373484Y-60307737D01*
X88371621Y-60283945D01*
X88368287Y-60268171D01*
X88363064Y-60257262D01*
X88355534Y-60248064D01*
X88350399Y-60243173D01*
X88322637Y-60229625D01*
X88292037Y-60230825D01*
X88263996Y-60246844D01*
X88259913Y-60250819D01*
X88253376Y-60259074D01*
X88248902Y-60269985D01*
X88246101Y-60286506D01*
X88244585Y-60311589D01*
X88243961Y-60348184D01*
X88243840Y-60399244D01*
X88243782Y-60425140D01*
X88243404Y-60467734D01*
X88242734Y-60501846D01*
X88241838Y-60524497D01*
X88240785Y-60532708D01*
X88240471Y-60532681D01*
X88229784Y-60529652D01*
X88210305Y-60523148D01*
X88182880Y-60513588D01*
X88182894Y-60390342D01*
X88182914Y-60379371D01*
X88184067Y-60322176D01*
X88187607Y-60278926D01*
X88194401Y-60246688D01*
X88205312Y-60222529D01*
X88221207Y-60203517D01*
X88242951Y-60186717D01*
X88264158Y-60176200D01*
X88298064Y-60168071D01*
X88331414Y-60167609D01*
X88357052Y-60175517D01*
X88358979Y-60176609D01*
X88364923Y-60176492D01*
X88368985Y-60167343D01*
X88371917Y-60146368D01*
X88374468Y-60110773D01*
X88378823Y-60037728D01*
X88407126Y-60049666D01*
G37*
X89775331Y-60153177D02*
X89734513Y-60174640D01*
X89704389Y-60209181D01*
X89693689Y-60231387D01*
X89685362Y-60264729D01*
X89681100Y-60306858D01*
X89680696Y-60352836D01*
X89683944Y-60397731D01*
X89690638Y-60436605D01*
X89700572Y-60464524D01*
X89703624Y-60469332D01*
X89739787Y-60505224D01*
X89782739Y-60526721D01*
X89829345Y-60533012D01*
X89876471Y-60523286D01*
X89889587Y-60517455D01*
X89915127Y-60499486D01*
X89937542Y-60475660D01*
X89939661Y-60472638D01*
X89948271Y-60458074D01*
X89953964Y-60442507D01*
X89957326Y-60422013D01*
X89958948Y-60392671D01*
X89959421Y-60350561D01*
X89959428Y-60341120D01*
X89959407Y-60338115D01*
X89872343Y-60338115D01*
X89871836Y-60377858D01*
X89869842Y-60404232D01*
X89865650Y-60421267D01*
X89858550Y-60432995D01*
X89854926Y-60436914D01*
X89834088Y-60451808D01*
X89813858Y-60451129D01*
X89793403Y-60438210D01*
X89781203Y-60424417D01*
X89773977Y-60404287D01*
X89769920Y-60372541D01*
X89769641Y-60368839D01*
X89768949Y-60311308D01*
X89776187Y-60268579D01*
X89791258Y-60240916D01*
X89814064Y-60228581D01*
X89822205Y-60227908D01*
X89843582Y-60231291D01*
X89858204Y-60243012D01*
X89867144Y-60265425D01*
X89871475Y-60300890D01*
X89872343Y-60338115D01*
X89959407Y-60338115D01*
X89959104Y-60296248D01*
X89957742Y-60264895D01*
X89954759Y-60243169D01*
X89949572Y-60227179D01*
X89941597Y-60213033D01*
X89939834Y-60210403D01*
X89910212Y-60174949D01*
X89877935Y-60154368D01*
X89838639Y-60146199D01*
X89825295Y-60145799D01*
X89775331Y-60153177D01*
G36*
X89959428Y-60341120D02*
G01*
X89959421Y-60350561D01*
X89958948Y-60392671D01*
X89957326Y-60422013D01*
X89953964Y-60442507D01*
X89948271Y-60458074D01*
X89939661Y-60472638D01*
X89937542Y-60475660D01*
X89915127Y-60499486D01*
X89889587Y-60517455D01*
X89876471Y-60523286D01*
X89829345Y-60533012D01*
X89782739Y-60526721D01*
X89739787Y-60505224D01*
X89703624Y-60469332D01*
X89700572Y-60464524D01*
X89690638Y-60436605D01*
X89683944Y-60397731D01*
X89680696Y-60352836D01*
X89681061Y-60311308D01*
X89768949Y-60311308D01*
X89769641Y-60368839D01*
X89769920Y-60372541D01*
X89773977Y-60404287D01*
X89781203Y-60424417D01*
X89793403Y-60438210D01*
X89813858Y-60451129D01*
X89834088Y-60451808D01*
X89854926Y-60436914D01*
X89858550Y-60432995D01*
X89865650Y-60421267D01*
X89869842Y-60404232D01*
X89871836Y-60377858D01*
X89872343Y-60338115D01*
X89871475Y-60300890D01*
X89867144Y-60265425D01*
X89858204Y-60243012D01*
X89843582Y-60231291D01*
X89822205Y-60227908D01*
X89814064Y-60228581D01*
X89791258Y-60240916D01*
X89776187Y-60268579D01*
X89768949Y-60311308D01*
X89681061Y-60311308D01*
X89681100Y-60306858D01*
X89685362Y-60264729D01*
X89693689Y-60231387D01*
X89704389Y-60209181D01*
X89734513Y-60174640D01*
X89775331Y-60153177D01*
X89825295Y-60145799D01*
X89838639Y-60146199D01*
X89877935Y-60154368D01*
X89910212Y-60174949D01*
X89939834Y-60210403D01*
X89941597Y-60213033D01*
X89949572Y-60227179D01*
X89954759Y-60243169D01*
X89957742Y-60264895D01*
X89959104Y-60296248D01*
X89959407Y-60338115D01*
X89959428Y-60341120D01*
G37*
X86107843Y-60180180D02*
X86073387Y-60202698D01*
X86056769Y-60222858D01*
X86043603Y-60259438D01*
X86042557Y-60288385D01*
X86044926Y-60327090D01*
X86134188Y-60366160D01*
X86177591Y-60386121D01*
X86205950Y-60402178D01*
X86220696Y-60416086D01*
X86223258Y-60429600D01*
X86215067Y-60444473D01*
X86206034Y-60454332D01*
X86179752Y-60470141D01*
X86151167Y-60471249D01*
X86124913Y-60458928D01*
X86105627Y-60434451D01*
X86102177Y-60425808D01*
X86085654Y-60398814D01*
X86066645Y-60387309D01*
X86040572Y-60377467D01*
X86040572Y-60414780D01*
X86042877Y-60440170D01*
X86051906Y-60461581D01*
X86070832Y-60486166D01*
X86073645Y-60489360D01*
X86094696Y-60511232D01*
X86112792Y-60522970D01*
X86135431Y-60528370D01*
X86154199Y-60530138D01*
X86187769Y-60530579D01*
X86211667Y-60524996D01*
X86226575Y-60516708D01*
X86250006Y-60498480D01*
X86266225Y-60478768D01*
X86276490Y-60453976D01*
X86282057Y-60420513D01*
X86284184Y-60374783D01*
X86284354Y-60351573D01*
X86283777Y-60323748D01*
X86231196Y-60323748D01*
X86230586Y-60338676D01*
X86229066Y-60341120D01*
X86219036Y-60337799D01*
X86197451Y-60329010D01*
X86168601Y-60316514D01*
X86162568Y-60313828D01*
X86126109Y-60295288D01*
X86106021Y-60278994D01*
X86101606Y-60263732D01*
X86112165Y-60248289D01*
X86120886Y-60241465D01*
X86152354Y-60227818D01*
X86181807Y-60230073D01*
X86206464Y-60246730D01*
X86223545Y-60276291D01*
X86229021Y-60299754D01*
X86231196Y-60323748D01*
X86283777Y-60323748D01*
X86283229Y-60297349D01*
X86279082Y-60257230D01*
X86270870Y-60228017D01*
X86257542Y-60206509D01*
X86238056Y-60189508D01*
X86229560Y-60184013D01*
X86190968Y-60169704D01*
X86148716Y-60168804D01*
X86107843Y-60180180D01*
G36*
X86284354Y-60351573D02*
G01*
X86284184Y-60374783D01*
X86282057Y-60420513D01*
X86276490Y-60453976D01*
X86266225Y-60478768D01*
X86250006Y-60498480D01*
X86226575Y-60516708D01*
X86211667Y-60524996D01*
X86187769Y-60530579D01*
X86154199Y-60530138D01*
X86135431Y-60528370D01*
X86112792Y-60522970D01*
X86094696Y-60511232D01*
X86073645Y-60489360D01*
X86070832Y-60486166D01*
X86051906Y-60461581D01*
X86042877Y-60440170D01*
X86040572Y-60414780D01*
X86040572Y-60377467D01*
X86066645Y-60387309D01*
X86085654Y-60398814D01*
X86102177Y-60425808D01*
X86105627Y-60434451D01*
X86124913Y-60458928D01*
X86151167Y-60471249D01*
X86179752Y-60470141D01*
X86206034Y-60454332D01*
X86215067Y-60444473D01*
X86223258Y-60429600D01*
X86220696Y-60416086D01*
X86205950Y-60402178D01*
X86177591Y-60386121D01*
X86134188Y-60366160D01*
X86044926Y-60327090D01*
X86042557Y-60288385D01*
X86043448Y-60263732D01*
X86101606Y-60263732D01*
X86106021Y-60278994D01*
X86126109Y-60295288D01*
X86162568Y-60313828D01*
X86168601Y-60316514D01*
X86197451Y-60329010D01*
X86219036Y-60337799D01*
X86229066Y-60341120D01*
X86230586Y-60338676D01*
X86231196Y-60323748D01*
X86229021Y-60299754D01*
X86223545Y-60276291D01*
X86206464Y-60246730D01*
X86181807Y-60230073D01*
X86152354Y-60227818D01*
X86120886Y-60241465D01*
X86112165Y-60248289D01*
X86101606Y-60263732D01*
X86043448Y-60263732D01*
X86043603Y-60259438D01*
X86056769Y-60222858D01*
X86073387Y-60202698D01*
X86107843Y-60180180D01*
X86148716Y-60168804D01*
X86190968Y-60169704D01*
X86229560Y-60184013D01*
X86238056Y-60189508D01*
X86257542Y-60206509D01*
X86270870Y-60228017D01*
X86279082Y-60257230D01*
X86283229Y-60297349D01*
X86283777Y-60323748D01*
X86284354Y-60351573D01*
G37*
X87285930Y-60239215D02*
X87286040Y-60304302D01*
X87286469Y-60354372D01*
X87287395Y-60391822D01*
X87288999Y-60419051D01*
X87291464Y-60438457D01*
X87294967Y-60452440D01*
X87299691Y-60463397D01*
X87303267Y-60469651D01*
X87332887Y-60503567D01*
X87370442Y-60524826D01*
X87411992Y-60532454D01*
X87453599Y-60525478D01*
X87478375Y-60512941D01*
X87504385Y-60491253D01*
X87522111Y-60464766D01*
X87532807Y-60430077D01*
X87537722Y-60383788D01*
X87538419Y-60349828D01*
X87538325Y-60347388D01*
X87477486Y-60347388D01*
X87477114Y-60386330D01*
X87475412Y-60412108D01*
X87471496Y-60428973D01*
X87464486Y-60441172D01*
X87456110Y-60450373D01*
X87427981Y-60468134D01*
X87397779Y-60469651D01*
X87369234Y-60454823D01*
X87367013Y-60452814D01*
X87357530Y-60442361D01*
X87351584Y-60429925D01*
X87348365Y-60411417D01*
X87347063Y-60382746D01*
X87346857Y-60351049D01*
X87347304Y-60311229D01*
X87349151Y-60284664D01*
X87353163Y-60267205D01*
X87360102Y-60254704D01*
X87365792Y-60248064D01*
X87392224Y-60231319D01*
X87422666Y-60229306D01*
X87451722Y-60242095D01*
X87457330Y-60246844D01*
X87466876Y-60257388D01*
X87472834Y-60269952D01*
X87476033Y-60288669D01*
X87477302Y-60317673D01*
X87477486Y-60347388D01*
X87538325Y-60347388D01*
X87536314Y-60295141D01*
X87529164Y-60254052D01*
X87515719Y-60223160D01*
X87494726Y-60199066D01*
X87478375Y-60186717D01*
X87448656Y-60173375D01*
X87414210Y-60167182D01*
X87382191Y-60168840D01*
X87364274Y-60175527D01*
X87357243Y-60177430D01*
X87352578Y-60170334D01*
X87349321Y-60151320D01*
X87346857Y-60122356D01*
X87344160Y-60090097D01*
X87340412Y-60070689D01*
X87333594Y-60059591D01*
X87321683Y-60052262D01*
X87314200Y-60049017D01*
X87285897Y-60037161D01*
X87285930Y-60239215D01*
G36*
X87538419Y-60349828D02*
G01*
X87537722Y-60383788D01*
X87532807Y-60430077D01*
X87522111Y-60464766D01*
X87504385Y-60491253D01*
X87478375Y-60512941D01*
X87453599Y-60525478D01*
X87411992Y-60532454D01*
X87370442Y-60524826D01*
X87332887Y-60503567D01*
X87303267Y-60469651D01*
X87299691Y-60463397D01*
X87294967Y-60452440D01*
X87291464Y-60438457D01*
X87288999Y-60419051D01*
X87287395Y-60391822D01*
X87286469Y-60354372D01*
X87286441Y-60351049D01*
X87346857Y-60351049D01*
X87347063Y-60382746D01*
X87348365Y-60411417D01*
X87351584Y-60429925D01*
X87357530Y-60442361D01*
X87367013Y-60452814D01*
X87369234Y-60454823D01*
X87397779Y-60469651D01*
X87427981Y-60468134D01*
X87456110Y-60450373D01*
X87464486Y-60441172D01*
X87471496Y-60428973D01*
X87475412Y-60412108D01*
X87477114Y-60386330D01*
X87477486Y-60347388D01*
X87477302Y-60317673D01*
X87476033Y-60288669D01*
X87472834Y-60269952D01*
X87466876Y-60257388D01*
X87457330Y-60246844D01*
X87451722Y-60242095D01*
X87422666Y-60229306D01*
X87392224Y-60231319D01*
X87365792Y-60248064D01*
X87360102Y-60254704D01*
X87353163Y-60267205D01*
X87349151Y-60284664D01*
X87347304Y-60311229D01*
X87346857Y-60351049D01*
X87286441Y-60351049D01*
X87286040Y-60304302D01*
X87285930Y-60239215D01*
X87285897Y-60037161D01*
X87314200Y-60049017D01*
X87321683Y-60052262D01*
X87333594Y-60059591D01*
X87340412Y-60070689D01*
X87344160Y-60090097D01*
X87346857Y-60122356D01*
X87349321Y-60151320D01*
X87352578Y-60170334D01*
X87357243Y-60177430D01*
X87364274Y-60175527D01*
X87382191Y-60168840D01*
X87414210Y-60167182D01*
X87448656Y-60173375D01*
X87478375Y-60186717D01*
X87494726Y-60199066D01*
X87515719Y-60223160D01*
X87529164Y-60254052D01*
X87536314Y-60295141D01*
X87538325Y-60347388D01*
X87538419Y-60349828D01*
G37*
X89099018Y-60158743D02*
X89064684Y-60181841D01*
X89038151Y-60215201D01*
X89022300Y-60257652D01*
X89019094Y-60288897D01*
X89019458Y-60301936D01*
X89022507Y-60311919D01*
X89030887Y-60320862D01*
X89047247Y-60330784D01*
X89074233Y-60343699D01*
X89114493Y-60361624D01*
X89114697Y-60361714D01*
X89151756Y-60378688D01*
X89182145Y-60393760D01*
X89202758Y-60405307D01*
X89210489Y-60411709D01*
X89210492Y-60411760D01*
X89203677Y-60425700D01*
X89187741Y-60441064D01*
X89169446Y-60452133D01*
X89160178Y-60454332D01*
X89134891Y-60446727D01*
X89113115Y-60427683D01*
X89102490Y-60406743D01*
X89092269Y-60391307D01*
X89072247Y-60373728D01*
X89048711Y-60358541D01*
X89027946Y-60350283D01*
X89023604Y-60349828D01*
X89018717Y-60357296D01*
X89018422Y-60376383D01*
X89022014Y-60402120D01*
X89028786Y-60429535D01*
X89038030Y-60453657D01*
X89038497Y-60454593D01*
X89066318Y-60493437D01*
X89102373Y-60519858D01*
X89143321Y-60532827D01*
X89185817Y-60531311D01*
X89226518Y-60514282D01*
X89228327Y-60513085D01*
X89260344Y-60484069D01*
X89281396Y-60446211D01*
X89293047Y-60396432D01*
X89294610Y-60382447D01*
X89297379Y-60316433D01*
X89294060Y-60285649D01*
X89210492Y-60285649D01*
X89209406Y-60304852D01*
X89203467Y-60310456D01*
X89188661Y-60306263D01*
X89165323Y-60296352D01*
X89139235Y-60283929D01*
X89138586Y-60283600D01*
X89116475Y-60271969D01*
X89107600Y-60264208D01*
X89109788Y-60256071D01*
X89119003Y-60245379D01*
X89142446Y-60229907D01*
X89167692Y-60228770D01*
X89190338Y-60240030D01*
X89205980Y-60261749D01*
X89210492Y-60285649D01*
X89294060Y-60285649D01*
X89291684Y-60263616D01*
X89277070Y-60221727D01*
X89256726Y-60192381D01*
X89220008Y-60162727D01*
X89179562Y-60148015D01*
X89138272Y-60147078D01*
X89099018Y-60158743D01*
G36*
X89297379Y-60316433D02*
G01*
X89294610Y-60382447D01*
X89293047Y-60396432D01*
X89281396Y-60446211D01*
X89260344Y-60484069D01*
X89228327Y-60513085D01*
X89226518Y-60514282D01*
X89185817Y-60531311D01*
X89143321Y-60532827D01*
X89102373Y-60519858D01*
X89066318Y-60493437D01*
X89038497Y-60454593D01*
X89038030Y-60453657D01*
X89028786Y-60429535D01*
X89022014Y-60402120D01*
X89018422Y-60376383D01*
X89018717Y-60357296D01*
X89023604Y-60349828D01*
X89027946Y-60350283D01*
X89048711Y-60358541D01*
X89072247Y-60373728D01*
X89092269Y-60391307D01*
X89102490Y-60406743D01*
X89113115Y-60427683D01*
X89134891Y-60446727D01*
X89160178Y-60454332D01*
X89169446Y-60452133D01*
X89187741Y-60441064D01*
X89203677Y-60425700D01*
X89210492Y-60411760D01*
X89210489Y-60411709D01*
X89202758Y-60405307D01*
X89182145Y-60393760D01*
X89151756Y-60378688D01*
X89114697Y-60361714D01*
X89114493Y-60361624D01*
X89074233Y-60343699D01*
X89047247Y-60330784D01*
X89030887Y-60320862D01*
X89022507Y-60311919D01*
X89019458Y-60301936D01*
X89019094Y-60288897D01*
X89021627Y-60264208D01*
X89107600Y-60264208D01*
X89116475Y-60271969D01*
X89138586Y-60283600D01*
X89139235Y-60283929D01*
X89165323Y-60296352D01*
X89188661Y-60306263D01*
X89203467Y-60310456D01*
X89209406Y-60304852D01*
X89210492Y-60285649D01*
X89205980Y-60261749D01*
X89190338Y-60240030D01*
X89167692Y-60228770D01*
X89142446Y-60229907D01*
X89119003Y-60245379D01*
X89109788Y-60256071D01*
X89107600Y-60264208D01*
X89021627Y-60264208D01*
X89022300Y-60257652D01*
X89038151Y-60215201D01*
X89064684Y-60181841D01*
X89099018Y-60158743D01*
X89138272Y-60147078D01*
X89179562Y-60148015D01*
X89220008Y-60162727D01*
X89256726Y-60192381D01*
X89277070Y-60221727D01*
X89291684Y-60263616D01*
X89294060Y-60285649D01*
X89297379Y-60316433D01*
G37*
X87976154Y-60170581D02*
X87942030Y-60183252D01*
X87941640Y-60183496D01*
X87920536Y-60199028D01*
X87904956Y-60217180D01*
X87893998Y-60240835D01*
X87886761Y-60272877D01*
X87882342Y-60316191D01*
X87879842Y-60373659D01*
X87879623Y-60381847D01*
X87876474Y-60505305D01*
X87902970Y-60519007D01*
X87922142Y-60528266D01*
X87933718Y-60532654D01*
X87934253Y-60532708D01*
X87936257Y-60524613D01*
X87937848Y-60502776D01*
X87938826Y-60470871D01*
X87939040Y-60445036D01*
X87939045Y-60403185D01*
X87940958Y-60376902D01*
X87947627Y-60364366D01*
X87961899Y-60363755D01*
X87986622Y-60373245D01*
X88023948Y-60390689D01*
X88051395Y-60405178D01*
X88065512Y-60417748D01*
X88069662Y-60431448D01*
X88069668Y-60432126D01*
X88062821Y-60455727D01*
X88042545Y-60468477D01*
X88011515Y-60470323D01*
X87989163Y-60470004D01*
X87977378Y-60476441D01*
X87970029Y-60491903D01*
X87965799Y-60511602D01*
X87971895Y-60522780D01*
X87974190Y-60524379D01*
X87995799Y-60530804D01*
X88026060Y-60531714D01*
X88057224Y-60527455D01*
X88079307Y-60519673D01*
X88109837Y-60493751D01*
X88127192Y-60457668D01*
X88130628Y-60429477D01*
X88128006Y-60404049D01*
X88118515Y-60383293D01*
X88099722Y-60364858D01*
X88069193Y-60346394D01*
X88024494Y-60325551D01*
X88021772Y-60324373D01*
X87981507Y-60305772D01*
X87956661Y-60290517D01*
X87946011Y-60276808D01*
X87948336Y-60262847D01*
X87962414Y-60246834D01*
X87966624Y-60243148D01*
X87994822Y-60228860D01*
X88024040Y-60229462D01*
X88049487Y-60243471D01*
X88066370Y-60269405D01*
X88067939Y-60274496D01*
X88083215Y-60299185D01*
X88102599Y-60311077D01*
X88130628Y-60322862D01*
X88130628Y-60292370D01*
X88122102Y-60248049D01*
X88096795Y-60207396D01*
X88083626Y-60193797D01*
X88053690Y-60176341D01*
X88015620Y-60168440D01*
X87976154Y-60170581D01*
G36*
X88053690Y-60176341D02*
G01*
X88083626Y-60193797D01*
X88096795Y-60207396D01*
X88122102Y-60248049D01*
X88130628Y-60292370D01*
X88130628Y-60322862D01*
X88102599Y-60311077D01*
X88083215Y-60299185D01*
X88067939Y-60274496D01*
X88066370Y-60269405D01*
X88049487Y-60243471D01*
X88024040Y-60229462D01*
X87994822Y-60228860D01*
X87966624Y-60243148D01*
X87962414Y-60246834D01*
X87948336Y-60262847D01*
X87946011Y-60276808D01*
X87956661Y-60290517D01*
X87981507Y-60305772D01*
X88021772Y-60324373D01*
X88024494Y-60325551D01*
X88069193Y-60346394D01*
X88099722Y-60364858D01*
X88118515Y-60383293D01*
X88128006Y-60404049D01*
X88130628Y-60429477D01*
X88127192Y-60457668D01*
X88109837Y-60493751D01*
X88079307Y-60519673D01*
X88057224Y-60527455D01*
X88026060Y-60531714D01*
X87995799Y-60530804D01*
X87974190Y-60524379D01*
X87971895Y-60522780D01*
X87965799Y-60511602D01*
X87970029Y-60491903D01*
X87977378Y-60476441D01*
X87989163Y-60470004D01*
X88011515Y-60470323D01*
X88042545Y-60468477D01*
X88062821Y-60455727D01*
X88069668Y-60432126D01*
X88069662Y-60431448D01*
X88065512Y-60417748D01*
X88051395Y-60405178D01*
X88023948Y-60390689D01*
X87986622Y-60373245D01*
X87961899Y-60363755D01*
X87947627Y-60364366D01*
X87940958Y-60376902D01*
X87939045Y-60403185D01*
X87939040Y-60445036D01*
X87938826Y-60470871D01*
X87937848Y-60502776D01*
X87936257Y-60524613D01*
X87934253Y-60532708D01*
X87933718Y-60532654D01*
X87922142Y-60528266D01*
X87902970Y-60519007D01*
X87876474Y-60505305D01*
X87879623Y-60381847D01*
X87879842Y-60373659D01*
X87882342Y-60316191D01*
X87886761Y-60272877D01*
X87893998Y-60240835D01*
X87904956Y-60217180D01*
X87920536Y-60199028D01*
X87941640Y-60183496D01*
X87942030Y-60183252D01*
X87976154Y-60170581D01*
X88015620Y-60168440D01*
X88053690Y-60176341D01*
G37*
X86713074Y-60173801D02*
X86688000Y-60185206D01*
X86668319Y-60199027D01*
X86653898Y-60214480D01*
X86643942Y-60234415D01*
X86637654Y-60261680D01*
X86634237Y-60299124D01*
X86632896Y-60349596D01*
X86632754Y-60382833D01*
X86632754Y-60512496D01*
X86654936Y-60522602D01*
X86672406Y-60529989D01*
X86681061Y-60532708D01*
X86682717Y-60524615D01*
X86684031Y-60502792D01*
X86684835Y-60470925D01*
X86685006Y-60445623D01*
X86685740Y-60409068D01*
X86687718Y-60380069D01*
X86690607Y-60362311D01*
X86692902Y-60358537D01*
X86708330Y-60362391D01*
X86732549Y-60372275D01*
X86760593Y-60385675D01*
X86787493Y-60400074D01*
X86808284Y-60412958D01*
X86817999Y-60421811D01*
X86818037Y-60421907D01*
X86817202Y-60438291D01*
X86809709Y-60453931D01*
X86796554Y-60466635D01*
X86777354Y-60470884D01*
X86760945Y-60470389D01*
X86737704Y-60470025D01*
X86725505Y-60475470D01*
X86718179Y-60489855D01*
X86717255Y-60492568D01*
X86714078Y-60513084D01*
X86722572Y-60525541D01*
X86744711Y-60531477D01*
X86768627Y-60532575D01*
X86811663Y-60524436D01*
X86833941Y-60512813D01*
X86861454Y-60485507D01*
X86876046Y-60451990D01*
X86877356Y-60416574D01*
X86865023Y-60383572D01*
X86846471Y-60362892D01*
X86827948Y-60351313D01*
X86798835Y-60336655D01*
X86764909Y-60321791D01*
X86759254Y-60319519D01*
X86721989Y-60303075D01*
X86700507Y-60288580D01*
X86693598Y-60274171D01*
X86700052Y-60257981D01*
X86711132Y-60245326D01*
X86737319Y-60229743D01*
X86766132Y-60228574D01*
X86792556Y-60240582D01*
X86811575Y-60264531D01*
X86814071Y-60270709D01*
X86828604Y-60293434D01*
X86849821Y-60310305D01*
X86876594Y-60324150D01*
X86876594Y-60284891D01*
X86875019Y-60260904D01*
X86868262Y-60241998D01*
X86853281Y-60221827D01*
X86838899Y-60206290D01*
X86816535Y-60184290D01*
X86799159Y-60172473D01*
X86780497Y-60167732D01*
X86759372Y-60166948D01*
X86713074Y-60173801D01*
G36*
X86780497Y-60167732D02*
G01*
X86799159Y-60172473D01*
X86816535Y-60184290D01*
X86838899Y-60206290D01*
X86853281Y-60221827D01*
X86868262Y-60241998D01*
X86875019Y-60260904D01*
X86876594Y-60284891D01*
X86876594Y-60324150D01*
X86849821Y-60310305D01*
X86828604Y-60293434D01*
X86814071Y-60270709D01*
X86811575Y-60264531D01*
X86792556Y-60240582D01*
X86766132Y-60228574D01*
X86737319Y-60229743D01*
X86711132Y-60245326D01*
X86700052Y-60257981D01*
X86693598Y-60274171D01*
X86700507Y-60288580D01*
X86721989Y-60303075D01*
X86759254Y-60319519D01*
X86764909Y-60321791D01*
X86798835Y-60336655D01*
X86827948Y-60351313D01*
X86846471Y-60362892D01*
X86865023Y-60383572D01*
X86877356Y-60416574D01*
X86876046Y-60451990D01*
X86861454Y-60485507D01*
X86833941Y-60512813D01*
X86811663Y-60524436D01*
X86768627Y-60532575D01*
X86744711Y-60531477D01*
X86722572Y-60525541D01*
X86714078Y-60513084D01*
X86717255Y-60492568D01*
X86718179Y-60489855D01*
X86725505Y-60475470D01*
X86737704Y-60470025D01*
X86760945Y-60470389D01*
X86777354Y-60470884D01*
X86796554Y-60466635D01*
X86809709Y-60453931D01*
X86817202Y-60438291D01*
X86818037Y-60421907D01*
X86817999Y-60421811D01*
X86808284Y-60412958D01*
X86787493Y-60400074D01*
X86760593Y-60385675D01*
X86732549Y-60372275D01*
X86708330Y-60362391D01*
X86692902Y-60358537D01*
X86690607Y-60362311D01*
X86687718Y-60380069D01*
X86685740Y-60409068D01*
X86685006Y-60445623D01*
X86684835Y-60470925D01*
X86684031Y-60502792D01*
X86682717Y-60524615D01*
X86681061Y-60532708D01*
X86672406Y-60529989D01*
X86654936Y-60522602D01*
X86632754Y-60512496D01*
X86632754Y-60382833D01*
X86632896Y-60349596D01*
X86634237Y-60299124D01*
X86637654Y-60261680D01*
X86643942Y-60234415D01*
X86653898Y-60214480D01*
X86668319Y-60199027D01*
X86688000Y-60185206D01*
X86713074Y-60173801D01*
X86759372Y-60166948D01*
X86780497Y-60167732D01*
G37*
X89440154Y-60151951D02*
X89406879Y-60168541D01*
X89377511Y-60199088D01*
X89369423Y-60210403D01*
X89360612Y-60225209D01*
X89354895Y-60241290D01*
X89351624Y-60262752D01*
X89350152Y-60293701D01*
X89349828Y-60334560D01*
X89351289Y-60390553D01*
X89356364Y-60432594D01*
X89366096Y-60463959D01*
X89381528Y-60487921D01*
X89403702Y-60507757D01*
X89405331Y-60508932D01*
X89427184Y-60520945D01*
X89453499Y-60526889D01*
X89486966Y-60528354D01*
X89541371Y-60528354D01*
X89541394Y-60581170D01*
X89541900Y-60610585D01*
X89544986Y-60627839D01*
X89553048Y-60638187D01*
X89568485Y-60646885D01*
X89572193Y-60648661D01*
X89589542Y-60656989D01*
X89602974Y-60662248D01*
X89612963Y-60662703D01*
X89619978Y-60656614D01*
X89624494Y-60642244D01*
X89626980Y-60617856D01*
X89627911Y-60581712D01*
X89627757Y-60532073D01*
X89626991Y-60467203D01*
X89626751Y-60447800D01*
X89625889Y-60380914D01*
X89625117Y-60337162D01*
X89541417Y-60337162D01*
X89540947Y-60374299D01*
X89538856Y-60398598D01*
X89534126Y-60414625D01*
X89525737Y-60426946D01*
X89520042Y-60432956D01*
X89496758Y-60450540D01*
X89476142Y-60451971D01*
X89454870Y-60437450D01*
X89454332Y-60436914D01*
X89445677Y-60425692D01*
X89440412Y-60410439D01*
X89437757Y-60386950D01*
X89436929Y-60351018D01*
X89436914Y-60343058D01*
X89438913Y-60293541D01*
X89445419Y-60259215D01*
X89457196Y-60238260D01*
X89475010Y-60228856D01*
X89485305Y-60227908D01*
X89509740Y-60232356D01*
X89526501Y-60246998D01*
X89536590Y-60273788D01*
X89541010Y-60314678D01*
X89541417Y-60337162D01*
X89625117Y-60337162D01*
X89624975Y-60329147D01*
X89623794Y-60290200D01*
X89622130Y-60261775D01*
X89619767Y-60241574D01*
X89616491Y-60227299D01*
X89612085Y-60216652D01*
X89606334Y-60207334D01*
X89603868Y-60203829D01*
X89571157Y-60170711D01*
X89529798Y-60151934D01*
X89481957Y-60146699D01*
X89440154Y-60151951D01*
G36*
X89625889Y-60380914D02*
G01*
X89626751Y-60447800D01*
X89626991Y-60467203D01*
X89627757Y-60532073D01*
X89627911Y-60581712D01*
X89626980Y-60617856D01*
X89624494Y-60642244D01*
X89619978Y-60656614D01*
X89612963Y-60662703D01*
X89602974Y-60662248D01*
X89589542Y-60656989D01*
X89572193Y-60648661D01*
X89568485Y-60646885D01*
X89553048Y-60638187D01*
X89544986Y-60627839D01*
X89541900Y-60610585D01*
X89541394Y-60581170D01*
X89541371Y-60528354D01*
X89486966Y-60528354D01*
X89453499Y-60526889D01*
X89427184Y-60520945D01*
X89405331Y-60508932D01*
X89403702Y-60507757D01*
X89381528Y-60487921D01*
X89366096Y-60463959D01*
X89356364Y-60432594D01*
X89351289Y-60390553D01*
X89350050Y-60343058D01*
X89436914Y-60343058D01*
X89436929Y-60351018D01*
X89437757Y-60386950D01*
X89440412Y-60410439D01*
X89445677Y-60425692D01*
X89454332Y-60436914D01*
X89454870Y-60437450D01*
X89476142Y-60451971D01*
X89496758Y-60450540D01*
X89520042Y-60432956D01*
X89525737Y-60426946D01*
X89534126Y-60414625D01*
X89538856Y-60398598D01*
X89540947Y-60374299D01*
X89541417Y-60337162D01*
X89541010Y-60314678D01*
X89536590Y-60273788D01*
X89526501Y-60246998D01*
X89509740Y-60232356D01*
X89485305Y-60227908D01*
X89475010Y-60228856D01*
X89457196Y-60238260D01*
X89445419Y-60259215D01*
X89438913Y-60293541D01*
X89436914Y-60343058D01*
X89350050Y-60343058D01*
X89349828Y-60334560D01*
X89350152Y-60293701D01*
X89351624Y-60262752D01*
X89354895Y-60241290D01*
X89360612Y-60225209D01*
X89369423Y-60210403D01*
X89377511Y-60199088D01*
X89406879Y-60168541D01*
X89440154Y-60151951D01*
X89481957Y-60146699D01*
X89529798Y-60151934D01*
X89571157Y-60170711D01*
X89603868Y-60203829D01*
X89606334Y-60207334D01*
X89612085Y-60216652D01*
X89616491Y-60227299D01*
X89619767Y-60241574D01*
X89622130Y-60261775D01*
X89623794Y-60290200D01*
X89624975Y-60329147D01*
X89625117Y-60337162D01*
X89625889Y-60380914D01*
G37*
X87937654Y-57345409D02*
X87890528Y-57345667D01*
X87856421Y-57346365D01*
X87833137Y-57347724D01*
X87818477Y-57349964D01*
X87810243Y-57353304D01*
X87806236Y-57357964D01*
X87804258Y-57364163D01*
X87804066Y-57364966D01*
X87801063Y-57379447D01*
X87795503Y-57408021D01*
X87787965Y-57447645D01*
X87779028Y-57495277D01*
X87769269Y-57547878D01*
X87768929Y-57549725D01*
X87759154Y-57601273D01*
X87750009Y-57646818D01*
X87742083Y-57683627D01*
X87735968Y-57708969D01*
X87732251Y-57720113D01*
X87732074Y-57720310D01*
X87721127Y-57725752D01*
X87698557Y-57734820D01*
X87669237Y-57745557D01*
X87669074Y-57745615D01*
X87632144Y-57759496D01*
X87588606Y-57777179D01*
X87547566Y-57794958D01*
X87545624Y-57795837D01*
X87478779Y-57826176D01*
X87330761Y-57725096D01*
X87285354Y-57694282D01*
X87244221Y-57666733D01*
X87209747Y-57644018D01*
X87184314Y-57627702D01*
X87170305Y-57619353D01*
X87168975Y-57618733D01*
X87158794Y-57621490D01*
X87139779Y-57634793D01*
X87111189Y-57659268D01*
X87072281Y-57695543D01*
X87032562Y-57734136D01*
X86994272Y-57772167D01*
X86960003Y-57806871D01*
X86931817Y-57836105D01*
X86911778Y-57857726D01*
X86901949Y-57869590D01*
X86901584Y-57870201D01*
X86900497Y-57878343D01*
X86904590Y-57891640D01*
X86914876Y-57911887D01*
X86932364Y-57940880D01*
X86958067Y-57980415D01*
X86992331Y-58031310D01*
X87022740Y-58076106D01*
X87049923Y-58116284D01*
X87072310Y-58149510D01*
X87088329Y-58173452D01*
X87096409Y-58185777D01*
X87096918Y-58186614D01*
X87095931Y-58198423D01*
X87088453Y-58221376D01*
X87075971Y-58251133D01*
X87071523Y-58260637D01*
X87052112Y-58302974D01*
X87031403Y-58351012D01*
X87014581Y-58392577D01*
X87002459Y-58423427D01*
X86992831Y-58446871D01*
X86987267Y-58459125D01*
X86986575Y-58460068D01*
X86976342Y-58461633D01*
X86952221Y-58465918D01*
X86917419Y-58472314D01*
X86875142Y-58480211D01*
X86828599Y-58489000D01*
X86780997Y-58498069D01*
X86735541Y-58506811D01*
X86695442Y-58514613D01*
X86663903Y-58520867D01*
X86644134Y-58524962D01*
X86639286Y-58526119D01*
X86634277Y-58528977D01*
X86630496Y-58535431D01*
X86627773Y-58547659D01*
X86625938Y-58567840D01*
X86624820Y-58598153D01*
X86624249Y-58640775D01*
X86624056Y-58697886D01*
X86624046Y-58721295D01*
X86624046Y-58911679D01*
X86669766Y-58920703D01*
X86695202Y-58925597D01*
X86733160Y-58932739D01*
X86779023Y-58941270D01*
X86828174Y-58950326D01*
X86841760Y-58952813D01*
X86887116Y-58961632D01*
X86926628Y-58970303D01*
X86956980Y-58978025D01*
X86974856Y-58983993D01*
X86977833Y-58985772D01*
X86985144Y-58998370D01*
X86995628Y-59022780D01*
X87007254Y-59054193D01*
X87009560Y-59060960D01*
X87024797Y-59102914D01*
X87043710Y-59150251D01*
X87062219Y-59192760D01*
X87062310Y-59192957D01*
X87093132Y-59259640D01*
X86991761Y-59408752D01*
X86890389Y-59557863D01*
X87020543Y-59688235D01*
X87059909Y-59727036D01*
X87095813Y-59761240D01*
X87126240Y-59789020D01*
X87149172Y-59808550D01*
X87162595Y-59818006D01*
X87164520Y-59818606D01*
X87175824Y-59813881D01*
X87198892Y-59800747D01*
X87231202Y-59780760D01*
X87270234Y-59755479D01*
X87312436Y-59727166D01*
X87355267Y-59698286D01*
X87393455Y-59673157D01*
X87424575Y-59653323D01*
X87446203Y-59640331D01*
X87455880Y-59635726D01*
X87467687Y-59639622D01*
X87490075Y-59649890D01*
X87518427Y-59664396D01*
X87521433Y-59666008D01*
X87559614Y-59685156D01*
X87585795Y-59694547D01*
X87602079Y-59694647D01*
X87610566Y-59685922D01*
X87610615Y-59685800D01*
X87614857Y-59675467D01*
X87624975Y-59650939D01*
X87640183Y-59614115D01*
X87659697Y-59566891D01*
X87682733Y-59511168D01*
X87708507Y-59448843D01*
X87733467Y-59388501D01*
X87760898Y-59321910D01*
X87786084Y-59260222D01*
X87808271Y-59205329D01*
X87826704Y-59159121D01*
X87840627Y-59123489D01*
X87849286Y-59100325D01*
X87851954Y-59091680D01*
X87845262Y-59081763D01*
X87827759Y-59065958D01*
X87804417Y-59048532D01*
X87737946Y-58993423D01*
X87685989Y-58930255D01*
X87649170Y-58860360D01*
X87628111Y-58785066D01*
X87623435Y-58705704D01*
X87626834Y-58669074D01*
X87645353Y-58593077D01*
X87677248Y-58525965D01*
X87720540Y-58468401D01*
X87773250Y-58421046D01*
X87833401Y-58384562D01*
X87899014Y-58359612D01*
X87968112Y-58346857D01*
X88038715Y-58346959D01*
X88108846Y-58360581D01*
X88176527Y-58388383D01*
X88239779Y-58431028D01*
X88266179Y-58455147D01*
X88316813Y-58517077D01*
X88352067Y-58584755D01*
X88372178Y-58656206D01*
X88377379Y-58729457D01*
X88367906Y-58802536D01*
X88343993Y-58873470D01*
X88305876Y-58940285D01*
X88253787Y-59001010D01*
X88195583Y-59048532D01*
X88171338Y-59066697D01*
X88154211Y-59082331D01*
X88148046Y-59091695D01*
X88151274Y-59101906D01*
X88160455Y-59126300D01*
X88174833Y-59162985D01*
X88193654Y-59210071D01*
X88216161Y-59265668D01*
X88241600Y-59327883D01*
X88266602Y-59388516D01*
X88294186Y-59455164D01*
X88319736Y-59516925D01*
X88342467Y-59571899D01*
X88361596Y-59618190D01*
X88376337Y-59653899D01*
X88385908Y-59677126D01*
X88389454Y-59685800D01*
X88397831Y-59694611D01*
X88414036Y-59694585D01*
X88440152Y-59685259D01*
X88478266Y-59666170D01*
X88478567Y-59666008D01*
X88507264Y-59651194D01*
X88530462Y-59640403D01*
X88543543Y-59635768D01*
X88544120Y-59635726D01*
X88553967Y-59640427D01*
X88575708Y-59653499D01*
X88606916Y-59673397D01*
X88645165Y-59698575D01*
X88687564Y-59727166D01*
X88730730Y-59756115D01*
X88769636Y-59781291D01*
X88801759Y-59801136D01*
X88824582Y-59814093D01*
X88835480Y-59818606D01*
X88845515Y-59812674D01*
X88865692Y-59796096D01*
X88893994Y-59770697D01*
X88928405Y-59738303D01*
X88966910Y-59700739D01*
X88979502Y-59688190D01*
X89109701Y-59557774D01*
X89010599Y-59412332D01*
X88980482Y-59367669D01*
X88954049Y-59327583D01*
X88932783Y-59294399D01*
X88918169Y-59270437D01*
X88911687Y-59258022D01*
X88911497Y-59257138D01*
X88914914Y-59245435D01*
X88924104Y-59221893D01*
X88937478Y-59190458D01*
X88946864Y-59169413D01*
X88964415Y-59129121D01*
X88980944Y-59088415D01*
X88993758Y-59054020D01*
X88997239Y-59043543D01*
X89007129Y-59015563D01*
X89016796Y-58993943D01*
X89022106Y-58985772D01*
X89033824Y-58980771D01*
X89059400Y-58973682D01*
X89095513Y-58965309D01*
X89138847Y-58956453D01*
X89158240Y-58952813D01*
X89207487Y-58943764D01*
X89254723Y-58935001D01*
X89295335Y-58927388D01*
X89324704Y-58921785D01*
X89330234Y-58920703D01*
X89375954Y-58911679D01*
X89375954Y-58721295D01*
X89375852Y-58658692D01*
X89375430Y-58611328D01*
X89374520Y-58577023D01*
X89372951Y-58553599D01*
X89370552Y-58538879D01*
X89367155Y-58530683D01*
X89362588Y-58526833D01*
X89360714Y-58526119D01*
X89349413Y-58523588D01*
X89324447Y-58518537D01*
X89289022Y-58511577D01*
X89246346Y-58503317D01*
X89199625Y-58494368D01*
X89152068Y-58485339D01*
X89106881Y-58476841D01*
X89067272Y-58469484D01*
X89036448Y-58463877D01*
X89017615Y-58460630D01*
X89013425Y-58460068D01*
X89009629Y-58452558D01*
X89001226Y-58432548D01*
X88989787Y-58403826D01*
X88985420Y-58392577D01*
X88967802Y-58349117D01*
X88947057Y-58301102D01*
X88928478Y-58260637D01*
X88914806Y-58229695D01*
X88905711Y-58204271D01*
X88902675Y-58188700D01*
X88903158Y-58186614D01*
X88909575Y-58176762D01*
X88924228Y-58154850D01*
X88945543Y-58123212D01*
X88971948Y-58084181D01*
X89001870Y-58040091D01*
X89007786Y-58031387D01*
X89042505Y-57979822D01*
X89068026Y-57940557D01*
X89085368Y-57911782D01*
X89095546Y-57891692D01*
X89099580Y-57878477D01*
X89098486Y-57870330D01*
X89098458Y-57870279D01*
X89089848Y-57859578D01*
X89070806Y-57838890D01*
X89043394Y-57810361D01*
X89009678Y-57776133D01*
X88971719Y-57738353D01*
X88967439Y-57734136D01*
X88919602Y-57687812D01*
X88882686Y-57653798D01*
X88855947Y-57631466D01*
X88838646Y-57620189D01*
X88831025Y-57618733D01*
X88819904Y-57625083D01*
X88796823Y-57639750D01*
X88764168Y-57661167D01*
X88724321Y-57687768D01*
X88679665Y-57717987D01*
X88669239Y-57725096D01*
X88521222Y-57826176D01*
X88454376Y-57795837D01*
X88413726Y-57778157D01*
X88370090Y-57760375D01*
X88332578Y-57746198D01*
X88330926Y-57745615D01*
X88301584Y-57734874D01*
X88278966Y-57725792D01*
X88267945Y-57720326D01*
X88267926Y-57720310D01*
X88264429Y-57710430D01*
X88258485Y-57686131D01*
X88250683Y-57650145D01*
X88241615Y-57605204D01*
X88231869Y-57554038D01*
X88231071Y-57549725D01*
X88221295Y-57497008D01*
X88212320Y-57449156D01*
X88204725Y-57409209D01*
X88199088Y-57380208D01*
X88195988Y-57365195D01*
X88195934Y-57364966D01*
X88194047Y-57358579D01*
X88190378Y-57353757D01*
X88182728Y-57350280D01*
X88168900Y-57347928D01*
X88146695Y-57346481D01*
X88113914Y-57345719D01*
X88068360Y-57345423D01*
X88007834Y-57345372D01*
X88000000Y-57345372D01*
X87937654Y-57345409D01*
G36*
X88068360Y-57345423D02*
G01*
X88113914Y-57345719D01*
X88146695Y-57346481D01*
X88168900Y-57347928D01*
X88182728Y-57350280D01*
X88190378Y-57353757D01*
X88194047Y-57358579D01*
X88195934Y-57364966D01*
X88195988Y-57365195D01*
X88199088Y-57380208D01*
X88204725Y-57409209D01*
X88212320Y-57449156D01*
X88221295Y-57497008D01*
X88231071Y-57549725D01*
X88231869Y-57554038D01*
X88241615Y-57605204D01*
X88250683Y-57650145D01*
X88258485Y-57686131D01*
X88264429Y-57710430D01*
X88267926Y-57720310D01*
X88267945Y-57720326D01*
X88278966Y-57725792D01*
X88301584Y-57734874D01*
X88330926Y-57745615D01*
X88332578Y-57746198D01*
X88370090Y-57760375D01*
X88413726Y-57778157D01*
X88454376Y-57795837D01*
X88521222Y-57826176D01*
X88669239Y-57725096D01*
X88679665Y-57717987D01*
X88724321Y-57687768D01*
X88764168Y-57661167D01*
X88796823Y-57639750D01*
X88819904Y-57625083D01*
X88831025Y-57618733D01*
X88838646Y-57620189D01*
X88855947Y-57631466D01*
X88882686Y-57653798D01*
X88919602Y-57687812D01*
X88967439Y-57734136D01*
X88971719Y-57738353D01*
X89009678Y-57776133D01*
X89043394Y-57810361D01*
X89070806Y-57838890D01*
X89089848Y-57859578D01*
X89098458Y-57870279D01*
X89098486Y-57870330D01*
X89099580Y-57878477D01*
X89095546Y-57891692D01*
X89085368Y-57911782D01*
X89068026Y-57940557D01*
X89042505Y-57979822D01*
X89007786Y-58031387D01*
X89001870Y-58040091D01*
X88971948Y-58084181D01*
X88945543Y-58123212D01*
X88924228Y-58154850D01*
X88909575Y-58176762D01*
X88903158Y-58186614D01*
X88902675Y-58188700D01*
X88905711Y-58204271D01*
X88914806Y-58229695D01*
X88928478Y-58260637D01*
X88947057Y-58301102D01*
X88967802Y-58349117D01*
X88985420Y-58392577D01*
X88989787Y-58403826D01*
X89001226Y-58432548D01*
X89009629Y-58452558D01*
X89013425Y-58460068D01*
X89017615Y-58460630D01*
X89036448Y-58463877D01*
X89067272Y-58469484D01*
X89106881Y-58476841D01*
X89152068Y-58485339D01*
X89199625Y-58494368D01*
X89246346Y-58503317D01*
X89289022Y-58511577D01*
X89324447Y-58518537D01*
X89349413Y-58523588D01*
X89360714Y-58526119D01*
X89362588Y-58526833D01*
X89367155Y-58530683D01*
X89370552Y-58538879D01*
X89372951Y-58553599D01*
X89374520Y-58577023D01*
X89375430Y-58611328D01*
X89375852Y-58658692D01*
X89375954Y-58721295D01*
X89375954Y-58911679D01*
X89330234Y-58920703D01*
X89324704Y-58921785D01*
X89295335Y-58927388D01*
X89254723Y-58935001D01*
X89207487Y-58943764D01*
X89158240Y-58952813D01*
X89138847Y-58956453D01*
X89095513Y-58965309D01*
X89059400Y-58973682D01*
X89033824Y-58980771D01*
X89022106Y-58985772D01*
X89016796Y-58993943D01*
X89007129Y-59015563D01*
X88997239Y-59043543D01*
X88993758Y-59054020D01*
X88980944Y-59088415D01*
X88964415Y-59129121D01*
X88946864Y-59169413D01*
X88937478Y-59190458D01*
X88924104Y-59221893D01*
X88914914Y-59245435D01*
X88911497Y-59257138D01*
X88911687Y-59258022D01*
X88918169Y-59270437D01*
X88932783Y-59294399D01*
X88954049Y-59327583D01*
X88980482Y-59367669D01*
X89010599Y-59412332D01*
X89109701Y-59557774D01*
X88979502Y-59688190D01*
X88966910Y-59700739D01*
X88928405Y-59738303D01*
X88893994Y-59770697D01*
X88865692Y-59796096D01*
X88845515Y-59812674D01*
X88835480Y-59818606D01*
X88824582Y-59814093D01*
X88801759Y-59801136D01*
X88769636Y-59781291D01*
X88730730Y-59756115D01*
X88687564Y-59727166D01*
X88645165Y-59698575D01*
X88606916Y-59673397D01*
X88575708Y-59653499D01*
X88553967Y-59640427D01*
X88544120Y-59635726D01*
X88543543Y-59635768D01*
X88530462Y-59640403D01*
X88507264Y-59651194D01*
X88478567Y-59666008D01*
X88478266Y-59666170D01*
X88440152Y-59685259D01*
X88414036Y-59694585D01*
X88397831Y-59694611D01*
X88389454Y-59685800D01*
X88385908Y-59677126D01*
X88376337Y-59653899D01*
X88361596Y-59618190D01*
X88342467Y-59571899D01*
X88319736Y-59516925D01*
X88294186Y-59455164D01*
X88266602Y-59388516D01*
X88241600Y-59327883D01*
X88216161Y-59265668D01*
X88193654Y-59210071D01*
X88174833Y-59162985D01*
X88160455Y-59126300D01*
X88151274Y-59101906D01*
X88148046Y-59091695D01*
X88154211Y-59082331D01*
X88171338Y-59066697D01*
X88195583Y-59048532D01*
X88253787Y-59001010D01*
X88305876Y-58940285D01*
X88343993Y-58873470D01*
X88367906Y-58802536D01*
X88377379Y-58729457D01*
X88372178Y-58656206D01*
X88352067Y-58584755D01*
X88316813Y-58517077D01*
X88266179Y-58455147D01*
X88239779Y-58431028D01*
X88176527Y-58388383D01*
X88108846Y-58360581D01*
X88038715Y-58346959D01*
X87968112Y-58346857D01*
X87899014Y-58359612D01*
X87833401Y-58384562D01*
X87773250Y-58421046D01*
X87720540Y-58468401D01*
X87677248Y-58525965D01*
X87645353Y-58593077D01*
X87626834Y-58669074D01*
X87623435Y-58705704D01*
X87628111Y-58785066D01*
X87649170Y-58860360D01*
X87685989Y-58930255D01*
X87737946Y-58993423D01*
X87804417Y-59048532D01*
X87827759Y-59065958D01*
X87845262Y-59081763D01*
X87851954Y-59091680D01*
X87849286Y-59100325D01*
X87840627Y-59123489D01*
X87826704Y-59159121D01*
X87808271Y-59205329D01*
X87786084Y-59260222D01*
X87760898Y-59321910D01*
X87733467Y-59388501D01*
X87708507Y-59448843D01*
X87682733Y-59511168D01*
X87659697Y-59566891D01*
X87640183Y-59614115D01*
X87624975Y-59650939D01*
X87614857Y-59675467D01*
X87610615Y-59685800D01*
X87610566Y-59685922D01*
X87602079Y-59694647D01*
X87585795Y-59694547D01*
X87559614Y-59685156D01*
X87521433Y-59666008D01*
X87518427Y-59664396D01*
X87490075Y-59649890D01*
X87467687Y-59639622D01*
X87455880Y-59635726D01*
X87446203Y-59640331D01*
X87424575Y-59653323D01*
X87393455Y-59673157D01*
X87355267Y-59698286D01*
X87312436Y-59727166D01*
X87270234Y-59755479D01*
X87231202Y-59780760D01*
X87198892Y-59800747D01*
X87175824Y-59813881D01*
X87164520Y-59818606D01*
X87162595Y-59818006D01*
X87149172Y-59808550D01*
X87126240Y-59789020D01*
X87095813Y-59761240D01*
X87059909Y-59727036D01*
X87020543Y-59688235D01*
X86890389Y-59557863D01*
X86991761Y-59408752D01*
X87093132Y-59259640D01*
X87062310Y-59192957D01*
X87062219Y-59192760D01*
X87043710Y-59150251D01*
X87024797Y-59102914D01*
X87009560Y-59060960D01*
X87007254Y-59054193D01*
X86995628Y-59022780D01*
X86985144Y-58998370D01*
X86977833Y-58985772D01*
X86974856Y-58983993D01*
X86956980Y-58978025D01*
X86926628Y-58970303D01*
X86887116Y-58961632D01*
X86841760Y-58952813D01*
X86828174Y-58950326D01*
X86779023Y-58941270D01*
X86733160Y-58932739D01*
X86695202Y-58925597D01*
X86669766Y-58920703D01*
X86624046Y-58911679D01*
X86624046Y-58721295D01*
X86624056Y-58697886D01*
X86624249Y-58640775D01*
X86624820Y-58598153D01*
X86625938Y-58567840D01*
X86627773Y-58547659D01*
X86630496Y-58535431D01*
X86634277Y-58528977D01*
X86639286Y-58526119D01*
X86644134Y-58524962D01*
X86663903Y-58520867D01*
X86695442Y-58514613D01*
X86735541Y-58506811D01*
X86780997Y-58498069D01*
X86828599Y-58489000D01*
X86875142Y-58480211D01*
X86917419Y-58472314D01*
X86952221Y-58465918D01*
X86976342Y-58461633D01*
X86986575Y-58460068D01*
X86987267Y-58459125D01*
X86992831Y-58446871D01*
X87002459Y-58423427D01*
X87014581Y-58392577D01*
X87031403Y-58351012D01*
X87052112Y-58302974D01*
X87071523Y-58260637D01*
X87075971Y-58251133D01*
X87088453Y-58221376D01*
X87095931Y-58198423D01*
X87096918Y-58186614D01*
X87096409Y-58185777D01*
X87088329Y-58173452D01*
X87072310Y-58149510D01*
X87049923Y-58116284D01*
X87022740Y-58076106D01*
X86992331Y-58031310D01*
X86958067Y-57980415D01*
X86932364Y-57940880D01*
X86914876Y-57911887D01*
X86904590Y-57891640D01*
X86900497Y-57878343D01*
X86901584Y-57870201D01*
X86901949Y-57869590D01*
X86911778Y-57857726D01*
X86931817Y-57836105D01*
X86960003Y-57806871D01*
X86994272Y-57772167D01*
X87032562Y-57734136D01*
X87072281Y-57695543D01*
X87111189Y-57659268D01*
X87139779Y-57634793D01*
X87158794Y-57621490D01*
X87168975Y-57618733D01*
X87170305Y-57619353D01*
X87184314Y-57627702D01*
X87209747Y-57644018D01*
X87244221Y-57666733D01*
X87285354Y-57694282D01*
X87330761Y-57725096D01*
X87478779Y-57826176D01*
X87545624Y-57795837D01*
X87547566Y-57794958D01*
X87588606Y-57777179D01*
X87632144Y-57759496D01*
X87669074Y-57745615D01*
X87669237Y-57745557D01*
X87698557Y-57734820D01*
X87721127Y-57725752D01*
X87732074Y-57720310D01*
X87732251Y-57720113D01*
X87735968Y-57708969D01*
X87742083Y-57683627D01*
X87750009Y-57646818D01*
X87759154Y-57601273D01*
X87768929Y-57549725D01*
X87769269Y-57547878D01*
X87779028Y-57495277D01*
X87787965Y-57447645D01*
X87795503Y-57408021D01*
X87801063Y-57379447D01*
X87804066Y-57364966D01*
X87804258Y-57364163D01*
X87806236Y-57357964D01*
X87810243Y-57353304D01*
X87818477Y-57349964D01*
X87833137Y-57347724D01*
X87856421Y-57346365D01*
X87890528Y-57345667D01*
X87937654Y-57345409D01*
X88000000Y-57345372D01*
X88007834Y-57345372D01*
X88068360Y-57345423D01*
G37*
%TO.C,TP1*%
D11*
X30450000Y-23500000D02*
G75*
G02*
X28550000Y-23500000I-950000J0D01*
G01*
X28550000Y-23500000D02*
G75*
G02*
X30450000Y-23500000I950000J0D01*
G01*
%TO.C,SJ1*%
X83000000Y-30100000D02*
X83000000Y-29500000D01*
X83300000Y-29800000D02*
X83000000Y-29500000D01*
X83300000Y-29800000D02*
X83000000Y-30100000D01*
X83500000Y-26450000D02*
X83500000Y-30550000D01*
X83500000Y-30550000D02*
X85500000Y-30550000D01*
X85500000Y-26450000D02*
X83500000Y-26450000D01*
X85500000Y-30550000D02*
X85500000Y-26450000D01*
%TO.C,TP2*%
X35950000Y-23500000D02*
G75*
G02*
X34050000Y-23500000I-950000J0D01*
G01*
X34050000Y-23500000D02*
G75*
G02*
X35950000Y-23500000I950000J0D01*
G01*
%TD*%
%LPC*%
%TO.C,SJ1*%
G36*
X83750000Y-27700000D02*
G01*
X85250000Y-27700000D01*
X85250000Y-29300000D01*
X83750000Y-29300000D01*
X83750000Y-27700000D01*
G37*
%TD*%
D13*
%TO.C,H2*%
X90000000Y-25000000D03*
%TD*%
%TO.C,H1*%
X25000000Y-25000000D03*
%TD*%
%TO.C,H4*%
X90000000Y-65000000D03*
%TD*%
%TO.C,H3*%
X25000000Y-65000000D03*
%TD*%
D14*
%TO.C,J1*%
X32000000Y-66400000D03*
D15*
X34540000Y-66400000D03*
X37080000Y-66400000D03*
X39620000Y-66400000D03*
X42160000Y-66400000D03*
X44700000Y-66400000D03*
X47240000Y-66400000D03*
X49780000Y-66400000D03*
%TD*%
D14*
%TO.C,J2*%
X62000000Y-66400000D03*
D15*
X64540000Y-66400000D03*
X67080000Y-66400000D03*
X69620000Y-66400000D03*
X72160000Y-66400000D03*
X74700000Y-66400000D03*
X77240000Y-66400000D03*
X79780000Y-66400000D03*
X82320000Y-66400000D03*
X84860000Y-66400000D03*
%TD*%
D16*
%TO.C,TP3*%
X40500000Y-23500000D03*
%TD*%
%TO.C,TP1*%
X29500000Y-23500000D03*
%TD*%
D17*
%TO.C,SJ1*%
X84500000Y-29800000D03*
X84500000Y-28500000D03*
X84500000Y-27200000D03*
%TD*%
D16*
%TO.C,TP2*%
X35000000Y-23500000D03*
%TD*%
%LPD*%
M02*
