%TF.GenerationSoftware,KiCad,Pcbnew,10.0.3*%
%TF.CreationDate,2026-10-10T16:30:23+10:30*%
%TF.ProjectId,STPM34_Breakout,5354504d-3334-45f4-9272-65616b6f7574,A*%
%TF.SameCoordinates,Original*%
%TF.FileFunction,Paste,Top*%
%TF.FilePolarity,Positive*%
%FSLAX46Y46*%
G04 Gerber Fmt 4.6, Leading zero omitted, Abs format (unit mm)*
G04 Created by KiCad (PCBNEW 10.0.3) date 2026-10-10 16:30:23*
%MOMM*%
%LPD*%
G01*
G04 APERTURE LIST*
G04 Aperture macros list*
%AMRoundRect*
0 Rectangle with rounded corners*
0 $1 Rounding radius*
0 $2 $3 $4 $5 $6 $7 $8 $9 X,Y pos of 4 corners*
0 Add a 4 corners polygon primitive as box body*
4,1,4,$2,$3,$4,$5,$6,$7,$8,$9,$2,$3,0*
0 Add four circle primitives for the rounded corners*
1,1,$1+$1,$2,$3*
1,1,$1+$1,$4,$5*
1,1,$1+$1,$6,$7*
1,1,$1+$1,$8,$9*
0 Add four rect primitives between the rounded corners*
20,1,$1+$1,$2,$3,$4,$5,0*
20,1,$1+$1,$4,$5,$6,$7,0*
20,1,$1+$1,$6,$7,$8,$9,0*
20,1,$1+$1,$8,$9,$2,$3,0*%
G04 Aperture macros list end*
%ADD10RoundRect,0.200000X-0.200000X-0.275000X0.200000X-0.275000X0.200000X0.275000X-0.200000X0.275000X0*%
%ADD11RoundRect,0.225000X0.250000X-0.225000X0.250000X0.225000X-0.250000X0.225000X-0.250000X-0.225000X0*%
%ADD12RoundRect,0.250000X0.475000X-0.250000X0.475000X0.250000X-0.475000X0.250000X-0.475000X-0.250000X0*%
%ADD13RoundRect,0.232500X-0.232500X-0.232500X0.232500X-0.232500X0.232500X0.232500X-0.232500X0.232500X0*%
%ADD14RoundRect,0.062500X-0.375000X-0.062500X0.375000X-0.062500X0.375000X0.062500X-0.375000X0.062500X0*%
%ADD15RoundRect,0.062500X-0.062500X-0.375000X0.062500X-0.375000X0.062500X0.375000X-0.062500X0.375000X0*%
%ADD16R,1.500000X1.500000*%
%ADD17RoundRect,0.250000X-0.450000X-0.350000X0.450000X-0.350000X0.450000X0.350000X-0.450000X0.350000X0*%
G04 APERTURE END LIST*
D10*
%TO.C,R2*%
X33175000Y-31200000D03*
X34825000Y-31200000D03*
%TD*%
%TO.C,R6*%
X31175000Y-47000000D03*
X32825000Y-47000000D03*
%TD*%
%TO.C,R1*%
X33175000Y-27800000D03*
X34825000Y-27800000D03*
%TD*%
%TO.C,R4*%
X33175000Y-38700000D03*
X34825000Y-38700000D03*
%TD*%
D11*
%TO.C,C15*%
X62500000Y-46975000D03*
X62500000Y-45425000D03*
%TD*%
D10*
%TO.C,R10*%
X35675000Y-52000000D03*
X37325000Y-52000000D03*
%TD*%
%TO.C,R11*%
X40175000Y-47000000D03*
X41825000Y-47000000D03*
%TD*%
D12*
%TO.C,C11*%
X70500000Y-40450000D03*
X70500000Y-38550000D03*
%TD*%
D10*
%TO.C,R3*%
X33175000Y-35300000D03*
X34825000Y-35300000D03*
%TD*%
D11*
%TO.C,C12*%
X56000000Y-46975000D03*
X56000000Y-45425000D03*
%TD*%
D10*
%TO.C,R19*%
X55675000Y-58000000D03*
X57325000Y-58000000D03*
%TD*%
%TO.C,R21*%
X64675000Y-53000000D03*
X66325000Y-53000000D03*
%TD*%
%TO.C,R17*%
X60175000Y-53000000D03*
X61825000Y-53000000D03*
%TD*%
D12*
%TO.C,C9*%
X69500000Y-31450000D03*
X69500000Y-29550000D03*
%TD*%
D10*
%TO.C,R14*%
X78175000Y-42000000D03*
X79825000Y-42000000D03*
%TD*%
%TO.C,RB2*%
X27675000Y-37000000D03*
X29325000Y-37000000D03*
%TD*%
%TO.C,R15*%
X51175000Y-53000000D03*
X52825000Y-53000000D03*
%TD*%
%TO.C,R18*%
X51175000Y-58000000D03*
X52825000Y-58000000D03*
%TD*%
%TO.C,R9*%
X31175000Y-52000000D03*
X32825000Y-52000000D03*
%TD*%
%TO.C,R22*%
X64675000Y-58000000D03*
X66325000Y-58000000D03*
%TD*%
D13*
%TO.C,U1*%
X56850000Y-37850000D03*
X56850000Y-39000000D03*
X56850000Y-40150000D03*
X58000000Y-37850000D03*
X58000000Y-39000000D03*
X58000000Y-40150000D03*
X59150000Y-37850000D03*
X59150000Y-39000000D03*
X59150000Y-40150000D03*
D14*
X55562500Y-37250000D03*
X55562500Y-37750000D03*
X55562500Y-38250000D03*
X55562500Y-38750000D03*
X55562500Y-39250000D03*
X55562500Y-39750000D03*
X55562500Y-40250000D03*
X55562500Y-40750000D03*
D15*
X56250000Y-41437500D03*
X56750000Y-41437500D03*
X57250000Y-41437500D03*
X57750000Y-41437500D03*
X58250000Y-41437500D03*
X58750000Y-41437500D03*
X59250000Y-41437500D03*
X59750000Y-41437500D03*
D14*
X60437500Y-40750000D03*
X60437500Y-40250000D03*
X60437500Y-39750000D03*
X60437500Y-39250000D03*
X60437500Y-38750000D03*
X60437500Y-38250000D03*
X60437500Y-37750000D03*
X60437500Y-37250000D03*
D15*
X59750000Y-36562500D03*
X59250000Y-36562500D03*
X58750000Y-36562500D03*
X58250000Y-36562500D03*
X57750000Y-36562500D03*
X57250000Y-36562500D03*
X56750000Y-36562500D03*
X56250000Y-36562500D03*
%TD*%
D12*
%TO.C,C10*%
X70500000Y-35950000D03*
X70500000Y-34050000D03*
%TD*%
D10*
%TO.C,R7*%
X35675000Y-47000000D03*
X37325000Y-47000000D03*
%TD*%
D11*
%TO.C,C14*%
X55200000Y-27775000D03*
X55200000Y-26225000D03*
%TD*%
%TO.C,C2*%
X39000000Y-31975000D03*
X39000000Y-30425000D03*
%TD*%
D10*
%TO.C,R16*%
X55675000Y-53000000D03*
X57325000Y-53000000D03*
%TD*%
D11*
%TO.C,C5*%
X44500000Y-47775000D03*
X44500000Y-46225000D03*
%TD*%
%TO.C,C13*%
X55200000Y-24575000D03*
X55200000Y-23025000D03*
%TD*%
D10*
%TO.C,R5*%
X26675000Y-47000000D03*
X28325000Y-47000000D03*
%TD*%
D16*
%TO.C,SW1*%
X89000000Y-41900000D03*
X89000000Y-34100000D03*
%TD*%
D11*
%TO.C,C4*%
X39000000Y-39475000D03*
X39000000Y-37925000D03*
%TD*%
%TO.C,C3*%
X39000000Y-36075000D03*
X39000000Y-34525000D03*
%TD*%
%TO.C,C7*%
X69000000Y-53775000D03*
X69000000Y-52225000D03*
%TD*%
D10*
%TO.C,R20*%
X60175000Y-58000000D03*
X61825000Y-58000000D03*
%TD*%
%TO.C,RB1*%
X27675000Y-29500000D03*
X29325000Y-29500000D03*
%TD*%
%TO.C,R8*%
X26675000Y-52000000D03*
X28325000Y-52000000D03*
%TD*%
D17*
%TO.C,Y1*%
X50900000Y-25650000D03*
X53100000Y-25650000D03*
X53100000Y-23950000D03*
X50900000Y-23950000D03*
%TD*%
D11*
%TO.C,C8*%
X69000000Y-58775000D03*
X69000000Y-57225000D03*
%TD*%
%TO.C,C1*%
X39000000Y-28575000D03*
X39000000Y-27025000D03*
%TD*%
%TO.C,C6*%
X44500000Y-52775000D03*
X44500000Y-51225000D03*
%TD*%
D10*
%TO.C,R13*%
X79175000Y-35000000D03*
X80825000Y-35000000D03*
%TD*%
%TO.C,R12*%
X40175000Y-52000000D03*
X41825000Y-52000000D03*
%TD*%
M02*
