M48
; DRILL file KiCad 10.0.3 date 2026-10-06T12:37:55
; FORMAT={-:-/ absolute / metric / decimal}
; #@! TF.CreationDate,2026-10-06T12:37:55+10:30
; #@! TF.GenerationSoftware,Kicad,Pcbnew,10.0.3
; #@! TF.FileFunction,Plated,1,2,PTH
FMAT,2
METRIC
; #@! TA.AperFunction,Plated,PTH,ViaDrill
T1C0.300
; #@! TA.AperFunction,Plated,PTH,ComponentDrill
T2C1.000
%
G90
G05
T1
X29.856Y-38.783
X33.894Y-28.522
X34.237Y-32.262
X34.631Y-40.389
X38.035Y-28.722
X38.96Y-32.929
X40.456Y-39.781
X41.697Y-23.066
X41.77Y-37.507
X42.918Y-35.536
X44.805Y-35.595
X44.807Y-38.25
X45.26Y-49.015
X45.469Y-36.566
X45.543Y-41.681
X45.755Y-42.471
X45.802Y-27.782
X46.484Y-39.372
X46.64Y-41.264
X46.643Y-34.413
X47.281Y-40.361
X47.459Y-32.862
X47.883Y-33.564
X48.001Y-32.284
X49.332Y-32.804
X49.72Y-40.364
X49.912Y-33.615
X50.133Y-30.473
X57.559Y-45.779
X58.395Y-40.845
X59.445Y-35.692
X59.826Y-42.666
X61.402Y-30.359
X62.409Y-33.234
X64.26Y-41.435
T2
X30.5Y-56.4
X33.04Y-56.4
X35.58Y-56.4
X38.12Y-56.4
X40.66Y-56.4
X43.2Y-56.4
X45.74Y-56.4
X48.28Y-56.4
X50.82Y-56.4
X53.36Y-56.4
X55.9Y-56.4
X58.44Y-56.4
X60.98Y-56.4
X63.52Y-56.4
M30
