%TF.GenerationSoftware,KiCad,Pcbnew,10.0.3*%
%TF.CreationDate,2026-10-06T14:06:27+10:30*%
%TF.ProjectId,STPM33_Breakout,5354504d-3333-45f4-9272-65616b6f7574,A*%
%TF.SameCoordinates,Original*%
%TF.FileFunction,Copper,L2,Bot*%
%TF.FilePolarity,Positive*%
%FSLAX46Y46*%
G04 Gerber Fmt 4.6, Leading zero omitted, Abs format (unit mm)*
G04 Created by KiCad (PCBNEW 10.0.3) date 2026-10-06 14:06:27*
%MOMM*%
%LPD*%
G01*
G04 APERTURE LIST*
%TA.AperFunction,EtchedComponent*%
%ADD10C,0.000000*%
%TD*%
%TA.AperFunction,ComponentPad*%
%ADD11R,1.700000X1.700000*%
%TD*%
%TA.AperFunction,ComponentPad*%
%ADD12C,1.700000*%
%TD*%
%TA.AperFunction,SMDPad,CuDef*%
%ADD13C,1.500000*%
%TD*%
%TA.AperFunction,SMDPad,CuDef*%
%ADD14R,1.500000X1.000000*%
%TD*%
%TA.AperFunction,ViaPad*%
%ADD15C,0.600000*%
%TD*%
%TA.AperFunction,Conductor*%
%ADD16C,0.180000*%
%TD*%
G04 APERTURE END LIST*
D10*
%TA.AperFunction,EtchedComponent*%
%TO.C,SJ1*%
G36*
X65800000Y-29400000D02*
G01*
X65200000Y-29400000D01*
X65200000Y-28900000D01*
X65800000Y-28900000D01*
X65800000Y-29400000D01*
G37*
%TD.AperFunction*%
%TD*%
D11*
%TO.P,J1,1*%
%TO.N,+3V3*%
X30500000Y-56400000D03*
D12*
%TO.P,J1,2*%
%TO.N,DGND*%
X33040000Y-56400000D03*
%TO.P,J1,3*%
%TO.N,VAC_P*%
X35580000Y-56400000D03*
%TO.P,J1,4*%
%TO.N,VAC_N*%
X38120000Y-56400000D03*
%TO.P,J1,5*%
%TO.N,CT1_P*%
X40660000Y-56400000D03*
%TO.P,J1,6*%
%TO.N,CT1_N*%
X43200000Y-56400000D03*
%TO.P,J1,7*%
%TO.N,CT2_P*%
X45740000Y-56400000D03*
%TO.P,J1,8*%
%TO.N,CT2_N*%
X48280000Y-56400000D03*
%TO.P,J1,9*%
%TO.N,SCS*%
X50820000Y-56400000D03*
%TO.P,J1,10*%
%TO.N,SCL*%
X53360000Y-56400000D03*
%TO.P,J1,11*%
%TO.N,MOSI_RXD*%
X55900000Y-56400000D03*
%TO.P,J1,12*%
%TO.N,MISO_TXD*%
X58440000Y-56400000D03*
%TO.P,J1,13*%
%TO.N,SYN*%
X60980000Y-56400000D03*
%TO.P,J1,14*%
%TO.N,EN*%
X63520000Y-56400000D03*
%TD*%
D13*
%TO.P,TP4,1*%
%TO.N,LED2*%
X59500000Y-23500000D03*
%TD*%
%TO.P,TP3,1*%
%TO.N,LED1*%
X54000000Y-23500000D03*
%TD*%
%TO.P,TP5,1*%
%TO.N,CLKOUT_ZCR*%
X64000000Y-23500000D03*
%TD*%
%TO.P,TP1,1*%
%TO.N,INT1*%
X29500000Y-23500000D03*
%TD*%
%TO.P,TP2,1*%
%TO.N,INT2*%
X35000000Y-23500000D03*
%TD*%
D14*
%TO.P,SJ1,1*%
%TO.N,DGND*%
X65500000Y-29800000D03*
%TO.P,SJ1,2*%
%TO.N,MODE_BIAS*%
X65500000Y-28500000D03*
%TO.P,SJ1,3*%
%TO.N,+3V3*%
X65500000Y-27200000D03*
%TD*%
D15*
%TO.N,CT2_N*%
X34631200Y-40389500D03*
%TO.N,IIN2*%
X45754800Y-42471100D03*
X40455700Y-39780900D03*
%TO.N,GNDA*%
X59825700Y-42665500D03*
X59445100Y-35692200D03*
%TO.N,CT1_N*%
X34237300Y-32262300D03*
%TO.N,IIN1*%
X38959800Y-32928600D03*
X45542900Y-41680600D03*
%TO.N,CLKOUT_ZCR*%
X50133000Y-30473500D03*
%TO.N,XTAL2*%
X45802300Y-27782400D03*
X41696500Y-23066400D03*
%TO.N,LED1*%
X45469500Y-36565700D03*
%TO.N,LED2*%
X44805100Y-35594600D03*
%TO.N,INT1*%
X41769800Y-37507100D03*
%TO.N,INT2*%
X44806700Y-38250000D03*
%TO.N,EN*%
X46484500Y-39371800D03*
%TO.N,VIN1*%
X47280900Y-40361200D03*
X45259600Y-49015400D03*
%TO.N,IIP1*%
X46640300Y-41264400D03*
X38034500Y-28722100D03*
%TO.N,IIP2*%
X49720400Y-40364500D03*
X42917900Y-35535700D03*
%TO.N,+3V3*%
X62409300Y-33234200D03*
X57559200Y-45778800D03*
%TO.N,DGND*%
X61401800Y-30359500D03*
%TO.N,VDDD*%
X58395400Y-40845400D03*
X49912000Y-33614800D03*
%TO.N,SYN*%
X49332300Y-32804200D03*
%TO.N,SCS*%
X48001200Y-32284300D03*
%TO.N,SCL*%
X47458500Y-32862500D03*
%TO.N,MOSI_RXD*%
X47883400Y-33563800D03*
%TO.N,MISO_TXD*%
X46642600Y-34412500D03*
%TO.N,CT2_P*%
X29856400Y-38782600D03*
%TO.N,CT1_P*%
X33894100Y-28522300D03*
%TO.N,MODE_BIAS*%
X64260400Y-41435200D03*
%TD*%
%TO.N,CT2_N*%
D16*
X34631200Y-42751200D02*
X34631200Y-40389500D01*
X48280000Y-56400000D02*
X34631200Y-42751200D01*
%TO.N,IIN2*%
X45754800Y-42471100D02*
X43145900Y-42471100D01*
X43145900Y-42471100D02*
X40455700Y-39780900D01*
%TO.N,GNDA*%
X59445100Y-35692200D02*
X59825700Y-36072800D01*
X59825700Y-36072800D02*
X59825700Y-42665500D01*
%TO.N,CT1_N*%
X34051300Y-32448300D02*
X34237300Y-32262300D01*
X43200000Y-56400000D02*
X34051300Y-47251300D01*
X34051300Y-47251300D02*
X34051300Y-32448300D01*
%TO.N,IIN1*%
X38959800Y-35518200D02*
X45122200Y-41680600D01*
X45122200Y-41680600D02*
X45542900Y-41680600D01*
X38959800Y-32928600D02*
X38959800Y-35518200D01*
%TO.N,CLKOUT_ZCR*%
X64000000Y-23500000D02*
X57026500Y-30473500D01*
X57026500Y-30473500D02*
X50133000Y-30473500D01*
%TO.N,XTAL2*%
X45802300Y-27782400D02*
X41696500Y-23676600D01*
X41696500Y-23676600D02*
X41696500Y-23066400D01*
%TO.N,LED1*%
X44233300Y-33266700D02*
X54000000Y-23500000D01*
X45469500Y-36565700D02*
X44964200Y-36565700D01*
X44964200Y-36565700D02*
X44233300Y-35834800D01*
X44233300Y-35834800D02*
X44233300Y-33266700D01*
%TO.N,LED2*%
X59500000Y-23500000D02*
X58478300Y-24521700D01*
X58478300Y-24521700D02*
X54321300Y-24521700D01*
X44805100Y-34037900D02*
X44805100Y-35594600D01*
X54321300Y-24521700D02*
X44805100Y-34037900D01*
%TO.N,INT1*%
X39741500Y-32899400D02*
X39741500Y-35478800D01*
X39741500Y-35478800D02*
X41769800Y-37507100D01*
X30342100Y-23500000D02*
X39741500Y-32899400D01*
X29500000Y-23500000D02*
X30342100Y-23500000D01*
%TO.N,INT2*%
X41665500Y-30165500D02*
X41665500Y-35108800D01*
X41665500Y-35108800D02*
X44806700Y-38250000D01*
X35000000Y-23500000D02*
X41665500Y-30165500D01*
%TO.N,EN*%
X47116100Y-39371800D02*
X49698300Y-41954000D01*
X49698300Y-41954000D02*
X49698300Y-56929000D01*
X46484500Y-39371800D02*
X47116100Y-39371800D01*
X61982000Y-57938000D02*
X63520000Y-56400000D01*
X50707300Y-57938000D02*
X61982000Y-57938000D01*
X49698300Y-56929000D02*
X50707300Y-57938000D01*
%TO.N,VIN1*%
X45259600Y-49015400D02*
X47280900Y-46994100D01*
X47280900Y-46994100D02*
X47280900Y-40361200D01*
%TO.N,IIP1*%
X41174100Y-35798200D02*
X41174100Y-31861700D01*
X41174100Y-31861700D02*
X38034500Y-28722100D01*
X46640300Y-41264400D02*
X41174100Y-35798200D01*
%TO.N,IIP2*%
X45062000Y-37679800D02*
X47035700Y-37679800D01*
X47035700Y-37679800D02*
X49720400Y-40364500D01*
X42917900Y-35535700D02*
X45062000Y-37679800D01*
%TO.N,+3V3*%
X64478300Y-27200000D02*
X62409300Y-29269000D01*
X62409300Y-33234200D02*
X62409300Y-40928700D01*
X62409300Y-40928700D02*
X57559200Y-45778800D01*
X62409300Y-29269000D02*
X62409300Y-33234200D01*
X65500000Y-27200000D02*
X64478300Y-27200000D01*
%TO.N,DGND*%
X61401800Y-29611400D02*
X61401800Y-30359500D01*
X66521700Y-26577200D02*
X66345600Y-26401100D01*
X66345600Y-26401100D02*
X64612100Y-26401100D01*
X64612100Y-26401100D02*
X61401800Y-29611400D01*
X66521700Y-29800000D02*
X66521700Y-26577200D01*
X65500000Y-29800000D02*
X66521700Y-29800000D01*
%TO.N,VDDD*%
X49912000Y-33614800D02*
X51164800Y-33614800D01*
X51164800Y-33614800D02*
X58395400Y-40845400D01*
%TO.N,SYN*%
X49332300Y-32804200D02*
X49332300Y-34501100D01*
X56969300Y-52389300D02*
X60980000Y-56400000D01*
X56969300Y-42138100D02*
X56969300Y-52389300D01*
X49332300Y-34501100D02*
X56969300Y-42138100D01*
%TO.N,SCS*%
X50820000Y-40194000D02*
X50820000Y-56400000D01*
X46066700Y-33360700D02*
X46066700Y-35440700D01*
X46066700Y-35440700D02*
X50820000Y-40194000D01*
X48001200Y-32284300D02*
X47143100Y-32284300D01*
X47143100Y-32284300D02*
X46066700Y-33360700D01*
%TO.N,SCL*%
X47311700Y-33948500D02*
X53360000Y-39996800D01*
X47458500Y-32862500D02*
X47311700Y-33009300D01*
X53360000Y-39996800D02*
X53360000Y-56400000D01*
X47311700Y-33009300D02*
X47311700Y-33948500D01*
%TO.N,MOSI_RXD*%
X47883400Y-33563800D02*
X55900000Y-41580400D01*
X55900000Y-41580400D02*
X55900000Y-56400000D01*
%TO.N,MISO_TXD*%
X52090000Y-56759800D02*
X52090000Y-39859900D01*
X58440000Y-56400000D02*
X57291800Y-57548200D01*
X57291800Y-57548200D02*
X52878400Y-57548200D01*
X52090000Y-39859900D02*
X46642600Y-34412500D01*
X52878400Y-57548200D02*
X52090000Y-56759800D01*
%TO.N,CT2_P*%
X45740000Y-56400000D02*
X44613300Y-57526700D01*
X39241700Y-55534100D02*
X29856400Y-46148800D01*
X29856400Y-46148800D02*
X29856400Y-38782600D01*
X44613300Y-57526700D02*
X40186300Y-57526700D01*
X40186300Y-57526700D02*
X39241700Y-56582100D01*
X39241700Y-56582100D02*
X39241700Y-55534100D01*
%TO.N,CT1_P*%
X33660500Y-49400500D02*
X33660500Y-28755900D01*
X40660000Y-56400000D02*
X33660500Y-49400500D01*
X33660500Y-28755900D02*
X33894100Y-28522300D01*
%TO.N,MODE_BIAS*%
X64478300Y-28500000D02*
X64478300Y-41217300D01*
X64478300Y-41217300D02*
X64260400Y-41435200D01*
X65500000Y-28500000D02*
X64478300Y-28500000D01*
%TD*%
%TA.AperFunction,Conductor*%
%TO.N,DGND*%
G36*
X72017603Y-21014011D02*
G01*
X72204942Y-21111534D01*
X72214310Y-21116942D01*
X72542130Y-21325786D01*
X72550991Y-21331991D01*
X72859353Y-21568605D01*
X72867640Y-21575559D01*
X73154204Y-21838146D01*
X73161853Y-21845795D01*
X73424440Y-22132359D01*
X73431394Y-22140646D01*
X73668008Y-22449008D01*
X73674213Y-22457869D01*
X73883057Y-22785689D01*
X73888465Y-22795057D01*
X73985989Y-22982397D01*
X74000000Y-23039654D01*
X74000000Y-56960343D01*
X73985990Y-57017599D01*
X73891101Y-57199881D01*
X73888462Y-57204950D01*
X73883052Y-57214319D01*
X73674217Y-57542122D01*
X73668013Y-57550983D01*
X73431393Y-57859352D01*
X73424439Y-57867639D01*
X73161852Y-58154203D01*
X73154203Y-58161852D01*
X72867639Y-58424439D01*
X72859352Y-58431393D01*
X72550983Y-58668013D01*
X72542122Y-58674217D01*
X72214319Y-58883052D01*
X72204951Y-58888461D01*
X72125983Y-58929569D01*
X72017601Y-58985989D01*
X71960345Y-59000000D01*
X23039654Y-59000000D01*
X22982397Y-58985989D01*
X22795057Y-58888465D01*
X22785689Y-58883057D01*
X22457869Y-58674213D01*
X22449008Y-58668008D01*
X22140646Y-58431394D01*
X22132359Y-58424440D01*
X21845795Y-58161853D01*
X21838146Y-58154204D01*
X21575559Y-57867640D01*
X21568605Y-57859353D01*
X21331991Y-57550991D01*
X21325786Y-57542130D01*
X21262185Y-57442297D01*
X21116941Y-57214309D01*
X21111534Y-57204942D01*
X21108899Y-57199881D01*
X21073296Y-57131487D01*
X21014011Y-57017601D01*
X21014011Y-57017599D01*
X21000000Y-56960344D01*
X21000000Y-54893713D01*
X23649500Y-54893713D01*
X23649500Y-55106286D01*
X23671529Y-55245375D01*
X23682754Y-55316243D01*
X23746844Y-55513492D01*
X23748444Y-55518414D01*
X23844951Y-55707820D01*
X23969890Y-55879786D01*
X24120213Y-56030109D01*
X24292179Y-56155048D01*
X24292181Y-56155049D01*
X24292184Y-56155051D01*
X24481588Y-56251557D01*
X24683757Y-56317246D01*
X24893713Y-56350500D01*
X24893714Y-56350500D01*
X25106286Y-56350500D01*
X25106287Y-56350500D01*
X25316243Y-56317246D01*
X25518412Y-56251557D01*
X25707816Y-56155051D01*
X25792415Y-56093587D01*
X25879786Y-56030109D01*
X25879788Y-56030106D01*
X25879792Y-56030104D01*
X26030104Y-55879792D01*
X26030106Y-55879788D01*
X26030109Y-55879786D01*
X26155048Y-55707820D01*
X26155047Y-55707820D01*
X26155051Y-55707816D01*
X26245527Y-55530247D01*
X29449500Y-55530247D01*
X29449500Y-57269752D01*
X29461131Y-57328229D01*
X29461132Y-57328230D01*
X29505447Y-57394552D01*
X29571769Y-57438867D01*
X29571770Y-57438868D01*
X29630247Y-57450499D01*
X29630250Y-57450500D01*
X29630252Y-57450500D01*
X31369750Y-57450500D01*
X31369751Y-57450499D01*
X31384568Y-57447552D01*
X31428229Y-57438868D01*
X31428229Y-57438867D01*
X31428231Y-57438867D01*
X31494552Y-57394552D01*
X31538867Y-57328231D01*
X31538867Y-57328229D01*
X31538868Y-57328229D01*
X31550499Y-57269752D01*
X31550500Y-57269750D01*
X31550500Y-56966048D01*
X31570185Y-56899009D01*
X31622989Y-56853254D01*
X31692147Y-56843310D01*
X31755703Y-56872335D01*
X31785938Y-56914264D01*
X31786694Y-56913879D01*
X31885375Y-57107550D01*
X31924728Y-57161716D01*
X32557037Y-56529408D01*
X32574075Y-56592993D01*
X32639901Y-56707007D01*
X32732993Y-56800099D01*
X32847007Y-56865925D01*
X32910590Y-56882962D01*
X32278282Y-57515269D01*
X32278282Y-57515270D01*
X32332449Y-57554624D01*
X32521782Y-57651095D01*
X32723870Y-57716757D01*
X32933754Y-57750000D01*
X33146246Y-57750000D01*
X33356127Y-57716757D01*
X33356130Y-57716757D01*
X33558217Y-57651095D01*
X33747554Y-57554622D01*
X33801716Y-57515270D01*
X33801717Y-57515270D01*
X33169408Y-56882962D01*
X33232993Y-56865925D01*
X33347007Y-56800099D01*
X33440099Y-56707007D01*
X33505925Y-56592993D01*
X33522962Y-56529408D01*
X34155270Y-57161717D01*
X34155270Y-57161716D01*
X34194622Y-57107554D01*
X34291095Y-56918217D01*
X34348343Y-56742026D01*
X34387780Y-56684351D01*
X34452139Y-56657152D01*
X34520985Y-56669066D01*
X34572461Y-56716310D01*
X34580835Y-56732891D01*
X34646224Y-56890755D01*
X34649059Y-56897598D01*
X34696714Y-56968919D01*
X34764024Y-57069657D01*
X34910342Y-57215975D01*
X34910345Y-57215977D01*
X35082402Y-57330941D01*
X35273580Y-57410130D01*
X35476530Y-57450499D01*
X35476534Y-57450500D01*
X35476535Y-57450500D01*
X35683466Y-57450500D01*
X35683467Y-57450499D01*
X35886420Y-57410130D01*
X36077598Y-57330941D01*
X36249655Y-57215977D01*
X36395977Y-57069655D01*
X36510941Y-56897598D01*
X36590130Y-56706420D01*
X36630500Y-56503465D01*
X36630500Y-56296535D01*
X36590130Y-56093580D01*
X36510941Y-55902402D01*
X36395977Y-55730345D01*
X36395976Y-55730344D01*
X36395975Y-55730342D01*
X36249657Y-55584024D01*
X36151463Y-55518414D01*
X36077598Y-55469059D01*
X36077593Y-55469057D01*
X35886420Y-55389870D01*
X35886412Y-55389868D01*
X35683469Y-55349500D01*
X35683465Y-55349500D01*
X35476535Y-55349500D01*
X35476530Y-55349500D01*
X35273587Y-55389868D01*
X35273579Y-55389870D01*
X35082403Y-55469058D01*
X34910342Y-55584024D01*
X34764024Y-55730342D01*
X34649057Y-55902403D01*
X34580835Y-56067108D01*
X34536994Y-56121511D01*
X34470700Y-56143576D01*
X34403000Y-56126297D01*
X34355390Y-56075159D01*
X34348343Y-56057973D01*
X34291095Y-55881782D01*
X34194624Y-55692449D01*
X34155270Y-55638282D01*
X34155269Y-55638282D01*
X33522962Y-56270590D01*
X33505925Y-56207007D01*
X33440099Y-56092993D01*
X33347007Y-55999901D01*
X33232993Y-55934075D01*
X33169409Y-55917037D01*
X33801716Y-55284728D01*
X33747550Y-55245375D01*
X33558217Y-55148904D01*
X33356129Y-55083242D01*
X33146246Y-55050000D01*
X32933754Y-55050000D01*
X32723872Y-55083242D01*
X32723869Y-55083242D01*
X32521782Y-55148904D01*
X32332439Y-55245380D01*
X32278282Y-55284727D01*
X32278282Y-55284728D01*
X32910591Y-55917037D01*
X32847007Y-55934075D01*
X32732993Y-55999901D01*
X32639901Y-56092993D01*
X32574075Y-56207007D01*
X32557037Y-56270591D01*
X31924728Y-55638282D01*
X31924727Y-55638282D01*
X31885380Y-55692439D01*
X31786694Y-55886121D01*
X31785678Y-55885603D01*
X31745212Y-55935813D01*
X31678916Y-55957872D01*
X31611218Y-55940588D01*
X31563612Y-55889447D01*
X31550500Y-55833951D01*
X31550500Y-55530249D01*
X31550499Y-55530247D01*
X31538868Y-55471770D01*
X31538867Y-55471769D01*
X31494552Y-55405447D01*
X31428230Y-55361132D01*
X31428229Y-55361131D01*
X31369752Y-55349500D01*
X31369748Y-55349500D01*
X29630252Y-55349500D01*
X29630247Y-55349500D01*
X29571770Y-55361131D01*
X29571769Y-55361132D01*
X29505447Y-55405447D01*
X29461132Y-55471769D01*
X29461131Y-55471770D01*
X29449500Y-55530247D01*
X26245527Y-55530247D01*
X26251557Y-55518412D01*
X26317246Y-55316243D01*
X26350500Y-55106287D01*
X26350500Y-54893713D01*
X26317246Y-54683757D01*
X26251557Y-54481588D01*
X26155051Y-54292184D01*
X26155049Y-54292181D01*
X26155048Y-54292179D01*
X26030109Y-54120213D01*
X25879786Y-53969890D01*
X25707820Y-53844951D01*
X25518414Y-53748444D01*
X25518413Y-53748443D01*
X25518412Y-53748443D01*
X25316243Y-53682754D01*
X25316241Y-53682753D01*
X25316240Y-53682753D01*
X25154957Y-53657208D01*
X25106287Y-53649500D01*
X24893713Y-53649500D01*
X24845042Y-53657208D01*
X24683760Y-53682753D01*
X24481585Y-53748444D01*
X24292179Y-53844951D01*
X24120213Y-53969890D01*
X23969890Y-54120213D01*
X23844951Y-54292179D01*
X23748444Y-54481585D01*
X23682753Y-54683760D01*
X23649500Y-54893713D01*
X21000000Y-54893713D01*
X21000000Y-24893713D01*
X23649500Y-24893713D01*
X23649500Y-25106286D01*
X23682753Y-25316239D01*
X23748444Y-25518414D01*
X23844951Y-25707820D01*
X23969890Y-25879786D01*
X24120213Y-26030109D01*
X24292179Y-26155048D01*
X24292181Y-26155049D01*
X24292184Y-26155051D01*
X24481588Y-26251557D01*
X24683757Y-26317246D01*
X24893713Y-26350500D01*
X24893714Y-26350500D01*
X25106286Y-26350500D01*
X25106287Y-26350500D01*
X25316243Y-26317246D01*
X25518412Y-26251557D01*
X25707816Y-26155051D01*
X25729789Y-26139086D01*
X25879786Y-26030109D01*
X25879788Y-26030106D01*
X25879792Y-26030104D01*
X26030104Y-25879792D01*
X26030106Y-25879788D01*
X26030109Y-25879786D01*
X26155048Y-25707820D01*
X26155047Y-25707820D01*
X26155051Y-25707816D01*
X26251557Y-25518412D01*
X26317246Y-25316243D01*
X26350500Y-25106287D01*
X26350500Y-24893713D01*
X26317246Y-24683757D01*
X26251557Y-24481588D01*
X26155051Y-24292184D01*
X26155049Y-24292181D01*
X26155048Y-24292179D01*
X26030109Y-24120213D01*
X25879786Y-23969890D01*
X25707820Y-23844951D01*
X25518414Y-23748444D01*
X25518413Y-23748443D01*
X25518412Y-23748443D01*
X25316243Y-23682754D01*
X25316241Y-23682753D01*
X25316240Y-23682753D01*
X25154957Y-23657208D01*
X25106287Y-23649500D01*
X24893713Y-23649500D01*
X24845042Y-23657208D01*
X24683760Y-23682753D01*
X24481585Y-23748444D01*
X24292179Y-23844951D01*
X24120213Y-23969890D01*
X23969890Y-24120213D01*
X23844951Y-24292179D01*
X23748444Y-24481585D01*
X23682753Y-24683760D01*
X23649500Y-24893713D01*
X21000000Y-24893713D01*
X21000000Y-23406379D01*
X28549500Y-23406379D01*
X28549500Y-23593620D01*
X28586025Y-23777243D01*
X28586027Y-23777251D01*
X28657676Y-23950228D01*
X28657681Y-23950237D01*
X28761697Y-24105907D01*
X28761700Y-24105911D01*
X28894088Y-24238299D01*
X28894092Y-24238302D01*
X29049762Y-24342318D01*
X29049768Y-24342321D01*
X29049769Y-24342322D01*
X29222749Y-24413973D01*
X29404464Y-24450118D01*
X29406379Y-24450499D01*
X29406383Y-24450500D01*
X29406384Y-24450500D01*
X29593617Y-24450500D01*
X29593618Y-24450499D01*
X29777251Y-24413973D01*
X29950231Y-24342322D01*
X30105908Y-24238302D01*
X30238302Y-24105908D01*
X30274072Y-24052373D01*
X30327683Y-24007570D01*
X30397008Y-23998862D01*
X30460036Y-24029016D01*
X30464855Y-24033584D01*
X38732774Y-32301503D01*
X38766259Y-32362826D01*
X38761275Y-32432518D01*
X38719403Y-32488451D01*
X38707095Y-32496570D01*
X38652489Y-32528098D01*
X38652483Y-32528102D01*
X38559302Y-32621283D01*
X38559300Y-32621286D01*
X38493408Y-32735412D01*
X38466371Y-32836318D01*
X38459300Y-32862708D01*
X38459300Y-32994492D01*
X38460076Y-32997387D01*
X38493408Y-33121787D01*
X38520269Y-33168310D01*
X38559300Y-33235914D01*
X38559302Y-33235916D01*
X38632981Y-33309595D01*
X38666466Y-33370918D01*
X38669300Y-33397276D01*
X38669300Y-35556444D01*
X38689097Y-35630330D01*
X38706511Y-35660491D01*
X38727342Y-35696571D01*
X44889742Y-41858971D01*
X44943829Y-41913058D01*
X45002190Y-41946753D01*
X45006451Y-41949213D01*
X45054666Y-41999781D01*
X45067888Y-42068388D01*
X45041920Y-42133253D01*
X44985005Y-42173780D01*
X44944450Y-42180600D01*
X43317591Y-42180600D01*
X43250552Y-42160915D01*
X43229910Y-42144281D01*
X40992519Y-39906890D01*
X40959034Y-39845567D01*
X40956200Y-39819209D01*
X40956200Y-39715010D01*
X40956200Y-39715008D01*
X40922092Y-39587714D01*
X40856200Y-39473586D01*
X40763014Y-39380400D01*
X40705950Y-39347454D01*
X40648887Y-39314508D01*
X40585239Y-39297454D01*
X40521592Y-39280400D01*
X40389808Y-39280400D01*
X40262512Y-39314508D01*
X40148386Y-39380400D01*
X40148383Y-39380402D01*
X40055202Y-39473583D01*
X40055200Y-39473586D01*
X39989308Y-39587712D01*
X39962306Y-39688489D01*
X39955200Y-39715008D01*
X39955200Y-39846792D01*
X39968066Y-39894808D01*
X39989308Y-39974087D01*
X40022254Y-40031150D01*
X40055200Y-40088214D01*
X40148386Y-40181400D01*
X40262514Y-40247292D01*
X40389808Y-40281400D01*
X40389810Y-40281400D01*
X40494009Y-40281400D01*
X40561048Y-40301085D01*
X40581690Y-40317719D01*
X42967529Y-42703558D01*
X43033771Y-42741803D01*
X43107654Y-42761600D01*
X43107655Y-42761600D01*
X45286123Y-42761600D01*
X45353162Y-42781285D01*
X45373804Y-42797918D01*
X45447486Y-42871600D01*
X45561614Y-42937492D01*
X45688908Y-42971600D01*
X45688910Y-42971600D01*
X45820690Y-42971600D01*
X45820692Y-42971600D01*
X45947986Y-42937492D01*
X46062114Y-42871600D01*
X46155300Y-42778414D01*
X46221192Y-42664286D01*
X46255300Y-42536992D01*
X46255300Y-42405208D01*
X46221192Y-42277914D01*
X46155300Y-42163786D01*
X46062114Y-42070600D01*
X46044662Y-42060524D01*
X45996446Y-42009959D01*
X45983222Y-41941352D01*
X45999276Y-41891134D01*
X46009290Y-41873789D01*
X46009292Y-41873786D01*
X46043400Y-41746492D01*
X46043400Y-41674676D01*
X46063085Y-41607637D01*
X46115889Y-41561882D01*
X46185047Y-41551938D01*
X46248603Y-41580963D01*
X46255081Y-41586995D01*
X46332986Y-41664900D01*
X46431093Y-41721542D01*
X46438351Y-41725733D01*
X46447114Y-41730792D01*
X46574408Y-41764900D01*
X46574410Y-41764900D01*
X46706189Y-41764900D01*
X46706192Y-41764900D01*
X46833486Y-41730792D01*
X46833490Y-41730789D01*
X46834306Y-41730571D01*
X46904156Y-41732234D01*
X46962019Y-41771396D01*
X46989523Y-41835625D01*
X46990400Y-41850346D01*
X46990400Y-46822408D01*
X46970715Y-46889447D01*
X46954081Y-46910089D01*
X45385589Y-48478581D01*
X45324266Y-48512066D01*
X45297908Y-48514900D01*
X45193708Y-48514900D01*
X45066412Y-48549008D01*
X44952286Y-48614900D01*
X44952283Y-48614902D01*
X44859102Y-48708083D01*
X44859100Y-48708086D01*
X44793208Y-48822212D01*
X44759100Y-48949508D01*
X44759100Y-49081291D01*
X44793208Y-49208587D01*
X44818025Y-49251571D01*
X44859100Y-49322714D01*
X44952286Y-49415900D01*
X45066414Y-49481792D01*
X45193708Y-49515900D01*
X45193710Y-49515900D01*
X45325490Y-49515900D01*
X45325492Y-49515900D01*
X45452786Y-49481792D01*
X45566914Y-49415900D01*
X45660100Y-49322714D01*
X45725992Y-49208586D01*
X45760100Y-49081292D01*
X45760100Y-48977090D01*
X45779785Y-48910051D01*
X45796419Y-48889409D01*
X46207247Y-48478581D01*
X47513358Y-47172471D01*
X47551603Y-47106229D01*
X47571400Y-47032345D01*
X47571400Y-46955855D01*
X47571400Y-40829876D01*
X47578169Y-40806820D01*
X47580636Y-40782915D01*
X47588788Y-40770657D01*
X47591085Y-40762837D01*
X47598515Y-40752485D01*
X47602826Y-40747087D01*
X47681400Y-40668514D01*
X47722618Y-40597122D01*
X47728444Y-40589829D01*
X47749713Y-40574925D01*
X47768508Y-40557005D01*
X47777862Y-40555201D01*
X47785665Y-40549735D01*
X47811612Y-40548696D01*
X47837115Y-40543781D01*
X47845959Y-40547321D01*
X47855479Y-40546941D01*
X47877871Y-40560097D01*
X47901980Y-40569749D01*
X47913010Y-40579539D01*
X49371481Y-42038010D01*
X49404966Y-42099333D01*
X49407800Y-42125691D01*
X49407800Y-55788248D01*
X49388115Y-55855287D01*
X49335311Y-55901042D01*
X49266153Y-55910986D01*
X49202597Y-55881961D01*
X49180698Y-55857139D01*
X49095977Y-55730344D01*
X48949657Y-55584024D01*
X48851463Y-55518414D01*
X48777598Y-55469059D01*
X48777593Y-55469057D01*
X48586420Y-55389870D01*
X48586412Y-55389868D01*
X48383469Y-55349500D01*
X48383465Y-55349500D01*
X48176535Y-55349500D01*
X48176530Y-55349500D01*
X47973587Y-55389868D01*
X47973579Y-55389870D01*
X47843029Y-55443946D01*
X47773559Y-55451415D01*
X47711080Y-55420140D01*
X47707895Y-55417066D01*
X34958019Y-42667190D01*
X34924534Y-42605867D01*
X34921700Y-42579509D01*
X34921700Y-40858176D01*
X34941385Y-40791137D01*
X34958019Y-40770495D01*
X34990400Y-40738114D01*
X35031700Y-40696814D01*
X35097592Y-40582686D01*
X35131700Y-40455392D01*
X35131700Y-40323608D01*
X35097592Y-40196314D01*
X35031700Y-40082186D01*
X34938514Y-39989000D01*
X34881450Y-39956054D01*
X34824387Y-39923108D01*
X34758298Y-39905400D01*
X34697092Y-39889000D01*
X34565308Y-39889000D01*
X34565306Y-39889000D01*
X34497892Y-39907063D01*
X34428042Y-39905400D01*
X34370180Y-39866236D01*
X34342677Y-39802007D01*
X34341800Y-39787288D01*
X34341800Y-32847603D01*
X34361485Y-32780564D01*
X34414289Y-32734809D01*
X34425092Y-32730925D01*
X34430477Y-32728694D01*
X34430486Y-32728692D01*
X34544614Y-32662800D01*
X34637800Y-32569614D01*
X34703692Y-32455486D01*
X34737800Y-32328192D01*
X34737800Y-32196408D01*
X34703692Y-32069114D01*
X34637800Y-31954986D01*
X34544614Y-31861800D01*
X34468591Y-31817908D01*
X34430487Y-31795908D01*
X34366839Y-31778854D01*
X34303192Y-31761800D01*
X34171408Y-31761800D01*
X34107093Y-31779033D01*
X34037243Y-31777370D01*
X33979381Y-31738207D01*
X33951877Y-31673978D01*
X33951000Y-31659258D01*
X33951000Y-29120357D01*
X33970685Y-29053318D01*
X34023489Y-29007563D01*
X34042901Y-29000584D01*
X34087286Y-28988692D01*
X34201414Y-28922800D01*
X34294600Y-28829614D01*
X34360492Y-28715486D01*
X34394600Y-28588192D01*
X34394600Y-28456408D01*
X34360492Y-28329114D01*
X34294600Y-28214986D01*
X34201414Y-28121800D01*
X34140006Y-28086346D01*
X34087287Y-28055908D01*
X34023639Y-28038854D01*
X33959992Y-28021800D01*
X33828208Y-28021800D01*
X33700912Y-28055908D01*
X33586786Y-28121800D01*
X33586783Y-28121802D01*
X33493602Y-28214983D01*
X33493600Y-28214986D01*
X33427708Y-28329112D01*
X33393600Y-28456408D01*
X33393600Y-28588191D01*
X33394034Y-28591488D01*
X33390870Y-28639767D01*
X33370000Y-28717655D01*
X33370000Y-48952209D01*
X33350315Y-49019248D01*
X33297511Y-49065003D01*
X33228353Y-49074947D01*
X33164797Y-49045922D01*
X33158319Y-49039890D01*
X30183219Y-46064790D01*
X30149734Y-46003467D01*
X30146900Y-45977109D01*
X30146900Y-39251276D01*
X30166585Y-39184237D01*
X30183219Y-39163595D01*
X30207472Y-39139342D01*
X30256900Y-39089914D01*
X30322792Y-38975786D01*
X30356900Y-38848492D01*
X30356900Y-38716708D01*
X30322792Y-38589414D01*
X30256900Y-38475286D01*
X30163714Y-38382100D01*
X30078503Y-38332903D01*
X30049587Y-38316208D01*
X29985939Y-38299154D01*
X29922292Y-38282100D01*
X29790508Y-38282100D01*
X29663212Y-38316208D01*
X29549086Y-38382100D01*
X29549083Y-38382102D01*
X29455902Y-38475283D01*
X29455900Y-38475286D01*
X29390008Y-38589412D01*
X29355900Y-38716708D01*
X29355900Y-38848491D01*
X29390008Y-38975787D01*
X29422954Y-39032850D01*
X29455900Y-39089914D01*
X29455902Y-39089916D01*
X29529581Y-39163595D01*
X29563066Y-39224918D01*
X29565900Y-39251276D01*
X29565900Y-46187044D01*
X29585697Y-46260930D01*
X29604819Y-46294050D01*
X29623942Y-46327171D01*
X29623944Y-46327173D01*
X38462208Y-55165437D01*
X38495693Y-55226760D01*
X38490709Y-55296452D01*
X38448837Y-55352385D01*
X38383373Y-55376802D01*
X38350336Y-55374735D01*
X38223469Y-55349500D01*
X38223465Y-55349500D01*
X38016535Y-55349500D01*
X38016530Y-55349500D01*
X37813587Y-55389868D01*
X37813579Y-55389870D01*
X37622403Y-55469058D01*
X37450342Y-55584024D01*
X37304024Y-55730342D01*
X37189058Y-55902403D01*
X37109870Y-56093579D01*
X37109868Y-56093587D01*
X37069500Y-56296530D01*
X37069500Y-56503469D01*
X37109868Y-56706412D01*
X37109870Y-56706420D01*
X37186224Y-56890755D01*
X37189059Y-56897598D01*
X37236714Y-56968919D01*
X37304024Y-57069657D01*
X37450342Y-57215975D01*
X37450345Y-57215977D01*
X37622402Y-57330941D01*
X37813580Y-57410130D01*
X38016530Y-57450499D01*
X38016534Y-57450500D01*
X38016535Y-57450500D01*
X38223466Y-57450500D01*
X38223467Y-57450499D01*
X38426420Y-57410130D01*
X38617598Y-57330941D01*
X38789655Y-57215977D01*
X38935977Y-57069655D01*
X39005221Y-56966022D01*
X39058832Y-56921218D01*
X39128157Y-56912511D01*
X39191185Y-56942665D01*
X39196004Y-56947233D01*
X40007929Y-57759158D01*
X40074171Y-57797403D01*
X40148055Y-57817200D01*
X40148057Y-57817200D01*
X44651543Y-57817200D01*
X44651545Y-57817200D01*
X44725429Y-57797403D01*
X44791671Y-57759158D01*
X45167897Y-57382931D01*
X45229218Y-57349448D01*
X45298909Y-57354432D01*
X45302996Y-57356040D01*
X45433580Y-57410130D01*
X45636530Y-57450499D01*
X45636534Y-57450500D01*
X45636535Y-57450500D01*
X45843466Y-57450500D01*
X45843467Y-57450499D01*
X46046420Y-57410130D01*
X46237598Y-57330941D01*
X46409655Y-57215977D01*
X46555977Y-57069655D01*
X46670941Y-56897598D01*
X46750130Y-56706420D01*
X46790500Y-56503465D01*
X46790500Y-56296535D01*
X46750130Y-56093580D01*
X46670941Y-55902402D01*
X46555977Y-55730345D01*
X46555976Y-55730344D01*
X46555975Y-55730342D01*
X46409657Y-55584024D01*
X46311463Y-55518414D01*
X46237598Y-55469059D01*
X46237593Y-55469057D01*
X46046420Y-55389870D01*
X46046412Y-55389868D01*
X45843469Y-55349500D01*
X45843465Y-55349500D01*
X45636535Y-55349500D01*
X45636530Y-55349500D01*
X45433587Y-55389868D01*
X45433579Y-55389870D01*
X45242403Y-55469058D01*
X45070342Y-55584024D01*
X44924024Y-55730342D01*
X44809058Y-55902403D01*
X44729870Y-56093579D01*
X44729868Y-56093587D01*
X44689500Y-56296530D01*
X44689500Y-56503469D01*
X44729868Y-56706412D01*
X44729870Y-56706420D01*
X44783945Y-56836968D01*
X44791414Y-56906438D01*
X44760139Y-56968917D01*
X44757066Y-56972102D01*
X44529290Y-57199881D01*
X44467967Y-57233366D01*
X44441608Y-57236200D01*
X44136683Y-57236200D01*
X44069644Y-57216515D01*
X44023889Y-57163711D01*
X44013945Y-57094553D01*
X44033580Y-57043310D01*
X44050759Y-57017599D01*
X44130941Y-56897598D01*
X44210130Y-56706420D01*
X44250500Y-56503465D01*
X44250500Y-56296535D01*
X44210130Y-56093580D01*
X44130941Y-55902402D01*
X44015977Y-55730345D01*
X44015976Y-55730344D01*
X44015975Y-55730342D01*
X43869657Y-55584024D01*
X43771463Y-55518414D01*
X43697598Y-55469059D01*
X43697593Y-55469057D01*
X43506420Y-55389870D01*
X43506412Y-55389868D01*
X43303469Y-55349500D01*
X43303465Y-55349500D01*
X43096535Y-55349500D01*
X43096530Y-55349500D01*
X42893587Y-55389868D01*
X42893579Y-55389870D01*
X42763029Y-55443946D01*
X42693559Y-55451415D01*
X42631080Y-55420140D01*
X42627895Y-55417066D01*
X34378119Y-47167290D01*
X34344634Y-47105967D01*
X34341800Y-47079609D01*
X34341800Y-43171991D01*
X34361485Y-43104952D01*
X34414289Y-43059197D01*
X34483447Y-43049253D01*
X34547003Y-43078278D01*
X34553481Y-43084310D01*
X47297066Y-55827895D01*
X47330551Y-55889218D01*
X47325567Y-55958910D01*
X47323946Y-55963029D01*
X47269870Y-56093579D01*
X47269868Y-56093587D01*
X47229500Y-56296530D01*
X47229500Y-56503469D01*
X47269868Y-56706412D01*
X47269870Y-56706420D01*
X47346224Y-56890755D01*
X47349059Y-56897598D01*
X47396714Y-56968919D01*
X47464024Y-57069657D01*
X47610342Y-57215975D01*
X47610345Y-57215977D01*
X47782402Y-57330941D01*
X47973580Y-57410130D01*
X48176530Y-57450499D01*
X48176534Y-57450500D01*
X48176535Y-57450500D01*
X48383466Y-57450500D01*
X48383467Y-57450499D01*
X48586420Y-57410130D01*
X48777598Y-57330941D01*
X48949655Y-57215977D01*
X49095977Y-57069655D01*
X49186088Y-56934792D01*
X49239699Y-56889988D01*
X49309024Y-56881281D01*
X49372052Y-56911435D01*
X49408772Y-56970878D01*
X49408915Y-56971407D01*
X49421113Y-57016933D01*
X49427597Y-57041130D01*
X49444068Y-57069657D01*
X49465842Y-57107371D01*
X50474842Y-58116371D01*
X50528929Y-58170458D01*
X50595171Y-58208703D01*
X50669054Y-58228500D01*
X50669055Y-58228500D01*
X50669057Y-58228500D01*
X62020243Y-58228500D01*
X62020245Y-58228500D01*
X62094129Y-58208703D01*
X62160371Y-58170458D01*
X62947896Y-57382931D01*
X63009217Y-57349448D01*
X63078908Y-57354432D01*
X63083015Y-57356048D01*
X63213580Y-57410130D01*
X63416530Y-57450499D01*
X63416534Y-57450500D01*
X63416535Y-57450500D01*
X63623466Y-57450500D01*
X63623467Y-57450499D01*
X63826420Y-57410130D01*
X64017598Y-57330941D01*
X64189655Y-57215977D01*
X64335977Y-57069655D01*
X64450941Y-56897598D01*
X64530130Y-56706420D01*
X64570500Y-56503465D01*
X64570500Y-56296535D01*
X64530130Y-56093580D01*
X64450941Y-55902402D01*
X64335977Y-55730345D01*
X64335976Y-55730344D01*
X64335975Y-55730342D01*
X64189657Y-55584024D01*
X64091463Y-55518414D01*
X64017598Y-55469059D01*
X64017593Y-55469057D01*
X63826420Y-55389870D01*
X63826412Y-55389868D01*
X63623469Y-55349500D01*
X63623465Y-55349500D01*
X63416535Y-55349500D01*
X63416530Y-55349500D01*
X63213587Y-55389868D01*
X63213579Y-55389870D01*
X63022403Y-55469058D01*
X62850342Y-55584024D01*
X62704024Y-55730342D01*
X62589058Y-55902403D01*
X62509870Y-56093579D01*
X62509868Y-56093587D01*
X62469500Y-56296530D01*
X62469500Y-56503469D01*
X62505480Y-56684351D01*
X62509870Y-56706420D01*
X62563946Y-56836970D01*
X62571415Y-56906438D01*
X62540140Y-56968917D01*
X62537066Y-56972103D01*
X61897990Y-57611181D01*
X61836667Y-57644666D01*
X61810309Y-57647500D01*
X61336748Y-57647500D01*
X61269709Y-57627815D01*
X61223954Y-57575011D01*
X61214010Y-57505853D01*
X61243035Y-57442297D01*
X61289295Y-57408939D01*
X61477596Y-57330942D01*
X61477596Y-57330941D01*
X61477598Y-57330941D01*
X61649655Y-57215977D01*
X61795977Y-57069655D01*
X61910941Y-56897598D01*
X61990130Y-56706420D01*
X62030500Y-56503465D01*
X62030500Y-56296535D01*
X61990130Y-56093580D01*
X61910941Y-55902402D01*
X61795977Y-55730345D01*
X61795976Y-55730344D01*
X61795975Y-55730342D01*
X61649657Y-55584024D01*
X61551463Y-55518414D01*
X61477598Y-55469059D01*
X61477593Y-55469057D01*
X61286420Y-55389870D01*
X61286412Y-55389868D01*
X61083469Y-55349500D01*
X61083465Y-55349500D01*
X60876535Y-55349500D01*
X60876530Y-55349500D01*
X60673587Y-55389868D01*
X60673579Y-55389870D01*
X60543029Y-55443946D01*
X60473559Y-55451415D01*
X60411080Y-55420140D01*
X60407895Y-55417066D01*
X59884542Y-54893713D01*
X68649500Y-54893713D01*
X68649500Y-55106286D01*
X68671529Y-55245375D01*
X68682754Y-55316243D01*
X68746844Y-55513492D01*
X68748444Y-55518414D01*
X68844951Y-55707820D01*
X68969890Y-55879786D01*
X69120213Y-56030109D01*
X69292179Y-56155048D01*
X69292181Y-56155049D01*
X69292184Y-56155051D01*
X69481588Y-56251557D01*
X69683757Y-56317246D01*
X69893713Y-56350500D01*
X69893714Y-56350500D01*
X70106286Y-56350500D01*
X70106287Y-56350500D01*
X70316243Y-56317246D01*
X70518412Y-56251557D01*
X70707816Y-56155051D01*
X70792415Y-56093587D01*
X70879786Y-56030109D01*
X70879788Y-56030106D01*
X70879792Y-56030104D01*
X71030104Y-55879792D01*
X71030106Y-55879788D01*
X71030109Y-55879786D01*
X71155048Y-55707820D01*
X71155047Y-55707820D01*
X71155051Y-55707816D01*
X71251557Y-55518412D01*
X71317246Y-55316243D01*
X71350500Y-55106287D01*
X71350500Y-54893713D01*
X71317246Y-54683757D01*
X71251557Y-54481588D01*
X71155051Y-54292184D01*
X71155049Y-54292181D01*
X71155048Y-54292179D01*
X71030109Y-54120213D01*
X70879786Y-53969890D01*
X70707820Y-53844951D01*
X70518414Y-53748444D01*
X70518413Y-53748443D01*
X70518412Y-53748443D01*
X70316243Y-53682754D01*
X70316241Y-53682753D01*
X70316240Y-53682753D01*
X70154957Y-53657208D01*
X70106287Y-53649500D01*
X69893713Y-53649500D01*
X69845042Y-53657208D01*
X69683760Y-53682753D01*
X69481585Y-53748444D01*
X69292179Y-53844951D01*
X69120213Y-53969890D01*
X68969890Y-54120213D01*
X68844951Y-54292179D01*
X68748444Y-54481585D01*
X68682753Y-54683760D01*
X68649500Y-54893713D01*
X59884542Y-54893713D01*
X57296119Y-52305290D01*
X57262634Y-52243967D01*
X57259800Y-52217609D01*
X57259800Y-46378331D01*
X57279485Y-46311292D01*
X57332289Y-46265537D01*
X57401447Y-46255593D01*
X57415875Y-46258552D01*
X57493308Y-46279300D01*
X57493311Y-46279300D01*
X57625090Y-46279300D01*
X57625092Y-46279300D01*
X57752386Y-46245192D01*
X57866514Y-46179300D01*
X57959700Y-46086114D01*
X58025592Y-45971986D01*
X58059700Y-45844692D01*
X58059700Y-45740490D01*
X58079385Y-45673451D01*
X58096019Y-45652809D01*
X58569560Y-45179268D01*
X62641758Y-41107071D01*
X62680003Y-41040829D01*
X62699800Y-40966945D01*
X62699800Y-40890455D01*
X62699800Y-33702876D01*
X62719485Y-33635837D01*
X62736119Y-33615195D01*
X62749206Y-33602108D01*
X62809800Y-33541514D01*
X62875692Y-33427386D01*
X62909800Y-33300092D01*
X62909800Y-33168308D01*
X62875692Y-33041014D01*
X62809800Y-32926886D01*
X62736118Y-32853204D01*
X62702634Y-32791880D01*
X62699800Y-32765523D01*
X62699800Y-29440691D01*
X62719485Y-29373652D01*
X62736119Y-29353010D01*
X63500939Y-28588190D01*
X64356618Y-27732510D01*
X64380652Y-27719386D01*
X64402846Y-27703326D01*
X64410879Y-27702881D01*
X64417939Y-27699027D01*
X64445261Y-27700980D01*
X64472610Y-27699469D01*
X64479605Y-27703437D01*
X64487631Y-27704011D01*
X64509558Y-27720426D01*
X64533384Y-27733940D01*
X64538964Y-27742440D01*
X64543564Y-27745883D01*
X64554075Y-27762532D01*
X64560408Y-27774591D01*
X64561133Y-27778231D01*
X64566685Y-27786540D01*
X64569731Y-27792339D01*
X64575370Y-27820439D01*
X64583933Y-27847791D01*
X64582157Y-27854262D01*
X64583478Y-27860843D01*
X64573029Y-27887530D01*
X64565446Y-27915171D01*
X64563058Y-27918887D01*
X64561132Y-27921768D01*
X64561131Y-27921770D01*
X64549500Y-27980247D01*
X64549500Y-28086346D01*
X64529815Y-28153385D01*
X64477011Y-28199140D01*
X64441692Y-28209284D01*
X64440060Y-28209498D01*
X64366169Y-28229297D01*
X64299929Y-28267542D01*
X64299926Y-28267544D01*
X64245844Y-28321626D01*
X64245842Y-28321629D01*
X64207597Y-28387869D01*
X64187800Y-28461755D01*
X64187800Y-40841348D01*
X64168115Y-40908387D01*
X64115311Y-40954142D01*
X64095896Y-40961122D01*
X64067214Y-40968807D01*
X63953086Y-41034700D01*
X63953083Y-41034702D01*
X63859902Y-41127883D01*
X63859900Y-41127886D01*
X63794008Y-41242012D01*
X63759900Y-41369308D01*
X63759900Y-41501091D01*
X63794008Y-41628387D01*
X63815089Y-41664899D01*
X63859900Y-41742514D01*
X63953086Y-41835700D01*
X64067214Y-41901592D01*
X64194508Y-41935700D01*
X64194510Y-41935700D01*
X64326290Y-41935700D01*
X64326292Y-41935700D01*
X64453586Y-41901592D01*
X64567714Y-41835700D01*
X64660900Y-41742514D01*
X64726792Y-41628386D01*
X64760900Y-41501092D01*
X64760900Y-41369308D01*
X64758208Y-41359265D01*
X64758208Y-41295072D01*
X64760446Y-41286720D01*
X64768800Y-41255545D01*
X64768800Y-41179055D01*
X64768800Y-30924000D01*
X64788485Y-30856961D01*
X64841289Y-30811206D01*
X64892800Y-30800000D01*
X65250000Y-30800000D01*
X65750000Y-30800000D01*
X66297828Y-30800000D01*
X66297844Y-30799999D01*
X66357372Y-30793598D01*
X66357379Y-30793596D01*
X66492086Y-30743354D01*
X66492093Y-30743350D01*
X66607187Y-30657190D01*
X66607190Y-30657187D01*
X66693350Y-30542093D01*
X66693354Y-30542086D01*
X66743596Y-30407379D01*
X66743598Y-30407372D01*
X66749999Y-30347844D01*
X66750000Y-30347827D01*
X66750000Y-30050000D01*
X65750000Y-30050000D01*
X65750000Y-30800000D01*
X65250000Y-30800000D01*
X65250000Y-30050000D01*
X64892800Y-30050000D01*
X64825761Y-30030315D01*
X64780006Y-29977511D01*
X64768800Y-29926000D01*
X64768800Y-29674000D01*
X64788485Y-29606961D01*
X64841289Y-29561206D01*
X64892800Y-29550000D01*
X66750000Y-29550000D01*
X66750000Y-29252172D01*
X66749999Y-29252155D01*
X66743598Y-29192627D01*
X66743596Y-29192620D01*
X66693354Y-29057913D01*
X66693350Y-29057906D01*
X66607190Y-28942812D01*
X66500188Y-28862709D01*
X66458318Y-28806775D01*
X66450500Y-28763443D01*
X66450500Y-27980249D01*
X66450499Y-27980247D01*
X66438868Y-27921770D01*
X66438867Y-27921768D01*
X66436945Y-27918892D01*
X66434681Y-27911664D01*
X66434194Y-27910487D01*
X66434299Y-27910443D01*
X66416066Y-27852215D01*
X66434550Y-27784835D01*
X66436945Y-27781108D01*
X66438867Y-27778231D01*
X66438868Y-27778229D01*
X66450499Y-27719752D01*
X66450500Y-27719750D01*
X66450500Y-26680249D01*
X66450499Y-26680247D01*
X66438868Y-26621770D01*
X66438867Y-26621769D01*
X66394552Y-26555447D01*
X66328230Y-26511132D01*
X66328229Y-26511131D01*
X66269752Y-26499500D01*
X66269748Y-26499500D01*
X64730252Y-26499500D01*
X64730247Y-26499500D01*
X64671770Y-26511131D01*
X64671769Y-26511132D01*
X64605447Y-26555447D01*
X64561132Y-26621769D01*
X64561131Y-26621770D01*
X64549500Y-26680247D01*
X64549500Y-26786346D01*
X64529815Y-26853385D01*
X64477011Y-26899140D01*
X64441692Y-26909284D01*
X64440060Y-26909498D01*
X64366169Y-26929297D01*
X64299929Y-26967542D01*
X64299926Y-26967544D01*
X62176844Y-29090626D01*
X62176842Y-29090629D01*
X62138597Y-29156869D01*
X62118800Y-29230755D01*
X62118800Y-32765523D01*
X62099115Y-32832562D01*
X62082482Y-32853204D01*
X62008800Y-32926886D01*
X61942908Y-33041012D01*
X61914132Y-33148408D01*
X61908800Y-33168308D01*
X61908800Y-33300092D01*
X61916573Y-33329100D01*
X61942908Y-33427387D01*
X61949261Y-33438390D01*
X62008800Y-33541514D01*
X62008802Y-33541516D01*
X62082481Y-33615195D01*
X62115966Y-33676518D01*
X62118800Y-33702876D01*
X62118800Y-40757009D01*
X62099115Y-40824048D01*
X62082481Y-40844690D01*
X60465936Y-42461234D01*
X60451386Y-42469178D01*
X60439906Y-42481141D01*
X60421353Y-42485578D01*
X60404613Y-42494719D01*
X60388077Y-42493536D01*
X60371952Y-42497393D01*
X60353946Y-42491095D01*
X60334921Y-42489735D01*
X60321096Y-42479606D01*
X60306000Y-42474326D01*
X60290416Y-42457126D01*
X60280536Y-42449888D01*
X60275201Y-42443059D01*
X60226200Y-42358186D01*
X60147153Y-42279139D01*
X60142481Y-42273158D01*
X60132286Y-42247450D01*
X60119034Y-42223180D01*
X60117684Y-42210631D01*
X60116724Y-42208209D01*
X60117176Y-42205902D01*
X60116200Y-42196823D01*
X60116200Y-36034557D01*
X60116200Y-36034555D01*
X60096403Y-35960671D01*
X60058158Y-35894429D01*
X60004071Y-35840342D01*
X59981919Y-35818190D01*
X59948434Y-35756867D01*
X59945600Y-35730509D01*
X59945600Y-35626310D01*
X59945600Y-35626308D01*
X59911492Y-35499014D01*
X59845600Y-35384886D01*
X59752414Y-35291700D01*
X59695350Y-35258754D01*
X59638287Y-35225808D01*
X59574639Y-35208754D01*
X59510992Y-35191700D01*
X59379208Y-35191700D01*
X59251912Y-35225808D01*
X59137786Y-35291700D01*
X59137783Y-35291702D01*
X59044602Y-35384883D01*
X59044600Y-35384886D01*
X58978708Y-35499012D01*
X58946802Y-35618091D01*
X58944600Y-35626308D01*
X58944600Y-35758092D01*
X58954906Y-35796555D01*
X58978708Y-35885387D01*
X58983927Y-35894426D01*
X59044600Y-35999514D01*
X59137786Y-36092700D01*
X59251914Y-36158592D01*
X59379208Y-36192700D01*
X59379210Y-36192700D01*
X59411200Y-36192700D01*
X59478239Y-36212385D01*
X59523994Y-36265189D01*
X59535200Y-36316700D01*
X59535200Y-42196823D01*
X59515515Y-42263862D01*
X59498882Y-42284504D01*
X59425200Y-42358186D01*
X59359308Y-42472312D01*
X59325200Y-42599608D01*
X59325200Y-42731391D01*
X59359308Y-42858687D01*
X59392254Y-42915750D01*
X59425200Y-42972814D01*
X59518386Y-43066000D01*
X59550100Y-43084310D01*
X59595753Y-43110668D01*
X59643969Y-43161235D01*
X59657192Y-43229842D01*
X59631223Y-43294707D01*
X59621434Y-43305736D01*
X57685189Y-45241981D01*
X57664356Y-45253356D01*
X57646013Y-45268419D01*
X57631272Y-45271421D01*
X57623866Y-45275466D01*
X57611897Y-45277462D01*
X57604724Y-45278300D01*
X57493308Y-45278300D01*
X57407167Y-45301380D01*
X57398189Y-45302430D01*
X57372302Y-45298005D01*
X57346043Y-45297380D01*
X57338406Y-45292211D01*
X57329319Y-45290658D01*
X57309933Y-45272939D01*
X57288181Y-45258217D01*
X57284551Y-45249740D01*
X57277745Y-45243520D01*
X57271015Y-45218131D01*
X57260677Y-45193988D01*
X57259800Y-45179268D01*
X57259800Y-42099857D01*
X57259800Y-42099855D01*
X57240003Y-42025971D01*
X57201758Y-41959729D01*
X57147671Y-41905642D01*
X49659119Y-34417090D01*
X49644415Y-34390162D01*
X49627823Y-34364344D01*
X49626931Y-34358143D01*
X49625634Y-34355767D01*
X49622800Y-34329409D01*
X49622800Y-34217064D01*
X49642485Y-34150025D01*
X49695289Y-34104270D01*
X49764447Y-34094326D01*
X49778874Y-34097284D01*
X49846108Y-34115300D01*
X49846111Y-34115300D01*
X49977890Y-34115300D01*
X49977892Y-34115300D01*
X50105186Y-34081192D01*
X50219314Y-34015300D01*
X50292996Y-33941618D01*
X50354320Y-33908134D01*
X50380677Y-33905300D01*
X50993109Y-33905300D01*
X51060148Y-33924985D01*
X51080790Y-33941619D01*
X57858581Y-40719410D01*
X57892066Y-40780733D01*
X57894900Y-40807091D01*
X57894900Y-40911292D01*
X57909812Y-40966944D01*
X57929008Y-41038587D01*
X57961954Y-41095650D01*
X57994900Y-41152714D01*
X58088086Y-41245900D01*
X58202214Y-41311792D01*
X58329508Y-41345900D01*
X58329510Y-41345900D01*
X58461290Y-41345900D01*
X58461292Y-41345900D01*
X58588586Y-41311792D01*
X58702714Y-41245900D01*
X58795900Y-41152714D01*
X58861792Y-41038586D01*
X58895900Y-40911292D01*
X58895900Y-40779508D01*
X58861792Y-40652214D01*
X58795900Y-40538086D01*
X58702714Y-40444900D01*
X58645650Y-40411954D01*
X58588587Y-40379008D01*
X58524939Y-40361954D01*
X58461292Y-40344900D01*
X58357091Y-40344900D01*
X58290052Y-40325215D01*
X58269410Y-40308581D01*
X51343173Y-33382344D01*
X51343171Y-33382342D01*
X51310050Y-33363219D01*
X51276930Y-33344097D01*
X51239987Y-33334198D01*
X51203045Y-33324300D01*
X51203044Y-33324300D01*
X50380677Y-33324300D01*
X50313638Y-33304615D01*
X50292996Y-33287982D01*
X50261497Y-33256483D01*
X50219314Y-33214300D01*
X50159387Y-33179701D01*
X50105187Y-33148408D01*
X50005830Y-33121786D01*
X49977892Y-33114300D01*
X49928965Y-33114300D01*
X49861926Y-33094615D01*
X49816171Y-33041811D01*
X49806227Y-32972653D01*
X49809190Y-32958207D01*
X49811207Y-32950677D01*
X49832800Y-32870092D01*
X49832800Y-32738308D01*
X49798692Y-32611014D01*
X49732800Y-32496886D01*
X49639614Y-32403700D01*
X49582550Y-32370754D01*
X49525487Y-32337808D01*
X49461839Y-32320754D01*
X49398192Y-32303700D01*
X49266408Y-32303700D01*
X49139112Y-32337808D01*
X49024986Y-32403700D01*
X49024983Y-32403702D01*
X48931802Y-32496883D01*
X48931800Y-32496886D01*
X48865908Y-32611012D01*
X48831800Y-32738308D01*
X48831800Y-32870091D01*
X48865908Y-32997387D01*
X48891097Y-33041014D01*
X48931800Y-33111514D01*
X48931802Y-33111516D01*
X49005481Y-33185195D01*
X49038966Y-33246518D01*
X49041800Y-33272876D01*
X49041800Y-34012008D01*
X49022115Y-34079047D01*
X48969311Y-34124802D01*
X48900153Y-34134746D01*
X48836597Y-34105721D01*
X48830119Y-34099689D01*
X48420219Y-33689789D01*
X48386734Y-33628466D01*
X48383900Y-33602108D01*
X48383900Y-33497910D01*
X48383900Y-33497908D01*
X48349792Y-33370614D01*
X48283900Y-33256486D01*
X48190714Y-33163300D01*
X48101022Y-33111516D01*
X48076587Y-33097408D01*
X48058250Y-33092494D01*
X48044395Y-33088782D01*
X47984735Y-33052417D01*
X47954207Y-32989570D01*
X47953185Y-32955899D01*
X47954208Y-32946275D01*
X47959000Y-32928392D01*
X47959000Y-32901203D01*
X47959695Y-32894666D01*
X47970619Y-32868203D01*
X47978685Y-32840736D01*
X47983782Y-32836318D01*
X47986357Y-32830083D01*
X48009856Y-32813726D01*
X48031489Y-32794981D01*
X48040506Y-32792391D01*
X48043702Y-32790167D01*
X48048922Y-32789974D01*
X48059268Y-32787003D01*
X48059242Y-32786903D01*
X48064855Y-32785399D01*
X48066819Y-32784835D01*
X48067081Y-32784800D01*
X48067092Y-32784800D01*
X48194386Y-32750692D01*
X48308514Y-32684800D01*
X48401700Y-32591614D01*
X48467592Y-32477486D01*
X48501700Y-32350192D01*
X48501700Y-32218408D01*
X48467592Y-32091114D01*
X48401700Y-31976986D01*
X48308514Y-31883800D01*
X48248031Y-31848880D01*
X48194387Y-31817908D01*
X48105006Y-31793959D01*
X48067092Y-31783800D01*
X47935308Y-31783800D01*
X47808014Y-31817908D01*
X47808013Y-31817908D01*
X47808011Y-31817909D01*
X47808010Y-31817909D01*
X47743317Y-31855260D01*
X47675417Y-31871733D01*
X47609390Y-31848880D01*
X47566199Y-31793959D01*
X47559558Y-31724406D01*
X47591574Y-31662303D01*
X47593593Y-31660235D01*
X48846220Y-30407608D01*
X49632500Y-30407608D01*
X49632500Y-30539391D01*
X49666608Y-30666687D01*
X49689280Y-30705955D01*
X49732500Y-30780814D01*
X49825686Y-30874000D01*
X49939814Y-30939892D01*
X50067108Y-30974000D01*
X50067110Y-30974000D01*
X50198890Y-30974000D01*
X50198892Y-30974000D01*
X50326186Y-30939892D01*
X50440314Y-30874000D01*
X50513996Y-30800318D01*
X50575320Y-30766834D01*
X50601677Y-30764000D01*
X57064743Y-30764000D01*
X57064745Y-30764000D01*
X57138629Y-30744203D01*
X57204871Y-30705958D01*
X63017114Y-24893713D01*
X68649500Y-24893713D01*
X68649500Y-25106286D01*
X68682753Y-25316239D01*
X68748444Y-25518414D01*
X68844951Y-25707820D01*
X68969890Y-25879786D01*
X69120213Y-26030109D01*
X69292179Y-26155048D01*
X69292181Y-26155049D01*
X69292184Y-26155051D01*
X69481588Y-26251557D01*
X69683757Y-26317246D01*
X69893713Y-26350500D01*
X69893714Y-26350500D01*
X70106286Y-26350500D01*
X70106287Y-26350500D01*
X70316243Y-26317246D01*
X70518412Y-26251557D01*
X70707816Y-26155051D01*
X70729789Y-26139086D01*
X70879786Y-26030109D01*
X70879788Y-26030106D01*
X70879792Y-26030104D01*
X71030104Y-25879792D01*
X71030106Y-25879788D01*
X71030109Y-25879786D01*
X71155048Y-25707820D01*
X71155047Y-25707820D01*
X71155051Y-25707816D01*
X71251557Y-25518412D01*
X71317246Y-25316243D01*
X71350500Y-25106287D01*
X71350500Y-24893713D01*
X71317246Y-24683757D01*
X71251557Y-24481588D01*
X71155051Y-24292184D01*
X71155049Y-24292181D01*
X71155048Y-24292179D01*
X71030109Y-24120213D01*
X70879786Y-23969890D01*
X70707820Y-23844951D01*
X70518414Y-23748444D01*
X70518413Y-23748443D01*
X70518412Y-23748443D01*
X70316243Y-23682754D01*
X70316241Y-23682753D01*
X70316240Y-23682753D01*
X70154957Y-23657208D01*
X70106287Y-23649500D01*
X69893713Y-23649500D01*
X69845042Y-23657208D01*
X69683760Y-23682753D01*
X69481585Y-23748444D01*
X69292179Y-23844951D01*
X69120213Y-23969890D01*
X68969890Y-24120213D01*
X68844951Y-24292179D01*
X68748444Y-24481585D01*
X68682753Y-24683760D01*
X68649500Y-24893713D01*
X63017114Y-24893713D01*
X63504433Y-24406394D01*
X63565754Y-24372911D01*
X63635446Y-24377895D01*
X63639501Y-24379490D01*
X63722749Y-24413973D01*
X63904464Y-24450118D01*
X63906379Y-24450499D01*
X63906383Y-24450500D01*
X63906384Y-24450500D01*
X64093617Y-24450500D01*
X64093618Y-24450499D01*
X64277251Y-24413973D01*
X64450231Y-24342322D01*
X64605908Y-24238302D01*
X64738302Y-24105908D01*
X64842322Y-23950231D01*
X64913973Y-23777251D01*
X64950500Y-23593616D01*
X64950500Y-23406384D01*
X64913973Y-23222749D01*
X64842322Y-23049769D01*
X64842321Y-23049768D01*
X64842318Y-23049762D01*
X64738302Y-22894092D01*
X64738299Y-22894088D01*
X64605911Y-22761700D01*
X64605907Y-22761697D01*
X64450237Y-22657681D01*
X64450228Y-22657676D01*
X64277251Y-22586027D01*
X64277243Y-22586025D01*
X64093620Y-22549500D01*
X64093616Y-22549500D01*
X63906384Y-22549500D01*
X63906379Y-22549500D01*
X63722756Y-22586025D01*
X63722748Y-22586027D01*
X63549771Y-22657676D01*
X63549762Y-22657681D01*
X63394092Y-22761697D01*
X63394088Y-22761700D01*
X63261700Y-22894088D01*
X63261697Y-22894092D01*
X63157681Y-23049762D01*
X63157676Y-23049771D01*
X63086027Y-23222748D01*
X63086025Y-23222756D01*
X63049500Y-23406379D01*
X63049500Y-23593620D01*
X63086025Y-23777243D01*
X63086028Y-23777255D01*
X63120482Y-23860434D01*
X63127951Y-23929903D01*
X63096676Y-23992382D01*
X63093602Y-23995567D01*
X56942490Y-30146681D01*
X56881167Y-30180166D01*
X56854809Y-30183000D01*
X50601677Y-30183000D01*
X50534638Y-30163315D01*
X50513996Y-30146682D01*
X50494569Y-30127255D01*
X50440314Y-30073000D01*
X50366382Y-30030315D01*
X50326187Y-30007108D01*
X50262539Y-29990054D01*
X50198892Y-29973000D01*
X50067108Y-29973000D01*
X49939812Y-30007108D01*
X49825686Y-30073000D01*
X49825683Y-30073002D01*
X49732502Y-30166183D01*
X49732500Y-30166186D01*
X49666608Y-30280312D01*
X49632500Y-30407608D01*
X48846220Y-30407608D01*
X54405310Y-24848519D01*
X54466633Y-24815034D01*
X54492991Y-24812200D01*
X58516543Y-24812200D01*
X58516545Y-24812200D01*
X58590429Y-24792403D01*
X58656671Y-24754158D01*
X59004433Y-24406394D01*
X59065754Y-24372911D01*
X59135445Y-24377895D01*
X59139501Y-24379490D01*
X59222749Y-24413973D01*
X59404464Y-24450118D01*
X59406379Y-24450499D01*
X59406383Y-24450500D01*
X59406384Y-24450500D01*
X59593617Y-24450500D01*
X59593618Y-24450499D01*
X59777251Y-24413973D01*
X59950231Y-24342322D01*
X60105908Y-24238302D01*
X60238302Y-24105908D01*
X60342322Y-23950231D01*
X60413973Y-23777251D01*
X60450500Y-23593616D01*
X60450500Y-23406384D01*
X60413973Y-23222749D01*
X60342322Y-23049769D01*
X60342321Y-23049768D01*
X60342318Y-23049762D01*
X60238302Y-22894092D01*
X60238299Y-22894088D01*
X60105911Y-22761700D01*
X60105907Y-22761697D01*
X59950237Y-22657681D01*
X59950228Y-22657676D01*
X59777251Y-22586027D01*
X59777243Y-22586025D01*
X59593620Y-22549500D01*
X59593616Y-22549500D01*
X59406384Y-22549500D01*
X59406379Y-22549500D01*
X59222756Y-22586025D01*
X59222748Y-22586027D01*
X59049771Y-22657676D01*
X59049762Y-22657681D01*
X58894092Y-22761697D01*
X58894088Y-22761700D01*
X58761700Y-22894088D01*
X58761697Y-22894092D01*
X58657681Y-23049762D01*
X58657676Y-23049771D01*
X58586027Y-23222748D01*
X58586025Y-23222756D01*
X58549500Y-23406379D01*
X58549500Y-23593620D01*
X58586025Y-23777243D01*
X58586028Y-23777255D01*
X58620482Y-23860434D01*
X58627951Y-23929903D01*
X58596676Y-23992382D01*
X58593603Y-23995567D01*
X58394288Y-24194882D01*
X58332968Y-24228366D01*
X58306609Y-24231200D01*
X54886573Y-24231200D01*
X54819534Y-24211515D01*
X54773779Y-24158711D01*
X54763835Y-24089553D01*
X54783471Y-24038309D01*
X54842318Y-23950237D01*
X54842318Y-23950236D01*
X54842322Y-23950231D01*
X54913973Y-23777251D01*
X54950500Y-23593616D01*
X54950500Y-23406384D01*
X54913973Y-23222749D01*
X54842322Y-23049769D01*
X54842321Y-23049768D01*
X54842318Y-23049762D01*
X54738302Y-22894092D01*
X54738299Y-22894088D01*
X54605911Y-22761700D01*
X54605907Y-22761697D01*
X54450237Y-22657681D01*
X54450228Y-22657676D01*
X54277251Y-22586027D01*
X54277243Y-22586025D01*
X54093620Y-22549500D01*
X54093616Y-22549500D01*
X53906384Y-22549500D01*
X53906379Y-22549500D01*
X53722756Y-22586025D01*
X53722748Y-22586027D01*
X53549771Y-22657676D01*
X53549762Y-22657681D01*
X53394092Y-22761697D01*
X53394088Y-22761700D01*
X53261700Y-22894088D01*
X53261697Y-22894092D01*
X53157681Y-23049762D01*
X53157676Y-23049771D01*
X53086027Y-23222748D01*
X53086025Y-23222756D01*
X53049500Y-23406379D01*
X53049500Y-23593620D01*
X53086025Y-23777243D01*
X53086028Y-23777255D01*
X53120482Y-23860434D01*
X53127951Y-23929903D01*
X53096676Y-23992382D01*
X53093602Y-23995567D01*
X44054929Y-33034242D01*
X44000844Y-33088326D01*
X44000842Y-33088329D01*
X43962597Y-33154569D01*
X43942800Y-33228455D01*
X43942800Y-35850409D01*
X43923115Y-35917448D01*
X43870311Y-35963203D01*
X43801153Y-35973147D01*
X43737597Y-35944122D01*
X43731119Y-35938090D01*
X43454719Y-35661690D01*
X43421234Y-35600367D01*
X43418400Y-35574009D01*
X43418400Y-35469810D01*
X43418400Y-35469808D01*
X43384292Y-35342514D01*
X43318400Y-35228386D01*
X43225214Y-35135200D01*
X43168150Y-35102254D01*
X43111087Y-35069308D01*
X43047439Y-35052254D01*
X42983792Y-35035200D01*
X42852008Y-35035200D01*
X42724712Y-35069308D01*
X42610586Y-35135200D01*
X42610583Y-35135202D01*
X42517402Y-35228383D01*
X42517398Y-35228389D01*
X42480526Y-35292251D01*
X42429958Y-35340466D01*
X42361351Y-35353687D01*
X42296487Y-35327718D01*
X42285459Y-35317930D01*
X41992319Y-35024790D01*
X41958834Y-34963467D01*
X41956000Y-34937109D01*
X41956000Y-30127257D01*
X41956000Y-30127255D01*
X41936203Y-30053371D01*
X41897958Y-29987129D01*
X41843871Y-29933042D01*
X35906396Y-23995567D01*
X35872912Y-23934245D01*
X35877896Y-23864553D01*
X35879517Y-23860434D01*
X35885931Y-23844949D01*
X35913973Y-23777251D01*
X35950500Y-23593616D01*
X35950500Y-23406384D01*
X35913973Y-23222749D01*
X35842322Y-23049769D01*
X35842321Y-23049768D01*
X35842318Y-23049762D01*
X35809407Y-23000508D01*
X41196000Y-23000508D01*
X41196000Y-23132292D01*
X41210481Y-23186336D01*
X41230108Y-23259587D01*
X41263054Y-23316650D01*
X41296000Y-23373714D01*
X41296002Y-23373716D01*
X41369681Y-23447395D01*
X41403166Y-23508718D01*
X41406000Y-23535076D01*
X41406000Y-23638355D01*
X41406000Y-23714845D01*
X41415003Y-23748444D01*
X41425797Y-23788730D01*
X41444919Y-23821850D01*
X41464042Y-23854971D01*
X41464044Y-23854973D01*
X45265481Y-27656410D01*
X45298966Y-27717733D01*
X45301800Y-27744091D01*
X45301800Y-27848292D01*
X45305163Y-27860843D01*
X45335908Y-27975587D01*
X45362590Y-28021800D01*
X45401800Y-28089714D01*
X45494986Y-28182900D01*
X45609114Y-28248792D01*
X45736408Y-28282900D01*
X45736410Y-28282900D01*
X45868190Y-28282900D01*
X45868192Y-28282900D01*
X45995486Y-28248792D01*
X46109614Y-28182900D01*
X46202800Y-28089714D01*
X46268692Y-27975586D01*
X46302800Y-27848292D01*
X46302800Y-27716508D01*
X46268692Y-27589214D01*
X46202800Y-27475086D01*
X46109614Y-27381900D01*
X46052550Y-27348954D01*
X45995487Y-27316008D01*
X45931839Y-27298954D01*
X45868192Y-27281900D01*
X45763991Y-27281900D01*
X45696952Y-27262215D01*
X45676310Y-27245581D01*
X42038402Y-23607673D01*
X42004917Y-23546350D01*
X42009901Y-23476658D01*
X42038398Y-23432315D01*
X42097000Y-23373714D01*
X42162892Y-23259586D01*
X42197000Y-23132292D01*
X42197000Y-23000508D01*
X42162892Y-22873214D01*
X42097000Y-22759086D01*
X42003814Y-22665900D01*
X41946750Y-22632954D01*
X41889687Y-22600008D01*
X41826039Y-22582954D01*
X41762392Y-22565900D01*
X41630608Y-22565900D01*
X41503312Y-22600008D01*
X41389186Y-22665900D01*
X41389183Y-22665902D01*
X41296002Y-22759083D01*
X41296000Y-22759086D01*
X41230108Y-22873212D01*
X41200853Y-22982395D01*
X41196000Y-23000508D01*
X35809407Y-23000508D01*
X35738302Y-22894092D01*
X35738299Y-22894088D01*
X35605911Y-22761700D01*
X35605907Y-22761697D01*
X35450237Y-22657681D01*
X35450228Y-22657676D01*
X35277251Y-22586027D01*
X35277243Y-22586025D01*
X35093620Y-22549500D01*
X35093616Y-22549500D01*
X34906384Y-22549500D01*
X34906379Y-22549500D01*
X34722756Y-22586025D01*
X34722748Y-22586027D01*
X34549771Y-22657676D01*
X34549762Y-22657681D01*
X34394092Y-22761697D01*
X34394088Y-22761700D01*
X34261700Y-22894088D01*
X34261697Y-22894092D01*
X34157681Y-23049762D01*
X34157676Y-23049771D01*
X34086027Y-23222748D01*
X34086025Y-23222756D01*
X34049500Y-23406379D01*
X34049500Y-23593620D01*
X34086025Y-23777243D01*
X34086027Y-23777251D01*
X34157676Y-23950228D01*
X34157681Y-23950237D01*
X34261697Y-24105907D01*
X34261700Y-24105911D01*
X34394088Y-24238299D01*
X34394092Y-24238302D01*
X34549762Y-24342318D01*
X34549768Y-24342321D01*
X34549769Y-24342322D01*
X34722749Y-24413973D01*
X34904464Y-24450118D01*
X34906379Y-24450499D01*
X34906383Y-24450500D01*
X34906384Y-24450500D01*
X35093617Y-24450500D01*
X35093618Y-24450499D01*
X35277251Y-24413973D01*
X35360434Y-24379516D01*
X35429903Y-24372048D01*
X35492383Y-24403323D01*
X35495568Y-24406397D01*
X41338681Y-30249510D01*
X41372166Y-30310833D01*
X41375000Y-30337191D01*
X41375000Y-31352409D01*
X41355315Y-31419448D01*
X41302511Y-31465203D01*
X41233353Y-31475147D01*
X41169797Y-31446122D01*
X41163319Y-31440090D01*
X38571319Y-28848090D01*
X38537834Y-28786767D01*
X38535000Y-28760409D01*
X38535000Y-28656210D01*
X38535000Y-28656208D01*
X38500892Y-28528914D01*
X38435000Y-28414786D01*
X38341814Y-28321600D01*
X38248187Y-28267544D01*
X38227687Y-28255708D01*
X38164039Y-28238654D01*
X38100392Y-28221600D01*
X37968608Y-28221600D01*
X37841312Y-28255708D01*
X37727186Y-28321600D01*
X37727183Y-28321602D01*
X37634002Y-28414783D01*
X37634000Y-28414786D01*
X37568108Y-28528912D01*
X37538405Y-28639767D01*
X37534000Y-28656208D01*
X37534000Y-28787992D01*
X37545153Y-28829616D01*
X37568108Y-28915287D01*
X37572446Y-28922800D01*
X37634000Y-29029414D01*
X37727186Y-29122600D01*
X37841314Y-29188492D01*
X37968608Y-29222600D01*
X37968610Y-29222600D01*
X38072809Y-29222600D01*
X38139848Y-29242285D01*
X38160490Y-29258919D01*
X40847281Y-31945710D01*
X40880766Y-32007033D01*
X40883600Y-32033391D01*
X40883600Y-35836444D01*
X40900582Y-35899823D01*
X40898919Y-35969673D01*
X40859756Y-36027535D01*
X40795527Y-36055039D01*
X40726625Y-36043452D01*
X40693126Y-36019597D01*
X40068319Y-35394790D01*
X40034834Y-35333467D01*
X40032000Y-35307109D01*
X40032000Y-32861157D01*
X40032000Y-32861155D01*
X40012203Y-32787271D01*
X39973958Y-32721029D01*
X39919871Y-32666942D01*
X30520471Y-23267542D01*
X30454229Y-23229297D01*
X30454228Y-23229296D01*
X30447190Y-23225233D01*
X30448152Y-23223565D01*
X30401957Y-23186336D01*
X30389254Y-23163072D01*
X30342323Y-23049772D01*
X30342323Y-23049771D01*
X30342322Y-23049769D01*
X30342320Y-23049766D01*
X30342318Y-23049762D01*
X30238302Y-22894092D01*
X30238299Y-22894088D01*
X30105911Y-22761700D01*
X30105907Y-22761697D01*
X29950237Y-22657681D01*
X29950228Y-22657676D01*
X29777251Y-22586027D01*
X29777243Y-22586025D01*
X29593620Y-22549500D01*
X29593616Y-22549500D01*
X29406384Y-22549500D01*
X29406379Y-22549500D01*
X29222756Y-22586025D01*
X29222748Y-22586027D01*
X29049771Y-22657676D01*
X29049762Y-22657681D01*
X28894092Y-22761697D01*
X28894088Y-22761700D01*
X28761700Y-22894088D01*
X28761697Y-22894092D01*
X28657681Y-23049762D01*
X28657676Y-23049771D01*
X28586027Y-23222748D01*
X28586025Y-23222756D01*
X28549500Y-23406379D01*
X21000000Y-23406379D01*
X21000000Y-23039652D01*
X21003294Y-23026189D01*
X21002335Y-23015702D01*
X21014009Y-22982398D01*
X21111539Y-22795045D01*
X21116934Y-22785700D01*
X21325793Y-22457857D01*
X21331983Y-22449018D01*
X21568612Y-22140637D01*
X21575550Y-22132368D01*
X21838157Y-21845783D01*
X21845783Y-21838157D01*
X22132368Y-21575550D01*
X22140637Y-21568612D01*
X22449018Y-21331983D01*
X22457857Y-21325793D01*
X22785700Y-21116934D01*
X22795045Y-21111539D01*
X22982396Y-21014010D01*
X23039653Y-21000000D01*
X71960346Y-21000000D01*
X72017603Y-21014011D01*
G37*
%TD.AperFunction*%
%TD*%
M02*
