%TF.GenerationSoftware,KiCad,Pcbnew,10.0.3*%
%TF.CreationDate,2026-10-06T12:37:54+10:30*%
%TF.ProjectId,STPM33_Breakout,5354504d-3333-45f4-9272-65616b6f7574,A*%
%TF.SameCoordinates,Original*%
%TF.FileFunction,Legend,Bot*%
%TF.FilePolarity,Positive*%
%FSLAX46Y46*%
G04 Gerber Fmt 4.6, Leading zero omitted, Abs format (unit mm)*
G04 Created by KiCad (PCBNEW 10.0.3) date 2026-10-06 12:37:54*
%MOMM*%
%LPD*%
G01*
G04 APERTURE LIST*
%ADD10C,0.200000*%
%ADD11C,0.120000*%
%ADD12C,0.010000*%
%ADD13C,2.200000*%
%ADD14R,1.700000X1.700000*%
%ADD15C,1.700000*%
%ADD16C,1.500000*%
%ADD17R,1.500000X1.000000*%
G04 APERTURE END LIST*
D10*
X34095237Y-49059695D02*
X33638094Y-49059695D01*
X33866666Y-49859695D02*
X33866666Y-49059695D01*
X33409523Y-49631123D02*
X33028570Y-49631123D01*
X33485713Y-49859695D02*
X33219046Y-49059695D01*
X33219046Y-49059695D02*
X32952380Y-49859695D01*
X32685713Y-49859695D02*
X32685713Y-49059695D01*
X32685713Y-49059695D02*
X32380951Y-49059695D01*
X32380951Y-49059695D02*
X32304761Y-49097790D01*
X32304761Y-49097790D02*
X32266666Y-49135885D01*
X32266666Y-49135885D02*
X32228570Y-49212076D01*
X32228570Y-49212076D02*
X32228570Y-49326361D01*
X32228570Y-49326361D02*
X32266666Y-49402552D01*
X32266666Y-49402552D02*
X32304761Y-49440647D01*
X32304761Y-49440647D02*
X32380951Y-49478742D01*
X32380951Y-49478742D02*
X32685713Y-49478742D01*
X31428570Y-49859695D02*
X31695237Y-49478742D01*
X31885713Y-49859695D02*
X31885713Y-49059695D01*
X31885713Y-49059695D02*
X31580951Y-49059695D01*
X31580951Y-49059695D02*
X31504761Y-49097790D01*
X31504761Y-49097790D02*
X31466666Y-49135885D01*
X31466666Y-49135885D02*
X31428570Y-49212076D01*
X31428570Y-49212076D02*
X31428570Y-49326361D01*
X31428570Y-49326361D02*
X31466666Y-49402552D01*
X31466666Y-49402552D02*
X31504761Y-49440647D01*
X31504761Y-49440647D02*
X31580951Y-49478742D01*
X31580951Y-49478742D02*
X31885713Y-49478742D01*
X30323808Y-49059695D02*
X30171427Y-49059695D01*
X30171427Y-49059695D02*
X30095237Y-49097790D01*
X30095237Y-49097790D02*
X30019046Y-49173980D01*
X30019046Y-49173980D02*
X29980951Y-49326361D01*
X29980951Y-49326361D02*
X29980951Y-49593028D01*
X29980951Y-49593028D02*
X30019046Y-49745409D01*
X30019046Y-49745409D02*
X30095237Y-49821600D01*
X30095237Y-49821600D02*
X30171427Y-49859695D01*
X30171427Y-49859695D02*
X30323808Y-49859695D01*
X30323808Y-49859695D02*
X30399999Y-49821600D01*
X30399999Y-49821600D02*
X30476189Y-49745409D01*
X30476189Y-49745409D02*
X30514285Y-49593028D01*
X30514285Y-49593028D02*
X30514285Y-49326361D01*
X30514285Y-49326361D02*
X30476189Y-49173980D01*
X30476189Y-49173980D02*
X30399999Y-49097790D01*
X30399999Y-49097790D02*
X30323808Y-49059695D01*
X29638094Y-49859695D02*
X29638094Y-49059695D01*
X29638094Y-49440647D02*
X29180951Y-49440647D01*
X29180951Y-49859695D02*
X29180951Y-49059695D01*
X28419047Y-49859695D02*
X28799999Y-49859695D01*
X28799999Y-49859695D02*
X28799999Y-49059695D01*
X27123809Y-49859695D02*
X27580952Y-49859695D01*
X27352380Y-49859695D02*
X27352380Y-49059695D01*
X27352380Y-49059695D02*
X27428571Y-49173980D01*
X27428571Y-49173980D02*
X27504761Y-49250171D01*
X27504761Y-49250171D02*
X27580952Y-49288266D01*
X26780951Y-49783504D02*
X26742856Y-49821600D01*
X26742856Y-49821600D02*
X26780951Y-49859695D01*
X26780951Y-49859695D02*
X26819047Y-49821600D01*
X26819047Y-49821600D02*
X26780951Y-49783504D01*
X26780951Y-49783504D02*
X26780951Y-49859695D01*
X26247618Y-49059695D02*
X26171428Y-49059695D01*
X26171428Y-49059695D02*
X26095237Y-49097790D01*
X26095237Y-49097790D02*
X26057142Y-49135885D01*
X26057142Y-49135885D02*
X26019047Y-49212076D01*
X26019047Y-49212076D02*
X25980952Y-49364457D01*
X25980952Y-49364457D02*
X25980952Y-49554933D01*
X25980952Y-49554933D02*
X26019047Y-49707314D01*
X26019047Y-49707314D02*
X26057142Y-49783504D01*
X26057142Y-49783504D02*
X26095237Y-49821600D01*
X26095237Y-49821600D02*
X26171428Y-49859695D01*
X26171428Y-49859695D02*
X26247618Y-49859695D01*
X26247618Y-49859695D02*
X26323809Y-49821600D01*
X26323809Y-49821600D02*
X26361904Y-49783504D01*
X26361904Y-49783504D02*
X26399999Y-49707314D01*
X26399999Y-49707314D02*
X26438095Y-49554933D01*
X26438095Y-49554933D02*
X26438095Y-49364457D01*
X26438095Y-49364457D02*
X26399999Y-49212076D01*
X26399999Y-49212076D02*
X26361904Y-49135885D01*
X26361904Y-49135885D02*
X26323809Y-49097790D01*
X26323809Y-49097790D02*
X26247618Y-49059695D01*
X47485715Y-49326361D02*
X47295239Y-49859695D01*
X47295239Y-49859695D02*
X47104762Y-49326361D01*
X46380953Y-49859695D02*
X46838096Y-49859695D01*
X46609524Y-49859695D02*
X46609524Y-49059695D01*
X46609524Y-49059695D02*
X46685715Y-49173980D01*
X46685715Y-49173980D02*
X46761905Y-49250171D01*
X46761905Y-49250171D02*
X46838096Y-49288266D01*
X46038095Y-49783504D02*
X46000000Y-49821600D01*
X46000000Y-49821600D02*
X46038095Y-49859695D01*
X46038095Y-49859695D02*
X46076191Y-49821600D01*
X46076191Y-49821600D02*
X46038095Y-49783504D01*
X46038095Y-49783504D02*
X46038095Y-49859695D01*
X45504762Y-49059695D02*
X45428572Y-49059695D01*
X45428572Y-49059695D02*
X45352381Y-49097790D01*
X45352381Y-49097790D02*
X45314286Y-49135885D01*
X45314286Y-49135885D02*
X45276191Y-49212076D01*
X45276191Y-49212076D02*
X45238096Y-49364457D01*
X45238096Y-49364457D02*
X45238096Y-49554933D01*
X45238096Y-49554933D02*
X45276191Y-49707314D01*
X45276191Y-49707314D02*
X45314286Y-49783504D01*
X45314286Y-49783504D02*
X45352381Y-49821600D01*
X45352381Y-49821600D02*
X45428572Y-49859695D01*
X45428572Y-49859695D02*
X45504762Y-49859695D01*
X45504762Y-49859695D02*
X45580953Y-49821600D01*
X45580953Y-49821600D02*
X45619048Y-49783504D01*
X45619048Y-49783504D02*
X45657143Y-49707314D01*
X45657143Y-49707314D02*
X45695239Y-49554933D01*
X45695239Y-49554933D02*
X45695239Y-49364457D01*
X45695239Y-49364457D02*
X45657143Y-49212076D01*
X45657143Y-49212076D02*
X45619048Y-49135885D01*
X45619048Y-49135885D02*
X45580953Y-49097790D01*
X45580953Y-49097790D02*
X45504762Y-49059695D01*
X44323810Y-49135885D02*
X44285714Y-49097790D01*
X44285714Y-49097790D02*
X44209524Y-49059695D01*
X44209524Y-49059695D02*
X44019048Y-49059695D01*
X44019048Y-49059695D02*
X43942857Y-49097790D01*
X43942857Y-49097790D02*
X43904762Y-49135885D01*
X43904762Y-49135885D02*
X43866667Y-49212076D01*
X43866667Y-49212076D02*
X43866667Y-49288266D01*
X43866667Y-49288266D02*
X43904762Y-49402552D01*
X43904762Y-49402552D02*
X44361905Y-49859695D01*
X44361905Y-49859695D02*
X43866667Y-49859695D01*
X43371428Y-49059695D02*
X43295238Y-49059695D01*
X43295238Y-49059695D02*
X43219047Y-49097790D01*
X43219047Y-49097790D02*
X43180952Y-49135885D01*
X43180952Y-49135885D02*
X43142857Y-49212076D01*
X43142857Y-49212076D02*
X43104762Y-49364457D01*
X43104762Y-49364457D02*
X43104762Y-49554933D01*
X43104762Y-49554933D02*
X43142857Y-49707314D01*
X43142857Y-49707314D02*
X43180952Y-49783504D01*
X43180952Y-49783504D02*
X43219047Y-49821600D01*
X43219047Y-49821600D02*
X43295238Y-49859695D01*
X43295238Y-49859695D02*
X43371428Y-49859695D01*
X43371428Y-49859695D02*
X43447619Y-49821600D01*
X43447619Y-49821600D02*
X43485714Y-49783504D01*
X43485714Y-49783504D02*
X43523809Y-49707314D01*
X43523809Y-49707314D02*
X43561905Y-49554933D01*
X43561905Y-49554933D02*
X43561905Y-49364457D01*
X43561905Y-49364457D02*
X43523809Y-49212076D01*
X43523809Y-49212076D02*
X43485714Y-49135885D01*
X43485714Y-49135885D02*
X43447619Y-49097790D01*
X43447619Y-49097790D02*
X43371428Y-49059695D01*
X42800000Y-49135885D02*
X42761904Y-49097790D01*
X42761904Y-49097790D02*
X42685714Y-49059695D01*
X42685714Y-49059695D02*
X42495238Y-49059695D01*
X42495238Y-49059695D02*
X42419047Y-49097790D01*
X42419047Y-49097790D02*
X42380952Y-49135885D01*
X42380952Y-49135885D02*
X42342857Y-49212076D01*
X42342857Y-49212076D02*
X42342857Y-49288266D01*
X42342857Y-49288266D02*
X42380952Y-49402552D01*
X42380952Y-49402552D02*
X42838095Y-49859695D01*
X42838095Y-49859695D02*
X42342857Y-49859695D01*
X41657142Y-49059695D02*
X41809523Y-49059695D01*
X41809523Y-49059695D02*
X41885714Y-49097790D01*
X41885714Y-49097790D02*
X41923809Y-49135885D01*
X41923809Y-49135885D02*
X41999999Y-49250171D01*
X41999999Y-49250171D02*
X42038095Y-49402552D01*
X42038095Y-49402552D02*
X42038095Y-49707314D01*
X42038095Y-49707314D02*
X41999999Y-49783504D01*
X41999999Y-49783504D02*
X41961904Y-49821600D01*
X41961904Y-49821600D02*
X41885714Y-49859695D01*
X41885714Y-49859695D02*
X41733333Y-49859695D01*
X41733333Y-49859695D02*
X41657142Y-49821600D01*
X41657142Y-49821600D02*
X41619047Y-49783504D01*
X41619047Y-49783504D02*
X41580952Y-49707314D01*
X41580952Y-49707314D02*
X41580952Y-49516838D01*
X41580952Y-49516838D02*
X41619047Y-49440647D01*
X41619047Y-49440647D02*
X41657142Y-49402552D01*
X41657142Y-49402552D02*
X41733333Y-49364457D01*
X41733333Y-49364457D02*
X41885714Y-49364457D01*
X41885714Y-49364457D02*
X41961904Y-49402552D01*
X41961904Y-49402552D02*
X41999999Y-49440647D01*
X41999999Y-49440647D02*
X42038095Y-49516838D01*
X41238094Y-49554933D02*
X40628571Y-49554933D01*
X39828571Y-49859695D02*
X40285714Y-49859695D01*
X40057142Y-49859695D02*
X40057142Y-49059695D01*
X40057142Y-49059695D02*
X40133333Y-49173980D01*
X40133333Y-49173980D02*
X40209523Y-49250171D01*
X40209523Y-49250171D02*
X40285714Y-49288266D01*
X39333332Y-49059695D02*
X39257142Y-49059695D01*
X39257142Y-49059695D02*
X39180951Y-49097790D01*
X39180951Y-49097790D02*
X39142856Y-49135885D01*
X39142856Y-49135885D02*
X39104761Y-49212076D01*
X39104761Y-49212076D02*
X39066666Y-49364457D01*
X39066666Y-49364457D02*
X39066666Y-49554933D01*
X39066666Y-49554933D02*
X39104761Y-49707314D01*
X39104761Y-49707314D02*
X39142856Y-49783504D01*
X39142856Y-49783504D02*
X39180951Y-49821600D01*
X39180951Y-49821600D02*
X39257142Y-49859695D01*
X39257142Y-49859695D02*
X39333332Y-49859695D01*
X39333332Y-49859695D02*
X39409523Y-49821600D01*
X39409523Y-49821600D02*
X39447618Y-49783504D01*
X39447618Y-49783504D02*
X39485713Y-49707314D01*
X39485713Y-49707314D02*
X39523809Y-49554933D01*
X39523809Y-49554933D02*
X39523809Y-49364457D01*
X39523809Y-49364457D02*
X39485713Y-49212076D01*
X39485713Y-49212076D02*
X39447618Y-49135885D01*
X39447618Y-49135885D02*
X39409523Y-49097790D01*
X39409523Y-49097790D02*
X39333332Y-49059695D01*
X38723808Y-49554933D02*
X38114285Y-49554933D01*
X37580951Y-49059695D02*
X37504761Y-49059695D01*
X37504761Y-49059695D02*
X37428570Y-49097790D01*
X37428570Y-49097790D02*
X37390475Y-49135885D01*
X37390475Y-49135885D02*
X37352380Y-49212076D01*
X37352380Y-49212076D02*
X37314285Y-49364457D01*
X37314285Y-49364457D02*
X37314285Y-49554933D01*
X37314285Y-49554933D02*
X37352380Y-49707314D01*
X37352380Y-49707314D02*
X37390475Y-49783504D01*
X37390475Y-49783504D02*
X37428570Y-49821600D01*
X37428570Y-49821600D02*
X37504761Y-49859695D01*
X37504761Y-49859695D02*
X37580951Y-49859695D01*
X37580951Y-49859695D02*
X37657142Y-49821600D01*
X37657142Y-49821600D02*
X37695237Y-49783504D01*
X37695237Y-49783504D02*
X37733332Y-49707314D01*
X37733332Y-49707314D02*
X37771428Y-49554933D01*
X37771428Y-49554933D02*
X37771428Y-49364457D01*
X37771428Y-49364457D02*
X37733332Y-49212076D01*
X37733332Y-49212076D02*
X37695237Y-49135885D01*
X37695237Y-49135885D02*
X37657142Y-49097790D01*
X37657142Y-49097790D02*
X37580951Y-49059695D01*
X36628570Y-49059695D02*
X36780951Y-49059695D01*
X36780951Y-49059695D02*
X36857142Y-49097790D01*
X36857142Y-49097790D02*
X36895237Y-49135885D01*
X36895237Y-49135885D02*
X36971427Y-49250171D01*
X36971427Y-49250171D02*
X37009523Y-49402552D01*
X37009523Y-49402552D02*
X37009523Y-49707314D01*
X37009523Y-49707314D02*
X36971427Y-49783504D01*
X36971427Y-49783504D02*
X36933332Y-49821600D01*
X36933332Y-49821600D02*
X36857142Y-49859695D01*
X36857142Y-49859695D02*
X36704761Y-49859695D01*
X36704761Y-49859695D02*
X36628570Y-49821600D01*
X36628570Y-49821600D02*
X36590475Y-49783504D01*
X36590475Y-49783504D02*
X36552380Y-49707314D01*
X36552380Y-49707314D02*
X36552380Y-49516838D01*
X36552380Y-49516838D02*
X36590475Y-49440647D01*
X36590475Y-49440647D02*
X36628570Y-49402552D01*
X36628570Y-49402552D02*
X36704761Y-49364457D01*
X36704761Y-49364457D02*
X36857142Y-49364457D01*
X36857142Y-49364457D02*
X36933332Y-49402552D01*
X36933332Y-49402552D02*
X36971427Y-49440647D01*
X36971427Y-49440647D02*
X37009523Y-49516838D01*
X54376189Y-32359695D02*
X54376189Y-31559695D01*
X54376189Y-31559695D02*
X53919046Y-32359695D01*
X53919046Y-32359695D02*
X53919046Y-31559695D01*
X53385713Y-31559695D02*
X53233332Y-31559695D01*
X53233332Y-31559695D02*
X53157142Y-31597790D01*
X53157142Y-31597790D02*
X53080951Y-31673980D01*
X53080951Y-31673980D02*
X53042856Y-31826361D01*
X53042856Y-31826361D02*
X53042856Y-32093028D01*
X53042856Y-32093028D02*
X53080951Y-32245409D01*
X53080951Y-32245409D02*
X53157142Y-32321600D01*
X53157142Y-32321600D02*
X53233332Y-32359695D01*
X53233332Y-32359695D02*
X53385713Y-32359695D01*
X53385713Y-32359695D02*
X53461904Y-32321600D01*
X53461904Y-32321600D02*
X53538094Y-32245409D01*
X53538094Y-32245409D02*
X53576190Y-32093028D01*
X53576190Y-32093028D02*
X53576190Y-31826361D01*
X53576190Y-31826361D02*
X53538094Y-31673980D01*
X53538094Y-31673980D02*
X53461904Y-31597790D01*
X53461904Y-31597790D02*
X53385713Y-31559695D01*
X52814285Y-31559695D02*
X52357142Y-31559695D01*
X52585714Y-32359695D02*
X52585714Y-31559695D01*
X51214285Y-31940647D02*
X51480951Y-31940647D01*
X51480951Y-32359695D02*
X51480951Y-31559695D01*
X51480951Y-31559695D02*
X51099999Y-31559695D01*
X50642856Y-31559695D02*
X50490475Y-31559695D01*
X50490475Y-31559695D02*
X50414285Y-31597790D01*
X50414285Y-31597790D02*
X50338094Y-31673980D01*
X50338094Y-31673980D02*
X50299999Y-31826361D01*
X50299999Y-31826361D02*
X50299999Y-32093028D01*
X50299999Y-32093028D02*
X50338094Y-32245409D01*
X50338094Y-32245409D02*
X50414285Y-32321600D01*
X50414285Y-32321600D02*
X50490475Y-32359695D01*
X50490475Y-32359695D02*
X50642856Y-32359695D01*
X50642856Y-32359695D02*
X50719047Y-32321600D01*
X50719047Y-32321600D02*
X50795237Y-32245409D01*
X50795237Y-32245409D02*
X50833333Y-32093028D01*
X50833333Y-32093028D02*
X50833333Y-31826361D01*
X50833333Y-31826361D02*
X50795237Y-31673980D01*
X50795237Y-31673980D02*
X50719047Y-31597790D01*
X50719047Y-31597790D02*
X50642856Y-31559695D01*
X49499999Y-32359695D02*
X49766666Y-31978742D01*
X49957142Y-32359695D02*
X49957142Y-31559695D01*
X49957142Y-31559695D02*
X49652380Y-31559695D01*
X49652380Y-31559695D02*
X49576190Y-31597790D01*
X49576190Y-31597790D02*
X49538095Y-31635885D01*
X49538095Y-31635885D02*
X49499999Y-31712076D01*
X49499999Y-31712076D02*
X49499999Y-31826361D01*
X49499999Y-31826361D02*
X49538095Y-31902552D01*
X49538095Y-31902552D02*
X49576190Y-31940647D01*
X49576190Y-31940647D02*
X49652380Y-31978742D01*
X49652380Y-31978742D02*
X49957142Y-31978742D01*
X48547618Y-32359695D02*
X48547618Y-31559695D01*
X48547618Y-31559695D02*
X48357142Y-31559695D01*
X48357142Y-31559695D02*
X48242856Y-31597790D01*
X48242856Y-31597790D02*
X48166666Y-31673980D01*
X48166666Y-31673980D02*
X48128571Y-31750171D01*
X48128571Y-31750171D02*
X48090475Y-31902552D01*
X48090475Y-31902552D02*
X48090475Y-32016838D01*
X48090475Y-32016838D02*
X48128571Y-32169219D01*
X48128571Y-32169219D02*
X48166666Y-32245409D01*
X48166666Y-32245409D02*
X48242856Y-32321600D01*
X48242856Y-32321600D02*
X48357142Y-32359695D01*
X48357142Y-32359695D02*
X48547618Y-32359695D01*
X47747618Y-32359695D02*
X47747618Y-31559695D01*
X46909523Y-32359695D02*
X47176190Y-31978742D01*
X47366666Y-32359695D02*
X47366666Y-31559695D01*
X47366666Y-31559695D02*
X47061904Y-31559695D01*
X47061904Y-31559695D02*
X46985714Y-31597790D01*
X46985714Y-31597790D02*
X46947619Y-31635885D01*
X46947619Y-31635885D02*
X46909523Y-31712076D01*
X46909523Y-31712076D02*
X46909523Y-31826361D01*
X46909523Y-31826361D02*
X46947619Y-31902552D01*
X46947619Y-31902552D02*
X46985714Y-31940647D01*
X46985714Y-31940647D02*
X47061904Y-31978742D01*
X47061904Y-31978742D02*
X47366666Y-31978742D01*
X46566666Y-31940647D02*
X46300000Y-31940647D01*
X46185714Y-32359695D02*
X46566666Y-32359695D01*
X46566666Y-32359695D02*
X46566666Y-31559695D01*
X46566666Y-31559695D02*
X46185714Y-31559695D01*
X45385713Y-32283504D02*
X45423809Y-32321600D01*
X45423809Y-32321600D02*
X45538094Y-32359695D01*
X45538094Y-32359695D02*
X45614285Y-32359695D01*
X45614285Y-32359695D02*
X45728571Y-32321600D01*
X45728571Y-32321600D02*
X45804761Y-32245409D01*
X45804761Y-32245409D02*
X45842856Y-32169219D01*
X45842856Y-32169219D02*
X45880952Y-32016838D01*
X45880952Y-32016838D02*
X45880952Y-31902552D01*
X45880952Y-31902552D02*
X45842856Y-31750171D01*
X45842856Y-31750171D02*
X45804761Y-31673980D01*
X45804761Y-31673980D02*
X45728571Y-31597790D01*
X45728571Y-31597790D02*
X45614285Y-31559695D01*
X45614285Y-31559695D02*
X45538094Y-31559695D01*
X45538094Y-31559695D02*
X45423809Y-31597790D01*
X45423809Y-31597790D02*
X45385713Y-31635885D01*
X45157142Y-31559695D02*
X44699999Y-31559695D01*
X44928571Y-32359695D02*
X44928571Y-31559695D01*
X43823808Y-32359695D02*
X43823808Y-31559695D01*
X43823808Y-31559695D02*
X43557142Y-32131123D01*
X43557142Y-32131123D02*
X43290475Y-31559695D01*
X43290475Y-31559695D02*
X43290475Y-32359695D01*
X42947618Y-32131123D02*
X42566665Y-32131123D01*
X43023808Y-32359695D02*
X42757141Y-31559695D01*
X42757141Y-31559695D02*
X42490475Y-32359695D01*
X42223808Y-32359695D02*
X42223808Y-31559695D01*
X41842856Y-32359695D02*
X41842856Y-31559695D01*
X41842856Y-31559695D02*
X41385713Y-32359695D01*
X41385713Y-32359695D02*
X41385713Y-31559695D01*
X41042857Y-32321600D02*
X40928571Y-32359695D01*
X40928571Y-32359695D02*
X40738095Y-32359695D01*
X40738095Y-32359695D02*
X40661904Y-32321600D01*
X40661904Y-32321600D02*
X40623809Y-32283504D01*
X40623809Y-32283504D02*
X40585714Y-32207314D01*
X40585714Y-32207314D02*
X40585714Y-32131123D01*
X40585714Y-32131123D02*
X40623809Y-32054933D01*
X40623809Y-32054933D02*
X40661904Y-32016838D01*
X40661904Y-32016838D02*
X40738095Y-31978742D01*
X40738095Y-31978742D02*
X40890476Y-31940647D01*
X40890476Y-31940647D02*
X40966666Y-31902552D01*
X40966666Y-31902552D02*
X41004761Y-31864457D01*
X41004761Y-31864457D02*
X41042857Y-31788266D01*
X41042857Y-31788266D02*
X41042857Y-31712076D01*
X41042857Y-31712076D02*
X41004761Y-31635885D01*
X41004761Y-31635885D02*
X40966666Y-31597790D01*
X40966666Y-31597790D02*
X40890476Y-31559695D01*
X40890476Y-31559695D02*
X40699999Y-31559695D01*
X40699999Y-31559695D02*
X40585714Y-31597790D01*
X57842856Y-34059695D02*
X57842856Y-33259695D01*
X57500000Y-34021600D02*
X57385714Y-34059695D01*
X57385714Y-34059695D02*
X57195238Y-34059695D01*
X57195238Y-34059695D02*
X57119047Y-34021600D01*
X57119047Y-34021600D02*
X57080952Y-33983504D01*
X57080952Y-33983504D02*
X57042857Y-33907314D01*
X57042857Y-33907314D02*
X57042857Y-33831123D01*
X57042857Y-33831123D02*
X57080952Y-33754933D01*
X57080952Y-33754933D02*
X57119047Y-33716838D01*
X57119047Y-33716838D02*
X57195238Y-33678742D01*
X57195238Y-33678742D02*
X57347619Y-33640647D01*
X57347619Y-33640647D02*
X57423809Y-33602552D01*
X57423809Y-33602552D02*
X57461904Y-33564457D01*
X57461904Y-33564457D02*
X57500000Y-33488266D01*
X57500000Y-33488266D02*
X57500000Y-33412076D01*
X57500000Y-33412076D02*
X57461904Y-33335885D01*
X57461904Y-33335885D02*
X57423809Y-33297790D01*
X57423809Y-33297790D02*
X57347619Y-33259695D01*
X57347619Y-33259695D02*
X57157142Y-33259695D01*
X57157142Y-33259695D02*
X57042857Y-33297790D01*
X56547618Y-33259695D02*
X56395237Y-33259695D01*
X56395237Y-33259695D02*
X56319047Y-33297790D01*
X56319047Y-33297790D02*
X56242856Y-33373980D01*
X56242856Y-33373980D02*
X56204761Y-33526361D01*
X56204761Y-33526361D02*
X56204761Y-33793028D01*
X56204761Y-33793028D02*
X56242856Y-33945409D01*
X56242856Y-33945409D02*
X56319047Y-34021600D01*
X56319047Y-34021600D02*
X56395237Y-34059695D01*
X56395237Y-34059695D02*
X56547618Y-34059695D01*
X56547618Y-34059695D02*
X56623809Y-34021600D01*
X56623809Y-34021600D02*
X56699999Y-33945409D01*
X56699999Y-33945409D02*
X56738095Y-33793028D01*
X56738095Y-33793028D02*
X56738095Y-33526361D01*
X56738095Y-33526361D02*
X56699999Y-33373980D01*
X56699999Y-33373980D02*
X56623809Y-33297790D01*
X56623809Y-33297790D02*
X56547618Y-33259695D01*
X55480952Y-34059695D02*
X55861904Y-34059695D01*
X55861904Y-34059695D02*
X55861904Y-33259695D01*
X55252381Y-33831123D02*
X54871428Y-33831123D01*
X55328571Y-34059695D02*
X55061904Y-33259695D01*
X55061904Y-33259695D02*
X54795238Y-34059695D01*
X54642857Y-33259695D02*
X54185714Y-33259695D01*
X54414286Y-34059695D02*
X54414286Y-33259695D01*
X53919047Y-33640647D02*
X53652381Y-33640647D01*
X53538095Y-34059695D02*
X53919047Y-34059695D01*
X53919047Y-34059695D02*
X53919047Y-33259695D01*
X53919047Y-33259695D02*
X53538095Y-33259695D01*
X53195237Y-34059695D02*
X53195237Y-33259695D01*
X53195237Y-33259695D02*
X53004761Y-33259695D01*
X53004761Y-33259695D02*
X52890475Y-33297790D01*
X52890475Y-33297790D02*
X52814285Y-33373980D01*
X52814285Y-33373980D02*
X52776190Y-33450171D01*
X52776190Y-33450171D02*
X52738094Y-33602552D01*
X52738094Y-33602552D02*
X52738094Y-33716838D01*
X52738094Y-33716838D02*
X52776190Y-33869219D01*
X52776190Y-33869219D02*
X52814285Y-33945409D01*
X52814285Y-33945409D02*
X52890475Y-34021600D01*
X52890475Y-34021600D02*
X53004761Y-34059695D01*
X53004761Y-34059695D02*
X53195237Y-34059695D01*
X51747618Y-34059695D02*
X51595237Y-34059695D01*
X51595237Y-34059695D02*
X51519047Y-34021600D01*
X51519047Y-34021600D02*
X51480951Y-33983504D01*
X51480951Y-33983504D02*
X51404761Y-33869219D01*
X51404761Y-33869219D02*
X51366666Y-33716838D01*
X51366666Y-33716838D02*
X51366666Y-33412076D01*
X51366666Y-33412076D02*
X51404761Y-33335885D01*
X51404761Y-33335885D02*
X51442856Y-33297790D01*
X51442856Y-33297790D02*
X51519047Y-33259695D01*
X51519047Y-33259695D02*
X51671428Y-33259695D01*
X51671428Y-33259695D02*
X51747618Y-33297790D01*
X51747618Y-33297790D02*
X51785713Y-33335885D01*
X51785713Y-33335885D02*
X51823809Y-33412076D01*
X51823809Y-33412076D02*
X51823809Y-33602552D01*
X51823809Y-33602552D02*
X51785713Y-33678742D01*
X51785713Y-33678742D02*
X51747618Y-33716838D01*
X51747618Y-33716838D02*
X51671428Y-33754933D01*
X51671428Y-33754933D02*
X51519047Y-33754933D01*
X51519047Y-33754933D02*
X51442856Y-33716838D01*
X51442856Y-33716838D02*
X51404761Y-33678742D01*
X51404761Y-33678742D02*
X51366666Y-33602552D01*
X51138094Y-33259695D02*
X50871427Y-34059695D01*
X50871427Y-34059695D02*
X50604761Y-33259695D01*
X50376190Y-33831123D02*
X49995237Y-33831123D01*
X50452380Y-34059695D02*
X50185713Y-33259695D01*
X50185713Y-33259695D02*
X49919047Y-34059695D01*
X49195237Y-33983504D02*
X49233333Y-34021600D01*
X49233333Y-34021600D02*
X49347618Y-34059695D01*
X49347618Y-34059695D02*
X49423809Y-34059695D01*
X49423809Y-34059695D02*
X49538095Y-34021600D01*
X49538095Y-34021600D02*
X49614285Y-33945409D01*
X49614285Y-33945409D02*
X49652380Y-33869219D01*
X49652380Y-33869219D02*
X49690476Y-33716838D01*
X49690476Y-33716838D02*
X49690476Y-33602552D01*
X49690476Y-33602552D02*
X49652380Y-33450171D01*
X49652380Y-33450171D02*
X49614285Y-33373980D01*
X49614285Y-33373980D02*
X49538095Y-33297790D01*
X49538095Y-33297790D02*
X49423809Y-33259695D01*
X49423809Y-33259695D02*
X49347618Y-33259695D01*
X49347618Y-33259695D02*
X49233333Y-33297790D01*
X49233333Y-33297790D02*
X49195237Y-33335885D01*
X48242856Y-33754933D02*
X47633333Y-33754933D01*
X47938094Y-34059695D02*
X47938094Y-33450171D01*
X46185713Y-33983504D02*
X46223809Y-34021600D01*
X46223809Y-34021600D02*
X46338094Y-34059695D01*
X46338094Y-34059695D02*
X46414285Y-34059695D01*
X46414285Y-34059695D02*
X46528571Y-34021600D01*
X46528571Y-34021600D02*
X46604761Y-33945409D01*
X46604761Y-33945409D02*
X46642856Y-33869219D01*
X46642856Y-33869219D02*
X46680952Y-33716838D01*
X46680952Y-33716838D02*
X46680952Y-33602552D01*
X46680952Y-33602552D02*
X46642856Y-33450171D01*
X46642856Y-33450171D02*
X46604761Y-33373980D01*
X46604761Y-33373980D02*
X46528571Y-33297790D01*
X46528571Y-33297790D02*
X46414285Y-33259695D01*
X46414285Y-33259695D02*
X46338094Y-33259695D01*
X46338094Y-33259695D02*
X46223809Y-33297790D01*
X46223809Y-33297790D02*
X46185713Y-33335885D01*
X45957142Y-33259695D02*
X45499999Y-33259695D01*
X45728571Y-34059695D02*
X45728571Y-33259695D01*
X44623808Y-34059695D02*
X44623808Y-33259695D01*
X44242856Y-34059695D02*
X44242856Y-33259695D01*
X44242856Y-33259695D02*
X43785713Y-34059695D01*
X43785713Y-34059695D02*
X43785713Y-33259695D01*
X43404761Y-34059695D02*
X43404761Y-33259695D01*
X43404761Y-33259695D02*
X43099999Y-33259695D01*
X43099999Y-33259695D02*
X43023809Y-33297790D01*
X43023809Y-33297790D02*
X42985714Y-33335885D01*
X42985714Y-33335885D02*
X42947618Y-33412076D01*
X42947618Y-33412076D02*
X42947618Y-33526361D01*
X42947618Y-33526361D02*
X42985714Y-33602552D01*
X42985714Y-33602552D02*
X43023809Y-33640647D01*
X43023809Y-33640647D02*
X43099999Y-33678742D01*
X43099999Y-33678742D02*
X43404761Y-33678742D01*
X42604761Y-33259695D02*
X42604761Y-33907314D01*
X42604761Y-33907314D02*
X42566666Y-33983504D01*
X42566666Y-33983504D02*
X42528571Y-34021600D01*
X42528571Y-34021600D02*
X42452380Y-34059695D01*
X42452380Y-34059695D02*
X42299999Y-34059695D01*
X42299999Y-34059695D02*
X42223809Y-34021600D01*
X42223809Y-34021600D02*
X42185714Y-33983504D01*
X42185714Y-33983504D02*
X42147618Y-33907314D01*
X42147618Y-33907314D02*
X42147618Y-33259695D01*
X41880952Y-33259695D02*
X41423809Y-33259695D01*
X41652381Y-34059695D02*
X41652381Y-33259695D01*
X41195238Y-34021600D02*
X41080952Y-34059695D01*
X41080952Y-34059695D02*
X40890476Y-34059695D01*
X40890476Y-34059695D02*
X40814285Y-34021600D01*
X40814285Y-34021600D02*
X40776190Y-33983504D01*
X40776190Y-33983504D02*
X40738095Y-33907314D01*
X40738095Y-33907314D02*
X40738095Y-33831123D01*
X40738095Y-33831123D02*
X40776190Y-33754933D01*
X40776190Y-33754933D02*
X40814285Y-33716838D01*
X40814285Y-33716838D02*
X40890476Y-33678742D01*
X40890476Y-33678742D02*
X41042857Y-33640647D01*
X41042857Y-33640647D02*
X41119047Y-33602552D01*
X41119047Y-33602552D02*
X41157142Y-33564457D01*
X41157142Y-33564457D02*
X41195238Y-33488266D01*
X41195238Y-33488266D02*
X41195238Y-33412076D01*
X41195238Y-33412076D02*
X41157142Y-33335885D01*
X41157142Y-33335885D02*
X41119047Y-33297790D01*
X41119047Y-33297790D02*
X41042857Y-33259695D01*
X41042857Y-33259695D02*
X40852380Y-33259695D01*
X40852380Y-33259695D02*
X40738095Y-33297790D01*
X39633332Y-33259695D02*
X39480951Y-33259695D01*
X39480951Y-33259695D02*
X39404761Y-33297790D01*
X39404761Y-33297790D02*
X39328570Y-33373980D01*
X39328570Y-33373980D02*
X39290475Y-33526361D01*
X39290475Y-33526361D02*
X39290475Y-33793028D01*
X39290475Y-33793028D02*
X39328570Y-33945409D01*
X39328570Y-33945409D02*
X39404761Y-34021600D01*
X39404761Y-34021600D02*
X39480951Y-34059695D01*
X39480951Y-34059695D02*
X39633332Y-34059695D01*
X39633332Y-34059695D02*
X39709523Y-34021600D01*
X39709523Y-34021600D02*
X39785713Y-33945409D01*
X39785713Y-33945409D02*
X39823809Y-33793028D01*
X39823809Y-33793028D02*
X39823809Y-33526361D01*
X39823809Y-33526361D02*
X39785713Y-33373980D01*
X39785713Y-33373980D02*
X39709523Y-33297790D01*
X39709523Y-33297790D02*
X39633332Y-33259695D01*
X38947618Y-34059695D02*
X38947618Y-33259695D01*
X38947618Y-33259695D02*
X38490475Y-34059695D01*
X38490475Y-34059695D02*
X38490475Y-33259695D01*
X37728571Y-34059695D02*
X38109523Y-34059695D01*
X38109523Y-34059695D02*
X38109523Y-33259695D01*
X37309523Y-33678742D02*
X37309523Y-34059695D01*
X37576190Y-33259695D02*
X37309523Y-33678742D01*
X37309523Y-33678742D02*
X37042857Y-33259695D01*
X68776189Y-32559695D02*
X68776189Y-33207314D01*
X68776189Y-33207314D02*
X68738094Y-33283504D01*
X68738094Y-33283504D02*
X68699999Y-33321600D01*
X68699999Y-33321600D02*
X68623808Y-33359695D01*
X68623808Y-33359695D02*
X68471427Y-33359695D01*
X68471427Y-33359695D02*
X68395237Y-33321600D01*
X68395237Y-33321600D02*
X68357142Y-33283504D01*
X68357142Y-33283504D02*
X68319046Y-33207314D01*
X68319046Y-33207314D02*
X68319046Y-32559695D01*
X67976190Y-33131123D02*
X67595237Y-33131123D01*
X68052380Y-33359695D02*
X67785713Y-32559695D01*
X67785713Y-32559695D02*
X67519047Y-33359695D01*
X66795237Y-33359695D02*
X67061904Y-32978742D01*
X67252380Y-33359695D02*
X67252380Y-32559695D01*
X67252380Y-32559695D02*
X66947618Y-32559695D01*
X66947618Y-32559695D02*
X66871428Y-32597790D01*
X66871428Y-32597790D02*
X66833333Y-32635885D01*
X66833333Y-32635885D02*
X66795237Y-32712076D01*
X66795237Y-32712076D02*
X66795237Y-32826361D01*
X66795237Y-32826361D02*
X66833333Y-32902552D01*
X66833333Y-32902552D02*
X66871428Y-32940647D01*
X66871428Y-32940647D02*
X66947618Y-32978742D01*
X66947618Y-32978742D02*
X67252380Y-32978742D01*
X66566666Y-32559695D02*
X66109523Y-32559695D01*
X66338095Y-33359695D02*
X66338095Y-32559695D01*
X29859695Y-28395238D02*
X29059695Y-28395238D01*
X29859695Y-28776190D02*
X29059695Y-28776190D01*
X29059695Y-28776190D02*
X29859695Y-29233333D01*
X29859695Y-29233333D02*
X29059695Y-29233333D01*
X29059695Y-29499999D02*
X29059695Y-29957142D01*
X29859695Y-29728570D02*
X29059695Y-29728570D01*
X29859695Y-30642856D02*
X29859695Y-30185713D01*
X29859695Y-30414285D02*
X29059695Y-30414285D01*
X29059695Y-30414285D02*
X29173980Y-30338094D01*
X29173980Y-30338094D02*
X29250171Y-30261904D01*
X29250171Y-30261904D02*
X29288266Y-30185713D01*
X30059695Y-51909523D02*
X30059695Y-52404761D01*
X30059695Y-52404761D02*
X30364457Y-52138095D01*
X30364457Y-52138095D02*
X30364457Y-52252380D01*
X30364457Y-52252380D02*
X30402552Y-52328571D01*
X30402552Y-52328571D02*
X30440647Y-52366666D01*
X30440647Y-52366666D02*
X30516838Y-52404761D01*
X30516838Y-52404761D02*
X30707314Y-52404761D01*
X30707314Y-52404761D02*
X30783504Y-52366666D01*
X30783504Y-52366666D02*
X30821600Y-52328571D01*
X30821600Y-52328571D02*
X30859695Y-52252380D01*
X30859695Y-52252380D02*
X30859695Y-52023809D01*
X30859695Y-52023809D02*
X30821600Y-51947618D01*
X30821600Y-51947618D02*
X30783504Y-51909523D01*
X30059695Y-52633333D02*
X30859695Y-52900000D01*
X30859695Y-52900000D02*
X30059695Y-53166666D01*
X30059695Y-53357142D02*
X30059695Y-53852380D01*
X30059695Y-53852380D02*
X30364457Y-53585714D01*
X30364457Y-53585714D02*
X30364457Y-53699999D01*
X30364457Y-53699999D02*
X30402552Y-53776190D01*
X30402552Y-53776190D02*
X30440647Y-53814285D01*
X30440647Y-53814285D02*
X30516838Y-53852380D01*
X30516838Y-53852380D02*
X30707314Y-53852380D01*
X30707314Y-53852380D02*
X30783504Y-53814285D01*
X30783504Y-53814285D02*
X30821600Y-53776190D01*
X30821600Y-53776190D02*
X30859695Y-53699999D01*
X30859695Y-53699999D02*
X30859695Y-53471428D01*
X30859695Y-53471428D02*
X30821600Y-53395237D01*
X30821600Y-53395237D02*
X30783504Y-53357142D01*
X32637790Y-52290476D02*
X32599695Y-52214286D01*
X32599695Y-52214286D02*
X32599695Y-52100000D01*
X32599695Y-52100000D02*
X32637790Y-51985714D01*
X32637790Y-51985714D02*
X32713980Y-51909524D01*
X32713980Y-51909524D02*
X32790171Y-51871429D01*
X32790171Y-51871429D02*
X32942552Y-51833333D01*
X32942552Y-51833333D02*
X33056838Y-51833333D01*
X33056838Y-51833333D02*
X33209219Y-51871429D01*
X33209219Y-51871429D02*
X33285409Y-51909524D01*
X33285409Y-51909524D02*
X33361600Y-51985714D01*
X33361600Y-51985714D02*
X33399695Y-52100000D01*
X33399695Y-52100000D02*
X33399695Y-52176191D01*
X33399695Y-52176191D02*
X33361600Y-52290476D01*
X33361600Y-52290476D02*
X33323504Y-52328572D01*
X33323504Y-52328572D02*
X33056838Y-52328572D01*
X33056838Y-52328572D02*
X33056838Y-52176191D01*
X33399695Y-52671429D02*
X32599695Y-52671429D01*
X32599695Y-52671429D02*
X33399695Y-53128572D01*
X33399695Y-53128572D02*
X32599695Y-53128572D01*
X33399695Y-53509524D02*
X32599695Y-53509524D01*
X32599695Y-53509524D02*
X32599695Y-53700000D01*
X32599695Y-53700000D02*
X32637790Y-53814286D01*
X32637790Y-53814286D02*
X32713980Y-53890476D01*
X32713980Y-53890476D02*
X32790171Y-53928571D01*
X32790171Y-53928571D02*
X32942552Y-53966667D01*
X32942552Y-53966667D02*
X33056838Y-53966667D01*
X33056838Y-53966667D02*
X33209219Y-53928571D01*
X33209219Y-53928571D02*
X33285409Y-53890476D01*
X33285409Y-53890476D02*
X33361600Y-53814286D01*
X33361600Y-53814286D02*
X33399695Y-53700000D01*
X33399695Y-53700000D02*
X33399695Y-53509524D01*
X35359695Y-28395238D02*
X34559695Y-28395238D01*
X35359695Y-28776190D02*
X34559695Y-28776190D01*
X34559695Y-28776190D02*
X35359695Y-29233333D01*
X35359695Y-29233333D02*
X34559695Y-29233333D01*
X34559695Y-29499999D02*
X34559695Y-29957142D01*
X35359695Y-29728570D02*
X34559695Y-29728570D01*
X34635885Y-30185713D02*
X34597790Y-30223809D01*
X34597790Y-30223809D02*
X34559695Y-30299999D01*
X34559695Y-30299999D02*
X34559695Y-30490475D01*
X34559695Y-30490475D02*
X34597790Y-30566666D01*
X34597790Y-30566666D02*
X34635885Y-30604761D01*
X34635885Y-30604761D02*
X34712076Y-30642856D01*
X34712076Y-30642856D02*
X34788266Y-30642856D01*
X34788266Y-30642856D02*
X34902552Y-30604761D01*
X34902552Y-30604761D02*
X35359695Y-30147618D01*
X35359695Y-30147618D02*
X35359695Y-30642856D01*
X35139695Y-51395238D02*
X35939695Y-51661905D01*
X35939695Y-51661905D02*
X35139695Y-51928571D01*
X35711123Y-52157142D02*
X35711123Y-52538095D01*
X35939695Y-52080952D02*
X35139695Y-52347619D01*
X35139695Y-52347619D02*
X35939695Y-52614285D01*
X35863504Y-53338095D02*
X35901600Y-53299999D01*
X35901600Y-53299999D02*
X35939695Y-53185714D01*
X35939695Y-53185714D02*
X35939695Y-53109523D01*
X35939695Y-53109523D02*
X35901600Y-52995237D01*
X35901600Y-52995237D02*
X35825409Y-52919047D01*
X35825409Y-52919047D02*
X35749219Y-52880952D01*
X35749219Y-52880952D02*
X35596838Y-52842856D01*
X35596838Y-52842856D02*
X35482552Y-52842856D01*
X35482552Y-52842856D02*
X35330171Y-52880952D01*
X35330171Y-52880952D02*
X35253980Y-52919047D01*
X35253980Y-52919047D02*
X35177790Y-52995237D01*
X35177790Y-52995237D02*
X35139695Y-53109523D01*
X35139695Y-53109523D02*
X35139695Y-53185714D01*
X35139695Y-53185714D02*
X35177790Y-53299999D01*
X35177790Y-53299999D02*
X35215885Y-53338095D01*
X35634933Y-53680952D02*
X35634933Y-54290476D01*
X35939695Y-53985714D02*
X35330171Y-53985714D01*
X37679695Y-51395238D02*
X38479695Y-51661905D01*
X38479695Y-51661905D02*
X37679695Y-51928571D01*
X38251123Y-52157142D02*
X38251123Y-52538095D01*
X38479695Y-52080952D02*
X37679695Y-52347619D01*
X37679695Y-52347619D02*
X38479695Y-52614285D01*
X38403504Y-53338095D02*
X38441600Y-53299999D01*
X38441600Y-53299999D02*
X38479695Y-53185714D01*
X38479695Y-53185714D02*
X38479695Y-53109523D01*
X38479695Y-53109523D02*
X38441600Y-52995237D01*
X38441600Y-52995237D02*
X38365409Y-52919047D01*
X38365409Y-52919047D02*
X38289219Y-52880952D01*
X38289219Y-52880952D02*
X38136838Y-52842856D01*
X38136838Y-52842856D02*
X38022552Y-52842856D01*
X38022552Y-52842856D02*
X37870171Y-52880952D01*
X37870171Y-52880952D02*
X37793980Y-52919047D01*
X37793980Y-52919047D02*
X37717790Y-52995237D01*
X37717790Y-52995237D02*
X37679695Y-53109523D01*
X37679695Y-53109523D02*
X37679695Y-53185714D01*
X37679695Y-53185714D02*
X37717790Y-53299999D01*
X37717790Y-53299999D02*
X37755885Y-53338095D01*
X38174933Y-53680952D02*
X38174933Y-54290476D01*
X40943504Y-51966667D02*
X40981600Y-51928571D01*
X40981600Y-51928571D02*
X41019695Y-51814286D01*
X41019695Y-51814286D02*
X41019695Y-51738095D01*
X41019695Y-51738095D02*
X40981600Y-51623809D01*
X40981600Y-51623809D02*
X40905409Y-51547619D01*
X40905409Y-51547619D02*
X40829219Y-51509524D01*
X40829219Y-51509524D02*
X40676838Y-51471428D01*
X40676838Y-51471428D02*
X40562552Y-51471428D01*
X40562552Y-51471428D02*
X40410171Y-51509524D01*
X40410171Y-51509524D02*
X40333980Y-51547619D01*
X40333980Y-51547619D02*
X40257790Y-51623809D01*
X40257790Y-51623809D02*
X40219695Y-51738095D01*
X40219695Y-51738095D02*
X40219695Y-51814286D01*
X40219695Y-51814286D02*
X40257790Y-51928571D01*
X40257790Y-51928571D02*
X40295885Y-51966667D01*
X40219695Y-52195238D02*
X40219695Y-52652381D01*
X41019695Y-52423809D02*
X40219695Y-52423809D01*
X41019695Y-53338095D02*
X41019695Y-52880952D01*
X41019695Y-53109524D02*
X40219695Y-53109524D01*
X40219695Y-53109524D02*
X40333980Y-53033333D01*
X40333980Y-53033333D02*
X40410171Y-52957143D01*
X40410171Y-52957143D02*
X40448266Y-52880952D01*
X40714933Y-53680953D02*
X40714933Y-54290477D01*
X41019695Y-53985715D02*
X40410171Y-53985715D01*
X43483504Y-51966667D02*
X43521600Y-51928571D01*
X43521600Y-51928571D02*
X43559695Y-51814286D01*
X43559695Y-51814286D02*
X43559695Y-51738095D01*
X43559695Y-51738095D02*
X43521600Y-51623809D01*
X43521600Y-51623809D02*
X43445409Y-51547619D01*
X43445409Y-51547619D02*
X43369219Y-51509524D01*
X43369219Y-51509524D02*
X43216838Y-51471428D01*
X43216838Y-51471428D02*
X43102552Y-51471428D01*
X43102552Y-51471428D02*
X42950171Y-51509524D01*
X42950171Y-51509524D02*
X42873980Y-51547619D01*
X42873980Y-51547619D02*
X42797790Y-51623809D01*
X42797790Y-51623809D02*
X42759695Y-51738095D01*
X42759695Y-51738095D02*
X42759695Y-51814286D01*
X42759695Y-51814286D02*
X42797790Y-51928571D01*
X42797790Y-51928571D02*
X42835885Y-51966667D01*
X42759695Y-52195238D02*
X42759695Y-52652381D01*
X43559695Y-52423809D02*
X42759695Y-52423809D01*
X43559695Y-53338095D02*
X43559695Y-52880952D01*
X43559695Y-53109524D02*
X42759695Y-53109524D01*
X42759695Y-53109524D02*
X42873980Y-53033333D01*
X42873980Y-53033333D02*
X42950171Y-52957143D01*
X42950171Y-52957143D02*
X42988266Y-52880952D01*
X43254933Y-53680953D02*
X43254933Y-54290477D01*
X46023504Y-51966667D02*
X46061600Y-51928571D01*
X46061600Y-51928571D02*
X46099695Y-51814286D01*
X46099695Y-51814286D02*
X46099695Y-51738095D01*
X46099695Y-51738095D02*
X46061600Y-51623809D01*
X46061600Y-51623809D02*
X45985409Y-51547619D01*
X45985409Y-51547619D02*
X45909219Y-51509524D01*
X45909219Y-51509524D02*
X45756838Y-51471428D01*
X45756838Y-51471428D02*
X45642552Y-51471428D01*
X45642552Y-51471428D02*
X45490171Y-51509524D01*
X45490171Y-51509524D02*
X45413980Y-51547619D01*
X45413980Y-51547619D02*
X45337790Y-51623809D01*
X45337790Y-51623809D02*
X45299695Y-51738095D01*
X45299695Y-51738095D02*
X45299695Y-51814286D01*
X45299695Y-51814286D02*
X45337790Y-51928571D01*
X45337790Y-51928571D02*
X45375885Y-51966667D01*
X45299695Y-52195238D02*
X45299695Y-52652381D01*
X46099695Y-52423809D02*
X45299695Y-52423809D01*
X45375885Y-52880952D02*
X45337790Y-52919048D01*
X45337790Y-52919048D02*
X45299695Y-52995238D01*
X45299695Y-52995238D02*
X45299695Y-53185714D01*
X45299695Y-53185714D02*
X45337790Y-53261905D01*
X45337790Y-53261905D02*
X45375885Y-53300000D01*
X45375885Y-53300000D02*
X45452076Y-53338095D01*
X45452076Y-53338095D02*
X45528266Y-53338095D01*
X45528266Y-53338095D02*
X45642552Y-53300000D01*
X45642552Y-53300000D02*
X46099695Y-52842857D01*
X46099695Y-52842857D02*
X46099695Y-53338095D01*
X45794933Y-53680953D02*
X45794933Y-54290477D01*
X46099695Y-53985715D02*
X45490171Y-53985715D01*
X48563504Y-51966667D02*
X48601600Y-51928571D01*
X48601600Y-51928571D02*
X48639695Y-51814286D01*
X48639695Y-51814286D02*
X48639695Y-51738095D01*
X48639695Y-51738095D02*
X48601600Y-51623809D01*
X48601600Y-51623809D02*
X48525409Y-51547619D01*
X48525409Y-51547619D02*
X48449219Y-51509524D01*
X48449219Y-51509524D02*
X48296838Y-51471428D01*
X48296838Y-51471428D02*
X48182552Y-51471428D01*
X48182552Y-51471428D02*
X48030171Y-51509524D01*
X48030171Y-51509524D02*
X47953980Y-51547619D01*
X47953980Y-51547619D02*
X47877790Y-51623809D01*
X47877790Y-51623809D02*
X47839695Y-51738095D01*
X47839695Y-51738095D02*
X47839695Y-51814286D01*
X47839695Y-51814286D02*
X47877790Y-51928571D01*
X47877790Y-51928571D02*
X47915885Y-51966667D01*
X47839695Y-52195238D02*
X47839695Y-52652381D01*
X48639695Y-52423809D02*
X47839695Y-52423809D01*
X47915885Y-52880952D02*
X47877790Y-52919048D01*
X47877790Y-52919048D02*
X47839695Y-52995238D01*
X47839695Y-52995238D02*
X47839695Y-53185714D01*
X47839695Y-53185714D02*
X47877790Y-53261905D01*
X47877790Y-53261905D02*
X47915885Y-53300000D01*
X47915885Y-53300000D02*
X47992076Y-53338095D01*
X47992076Y-53338095D02*
X48068266Y-53338095D01*
X48068266Y-53338095D02*
X48182552Y-53300000D01*
X48182552Y-53300000D02*
X48639695Y-52842857D01*
X48639695Y-52842857D02*
X48639695Y-53338095D01*
X48334933Y-53680953D02*
X48334933Y-54290477D01*
X51141600Y-51890475D02*
X51179695Y-52004761D01*
X51179695Y-52004761D02*
X51179695Y-52195237D01*
X51179695Y-52195237D02*
X51141600Y-52271428D01*
X51141600Y-52271428D02*
X51103504Y-52309523D01*
X51103504Y-52309523D02*
X51027314Y-52347618D01*
X51027314Y-52347618D02*
X50951123Y-52347618D01*
X50951123Y-52347618D02*
X50874933Y-52309523D01*
X50874933Y-52309523D02*
X50836838Y-52271428D01*
X50836838Y-52271428D02*
X50798742Y-52195237D01*
X50798742Y-52195237D02*
X50760647Y-52042856D01*
X50760647Y-52042856D02*
X50722552Y-51966666D01*
X50722552Y-51966666D02*
X50684457Y-51928571D01*
X50684457Y-51928571D02*
X50608266Y-51890475D01*
X50608266Y-51890475D02*
X50532076Y-51890475D01*
X50532076Y-51890475D02*
X50455885Y-51928571D01*
X50455885Y-51928571D02*
X50417790Y-51966666D01*
X50417790Y-51966666D02*
X50379695Y-52042856D01*
X50379695Y-52042856D02*
X50379695Y-52233333D01*
X50379695Y-52233333D02*
X50417790Y-52347618D01*
X51103504Y-53147619D02*
X51141600Y-53109523D01*
X51141600Y-53109523D02*
X51179695Y-52995238D01*
X51179695Y-52995238D02*
X51179695Y-52919047D01*
X51179695Y-52919047D02*
X51141600Y-52804761D01*
X51141600Y-52804761D02*
X51065409Y-52728571D01*
X51065409Y-52728571D02*
X50989219Y-52690476D01*
X50989219Y-52690476D02*
X50836838Y-52652380D01*
X50836838Y-52652380D02*
X50722552Y-52652380D01*
X50722552Y-52652380D02*
X50570171Y-52690476D01*
X50570171Y-52690476D02*
X50493980Y-52728571D01*
X50493980Y-52728571D02*
X50417790Y-52804761D01*
X50417790Y-52804761D02*
X50379695Y-52919047D01*
X50379695Y-52919047D02*
X50379695Y-52995238D01*
X50379695Y-52995238D02*
X50417790Y-53109523D01*
X50417790Y-53109523D02*
X50455885Y-53147619D01*
X51141600Y-53452380D02*
X51179695Y-53566666D01*
X51179695Y-53566666D02*
X51179695Y-53757142D01*
X51179695Y-53757142D02*
X51141600Y-53833333D01*
X51141600Y-53833333D02*
X51103504Y-53871428D01*
X51103504Y-53871428D02*
X51027314Y-53909523D01*
X51027314Y-53909523D02*
X50951123Y-53909523D01*
X50951123Y-53909523D02*
X50874933Y-53871428D01*
X50874933Y-53871428D02*
X50836838Y-53833333D01*
X50836838Y-53833333D02*
X50798742Y-53757142D01*
X50798742Y-53757142D02*
X50760647Y-53604761D01*
X50760647Y-53604761D02*
X50722552Y-53528571D01*
X50722552Y-53528571D02*
X50684457Y-53490476D01*
X50684457Y-53490476D02*
X50608266Y-53452380D01*
X50608266Y-53452380D02*
X50532076Y-53452380D01*
X50532076Y-53452380D02*
X50455885Y-53490476D01*
X50455885Y-53490476D02*
X50417790Y-53528571D01*
X50417790Y-53528571D02*
X50379695Y-53604761D01*
X50379695Y-53604761D02*
X50379695Y-53795238D01*
X50379695Y-53795238D02*
X50417790Y-53909523D01*
X53681600Y-51947618D02*
X53719695Y-52061904D01*
X53719695Y-52061904D02*
X53719695Y-52252380D01*
X53719695Y-52252380D02*
X53681600Y-52328571D01*
X53681600Y-52328571D02*
X53643504Y-52366666D01*
X53643504Y-52366666D02*
X53567314Y-52404761D01*
X53567314Y-52404761D02*
X53491123Y-52404761D01*
X53491123Y-52404761D02*
X53414933Y-52366666D01*
X53414933Y-52366666D02*
X53376838Y-52328571D01*
X53376838Y-52328571D02*
X53338742Y-52252380D01*
X53338742Y-52252380D02*
X53300647Y-52099999D01*
X53300647Y-52099999D02*
X53262552Y-52023809D01*
X53262552Y-52023809D02*
X53224457Y-51985714D01*
X53224457Y-51985714D02*
X53148266Y-51947618D01*
X53148266Y-51947618D02*
X53072076Y-51947618D01*
X53072076Y-51947618D02*
X52995885Y-51985714D01*
X52995885Y-51985714D02*
X52957790Y-52023809D01*
X52957790Y-52023809D02*
X52919695Y-52099999D01*
X52919695Y-52099999D02*
X52919695Y-52290476D01*
X52919695Y-52290476D02*
X52957790Y-52404761D01*
X53643504Y-53204762D02*
X53681600Y-53166666D01*
X53681600Y-53166666D02*
X53719695Y-53052381D01*
X53719695Y-53052381D02*
X53719695Y-52976190D01*
X53719695Y-52976190D02*
X53681600Y-52861904D01*
X53681600Y-52861904D02*
X53605409Y-52785714D01*
X53605409Y-52785714D02*
X53529219Y-52747619D01*
X53529219Y-52747619D02*
X53376838Y-52709523D01*
X53376838Y-52709523D02*
X53262552Y-52709523D01*
X53262552Y-52709523D02*
X53110171Y-52747619D01*
X53110171Y-52747619D02*
X53033980Y-52785714D01*
X53033980Y-52785714D02*
X52957790Y-52861904D01*
X52957790Y-52861904D02*
X52919695Y-52976190D01*
X52919695Y-52976190D02*
X52919695Y-53052381D01*
X52919695Y-53052381D02*
X52957790Y-53166666D01*
X52957790Y-53166666D02*
X52995885Y-53204762D01*
X53719695Y-53928571D02*
X53719695Y-53547619D01*
X53719695Y-53547619D02*
X52919695Y-53547619D01*
X54359695Y-28604761D02*
X54359695Y-28223809D01*
X54359695Y-28223809D02*
X53559695Y-28223809D01*
X53940647Y-28871428D02*
X53940647Y-29138094D01*
X54359695Y-29252380D02*
X54359695Y-28871428D01*
X54359695Y-28871428D02*
X53559695Y-28871428D01*
X53559695Y-28871428D02*
X53559695Y-29252380D01*
X54359695Y-29595238D02*
X53559695Y-29595238D01*
X53559695Y-29595238D02*
X53559695Y-29785714D01*
X53559695Y-29785714D02*
X53597790Y-29900000D01*
X53597790Y-29900000D02*
X53673980Y-29976190D01*
X53673980Y-29976190D02*
X53750171Y-30014285D01*
X53750171Y-30014285D02*
X53902552Y-30052381D01*
X53902552Y-30052381D02*
X54016838Y-30052381D01*
X54016838Y-30052381D02*
X54169219Y-30014285D01*
X54169219Y-30014285D02*
X54245409Y-29976190D01*
X54245409Y-29976190D02*
X54321600Y-29900000D01*
X54321600Y-29900000D02*
X54359695Y-29785714D01*
X54359695Y-29785714D02*
X54359695Y-29595238D01*
X54359695Y-30814285D02*
X54359695Y-30357142D01*
X54359695Y-30585714D02*
X53559695Y-30585714D01*
X53559695Y-30585714D02*
X53673980Y-30509523D01*
X53673980Y-30509523D02*
X53750171Y-30433333D01*
X53750171Y-30433333D02*
X53788266Y-30357142D01*
X56259695Y-51642857D02*
X55459695Y-51642857D01*
X55459695Y-51642857D02*
X56031123Y-51909523D01*
X56031123Y-51909523D02*
X55459695Y-52176190D01*
X55459695Y-52176190D02*
X56259695Y-52176190D01*
X55459695Y-52709524D02*
X55459695Y-52861905D01*
X55459695Y-52861905D02*
X55497790Y-52938095D01*
X55497790Y-52938095D02*
X55573980Y-53014286D01*
X55573980Y-53014286D02*
X55726361Y-53052381D01*
X55726361Y-53052381D02*
X55993028Y-53052381D01*
X55993028Y-53052381D02*
X56145409Y-53014286D01*
X56145409Y-53014286D02*
X56221600Y-52938095D01*
X56221600Y-52938095D02*
X56259695Y-52861905D01*
X56259695Y-52861905D02*
X56259695Y-52709524D01*
X56259695Y-52709524D02*
X56221600Y-52633333D01*
X56221600Y-52633333D02*
X56145409Y-52557143D01*
X56145409Y-52557143D02*
X55993028Y-52519047D01*
X55993028Y-52519047D02*
X55726361Y-52519047D01*
X55726361Y-52519047D02*
X55573980Y-52557143D01*
X55573980Y-52557143D02*
X55497790Y-52633333D01*
X55497790Y-52633333D02*
X55459695Y-52709524D01*
X56221600Y-53357142D02*
X56259695Y-53471428D01*
X56259695Y-53471428D02*
X56259695Y-53661904D01*
X56259695Y-53661904D02*
X56221600Y-53738095D01*
X56221600Y-53738095D02*
X56183504Y-53776190D01*
X56183504Y-53776190D02*
X56107314Y-53814285D01*
X56107314Y-53814285D02*
X56031123Y-53814285D01*
X56031123Y-53814285D02*
X55954933Y-53776190D01*
X55954933Y-53776190D02*
X55916838Y-53738095D01*
X55916838Y-53738095D02*
X55878742Y-53661904D01*
X55878742Y-53661904D02*
X55840647Y-53509523D01*
X55840647Y-53509523D02*
X55802552Y-53433333D01*
X55802552Y-53433333D02*
X55764457Y-53395238D01*
X55764457Y-53395238D02*
X55688266Y-53357142D01*
X55688266Y-53357142D02*
X55612076Y-53357142D01*
X55612076Y-53357142D02*
X55535885Y-53395238D01*
X55535885Y-53395238D02*
X55497790Y-53433333D01*
X55497790Y-53433333D02*
X55459695Y-53509523D01*
X55459695Y-53509523D02*
X55459695Y-53700000D01*
X55459695Y-53700000D02*
X55497790Y-53814285D01*
X56259695Y-54157143D02*
X55459695Y-54157143D01*
X58799695Y-51642857D02*
X57999695Y-51642857D01*
X57999695Y-51642857D02*
X58571123Y-51909523D01*
X58571123Y-51909523D02*
X57999695Y-52176190D01*
X57999695Y-52176190D02*
X58799695Y-52176190D01*
X58799695Y-52557143D02*
X57999695Y-52557143D01*
X58761600Y-52899999D02*
X58799695Y-53014285D01*
X58799695Y-53014285D02*
X58799695Y-53204761D01*
X58799695Y-53204761D02*
X58761600Y-53280952D01*
X58761600Y-53280952D02*
X58723504Y-53319047D01*
X58723504Y-53319047D02*
X58647314Y-53357142D01*
X58647314Y-53357142D02*
X58571123Y-53357142D01*
X58571123Y-53357142D02*
X58494933Y-53319047D01*
X58494933Y-53319047D02*
X58456838Y-53280952D01*
X58456838Y-53280952D02*
X58418742Y-53204761D01*
X58418742Y-53204761D02*
X58380647Y-53052380D01*
X58380647Y-53052380D02*
X58342552Y-52976190D01*
X58342552Y-52976190D02*
X58304457Y-52938095D01*
X58304457Y-52938095D02*
X58228266Y-52899999D01*
X58228266Y-52899999D02*
X58152076Y-52899999D01*
X58152076Y-52899999D02*
X58075885Y-52938095D01*
X58075885Y-52938095D02*
X58037790Y-52976190D01*
X58037790Y-52976190D02*
X57999695Y-53052380D01*
X57999695Y-53052380D02*
X57999695Y-53242857D01*
X57999695Y-53242857D02*
X58037790Y-53357142D01*
X57999695Y-53852381D02*
X57999695Y-54004762D01*
X57999695Y-54004762D02*
X58037790Y-54080952D01*
X58037790Y-54080952D02*
X58113980Y-54157143D01*
X58113980Y-54157143D02*
X58266361Y-54195238D01*
X58266361Y-54195238D02*
X58533028Y-54195238D01*
X58533028Y-54195238D02*
X58685409Y-54157143D01*
X58685409Y-54157143D02*
X58761600Y-54080952D01*
X58761600Y-54080952D02*
X58799695Y-54004762D01*
X58799695Y-54004762D02*
X58799695Y-53852381D01*
X58799695Y-53852381D02*
X58761600Y-53776190D01*
X58761600Y-53776190D02*
X58685409Y-53700000D01*
X58685409Y-53700000D02*
X58533028Y-53661904D01*
X58533028Y-53661904D02*
X58266361Y-53661904D01*
X58266361Y-53661904D02*
X58113980Y-53700000D01*
X58113980Y-53700000D02*
X58037790Y-53776190D01*
X58037790Y-53776190D02*
X57999695Y-53852381D01*
X59859695Y-28604761D02*
X59859695Y-28223809D01*
X59859695Y-28223809D02*
X59059695Y-28223809D01*
X59440647Y-28871428D02*
X59440647Y-29138094D01*
X59859695Y-29252380D02*
X59859695Y-28871428D01*
X59859695Y-28871428D02*
X59059695Y-28871428D01*
X59059695Y-28871428D02*
X59059695Y-29252380D01*
X59859695Y-29595238D02*
X59059695Y-29595238D01*
X59059695Y-29595238D02*
X59059695Y-29785714D01*
X59059695Y-29785714D02*
X59097790Y-29900000D01*
X59097790Y-29900000D02*
X59173980Y-29976190D01*
X59173980Y-29976190D02*
X59250171Y-30014285D01*
X59250171Y-30014285D02*
X59402552Y-30052381D01*
X59402552Y-30052381D02*
X59516838Y-30052381D01*
X59516838Y-30052381D02*
X59669219Y-30014285D01*
X59669219Y-30014285D02*
X59745409Y-29976190D01*
X59745409Y-29976190D02*
X59821600Y-29900000D01*
X59821600Y-29900000D02*
X59859695Y-29785714D01*
X59859695Y-29785714D02*
X59859695Y-29595238D01*
X59135885Y-30357142D02*
X59097790Y-30395238D01*
X59097790Y-30395238D02*
X59059695Y-30471428D01*
X59059695Y-30471428D02*
X59059695Y-30661904D01*
X59059695Y-30661904D02*
X59097790Y-30738095D01*
X59097790Y-30738095D02*
X59135885Y-30776190D01*
X59135885Y-30776190D02*
X59212076Y-30814285D01*
X59212076Y-30814285D02*
X59288266Y-30814285D01*
X59288266Y-30814285D02*
X59402552Y-30776190D01*
X59402552Y-30776190D02*
X59859695Y-30319047D01*
X59859695Y-30319047D02*
X59859695Y-30814285D01*
X61301600Y-51909523D02*
X61339695Y-52023809D01*
X61339695Y-52023809D02*
X61339695Y-52214285D01*
X61339695Y-52214285D02*
X61301600Y-52290476D01*
X61301600Y-52290476D02*
X61263504Y-52328571D01*
X61263504Y-52328571D02*
X61187314Y-52366666D01*
X61187314Y-52366666D02*
X61111123Y-52366666D01*
X61111123Y-52366666D02*
X61034933Y-52328571D01*
X61034933Y-52328571D02*
X60996838Y-52290476D01*
X60996838Y-52290476D02*
X60958742Y-52214285D01*
X60958742Y-52214285D02*
X60920647Y-52061904D01*
X60920647Y-52061904D02*
X60882552Y-51985714D01*
X60882552Y-51985714D02*
X60844457Y-51947619D01*
X60844457Y-51947619D02*
X60768266Y-51909523D01*
X60768266Y-51909523D02*
X60692076Y-51909523D01*
X60692076Y-51909523D02*
X60615885Y-51947619D01*
X60615885Y-51947619D02*
X60577790Y-51985714D01*
X60577790Y-51985714D02*
X60539695Y-52061904D01*
X60539695Y-52061904D02*
X60539695Y-52252381D01*
X60539695Y-52252381D02*
X60577790Y-52366666D01*
X60958742Y-52861905D02*
X61339695Y-52861905D01*
X60539695Y-52595238D02*
X60958742Y-52861905D01*
X60958742Y-52861905D02*
X60539695Y-53128571D01*
X61339695Y-53395238D02*
X60539695Y-53395238D01*
X60539695Y-53395238D02*
X61339695Y-53852381D01*
X61339695Y-53852381D02*
X60539695Y-53852381D01*
X61783504Y-27423810D02*
X61821600Y-27385714D01*
X61821600Y-27385714D02*
X61859695Y-27271429D01*
X61859695Y-27271429D02*
X61859695Y-27195238D01*
X61859695Y-27195238D02*
X61821600Y-27080952D01*
X61821600Y-27080952D02*
X61745409Y-27004762D01*
X61745409Y-27004762D02*
X61669219Y-26966667D01*
X61669219Y-26966667D02*
X61516838Y-26928571D01*
X61516838Y-26928571D02*
X61402552Y-26928571D01*
X61402552Y-26928571D02*
X61250171Y-26966667D01*
X61250171Y-26966667D02*
X61173980Y-27004762D01*
X61173980Y-27004762D02*
X61097790Y-27080952D01*
X61097790Y-27080952D02*
X61059695Y-27195238D01*
X61059695Y-27195238D02*
X61059695Y-27271429D01*
X61059695Y-27271429D02*
X61097790Y-27385714D01*
X61097790Y-27385714D02*
X61135885Y-27423810D01*
X61859695Y-28147619D02*
X61859695Y-27766667D01*
X61859695Y-27766667D02*
X61059695Y-27766667D01*
X61859695Y-28414286D02*
X61059695Y-28414286D01*
X61859695Y-28871429D02*
X61402552Y-28528571D01*
X61059695Y-28871429D02*
X61516838Y-28414286D01*
X61021600Y-29785714D02*
X62050171Y-29100000D01*
X61059695Y-29976190D02*
X61059695Y-30509524D01*
X61059695Y-30509524D02*
X61859695Y-29976190D01*
X61859695Y-29976190D02*
X61859695Y-30509524D01*
X61783504Y-31271429D02*
X61821600Y-31233333D01*
X61821600Y-31233333D02*
X61859695Y-31119048D01*
X61859695Y-31119048D02*
X61859695Y-31042857D01*
X61859695Y-31042857D02*
X61821600Y-30928571D01*
X61821600Y-30928571D02*
X61745409Y-30852381D01*
X61745409Y-30852381D02*
X61669219Y-30814286D01*
X61669219Y-30814286D02*
X61516838Y-30776190D01*
X61516838Y-30776190D02*
X61402552Y-30776190D01*
X61402552Y-30776190D02*
X61250171Y-30814286D01*
X61250171Y-30814286D02*
X61173980Y-30852381D01*
X61173980Y-30852381D02*
X61097790Y-30928571D01*
X61097790Y-30928571D02*
X61059695Y-31042857D01*
X61059695Y-31042857D02*
X61059695Y-31119048D01*
X61059695Y-31119048D02*
X61097790Y-31233333D01*
X61097790Y-31233333D02*
X61135885Y-31271429D01*
X61859695Y-32071429D02*
X61478742Y-31804762D01*
X61859695Y-31614286D02*
X61059695Y-31614286D01*
X61059695Y-31614286D02*
X61059695Y-31919048D01*
X61059695Y-31919048D02*
X61097790Y-31995238D01*
X61097790Y-31995238D02*
X61135885Y-32033333D01*
X61135885Y-32033333D02*
X61212076Y-32071429D01*
X61212076Y-32071429D02*
X61326361Y-32071429D01*
X61326361Y-32071429D02*
X61402552Y-32033333D01*
X61402552Y-32033333D02*
X61440647Y-31995238D01*
X61440647Y-31995238D02*
X61478742Y-31919048D01*
X61478742Y-31919048D02*
X61478742Y-31614286D01*
X63460647Y-52309524D02*
X63460647Y-52576190D01*
X63879695Y-52690476D02*
X63879695Y-52309524D01*
X63879695Y-52309524D02*
X63079695Y-52309524D01*
X63079695Y-52309524D02*
X63079695Y-52690476D01*
X63879695Y-53033334D02*
X63079695Y-53033334D01*
X63079695Y-53033334D02*
X63879695Y-53490477D01*
X63879695Y-53490477D02*
X63079695Y-53490477D01*
X68521600Y-27680952D02*
X68559695Y-27795238D01*
X68559695Y-27795238D02*
X68559695Y-27985714D01*
X68559695Y-27985714D02*
X68521600Y-28061905D01*
X68521600Y-28061905D02*
X68483504Y-28100000D01*
X68483504Y-28100000D02*
X68407314Y-28138095D01*
X68407314Y-28138095D02*
X68331123Y-28138095D01*
X68331123Y-28138095D02*
X68254933Y-28100000D01*
X68254933Y-28100000D02*
X68216838Y-28061905D01*
X68216838Y-28061905D02*
X68178742Y-27985714D01*
X68178742Y-27985714D02*
X68140647Y-27833333D01*
X68140647Y-27833333D02*
X68102552Y-27757143D01*
X68102552Y-27757143D02*
X68064457Y-27719048D01*
X68064457Y-27719048D02*
X67988266Y-27680952D01*
X67988266Y-27680952D02*
X67912076Y-27680952D01*
X67912076Y-27680952D02*
X67835885Y-27719048D01*
X67835885Y-27719048D02*
X67797790Y-27757143D01*
X67797790Y-27757143D02*
X67759695Y-27833333D01*
X67759695Y-27833333D02*
X67759695Y-28023810D01*
X67759695Y-28023810D02*
X67797790Y-28138095D01*
X68559695Y-28480953D02*
X67759695Y-28480953D01*
X67759695Y-28480953D02*
X67759695Y-28785715D01*
X67759695Y-28785715D02*
X67797790Y-28861905D01*
X67797790Y-28861905D02*
X67835885Y-28900000D01*
X67835885Y-28900000D02*
X67912076Y-28938096D01*
X67912076Y-28938096D02*
X68026361Y-28938096D01*
X68026361Y-28938096D02*
X68102552Y-28900000D01*
X68102552Y-28900000D02*
X68140647Y-28861905D01*
X68140647Y-28861905D02*
X68178742Y-28785715D01*
X68178742Y-28785715D02*
X68178742Y-28480953D01*
X68559695Y-29280953D02*
X67759695Y-29280953D01*
%TO.C,TP4*%
D11*
X60450000Y-23500000D02*
G75*
G02*
X58550000Y-23500000I-950000J0D01*
G01*
X58550000Y-23500000D02*
G75*
G02*
X60450000Y-23500000I950000J0D01*
G01*
%TO.C,TP3*%
X54950000Y-23500000D02*
G75*
G02*
X53050000Y-23500000I-950000J0D01*
G01*
X53050000Y-23500000D02*
G75*
G02*
X54950000Y-23500000I950000J0D01*
G01*
%TO.C,TP5*%
X64950000Y-23500000D02*
G75*
G02*
X63050000Y-23500000I-950000J0D01*
G01*
X63050000Y-23500000D02*
G75*
G02*
X64950000Y-23500000I950000J0D01*
G01*
%TO.C,TP1*%
X30450000Y-23500000D02*
G75*
G02*
X28550000Y-23500000I-950000J0D01*
G01*
X28550000Y-23500000D02*
G75*
G02*
X30450000Y-23500000I950000J0D01*
G01*
%TO.C,TP2*%
X35950000Y-23500000D02*
G75*
G02*
X34050000Y-23500000I-950000J0D01*
G01*
X34050000Y-23500000D02*
G75*
G02*
X35950000Y-23500000I950000J0D01*
G01*
D12*
%TO.C,LOGO_OSHW*%
X64408440Y-52175251D02*
X64398031Y-52179800D01*
X64373186Y-52199477D01*
X64351941Y-52227928D01*
X64338802Y-52258291D01*
X64336663Y-52273259D01*
X64343833Y-52294156D01*
X64359560Y-52305214D01*
X64376422Y-52311910D01*
X64384143Y-52313143D01*
X64387903Y-52304189D01*
X64395326Y-52284705D01*
X64398583Y-52275901D01*
X64416846Y-52245446D01*
X64443288Y-52230256D01*
X64477194Y-52230724D01*
X64479705Y-52231322D01*
X64497807Y-52239904D01*
X64511114Y-52256636D01*
X64520204Y-52283572D01*
X64525650Y-52322769D01*
X64528028Y-52376282D01*
X64528252Y-52404757D01*
X64528362Y-52449643D01*
X64529087Y-52480241D01*
X64531015Y-52499683D01*
X64534735Y-52511097D01*
X64540836Y-52517614D01*
X64549909Y-52522363D01*
X64550432Y-52522602D01*
X64567903Y-52529989D01*
X64576558Y-52532708D01*
X64577888Y-52524485D01*
X64579027Y-52501755D01*
X64579892Y-52467429D01*
X64580401Y-52424416D01*
X64580503Y-52392939D01*
X64579985Y-52332028D01*
X64577958Y-52285819D01*
X64573715Y-52251614D01*
X64566547Y-52226716D01*
X64555746Y-52208426D01*
X64540604Y-52194048D01*
X64525652Y-52184013D01*
X64489697Y-52170658D01*
X64447853Y-52167646D01*
X64408440Y-52175251D01*
G36*
X64489697Y-52170658D02*
G01*
X64525652Y-52184013D01*
X64540604Y-52194048D01*
X64555746Y-52208426D01*
X64566547Y-52226716D01*
X64573715Y-52251614D01*
X64577958Y-52285819D01*
X64579985Y-52332028D01*
X64580503Y-52392939D01*
X64580401Y-52424416D01*
X64579892Y-52467429D01*
X64579027Y-52501755D01*
X64577888Y-52524485D01*
X64576558Y-52532708D01*
X64567903Y-52529989D01*
X64550432Y-52522602D01*
X64549909Y-52522363D01*
X64540836Y-52517614D01*
X64534735Y-52511097D01*
X64531015Y-52499683D01*
X64529087Y-52480241D01*
X64528362Y-52449643D01*
X64528252Y-52404757D01*
X64528028Y-52376282D01*
X64525650Y-52322769D01*
X64520204Y-52283572D01*
X64511114Y-52256636D01*
X64497807Y-52239904D01*
X64479705Y-52231322D01*
X64477194Y-52230724D01*
X64443288Y-52230256D01*
X64416846Y-52245446D01*
X64398583Y-52275901D01*
X64395326Y-52284705D01*
X64387903Y-52304189D01*
X64384143Y-52313143D01*
X64376422Y-52311910D01*
X64359560Y-52305214D01*
X64343833Y-52294156D01*
X64336663Y-52273259D01*
X64338802Y-52258291D01*
X64351941Y-52227928D01*
X64373186Y-52199477D01*
X64398031Y-52179800D01*
X64408440Y-52175251D01*
X64447853Y-52167646D01*
X64489697Y-52170658D01*
G37*
X66770344Y-52156668D02*
X66742397Y-52172834D01*
X66722966Y-52188880D01*
X66708755Y-52205690D01*
X66698965Y-52226249D01*
X66692797Y-52253536D01*
X66689452Y-52290535D01*
X66688130Y-52340227D01*
X66687977Y-52375948D01*
X66687977Y-52507435D01*
X66724988Y-52524026D01*
X66762000Y-52540618D01*
X66766354Y-52396602D01*
X66768154Y-52342817D01*
X66770041Y-52303777D01*
X66772379Y-52276816D01*
X66775532Y-52259262D01*
X66779861Y-52248449D01*
X66785730Y-52241707D01*
X66787613Y-52240247D01*
X66816143Y-52228850D01*
X66844982Y-52233360D01*
X66862148Y-52245326D01*
X66869132Y-52253805D01*
X66873965Y-52264932D01*
X66877037Y-52281800D01*
X66878735Y-52307504D01*
X66879446Y-52345137D01*
X66879566Y-52384357D01*
X66879589Y-52433561D01*
X66880432Y-52468390D01*
X66883252Y-52491879D01*
X66889208Y-52507068D01*
X66899458Y-52516994D01*
X66915161Y-52524694D01*
X66936135Y-52532695D01*
X66959042Y-52541404D01*
X66956315Y-52386833D01*
X66955217Y-52331111D01*
X66953933Y-52289933D01*
X66952091Y-52260427D01*
X66949324Y-52239719D01*
X66945259Y-52224937D01*
X66939529Y-52213210D01*
X66932620Y-52202862D01*
X66899286Y-52169808D01*
X66858612Y-52150693D01*
X66814372Y-52146115D01*
X66770344Y-52156668D01*
G36*
X66858612Y-52150693D02*
G01*
X66899286Y-52169808D01*
X66932620Y-52202862D01*
X66939529Y-52213210D01*
X66945259Y-52224937D01*
X66949324Y-52239719D01*
X66952091Y-52260427D01*
X66953933Y-52289933D01*
X66955217Y-52331111D01*
X66956315Y-52386833D01*
X66959042Y-52541404D01*
X66936135Y-52532695D01*
X66915161Y-52524694D01*
X66899458Y-52516994D01*
X66889208Y-52507068D01*
X66883252Y-52491879D01*
X66880432Y-52468390D01*
X66879589Y-52433561D01*
X66879566Y-52384357D01*
X66879446Y-52345137D01*
X66878735Y-52307504D01*
X66877037Y-52281800D01*
X66873965Y-52264932D01*
X66869132Y-52253805D01*
X66862148Y-52245326D01*
X66844982Y-52233360D01*
X66816143Y-52228850D01*
X66787613Y-52240247D01*
X66785730Y-52241707D01*
X66779861Y-52248449D01*
X66775532Y-52259262D01*
X66772379Y-52276816D01*
X66770041Y-52303777D01*
X66768154Y-52342817D01*
X66766354Y-52396602D01*
X66762000Y-52540618D01*
X66724988Y-52524026D01*
X66687977Y-52507435D01*
X66687977Y-52375948D01*
X66688130Y-52340227D01*
X66689452Y-52290535D01*
X66692797Y-52253536D01*
X66698965Y-52226249D01*
X66708755Y-52205690D01*
X66722966Y-52188880D01*
X66742397Y-52172834D01*
X66770344Y-52156668D01*
X66814372Y-52146115D01*
X66858612Y-52150693D01*
G37*
X65682044Y-52169853D02*
X65642485Y-52184450D01*
X65610436Y-52210270D01*
X65597902Y-52228445D01*
X65584237Y-52261796D01*
X65584520Y-52285912D01*
X65598863Y-52302130D01*
X65604170Y-52304888D01*
X65627082Y-52313486D01*
X65638783Y-52311283D01*
X65642747Y-52296844D01*
X65642948Y-52288868D01*
X65650205Y-52259526D01*
X65669117Y-52238999D01*
X65695405Y-52229086D01*
X65724783Y-52231580D01*
X65748664Y-52244536D01*
X65756730Y-52251926D01*
X65762447Y-52260892D01*
X65766309Y-52274445D01*
X65768810Y-52295597D01*
X65770442Y-52327360D01*
X65771699Y-52372744D01*
X65772024Y-52387114D01*
X65773211Y-52436274D01*
X65774561Y-52470873D01*
X65776586Y-52493765D01*
X65779796Y-52507802D01*
X65784706Y-52515839D01*
X65791825Y-52520727D01*
X65796383Y-52522886D01*
X65815739Y-52530271D01*
X65827133Y-52532708D01*
X65830898Y-52524569D01*
X65833196Y-52499960D01*
X65834040Y-52458599D01*
X65833441Y-52400201D01*
X65833255Y-52391194D01*
X65831939Y-52337915D01*
X65830384Y-52299011D01*
X65828171Y-52271440D01*
X65824882Y-52252161D01*
X65820099Y-52238132D01*
X65813404Y-52226311D01*
X65809902Y-52221246D01*
X65789822Y-52198834D01*
X65767364Y-52181402D01*
X65764615Y-52179880D01*
X65724344Y-52167866D01*
X65682044Y-52169853D01*
G36*
X65764615Y-52179880D02*
G01*
X65767364Y-52181402D01*
X65789822Y-52198834D01*
X65809902Y-52221246D01*
X65813404Y-52226311D01*
X65820099Y-52238132D01*
X65824882Y-52252161D01*
X65828171Y-52271440D01*
X65830384Y-52299011D01*
X65831939Y-52337915D01*
X65833255Y-52391194D01*
X65833441Y-52400201D01*
X65834040Y-52458599D01*
X65833196Y-52499960D01*
X65830898Y-52524569D01*
X65827133Y-52532708D01*
X65815739Y-52530271D01*
X65796383Y-52522886D01*
X65791825Y-52520727D01*
X65784706Y-52515839D01*
X65779796Y-52507802D01*
X65776586Y-52493765D01*
X65774561Y-52470873D01*
X65773211Y-52436274D01*
X65772024Y-52387114D01*
X65771699Y-52372744D01*
X65770442Y-52327360D01*
X65768810Y-52295597D01*
X65766309Y-52274445D01*
X65762447Y-52260892D01*
X65756730Y-52251926D01*
X65748664Y-52244536D01*
X65724783Y-52231580D01*
X65695405Y-52229086D01*
X65669117Y-52238999D01*
X65650205Y-52259526D01*
X65642948Y-52288868D01*
X65642747Y-52296844D01*
X65638783Y-52311283D01*
X65627082Y-52313486D01*
X65604170Y-52304888D01*
X65598863Y-52302130D01*
X65584520Y-52285912D01*
X65584237Y-52261796D01*
X65597902Y-52228445D01*
X65610436Y-52210270D01*
X65642485Y-52184450D01*
X65682044Y-52169853D01*
X65724344Y-52167866D01*
X65764615Y-52179880D01*
G37*
X64932100Y-52175198D02*
X64930771Y-52198110D01*
X64929730Y-52232932D01*
X64929061Y-52276908D01*
X64928846Y-52323033D01*
X64928846Y-52479118D01*
X64956404Y-52506676D01*
X64975395Y-52523657D01*
X64992066Y-52530536D01*
X65014851Y-52530101D01*
X65023896Y-52528993D01*
X65052164Y-52525769D01*
X65075546Y-52523921D01*
X65081246Y-52523751D01*
X65100460Y-52524867D01*
X65127941Y-52527668D01*
X65138596Y-52528993D01*
X65164766Y-52531041D01*
X65182353Y-52526592D01*
X65199792Y-52512856D01*
X65206087Y-52506676D01*
X65233646Y-52479118D01*
X65233646Y-52187161D01*
X65211464Y-52177055D01*
X65192365Y-52169569D01*
X65181190Y-52166948D01*
X65178325Y-52175231D01*
X65175647Y-52198372D01*
X65173335Y-52233814D01*
X65171567Y-52278998D01*
X65170714Y-52317172D01*
X65168332Y-52467394D01*
X65147545Y-52470334D01*
X65128639Y-52468279D01*
X65119375Y-52461625D01*
X65116786Y-52449185D01*
X65114575Y-52422687D01*
X65112919Y-52385488D01*
X65111993Y-52340945D01*
X65111859Y-52318024D01*
X65111726Y-52186070D01*
X65084300Y-52176509D01*
X65064889Y-52170009D01*
X65054331Y-52166977D01*
X65054026Y-52166948D01*
X65052967Y-52175189D01*
X65051803Y-52198038D01*
X65050631Y-52232689D01*
X65049550Y-52276336D01*
X65048794Y-52317172D01*
X65046412Y-52467394D01*
X64994160Y-52467394D01*
X64991762Y-52330344D01*
X64989365Y-52193293D01*
X64963892Y-52180121D01*
X64945085Y-52171076D01*
X64933954Y-52166971D01*
X64933633Y-52166948D01*
X64932100Y-52175198D01*
G36*
X65192365Y-52169569D02*
G01*
X65211464Y-52177055D01*
X65233646Y-52187161D01*
X65233646Y-52479118D01*
X65206087Y-52506676D01*
X65199792Y-52512856D01*
X65182353Y-52526592D01*
X65164766Y-52531041D01*
X65138596Y-52528993D01*
X65127941Y-52527668D01*
X65100460Y-52524867D01*
X65081246Y-52523751D01*
X65075546Y-52523921D01*
X65052164Y-52525769D01*
X65023896Y-52528993D01*
X65014851Y-52530101D01*
X64992066Y-52530536D01*
X64975395Y-52523657D01*
X64956404Y-52506676D01*
X64928846Y-52479118D01*
X64928846Y-52323033D01*
X64929061Y-52276908D01*
X64929730Y-52232932D01*
X64930771Y-52198110D01*
X64932100Y-52175198D01*
X64933633Y-52166948D01*
X64933954Y-52166971D01*
X64945085Y-52171076D01*
X64963892Y-52180121D01*
X64989365Y-52193293D01*
X64991762Y-52330344D01*
X64994160Y-52467394D01*
X65046412Y-52467394D01*
X65048794Y-52317172D01*
X65049550Y-52276336D01*
X65050631Y-52232689D01*
X65051803Y-52198038D01*
X65052967Y-52175189D01*
X65054026Y-52166948D01*
X65054331Y-52166977D01*
X65064889Y-52170009D01*
X65084300Y-52176509D01*
X65111726Y-52186070D01*
X65111859Y-52318024D01*
X65111993Y-52340945D01*
X65112919Y-52385488D01*
X65114575Y-52422687D01*
X65116786Y-52449185D01*
X65119375Y-52461625D01*
X65128639Y-52468279D01*
X65147545Y-52470334D01*
X65168332Y-52467394D01*
X65170714Y-52317172D01*
X65171567Y-52278998D01*
X65173335Y-52233814D01*
X65175647Y-52198372D01*
X65178325Y-52175231D01*
X65181190Y-52166948D01*
X65192365Y-52169569D01*
G37*
X66374468Y-52110773D02*
X66371917Y-52146368D01*
X66368985Y-52167343D01*
X66364923Y-52176492D01*
X66358979Y-52176609D01*
X66357052Y-52175517D01*
X66331414Y-52167609D01*
X66298064Y-52168071D01*
X66264158Y-52176200D01*
X66242951Y-52186717D01*
X66221207Y-52203517D01*
X66205312Y-52222529D01*
X66194401Y-52246688D01*
X66187607Y-52278926D01*
X66184067Y-52322176D01*
X66182914Y-52379371D01*
X66182894Y-52390342D01*
X66182880Y-52513588D01*
X66210305Y-52523148D01*
X66229784Y-52529652D01*
X66240471Y-52532681D01*
X66240785Y-52532708D01*
X66241838Y-52524497D01*
X66242734Y-52501846D01*
X66243404Y-52467734D01*
X66243782Y-52425140D01*
X66243840Y-52399244D01*
X66243961Y-52348184D01*
X66244585Y-52311589D01*
X66246101Y-52286506D01*
X66248902Y-52269985D01*
X66253376Y-52259074D01*
X66259913Y-52250819D01*
X66263996Y-52246844D01*
X66292037Y-52230825D01*
X66322637Y-52229625D01*
X66350399Y-52243173D01*
X66355534Y-52248064D01*
X66363064Y-52257262D01*
X66368287Y-52268171D01*
X66371621Y-52283945D01*
X66373484Y-52307737D01*
X66374294Y-52342699D01*
X66374468Y-52390904D01*
X66374468Y-52513588D01*
X66401894Y-52523148D01*
X66421372Y-52529652D01*
X66432059Y-52532681D01*
X66432374Y-52532708D01*
X66433178Y-52524374D01*
X66433903Y-52500863D01*
X66434519Y-52464420D01*
X66434999Y-52417285D01*
X66435311Y-52361699D01*
X66435428Y-52299905D01*
X66435428Y-52061605D01*
X66407126Y-52049666D01*
X66378823Y-52037728D01*
X66374468Y-52110773D01*
G36*
X66407126Y-52049666D02*
G01*
X66435428Y-52061605D01*
X66435428Y-52299905D01*
X66435311Y-52361699D01*
X66434999Y-52417285D01*
X66434519Y-52464420D01*
X66433903Y-52500863D01*
X66433178Y-52524374D01*
X66432374Y-52532708D01*
X66432059Y-52532681D01*
X66421372Y-52529652D01*
X66401894Y-52523148D01*
X66374468Y-52513588D01*
X66374468Y-52390904D01*
X66374294Y-52342699D01*
X66373484Y-52307737D01*
X66371621Y-52283945D01*
X66368287Y-52268171D01*
X66363064Y-52257262D01*
X66355534Y-52248064D01*
X66350399Y-52243173D01*
X66322637Y-52229625D01*
X66292037Y-52230825D01*
X66263996Y-52246844D01*
X66259913Y-52250819D01*
X66253376Y-52259074D01*
X66248902Y-52269985D01*
X66246101Y-52286506D01*
X66244585Y-52311589D01*
X66243961Y-52348184D01*
X66243840Y-52399244D01*
X66243782Y-52425140D01*
X66243404Y-52467734D01*
X66242734Y-52501846D01*
X66241838Y-52524497D01*
X66240785Y-52532708D01*
X66240471Y-52532681D01*
X66229784Y-52529652D01*
X66210305Y-52523148D01*
X66182880Y-52513588D01*
X66182894Y-52390342D01*
X66182914Y-52379371D01*
X66184067Y-52322176D01*
X66187607Y-52278926D01*
X66194401Y-52246688D01*
X66205312Y-52222529D01*
X66221207Y-52203517D01*
X66242951Y-52186717D01*
X66264158Y-52176200D01*
X66298064Y-52168071D01*
X66331414Y-52167609D01*
X66357052Y-52175517D01*
X66358979Y-52176609D01*
X66364923Y-52176492D01*
X66368985Y-52167343D01*
X66371917Y-52146368D01*
X66374468Y-52110773D01*
X66378823Y-52037728D01*
X66407126Y-52049666D01*
G37*
X67775331Y-52153177D02*
X67734513Y-52174640D01*
X67704389Y-52209181D01*
X67693689Y-52231387D01*
X67685362Y-52264729D01*
X67681100Y-52306858D01*
X67680696Y-52352836D01*
X67683944Y-52397731D01*
X67690638Y-52436605D01*
X67700572Y-52464524D01*
X67703624Y-52469332D01*
X67739787Y-52505224D01*
X67782739Y-52526721D01*
X67829345Y-52533012D01*
X67876471Y-52523286D01*
X67889587Y-52517455D01*
X67915127Y-52499486D01*
X67937542Y-52475660D01*
X67939661Y-52472638D01*
X67948271Y-52458074D01*
X67953964Y-52442507D01*
X67957326Y-52422013D01*
X67958948Y-52392671D01*
X67959421Y-52350561D01*
X67959428Y-52341120D01*
X67959407Y-52338115D01*
X67872343Y-52338115D01*
X67871836Y-52377858D01*
X67869842Y-52404232D01*
X67865650Y-52421267D01*
X67858550Y-52432995D01*
X67854926Y-52436914D01*
X67834088Y-52451808D01*
X67813858Y-52451129D01*
X67793403Y-52438210D01*
X67781203Y-52424417D01*
X67773977Y-52404287D01*
X67769920Y-52372541D01*
X67769641Y-52368839D01*
X67768949Y-52311308D01*
X67776187Y-52268579D01*
X67791258Y-52240916D01*
X67814064Y-52228581D01*
X67822205Y-52227908D01*
X67843582Y-52231291D01*
X67858204Y-52243012D01*
X67867144Y-52265425D01*
X67871475Y-52300890D01*
X67872343Y-52338115D01*
X67959407Y-52338115D01*
X67959104Y-52296248D01*
X67957742Y-52264895D01*
X67954759Y-52243169D01*
X67949572Y-52227179D01*
X67941597Y-52213033D01*
X67939834Y-52210403D01*
X67910212Y-52174949D01*
X67877935Y-52154368D01*
X67838639Y-52146199D01*
X67825295Y-52145799D01*
X67775331Y-52153177D01*
G36*
X67959428Y-52341120D02*
G01*
X67959421Y-52350561D01*
X67958948Y-52392671D01*
X67957326Y-52422013D01*
X67953964Y-52442507D01*
X67948271Y-52458074D01*
X67939661Y-52472638D01*
X67937542Y-52475660D01*
X67915127Y-52499486D01*
X67889587Y-52517455D01*
X67876471Y-52523286D01*
X67829345Y-52533012D01*
X67782739Y-52526721D01*
X67739787Y-52505224D01*
X67703624Y-52469332D01*
X67700572Y-52464524D01*
X67690638Y-52436605D01*
X67683944Y-52397731D01*
X67680696Y-52352836D01*
X67681061Y-52311308D01*
X67768949Y-52311308D01*
X67769641Y-52368839D01*
X67769920Y-52372541D01*
X67773977Y-52404287D01*
X67781203Y-52424417D01*
X67793403Y-52438210D01*
X67813858Y-52451129D01*
X67834088Y-52451808D01*
X67854926Y-52436914D01*
X67858550Y-52432995D01*
X67865650Y-52421267D01*
X67869842Y-52404232D01*
X67871836Y-52377858D01*
X67872343Y-52338115D01*
X67871475Y-52300890D01*
X67867144Y-52265425D01*
X67858204Y-52243012D01*
X67843582Y-52231291D01*
X67822205Y-52227908D01*
X67814064Y-52228581D01*
X67791258Y-52240916D01*
X67776187Y-52268579D01*
X67768949Y-52311308D01*
X67681061Y-52311308D01*
X67681100Y-52306858D01*
X67685362Y-52264729D01*
X67693689Y-52231387D01*
X67704389Y-52209181D01*
X67734513Y-52174640D01*
X67775331Y-52153177D01*
X67825295Y-52145799D01*
X67838639Y-52146199D01*
X67877935Y-52154368D01*
X67910212Y-52174949D01*
X67939834Y-52210403D01*
X67941597Y-52213033D01*
X67949572Y-52227179D01*
X67954759Y-52243169D01*
X67957742Y-52264895D01*
X67959104Y-52296248D01*
X67959407Y-52338115D01*
X67959428Y-52341120D01*
G37*
X64107843Y-52180180D02*
X64073387Y-52202698D01*
X64056769Y-52222858D01*
X64043603Y-52259438D01*
X64042557Y-52288385D01*
X64044926Y-52327090D01*
X64134188Y-52366160D01*
X64177591Y-52386121D01*
X64205950Y-52402178D01*
X64220696Y-52416086D01*
X64223258Y-52429600D01*
X64215067Y-52444473D01*
X64206034Y-52454332D01*
X64179752Y-52470141D01*
X64151167Y-52471249D01*
X64124913Y-52458928D01*
X64105627Y-52434451D01*
X64102177Y-52425808D01*
X64085654Y-52398814D01*
X64066645Y-52387309D01*
X64040572Y-52377467D01*
X64040572Y-52414780D01*
X64042877Y-52440170D01*
X64051906Y-52461581D01*
X64070832Y-52486166D01*
X64073645Y-52489360D01*
X64094696Y-52511232D01*
X64112792Y-52522970D01*
X64135431Y-52528370D01*
X64154199Y-52530138D01*
X64187769Y-52530579D01*
X64211667Y-52524996D01*
X64226575Y-52516708D01*
X64250006Y-52498480D01*
X64266225Y-52478768D01*
X64276490Y-52453976D01*
X64282057Y-52420513D01*
X64284184Y-52374783D01*
X64284354Y-52351573D01*
X64283777Y-52323748D01*
X64231196Y-52323748D01*
X64230586Y-52338676D01*
X64229066Y-52341120D01*
X64219036Y-52337799D01*
X64197451Y-52329010D01*
X64168601Y-52316514D01*
X64162568Y-52313828D01*
X64126109Y-52295288D01*
X64106021Y-52278994D01*
X64101606Y-52263732D01*
X64112165Y-52248289D01*
X64120886Y-52241465D01*
X64152354Y-52227818D01*
X64181807Y-52230073D01*
X64206464Y-52246730D01*
X64223545Y-52276291D01*
X64229021Y-52299754D01*
X64231196Y-52323748D01*
X64283777Y-52323748D01*
X64283229Y-52297349D01*
X64279082Y-52257230D01*
X64270870Y-52228017D01*
X64257542Y-52206509D01*
X64238056Y-52189508D01*
X64229560Y-52184013D01*
X64190968Y-52169704D01*
X64148716Y-52168804D01*
X64107843Y-52180180D01*
G36*
X64284354Y-52351573D02*
G01*
X64284184Y-52374783D01*
X64282057Y-52420513D01*
X64276490Y-52453976D01*
X64266225Y-52478768D01*
X64250006Y-52498480D01*
X64226575Y-52516708D01*
X64211667Y-52524996D01*
X64187769Y-52530579D01*
X64154199Y-52530138D01*
X64135431Y-52528370D01*
X64112792Y-52522970D01*
X64094696Y-52511232D01*
X64073645Y-52489360D01*
X64070832Y-52486166D01*
X64051906Y-52461581D01*
X64042877Y-52440170D01*
X64040572Y-52414780D01*
X64040572Y-52377467D01*
X64066645Y-52387309D01*
X64085654Y-52398814D01*
X64102177Y-52425808D01*
X64105627Y-52434451D01*
X64124913Y-52458928D01*
X64151167Y-52471249D01*
X64179752Y-52470141D01*
X64206034Y-52454332D01*
X64215067Y-52444473D01*
X64223258Y-52429600D01*
X64220696Y-52416086D01*
X64205950Y-52402178D01*
X64177591Y-52386121D01*
X64134188Y-52366160D01*
X64044926Y-52327090D01*
X64042557Y-52288385D01*
X64043448Y-52263732D01*
X64101606Y-52263732D01*
X64106021Y-52278994D01*
X64126109Y-52295288D01*
X64162568Y-52313828D01*
X64168601Y-52316514D01*
X64197451Y-52329010D01*
X64219036Y-52337799D01*
X64229066Y-52341120D01*
X64230586Y-52338676D01*
X64231196Y-52323748D01*
X64229021Y-52299754D01*
X64223545Y-52276291D01*
X64206464Y-52246730D01*
X64181807Y-52230073D01*
X64152354Y-52227818D01*
X64120886Y-52241465D01*
X64112165Y-52248289D01*
X64101606Y-52263732D01*
X64043448Y-52263732D01*
X64043603Y-52259438D01*
X64056769Y-52222858D01*
X64073387Y-52202698D01*
X64107843Y-52180180D01*
X64148716Y-52168804D01*
X64190968Y-52169704D01*
X64229560Y-52184013D01*
X64238056Y-52189508D01*
X64257542Y-52206509D01*
X64270870Y-52228017D01*
X64279082Y-52257230D01*
X64283229Y-52297349D01*
X64283777Y-52323748D01*
X64284354Y-52351573D01*
G37*
X65285930Y-52239215D02*
X65286040Y-52304302D01*
X65286469Y-52354372D01*
X65287395Y-52391822D01*
X65288999Y-52419051D01*
X65291464Y-52438457D01*
X65294967Y-52452440D01*
X65299691Y-52463397D01*
X65303267Y-52469651D01*
X65332887Y-52503567D01*
X65370442Y-52524826D01*
X65411992Y-52532454D01*
X65453599Y-52525478D01*
X65478375Y-52512941D01*
X65504385Y-52491253D01*
X65522111Y-52464766D01*
X65532807Y-52430077D01*
X65537722Y-52383788D01*
X65538419Y-52349828D01*
X65538325Y-52347388D01*
X65477486Y-52347388D01*
X65477114Y-52386330D01*
X65475412Y-52412108D01*
X65471496Y-52428973D01*
X65464486Y-52441172D01*
X65456110Y-52450373D01*
X65427981Y-52468134D01*
X65397779Y-52469651D01*
X65369234Y-52454823D01*
X65367013Y-52452814D01*
X65357530Y-52442361D01*
X65351584Y-52429925D01*
X65348365Y-52411417D01*
X65347063Y-52382746D01*
X65346857Y-52351049D01*
X65347304Y-52311229D01*
X65349151Y-52284664D01*
X65353163Y-52267205D01*
X65360102Y-52254704D01*
X65365792Y-52248064D01*
X65392224Y-52231319D01*
X65422666Y-52229306D01*
X65451722Y-52242095D01*
X65457330Y-52246844D01*
X65466876Y-52257388D01*
X65472834Y-52269952D01*
X65476033Y-52288669D01*
X65477302Y-52317673D01*
X65477486Y-52347388D01*
X65538325Y-52347388D01*
X65536314Y-52295141D01*
X65529164Y-52254052D01*
X65515719Y-52223160D01*
X65494726Y-52199066D01*
X65478375Y-52186717D01*
X65448656Y-52173375D01*
X65414210Y-52167182D01*
X65382191Y-52168840D01*
X65364274Y-52175527D01*
X65357243Y-52177430D01*
X65352578Y-52170334D01*
X65349321Y-52151320D01*
X65346857Y-52122356D01*
X65344160Y-52090097D01*
X65340412Y-52070689D01*
X65333594Y-52059591D01*
X65321683Y-52052262D01*
X65314200Y-52049017D01*
X65285897Y-52037161D01*
X65285930Y-52239215D01*
G36*
X65538419Y-52349828D02*
G01*
X65537722Y-52383788D01*
X65532807Y-52430077D01*
X65522111Y-52464766D01*
X65504385Y-52491253D01*
X65478375Y-52512941D01*
X65453599Y-52525478D01*
X65411992Y-52532454D01*
X65370442Y-52524826D01*
X65332887Y-52503567D01*
X65303267Y-52469651D01*
X65299691Y-52463397D01*
X65294967Y-52452440D01*
X65291464Y-52438457D01*
X65288999Y-52419051D01*
X65287395Y-52391822D01*
X65286469Y-52354372D01*
X65286441Y-52351049D01*
X65346857Y-52351049D01*
X65347063Y-52382746D01*
X65348365Y-52411417D01*
X65351584Y-52429925D01*
X65357530Y-52442361D01*
X65367013Y-52452814D01*
X65369234Y-52454823D01*
X65397779Y-52469651D01*
X65427981Y-52468134D01*
X65456110Y-52450373D01*
X65464486Y-52441172D01*
X65471496Y-52428973D01*
X65475412Y-52412108D01*
X65477114Y-52386330D01*
X65477486Y-52347388D01*
X65477302Y-52317673D01*
X65476033Y-52288669D01*
X65472834Y-52269952D01*
X65466876Y-52257388D01*
X65457330Y-52246844D01*
X65451722Y-52242095D01*
X65422666Y-52229306D01*
X65392224Y-52231319D01*
X65365792Y-52248064D01*
X65360102Y-52254704D01*
X65353163Y-52267205D01*
X65349151Y-52284664D01*
X65347304Y-52311229D01*
X65346857Y-52351049D01*
X65286441Y-52351049D01*
X65286040Y-52304302D01*
X65285930Y-52239215D01*
X65285897Y-52037161D01*
X65314200Y-52049017D01*
X65321683Y-52052262D01*
X65333594Y-52059591D01*
X65340412Y-52070689D01*
X65344160Y-52090097D01*
X65346857Y-52122356D01*
X65349321Y-52151320D01*
X65352578Y-52170334D01*
X65357243Y-52177430D01*
X65364274Y-52175527D01*
X65382191Y-52168840D01*
X65414210Y-52167182D01*
X65448656Y-52173375D01*
X65478375Y-52186717D01*
X65494726Y-52199066D01*
X65515719Y-52223160D01*
X65529164Y-52254052D01*
X65536314Y-52295141D01*
X65538325Y-52347388D01*
X65538419Y-52349828D01*
G37*
X67099018Y-52158743D02*
X67064684Y-52181841D01*
X67038151Y-52215201D01*
X67022300Y-52257652D01*
X67019094Y-52288897D01*
X67019458Y-52301936D01*
X67022507Y-52311919D01*
X67030887Y-52320862D01*
X67047247Y-52330784D01*
X67074233Y-52343699D01*
X67114493Y-52361624D01*
X67114697Y-52361714D01*
X67151756Y-52378688D01*
X67182145Y-52393760D01*
X67202758Y-52405307D01*
X67210489Y-52411709D01*
X67210492Y-52411760D01*
X67203677Y-52425700D01*
X67187741Y-52441064D01*
X67169446Y-52452133D01*
X67160178Y-52454332D01*
X67134891Y-52446727D01*
X67113115Y-52427683D01*
X67102490Y-52406743D01*
X67092269Y-52391307D01*
X67072247Y-52373728D01*
X67048711Y-52358541D01*
X67027946Y-52350283D01*
X67023604Y-52349828D01*
X67018717Y-52357296D01*
X67018422Y-52376383D01*
X67022014Y-52402120D01*
X67028786Y-52429535D01*
X67038030Y-52453657D01*
X67038497Y-52454593D01*
X67066318Y-52493437D01*
X67102373Y-52519858D01*
X67143321Y-52532827D01*
X67185817Y-52531311D01*
X67226518Y-52514282D01*
X67228327Y-52513085D01*
X67260344Y-52484069D01*
X67281396Y-52446211D01*
X67293047Y-52396432D01*
X67294610Y-52382447D01*
X67297379Y-52316433D01*
X67294060Y-52285649D01*
X67210492Y-52285649D01*
X67209406Y-52304852D01*
X67203467Y-52310456D01*
X67188661Y-52306263D01*
X67165323Y-52296352D01*
X67139235Y-52283929D01*
X67138586Y-52283600D01*
X67116475Y-52271969D01*
X67107600Y-52264208D01*
X67109788Y-52256071D01*
X67119003Y-52245379D01*
X67142446Y-52229907D01*
X67167692Y-52228770D01*
X67190338Y-52240030D01*
X67205980Y-52261749D01*
X67210492Y-52285649D01*
X67294060Y-52285649D01*
X67291684Y-52263616D01*
X67277070Y-52221727D01*
X67256726Y-52192381D01*
X67220008Y-52162727D01*
X67179562Y-52148015D01*
X67138272Y-52147078D01*
X67099018Y-52158743D01*
G36*
X67297379Y-52316433D02*
G01*
X67294610Y-52382447D01*
X67293047Y-52396432D01*
X67281396Y-52446211D01*
X67260344Y-52484069D01*
X67228327Y-52513085D01*
X67226518Y-52514282D01*
X67185817Y-52531311D01*
X67143321Y-52532827D01*
X67102373Y-52519858D01*
X67066318Y-52493437D01*
X67038497Y-52454593D01*
X67038030Y-52453657D01*
X67028786Y-52429535D01*
X67022014Y-52402120D01*
X67018422Y-52376383D01*
X67018717Y-52357296D01*
X67023604Y-52349828D01*
X67027946Y-52350283D01*
X67048711Y-52358541D01*
X67072247Y-52373728D01*
X67092269Y-52391307D01*
X67102490Y-52406743D01*
X67113115Y-52427683D01*
X67134891Y-52446727D01*
X67160178Y-52454332D01*
X67169446Y-52452133D01*
X67187741Y-52441064D01*
X67203677Y-52425700D01*
X67210492Y-52411760D01*
X67210489Y-52411709D01*
X67202758Y-52405307D01*
X67182145Y-52393760D01*
X67151756Y-52378688D01*
X67114697Y-52361714D01*
X67114493Y-52361624D01*
X67074233Y-52343699D01*
X67047247Y-52330784D01*
X67030887Y-52320862D01*
X67022507Y-52311919D01*
X67019458Y-52301936D01*
X67019094Y-52288897D01*
X67021627Y-52264208D01*
X67107600Y-52264208D01*
X67116475Y-52271969D01*
X67138586Y-52283600D01*
X67139235Y-52283929D01*
X67165323Y-52296352D01*
X67188661Y-52306263D01*
X67203467Y-52310456D01*
X67209406Y-52304852D01*
X67210492Y-52285649D01*
X67205980Y-52261749D01*
X67190338Y-52240030D01*
X67167692Y-52228770D01*
X67142446Y-52229907D01*
X67119003Y-52245379D01*
X67109788Y-52256071D01*
X67107600Y-52264208D01*
X67021627Y-52264208D01*
X67022300Y-52257652D01*
X67038151Y-52215201D01*
X67064684Y-52181841D01*
X67099018Y-52158743D01*
X67138272Y-52147078D01*
X67179562Y-52148015D01*
X67220008Y-52162727D01*
X67256726Y-52192381D01*
X67277070Y-52221727D01*
X67291684Y-52263616D01*
X67294060Y-52285649D01*
X67297379Y-52316433D01*
G37*
X65976154Y-52170581D02*
X65942030Y-52183252D01*
X65941640Y-52183496D01*
X65920536Y-52199028D01*
X65904956Y-52217180D01*
X65893998Y-52240835D01*
X65886761Y-52272877D01*
X65882342Y-52316191D01*
X65879842Y-52373659D01*
X65879623Y-52381847D01*
X65876474Y-52505305D01*
X65902970Y-52519007D01*
X65922142Y-52528266D01*
X65933718Y-52532654D01*
X65934253Y-52532708D01*
X65936257Y-52524613D01*
X65937848Y-52502776D01*
X65938826Y-52470871D01*
X65939040Y-52445036D01*
X65939045Y-52403185D01*
X65940958Y-52376902D01*
X65947627Y-52364366D01*
X65961899Y-52363755D01*
X65986622Y-52373245D01*
X66023948Y-52390689D01*
X66051395Y-52405178D01*
X66065512Y-52417748D01*
X66069662Y-52431448D01*
X66069668Y-52432126D01*
X66062821Y-52455727D01*
X66042545Y-52468477D01*
X66011515Y-52470323D01*
X65989163Y-52470004D01*
X65977378Y-52476441D01*
X65970029Y-52491903D01*
X65965799Y-52511602D01*
X65971895Y-52522780D01*
X65974190Y-52524379D01*
X65995799Y-52530804D01*
X66026060Y-52531714D01*
X66057224Y-52527455D01*
X66079307Y-52519673D01*
X66109837Y-52493751D01*
X66127192Y-52457668D01*
X66130628Y-52429477D01*
X66128006Y-52404049D01*
X66118515Y-52383293D01*
X66099722Y-52364858D01*
X66069193Y-52346394D01*
X66024494Y-52325551D01*
X66021772Y-52324373D01*
X65981507Y-52305772D01*
X65956661Y-52290517D01*
X65946011Y-52276808D01*
X65948336Y-52262847D01*
X65962414Y-52246834D01*
X65966624Y-52243148D01*
X65994822Y-52228860D01*
X66024040Y-52229462D01*
X66049487Y-52243471D01*
X66066370Y-52269405D01*
X66067939Y-52274496D01*
X66083215Y-52299185D01*
X66102599Y-52311077D01*
X66130628Y-52322862D01*
X66130628Y-52292370D01*
X66122102Y-52248049D01*
X66096795Y-52207396D01*
X66083626Y-52193797D01*
X66053690Y-52176341D01*
X66015620Y-52168440D01*
X65976154Y-52170581D01*
G36*
X66053690Y-52176341D02*
G01*
X66083626Y-52193797D01*
X66096795Y-52207396D01*
X66122102Y-52248049D01*
X66130628Y-52292370D01*
X66130628Y-52322862D01*
X66102599Y-52311077D01*
X66083215Y-52299185D01*
X66067939Y-52274496D01*
X66066370Y-52269405D01*
X66049487Y-52243471D01*
X66024040Y-52229462D01*
X65994822Y-52228860D01*
X65966624Y-52243148D01*
X65962414Y-52246834D01*
X65948336Y-52262847D01*
X65946011Y-52276808D01*
X65956661Y-52290517D01*
X65981507Y-52305772D01*
X66021772Y-52324373D01*
X66024494Y-52325551D01*
X66069193Y-52346394D01*
X66099722Y-52364858D01*
X66118515Y-52383293D01*
X66128006Y-52404049D01*
X66130628Y-52429477D01*
X66127192Y-52457668D01*
X66109837Y-52493751D01*
X66079307Y-52519673D01*
X66057224Y-52527455D01*
X66026060Y-52531714D01*
X65995799Y-52530804D01*
X65974190Y-52524379D01*
X65971895Y-52522780D01*
X65965799Y-52511602D01*
X65970029Y-52491903D01*
X65977378Y-52476441D01*
X65989163Y-52470004D01*
X66011515Y-52470323D01*
X66042545Y-52468477D01*
X66062821Y-52455727D01*
X66069668Y-52432126D01*
X66069662Y-52431448D01*
X66065512Y-52417748D01*
X66051395Y-52405178D01*
X66023948Y-52390689D01*
X65986622Y-52373245D01*
X65961899Y-52363755D01*
X65947627Y-52364366D01*
X65940958Y-52376902D01*
X65939045Y-52403185D01*
X65939040Y-52445036D01*
X65938826Y-52470871D01*
X65937848Y-52502776D01*
X65936257Y-52524613D01*
X65934253Y-52532708D01*
X65933718Y-52532654D01*
X65922142Y-52528266D01*
X65902970Y-52519007D01*
X65876474Y-52505305D01*
X65879623Y-52381847D01*
X65879842Y-52373659D01*
X65882342Y-52316191D01*
X65886761Y-52272877D01*
X65893998Y-52240835D01*
X65904956Y-52217180D01*
X65920536Y-52199028D01*
X65941640Y-52183496D01*
X65942030Y-52183252D01*
X65976154Y-52170581D01*
X66015620Y-52168440D01*
X66053690Y-52176341D01*
G37*
X64713074Y-52173801D02*
X64688000Y-52185206D01*
X64668319Y-52199027D01*
X64653898Y-52214480D01*
X64643942Y-52234415D01*
X64637654Y-52261680D01*
X64634237Y-52299124D01*
X64632896Y-52349596D01*
X64632754Y-52382833D01*
X64632754Y-52512496D01*
X64654936Y-52522602D01*
X64672406Y-52529989D01*
X64681061Y-52532708D01*
X64682717Y-52524615D01*
X64684031Y-52502792D01*
X64684835Y-52470925D01*
X64685006Y-52445623D01*
X64685740Y-52409068D01*
X64687718Y-52380069D01*
X64690607Y-52362311D01*
X64692902Y-52358537D01*
X64708330Y-52362391D01*
X64732549Y-52372275D01*
X64760593Y-52385675D01*
X64787493Y-52400074D01*
X64808284Y-52412958D01*
X64817999Y-52421811D01*
X64818037Y-52421907D01*
X64817202Y-52438291D01*
X64809709Y-52453931D01*
X64796554Y-52466635D01*
X64777354Y-52470884D01*
X64760945Y-52470389D01*
X64737704Y-52470025D01*
X64725505Y-52475470D01*
X64718179Y-52489855D01*
X64717255Y-52492568D01*
X64714078Y-52513084D01*
X64722572Y-52525541D01*
X64744711Y-52531477D01*
X64768627Y-52532575D01*
X64811663Y-52524436D01*
X64833941Y-52512813D01*
X64861454Y-52485507D01*
X64876046Y-52451990D01*
X64877356Y-52416574D01*
X64865023Y-52383572D01*
X64846471Y-52362892D01*
X64827948Y-52351313D01*
X64798835Y-52336655D01*
X64764909Y-52321791D01*
X64759254Y-52319519D01*
X64721989Y-52303075D01*
X64700507Y-52288580D01*
X64693598Y-52274171D01*
X64700052Y-52257981D01*
X64711132Y-52245326D01*
X64737319Y-52229743D01*
X64766132Y-52228574D01*
X64792556Y-52240582D01*
X64811575Y-52264531D01*
X64814071Y-52270709D01*
X64828604Y-52293434D01*
X64849821Y-52310305D01*
X64876594Y-52324150D01*
X64876594Y-52284891D01*
X64875019Y-52260904D01*
X64868262Y-52241998D01*
X64853281Y-52221827D01*
X64838899Y-52206290D01*
X64816535Y-52184290D01*
X64799159Y-52172473D01*
X64780497Y-52167732D01*
X64759372Y-52166948D01*
X64713074Y-52173801D01*
G36*
X64780497Y-52167732D02*
G01*
X64799159Y-52172473D01*
X64816535Y-52184290D01*
X64838899Y-52206290D01*
X64853281Y-52221827D01*
X64868262Y-52241998D01*
X64875019Y-52260904D01*
X64876594Y-52284891D01*
X64876594Y-52324150D01*
X64849821Y-52310305D01*
X64828604Y-52293434D01*
X64814071Y-52270709D01*
X64811575Y-52264531D01*
X64792556Y-52240582D01*
X64766132Y-52228574D01*
X64737319Y-52229743D01*
X64711132Y-52245326D01*
X64700052Y-52257981D01*
X64693598Y-52274171D01*
X64700507Y-52288580D01*
X64721989Y-52303075D01*
X64759254Y-52319519D01*
X64764909Y-52321791D01*
X64798835Y-52336655D01*
X64827948Y-52351313D01*
X64846471Y-52362892D01*
X64865023Y-52383572D01*
X64877356Y-52416574D01*
X64876046Y-52451990D01*
X64861454Y-52485507D01*
X64833941Y-52512813D01*
X64811663Y-52524436D01*
X64768627Y-52532575D01*
X64744711Y-52531477D01*
X64722572Y-52525541D01*
X64714078Y-52513084D01*
X64717255Y-52492568D01*
X64718179Y-52489855D01*
X64725505Y-52475470D01*
X64737704Y-52470025D01*
X64760945Y-52470389D01*
X64777354Y-52470884D01*
X64796554Y-52466635D01*
X64809709Y-52453931D01*
X64817202Y-52438291D01*
X64818037Y-52421907D01*
X64817999Y-52421811D01*
X64808284Y-52412958D01*
X64787493Y-52400074D01*
X64760593Y-52385675D01*
X64732549Y-52372275D01*
X64708330Y-52362391D01*
X64692902Y-52358537D01*
X64690607Y-52362311D01*
X64687718Y-52380069D01*
X64685740Y-52409068D01*
X64685006Y-52445623D01*
X64684835Y-52470925D01*
X64684031Y-52502792D01*
X64682717Y-52524615D01*
X64681061Y-52532708D01*
X64672406Y-52529989D01*
X64654936Y-52522602D01*
X64632754Y-52512496D01*
X64632754Y-52382833D01*
X64632896Y-52349596D01*
X64634237Y-52299124D01*
X64637654Y-52261680D01*
X64643942Y-52234415D01*
X64653898Y-52214480D01*
X64668319Y-52199027D01*
X64688000Y-52185206D01*
X64713074Y-52173801D01*
X64759372Y-52166948D01*
X64780497Y-52167732D01*
G37*
X67440154Y-52151951D02*
X67406879Y-52168541D01*
X67377511Y-52199088D01*
X67369423Y-52210403D01*
X67360612Y-52225209D01*
X67354895Y-52241290D01*
X67351624Y-52262752D01*
X67350152Y-52293701D01*
X67349828Y-52334560D01*
X67351289Y-52390553D01*
X67356364Y-52432594D01*
X67366096Y-52463959D01*
X67381528Y-52487921D01*
X67403702Y-52507757D01*
X67405331Y-52508932D01*
X67427184Y-52520945D01*
X67453499Y-52526889D01*
X67486966Y-52528354D01*
X67541371Y-52528354D01*
X67541394Y-52581170D01*
X67541900Y-52610585D01*
X67544986Y-52627839D01*
X67553048Y-52638187D01*
X67568485Y-52646885D01*
X67572193Y-52648661D01*
X67589542Y-52656989D01*
X67602974Y-52662248D01*
X67612963Y-52662703D01*
X67619978Y-52656614D01*
X67624494Y-52642244D01*
X67626980Y-52617856D01*
X67627911Y-52581712D01*
X67627757Y-52532073D01*
X67626991Y-52467203D01*
X67626751Y-52447800D01*
X67625889Y-52380914D01*
X67625117Y-52337162D01*
X67541417Y-52337162D01*
X67540947Y-52374299D01*
X67538856Y-52398598D01*
X67534126Y-52414625D01*
X67525737Y-52426946D01*
X67520042Y-52432956D01*
X67496758Y-52450540D01*
X67476142Y-52451971D01*
X67454870Y-52437450D01*
X67454332Y-52436914D01*
X67445677Y-52425692D01*
X67440412Y-52410439D01*
X67437757Y-52386950D01*
X67436929Y-52351018D01*
X67436914Y-52343058D01*
X67438913Y-52293541D01*
X67445419Y-52259215D01*
X67457196Y-52238260D01*
X67475010Y-52228856D01*
X67485305Y-52227908D01*
X67509740Y-52232356D01*
X67526501Y-52246998D01*
X67536590Y-52273788D01*
X67541010Y-52314678D01*
X67541417Y-52337162D01*
X67625117Y-52337162D01*
X67624975Y-52329147D01*
X67623794Y-52290200D01*
X67622130Y-52261775D01*
X67619767Y-52241574D01*
X67616491Y-52227299D01*
X67612085Y-52216652D01*
X67606334Y-52207334D01*
X67603868Y-52203829D01*
X67571157Y-52170711D01*
X67529798Y-52151934D01*
X67481957Y-52146699D01*
X67440154Y-52151951D01*
G36*
X67625889Y-52380914D02*
G01*
X67626751Y-52447800D01*
X67626991Y-52467203D01*
X67627757Y-52532073D01*
X67627911Y-52581712D01*
X67626980Y-52617856D01*
X67624494Y-52642244D01*
X67619978Y-52656614D01*
X67612963Y-52662703D01*
X67602974Y-52662248D01*
X67589542Y-52656989D01*
X67572193Y-52648661D01*
X67568485Y-52646885D01*
X67553048Y-52638187D01*
X67544986Y-52627839D01*
X67541900Y-52610585D01*
X67541394Y-52581170D01*
X67541371Y-52528354D01*
X67486966Y-52528354D01*
X67453499Y-52526889D01*
X67427184Y-52520945D01*
X67405331Y-52508932D01*
X67403702Y-52507757D01*
X67381528Y-52487921D01*
X67366096Y-52463959D01*
X67356364Y-52432594D01*
X67351289Y-52390553D01*
X67350050Y-52343058D01*
X67436914Y-52343058D01*
X67436929Y-52351018D01*
X67437757Y-52386950D01*
X67440412Y-52410439D01*
X67445677Y-52425692D01*
X67454332Y-52436914D01*
X67454870Y-52437450D01*
X67476142Y-52451971D01*
X67496758Y-52450540D01*
X67520042Y-52432956D01*
X67525737Y-52426946D01*
X67534126Y-52414625D01*
X67538856Y-52398598D01*
X67540947Y-52374299D01*
X67541417Y-52337162D01*
X67541010Y-52314678D01*
X67536590Y-52273788D01*
X67526501Y-52246998D01*
X67509740Y-52232356D01*
X67485305Y-52227908D01*
X67475010Y-52228856D01*
X67457196Y-52238260D01*
X67445419Y-52259215D01*
X67438913Y-52293541D01*
X67436914Y-52343058D01*
X67350050Y-52343058D01*
X67349828Y-52334560D01*
X67350152Y-52293701D01*
X67351624Y-52262752D01*
X67354895Y-52241290D01*
X67360612Y-52225209D01*
X67369423Y-52210403D01*
X67377511Y-52199088D01*
X67406879Y-52168541D01*
X67440154Y-52151951D01*
X67481957Y-52146699D01*
X67529798Y-52151934D01*
X67571157Y-52170711D01*
X67603868Y-52203829D01*
X67606334Y-52207334D01*
X67612085Y-52216652D01*
X67616491Y-52227299D01*
X67619767Y-52241574D01*
X67622130Y-52261775D01*
X67623794Y-52290200D01*
X67624975Y-52329147D01*
X67625117Y-52337162D01*
X67625889Y-52380914D01*
G37*
X65937654Y-49345409D02*
X65890528Y-49345667D01*
X65856421Y-49346365D01*
X65833137Y-49347724D01*
X65818477Y-49349964D01*
X65810243Y-49353304D01*
X65806236Y-49357964D01*
X65804258Y-49364163D01*
X65804066Y-49364966D01*
X65801063Y-49379447D01*
X65795503Y-49408021D01*
X65787965Y-49447645D01*
X65779028Y-49495277D01*
X65769269Y-49547878D01*
X65768929Y-49549725D01*
X65759154Y-49601273D01*
X65750009Y-49646818D01*
X65742083Y-49683627D01*
X65735968Y-49708969D01*
X65732251Y-49720113D01*
X65732074Y-49720310D01*
X65721127Y-49725752D01*
X65698557Y-49734820D01*
X65669237Y-49745557D01*
X65669074Y-49745615D01*
X65632144Y-49759496D01*
X65588606Y-49777179D01*
X65547566Y-49794958D01*
X65545624Y-49795837D01*
X65478779Y-49826176D01*
X65330761Y-49725096D01*
X65285354Y-49694282D01*
X65244221Y-49666733D01*
X65209747Y-49644018D01*
X65184314Y-49627702D01*
X65170305Y-49619353D01*
X65168975Y-49618733D01*
X65158794Y-49621490D01*
X65139779Y-49634793D01*
X65111189Y-49659268D01*
X65072281Y-49695543D01*
X65032562Y-49734136D01*
X64994272Y-49772167D01*
X64960003Y-49806871D01*
X64931817Y-49836105D01*
X64911778Y-49857726D01*
X64901949Y-49869590D01*
X64901584Y-49870201D01*
X64900497Y-49878343D01*
X64904590Y-49891640D01*
X64914876Y-49911887D01*
X64932364Y-49940880D01*
X64958067Y-49980415D01*
X64992331Y-50031310D01*
X65022740Y-50076106D01*
X65049923Y-50116284D01*
X65072310Y-50149510D01*
X65088329Y-50173452D01*
X65096409Y-50185777D01*
X65096918Y-50186614D01*
X65095931Y-50198423D01*
X65088453Y-50221376D01*
X65075971Y-50251133D01*
X65071523Y-50260637D01*
X65052112Y-50302974D01*
X65031403Y-50351012D01*
X65014581Y-50392577D01*
X65002459Y-50423427D01*
X64992831Y-50446871D01*
X64987267Y-50459125D01*
X64986575Y-50460068D01*
X64976342Y-50461633D01*
X64952221Y-50465918D01*
X64917419Y-50472314D01*
X64875142Y-50480211D01*
X64828599Y-50489000D01*
X64780997Y-50498069D01*
X64735541Y-50506811D01*
X64695442Y-50514613D01*
X64663903Y-50520867D01*
X64644134Y-50524962D01*
X64639286Y-50526119D01*
X64634277Y-50528977D01*
X64630496Y-50535431D01*
X64627773Y-50547659D01*
X64625938Y-50567840D01*
X64624820Y-50598153D01*
X64624249Y-50640775D01*
X64624056Y-50697886D01*
X64624046Y-50721295D01*
X64624046Y-50911679D01*
X64669766Y-50920703D01*
X64695202Y-50925597D01*
X64733160Y-50932739D01*
X64779023Y-50941270D01*
X64828174Y-50950326D01*
X64841760Y-50952813D01*
X64887116Y-50961632D01*
X64926628Y-50970303D01*
X64956980Y-50978025D01*
X64974856Y-50983993D01*
X64977833Y-50985772D01*
X64985144Y-50998370D01*
X64995628Y-51022780D01*
X65007254Y-51054193D01*
X65009560Y-51060960D01*
X65024797Y-51102914D01*
X65043710Y-51150251D01*
X65062219Y-51192760D01*
X65062310Y-51192957D01*
X65093132Y-51259640D01*
X64991761Y-51408752D01*
X64890389Y-51557863D01*
X65020543Y-51688235D01*
X65059909Y-51727036D01*
X65095813Y-51761240D01*
X65126240Y-51789020D01*
X65149172Y-51808550D01*
X65162595Y-51818006D01*
X65164520Y-51818606D01*
X65175824Y-51813881D01*
X65198892Y-51800747D01*
X65231202Y-51780760D01*
X65270234Y-51755479D01*
X65312436Y-51727166D01*
X65355267Y-51698286D01*
X65393455Y-51673157D01*
X65424575Y-51653323D01*
X65446203Y-51640331D01*
X65455880Y-51635726D01*
X65467687Y-51639622D01*
X65490075Y-51649890D01*
X65518427Y-51664396D01*
X65521433Y-51666008D01*
X65559614Y-51685156D01*
X65585795Y-51694547D01*
X65602079Y-51694647D01*
X65610566Y-51685922D01*
X65610615Y-51685800D01*
X65614857Y-51675467D01*
X65624975Y-51650939D01*
X65640183Y-51614115D01*
X65659697Y-51566891D01*
X65682733Y-51511168D01*
X65708507Y-51448843D01*
X65733467Y-51388501D01*
X65760898Y-51321910D01*
X65786084Y-51260222D01*
X65808271Y-51205329D01*
X65826704Y-51159121D01*
X65840627Y-51123489D01*
X65849286Y-51100325D01*
X65851954Y-51091680D01*
X65845262Y-51081763D01*
X65827759Y-51065958D01*
X65804417Y-51048532D01*
X65737946Y-50993423D01*
X65685989Y-50930255D01*
X65649170Y-50860360D01*
X65628111Y-50785066D01*
X65623435Y-50705704D01*
X65626834Y-50669074D01*
X65645353Y-50593077D01*
X65677248Y-50525965D01*
X65720540Y-50468401D01*
X65773250Y-50421046D01*
X65833401Y-50384562D01*
X65899014Y-50359612D01*
X65968112Y-50346857D01*
X66038715Y-50346959D01*
X66108846Y-50360581D01*
X66176527Y-50388383D01*
X66239779Y-50431028D01*
X66266179Y-50455147D01*
X66316813Y-50517077D01*
X66352067Y-50584755D01*
X66372178Y-50656206D01*
X66377379Y-50729457D01*
X66367906Y-50802536D01*
X66343993Y-50873470D01*
X66305876Y-50940285D01*
X66253787Y-51001010D01*
X66195583Y-51048532D01*
X66171338Y-51066697D01*
X66154211Y-51082331D01*
X66148046Y-51091695D01*
X66151274Y-51101906D01*
X66160455Y-51126300D01*
X66174833Y-51162985D01*
X66193654Y-51210071D01*
X66216161Y-51265668D01*
X66241600Y-51327883D01*
X66266602Y-51388516D01*
X66294186Y-51455164D01*
X66319736Y-51516925D01*
X66342467Y-51571899D01*
X66361596Y-51618190D01*
X66376337Y-51653899D01*
X66385908Y-51677126D01*
X66389454Y-51685800D01*
X66397831Y-51694611D01*
X66414036Y-51694585D01*
X66440152Y-51685259D01*
X66478266Y-51666170D01*
X66478567Y-51666008D01*
X66507264Y-51651194D01*
X66530462Y-51640403D01*
X66543543Y-51635768D01*
X66544120Y-51635726D01*
X66553967Y-51640427D01*
X66575708Y-51653499D01*
X66606916Y-51673397D01*
X66645165Y-51698575D01*
X66687564Y-51727166D01*
X66730730Y-51756115D01*
X66769636Y-51781291D01*
X66801759Y-51801136D01*
X66824582Y-51814093D01*
X66835480Y-51818606D01*
X66845515Y-51812674D01*
X66865692Y-51796096D01*
X66893994Y-51770697D01*
X66928405Y-51738303D01*
X66966910Y-51700739D01*
X66979502Y-51688190D01*
X67109701Y-51557774D01*
X67010599Y-51412332D01*
X66980482Y-51367669D01*
X66954049Y-51327583D01*
X66932783Y-51294399D01*
X66918169Y-51270437D01*
X66911687Y-51258022D01*
X66911497Y-51257138D01*
X66914914Y-51245435D01*
X66924104Y-51221893D01*
X66937478Y-51190458D01*
X66946864Y-51169413D01*
X66964415Y-51129121D01*
X66980944Y-51088415D01*
X66993758Y-51054020D01*
X66997239Y-51043543D01*
X67007129Y-51015563D01*
X67016796Y-50993943D01*
X67022106Y-50985772D01*
X67033824Y-50980771D01*
X67059400Y-50973682D01*
X67095513Y-50965309D01*
X67138847Y-50956453D01*
X67158240Y-50952813D01*
X67207487Y-50943764D01*
X67254723Y-50935001D01*
X67295335Y-50927388D01*
X67324704Y-50921785D01*
X67330234Y-50920703D01*
X67375954Y-50911679D01*
X67375954Y-50721295D01*
X67375852Y-50658692D01*
X67375430Y-50611328D01*
X67374520Y-50577023D01*
X67372951Y-50553599D01*
X67370552Y-50538879D01*
X67367155Y-50530683D01*
X67362588Y-50526833D01*
X67360714Y-50526119D01*
X67349413Y-50523588D01*
X67324447Y-50518537D01*
X67289022Y-50511577D01*
X67246346Y-50503317D01*
X67199625Y-50494368D01*
X67152068Y-50485339D01*
X67106881Y-50476841D01*
X67067272Y-50469484D01*
X67036448Y-50463877D01*
X67017615Y-50460630D01*
X67013425Y-50460068D01*
X67009629Y-50452558D01*
X67001226Y-50432548D01*
X66989787Y-50403826D01*
X66985420Y-50392577D01*
X66967802Y-50349117D01*
X66947057Y-50301102D01*
X66928478Y-50260637D01*
X66914806Y-50229695D01*
X66905711Y-50204271D01*
X66902675Y-50188700D01*
X66903158Y-50186614D01*
X66909575Y-50176762D01*
X66924228Y-50154850D01*
X66945543Y-50123212D01*
X66971948Y-50084181D01*
X67001870Y-50040091D01*
X67007786Y-50031387D01*
X67042505Y-49979822D01*
X67068026Y-49940557D01*
X67085368Y-49911782D01*
X67095546Y-49891692D01*
X67099580Y-49878477D01*
X67098486Y-49870330D01*
X67098458Y-49870279D01*
X67089848Y-49859578D01*
X67070806Y-49838890D01*
X67043394Y-49810361D01*
X67009678Y-49776133D01*
X66971719Y-49738353D01*
X66967439Y-49734136D01*
X66919602Y-49687812D01*
X66882686Y-49653798D01*
X66855947Y-49631466D01*
X66838646Y-49620189D01*
X66831025Y-49618733D01*
X66819904Y-49625083D01*
X66796823Y-49639750D01*
X66764168Y-49661167D01*
X66724321Y-49687768D01*
X66679665Y-49717987D01*
X66669239Y-49725096D01*
X66521222Y-49826176D01*
X66454376Y-49795837D01*
X66413726Y-49778157D01*
X66370090Y-49760375D01*
X66332578Y-49746198D01*
X66330926Y-49745615D01*
X66301584Y-49734874D01*
X66278966Y-49725792D01*
X66267945Y-49720326D01*
X66267926Y-49720310D01*
X66264429Y-49710430D01*
X66258485Y-49686131D01*
X66250683Y-49650145D01*
X66241615Y-49605204D01*
X66231869Y-49554038D01*
X66231071Y-49549725D01*
X66221295Y-49497008D01*
X66212320Y-49449156D01*
X66204725Y-49409209D01*
X66199088Y-49380208D01*
X66195988Y-49365195D01*
X66195934Y-49364966D01*
X66194047Y-49358579D01*
X66190378Y-49353757D01*
X66182728Y-49350280D01*
X66168900Y-49347928D01*
X66146695Y-49346481D01*
X66113914Y-49345719D01*
X66068360Y-49345423D01*
X66007834Y-49345372D01*
X66000000Y-49345372D01*
X65937654Y-49345409D01*
G36*
X66068360Y-49345423D02*
G01*
X66113914Y-49345719D01*
X66146695Y-49346481D01*
X66168900Y-49347928D01*
X66182728Y-49350280D01*
X66190378Y-49353757D01*
X66194047Y-49358579D01*
X66195934Y-49364966D01*
X66195988Y-49365195D01*
X66199088Y-49380208D01*
X66204725Y-49409209D01*
X66212320Y-49449156D01*
X66221295Y-49497008D01*
X66231071Y-49549725D01*
X66231869Y-49554038D01*
X66241615Y-49605204D01*
X66250683Y-49650145D01*
X66258485Y-49686131D01*
X66264429Y-49710430D01*
X66267926Y-49720310D01*
X66267945Y-49720326D01*
X66278966Y-49725792D01*
X66301584Y-49734874D01*
X66330926Y-49745615D01*
X66332578Y-49746198D01*
X66370090Y-49760375D01*
X66413726Y-49778157D01*
X66454376Y-49795837D01*
X66521222Y-49826176D01*
X66669239Y-49725096D01*
X66679665Y-49717987D01*
X66724321Y-49687768D01*
X66764168Y-49661167D01*
X66796823Y-49639750D01*
X66819904Y-49625083D01*
X66831025Y-49618733D01*
X66838646Y-49620189D01*
X66855947Y-49631466D01*
X66882686Y-49653798D01*
X66919602Y-49687812D01*
X66967439Y-49734136D01*
X66971719Y-49738353D01*
X67009678Y-49776133D01*
X67043394Y-49810361D01*
X67070806Y-49838890D01*
X67089848Y-49859578D01*
X67098458Y-49870279D01*
X67098486Y-49870330D01*
X67099580Y-49878477D01*
X67095546Y-49891692D01*
X67085368Y-49911782D01*
X67068026Y-49940557D01*
X67042505Y-49979822D01*
X67007786Y-50031387D01*
X67001870Y-50040091D01*
X66971948Y-50084181D01*
X66945543Y-50123212D01*
X66924228Y-50154850D01*
X66909575Y-50176762D01*
X66903158Y-50186614D01*
X66902675Y-50188700D01*
X66905711Y-50204271D01*
X66914806Y-50229695D01*
X66928478Y-50260637D01*
X66947057Y-50301102D01*
X66967802Y-50349117D01*
X66985420Y-50392577D01*
X66989787Y-50403826D01*
X67001226Y-50432548D01*
X67009629Y-50452558D01*
X67013425Y-50460068D01*
X67017615Y-50460630D01*
X67036448Y-50463877D01*
X67067272Y-50469484D01*
X67106881Y-50476841D01*
X67152068Y-50485339D01*
X67199625Y-50494368D01*
X67246346Y-50503317D01*
X67289022Y-50511577D01*
X67324447Y-50518537D01*
X67349413Y-50523588D01*
X67360714Y-50526119D01*
X67362588Y-50526833D01*
X67367155Y-50530683D01*
X67370552Y-50538879D01*
X67372951Y-50553599D01*
X67374520Y-50577023D01*
X67375430Y-50611328D01*
X67375852Y-50658692D01*
X67375954Y-50721295D01*
X67375954Y-50911679D01*
X67330234Y-50920703D01*
X67324704Y-50921785D01*
X67295335Y-50927388D01*
X67254723Y-50935001D01*
X67207487Y-50943764D01*
X67158240Y-50952813D01*
X67138847Y-50956453D01*
X67095513Y-50965309D01*
X67059400Y-50973682D01*
X67033824Y-50980771D01*
X67022106Y-50985772D01*
X67016796Y-50993943D01*
X67007129Y-51015563D01*
X66997239Y-51043543D01*
X66993758Y-51054020D01*
X66980944Y-51088415D01*
X66964415Y-51129121D01*
X66946864Y-51169413D01*
X66937478Y-51190458D01*
X66924104Y-51221893D01*
X66914914Y-51245435D01*
X66911497Y-51257138D01*
X66911687Y-51258022D01*
X66918169Y-51270437D01*
X66932783Y-51294399D01*
X66954049Y-51327583D01*
X66980482Y-51367669D01*
X67010599Y-51412332D01*
X67109701Y-51557774D01*
X66979502Y-51688190D01*
X66966910Y-51700739D01*
X66928405Y-51738303D01*
X66893994Y-51770697D01*
X66865692Y-51796096D01*
X66845515Y-51812674D01*
X66835480Y-51818606D01*
X66824582Y-51814093D01*
X66801759Y-51801136D01*
X66769636Y-51781291D01*
X66730730Y-51756115D01*
X66687564Y-51727166D01*
X66645165Y-51698575D01*
X66606916Y-51673397D01*
X66575708Y-51653499D01*
X66553967Y-51640427D01*
X66544120Y-51635726D01*
X66543543Y-51635768D01*
X66530462Y-51640403D01*
X66507264Y-51651194D01*
X66478567Y-51666008D01*
X66478266Y-51666170D01*
X66440152Y-51685259D01*
X66414036Y-51694585D01*
X66397831Y-51694611D01*
X66389454Y-51685800D01*
X66385908Y-51677126D01*
X66376337Y-51653899D01*
X66361596Y-51618190D01*
X66342467Y-51571899D01*
X66319736Y-51516925D01*
X66294186Y-51455164D01*
X66266602Y-51388516D01*
X66241600Y-51327883D01*
X66216161Y-51265668D01*
X66193654Y-51210071D01*
X66174833Y-51162985D01*
X66160455Y-51126300D01*
X66151274Y-51101906D01*
X66148046Y-51091695D01*
X66154211Y-51082331D01*
X66171338Y-51066697D01*
X66195583Y-51048532D01*
X66253787Y-51001010D01*
X66305876Y-50940285D01*
X66343993Y-50873470D01*
X66367906Y-50802536D01*
X66377379Y-50729457D01*
X66372178Y-50656206D01*
X66352067Y-50584755D01*
X66316813Y-50517077D01*
X66266179Y-50455147D01*
X66239779Y-50431028D01*
X66176527Y-50388383D01*
X66108846Y-50360581D01*
X66038715Y-50346959D01*
X65968112Y-50346857D01*
X65899014Y-50359612D01*
X65833401Y-50384562D01*
X65773250Y-50421046D01*
X65720540Y-50468401D01*
X65677248Y-50525965D01*
X65645353Y-50593077D01*
X65626834Y-50669074D01*
X65623435Y-50705704D01*
X65628111Y-50785066D01*
X65649170Y-50860360D01*
X65685989Y-50930255D01*
X65737946Y-50993423D01*
X65804417Y-51048532D01*
X65827759Y-51065958D01*
X65845262Y-51081763D01*
X65851954Y-51091680D01*
X65849286Y-51100325D01*
X65840627Y-51123489D01*
X65826704Y-51159121D01*
X65808271Y-51205329D01*
X65786084Y-51260222D01*
X65760898Y-51321910D01*
X65733467Y-51388501D01*
X65708507Y-51448843D01*
X65682733Y-51511168D01*
X65659697Y-51566891D01*
X65640183Y-51614115D01*
X65624975Y-51650939D01*
X65614857Y-51675467D01*
X65610615Y-51685800D01*
X65610566Y-51685922D01*
X65602079Y-51694647D01*
X65585795Y-51694547D01*
X65559614Y-51685156D01*
X65521433Y-51666008D01*
X65518427Y-51664396D01*
X65490075Y-51649890D01*
X65467687Y-51639622D01*
X65455880Y-51635726D01*
X65446203Y-51640331D01*
X65424575Y-51653323D01*
X65393455Y-51673157D01*
X65355267Y-51698286D01*
X65312436Y-51727166D01*
X65270234Y-51755479D01*
X65231202Y-51780760D01*
X65198892Y-51800747D01*
X65175824Y-51813881D01*
X65164520Y-51818606D01*
X65162595Y-51818006D01*
X65149172Y-51808550D01*
X65126240Y-51789020D01*
X65095813Y-51761240D01*
X65059909Y-51727036D01*
X65020543Y-51688235D01*
X64890389Y-51557863D01*
X64991761Y-51408752D01*
X65093132Y-51259640D01*
X65062310Y-51192957D01*
X65062219Y-51192760D01*
X65043710Y-51150251D01*
X65024797Y-51102914D01*
X65009560Y-51060960D01*
X65007254Y-51054193D01*
X64995628Y-51022780D01*
X64985144Y-50998370D01*
X64977833Y-50985772D01*
X64974856Y-50983993D01*
X64956980Y-50978025D01*
X64926628Y-50970303D01*
X64887116Y-50961632D01*
X64841760Y-50952813D01*
X64828174Y-50950326D01*
X64779023Y-50941270D01*
X64733160Y-50932739D01*
X64695202Y-50925597D01*
X64669766Y-50920703D01*
X64624046Y-50911679D01*
X64624046Y-50721295D01*
X64624056Y-50697886D01*
X64624249Y-50640775D01*
X64624820Y-50598153D01*
X64625938Y-50567840D01*
X64627773Y-50547659D01*
X64630496Y-50535431D01*
X64634277Y-50528977D01*
X64639286Y-50526119D01*
X64644134Y-50524962D01*
X64663903Y-50520867D01*
X64695442Y-50514613D01*
X64735541Y-50506811D01*
X64780997Y-50498069D01*
X64828599Y-50489000D01*
X64875142Y-50480211D01*
X64917419Y-50472314D01*
X64952221Y-50465918D01*
X64976342Y-50461633D01*
X64986575Y-50460068D01*
X64987267Y-50459125D01*
X64992831Y-50446871D01*
X65002459Y-50423427D01*
X65014581Y-50392577D01*
X65031403Y-50351012D01*
X65052112Y-50302974D01*
X65071523Y-50260637D01*
X65075971Y-50251133D01*
X65088453Y-50221376D01*
X65095931Y-50198423D01*
X65096918Y-50186614D01*
X65096409Y-50185777D01*
X65088329Y-50173452D01*
X65072310Y-50149510D01*
X65049923Y-50116284D01*
X65022740Y-50076106D01*
X64992331Y-50031310D01*
X64958067Y-49980415D01*
X64932364Y-49940880D01*
X64914876Y-49911887D01*
X64904590Y-49891640D01*
X64900497Y-49878343D01*
X64901584Y-49870201D01*
X64901949Y-49869590D01*
X64911778Y-49857726D01*
X64931817Y-49836105D01*
X64960003Y-49806871D01*
X64994272Y-49772167D01*
X65032562Y-49734136D01*
X65072281Y-49695543D01*
X65111189Y-49659268D01*
X65139779Y-49634793D01*
X65158794Y-49621490D01*
X65168975Y-49618733D01*
X65170305Y-49619353D01*
X65184314Y-49627702D01*
X65209747Y-49644018D01*
X65244221Y-49666733D01*
X65285354Y-49694282D01*
X65330761Y-49725096D01*
X65478779Y-49826176D01*
X65545624Y-49795837D01*
X65547566Y-49794958D01*
X65588606Y-49777179D01*
X65632144Y-49759496D01*
X65669074Y-49745615D01*
X65669237Y-49745557D01*
X65698557Y-49734820D01*
X65721127Y-49725752D01*
X65732074Y-49720310D01*
X65732251Y-49720113D01*
X65735968Y-49708969D01*
X65742083Y-49683627D01*
X65750009Y-49646818D01*
X65759154Y-49601273D01*
X65768929Y-49549725D01*
X65769269Y-49547878D01*
X65779028Y-49495277D01*
X65787965Y-49447645D01*
X65795503Y-49408021D01*
X65801063Y-49379447D01*
X65804066Y-49364966D01*
X65804258Y-49364163D01*
X65806236Y-49357964D01*
X65810243Y-49353304D01*
X65818477Y-49349964D01*
X65833137Y-49347724D01*
X65856421Y-49346365D01*
X65890528Y-49345667D01*
X65937654Y-49345409D01*
X66000000Y-49345372D01*
X66007834Y-49345372D01*
X66068360Y-49345423D01*
G37*
%TO.C,SJ1*%
D11*
X64000000Y-30100000D02*
X64000000Y-29500000D01*
X64300000Y-29800000D02*
X64000000Y-29500000D01*
X64300000Y-29800000D02*
X64000000Y-30100000D01*
X64500000Y-26450000D02*
X64500000Y-30550000D01*
X64500000Y-30550000D02*
X66500000Y-30550000D01*
X66500000Y-26450000D02*
X64500000Y-26450000D01*
X66500000Y-30550000D02*
X66500000Y-26450000D01*
%TD*%
%LPC*%
%TO.C,SJ1*%
G36*
X64750000Y-27700000D02*
G01*
X66250000Y-27700000D01*
X66250000Y-29300000D01*
X64750000Y-29300000D01*
X64750000Y-27700000D01*
G37*
%TD*%
D13*
%TO.C,H3*%
X25000000Y-55000000D03*
%TD*%
%TO.C,H1*%
X25000000Y-25000000D03*
%TD*%
%TO.C,H4*%
X70000000Y-55000000D03*
%TD*%
%TO.C,H2*%
X70000000Y-25000000D03*
%TD*%
D14*
%TO.C,J1*%
X30500000Y-56400000D03*
D15*
X33040000Y-56400000D03*
X35580000Y-56400000D03*
X38120000Y-56400000D03*
X40660000Y-56400000D03*
X43200000Y-56400000D03*
X45740000Y-56400000D03*
X48280000Y-56400000D03*
X50820000Y-56400000D03*
X53360000Y-56400000D03*
X55900000Y-56400000D03*
X58440000Y-56400000D03*
X60980000Y-56400000D03*
X63520000Y-56400000D03*
%TD*%
D16*
%TO.C,TP4*%
X59500000Y-23500000D03*
%TD*%
%TO.C,TP3*%
X54000000Y-23500000D03*
%TD*%
%TO.C,TP5*%
X64000000Y-23500000D03*
%TD*%
%TO.C,TP1*%
X29500000Y-23500000D03*
%TD*%
%TO.C,TP2*%
X35000000Y-23500000D03*
%TD*%
D17*
%TO.C,SJ1*%
X65500000Y-29800000D03*
X65500000Y-28500000D03*
X65500000Y-27200000D03*
%TD*%
%LPD*%
M02*
