%TF.GenerationSoftware,KiCad,Pcbnew,10.0.3*%
%TF.CreationDate,2026-10-06T12:37:55+10:30*%
%TF.ProjectId,STPM33_Breakout,5354504d-3333-45f4-9272-65616b6f7574,A*%
%TF.SameCoordinates,Original*%
%TF.FileFunction,Soldermask,Top*%
%TF.FilePolarity,Negative*%
%FSLAX46Y46*%
G04 Gerber Fmt 4.6, Leading zero omitted, Abs format (unit mm)*
G04 Created by KiCad (PCBNEW 10.0.3) date 2026-10-06 12:37:55*
%MOMM*%
%LPD*%
G01*
G04 APERTURE LIST*
G04 Aperture macros list*
%AMRoundRect*
0 Rectangle with rounded corners*
0 $1 Rounding radius*
0 $2 $3 $4 $5 $6 $7 $8 $9 X,Y pos of 4 corners*
0 Add a 4 corners polygon primitive as box body*
4,1,4,$2,$3,$4,$5,$6,$7,$8,$9,$2,$3,0*
0 Add four circle primitives for the rounded corners*
1,1,$1+$1,$2,$3*
1,1,$1+$1,$4,$5*
1,1,$1+$1,$6,$7*
1,1,$1+$1,$8,$9*
0 Add four rect primitives between the rounded corners*
20,1,$1+$1,$2,$3,$4,$5,0*
20,1,$1+$1,$4,$5,$6,$7,0*
20,1,$1+$1,$6,$7,$8,$9,0*
20,1,$1+$1,$8,$9,$2,$3,0*%
G04 Aperture macros list end*
%ADD10RoundRect,0.200000X-0.200000X-0.275000X0.200000X-0.275000X0.200000X0.275000X-0.200000X0.275000X0*%
%ADD11C,2.200000*%
%ADD12RoundRect,0.225000X0.250000X-0.225000X0.250000X0.225000X-0.250000X0.225000X-0.250000X-0.225000X0*%
%ADD13RoundRect,0.062500X-0.375000X-0.062500X0.375000X-0.062500X0.375000X0.062500X-0.375000X0.062500X0*%
%ADD14RoundRect,0.062500X-0.062500X-0.375000X0.062500X-0.375000X0.062500X0.375000X-0.062500X0.375000X0*%
%ADD15R,3.450000X3.450000*%
%ADD16RoundRect,0.250000X0.475000X-0.250000X0.475000X0.250000X-0.475000X0.250000X-0.475000X-0.250000X0*%
%ADD17R,1.500000X1.500000*%
%ADD18RoundRect,0.250000X-0.450000X-0.350000X0.450000X-0.350000X0.450000X0.350000X-0.450000X0.350000X0*%
%ADD19R,1.700000X1.700000*%
%ADD20C,1.700000*%
G04 APERTURE END LIST*
D10*
%TO.C,R9*%
X31175000Y-49000000D03*
X32825000Y-49000000D03*
%TD*%
%TO.C,R4*%
X33175000Y-38700000D03*
X34825000Y-38700000D03*
%TD*%
%TO.C,R10*%
X35675000Y-49000000D03*
X37325000Y-49000000D03*
%TD*%
D11*
%TO.C,H3*%
X25000000Y-55000000D03*
%TD*%
D12*
%TO.C,C4*%
X39000000Y-39475000D03*
X39000000Y-37925000D03*
%TD*%
D10*
%TO.C,R2*%
X33175000Y-31200000D03*
X34825000Y-31200000D03*
%TD*%
D12*
%TO.C,C2*%
X39000000Y-31975000D03*
X39000000Y-30425000D03*
%TD*%
D11*
%TO.C,H1*%
X25000000Y-25000000D03*
%TD*%
D13*
%TO.C,U1*%
X46562500Y-35250000D03*
X46562500Y-35750000D03*
X46562500Y-36250000D03*
X46562500Y-36750000D03*
X46562500Y-37250000D03*
X46562500Y-37750000D03*
X46562500Y-38250000D03*
X46562500Y-38750000D03*
D14*
X47250000Y-39437500D03*
X47750000Y-39437500D03*
X48250000Y-39437500D03*
X48750000Y-39437500D03*
X49250000Y-39437500D03*
X49750000Y-39437500D03*
X50250000Y-39437500D03*
X50750000Y-39437500D03*
D13*
X51437500Y-38750000D03*
X51437500Y-38250000D03*
X51437500Y-37750000D03*
X51437500Y-37250000D03*
X51437500Y-36750000D03*
X51437500Y-36250000D03*
X51437500Y-35750000D03*
X51437500Y-35250000D03*
D14*
X50750000Y-34562500D03*
X50250000Y-34562500D03*
X49750000Y-34562500D03*
X49250000Y-34562500D03*
X48750000Y-34562500D03*
X48250000Y-34562500D03*
X47750000Y-34562500D03*
X47250000Y-34562500D03*
D15*
X49000000Y-37000000D03*
%TD*%
D12*
%TO.C,C15*%
X52500000Y-45975000D03*
X52500000Y-44425000D03*
%TD*%
D10*
%TO.C,R3*%
X33175000Y-35300000D03*
X34825000Y-35300000D03*
%TD*%
%TO.C,R1*%
X33175000Y-27800000D03*
X34825000Y-27800000D03*
%TD*%
D11*
%TO.C,H4*%
X70000000Y-55000000D03*
%TD*%
D16*
%TO.C,C11*%
X57500000Y-39950000D03*
X57500000Y-38050000D03*
%TD*%
D10*
%TO.C,RB1*%
X27675000Y-29500000D03*
X29325000Y-29500000D03*
%TD*%
D17*
%TO.C,SW1*%
X69000000Y-40400000D03*
X69000000Y-32600000D03*
%TD*%
D10*
%TO.C,R7*%
X35675000Y-44000000D03*
X37325000Y-44000000D03*
%TD*%
%TO.C,R13*%
X63175000Y-34000000D03*
X64825000Y-34000000D03*
%TD*%
D12*
%TO.C,C13*%
X47200000Y-24575000D03*
X47200000Y-23025000D03*
%TD*%
D18*
%TO.C,Y1*%
X42900000Y-25650000D03*
X45100000Y-25650000D03*
X45100000Y-23950000D03*
X42900000Y-23950000D03*
%TD*%
D10*
%TO.C,R8*%
X26675000Y-49000000D03*
X28325000Y-49000000D03*
%TD*%
D12*
%TO.C,C14*%
X47200000Y-27775000D03*
X47200000Y-26225000D03*
%TD*%
D10*
%TO.C,RB2*%
X27675000Y-37000000D03*
X29325000Y-37000000D03*
%TD*%
D11*
%TO.C,H2*%
X70000000Y-25000000D03*
%TD*%
D19*
%TO.C,J1*%
X30500000Y-56400000D03*
D20*
X33040000Y-56400000D03*
X35580000Y-56400000D03*
X38120000Y-56400000D03*
X40660000Y-56400000D03*
X43200000Y-56400000D03*
X45740000Y-56400000D03*
X48280000Y-56400000D03*
X50820000Y-56400000D03*
X53360000Y-56400000D03*
X55900000Y-56400000D03*
X58440000Y-56400000D03*
X60980000Y-56400000D03*
X63520000Y-56400000D03*
%TD*%
D12*
%TO.C,C5*%
X44500000Y-44775000D03*
X44500000Y-43225000D03*
%TD*%
D10*
%TO.C,R14*%
X61675000Y-41000000D03*
X63325000Y-41000000D03*
%TD*%
%TO.C,R6*%
X31175000Y-44000000D03*
X32825000Y-44000000D03*
%TD*%
D12*
%TO.C,C1*%
X39000000Y-28575000D03*
X39000000Y-27025000D03*
%TD*%
D10*
%TO.C,R12*%
X40175000Y-49000000D03*
X41825000Y-49000000D03*
%TD*%
%TO.C,R11*%
X40175000Y-44000000D03*
X41825000Y-44000000D03*
%TD*%
D12*
%TO.C,C3*%
X39000000Y-36075000D03*
X39000000Y-34525000D03*
%TD*%
D16*
%TO.C,C9*%
X56500000Y-31450000D03*
X56500000Y-29550000D03*
%TD*%
%TO.C,C10*%
X57500000Y-35450000D03*
X57500000Y-33550000D03*
%TD*%
D10*
%TO.C,R5*%
X26675000Y-44000000D03*
X28325000Y-44000000D03*
%TD*%
D12*
%TO.C,C12*%
X47000000Y-45975000D03*
X47000000Y-44425000D03*
%TD*%
%TO.C,C6*%
X44500000Y-49775000D03*
X44500000Y-48225000D03*
%TD*%
M02*
