%TF.GenerationSoftware,KiCad,Pcbnew,10.0.3*%
%TF.CreationDate,2026-10-06T10:20:21+10:30*%
%TF.ProjectId,STPM32_Breakout,5354504d-3332-45f4-9272-65616b6f7574,B*%
%TF.SameCoordinates,Original*%
%TF.FileFunction,Copper,L1,Top*%
%TF.FilePolarity,Positive*%
%FSLAX46Y46*%
G04 Gerber Fmt 4.6, Leading zero omitted, Abs format (unit mm)*
G04 Created by KiCad (PCBNEW 10.0.3) date 2026-10-06 10:20:21*
%MOMM*%
%LPD*%
G01*
G04 APERTURE LIST*
G04 Aperture macros list*
%AMRoundRect*
0 Rectangle with rounded corners*
0 $1 Rounding radius*
0 $2 $3 $4 $5 $6 $7 $8 $9 X,Y pos of 4 corners*
0 Add a 4 corners polygon primitive as box body*
4,1,4,$2,$3,$4,$5,$6,$7,$8,$9,$2,$3,0*
0 Add four circle primitives for the rounded corners*
1,1,$1+$1,$2,$3*
1,1,$1+$1,$4,$5*
1,1,$1+$1,$6,$7*
1,1,$1+$1,$8,$9*
0 Add four rect primitives between the rounded corners*
20,1,$1+$1,$2,$3,$4,$5,0*
20,1,$1+$1,$4,$5,$6,$7,0*
20,1,$1+$1,$6,$7,$8,$9,0*
20,1,$1+$1,$8,$9,$2,$3,0*%
G04 Aperture macros list end*
%TA.AperFunction,EtchedComponent*%
%ADD10C,0.000000*%
%TD*%
%TA.AperFunction,SMDPad,CuDef*%
%ADD11RoundRect,0.250000X-0.450000X-0.350000X0.450000X-0.350000X0.450000X0.350000X-0.450000X0.350000X0*%
%TD*%
%TA.AperFunction,SMDPad,CuDef*%
%ADD12RoundRect,0.225000X0.250000X-0.225000X0.250000X0.225000X-0.250000X0.225000X-0.250000X-0.225000X0*%
%TD*%
%TA.AperFunction,SMDPad,CuDef*%
%ADD13RoundRect,0.225000X-0.225000X-0.250000X0.225000X-0.250000X0.225000X0.250000X-0.225000X0.250000X0*%
%TD*%
%TA.AperFunction,SMDPad,CuDef*%
%ADD14RoundRect,0.200000X0.275000X-0.200000X0.275000X0.200000X-0.275000X0.200000X-0.275000X-0.200000X0*%
%TD*%
%TA.AperFunction,SMDPad,CuDef*%
%ADD15RoundRect,0.250000X0.475000X-0.250000X0.475000X0.250000X-0.475000X0.250000X-0.475000X-0.250000X0*%
%TD*%
%TA.AperFunction,SMDPad,CuDef*%
%ADD16C,0.500000*%
%TD*%
%TA.AperFunction,SMDPad,CuDef*%
%ADD17RoundRect,0.200000X-0.200000X-0.275000X0.200000X-0.275000X0.200000X0.275000X-0.200000X0.275000X0*%
%TD*%
%TA.AperFunction,SMDPad,CuDef*%
%ADD18R,1.500000X1.500000*%
%TD*%
%TA.AperFunction,ComponentPad*%
%ADD19R,1.700000X1.700000*%
%TD*%
%TA.AperFunction,ComponentPad*%
%ADD20C,1.700000*%
%TD*%
%TA.AperFunction,SMDPad,CuDef*%
%ADD21RoundRect,0.062500X-0.325000X-0.062500X0.325000X-0.062500X0.325000X0.062500X-0.325000X0.062500X0*%
%TD*%
%TA.AperFunction,SMDPad,CuDef*%
%ADD22RoundRect,0.062500X-0.062500X-0.325000X0.062500X-0.325000X0.062500X0.325000X-0.062500X0.325000X0*%
%TD*%
%TA.AperFunction,HeatsinkPad*%
%ADD23R,2.450000X2.450000*%
%TD*%
%TA.AperFunction,ViaPad*%
%ADD24C,0.600000*%
%TD*%
%TA.AperFunction,Conductor*%
%ADD25C,0.150000*%
%TD*%
%TA.AperFunction,Conductor*%
%ADD26C,0.200000*%
%TD*%
G04 APERTURE END LIST*
D10*
%TA.AperFunction,EtchedComponent*%
%TO.C,NT1*%
G36*
X50350000Y-36100000D02*
G01*
X49850000Y-36100000D01*
X49850000Y-34100000D01*
X50350000Y-34100000D01*
X50350000Y-36100000D01*
G37*
%TD.AperFunction*%
%TD*%
D11*
%TO.P,Y1,1*%
%TO.N,XTAL1*%
X35700000Y-25350000D03*
%TO.P,Y1,2*%
%TO.N,XTAL2*%
X37900000Y-25350000D03*
%TO.P,Y1,3*%
%TO.N,N/C*%
X37900000Y-23650000D03*
%TO.P,Y1,4*%
X35700000Y-23650000D03*
%TD*%
D12*
%TO.P,C1,1*%
%TO.N,IIP1*%
X40200000Y-36875000D03*
%TO.P,C1,2*%
%TO.N,AGND*%
X40200000Y-35325000D03*
%TD*%
D13*
%TO.P,C12,1*%
%TO.N,VREF1*%
X46625000Y-34700000D03*
%TO.P,C12,2*%
%TO.N,GND_REF*%
X48175000Y-34700000D03*
%TD*%
D14*
%TO.P,R3,1*%
%TO.N,VAC_P*%
X29750000Y-42475000D03*
%TO.P,R3,2*%
%TO.N,VAC_P_MID*%
X29750000Y-40825000D03*
%TD*%
D15*
%TO.P,C10,1*%
%TO.N,VDDA*%
X49000000Y-32950000D03*
%TO.P,C10,2*%
%TO.N,AGND*%
X49000000Y-31050000D03*
%TD*%
D12*
%TO.P,C14,1*%
%TO.N,XTAL2*%
X40500000Y-28075000D03*
%TO.P,C14,2*%
%TO.N,DGND*%
X40500000Y-26525000D03*
%TD*%
D15*
%TO.P,C11,1*%
%TO.N,VDDD*%
X46800000Y-25250000D03*
%TO.P,C11,2*%
%TO.N,DGND*%
X46800000Y-23350000D03*
%TD*%
D16*
%TO.P,NT1,1*%
%TO.N,AGND*%
X50100000Y-36100000D03*
%TO.P,NT1,2*%
%TO.N,GND_REF*%
X50100000Y-35100000D03*
%TO.P,NT1,3*%
%TO.N,DGND*%
X50100000Y-34100000D03*
%TD*%
D14*
%TO.P,R6,1*%
%TO.N,VAC_N*%
X32550000Y-42475000D03*
%TO.P,R6,2*%
%TO.N,VAC_N_MID*%
X32550000Y-40825000D03*
%TD*%
D17*
%TO.P,R12,1*%
%TO.N,SCS*%
X43975000Y-41000000D03*
%TO.P,R12,2*%
%TO.N,MODE_BIAS*%
X45625000Y-41000000D03*
%TD*%
D12*
%TO.P,C3,1*%
%TO.N,VIP1*%
X38000000Y-36575000D03*
%TO.P,C3,2*%
%TO.N,AGND*%
X38000000Y-35025000D03*
%TD*%
D18*
%TO.P,SW1,1*%
%TO.N,EN*%
X54200000Y-38100000D03*
%TO.P,SW1,2*%
%TO.N,DGND*%
X54200000Y-30300000D03*
%TD*%
D14*
%TO.P,R1,1*%
%TO.N,CT_P*%
X36200000Y-40075000D03*
%TO.P,R1,2*%
%TO.N,IIP1*%
X36200000Y-38425000D03*
%TD*%
D17*
%TO.P,RB1,1*%
%TO.N,CT_P*%
X35605000Y-42450000D03*
%TO.P,RB1,2*%
%TO.N,CT_N*%
X37255000Y-42450000D03*
%TD*%
%TO.P,R10,1*%
%TO.N,VDIV_N*%
X34375000Y-32700000D03*
%TO.P,R10,2*%
%TO.N,VIN1*%
X36025000Y-32700000D03*
%TD*%
%TO.P,R5,1*%
%TO.N,VDIV_P*%
X26375000Y-36450000D03*
%TO.P,R5,2*%
%TO.N,AGND*%
X28025000Y-36450000D03*
%TD*%
D12*
%TO.P,C13,1*%
%TO.N,XTAL1*%
X40500000Y-24375000D03*
%TO.P,C13,2*%
%TO.N,DGND*%
X40500000Y-22825000D03*
%TD*%
D14*
%TO.P,R7,1*%
%TO.N,VAC_N_MID*%
X32550000Y-39475000D03*
%TO.P,R7,2*%
%TO.N,VDIV_N*%
X32550000Y-37825000D03*
%TD*%
D17*
%TO.P,R9,1*%
%TO.N,VDIV_P*%
X34075000Y-36450000D03*
%TO.P,R9,2*%
%TO.N,VIP1*%
X35725000Y-36450000D03*
%TD*%
%TO.P,R11,1*%
%TO.N,+3V3*%
X49475000Y-38200000D03*
%TO.P,R11,2*%
%TO.N,EN*%
X51125000Y-38200000D03*
%TD*%
D14*
%TO.P,R2,1*%
%TO.N,CT_N*%
X38500000Y-40075000D03*
%TO.P,R2,2*%
%TO.N,IIN1*%
X38500000Y-38425000D03*
%TD*%
D15*
%TO.P,C9,1*%
%TO.N,+3V3*%
X49000000Y-28950000D03*
%TO.P,C9,2*%
%TO.N,DGND*%
X49000000Y-27050000D03*
%TD*%
D19*
%TO.P,J1,1*%
%TO.N,+3V3*%
X25000000Y-45300000D03*
D20*
%TO.P,J1,2*%
%TO.N,DGND*%
X27540000Y-45300000D03*
%TO.P,J1,3*%
%TO.N,VAC_P*%
X30080000Y-45300000D03*
%TO.P,J1,4*%
%TO.N,VAC_N*%
X32620000Y-45300000D03*
%TO.P,J1,5*%
%TO.N,CT_P*%
X35160000Y-45300000D03*
%TO.P,J1,6*%
%TO.N,CT_N*%
X37700000Y-45300000D03*
%TO.P,J1,7*%
%TO.N,SCS*%
X40240000Y-45300000D03*
%TO.P,J1,8*%
%TO.N,SCL*%
X42780000Y-45300000D03*
%TO.P,J1,9*%
%TO.N,MOSI_RXD*%
X45320000Y-45300000D03*
%TO.P,J1,10*%
%TO.N,MISO_TXD*%
X47860000Y-45300000D03*
%TO.P,J1,11*%
%TO.N,SYN*%
X50400000Y-45300000D03*
%TO.P,J1,12*%
%TO.N,EN*%
X52940000Y-45300000D03*
%TD*%
D12*
%TO.P,C2,1*%
%TO.N,IIN1*%
X42000000Y-37075000D03*
%TO.P,C2,2*%
%TO.N,AGND*%
X42000000Y-35525000D03*
%TD*%
%TO.P,C4,1*%
%TO.N,VIN1*%
X38200000Y-33575000D03*
%TO.P,C4,2*%
%TO.N,AGND*%
X38200000Y-32025000D03*
%TD*%
D21*
%TO.P,U1,1*%
%TO.N,CLKOUT_ZCR*%
X42012500Y-29650000D03*
%TO.P,U1,2*%
%TO.N,XTAL2*%
X42012500Y-30150000D03*
%TO.P,U1,3*%
%TO.N,XTAL1*%
X42012500Y-30650000D03*
%TO.P,U1,4*%
%TO.N,LED1*%
X42012500Y-31150000D03*
%TO.P,U1,5*%
%TO.N,LED2*%
X42012500Y-31650000D03*
%TO.P,U1,6*%
%TO.N,INT1*%
X42012500Y-32150000D03*
D22*
%TO.P,U1,7*%
%TO.N,EN*%
X42750000Y-32887500D03*
%TO.P,U1,8*%
%TO.N,VIP1*%
X43250000Y-32887500D03*
%TO.P,U1,9*%
%TO.N,VIN1*%
X43750000Y-32887500D03*
%TO.P,U1,10*%
%TO.N,IIP1*%
X44250000Y-32887500D03*
%TO.P,U1,11*%
%TO.N,IIN1*%
X44750000Y-32887500D03*
%TO.P,U1,12*%
%TO.N,VREF1*%
X45250000Y-32887500D03*
D21*
%TO.P,U1,13*%
%TO.N,GND_REF*%
X45987500Y-32150000D03*
%TO.P,U1,14*%
%TO.N,AGND*%
X45987500Y-31650000D03*
%TO.P,U1,15*%
%TO.N,VDDA*%
X45987500Y-31150000D03*
%TO.P,U1,16*%
%TO.N,AGND*%
X45987500Y-30650000D03*
%TO.P,U1,17*%
%TO.N,+3V3*%
X45987500Y-30150000D03*
%TO.P,U1,18*%
%TO.N,DGND*%
X45987500Y-29650000D03*
D22*
%TO.P,U1,19*%
%TO.N,VDDD*%
X45250000Y-28912500D03*
%TO.P,U1,20*%
%TO.N,SYN*%
X44750000Y-28912500D03*
%TO.P,U1,21*%
%TO.N,SCS*%
X44250000Y-28912500D03*
%TO.P,U1,22*%
%TO.N,SCL*%
X43750000Y-28912500D03*
%TO.P,U1,23*%
%TO.N,MOSI_RXD*%
X43250000Y-28912500D03*
%TO.P,U1,24*%
%TO.N,MISO_TXD*%
X42750000Y-28912500D03*
D23*
%TO.P,U1,25*%
%TO.N,N/C*%
X44000000Y-30900000D03*
%TD*%
D14*
%TO.P,R4,1*%
%TO.N,VAC_P_MID*%
X29750000Y-39475000D03*
%TO.P,R4,2*%
%TO.N,VDIV_P*%
X29750000Y-37825000D03*
%TD*%
D17*
%TO.P,R8,1*%
%TO.N,VDIV_N*%
X29075000Y-34150000D03*
%TO.P,R8,2*%
%TO.N,AGND*%
X30725000Y-34150000D03*
%TD*%
D24*
%TO.N,XTAL1*%
X40727100Y-30895900D03*
X36964900Y-26269600D03*
%TO.N,AGND*%
X39641300Y-38817300D03*
X35200000Y-34150000D03*
X31032100Y-37134200D03*
%TO.N,GND_REF*%
X44403300Y-39035400D03*
X44891900Y-35837900D03*
%TO.N,DGND*%
X54000000Y-28000000D03*
%TO.N,SCS*%
X45068800Y-27521000D03*
X47669400Y-39908700D03*
%TO.N,MODE_BIAS*%
X53500000Y-42600000D03*
%TO.N,VIP1*%
X39184300Y-33571200D03*
X36460300Y-35714700D03*
%TO.N,EN*%
X51125000Y-39159900D03*
X42131700Y-32887500D03*
%TO.N,+3V3*%
X48592000Y-38256000D03*
X48851400Y-29939900D03*
%TO.N,SCL*%
X43748900Y-28018100D03*
%TO.N,MOSI_RXD*%
X42284600Y-28191200D03*
%TO.N,MISO_TXD*%
X42114800Y-29001100D03*
%TO.N,SYN*%
X45678200Y-28111300D03*
%TO.N,CLKOUT_ZCR*%
X41329100Y-27417800D03*
%TO.N,LED1*%
X34136300Y-30536300D03*
%TO.N,LED2*%
X37114700Y-31150000D03*
%TO.N,INT1*%
X39159000Y-32271400D03*
%TD*%
%TO.N,XTAL1*%
D25*
X36681200Y-24150800D02*
X36800000Y-24032000D01*
D26*
X41185900Y-30555400D02*
X40845400Y-30895900D01*
X39681100Y-23556100D02*
X40500000Y-24375000D01*
D25*
X38881200Y-22756200D02*
X39681100Y-23556100D01*
X41185900Y-30555400D02*
X41917900Y-30555400D01*
D26*
X35700000Y-25322200D02*
X36681200Y-24341000D01*
X35700000Y-25350000D02*
X35700000Y-25322200D01*
X35700000Y-25350000D02*
X36619600Y-26269600D01*
X36619600Y-26269600D02*
X36964900Y-26269600D01*
X40845400Y-30895900D02*
X40727100Y-30895900D01*
X37239500Y-22756200D02*
X38881200Y-22756200D01*
D25*
X41917900Y-30555400D02*
X42012500Y-30650000D01*
D26*
X36800000Y-24032000D02*
X36800000Y-23195700D01*
D25*
X36681200Y-24341000D02*
X36681200Y-24150800D01*
D26*
X36800000Y-23195700D02*
X37239500Y-22756200D01*
%TO.N,XTAL2*%
X37900000Y-25350000D02*
X38391500Y-25841500D01*
X40500000Y-29026000D02*
X41624000Y-30150000D01*
D25*
X40319900Y-27256100D02*
X40500000Y-27436200D01*
D26*
X40500000Y-27436200D02*
X40500000Y-28075000D01*
X41624000Y-30150000D02*
X42012500Y-30150000D01*
D25*
X38391500Y-27256100D02*
X40319900Y-27256100D01*
D26*
X38391500Y-25841500D02*
X38391500Y-27256100D01*
X40500000Y-28075000D02*
X40500000Y-29026000D01*
%TO.N,IIP1*%
X39464800Y-37610200D02*
X37014800Y-37610200D01*
X40200000Y-36875000D02*
X39464800Y-37610200D01*
X40775000Y-36300000D02*
X42418500Y-36300000D01*
X44250000Y-34468500D02*
X44250000Y-32887500D01*
X42418500Y-36300000D02*
X44250000Y-34468500D01*
X40200000Y-36875000D02*
X40775000Y-36300000D01*
X37014800Y-37610200D02*
X36200000Y-38425000D01*
%TO.N,AGND*%
X50100000Y-36100000D02*
X49158000Y-35158000D01*
X38072900Y-31897900D02*
X38200000Y-32025000D01*
X35319400Y-34150000D02*
X35319400Y-32217400D01*
X28025000Y-36450000D02*
X28709200Y-37134200D01*
X38000000Y-35025000D02*
X37125000Y-34150000D01*
X48394900Y-31050000D02*
X48089500Y-30744600D01*
X49221700Y-34080200D02*
X49158000Y-34143900D01*
X40200000Y-35325000D02*
X38300000Y-35325000D01*
D25*
X49569800Y-33732100D02*
X49221700Y-34080200D01*
X49706100Y-33732100D02*
X49569800Y-33732100D01*
X48795800Y-33781700D02*
X49158000Y-34143900D01*
X48089500Y-30744600D02*
X46082100Y-30744600D01*
D26*
X35319400Y-32217400D02*
X35638900Y-31897900D01*
X49000000Y-31050000D02*
X48394900Y-31050000D01*
X44172600Y-38435600D02*
X43790900Y-38817300D01*
X30725000Y-34150000D02*
X35200000Y-34150000D01*
X49158000Y-35158000D02*
X49158000Y-34143900D01*
D25*
X46082300Y-31744600D02*
X46855800Y-31744600D01*
D26*
X37125000Y-34150000D02*
X35319400Y-34150000D01*
X45880400Y-38435600D02*
X44172600Y-38435600D01*
X35638900Y-31897900D02*
X38072900Y-31897900D01*
X46039200Y-31701700D02*
X46039400Y-31701700D01*
D25*
X46082100Y-30744600D02*
X45987500Y-30650000D01*
D26*
X40400000Y-35525000D02*
X42000000Y-35525000D01*
X49000000Y-31050000D02*
X50052600Y-32102600D01*
X46855800Y-31744600D02*
X46855800Y-32291100D01*
X28709200Y-37134200D02*
X31032100Y-37134200D01*
D25*
X46039400Y-31701700D02*
X46082300Y-31744600D01*
X48346400Y-33781700D02*
X48795800Y-33781700D01*
D26*
X46855800Y-32291100D02*
X48346400Y-33781700D01*
X35200000Y-34150000D02*
X35319400Y-34150000D01*
X49158000Y-35158000D02*
X45880400Y-38435600D01*
X50052600Y-32102600D02*
X50052600Y-33385600D01*
X50052600Y-33385600D02*
X49706100Y-33732100D01*
X38300000Y-35325000D02*
X38000000Y-35025000D01*
X40200000Y-35325000D02*
X40400000Y-35525000D01*
X43790900Y-38817300D02*
X39641300Y-38817300D01*
X45987500Y-31650000D02*
X46039200Y-31701700D01*
%TO.N,VREF1*%
X45250000Y-33325000D02*
X45250000Y-32887500D01*
X46625000Y-34700000D02*
X45250000Y-33325000D01*
%TO.N,GND_REF*%
X50662900Y-36372500D02*
X50662900Y-35662900D01*
X50114500Y-36920900D02*
X50662900Y-36372500D01*
X44403300Y-39035400D02*
X44621400Y-38817300D01*
X47037100Y-35837900D02*
X44891900Y-35837900D01*
X50662900Y-35662900D02*
X50100000Y-35100000D01*
X47962500Y-36920900D02*
X50114500Y-36920900D01*
X45987500Y-32512500D02*
X48175000Y-34700000D01*
X48175000Y-34700000D02*
X47037100Y-35837900D01*
X45987500Y-32150000D02*
X45987500Y-32512500D01*
X44621400Y-38817300D02*
X46066100Y-38817300D01*
X46066100Y-38817300D02*
X47962500Y-36920900D01*
%TO.N,VAC_P*%
X30080000Y-45300000D02*
X30080000Y-42805000D01*
X30080000Y-42805000D02*
X29750000Y-42475000D01*
%TO.N,VAC_P_MID*%
X29750000Y-40825000D02*
X29750000Y-39475000D01*
%TO.N,VDDA*%
X47200000Y-31150000D02*
X45987500Y-31150000D01*
X49000000Y-32950000D02*
X47200000Y-31150000D01*
%TO.N,DGND*%
X46800000Y-23350000D02*
X41571200Y-23350000D01*
X48587500Y-27050000D02*
X45987500Y-29650000D01*
X48587500Y-25137500D02*
X46800000Y-23350000D01*
X53304000Y-30300000D02*
X53168300Y-30300000D01*
X49000000Y-27050000D02*
X48587500Y-27050000D01*
X50054000Y-27050000D02*
X49000000Y-27050000D01*
X40500000Y-22825000D02*
X41298100Y-23623100D01*
X41298100Y-25726900D02*
X40500000Y-26525000D01*
X53168300Y-31031700D02*
X50100000Y-34100000D01*
X48587500Y-27050000D02*
X48587500Y-25137500D01*
X54200000Y-30300000D02*
X53684200Y-30300000D01*
X53304000Y-30300000D02*
X50054000Y-27050000D01*
X41298100Y-23623100D02*
X41298100Y-25726900D01*
X53168300Y-30300000D02*
X53168300Y-31031700D01*
X53684200Y-30300000D02*
X53304000Y-30300000D01*
X41571200Y-23350000D02*
X41298100Y-23623100D01*
X54000000Y-28000000D02*
X54200000Y-30300000D01*
%TO.N,VDDD*%
X45250000Y-28912500D02*
X45701300Y-28912500D01*
X45701300Y-28912500D02*
X46800000Y-27813800D01*
X46800000Y-27813800D02*
X46800000Y-25250000D01*
%TO.N,VAC_N*%
X32550000Y-45230000D02*
X32550000Y-42475000D01*
X32620000Y-45300000D02*
X32550000Y-45230000D01*
%TO.N,VAC_N_MID*%
X32550000Y-39475000D02*
X32550000Y-40825000D01*
%TO.N,SCS*%
X45068800Y-27521000D02*
X44250000Y-28339800D01*
X43975000Y-41000000D02*
X45066300Y-39908700D01*
X40240000Y-44735000D02*
X43975000Y-41000000D01*
X45066300Y-39908700D02*
X47669400Y-39908700D01*
X40240000Y-45300000D02*
X40240000Y-44735000D01*
X44250000Y-28339800D02*
X44250000Y-28912500D01*
%TO.N,MODE_BIAS*%
X48000000Y-42600000D02*
X45625000Y-41000000D01*
X53500000Y-42600000D02*
X48000000Y-42600000D01*
%TO.N,VIP1*%
X43250000Y-33276300D02*
X42955100Y-33571200D01*
X35725000Y-36450000D02*
X36460300Y-35714700D01*
X42955100Y-33571200D02*
X39184300Y-33571200D01*
X43250000Y-32887500D02*
X43250000Y-33276300D01*
X35725000Y-36450000D02*
X37875000Y-36450000D01*
X37875000Y-36450000D02*
X38000000Y-36575000D01*
%TO.N,EN*%
X54200000Y-38100000D02*
X51225000Y-38100000D01*
X51125000Y-39159900D02*
X51125000Y-38200000D01*
X51225000Y-38100000D02*
X51125000Y-38200000D01*
X42750000Y-32887500D02*
X42131700Y-32887500D01*
%TO.N,CT_P*%
X35605000Y-44855000D02*
X35605000Y-42450000D01*
X35160000Y-45300000D02*
X35605000Y-44855000D01*
X35605000Y-42450000D02*
X35605000Y-40670000D01*
X35605000Y-40670000D02*
X36200000Y-40075000D01*
%TO.N,CT_N*%
X37255000Y-42450000D02*
X38500000Y-41205000D01*
X37700000Y-45300000D02*
X37255000Y-44855000D01*
X37255000Y-44855000D02*
X37255000Y-42450000D01*
X38500000Y-41205000D02*
X38500000Y-40075000D01*
%TO.N,VDIV_N*%
X30525000Y-32700000D02*
X29075000Y-34150000D01*
X32550000Y-37825000D02*
X29075000Y-34350000D01*
X29075000Y-34350000D02*
X29075000Y-34150000D01*
X34375000Y-32700000D02*
X30525000Y-32700000D01*
%TO.N,VIN1*%
D25*
X36025000Y-32756100D02*
X37381100Y-32756100D01*
D26*
X42963300Y-34152900D02*
X43750000Y-33366200D01*
X43750000Y-33366200D02*
X43750000Y-32887500D01*
X36025000Y-32700000D02*
X36025000Y-32756100D01*
X38200000Y-33575000D02*
X38777900Y-34152900D01*
D25*
X37381100Y-32756100D02*
X38200000Y-33575000D01*
D26*
X38777900Y-34152900D02*
X42963300Y-34152900D01*
%TO.N,VDIV_P*%
X34075000Y-37510600D02*
X34075000Y-36450000D01*
X29750000Y-37825000D02*
X31303200Y-37825000D01*
X32935600Y-38650000D02*
X34075000Y-37510600D01*
D25*
X31984200Y-38506000D02*
X32174400Y-38506000D01*
D26*
X27750000Y-37825000D02*
X29750000Y-37825000D01*
X31303200Y-37825000D02*
X31984200Y-38506000D01*
X32318400Y-38650000D02*
X32935600Y-38650000D01*
X26375000Y-36450000D02*
X27750000Y-37825000D01*
D25*
X32174400Y-38506000D02*
X32318400Y-38650000D01*
%TO.N,+3V3*%
D26*
X44644300Y-39617100D02*
X44862400Y-39399000D01*
X47800000Y-30150000D02*
X48430800Y-29519200D01*
X25000000Y-45300000D02*
X26131700Y-45300000D01*
X26131700Y-45300000D02*
X26131700Y-44875600D01*
X46895700Y-39399000D02*
X48038700Y-38256000D01*
X26131700Y-44875600D02*
X29357300Y-41650000D01*
X48038700Y-38256000D02*
X48592000Y-38256000D01*
X35617700Y-39335900D02*
X39331000Y-39335900D01*
X39612200Y-39617100D02*
X44644300Y-39617100D01*
X39331000Y-39335900D02*
X39612200Y-39617100D01*
X48430800Y-29519200D02*
X49000000Y-28950000D01*
X29357300Y-41650000D02*
X33303600Y-41650000D01*
X49419000Y-38256000D02*
X49475000Y-38200000D01*
X48851400Y-29939900D02*
X48430800Y-29519200D01*
X45987500Y-30150000D02*
X47800000Y-30150000D01*
X48592000Y-38256000D02*
X49419000Y-38256000D01*
X44862400Y-39399000D02*
X46895700Y-39399000D01*
X33303600Y-41650000D02*
X35617700Y-39335900D01*
%TO.N,IIN1*%
X42000000Y-37075000D02*
X40839400Y-38235600D01*
X44750000Y-34548400D02*
X42223400Y-37075000D01*
X44750000Y-32887500D02*
X44750000Y-34548400D01*
X40839400Y-38235600D02*
X38689400Y-38235600D01*
X42223400Y-37075000D02*
X42000000Y-37075000D01*
X38689400Y-38235600D02*
X38500000Y-38425000D01*
%TO.N,SCL*%
X43750000Y-28912500D02*
X43750000Y-28019200D01*
X43750000Y-28019200D02*
X43748900Y-28018100D01*
%TO.N,MOSI_RXD*%
X42967100Y-28191200D02*
X42284600Y-28191200D01*
X43250000Y-28912500D02*
X43250000Y-28474100D01*
X43250000Y-28474100D02*
X42967100Y-28191200D01*
%TO.N,MISO_TXD*%
X42750000Y-28912500D02*
X42661400Y-29001100D01*
X42661400Y-29001100D02*
X42114800Y-29001100D01*
%TO.N,SYN*%
X45175900Y-28111300D02*
X45678200Y-28111300D01*
X44750000Y-28912500D02*
X44750000Y-28537200D01*
X44750000Y-28537200D02*
X45175900Y-28111300D01*
%TO.N,CLKOUT_ZCR*%
X41329100Y-27417800D02*
X41329100Y-29071800D01*
X41907300Y-29650000D02*
X42012500Y-29650000D01*
X41329100Y-29071800D02*
X41907300Y-29650000D01*
%TO.N,LED1*%
X41529500Y-31150000D02*
X42012500Y-31150000D01*
X34136300Y-30536300D02*
X39544900Y-30536300D01*
X39544900Y-30536300D02*
X40516600Y-31508000D01*
X40516600Y-31508000D02*
X41171500Y-31508000D01*
X41171500Y-31508000D02*
X41529500Y-31150000D01*
%TO.N,LED2*%
X41329600Y-31889700D02*
X41569300Y-31650000D01*
X37114700Y-31150000D02*
X39618800Y-31150000D01*
X41569300Y-31650000D02*
X42012500Y-31650000D01*
X40358500Y-31889700D02*
X41329600Y-31889700D01*
X39618800Y-31150000D02*
X40358500Y-31889700D01*
%TO.N,INT1*%
X41891100Y-32271400D02*
X39159000Y-32271400D01*
X42012500Y-32150000D02*
X41891100Y-32271400D01*
%TD*%
%TA.AperFunction,Conductor*%
%TO.N,AGND*%
G36*
X39802826Y-28021674D02*
G01*
X39824500Y-28074000D01*
X39824500Y-28333488D01*
X39840280Y-28433125D01*
X39840281Y-28433126D01*
X39892285Y-28535191D01*
X39901472Y-28553220D01*
X39996780Y-28648528D01*
X40116874Y-28709719D01*
X40137074Y-28712918D01*
X40185366Y-28742509D01*
X40199500Y-28786007D01*
X40199500Y-29065564D01*
X40219977Y-29141985D01*
X40219978Y-29141987D01*
X40227889Y-29155689D01*
X40259539Y-29210510D01*
X41179994Y-30130965D01*
X41201668Y-30183291D01*
X41179994Y-30235617D01*
X41146822Y-30254769D01*
X41069914Y-30275377D01*
X41069907Y-30275380D01*
X41001388Y-30314940D01*
X40924101Y-30392226D01*
X40871775Y-30413899D01*
X40852624Y-30411378D01*
X40792992Y-30395400D01*
X40661208Y-30395400D01*
X40661206Y-30395400D01*
X40533918Y-30429506D01*
X40533909Y-30429510D01*
X40419785Y-30495400D01*
X40326600Y-30588585D01*
X40263385Y-30698076D01*
X40218451Y-30732555D01*
X40162299Y-30725162D01*
X40146973Y-30713402D01*
X39729411Y-30295840D01*
X39719966Y-30290387D01*
X39660890Y-30256279D01*
X39660885Y-30256277D01*
X39584464Y-30235800D01*
X39584462Y-30235800D01*
X34574266Y-30235800D01*
X34521940Y-30214126D01*
X34443614Y-30135800D01*
X34329490Y-30069910D01*
X34329481Y-30069906D01*
X34202194Y-30035800D01*
X34202192Y-30035800D01*
X34070408Y-30035800D01*
X34070406Y-30035800D01*
X33943118Y-30069906D01*
X33943109Y-30069910D01*
X33828985Y-30135800D01*
X33735800Y-30228985D01*
X33669910Y-30343109D01*
X33669906Y-30343118D01*
X33635800Y-30470405D01*
X33635800Y-30602194D01*
X33669906Y-30729481D01*
X33669910Y-30729490D01*
X33671680Y-30732555D01*
X33735800Y-30843614D01*
X33828986Y-30936800D01*
X33943114Y-31002692D01*
X34070405Y-31036799D01*
X34070406Y-31036800D01*
X34070408Y-31036800D01*
X34202194Y-31036800D01*
X34202194Y-31036799D01*
X34329486Y-31002692D01*
X34443614Y-30936800D01*
X34521940Y-30858474D01*
X34574266Y-30836800D01*
X36589426Y-30836800D01*
X36641752Y-30858474D01*
X36663426Y-30910800D01*
X36653512Y-30947800D01*
X36648310Y-30956809D01*
X36648306Y-30956818D01*
X36614200Y-31084105D01*
X36614200Y-31215894D01*
X36648306Y-31343181D01*
X36648307Y-31343184D01*
X36648308Y-31343186D01*
X36714200Y-31457314D01*
X36807386Y-31550500D01*
X36921514Y-31616392D01*
X37048805Y-31650499D01*
X37048806Y-31650500D01*
X37048808Y-31650500D01*
X37180594Y-31650500D01*
X37180594Y-31650499D01*
X37307886Y-31616392D01*
X37422014Y-31550500D01*
X37500340Y-31472174D01*
X37552666Y-31450500D01*
X39463677Y-31450500D01*
X39516003Y-31472174D01*
X39888403Y-31844574D01*
X39910077Y-31896900D01*
X39888403Y-31949226D01*
X39836077Y-31970900D01*
X39596966Y-31970900D01*
X39544640Y-31949226D01*
X39466314Y-31870900D01*
X39352190Y-31805010D01*
X39352181Y-31805006D01*
X39224894Y-31770900D01*
X39224892Y-31770900D01*
X39093108Y-31770900D01*
X39093106Y-31770900D01*
X38965818Y-31805006D01*
X38965809Y-31805010D01*
X38851685Y-31870900D01*
X38758500Y-31964085D01*
X38692610Y-32078209D01*
X38692606Y-32078218D01*
X38658500Y-32205505D01*
X38658500Y-32337294D01*
X38692606Y-32464581D01*
X38692610Y-32464590D01*
X38739607Y-32545991D01*
X38758500Y-32578714D01*
X38851686Y-32671900D01*
X38965814Y-32737792D01*
X39093105Y-32771899D01*
X39093106Y-32771900D01*
X39093108Y-32771900D01*
X39224894Y-32771900D01*
X39224894Y-32771899D01*
X39352186Y-32737792D01*
X39466314Y-32671900D01*
X39544640Y-32593574D01*
X39596966Y-32571900D01*
X41607812Y-32571900D01*
X41660138Y-32593574D01*
X41681812Y-32645900D01*
X41671897Y-32682901D01*
X41665311Y-32694307D01*
X41665306Y-32694318D01*
X41631200Y-32821605D01*
X41631200Y-32953394D01*
X41665306Y-33080681D01*
X41665310Y-33080690D01*
X41679234Y-33104806D01*
X41705273Y-33149908D01*
X41710927Y-33159700D01*
X41718320Y-33215852D01*
X41683841Y-33260786D01*
X41646841Y-33270700D01*
X39622266Y-33270700D01*
X39569940Y-33249026D01*
X39491614Y-33170700D01*
X39377490Y-33104810D01*
X39377481Y-33104806D01*
X39250194Y-33070700D01*
X39250192Y-33070700D01*
X39118408Y-33070700D01*
X39118406Y-33070700D01*
X38991118Y-33104806D01*
X38991109Y-33104810D01*
X38912997Y-33149908D01*
X38856844Y-33157300D01*
X38811911Y-33122822D01*
X38810062Y-33119417D01*
X38802617Y-33104806D01*
X38798528Y-33096780D01*
X38703220Y-33001472D01*
X38703219Y-33001471D01*
X38583126Y-32940281D01*
X38583125Y-32940280D01*
X38483489Y-32924500D01*
X38483488Y-32924500D01*
X37969767Y-32924500D01*
X37917441Y-32902826D01*
X37537159Y-32522544D01*
X37537158Y-32522543D01*
X37516574Y-32514017D01*
X37511367Y-32511860D01*
X37435900Y-32480600D01*
X37435899Y-32480600D01*
X36699499Y-32480600D01*
X36647173Y-32458926D01*
X36625499Y-32406600D01*
X36625499Y-32393480D01*
X36610646Y-32299695D01*
X36610645Y-32299693D01*
X36572449Y-32224731D01*
X36553050Y-32186658D01*
X36463342Y-32096950D01*
X36350304Y-32039354D01*
X36350302Y-32039353D01*
X36350301Y-32039353D01*
X36256519Y-32024500D01*
X35793480Y-32024500D01*
X35699695Y-32039353D01*
X35699693Y-32039354D01*
X35586657Y-32096950D01*
X35496951Y-32186656D01*
X35439353Y-32299698D01*
X35424500Y-32393480D01*
X35424500Y-33006519D01*
X35439353Y-33100304D01*
X35439354Y-33100306D01*
X35487509Y-33194814D01*
X35496950Y-33213342D01*
X35586658Y-33303050D01*
X35699696Y-33360646D01*
X35793481Y-33375500D01*
X36256518Y-33375499D01*
X36256519Y-33375499D01*
X36350304Y-33360646D01*
X36350306Y-33360645D01*
X36352419Y-33359568D01*
X36463342Y-33303050D01*
X36553050Y-33213342D01*
X36610646Y-33100304D01*
X36611641Y-33094023D01*
X36641235Y-33045732D01*
X36684730Y-33031600D01*
X37236333Y-33031600D01*
X37288658Y-33053273D01*
X37502826Y-33267442D01*
X37524500Y-33319767D01*
X37524500Y-33833488D01*
X37540280Y-33933125D01*
X37540281Y-33933126D01*
X37595086Y-34040688D01*
X37601472Y-34053220D01*
X37696780Y-34148528D01*
X37816874Y-34209719D01*
X37916511Y-34225500D01*
X37916512Y-34225500D01*
X38394877Y-34225500D01*
X38447203Y-34247174D01*
X38537440Y-34337411D01*
X38593389Y-34393360D01*
X38661911Y-34432921D01*
X38661912Y-34432921D01*
X38661914Y-34432922D01*
X38694872Y-34441753D01*
X38738335Y-34453399D01*
X38738336Y-34453400D01*
X38738338Y-34453400D01*
X43002864Y-34453400D01*
X43002864Y-34453399D01*
X43079289Y-34432921D01*
X43147811Y-34393360D01*
X43203760Y-34337411D01*
X43823174Y-33717997D01*
X43875500Y-33696323D01*
X43927826Y-33717997D01*
X43949500Y-33770323D01*
X43949500Y-34313377D01*
X43927826Y-34365703D01*
X42315703Y-35977826D01*
X42263377Y-35999500D01*
X40735436Y-35999500D01*
X40659014Y-36019977D01*
X40659009Y-36019979D01*
X40590488Y-36059540D01*
X40447203Y-36202826D01*
X40394877Y-36224500D01*
X39916511Y-36224500D01*
X39816874Y-36240280D01*
X39816873Y-36240281D01*
X39696780Y-36301471D01*
X39601471Y-36396780D01*
X39540281Y-36516873D01*
X39540280Y-36516874D01*
X39524500Y-36616511D01*
X39524500Y-37094877D01*
X39502826Y-37147203D01*
X39362003Y-37288026D01*
X39309677Y-37309700D01*
X38495133Y-37309700D01*
X38442807Y-37288026D01*
X38421133Y-37235700D01*
X38442807Y-37183374D01*
X38461538Y-37169766D01*
X38503220Y-37148528D01*
X38598528Y-37053220D01*
X38659719Y-36933126D01*
X38675500Y-36833488D01*
X38675500Y-36316512D01*
X38659719Y-36216874D01*
X38598528Y-36096780D01*
X38503220Y-36001472D01*
X38503219Y-36001471D01*
X38383126Y-35940281D01*
X38383125Y-35940280D01*
X38283489Y-35924500D01*
X38283488Y-35924500D01*
X37716512Y-35924500D01*
X37716511Y-35924500D01*
X37616874Y-35940280D01*
X37616873Y-35940281D01*
X37496780Y-36001471D01*
X37401470Y-36096781D01*
X37395196Y-36109096D01*
X37352128Y-36145878D01*
X37329262Y-36149500D01*
X36911966Y-36149500D01*
X36859640Y-36127826D01*
X36837966Y-36075500D01*
X36858362Y-36026258D01*
X36857847Y-36025863D01*
X36859322Y-36023939D01*
X36859640Y-36023174D01*
X36860800Y-36022014D01*
X36926692Y-35907886D01*
X36960799Y-35780594D01*
X36960800Y-35780594D01*
X36960800Y-35648806D01*
X36960799Y-35648805D01*
X36959701Y-35644709D01*
X36926692Y-35521514D01*
X36860800Y-35407386D01*
X36767614Y-35314200D01*
X36697790Y-35273887D01*
X36653490Y-35248310D01*
X36653481Y-35248306D01*
X36526194Y-35214200D01*
X36526192Y-35214200D01*
X36394408Y-35214200D01*
X36394406Y-35214200D01*
X36267118Y-35248306D01*
X36267109Y-35248310D01*
X36152985Y-35314200D01*
X36059800Y-35407385D01*
X35993910Y-35521509D01*
X35993906Y-35521518D01*
X35959800Y-35648805D01*
X35959800Y-35700500D01*
X35938126Y-35752826D01*
X35885800Y-35774500D01*
X35493480Y-35774500D01*
X35399695Y-35789353D01*
X35399693Y-35789354D01*
X35286657Y-35846950D01*
X35196951Y-35936656D01*
X35139353Y-36049698D01*
X35124500Y-36143480D01*
X35124500Y-36756519D01*
X35139353Y-36850304D01*
X35139354Y-36850306D01*
X35181554Y-36933126D01*
X35196950Y-36963342D01*
X35286658Y-37053050D01*
X35399696Y-37110646D01*
X35493481Y-37125500D01*
X35956518Y-37125499D01*
X35956519Y-37125499D01*
X36050304Y-37110646D01*
X36050306Y-37110645D01*
X36060578Y-37105411D01*
X36163342Y-37053050D01*
X36253050Y-36963342D01*
X36310646Y-36850304D01*
X36316566Y-36812924D01*
X36346158Y-36764633D01*
X36389655Y-36750500D01*
X37250500Y-36750500D01*
X37302826Y-36772174D01*
X37324500Y-36824500D01*
X37324500Y-36833488D01*
X37340280Y-36933125D01*
X37340281Y-36933126D01*
X37401384Y-37053049D01*
X37401472Y-37053220D01*
X37496780Y-37148528D01*
X37536234Y-37168631D01*
X37538462Y-37169766D01*
X37575245Y-37212833D01*
X37570801Y-37269295D01*
X37527734Y-37306078D01*
X37504867Y-37309700D01*
X36975236Y-37309700D01*
X36898814Y-37330177D01*
X36898809Y-37330179D01*
X36830288Y-37369740D01*
X36397201Y-37802826D01*
X36344875Y-37824500D01*
X35893480Y-37824500D01*
X35799695Y-37839353D01*
X35799693Y-37839354D01*
X35686657Y-37896950D01*
X35596951Y-37986656D01*
X35539353Y-38099698D01*
X35524500Y-38193480D01*
X35524500Y-38656519D01*
X35539353Y-38750304D01*
X35539354Y-38750306D01*
X35596950Y-38863342D01*
X35642682Y-38909074D01*
X35664356Y-38961400D01*
X35642682Y-39013726D01*
X35590356Y-39035400D01*
X35578138Y-39035400D01*
X35501712Y-39055878D01*
X35501711Y-39055878D01*
X35501709Y-39055879D01*
X35501707Y-39055880D01*
X35433192Y-39095437D01*
X33340133Y-41188495D01*
X33287807Y-41210169D01*
X33235481Y-41188495D01*
X33213807Y-41136169D01*
X33214718Y-41124593D01*
X33225500Y-41056519D01*
X33225499Y-40593482D01*
X33219248Y-40554014D01*
X33210646Y-40499695D01*
X33210645Y-40499693D01*
X33178155Y-40435930D01*
X33153050Y-40386658D01*
X33063342Y-40296950D01*
X32950304Y-40239354D01*
X32950302Y-40239353D01*
X32950301Y-40239353D01*
X32912923Y-40233433D01*
X32893366Y-40221447D01*
X32872174Y-40212670D01*
X32869837Y-40207029D01*
X32864632Y-40203839D01*
X32850500Y-40160344D01*
X32850500Y-40139654D01*
X32872174Y-40087328D01*
X32912924Y-40066565D01*
X32950304Y-40060646D01*
X33063342Y-40003050D01*
X33153050Y-39913342D01*
X33210646Y-39800304D01*
X33225500Y-39706519D01*
X33225499Y-39243482D01*
X33222697Y-39225792D01*
X33210646Y-39149695D01*
X33210645Y-39149693D01*
X33162844Y-39055880D01*
X33153050Y-39036658D01*
X33115692Y-38999300D01*
X33094018Y-38946974D01*
X33115692Y-38894648D01*
X33117562Y-38893008D01*
X33120108Y-38890461D01*
X33120111Y-38890460D01*
X33176060Y-38834511D01*
X34315460Y-37695111D01*
X34341642Y-37649762D01*
X34355021Y-37626589D01*
X34375499Y-37550164D01*
X34375500Y-37550164D01*
X34375500Y-37168631D01*
X34397174Y-37116305D01*
X34415901Y-37102698D01*
X34513342Y-37053050D01*
X34603050Y-36963342D01*
X34660646Y-36850304D01*
X34675500Y-36756519D01*
X34675499Y-36143482D01*
X34670053Y-36109096D01*
X34660646Y-36049695D01*
X34660645Y-36049693D01*
X34604896Y-35940281D01*
X34603050Y-35936658D01*
X34513342Y-35846950D01*
X34400304Y-35789354D01*
X34400302Y-35789353D01*
X34400301Y-35789353D01*
X34306519Y-35774500D01*
X33843480Y-35774500D01*
X33749695Y-35789353D01*
X33749693Y-35789354D01*
X33636657Y-35846950D01*
X33546951Y-35936656D01*
X33489353Y-36049698D01*
X33474500Y-36143480D01*
X33474500Y-36756519D01*
X33489353Y-36850304D01*
X33489354Y-36850306D01*
X33531554Y-36933126D01*
X33546950Y-36963342D01*
X33636658Y-37053050D01*
X33734096Y-37102697D01*
X33770878Y-37145764D01*
X33774500Y-37168631D01*
X33774500Y-37355476D01*
X33752826Y-37407802D01*
X33351825Y-37808803D01*
X33299499Y-37830477D01*
X33247173Y-37808803D01*
X33225499Y-37756477D01*
X33225499Y-37593480D01*
X33210646Y-37499695D01*
X33210645Y-37499693D01*
X33153049Y-37386657D01*
X33063343Y-37296951D01*
X33063342Y-37296950D01*
X32950304Y-37239354D01*
X32950302Y-37239353D01*
X32950301Y-37239353D01*
X32856520Y-37224500D01*
X32856519Y-37224500D01*
X32405123Y-37224500D01*
X32352797Y-37202826D01*
X29692725Y-34542754D01*
X29671051Y-34490428D01*
X29671963Y-34478849D01*
X29675500Y-34456519D01*
X29675499Y-34005121D01*
X29697172Y-33952797D01*
X30627797Y-33022174D01*
X30680123Y-33000500D01*
X33710345Y-33000500D01*
X33762671Y-33022174D01*
X33783434Y-33062925D01*
X33789353Y-33100304D01*
X33789354Y-33100306D01*
X33837509Y-33194814D01*
X33846950Y-33213342D01*
X33936658Y-33303050D01*
X34049696Y-33360646D01*
X34143481Y-33375500D01*
X34606518Y-33375499D01*
X34606519Y-33375499D01*
X34700304Y-33360646D01*
X34700306Y-33360645D01*
X34702419Y-33359568D01*
X34813342Y-33303050D01*
X34903050Y-33213342D01*
X34960646Y-33100304D01*
X34975500Y-33006519D01*
X34975499Y-32393482D01*
X34973023Y-32377850D01*
X34960646Y-32299695D01*
X34960645Y-32299693D01*
X34922449Y-32224731D01*
X34903050Y-32186658D01*
X34813342Y-32096950D01*
X34700304Y-32039354D01*
X34700302Y-32039353D01*
X34700301Y-32039353D01*
X34606519Y-32024500D01*
X34143480Y-32024500D01*
X34049695Y-32039353D01*
X34049693Y-32039354D01*
X33936657Y-32096950D01*
X33846951Y-32186656D01*
X33789353Y-32299698D01*
X33783434Y-32337075D01*
X33753842Y-32385367D01*
X33710345Y-32399500D01*
X30564562Y-32399500D01*
X30485438Y-32399500D01*
X30409012Y-32419978D01*
X30409011Y-32419978D01*
X30409009Y-32419979D01*
X30409007Y-32419980D01*
X30340490Y-32459538D01*
X29347201Y-33452826D01*
X29294875Y-33474500D01*
X28843480Y-33474500D01*
X28749695Y-33489353D01*
X28749693Y-33489354D01*
X28636657Y-33546950D01*
X28546951Y-33636656D01*
X28489353Y-33749698D01*
X28474500Y-33843480D01*
X28474500Y-34456519D01*
X28489353Y-34550304D01*
X28489354Y-34550306D01*
X28524434Y-34619153D01*
X28546950Y-34663342D01*
X28636658Y-34753050D01*
X28749696Y-34810646D01*
X28843481Y-34825500D01*
X29094876Y-34825499D01*
X29147202Y-34847173D01*
X31852826Y-37552797D01*
X31874500Y-37605123D01*
X31874500Y-37792677D01*
X31852826Y-37845003D01*
X31800500Y-37866677D01*
X31748174Y-37845003D01*
X31487711Y-37584540D01*
X31463632Y-37570638D01*
X31419190Y-37544979D01*
X31419185Y-37544977D01*
X31342764Y-37524500D01*
X31342762Y-37524500D01*
X30468632Y-37524500D01*
X30416306Y-37502826D01*
X30402698Y-37484096D01*
X30353049Y-37386657D01*
X30263343Y-37296951D01*
X30263342Y-37296950D01*
X30150304Y-37239354D01*
X30150302Y-37239353D01*
X30150301Y-37239353D01*
X30056519Y-37224500D01*
X29443480Y-37224500D01*
X29349695Y-37239353D01*
X29349693Y-37239354D01*
X29236657Y-37296950D01*
X29146951Y-37386656D01*
X29146950Y-37386658D01*
X29097302Y-37484096D01*
X29054236Y-37520878D01*
X29031369Y-37524500D01*
X27905123Y-37524500D01*
X27852797Y-37502826D01*
X26997173Y-36647202D01*
X26975499Y-36594876D01*
X26975499Y-36143480D01*
X26960646Y-36049695D01*
X26960645Y-36049693D01*
X26904896Y-35940281D01*
X26903050Y-35936658D01*
X26813342Y-35846950D01*
X26700304Y-35789354D01*
X26700302Y-35789353D01*
X26700301Y-35789353D01*
X26606519Y-35774500D01*
X26143480Y-35774500D01*
X26049695Y-35789353D01*
X26049693Y-35789354D01*
X25936657Y-35846950D01*
X25846951Y-35936656D01*
X25789353Y-36049698D01*
X25774500Y-36143480D01*
X25774500Y-36756519D01*
X25789353Y-36850304D01*
X25789354Y-36850306D01*
X25831554Y-36933126D01*
X25846950Y-36963342D01*
X25936658Y-37053050D01*
X26049696Y-37110646D01*
X26143481Y-37125500D01*
X26594876Y-37125499D01*
X26647202Y-37147173D01*
X27565489Y-38065460D01*
X27634012Y-38105022D01*
X27710438Y-38125500D01*
X27789562Y-38125500D01*
X29031368Y-38125500D01*
X29083694Y-38147174D01*
X29097302Y-38165904D01*
X29122822Y-38215989D01*
X29146950Y-38263342D01*
X29236658Y-38353050D01*
X29349696Y-38410646D01*
X29443481Y-38425500D01*
X30056518Y-38425499D01*
X30056519Y-38425499D01*
X30150304Y-38410646D01*
X30150306Y-38410645D01*
X30152419Y-38409568D01*
X30263342Y-38353050D01*
X30353050Y-38263342D01*
X30402697Y-38165903D01*
X30445764Y-38129122D01*
X30468631Y-38125500D01*
X31148077Y-38125500D01*
X31200403Y-38147174D01*
X31799689Y-38746460D01*
X31868212Y-38786021D01*
X31944635Y-38806499D01*
X31944636Y-38806500D01*
X32004075Y-38806500D01*
X32056401Y-38828174D01*
X32078075Y-38880500D01*
X32056401Y-38932826D01*
X32037673Y-38946432D01*
X32036684Y-38946936D01*
X32036656Y-38946951D01*
X31946951Y-39036656D01*
X31889353Y-39149698D01*
X31874500Y-39243480D01*
X31874500Y-39706519D01*
X31889353Y-39800304D01*
X31889354Y-39800306D01*
X31938684Y-39897120D01*
X31946950Y-39913342D01*
X32036658Y-40003050D01*
X32149696Y-40060646D01*
X32187075Y-40066566D01*
X32206633Y-40078550D01*
X32227826Y-40087329D01*
X32230161Y-40092968D01*
X32235367Y-40096158D01*
X32249500Y-40139654D01*
X32249500Y-40160345D01*
X32227826Y-40212671D01*
X32187075Y-40233434D01*
X32149695Y-40239353D01*
X32149693Y-40239354D01*
X32036657Y-40296950D01*
X31946951Y-40386656D01*
X31889353Y-40499698D01*
X31874500Y-40593480D01*
X31874500Y-41056519D01*
X31889353Y-41150304D01*
X31889354Y-41150305D01*
X31936027Y-41241904D01*
X31940471Y-41298367D01*
X31903689Y-41341434D01*
X31870093Y-41349500D01*
X30429907Y-41349500D01*
X30377581Y-41327826D01*
X30355907Y-41275500D01*
X30363973Y-41241905D01*
X30386750Y-41197202D01*
X30410646Y-41150304D01*
X30425500Y-41056519D01*
X30425499Y-40593482D01*
X30419248Y-40554014D01*
X30410646Y-40499695D01*
X30410645Y-40499693D01*
X30378155Y-40435930D01*
X30353050Y-40386658D01*
X30263342Y-40296950D01*
X30150304Y-40239354D01*
X30150302Y-40239353D01*
X30150301Y-40239353D01*
X30112923Y-40233433D01*
X30093366Y-40221447D01*
X30072174Y-40212670D01*
X30069837Y-40207029D01*
X30064632Y-40203839D01*
X30050500Y-40160344D01*
X30050500Y-40139654D01*
X30072174Y-40087328D01*
X30112924Y-40066565D01*
X30150304Y-40060646D01*
X30263342Y-40003050D01*
X30353050Y-39913342D01*
X30410646Y-39800304D01*
X30425500Y-39706519D01*
X30425499Y-39243482D01*
X30422697Y-39225792D01*
X30410646Y-39149695D01*
X30410645Y-39149693D01*
X30362844Y-39055880D01*
X30353050Y-39036658D01*
X30263342Y-38946950D01*
X30150304Y-38889354D01*
X30150302Y-38889353D01*
X30150301Y-38889353D01*
X30056519Y-38874500D01*
X29443480Y-38874500D01*
X29349695Y-38889353D01*
X29349693Y-38889354D01*
X29236657Y-38946950D01*
X29146951Y-39036656D01*
X29089353Y-39149698D01*
X29074500Y-39243480D01*
X29074500Y-39706519D01*
X29089353Y-39800304D01*
X29089354Y-39800306D01*
X29138684Y-39897120D01*
X29146950Y-39913342D01*
X29236658Y-40003050D01*
X29349696Y-40060646D01*
X29387075Y-40066566D01*
X29406633Y-40078550D01*
X29427826Y-40087329D01*
X29430161Y-40092968D01*
X29435367Y-40096158D01*
X29449500Y-40139654D01*
X29449500Y-40160345D01*
X29427826Y-40212671D01*
X29387075Y-40233434D01*
X29349695Y-40239353D01*
X29349693Y-40239354D01*
X29236657Y-40296950D01*
X29146951Y-40386656D01*
X29089353Y-40499698D01*
X29074500Y-40593480D01*
X29074500Y-41056519D01*
X29089353Y-41150304D01*
X29089354Y-41150306D01*
X29146950Y-41263342D01*
X29181224Y-41297616D01*
X29202898Y-41349942D01*
X29181224Y-41402268D01*
X29173958Y-41408641D01*
X29172796Y-41409532D01*
X26604003Y-43978326D01*
X26551677Y-44000000D01*
X21074000Y-44000000D01*
X21021674Y-43978326D01*
X21000000Y-43926000D01*
X21000000Y-28074000D01*
X21021674Y-28021674D01*
X21074000Y-28000000D01*
X39750500Y-28000000D01*
X39802826Y-28021674D01*
G37*
%TD.AperFunction*%
%TA.AperFunction,Conductor*%
G36*
X50478326Y-28021674D02*
G01*
X50500000Y-28074000D01*
X50500000Y-33244377D01*
X50478326Y-33296703D01*
X50147203Y-33627826D01*
X50094877Y-33649500D01*
X50040689Y-33649500D01*
X49926117Y-33680199D01*
X49926112Y-33680201D01*
X49823390Y-33739508D01*
X49739508Y-33823390D01*
X49680201Y-33926112D01*
X49680199Y-33926117D01*
X49649500Y-34040688D01*
X49649500Y-34159311D01*
X49680199Y-34273882D01*
X49680201Y-34273887D01*
X49739508Y-34376609D01*
X49739509Y-34376610D01*
X49739511Y-34376613D01*
X49823387Y-34460489D01*
X49823389Y-34460490D01*
X49823390Y-34460491D01*
X49919106Y-34515753D01*
X49926114Y-34519799D01*
X49926115Y-34519799D01*
X49926117Y-34519800D01*
X49958666Y-34528522D01*
X50003599Y-34563001D01*
X50010991Y-34619153D01*
X49976512Y-34664086D01*
X49958666Y-34671478D01*
X49926117Y-34680199D01*
X49926112Y-34680201D01*
X49823390Y-34739508D01*
X49739508Y-34823390D01*
X49680201Y-34926112D01*
X49680199Y-34926117D01*
X49649500Y-35040688D01*
X49649500Y-35159311D01*
X49680199Y-35273882D01*
X49680201Y-35273887D01*
X49739508Y-35376609D01*
X49739509Y-35376610D01*
X49739511Y-35376613D01*
X49823387Y-35460489D01*
X49926114Y-35519799D01*
X49926115Y-35519799D01*
X49926117Y-35519800D01*
X49966371Y-35530586D01*
X50040688Y-35550499D01*
X50040689Y-35550500D01*
X50040691Y-35550500D01*
X50094877Y-35550500D01*
X50147203Y-35572174D01*
X50340726Y-35765697D01*
X50362400Y-35818023D01*
X50362400Y-36217377D01*
X50340726Y-36269703D01*
X50011703Y-36598726D01*
X49959377Y-36620400D01*
X48002062Y-36620400D01*
X47922938Y-36620400D01*
X47846512Y-36640878D01*
X47846511Y-36640878D01*
X47846509Y-36640879D01*
X47846507Y-36640880D01*
X47777992Y-36680437D01*
X45963303Y-38495126D01*
X45910977Y-38516800D01*
X44581836Y-38516800D01*
X44510894Y-38535809D01*
X44472593Y-38535811D01*
X44469192Y-38534900D01*
X44337408Y-38534900D01*
X44337406Y-38534900D01*
X44210118Y-38569006D01*
X44210109Y-38569010D01*
X44095985Y-38634900D01*
X44002800Y-38728085D01*
X43936910Y-38842209D01*
X43936906Y-38842218D01*
X43902800Y-38969505D01*
X43902800Y-39101294D01*
X43935531Y-39223447D01*
X43928139Y-39279600D01*
X43883206Y-39314078D01*
X43864053Y-39316600D01*
X39767323Y-39316600D01*
X39714997Y-39294926D01*
X39515510Y-39095439D01*
X39502845Y-39088126D01*
X39502842Y-39088126D01*
X39446990Y-39055879D01*
X39446985Y-39055877D01*
X39370564Y-39035400D01*
X39370562Y-39035400D01*
X39109644Y-39035400D01*
X39057318Y-39013726D01*
X39035644Y-38961400D01*
X39057318Y-38909074D01*
X39077039Y-38889353D01*
X39103050Y-38863342D01*
X39160646Y-38750304D01*
X39175500Y-38656519D01*
X39175500Y-38610100D01*
X39197174Y-38557774D01*
X39249500Y-38536100D01*
X40878964Y-38536100D01*
X40878964Y-38536099D01*
X40955389Y-38515621D01*
X41023911Y-38476060D01*
X41079860Y-38420111D01*
X41752797Y-37747174D01*
X41805123Y-37725500D01*
X42283489Y-37725500D01*
X42333307Y-37717609D01*
X42383126Y-37709719D01*
X42503220Y-37648528D01*
X42598528Y-37553220D01*
X42659719Y-37433126D01*
X42675500Y-37333488D01*
X42675500Y-37078523D01*
X42697174Y-37026197D01*
X43819579Y-35903792D01*
X44990460Y-34732911D01*
X45020892Y-34680201D01*
X45030021Y-34664389D01*
X45050499Y-34587964D01*
X45050500Y-34587964D01*
X45050500Y-33729123D01*
X45072174Y-33676797D01*
X45124500Y-33655123D01*
X45176826Y-33676797D01*
X45952826Y-34452797D01*
X45974500Y-34505123D01*
X45974500Y-34983488D01*
X45990280Y-35083125D01*
X45990281Y-35083126D01*
X46051472Y-35203220D01*
X46146780Y-35298528D01*
X46266874Y-35359719D01*
X46366511Y-35375500D01*
X46366512Y-35375500D01*
X46883488Y-35375500D01*
X46885525Y-35375177D01*
X46886036Y-35375299D01*
X46886389Y-35375272D01*
X46886398Y-35375386D01*
X46940599Y-35388390D01*
X46970199Y-35436677D01*
X46956986Y-35491751D01*
X46949440Y-35500588D01*
X46934305Y-35515724D01*
X46881979Y-35537400D01*
X45329866Y-35537400D01*
X45277540Y-35515726D01*
X45199214Y-35437400D01*
X45085090Y-35371510D01*
X45085081Y-35371506D01*
X44957794Y-35337400D01*
X44957792Y-35337400D01*
X44826008Y-35337400D01*
X44826006Y-35337400D01*
X44698718Y-35371506D01*
X44698709Y-35371510D01*
X44584585Y-35437400D01*
X44491400Y-35530585D01*
X44425510Y-35644709D01*
X44425506Y-35644718D01*
X44391400Y-35772005D01*
X44391400Y-35903794D01*
X44425506Y-36031081D01*
X44425510Y-36031090D01*
X44463437Y-36096781D01*
X44491400Y-36145214D01*
X44584586Y-36238400D01*
X44698714Y-36304292D01*
X44826005Y-36338399D01*
X44826006Y-36338400D01*
X44826008Y-36338400D01*
X44957794Y-36338400D01*
X44957794Y-36338399D01*
X45085086Y-36304292D01*
X45199214Y-36238400D01*
X45277540Y-36160074D01*
X45329866Y-36138400D01*
X47076664Y-36138400D01*
X47076664Y-36138399D01*
X47153089Y-36117921D01*
X47221611Y-36078360D01*
X47277560Y-36022411D01*
X47902797Y-35397174D01*
X47955123Y-35375500D01*
X48433489Y-35375500D01*
X48483307Y-35367609D01*
X48533126Y-35359719D01*
X48653220Y-35298528D01*
X48748528Y-35203220D01*
X48809719Y-35083126D01*
X48825500Y-34983488D01*
X48825500Y-34416512D01*
X48825095Y-34413958D01*
X48809719Y-34316874D01*
X48809718Y-34316873D01*
X48787815Y-34273886D01*
X48748528Y-34196780D01*
X48653220Y-34101472D01*
X48653219Y-34101471D01*
X48533126Y-34040281D01*
X48533125Y-34040280D01*
X48433489Y-34024500D01*
X48433488Y-34024500D01*
X47955123Y-34024500D01*
X47902797Y-34002826D01*
X46445962Y-32545991D01*
X46424288Y-32493665D01*
X46445962Y-32441339D01*
X46457167Y-32432143D01*
X46502112Y-32402112D01*
X46560240Y-32315117D01*
X46575500Y-32238401D01*
X46575499Y-32061600D01*
X46560240Y-31984883D01*
X46502112Y-31897888D01*
X46500633Y-31896900D01*
X46415117Y-31839760D01*
X46338401Y-31824500D01*
X46338399Y-31824500D01*
X45636600Y-31824500D01*
X45559882Y-31839760D01*
X45559879Y-31839761D01*
X45540611Y-31852636D01*
X45485062Y-31863685D01*
X45437971Y-31832218D01*
X45425500Y-31791107D01*
X45425500Y-31508892D01*
X45447174Y-31456566D01*
X45499500Y-31434892D01*
X45540612Y-31447363D01*
X45559883Y-31460240D01*
X45636599Y-31475500D01*
X46338400Y-31475499D01*
X46415117Y-31460240D01*
X46415120Y-31460237D01*
X46421853Y-31457450D01*
X46422675Y-31459436D01*
X46452142Y-31450500D01*
X47044877Y-31450500D01*
X47097203Y-31472174D01*
X48086720Y-32461691D01*
X48108394Y-32514017D01*
X48104242Y-32538457D01*
X48077354Y-32615298D01*
X48077354Y-32615301D01*
X48074500Y-32645734D01*
X48074500Y-33254266D01*
X48077354Y-33284699D01*
X48077354Y-33284701D01*
X48077355Y-33284704D01*
X48122206Y-33412881D01*
X48122207Y-33412883D01*
X48202846Y-33522146D01*
X48202853Y-33522153D01*
X48312116Y-33602792D01*
X48312118Y-33602793D01*
X48440295Y-33647644D01*
X48440301Y-33647646D01*
X48470734Y-33650500D01*
X48470741Y-33650500D01*
X49529258Y-33650500D01*
X49529266Y-33650500D01*
X49559699Y-33647646D01*
X49687882Y-33602793D01*
X49797150Y-33522150D01*
X49877793Y-33412882D01*
X49922646Y-33284699D01*
X49925500Y-33254266D01*
X49925500Y-32645734D01*
X49922646Y-32615301D01*
X49915043Y-32593574D01*
X49877793Y-32487118D01*
X49877792Y-32487116D01*
X49797153Y-32377853D01*
X49797146Y-32377846D01*
X49687883Y-32297207D01*
X49687881Y-32297206D01*
X49559704Y-32252355D01*
X49559705Y-32252355D01*
X49559700Y-32252354D01*
X49559699Y-32252354D01*
X49529266Y-32249500D01*
X49529260Y-32249500D01*
X48755123Y-32249500D01*
X48702797Y-32227826D01*
X47384511Y-30909540D01*
X47364329Y-30897888D01*
X47315990Y-30869979D01*
X47315985Y-30869977D01*
X47239564Y-30849500D01*
X47239562Y-30849500D01*
X46452142Y-30849500D01*
X46422673Y-30840562D01*
X46421851Y-30842549D01*
X46415118Y-30839760D01*
X46370575Y-30830900D01*
X46338401Y-30824500D01*
X46338399Y-30824500D01*
X45636600Y-30824500D01*
X45559882Y-30839760D01*
X45559879Y-30839761D01*
X45540611Y-30852636D01*
X45485062Y-30863685D01*
X45437971Y-30832218D01*
X45425500Y-30791107D01*
X45425500Y-30508892D01*
X45447174Y-30456566D01*
X45499500Y-30434892D01*
X45540612Y-30447363D01*
X45559883Y-30460240D01*
X45636599Y-30475500D01*
X46338400Y-30475499D01*
X46415117Y-30460240D01*
X46415120Y-30460237D01*
X46421853Y-30457450D01*
X46422675Y-30459436D01*
X46452142Y-30450500D01*
X47839564Y-30450500D01*
X47839564Y-30450499D01*
X47915989Y-30430021D01*
X47984511Y-30390460D01*
X48040460Y-30334511D01*
X48264778Y-30110192D01*
X48317102Y-30088519D01*
X48369428Y-30110193D01*
X48382104Y-30129162D01*
X48382583Y-30128886D01*
X48385008Y-30133086D01*
X48450900Y-30247214D01*
X48544086Y-30340400D01*
X48658214Y-30406292D01*
X48785505Y-30440399D01*
X48785506Y-30440400D01*
X48785508Y-30440400D01*
X48917294Y-30440400D01*
X48917294Y-30440399D01*
X49044586Y-30406292D01*
X49158714Y-30340400D01*
X49251900Y-30247214D01*
X49317792Y-30133086D01*
X49351899Y-30005794D01*
X49351900Y-30005794D01*
X49351900Y-29874006D01*
X49351899Y-29874005D01*
X49316972Y-29743653D01*
X49324364Y-29687500D01*
X49369297Y-29653022D01*
X49388450Y-29650500D01*
X49529258Y-29650500D01*
X49529266Y-29650500D01*
X49559699Y-29647646D01*
X49687882Y-29602793D01*
X49797150Y-29522150D01*
X49877793Y-29412882D01*
X49922646Y-29284699D01*
X49925500Y-29254266D01*
X49925500Y-28645734D01*
X49922646Y-28615301D01*
X49909909Y-28578902D01*
X49877793Y-28487118D01*
X49877792Y-28487116D01*
X49797153Y-28377853D01*
X49797146Y-28377846D01*
X49687883Y-28297207D01*
X49687881Y-28297206D01*
X49559704Y-28252355D01*
X49559705Y-28252355D01*
X49559700Y-28252354D01*
X49559699Y-28252354D01*
X49529266Y-28249500D01*
X48470734Y-28249500D01*
X48440301Y-28252354D01*
X48440299Y-28252354D01*
X48440295Y-28252355D01*
X48312118Y-28297206D01*
X48312116Y-28297207D01*
X48202853Y-28377846D01*
X48202846Y-28377853D01*
X48122207Y-28487116D01*
X48122206Y-28487118D01*
X48077355Y-28615295D01*
X48077354Y-28615299D01*
X48077354Y-28615301D01*
X48074500Y-28645734D01*
X48074500Y-29254266D01*
X48075357Y-29263401D01*
X48077354Y-29284701D01*
X48077356Y-29284708D01*
X48104241Y-29361541D01*
X48101066Y-29418089D01*
X48086720Y-29438307D01*
X47697203Y-29827826D01*
X47644877Y-29849500D01*
X46643570Y-29849500D01*
X46591244Y-29827826D01*
X46569570Y-29775500D01*
X46570992Y-29761064D01*
X46573846Y-29746714D01*
X46575500Y-29738401D01*
X46575499Y-29561600D01*
X46570833Y-29538144D01*
X46581882Y-29482599D01*
X46591080Y-29471389D01*
X48040796Y-28021674D01*
X48093122Y-28000000D01*
X50426000Y-28000000D01*
X50478326Y-28021674D01*
G37*
%TD.AperFunction*%
%TD*%
M02*
