M48
; DRILL file KiCad 10.0.3 date 2026-10-05T17:42:31
; FORMAT={-:-/ absolute / metric / decimal}
; #@! TF.CreationDate,2026-10-05T17:42:31+10:30
; #@! TF.GenerationSoftware,Kicad,Pcbnew,10.0.3
; #@! TF.FileFunction,Plated,1,2,PTH
FMAT,2
METRIC
; #@! TA.AperFunction,Plated,PTH,ViaDrill
T1C0.300
; #@! TA.AperFunction,Plated,PTH,ComponentDrill
T2C1.000
%
G90
G05
T1
X31.032Y-37.134
X34.136Y-30.536
X35.2Y-34.15
X36.46Y-35.715
X36.965Y-26.27
X37.115Y-31.15
X39.159Y-32.271
X39.184Y-33.571
X39.641Y-38.817
X40.727Y-30.896
X41.329Y-27.418
X42.115Y-29.001
X42.132Y-32.887
X42.285Y-28.191
X43.749Y-28.018
X44.403Y-39.035
X44.892Y-35.838
X45.069Y-27.521
X45.678Y-28.111
X47.669Y-39.909
X48.592Y-38.256
X48.851Y-29.94
X51.125Y-39.16
X53.5Y-42.6
X54.0Y-28.0
T2
X25.0Y-45.3
X27.54Y-45.3
X30.08Y-45.3
X32.62Y-45.3
X35.16Y-45.3
X37.7Y-45.3
X40.24Y-45.3
X42.78Y-45.3
X45.32Y-45.3
X47.86Y-45.3
X50.4Y-45.3
X52.94Y-45.3
M30
