%TF.GenerationSoftware,KiCad,Pcbnew,10.0.3*%
%TF.CreationDate,2026-10-06T10:20:21+10:30*%
%TF.ProjectId,STPM32_Breakout,5354504d-3332-45f4-9272-65616b6f7574,B*%
%TF.SameCoordinates,Original*%
%TF.FileFunction,Paste,Top*%
%TF.FilePolarity,Positive*%
%FSLAX46Y46*%
G04 Gerber Fmt 4.6, Leading zero omitted, Abs format (unit mm)*
G04 Created by KiCad (PCBNEW 10.0.3) date 2026-10-06 10:20:21*
%MOMM*%
%LPD*%
G01*
G04 APERTURE LIST*
G04 Aperture macros list*
%AMRoundRect*
0 Rectangle with rounded corners*
0 $1 Rounding radius*
0 $2 $3 $4 $5 $6 $7 $8 $9 X,Y pos of 4 corners*
0 Add a 4 corners polygon primitive as box body*
4,1,4,$2,$3,$4,$5,$6,$7,$8,$9,$2,$3,0*
0 Add four circle primitives for the rounded corners*
1,1,$1+$1,$2,$3*
1,1,$1+$1,$4,$5*
1,1,$1+$1,$6,$7*
1,1,$1+$1,$8,$9*
0 Add four rect primitives between the rounded corners*
20,1,$1+$1,$2,$3,$4,$5,0*
20,1,$1+$1,$4,$5,$6,$7,0*
20,1,$1+$1,$6,$7,$8,$9,0*
20,1,$1+$1,$8,$9,$2,$3,0*%
G04 Aperture macros list end*
%ADD10RoundRect,0.250000X-0.450000X-0.350000X0.450000X-0.350000X0.450000X0.350000X-0.450000X0.350000X0*%
%ADD11RoundRect,0.225000X0.250000X-0.225000X0.250000X0.225000X-0.250000X0.225000X-0.250000X-0.225000X0*%
%ADD12RoundRect,0.225000X-0.225000X-0.250000X0.225000X-0.250000X0.225000X0.250000X-0.225000X0.250000X0*%
%ADD13RoundRect,0.200000X0.275000X-0.200000X0.275000X0.200000X-0.275000X0.200000X-0.275000X-0.200000X0*%
%ADD14RoundRect,0.250000X0.475000X-0.250000X0.475000X0.250000X-0.475000X0.250000X-0.475000X-0.250000X0*%
%ADD15RoundRect,0.200000X-0.200000X-0.275000X0.200000X-0.275000X0.200000X0.275000X-0.200000X0.275000X0*%
%ADD16R,1.500000X1.500000*%
%ADD17RoundRect,0.165000X-0.165000X-0.165000X0.165000X-0.165000X0.165000X0.165000X-0.165000X0.165000X0*%
%ADD18RoundRect,0.062500X-0.325000X-0.062500X0.325000X-0.062500X0.325000X0.062500X-0.325000X0.062500X0*%
%ADD19RoundRect,0.062500X-0.062500X-0.325000X0.062500X-0.325000X0.062500X0.325000X-0.062500X0.325000X0*%
G04 APERTURE END LIST*
D10*
%TO.C,Y1*%
X35700000Y-25350000D03*
X37900000Y-25350000D03*
X37900000Y-23650000D03*
X35700000Y-23650000D03*
%TD*%
D11*
%TO.C,C1*%
X40200000Y-36875000D03*
X40200000Y-35325000D03*
%TD*%
D12*
%TO.C,C12*%
X46625000Y-34700000D03*
X48175000Y-34700000D03*
%TD*%
D13*
%TO.C,R3*%
X29750000Y-42475000D03*
X29750000Y-40825000D03*
%TD*%
D14*
%TO.C,C10*%
X49000000Y-32950000D03*
X49000000Y-31050000D03*
%TD*%
D11*
%TO.C,C14*%
X40500000Y-28075000D03*
X40500000Y-26525000D03*
%TD*%
D14*
%TO.C,C11*%
X46800000Y-25250000D03*
X46800000Y-23350000D03*
%TD*%
D13*
%TO.C,R6*%
X32550000Y-42475000D03*
X32550000Y-40825000D03*
%TD*%
D15*
%TO.C,R12*%
X43975000Y-41000000D03*
X45625000Y-41000000D03*
%TD*%
D11*
%TO.C,C3*%
X38000000Y-36575000D03*
X38000000Y-35025000D03*
%TD*%
D16*
%TO.C,SW1*%
X54200000Y-38100000D03*
X54200000Y-30300000D03*
%TD*%
D13*
%TO.C,R1*%
X36200000Y-40075000D03*
X36200000Y-38425000D03*
%TD*%
D15*
%TO.C,RB1*%
X35605000Y-42450000D03*
X37255000Y-42450000D03*
%TD*%
%TO.C,R10*%
X34375000Y-32700000D03*
X36025000Y-32700000D03*
%TD*%
%TO.C,R5*%
X26375000Y-36450000D03*
X28025000Y-36450000D03*
%TD*%
D11*
%TO.C,C13*%
X40500000Y-24375000D03*
X40500000Y-22825000D03*
%TD*%
D13*
%TO.C,R7*%
X32550000Y-39475000D03*
X32550000Y-37825000D03*
%TD*%
D15*
%TO.C,R9*%
X34075000Y-36450000D03*
X35725000Y-36450000D03*
%TD*%
%TO.C,R11*%
X49475000Y-38200000D03*
X51125000Y-38200000D03*
%TD*%
D13*
%TO.C,R2*%
X38500000Y-40075000D03*
X38500000Y-38425000D03*
%TD*%
D14*
%TO.C,C9*%
X49000000Y-28950000D03*
X49000000Y-27050000D03*
%TD*%
D11*
%TO.C,C2*%
X42000000Y-37075000D03*
X42000000Y-35525000D03*
%TD*%
%TO.C,C4*%
X38200000Y-33575000D03*
X38200000Y-32025000D03*
%TD*%
D17*
%TO.C,U1*%
X43180000Y-30080000D03*
X43180000Y-30900000D03*
X43180000Y-31720000D03*
X44000000Y-30080000D03*
X44000000Y-30900000D03*
X44000000Y-31720000D03*
X44820000Y-30080000D03*
X44820000Y-30900000D03*
X44820000Y-31720000D03*
D18*
X42012500Y-29650000D03*
X42012500Y-30150000D03*
X42012500Y-30650000D03*
X42012500Y-31150000D03*
X42012500Y-31650000D03*
X42012500Y-32150000D03*
D19*
X42750000Y-32887500D03*
X43250000Y-32887500D03*
X43750000Y-32887500D03*
X44250000Y-32887500D03*
X44750000Y-32887500D03*
X45250000Y-32887500D03*
D18*
X45987500Y-32150000D03*
X45987500Y-31650000D03*
X45987500Y-31150000D03*
X45987500Y-30650000D03*
X45987500Y-30150000D03*
X45987500Y-29650000D03*
D19*
X45250000Y-28912500D03*
X44750000Y-28912500D03*
X44250000Y-28912500D03*
X43750000Y-28912500D03*
X43250000Y-28912500D03*
X42750000Y-28912500D03*
%TD*%
D13*
%TO.C,R4*%
X29750000Y-39475000D03*
X29750000Y-37825000D03*
%TD*%
D15*
%TO.C,R8*%
X29075000Y-34150000D03*
X30725000Y-34150000D03*
%TD*%
M02*
