%TF.GenerationSoftware,KiCad,Pcbnew,10.0.3*%
%TF.CreationDate,2026-10-06T10:20:21+10:30*%
%TF.ProjectId,STPM32_Breakout,5354504d-3332-45f4-9272-65616b6f7574,B*%
%TF.SameCoordinates,Original*%
%TF.FileFunction,Copper,L2,Bot*%
%TF.FilePolarity,Positive*%
%FSLAX46Y46*%
G04 Gerber Fmt 4.6, Leading zero omitted, Abs format (unit mm)*
G04 Created by KiCad (PCBNEW 10.0.3) date 2026-10-06 10:20:21*
%MOMM*%
%LPD*%
G01*
G04 APERTURE LIST*
%TA.AperFunction,EtchedComponent*%
%ADD10C,0.000000*%
%TD*%
%TA.AperFunction,ComponentPad*%
%ADD11R,1.700000X1.700000*%
%TD*%
%TA.AperFunction,ComponentPad*%
%ADD12C,1.700000*%
%TD*%
%TA.AperFunction,SMDPad,CuDef*%
%ADD13C,1.500000*%
%TD*%
%TA.AperFunction,SMDPad,CuDef*%
%ADD14R,1.500000X1.000000*%
%TD*%
%TA.AperFunction,ViaPad*%
%ADD15C,0.600000*%
%TD*%
%TA.AperFunction,Conductor*%
%ADD16C,0.200000*%
%TD*%
G04 APERTURE END LIST*
D10*
%TA.AperFunction,EtchedComponent*%
%TO.C,SJ1*%
G36*
X54800000Y-25900000D02*
G01*
X54200000Y-25900000D01*
X54200000Y-25400000D01*
X54800000Y-25400000D01*
X54800000Y-25900000D01*
G37*
%TD.AperFunction*%
%TD*%
D11*
%TO.P,J1,1*%
%TO.N,+3V3*%
X25000000Y-45300000D03*
D12*
%TO.P,J1,2*%
%TO.N,DGND*%
X27540000Y-45300000D03*
%TO.P,J1,3*%
%TO.N,VAC_P*%
X30080000Y-45300000D03*
%TO.P,J1,4*%
%TO.N,VAC_N*%
X32620000Y-45300000D03*
%TO.P,J1,5*%
%TO.N,CT_P*%
X35160000Y-45300000D03*
%TO.P,J1,6*%
%TO.N,CT_N*%
X37700000Y-45300000D03*
%TO.P,J1,7*%
%TO.N,SCS*%
X40240000Y-45300000D03*
%TO.P,J1,8*%
%TO.N,SCL*%
X42780000Y-45300000D03*
%TO.P,J1,9*%
%TO.N,MOSI_RXD*%
X45320000Y-45300000D03*
%TO.P,J1,10*%
%TO.N,MISO_TXD*%
X47860000Y-45300000D03*
%TO.P,J1,11*%
%TO.N,SYN*%
X50400000Y-45300000D03*
%TO.P,J1,12*%
%TO.N,EN*%
X52940000Y-45300000D03*
%TD*%
D13*
%TO.P,TP3,1*%
%TO.N,LED2*%
X29800000Y-22600000D03*
%TD*%
%TO.P,TP2,1*%
%TO.N,LED1*%
X26200000Y-22600000D03*
%TD*%
%TO.P,TP4,1*%
%TO.N,CLKOUT_ZCR*%
X33400000Y-22600000D03*
%TD*%
%TO.P,TP1,1*%
%TO.N,INT1*%
X22600000Y-22600000D03*
%TD*%
D14*
%TO.P,SJ1,1*%
%TO.N,DGND*%
X54500000Y-26300000D03*
%TO.P,SJ1,2*%
%TO.N,MODE_BIAS*%
X54500000Y-25000000D03*
%TO.P,SJ1,3*%
%TO.N,+3V3*%
X54500000Y-23700000D03*
%TD*%
D15*
%TO.N,XTAL1*%
X40727100Y-30895900D03*
X36964900Y-26269600D03*
%TO.N,AGND*%
X39641300Y-38817300D03*
X35200000Y-34150000D03*
X31032100Y-37134200D03*
%TO.N,GND_REF*%
X44403300Y-39035400D03*
X44891900Y-35837900D03*
%TO.N,DGND*%
X54000000Y-28000000D03*
%TO.N,SCS*%
X45068800Y-27521000D03*
X47669400Y-39908700D03*
%TO.N,MODE_BIAS*%
X53500000Y-42600000D03*
%TO.N,VIP1*%
X39184300Y-33571200D03*
X36460300Y-35714700D03*
%TO.N,EN*%
X51125000Y-39159900D03*
X42131700Y-32887500D03*
%TO.N,+3V3*%
X48592000Y-38256000D03*
X48851400Y-29939900D03*
%TO.N,SCL*%
X43748900Y-28018100D03*
%TO.N,MOSI_RXD*%
X42284600Y-28191200D03*
%TO.N,MISO_TXD*%
X42114800Y-29001100D03*
%TO.N,SYN*%
X45678200Y-28111300D03*
%TO.N,CLKOUT_ZCR*%
X41329100Y-27417800D03*
%TO.N,LED1*%
X34136300Y-30536300D03*
%TO.N,LED2*%
X37114700Y-31150000D03*
%TO.N,INT1*%
X39159000Y-32271400D03*
%TD*%
%TO.N,XTAL1*%
D16*
X36964900Y-26269600D02*
X36964900Y-27133700D01*
X36964900Y-27133700D02*
X40727100Y-30895900D01*
%TO.N,AGND*%
X37397900Y-38817300D02*
X35200000Y-36619400D01*
X34685200Y-37134200D02*
X35200000Y-36619400D01*
X35200000Y-36619400D02*
X35200000Y-34150000D01*
X39641300Y-38817300D02*
X37397900Y-38817300D01*
X31032100Y-37134200D02*
X34685200Y-37134200D01*
%TO.N,GND_REF*%
X44891900Y-38546800D02*
X44891900Y-35837900D01*
X44403300Y-39035400D02*
X44891900Y-38546800D01*
%TO.N,DGND*%
X54500000Y-26300000D02*
X54000000Y-28000000D01*
%TO.N,SCS*%
X47478300Y-39717600D02*
X47669400Y-39908700D01*
X45068800Y-27521000D02*
X45068800Y-28380000D01*
X45068800Y-28380000D02*
X47478300Y-30789500D01*
X47478300Y-30789500D02*
X47478300Y-39717600D01*
%TO.N,MODE_BIAS*%
X54500000Y-25000000D02*
X56000000Y-25000000D01*
X56000000Y-41800000D02*
X53500000Y-42600000D01*
X56000000Y-25000000D02*
X56000000Y-41800000D01*
%TO.N,VIP1*%
X36460300Y-35714700D02*
X38603800Y-33571200D01*
X38603800Y-33571200D02*
X39184300Y-33571200D01*
%TO.N,EN*%
X44852300Y-46461300D02*
X43911700Y-45520700D01*
X43911700Y-40145700D02*
X42131700Y-38365700D01*
X51125000Y-39159900D02*
X51125000Y-43485000D01*
X51125000Y-43485000D02*
X52940000Y-45300000D01*
X42131700Y-38365700D02*
X42131700Y-32887500D01*
X51778700Y-46461300D02*
X44852300Y-46461300D01*
X52940000Y-45300000D02*
X51778700Y-46461300D01*
X43911700Y-45520700D02*
X43911700Y-40145700D01*
%TO.N,+3V3*%
X52500000Y-28800000D02*
X48851400Y-29939900D01*
X52500000Y-23700000D02*
X52500000Y-28800000D01*
X48851400Y-37996600D02*
X48592000Y-38256000D01*
X48851400Y-29939900D02*
X48851400Y-37996600D01*
X54500000Y-23700000D02*
X52500000Y-23700000D01*
%TO.N,SCL*%
X41534100Y-44054100D02*
X42780000Y-45300000D01*
X43296900Y-27566100D02*
X42074700Y-27566100D01*
X43748900Y-28018100D02*
X43296900Y-27566100D01*
X41534100Y-30167300D02*
X41534100Y-44054100D01*
X42074700Y-27566100D02*
X41135600Y-28505200D01*
X41135600Y-28505200D02*
X41135600Y-29768800D01*
X41135600Y-29768800D02*
X41534100Y-30167300D01*
%TO.N,MOSI_RXD*%
X45320000Y-45300000D02*
X45473600Y-45146400D01*
X45473600Y-45146400D02*
X45473600Y-33352600D01*
X41517300Y-29396300D02*
X41517300Y-28744000D01*
X45473600Y-33352600D02*
X41517300Y-29396300D01*
X42070100Y-28191200D02*
X42284600Y-28191200D01*
X41517300Y-28744000D02*
X42070100Y-28191200D01*
%TO.N,MISO_TXD*%
X42114800Y-29001100D02*
X47087700Y-33974000D01*
X47087700Y-44527700D02*
X47860000Y-45300000D01*
X47087700Y-33974000D02*
X47087700Y-44527700D01*
%TO.N,SYN*%
X50400000Y-41355800D02*
X47860000Y-38815800D01*
X50400000Y-45300000D02*
X50400000Y-41355800D01*
X47860000Y-30293100D02*
X45678200Y-28111300D01*
X47860000Y-38815800D02*
X47860000Y-30293100D01*
%TO.N,CLKOUT_ZCR*%
X36511300Y-22600000D02*
X33400000Y-22600000D01*
X41329100Y-27417800D02*
X36511300Y-22600000D01*
%TO.N,LED1*%
X26200000Y-22600000D02*
X34136300Y-30536300D01*
%TO.N,LED2*%
X29800000Y-23835300D02*
X37114700Y-31150000D01*
X29800000Y-22600000D02*
X29800000Y-23835300D01*
%TO.N,INT1*%
X22600000Y-22600000D02*
X32271400Y-32271400D01*
X32271400Y-32271400D02*
X39159000Y-32271400D01*
%TD*%
%TA.AperFunction,Conductor*%
%TO.N,DGND*%
G36*
X57178326Y-21021674D02*
G01*
X57200000Y-21074000D01*
X57200000Y-46926000D01*
X57178326Y-46978326D01*
X57126000Y-47000000D01*
X21074000Y-47000000D01*
X21021674Y-46978326D01*
X21000000Y-46926000D01*
X21000000Y-44430252D01*
X23949500Y-44430252D01*
X23949500Y-46169748D01*
X23953778Y-46191253D01*
X23961133Y-46228232D01*
X23970184Y-46241777D01*
X24005448Y-46294552D01*
X24049560Y-46324027D01*
X24071767Y-46338866D01*
X24071768Y-46338866D01*
X24071769Y-46338867D01*
X24130252Y-46350500D01*
X24130254Y-46350500D01*
X25869746Y-46350500D01*
X25869748Y-46350500D01*
X25928231Y-46338867D01*
X25994552Y-46294552D01*
X26038867Y-46228231D01*
X26050500Y-46169748D01*
X26050500Y-45196535D01*
X29029500Y-45196535D01*
X29029500Y-45403464D01*
X29069868Y-45606413D01*
X29069870Y-45606420D01*
X29149059Y-45797598D01*
X29264023Y-45969655D01*
X29410345Y-46115977D01*
X29582402Y-46230941D01*
X29773580Y-46310130D01*
X29976535Y-46350500D01*
X29976536Y-46350500D01*
X30183464Y-46350500D01*
X30183465Y-46350500D01*
X30386420Y-46310130D01*
X30577598Y-46230941D01*
X30749655Y-46115977D01*
X30895977Y-45969655D01*
X31010941Y-45797598D01*
X31090130Y-45606420D01*
X31130500Y-45403465D01*
X31130500Y-45196535D01*
X31569500Y-45196535D01*
X31569500Y-45403464D01*
X31609868Y-45606413D01*
X31609870Y-45606420D01*
X31689059Y-45797598D01*
X31804023Y-45969655D01*
X31950345Y-46115977D01*
X32122402Y-46230941D01*
X32313580Y-46310130D01*
X32516535Y-46350500D01*
X32516536Y-46350500D01*
X32723464Y-46350500D01*
X32723465Y-46350500D01*
X32926420Y-46310130D01*
X33117598Y-46230941D01*
X33289655Y-46115977D01*
X33435977Y-45969655D01*
X33550941Y-45797598D01*
X33630130Y-45606420D01*
X33670500Y-45403465D01*
X33670500Y-45196535D01*
X34109500Y-45196535D01*
X34109500Y-45403464D01*
X34149868Y-45606413D01*
X34149870Y-45606420D01*
X34229059Y-45797598D01*
X34344023Y-45969655D01*
X34490345Y-46115977D01*
X34662402Y-46230941D01*
X34853580Y-46310130D01*
X35056535Y-46350500D01*
X35056536Y-46350500D01*
X35263464Y-46350500D01*
X35263465Y-46350500D01*
X35466420Y-46310130D01*
X35657598Y-46230941D01*
X35829655Y-46115977D01*
X35975977Y-45969655D01*
X36090941Y-45797598D01*
X36170130Y-45606420D01*
X36210500Y-45403465D01*
X36210500Y-45196535D01*
X36649500Y-45196535D01*
X36649500Y-45403464D01*
X36689868Y-45606413D01*
X36689870Y-45606420D01*
X36769059Y-45797598D01*
X36884023Y-45969655D01*
X37030345Y-46115977D01*
X37202402Y-46230941D01*
X37393580Y-46310130D01*
X37596535Y-46350500D01*
X37596536Y-46350500D01*
X37803464Y-46350500D01*
X37803465Y-46350500D01*
X38006420Y-46310130D01*
X38197598Y-46230941D01*
X38369655Y-46115977D01*
X38515977Y-45969655D01*
X38630941Y-45797598D01*
X38710130Y-45606420D01*
X38750500Y-45403465D01*
X38750500Y-45196535D01*
X39189500Y-45196535D01*
X39189500Y-45403464D01*
X39229868Y-45606413D01*
X39229870Y-45606420D01*
X39309059Y-45797598D01*
X39424023Y-45969655D01*
X39570345Y-46115977D01*
X39742402Y-46230941D01*
X39933580Y-46310130D01*
X40136535Y-46350500D01*
X40136536Y-46350500D01*
X40343464Y-46350500D01*
X40343465Y-46350500D01*
X40546420Y-46310130D01*
X40737598Y-46230941D01*
X40909655Y-46115977D01*
X41055977Y-45969655D01*
X41170941Y-45797598D01*
X41250130Y-45606420D01*
X41290500Y-45403465D01*
X41290500Y-45196535D01*
X41250130Y-44993580D01*
X41170941Y-44802402D01*
X41055977Y-44630345D01*
X40909655Y-44484023D01*
X40884052Y-44466916D01*
X40737598Y-44369059D01*
X40546420Y-44289870D01*
X40546413Y-44289868D01*
X40386896Y-44258139D01*
X40343465Y-44249500D01*
X40136535Y-44249500D01*
X40096385Y-44257486D01*
X39933586Y-44289868D01*
X39933579Y-44289870D01*
X39742401Y-44369059D01*
X39570345Y-44484022D01*
X39570344Y-44484024D01*
X39424024Y-44630344D01*
X39424022Y-44630345D01*
X39309059Y-44802401D01*
X39229870Y-44993579D01*
X39229868Y-44993586D01*
X39189500Y-45196535D01*
X38750500Y-45196535D01*
X38710130Y-44993580D01*
X38630941Y-44802402D01*
X38515977Y-44630345D01*
X38369655Y-44484023D01*
X38344052Y-44466916D01*
X38197598Y-44369059D01*
X38006420Y-44289870D01*
X38006413Y-44289868D01*
X37846896Y-44258139D01*
X37803465Y-44249500D01*
X37596535Y-44249500D01*
X37556385Y-44257486D01*
X37393586Y-44289868D01*
X37393579Y-44289870D01*
X37202401Y-44369059D01*
X37030345Y-44484022D01*
X37030344Y-44484024D01*
X36884024Y-44630344D01*
X36884022Y-44630345D01*
X36769059Y-44802401D01*
X36689870Y-44993579D01*
X36689868Y-44993586D01*
X36649500Y-45196535D01*
X36210500Y-45196535D01*
X36170130Y-44993580D01*
X36090941Y-44802402D01*
X35975977Y-44630345D01*
X35829655Y-44484023D01*
X35804052Y-44466916D01*
X35657598Y-44369059D01*
X35466420Y-44289870D01*
X35466413Y-44289868D01*
X35306896Y-44258139D01*
X35263465Y-44249500D01*
X35056535Y-44249500D01*
X35016385Y-44257486D01*
X34853586Y-44289868D01*
X34853579Y-44289870D01*
X34662401Y-44369059D01*
X34490345Y-44484022D01*
X34490344Y-44484024D01*
X34344024Y-44630344D01*
X34344022Y-44630345D01*
X34229059Y-44802401D01*
X34149870Y-44993579D01*
X34149868Y-44993586D01*
X34109500Y-45196535D01*
X33670500Y-45196535D01*
X33630130Y-44993580D01*
X33550941Y-44802402D01*
X33435977Y-44630345D01*
X33289655Y-44484023D01*
X33264052Y-44466916D01*
X33117598Y-44369059D01*
X32926420Y-44289870D01*
X32926413Y-44289868D01*
X32766896Y-44258139D01*
X32723465Y-44249500D01*
X32516535Y-44249500D01*
X32476385Y-44257486D01*
X32313586Y-44289868D01*
X32313579Y-44289870D01*
X32122401Y-44369059D01*
X31950345Y-44484022D01*
X31950344Y-44484024D01*
X31804024Y-44630344D01*
X31804022Y-44630345D01*
X31689059Y-44802401D01*
X31609870Y-44993579D01*
X31609868Y-44993586D01*
X31569500Y-45196535D01*
X31130500Y-45196535D01*
X31090130Y-44993580D01*
X31010941Y-44802402D01*
X30895977Y-44630345D01*
X30749655Y-44484023D01*
X30724052Y-44466916D01*
X30577598Y-44369059D01*
X30386420Y-44289870D01*
X30386413Y-44289868D01*
X30226896Y-44258139D01*
X30183465Y-44249500D01*
X29976535Y-44249500D01*
X29936385Y-44257486D01*
X29773586Y-44289868D01*
X29773579Y-44289870D01*
X29582401Y-44369059D01*
X29410345Y-44484022D01*
X29410344Y-44484024D01*
X29264024Y-44630344D01*
X29264022Y-44630345D01*
X29149059Y-44802401D01*
X29069870Y-44993579D01*
X29069868Y-44993586D01*
X29029500Y-45196535D01*
X26050500Y-45196535D01*
X26050500Y-44430252D01*
X26038867Y-44371769D01*
X26037056Y-44369059D01*
X26024027Y-44349560D01*
X25994552Y-44305448D01*
X25969475Y-44288692D01*
X25928232Y-44261133D01*
X25928233Y-44261133D01*
X25898989Y-44255316D01*
X25869748Y-44249500D01*
X24130252Y-44249500D01*
X24101010Y-44255316D01*
X24071767Y-44261133D01*
X24005449Y-44305447D01*
X24005447Y-44305449D01*
X23961133Y-44371767D01*
X23961133Y-44371769D01*
X23949500Y-44430252D01*
X21000000Y-44430252D01*
X21000000Y-37068305D01*
X30531600Y-37068305D01*
X30531600Y-37200094D01*
X30565706Y-37327381D01*
X30565707Y-37327384D01*
X30565708Y-37327386D01*
X30631600Y-37441514D01*
X30724786Y-37534700D01*
X30838914Y-37600592D01*
X30966205Y-37634699D01*
X30966206Y-37634700D01*
X30966208Y-37634700D01*
X31097994Y-37634700D01*
X31097994Y-37634699D01*
X31225286Y-37600592D01*
X31339414Y-37534700D01*
X31417740Y-37456374D01*
X31470066Y-37434700D01*
X34724764Y-37434700D01*
X34724764Y-37434699D01*
X34801189Y-37414221D01*
X34869711Y-37374660D01*
X34925660Y-37318711D01*
X35147674Y-37096697D01*
X35200000Y-37075023D01*
X35252326Y-37096697D01*
X37157440Y-39001811D01*
X37213389Y-39057760D01*
X37281911Y-39097321D01*
X37281912Y-39097321D01*
X37281914Y-39097322D01*
X37296738Y-39101294D01*
X37358335Y-39117799D01*
X37358336Y-39117800D01*
X37358338Y-39117800D01*
X39203334Y-39117800D01*
X39255660Y-39139474D01*
X39333986Y-39217800D01*
X39448114Y-39283692D01*
X39575405Y-39317799D01*
X39575406Y-39317800D01*
X39575408Y-39317800D01*
X39707194Y-39317800D01*
X39707194Y-39317799D01*
X39834486Y-39283692D01*
X39948614Y-39217800D01*
X40041800Y-39124614D01*
X40107692Y-39010486D01*
X40141799Y-38883194D01*
X40141800Y-38883194D01*
X40141800Y-38751406D01*
X40141799Y-38751405D01*
X40134025Y-38722393D01*
X40107692Y-38624114D01*
X40041800Y-38509986D01*
X39948614Y-38416800D01*
X39905098Y-38391676D01*
X39834490Y-38350910D01*
X39834481Y-38350906D01*
X39707194Y-38316800D01*
X39707192Y-38316800D01*
X39575408Y-38316800D01*
X39575406Y-38316800D01*
X39448118Y-38350906D01*
X39448109Y-38350910D01*
X39333985Y-38416800D01*
X39255660Y-38495126D01*
X39203334Y-38516800D01*
X37553023Y-38516800D01*
X37500697Y-38495126D01*
X35522174Y-36516603D01*
X35500500Y-36464277D01*
X35500500Y-35648805D01*
X35959800Y-35648805D01*
X35959800Y-35780594D01*
X35993906Y-35907881D01*
X35993907Y-35907884D01*
X35993908Y-35907886D01*
X36059800Y-36022014D01*
X36152986Y-36115200D01*
X36267114Y-36181092D01*
X36394405Y-36215199D01*
X36394406Y-36215200D01*
X36394408Y-36215200D01*
X36526194Y-36215200D01*
X36526194Y-36215199D01*
X36653486Y-36181092D01*
X36767614Y-36115200D01*
X36860800Y-36022014D01*
X36926692Y-35907886D01*
X36960799Y-35780594D01*
X36960800Y-35780594D01*
X36960800Y-35669822D01*
X36982474Y-35617496D01*
X37407444Y-35192526D01*
X38700303Y-33899667D01*
X38752628Y-33877994D01*
X38804954Y-33899668D01*
X38876986Y-33971700D01*
X38991114Y-34037592D01*
X39118405Y-34071699D01*
X39118406Y-34071700D01*
X39118408Y-34071700D01*
X39250194Y-34071700D01*
X39250194Y-34071699D01*
X39377486Y-34037592D01*
X39491614Y-33971700D01*
X39584800Y-33878514D01*
X39650692Y-33764386D01*
X39684799Y-33637094D01*
X39684800Y-33637094D01*
X39684800Y-33505306D01*
X39684799Y-33505305D01*
X39671426Y-33455397D01*
X39650692Y-33378014D01*
X39584800Y-33263886D01*
X39491614Y-33170700D01*
X39487092Y-33168089D01*
X39377490Y-33104810D01*
X39377481Y-33104806D01*
X39250194Y-33070700D01*
X39250192Y-33070700D01*
X39118408Y-33070700D01*
X39118406Y-33070700D01*
X38991118Y-33104806D01*
X38991109Y-33104810D01*
X38876985Y-33170700D01*
X38798660Y-33249026D01*
X38746334Y-33270700D01*
X38643362Y-33270700D01*
X38564238Y-33270700D01*
X38487812Y-33291178D01*
X38487811Y-33291178D01*
X38487809Y-33291179D01*
X38487807Y-33291180D01*
X38419292Y-33330737D01*
X36557502Y-35192526D01*
X36505176Y-35214200D01*
X36394406Y-35214200D01*
X36267118Y-35248306D01*
X36267109Y-35248310D01*
X36152985Y-35314200D01*
X36059800Y-35407385D01*
X35993910Y-35521509D01*
X35993906Y-35521518D01*
X35959800Y-35648805D01*
X35500500Y-35648805D01*
X35500500Y-34587966D01*
X35522174Y-34535640D01*
X35600500Y-34457314D01*
X35666392Y-34343186D01*
X35700499Y-34215894D01*
X35700500Y-34215894D01*
X35700500Y-34084106D01*
X35700499Y-34084105D01*
X35666393Y-33956818D01*
X35666392Y-33956814D01*
X35600500Y-33842686D01*
X35507314Y-33749500D01*
X35393190Y-33683610D01*
X35393181Y-33683606D01*
X35265894Y-33649500D01*
X35265892Y-33649500D01*
X35134108Y-33649500D01*
X35134106Y-33649500D01*
X35006818Y-33683606D01*
X35006809Y-33683610D01*
X34892685Y-33749500D01*
X34799500Y-33842685D01*
X34733610Y-33956809D01*
X34733606Y-33956818D01*
X34699500Y-34084105D01*
X34699500Y-34215894D01*
X34733606Y-34343181D01*
X34733610Y-34343190D01*
X34799500Y-34457314D01*
X34877826Y-34535640D01*
X34899500Y-34587966D01*
X34899500Y-36464277D01*
X34877826Y-36516603D01*
X34582403Y-36812026D01*
X34530077Y-36833700D01*
X31470066Y-36833700D01*
X31417740Y-36812026D01*
X31339414Y-36733700D01*
X31225290Y-36667810D01*
X31225281Y-36667806D01*
X31097994Y-36633700D01*
X31097992Y-36633700D01*
X30966208Y-36633700D01*
X30966206Y-36633700D01*
X30838918Y-36667806D01*
X30838909Y-36667810D01*
X30724785Y-36733700D01*
X30631600Y-36826885D01*
X30565710Y-36941009D01*
X30565706Y-36941018D01*
X30531600Y-37068305D01*
X21000000Y-37068305D01*
X21000000Y-22506384D01*
X21649500Y-22506384D01*
X21649500Y-22693615D01*
X21686025Y-22877244D01*
X21686027Y-22877251D01*
X21757678Y-23050231D01*
X21861698Y-23205908D01*
X21994092Y-23338302D01*
X22149769Y-23442322D01*
X22322749Y-23513973D01*
X22506384Y-23550500D01*
X22506385Y-23550500D01*
X22693615Y-23550500D01*
X22693616Y-23550500D01*
X22877251Y-23513973D01*
X22981300Y-23470874D01*
X23037936Y-23470874D01*
X23061944Y-23486915D01*
X32030940Y-32455911D01*
X32086889Y-32511860D01*
X32155411Y-32551421D01*
X32155412Y-32551421D01*
X32155414Y-32551422D01*
X32193624Y-32561660D01*
X32231835Y-32571899D01*
X32231836Y-32571900D01*
X32231838Y-32571900D01*
X38721034Y-32571900D01*
X38773360Y-32593574D01*
X38851686Y-32671900D01*
X38965814Y-32737792D01*
X39093105Y-32771899D01*
X39093106Y-32771900D01*
X39093108Y-32771900D01*
X39224894Y-32771900D01*
X39224894Y-32771899D01*
X39352186Y-32737792D01*
X39466314Y-32671900D01*
X39559500Y-32578714D01*
X39625392Y-32464586D01*
X39659499Y-32337294D01*
X39659500Y-32337294D01*
X39659500Y-32205506D01*
X39659499Y-32205505D01*
X39625393Y-32078218D01*
X39625392Y-32078214D01*
X39559500Y-31964086D01*
X39466314Y-31870900D01*
X39352190Y-31805010D01*
X39352181Y-31805006D01*
X39224894Y-31770900D01*
X39224892Y-31770900D01*
X39093108Y-31770900D01*
X39093106Y-31770900D01*
X38965818Y-31805006D01*
X38965809Y-31805010D01*
X38851685Y-31870900D01*
X38773360Y-31949226D01*
X38721034Y-31970900D01*
X32426523Y-31970900D01*
X32374197Y-31949226D01*
X23486915Y-23061944D01*
X23465241Y-23009618D01*
X23470874Y-22981299D01*
X23513973Y-22877251D01*
X23550500Y-22693616D01*
X23550500Y-22506384D01*
X25249500Y-22506384D01*
X25249500Y-22693615D01*
X25286025Y-22877244D01*
X25286027Y-22877251D01*
X25357678Y-23050231D01*
X25461698Y-23205908D01*
X25594092Y-23338302D01*
X25749769Y-23442322D01*
X25922749Y-23513973D01*
X26106384Y-23550500D01*
X26106385Y-23550500D01*
X26293615Y-23550500D01*
X26293616Y-23550500D01*
X26477251Y-23513973D01*
X26581300Y-23470874D01*
X26637936Y-23470874D01*
X26661944Y-23486915D01*
X33614126Y-30439097D01*
X33635800Y-30491423D01*
X33635800Y-30602194D01*
X33669906Y-30729481D01*
X33669907Y-30729484D01*
X33669908Y-30729486D01*
X33735800Y-30843614D01*
X33828986Y-30936800D01*
X33943114Y-31002692D01*
X34070405Y-31036799D01*
X34070406Y-31036800D01*
X34070408Y-31036800D01*
X34202194Y-31036800D01*
X34202194Y-31036799D01*
X34329486Y-31002692D01*
X34443614Y-30936800D01*
X34536800Y-30843614D01*
X34602692Y-30729486D01*
X34636799Y-30602194D01*
X34636800Y-30602194D01*
X34636800Y-30470406D01*
X34636799Y-30470405D01*
X34625841Y-30429510D01*
X34602692Y-30343114D01*
X34536800Y-30228986D01*
X34443614Y-30135800D01*
X34431637Y-30128885D01*
X34329490Y-30069910D01*
X34329481Y-30069906D01*
X34202194Y-30035800D01*
X34202192Y-30035800D01*
X34091423Y-30035800D01*
X34039097Y-30014126D01*
X27086915Y-23061944D01*
X27065241Y-23009618D01*
X27070874Y-22981299D01*
X27113973Y-22877251D01*
X27150500Y-22693616D01*
X27150500Y-22506384D01*
X28849500Y-22506384D01*
X28849500Y-22693615D01*
X28886025Y-22877244D01*
X28886027Y-22877251D01*
X28957678Y-23050231D01*
X29005477Y-23121767D01*
X29061697Y-23205907D01*
X29194092Y-23338302D01*
X29349769Y-23442322D01*
X29453818Y-23485420D01*
X29493867Y-23525468D01*
X29499500Y-23553787D01*
X29499500Y-23874864D01*
X29519977Y-23951285D01*
X29519979Y-23951290D01*
X29548387Y-24000494D01*
X29548388Y-24000496D01*
X29548391Y-24000500D01*
X29559540Y-24019811D01*
X29559541Y-24019812D01*
X36592526Y-31052797D01*
X36614200Y-31105123D01*
X36614200Y-31215894D01*
X36648306Y-31343181D01*
X36648310Y-31343190D01*
X36679031Y-31396400D01*
X36714200Y-31457314D01*
X36807386Y-31550500D01*
X36921514Y-31616392D01*
X37048805Y-31650499D01*
X37048806Y-31650500D01*
X37048808Y-31650500D01*
X37180594Y-31650500D01*
X37180594Y-31650499D01*
X37307886Y-31616392D01*
X37422014Y-31550500D01*
X37515200Y-31457314D01*
X37581092Y-31343186D01*
X37615199Y-31215894D01*
X37615200Y-31215894D01*
X37615200Y-31084106D01*
X37615199Y-31084105D01*
X37581093Y-30956818D01*
X37581092Y-30956814D01*
X37515200Y-30842686D01*
X37422014Y-30749500D01*
X37387340Y-30729481D01*
X37307890Y-30683610D01*
X37307881Y-30683606D01*
X37180594Y-30649500D01*
X37180592Y-30649500D01*
X37069823Y-30649500D01*
X37017497Y-30627826D01*
X30122174Y-23732503D01*
X30100500Y-23680177D01*
X30100500Y-23553787D01*
X30122174Y-23501461D01*
X30146182Y-23485420D01*
X30250231Y-23442322D01*
X30405908Y-23338302D01*
X30538302Y-23205908D01*
X30642322Y-23050231D01*
X30713973Y-22877251D01*
X30750500Y-22693616D01*
X30750500Y-22506384D01*
X32449500Y-22506384D01*
X32449500Y-22693615D01*
X32486025Y-22877244D01*
X32486027Y-22877251D01*
X32557678Y-23050231D01*
X32661698Y-23205908D01*
X32794092Y-23338302D01*
X32949769Y-23442322D01*
X33122749Y-23513973D01*
X33306384Y-23550500D01*
X33306385Y-23550500D01*
X33493615Y-23550500D01*
X33493616Y-23550500D01*
X33677251Y-23513973D01*
X33850231Y-23442322D01*
X34005908Y-23338302D01*
X34138302Y-23205908D01*
X34242322Y-23050231D01*
X34285421Y-22946180D01*
X34325470Y-22906133D01*
X34353788Y-22900500D01*
X36356177Y-22900500D01*
X36408503Y-22922174D01*
X40806926Y-27320597D01*
X40828600Y-27372923D01*
X40828600Y-27483694D01*
X40862706Y-27610981D01*
X40862710Y-27610990D01*
X40870836Y-27625064D01*
X40928600Y-27725114D01*
X41021786Y-27818300D01*
X41135914Y-27884192D01*
X41135918Y-27884193D01*
X41166471Y-27892380D01*
X41211404Y-27926858D01*
X41218796Y-27983011D01*
X41199644Y-28016184D01*
X40951089Y-28264740D01*
X40895140Y-28320688D01*
X40855579Y-28389209D01*
X40855577Y-28389214D01*
X40835100Y-28465635D01*
X40835100Y-29808364D01*
X40855577Y-29884785D01*
X40855579Y-29884790D01*
X40871689Y-29912692D01*
X40895140Y-29953311D01*
X41211926Y-30270097D01*
X41233600Y-30322423D01*
X41233600Y-30515934D01*
X41211926Y-30568260D01*
X41159600Y-30589934D01*
X41107274Y-30568260D01*
X41034414Y-30495400D01*
X40920290Y-30429510D01*
X40920281Y-30429506D01*
X40792994Y-30395400D01*
X40792992Y-30395400D01*
X40682223Y-30395400D01*
X40629897Y-30373726D01*
X37287074Y-27030903D01*
X37265400Y-26978577D01*
X37265400Y-26707566D01*
X37287074Y-26655240D01*
X37365400Y-26576914D01*
X37431292Y-26462786D01*
X37465399Y-26335494D01*
X37465400Y-26335494D01*
X37465400Y-26203706D01*
X37465399Y-26203705D01*
X37444042Y-26124000D01*
X37431292Y-26076414D01*
X37365400Y-25962286D01*
X37272214Y-25869100D01*
X37158090Y-25803210D01*
X37158081Y-25803206D01*
X37030794Y-25769100D01*
X37030792Y-25769100D01*
X36899008Y-25769100D01*
X36899006Y-25769100D01*
X36771718Y-25803206D01*
X36771709Y-25803210D01*
X36657585Y-25869100D01*
X36564400Y-25962285D01*
X36498510Y-26076409D01*
X36498506Y-26076418D01*
X36464400Y-26203705D01*
X36464400Y-26335494D01*
X36498506Y-26462781D01*
X36498510Y-26462790D01*
X36564400Y-26576914D01*
X36642726Y-26655240D01*
X36664400Y-26707566D01*
X36664400Y-27173264D01*
X36684877Y-27249685D01*
X36684879Y-27249690D01*
X36702691Y-27280540D01*
X36724440Y-27318211D01*
X40204926Y-30798697D01*
X40226600Y-30851023D01*
X40226600Y-30961794D01*
X40260706Y-31089081D01*
X40260707Y-31089084D01*
X40260708Y-31089086D01*
X40326600Y-31203214D01*
X40419786Y-31296400D01*
X40533914Y-31362292D01*
X40661205Y-31396399D01*
X40661206Y-31396400D01*
X40661208Y-31396400D01*
X40792994Y-31396400D01*
X40792994Y-31396399D01*
X40920286Y-31362292D01*
X41034414Y-31296400D01*
X41107274Y-31223540D01*
X41159600Y-31201866D01*
X41211926Y-31223540D01*
X41233600Y-31275866D01*
X41233600Y-44093664D01*
X41254077Y-44170085D01*
X41254079Y-44170090D01*
X41287051Y-44227198D01*
X41287053Y-44227201D01*
X41293640Y-44238611D01*
X41816548Y-44761519D01*
X41838222Y-44813845D01*
X41832589Y-44842164D01*
X41769870Y-44993579D01*
X41769868Y-44993586D01*
X41729500Y-45196535D01*
X41729500Y-45403464D01*
X41769868Y-45606413D01*
X41769870Y-45606420D01*
X41849059Y-45797598D01*
X41964023Y-45969655D01*
X42110345Y-46115977D01*
X42282402Y-46230941D01*
X42473580Y-46310130D01*
X42676535Y-46350500D01*
X42676536Y-46350500D01*
X42883464Y-46350500D01*
X42883465Y-46350500D01*
X43086420Y-46310130D01*
X43277598Y-46230941D01*
X43449655Y-46115977D01*
X43595977Y-45969655D01*
X43681949Y-45840986D01*
X43729040Y-45809522D01*
X43784589Y-45820571D01*
X43795803Y-45829774D01*
X44611840Y-46645811D01*
X44667789Y-46701760D01*
X44736311Y-46741321D01*
X44736312Y-46741321D01*
X44736314Y-46741322D01*
X44774524Y-46751560D01*
X44812735Y-46761799D01*
X44812736Y-46761800D01*
X44812738Y-46761800D01*
X51818264Y-46761800D01*
X51818264Y-46761799D01*
X51894689Y-46741321D01*
X51963211Y-46701760D01*
X52019160Y-46645811D01*
X52401519Y-46263450D01*
X52453844Y-46241777D01*
X52482160Y-46247409D01*
X52633580Y-46310130D01*
X52836535Y-46350500D01*
X52836536Y-46350500D01*
X53043464Y-46350500D01*
X53043465Y-46350500D01*
X53246420Y-46310130D01*
X53437598Y-46230941D01*
X53609655Y-46115977D01*
X53755977Y-45969655D01*
X53870941Y-45797598D01*
X53950130Y-45606420D01*
X53990500Y-45403465D01*
X53990500Y-45196535D01*
X53950130Y-44993580D01*
X53870941Y-44802402D01*
X53755977Y-44630345D01*
X53609655Y-44484023D01*
X53584052Y-44466916D01*
X53437598Y-44369059D01*
X53246420Y-44289870D01*
X53246413Y-44289868D01*
X53086896Y-44258139D01*
X53043465Y-44249500D01*
X52836535Y-44249500D01*
X52796385Y-44257486D01*
X52633586Y-44289868D01*
X52633579Y-44289870D01*
X52482164Y-44352589D01*
X52425526Y-44352589D01*
X52401519Y-44336548D01*
X51447174Y-43382203D01*
X51425500Y-43329877D01*
X51425500Y-39597866D01*
X51447174Y-39545540D01*
X51484514Y-39508200D01*
X51525500Y-39467214D01*
X51591392Y-39353086D01*
X51625499Y-39225794D01*
X51625500Y-39225794D01*
X51625500Y-39094006D01*
X51625499Y-39094005D01*
X51603120Y-39010486D01*
X51591392Y-38966714D01*
X51525500Y-38852586D01*
X51432314Y-38759400D01*
X51427289Y-38756499D01*
X51318190Y-38693510D01*
X51318181Y-38693506D01*
X51190894Y-38659400D01*
X51190892Y-38659400D01*
X51059108Y-38659400D01*
X51059106Y-38659400D01*
X50931818Y-38693506D01*
X50931809Y-38693510D01*
X50817685Y-38759400D01*
X50724500Y-38852585D01*
X50658610Y-38966709D01*
X50658606Y-38966718D01*
X50624500Y-39094005D01*
X50624500Y-39225794D01*
X50658606Y-39353081D01*
X50658610Y-39353090D01*
X50724500Y-39467214D01*
X50802826Y-39545540D01*
X50824500Y-39597866D01*
X50824500Y-41216928D01*
X50802826Y-41269254D01*
X50750500Y-41290928D01*
X50698174Y-41269254D01*
X50683396Y-41243660D01*
X50681876Y-41244290D01*
X50680020Y-41239809D01*
X50640459Y-41171288D01*
X48305908Y-38836737D01*
X48284234Y-38784411D01*
X48305908Y-38732085D01*
X48358234Y-38710411D01*
X48395235Y-38720326D01*
X48398807Y-38722388D01*
X48398814Y-38722392D01*
X48526105Y-38756499D01*
X48526106Y-38756500D01*
X48526108Y-38756500D01*
X48657894Y-38756500D01*
X48657894Y-38756499D01*
X48785186Y-38722392D01*
X48899314Y-38656500D01*
X48992500Y-38563314D01*
X49058392Y-38449186D01*
X49092499Y-38321894D01*
X49092500Y-38321894D01*
X49092500Y-38199831D01*
X49102414Y-38162831D01*
X49124117Y-38125240D01*
X49131420Y-38112590D01*
X49131421Y-38112589D01*
X49151899Y-38036164D01*
X49151900Y-38036164D01*
X49151900Y-30377866D01*
X49173574Y-30325540D01*
X49207343Y-30291771D01*
X49251900Y-30247214D01*
X49317792Y-30133086D01*
X49317792Y-30133084D01*
X49320217Y-30128885D01*
X49323015Y-30130500D01*
X49355781Y-30097483D01*
X49362286Y-30095111D01*
X52583730Y-29088664D01*
X52615989Y-29080021D01*
X52621403Y-29076895D01*
X52627373Y-29075030D01*
X52654329Y-29057954D01*
X52656876Y-29056413D01*
X52684511Y-29040460D01*
X52684512Y-29040459D01*
X52688935Y-29036035D01*
X52694215Y-29032692D01*
X52716835Y-29008135D01*
X52740460Y-28984511D01*
X52743587Y-28979093D01*
X52747822Y-28974497D01*
X52763313Y-28944927D01*
X52780021Y-28915989D01*
X52781640Y-28909945D01*
X52784541Y-28904409D01*
X52791852Y-28871833D01*
X52800500Y-28839562D01*
X52800500Y-28833307D01*
X52801869Y-28827208D01*
X52800500Y-28793845D01*
X52800500Y-26847828D01*
X53250000Y-26847828D01*
X53256402Y-26907375D01*
X53256403Y-26907380D01*
X53306645Y-27042087D01*
X53306646Y-27042088D01*
X53392811Y-27157188D01*
X53507911Y-27243353D01*
X53507912Y-27243354D01*
X53642619Y-27293596D01*
X53642624Y-27293597D01*
X53702171Y-27300000D01*
X54250000Y-27300000D01*
X54250000Y-26550000D01*
X53250000Y-26550000D01*
X53250000Y-26847828D01*
X52800500Y-26847828D01*
X52800500Y-24074500D01*
X52822174Y-24022174D01*
X52874500Y-24000500D01*
X53475500Y-24000500D01*
X53527826Y-24022174D01*
X53549500Y-24074500D01*
X53549500Y-24219746D01*
X53561133Y-24278232D01*
X53581617Y-24308888D01*
X53592666Y-24364436D01*
X53581617Y-24391112D01*
X53561133Y-24421767D01*
X53549500Y-24480253D01*
X53549500Y-25290031D01*
X53527826Y-25342357D01*
X53510965Y-25354979D01*
X53507912Y-25356646D01*
X53392811Y-25442811D01*
X53306646Y-25557911D01*
X53306645Y-25557912D01*
X53256403Y-25692619D01*
X53256402Y-25692624D01*
X53250000Y-25752171D01*
X53250000Y-26050000D01*
X54426000Y-26050000D01*
X54478326Y-26071674D01*
X54500000Y-26124000D01*
X54500000Y-26300000D01*
X54676000Y-26300000D01*
X54728326Y-26321674D01*
X54750000Y-26374000D01*
X54750000Y-27300000D01*
X55297829Y-27300000D01*
X55357375Y-27293597D01*
X55357380Y-27293596D01*
X55492087Y-27243354D01*
X55492088Y-27243353D01*
X55581153Y-27176679D01*
X55636030Y-27162672D01*
X55684740Y-27191572D01*
X55699500Y-27235919D01*
X55699500Y-41526633D01*
X55677826Y-41578959D01*
X55648053Y-41597112D01*
X53823626Y-42180927D01*
X53767184Y-42176232D01*
X53764074Y-42174534D01*
X53693190Y-42133610D01*
X53693181Y-42133606D01*
X53565894Y-42099500D01*
X53565892Y-42099500D01*
X53434108Y-42099500D01*
X53434106Y-42099500D01*
X53306818Y-42133606D01*
X53306809Y-42133610D01*
X53192685Y-42199500D01*
X53099500Y-42292685D01*
X53033610Y-42406809D01*
X53033606Y-42406818D01*
X52999500Y-42534105D01*
X52999500Y-42665894D01*
X53033606Y-42793181D01*
X53033607Y-42793184D01*
X53033608Y-42793186D01*
X53099500Y-42907314D01*
X53192686Y-43000500D01*
X53306814Y-43066392D01*
X53434105Y-43100499D01*
X53434106Y-43100500D01*
X53434108Y-43100500D01*
X53565894Y-43100500D01*
X53565894Y-43100499D01*
X53693186Y-43066392D01*
X53807314Y-43000500D01*
X53900500Y-42907314D01*
X53966392Y-42793186D01*
X53966392Y-42793184D01*
X53968817Y-42788985D01*
X53970193Y-42789779D01*
X54006151Y-42753809D01*
X54011914Y-42751697D01*
X56084733Y-42088396D01*
X56115989Y-42080021D01*
X56122307Y-42076371D01*
X56126073Y-42075166D01*
X56129265Y-42074146D01*
X56156484Y-42056641D01*
X56184511Y-42040460D01*
X56189674Y-42035296D01*
X56195814Y-42031348D01*
X56216399Y-42008688D01*
X56218805Y-42006164D01*
X56240460Y-41984511D01*
X56244110Y-41978187D01*
X56249019Y-41972785D01*
X56263836Y-41944022D01*
X56280021Y-41915989D01*
X56281911Y-41908935D01*
X56285254Y-41902446D01*
X56292121Y-41870830D01*
X56296198Y-41855613D01*
X56300500Y-41839564D01*
X56300500Y-41832258D01*
X56302049Y-41825127D01*
X56300500Y-41792809D01*
X56300500Y-24960438D01*
X56300500Y-24960436D01*
X56300499Y-24960435D01*
X56280022Y-24884014D01*
X56280020Y-24884009D01*
X56240459Y-24815488D01*
X56184511Y-24759540D01*
X56115990Y-24719979D01*
X56115985Y-24719977D01*
X56039564Y-24699500D01*
X56039562Y-24699500D01*
X55524500Y-24699500D01*
X55472174Y-24677826D01*
X55450500Y-24625500D01*
X55450500Y-24480253D01*
X55450500Y-24480252D01*
X55438867Y-24421769D01*
X55418382Y-24391112D01*
X55407333Y-24335565D01*
X55418381Y-24308888D01*
X55438867Y-24278231D01*
X55450500Y-24219748D01*
X55450500Y-23180252D01*
X55438867Y-23121769D01*
X55394552Y-23055448D01*
X55351949Y-23026981D01*
X55328232Y-23011133D01*
X55328233Y-23011133D01*
X55298989Y-23005316D01*
X55269748Y-22999500D01*
X53730252Y-22999500D01*
X53701010Y-23005316D01*
X53671767Y-23011133D01*
X53605449Y-23055447D01*
X53605447Y-23055449D01*
X53561133Y-23121767D01*
X53549500Y-23180253D01*
X53549500Y-23325500D01*
X53527826Y-23377826D01*
X53475500Y-23399500D01*
X52460436Y-23399500D01*
X52384014Y-23419977D01*
X52384009Y-23419979D01*
X52315488Y-23459540D01*
X52259540Y-23515488D01*
X52219979Y-23584009D01*
X52219977Y-23584014D01*
X52199500Y-23660435D01*
X52199500Y-28524649D01*
X52177826Y-28576975D01*
X52147567Y-28595282D01*
X49178066Y-29523017D01*
X49121658Y-29517933D01*
X49118999Y-29516470D01*
X49044589Y-29473510D01*
X49044586Y-29473508D01*
X49044583Y-29473507D01*
X49044581Y-29473506D01*
X48917294Y-29439400D01*
X48917292Y-29439400D01*
X48785508Y-29439400D01*
X48785506Y-29439400D01*
X48658218Y-29473506D01*
X48658209Y-29473510D01*
X48544085Y-29539400D01*
X48450900Y-29632585D01*
X48385010Y-29746709D01*
X48385006Y-29746718D01*
X48350900Y-29874005D01*
X48350900Y-30005794D01*
X48385006Y-30133081D01*
X48385010Y-30133090D01*
X48450900Y-30247214D01*
X48529226Y-30325540D01*
X48550900Y-30377866D01*
X48550900Y-37692074D01*
X48529226Y-37744400D01*
X48496053Y-37763552D01*
X48398818Y-37789606D01*
X48398809Y-37789610D01*
X48284683Y-37855501D01*
X48280837Y-37858453D01*
X48279316Y-37856470D01*
X48234500Y-37875034D01*
X48182174Y-37853360D01*
X48160500Y-37801034D01*
X48160500Y-30253536D01*
X48160499Y-30253535D01*
X48140022Y-30177114D01*
X48140020Y-30177109D01*
X48116170Y-30135800D01*
X48100460Y-30108589D01*
X48044511Y-30052640D01*
X46200374Y-28208503D01*
X46178700Y-28156177D01*
X46178700Y-28045406D01*
X46178699Y-28045405D01*
X46170869Y-28016184D01*
X46144592Y-27918114D01*
X46078700Y-27803986D01*
X45985514Y-27710800D01*
X45985488Y-27710785D01*
X45871390Y-27644910D01*
X45871381Y-27644906D01*
X45744094Y-27610800D01*
X45744092Y-27610800D01*
X45643300Y-27610800D01*
X45590974Y-27589126D01*
X45569300Y-27536800D01*
X45569300Y-27455106D01*
X45569299Y-27455105D01*
X45535193Y-27327818D01*
X45535192Y-27327814D01*
X45469300Y-27213686D01*
X45376114Y-27120500D01*
X45358768Y-27110485D01*
X45261990Y-27054610D01*
X45261981Y-27054606D01*
X45134694Y-27020500D01*
X45134692Y-27020500D01*
X45002908Y-27020500D01*
X45002906Y-27020500D01*
X44875618Y-27054606D01*
X44875609Y-27054610D01*
X44761485Y-27120500D01*
X44668300Y-27213685D01*
X44602410Y-27327809D01*
X44602406Y-27327818D01*
X44568300Y-27455105D01*
X44568300Y-27586894D01*
X44602406Y-27714181D01*
X44602410Y-27714190D01*
X44668300Y-27828314D01*
X44746626Y-27906640D01*
X44768300Y-27958966D01*
X44768300Y-28419564D01*
X44788777Y-28495985D01*
X44788779Y-28495990D01*
X44816938Y-28544762D01*
X44828340Y-28564511D01*
X47156126Y-30892297D01*
X47177800Y-30944623D01*
X47177800Y-33460477D01*
X47156126Y-33512803D01*
X47103800Y-33534477D01*
X47051474Y-33512803D01*
X42636974Y-29098303D01*
X42615300Y-29045977D01*
X42615300Y-28935206D01*
X42615299Y-28935205D01*
X42607047Y-28904409D01*
X42581192Y-28807914D01*
X42527247Y-28714480D01*
X42519855Y-28658329D01*
X42554332Y-28613397D01*
X42591914Y-28591700D01*
X42685100Y-28498514D01*
X42750992Y-28384386D01*
X42785099Y-28257094D01*
X42785100Y-28257094D01*
X42785100Y-28125306D01*
X42785099Y-28125305D01*
X42774029Y-28083992D01*
X42750992Y-27998014D01*
X42739206Y-27977600D01*
X42731813Y-27921448D01*
X42766292Y-27876514D01*
X42803292Y-27866600D01*
X43141777Y-27866600D01*
X43194103Y-27888274D01*
X43226726Y-27920897D01*
X43248400Y-27973223D01*
X43248400Y-28083994D01*
X43282506Y-28211281D01*
X43282507Y-28211284D01*
X43282508Y-28211286D01*
X43348400Y-28325414D01*
X43441586Y-28418600D01*
X43555714Y-28484492D01*
X43683005Y-28518599D01*
X43683006Y-28518600D01*
X43683008Y-28518600D01*
X43814794Y-28518600D01*
X43814794Y-28518599D01*
X43942086Y-28484492D01*
X44056214Y-28418600D01*
X44149400Y-28325414D01*
X44215292Y-28211286D01*
X44249399Y-28083994D01*
X44249400Y-28083994D01*
X44249400Y-27952206D01*
X44249399Y-27952205D01*
X44242607Y-27926858D01*
X44215292Y-27824914D01*
X44149400Y-27710786D01*
X44056214Y-27617600D01*
X44003030Y-27586894D01*
X43942090Y-27551710D01*
X43942081Y-27551706D01*
X43814794Y-27517600D01*
X43814792Y-27517600D01*
X43704023Y-27517600D01*
X43651697Y-27495926D01*
X43481411Y-27325640D01*
X43412890Y-27286079D01*
X43412885Y-27286077D01*
X43336464Y-27265600D01*
X43336462Y-27265600D01*
X42035138Y-27265600D01*
X42035136Y-27265600D01*
X41958714Y-27286077D01*
X41958705Y-27286081D01*
X41915139Y-27311234D01*
X41858987Y-27318626D01*
X41814054Y-27284147D01*
X41806663Y-27266307D01*
X41795492Y-27224614D01*
X41729600Y-27110486D01*
X41636414Y-27017300D01*
X41569344Y-26978577D01*
X41522290Y-26951410D01*
X41522281Y-26951406D01*
X41394994Y-26917300D01*
X41394992Y-26917300D01*
X41284223Y-26917300D01*
X41231897Y-26895626D01*
X36695811Y-22359540D01*
X36627290Y-22319979D01*
X36627285Y-22319977D01*
X36550864Y-22299500D01*
X36550862Y-22299500D01*
X34353788Y-22299500D01*
X34301462Y-22277826D01*
X34285421Y-22253819D01*
X34242322Y-22149769D01*
X34138302Y-21994092D01*
X34005907Y-21861697D01*
X33893514Y-21786599D01*
X33850231Y-21757678D01*
X33850228Y-21757676D01*
X33850227Y-21757676D01*
X33677251Y-21686027D01*
X33677244Y-21686025D01*
X33538902Y-21658507D01*
X33493616Y-21649500D01*
X33306384Y-21649500D01*
X33270056Y-21656725D01*
X33122755Y-21686025D01*
X33122748Y-21686027D01*
X32949772Y-21757676D01*
X32794092Y-21861697D01*
X32794091Y-21861699D01*
X32661699Y-21994091D01*
X32661697Y-21994092D01*
X32557676Y-22149772D01*
X32486027Y-22322748D01*
X32486025Y-22322755D01*
X32449500Y-22506384D01*
X30750500Y-22506384D01*
X30713973Y-22322749D01*
X30642322Y-22149769D01*
X30538302Y-21994092D01*
X30405908Y-21861698D01*
X30250231Y-21757678D01*
X30250228Y-21757676D01*
X30250227Y-21757676D01*
X30077251Y-21686027D01*
X30077244Y-21686025D01*
X29938902Y-21658507D01*
X29893616Y-21649500D01*
X29706384Y-21649500D01*
X29670056Y-21656725D01*
X29522755Y-21686025D01*
X29522748Y-21686027D01*
X29349772Y-21757676D01*
X29194092Y-21861697D01*
X29194091Y-21861699D01*
X29061699Y-21994091D01*
X29061697Y-21994092D01*
X28957676Y-22149772D01*
X28886027Y-22322748D01*
X28886025Y-22322755D01*
X28849500Y-22506384D01*
X27150500Y-22506384D01*
X27113973Y-22322749D01*
X27042322Y-22149769D01*
X26938302Y-21994092D01*
X26805908Y-21861698D01*
X26650231Y-21757678D01*
X26650228Y-21757676D01*
X26650227Y-21757676D01*
X26477251Y-21686027D01*
X26477244Y-21686025D01*
X26338902Y-21658507D01*
X26293616Y-21649500D01*
X26106384Y-21649500D01*
X26070056Y-21656725D01*
X25922755Y-21686025D01*
X25922748Y-21686027D01*
X25749772Y-21757676D01*
X25594092Y-21861697D01*
X25594091Y-21861699D01*
X25461699Y-21994091D01*
X25461697Y-21994092D01*
X25357676Y-22149772D01*
X25286027Y-22322748D01*
X25286025Y-22322755D01*
X25249500Y-22506384D01*
X23550500Y-22506384D01*
X23513973Y-22322749D01*
X23442322Y-22149769D01*
X23338302Y-21994092D01*
X23205908Y-21861698D01*
X23050231Y-21757678D01*
X23050228Y-21757676D01*
X23050227Y-21757676D01*
X22877251Y-21686027D01*
X22877244Y-21686025D01*
X22738902Y-21658507D01*
X22693616Y-21649500D01*
X22506384Y-21649500D01*
X22470056Y-21656725D01*
X22322755Y-21686025D01*
X22322748Y-21686027D01*
X22149772Y-21757676D01*
X21994092Y-21861697D01*
X21994091Y-21861699D01*
X21861699Y-21994091D01*
X21861697Y-21994092D01*
X21757676Y-22149772D01*
X21686027Y-22322748D01*
X21686025Y-22322755D01*
X21649500Y-22506384D01*
X21000000Y-22506384D01*
X21000000Y-21074000D01*
X21021674Y-21021674D01*
X21074000Y-21000000D01*
X57126000Y-21000000D01*
X57178326Y-21021674D01*
G37*
%TD.AperFunction*%
%TD*%
M02*
