%TF.GenerationSoftware,KiCad,Pcbnew,10.0.3*%
%TF.CreationDate,2026-10-06T10:20:21+10:30*%
%TF.ProjectId,STPM32_Breakout,5354504d-3332-45f4-9272-65616b6f7574,B*%
%TF.SameCoordinates,Original*%
%TF.FileFunction,Legend,Top*%
%TF.FilePolarity,Positive*%
%FSLAX46Y46*%
G04 Gerber Fmt 4.6, Leading zero omitted, Abs format (unit mm)*
G04 Created by KiCad (PCBNEW 10.0.3) date 2026-10-06 10:20:21*
%MOMM*%
%LPD*%
G01*
G04 APERTURE LIST*
G04 Aperture macros list*
%AMRoundRect*
0 Rectangle with rounded corners*
0 $1 Rounding radius*
0 $2 $3 $4 $5 $6 $7 $8 $9 X,Y pos of 4 corners*
0 Add a 4 corners polygon primitive as box body*
4,1,4,$2,$3,$4,$5,$6,$7,$8,$9,$2,$3,0*
0 Add four circle primitives for the rounded corners*
1,1,$1+$1,$2,$3*
1,1,$1+$1,$4,$5*
1,1,$1+$1,$6,$7*
1,1,$1+$1,$8,$9*
0 Add four rect primitives between the rounded corners*
20,1,$1+$1,$2,$3,$4,$5,0*
20,1,$1+$1,$4,$5,$6,$7,0*
20,1,$1+$1,$6,$7,$8,$9,0*
20,1,$1+$1,$8,$9,$2,$3,0*%
G04 Aperture macros list end*
%ADD10C,0.200000*%
%ADD11C,0.120000*%
%ADD12C,0.010000*%
%ADD13RoundRect,0.250000X-0.450000X-0.350000X0.450000X-0.350000X0.450000X0.350000X-0.450000X0.350000X0*%
%ADD14RoundRect,0.225000X0.250000X-0.225000X0.250000X0.225000X-0.250000X0.225000X-0.250000X-0.225000X0*%
%ADD15RoundRect,0.225000X-0.225000X-0.250000X0.225000X-0.250000X0.225000X0.250000X-0.225000X0.250000X0*%
%ADD16RoundRect,0.200000X0.275000X-0.200000X0.275000X0.200000X-0.275000X0.200000X-0.275000X-0.200000X0*%
%ADD17RoundRect,0.250000X0.475000X-0.250000X0.475000X0.250000X-0.475000X0.250000X-0.475000X-0.250000X0*%
%ADD18RoundRect,0.200000X-0.200000X-0.275000X0.200000X-0.275000X0.200000X0.275000X-0.200000X0.275000X0*%
%ADD19R,1.500000X1.500000*%
%ADD20R,1.700000X1.700000*%
%ADD21C,1.700000*%
%ADD22RoundRect,0.062500X-0.325000X-0.062500X0.325000X-0.062500X0.325000X0.062500X-0.325000X0.062500X0*%
%ADD23RoundRect,0.062500X-0.062500X-0.325000X0.062500X-0.325000X0.062500X0.325000X-0.062500X0.325000X0*%
%ADD24R,2.450000X2.450000*%
G04 APERTURE END LIST*
D10*
X48419237Y-23829361D02*
X48571618Y-24362695D01*
X48571618Y-24362695D02*
X48723999Y-23981742D01*
X48723999Y-23981742D02*
X48876380Y-24362695D01*
X48876380Y-24362695D02*
X49028761Y-23829361D01*
X49333523Y-24362695D02*
X49333523Y-23562695D01*
X49676380Y-24362695D02*
X49676380Y-23943647D01*
X49676380Y-23943647D02*
X49638285Y-23867457D01*
X49638285Y-23867457D02*
X49562094Y-23829361D01*
X49562094Y-23829361D02*
X49447808Y-23829361D01*
X49447808Y-23829361D02*
X49371618Y-23867457D01*
X49371618Y-23867457D02*
X49333523Y-23905552D01*
X50400190Y-24362695D02*
X50400190Y-23943647D01*
X50400190Y-23943647D02*
X50362095Y-23867457D01*
X50362095Y-23867457D02*
X50285904Y-23829361D01*
X50285904Y-23829361D02*
X50133523Y-23829361D01*
X50133523Y-23829361D02*
X50057333Y-23867457D01*
X50400190Y-24324600D02*
X50323999Y-24362695D01*
X50323999Y-24362695D02*
X50133523Y-24362695D01*
X50133523Y-24362695D02*
X50057333Y-24324600D01*
X50057333Y-24324600D02*
X50019237Y-24248409D01*
X50019237Y-24248409D02*
X50019237Y-24172219D01*
X50019237Y-24172219D02*
X50057333Y-24096028D01*
X50057333Y-24096028D02*
X50133523Y-24057933D01*
X50133523Y-24057933D02*
X50323999Y-24057933D01*
X50323999Y-24057933D02*
X50400190Y-24019838D01*
X50666857Y-23829361D02*
X50971619Y-23829361D01*
X50781143Y-23562695D02*
X50781143Y-24248409D01*
X50781143Y-24248409D02*
X50819238Y-24324600D01*
X50819238Y-24324600D02*
X50895428Y-24362695D01*
X50895428Y-24362695D02*
X50971619Y-24362695D01*
X51238286Y-23829361D02*
X51238286Y-24362695D01*
X51238286Y-23905552D02*
X51276381Y-23867457D01*
X51276381Y-23867457D02*
X51352571Y-23829361D01*
X51352571Y-23829361D02*
X51466857Y-23829361D01*
X51466857Y-23829361D02*
X51543048Y-23867457D01*
X51543048Y-23867457D02*
X51581143Y-23943647D01*
X51581143Y-23943647D02*
X51581143Y-24362695D01*
X51962096Y-24362695D02*
X51962096Y-23829361D01*
X51962096Y-23562695D02*
X51924000Y-23600790D01*
X51924000Y-23600790D02*
X51962096Y-23638885D01*
X51962096Y-23638885D02*
X52000191Y-23600790D01*
X52000191Y-23600790D02*
X51962096Y-23562695D01*
X51962096Y-23562695D02*
X51962096Y-23638885D01*
X52685905Y-24324600D02*
X52609714Y-24362695D01*
X52609714Y-24362695D02*
X52457333Y-24362695D01*
X52457333Y-24362695D02*
X52381143Y-24324600D01*
X52381143Y-24324600D02*
X52343048Y-24286504D01*
X52343048Y-24286504D02*
X52304952Y-24210314D01*
X52304952Y-24210314D02*
X52304952Y-23981742D01*
X52304952Y-23981742D02*
X52343048Y-23905552D01*
X52343048Y-23905552D02*
X52381143Y-23867457D01*
X52381143Y-23867457D02*
X52457333Y-23829361D01*
X52457333Y-23829361D02*
X52609714Y-23829361D01*
X52609714Y-23829361D02*
X52685905Y-23867457D01*
X53028762Y-24362695D02*
X53028762Y-23562695D01*
X53104952Y-24057933D02*
X53333524Y-24362695D01*
X53333524Y-23829361D02*
X53028762Y-24134123D01*
X53676381Y-24286504D02*
X53714476Y-24324600D01*
X53714476Y-24324600D02*
X53676381Y-24362695D01*
X53676381Y-24362695D02*
X53638285Y-24324600D01*
X53638285Y-24324600D02*
X53676381Y-24286504D01*
X53676381Y-24286504D02*
X53676381Y-24362695D01*
X54400190Y-24324600D02*
X54323999Y-24362695D01*
X54323999Y-24362695D02*
X54171618Y-24362695D01*
X54171618Y-24362695D02*
X54095428Y-24324600D01*
X54095428Y-24324600D02*
X54057333Y-24286504D01*
X54057333Y-24286504D02*
X54019237Y-24210314D01*
X54019237Y-24210314D02*
X54019237Y-23981742D01*
X54019237Y-23981742D02*
X54057333Y-23905552D01*
X54057333Y-23905552D02*
X54095428Y-23867457D01*
X54095428Y-23867457D02*
X54171618Y-23829361D01*
X54171618Y-23829361D02*
X54323999Y-23829361D01*
X54323999Y-23829361D02*
X54400190Y-23867457D01*
X54857332Y-24362695D02*
X54781142Y-24324600D01*
X54781142Y-24324600D02*
X54743047Y-24286504D01*
X54743047Y-24286504D02*
X54704951Y-24210314D01*
X54704951Y-24210314D02*
X54704951Y-23981742D01*
X54704951Y-23981742D02*
X54743047Y-23905552D01*
X54743047Y-23905552D02*
X54781142Y-23867457D01*
X54781142Y-23867457D02*
X54857332Y-23829361D01*
X54857332Y-23829361D02*
X54971618Y-23829361D01*
X54971618Y-23829361D02*
X55047809Y-23867457D01*
X55047809Y-23867457D02*
X55085904Y-23905552D01*
X55085904Y-23905552D02*
X55123999Y-23981742D01*
X55123999Y-23981742D02*
X55123999Y-24210314D01*
X55123999Y-24210314D02*
X55085904Y-24286504D01*
X55085904Y-24286504D02*
X55047809Y-24324600D01*
X55047809Y-24324600D02*
X54971618Y-24362695D01*
X54971618Y-24362695D02*
X54857332Y-24362695D01*
X55466857Y-24362695D02*
X55466857Y-23829361D01*
X55466857Y-23905552D02*
X55504952Y-23867457D01*
X55504952Y-23867457D02*
X55581142Y-23829361D01*
X55581142Y-23829361D02*
X55695428Y-23829361D01*
X55695428Y-23829361D02*
X55771619Y-23867457D01*
X55771619Y-23867457D02*
X55809714Y-23943647D01*
X55809714Y-23943647D02*
X55809714Y-24362695D01*
X55809714Y-23943647D02*
X55847809Y-23867457D01*
X55847809Y-23867457D02*
X55924000Y-23829361D01*
X55924000Y-23829361D02*
X56038285Y-23829361D01*
X56038285Y-23829361D02*
X56114476Y-23867457D01*
X56114476Y-23867457D02*
X56152571Y-23943647D01*
X56152571Y-23943647D02*
X56152571Y-24362695D01*
X21884428Y-29995600D02*
X22027285Y-30043219D01*
X22027285Y-30043219D02*
X22265380Y-30043219D01*
X22265380Y-30043219D02*
X22360618Y-29995600D01*
X22360618Y-29995600D02*
X22408237Y-29947980D01*
X22408237Y-29947980D02*
X22455856Y-29852742D01*
X22455856Y-29852742D02*
X22455856Y-29757504D01*
X22455856Y-29757504D02*
X22408237Y-29662266D01*
X22408237Y-29662266D02*
X22360618Y-29614647D01*
X22360618Y-29614647D02*
X22265380Y-29567028D01*
X22265380Y-29567028D02*
X22074904Y-29519409D01*
X22074904Y-29519409D02*
X21979666Y-29471790D01*
X21979666Y-29471790D02*
X21932047Y-29424171D01*
X21932047Y-29424171D02*
X21884428Y-29328933D01*
X21884428Y-29328933D02*
X21884428Y-29233695D01*
X21884428Y-29233695D02*
X21932047Y-29138457D01*
X21932047Y-29138457D02*
X21979666Y-29090838D01*
X21979666Y-29090838D02*
X22074904Y-29043219D01*
X22074904Y-29043219D02*
X22312999Y-29043219D01*
X22312999Y-29043219D02*
X22455856Y-29090838D01*
X22741571Y-29043219D02*
X23312999Y-29043219D01*
X23027285Y-30043219D02*
X23027285Y-29043219D01*
X23646333Y-30043219D02*
X23646333Y-29043219D01*
X23646333Y-29043219D02*
X24027285Y-29043219D01*
X24027285Y-29043219D02*
X24122523Y-29090838D01*
X24122523Y-29090838D02*
X24170142Y-29138457D01*
X24170142Y-29138457D02*
X24217761Y-29233695D01*
X24217761Y-29233695D02*
X24217761Y-29376552D01*
X24217761Y-29376552D02*
X24170142Y-29471790D01*
X24170142Y-29471790D02*
X24122523Y-29519409D01*
X24122523Y-29519409D02*
X24027285Y-29567028D01*
X24027285Y-29567028D02*
X23646333Y-29567028D01*
X24646333Y-30043219D02*
X24646333Y-29043219D01*
X24646333Y-29043219D02*
X24979666Y-29757504D01*
X24979666Y-29757504D02*
X25312999Y-29043219D01*
X25312999Y-29043219D02*
X25312999Y-30043219D01*
X25693952Y-29043219D02*
X26312999Y-29043219D01*
X26312999Y-29043219D02*
X25979666Y-29424171D01*
X25979666Y-29424171D02*
X26122523Y-29424171D01*
X26122523Y-29424171D02*
X26217761Y-29471790D01*
X26217761Y-29471790D02*
X26265380Y-29519409D01*
X26265380Y-29519409D02*
X26312999Y-29614647D01*
X26312999Y-29614647D02*
X26312999Y-29852742D01*
X26312999Y-29852742D02*
X26265380Y-29947980D01*
X26265380Y-29947980D02*
X26217761Y-29995600D01*
X26217761Y-29995600D02*
X26122523Y-30043219D01*
X26122523Y-30043219D02*
X25836809Y-30043219D01*
X25836809Y-30043219D02*
X25741571Y-29995600D01*
X25741571Y-29995600D02*
X25693952Y-29947980D01*
X26693952Y-29138457D02*
X26741571Y-29090838D01*
X26741571Y-29090838D02*
X26836809Y-29043219D01*
X26836809Y-29043219D02*
X27074904Y-29043219D01*
X27074904Y-29043219D02*
X27170142Y-29090838D01*
X27170142Y-29090838D02*
X27217761Y-29138457D01*
X27217761Y-29138457D02*
X27265380Y-29233695D01*
X27265380Y-29233695D02*
X27265380Y-29328933D01*
X27265380Y-29328933D02*
X27217761Y-29471790D01*
X27217761Y-29471790D02*
X26646333Y-30043219D01*
X26646333Y-30043219D02*
X27265380Y-30043219D01*
X28455857Y-29519409D02*
X28789190Y-29519409D01*
X28932047Y-30043219D02*
X28455857Y-30043219D01*
X28455857Y-30043219D02*
X28455857Y-29043219D01*
X28455857Y-29043219D02*
X28932047Y-29043219D01*
X29360619Y-30043219D02*
X29360619Y-29043219D01*
X29360619Y-29043219D02*
X29932047Y-30043219D01*
X29932047Y-30043219D02*
X29932047Y-29043219D01*
X30408238Y-29519409D02*
X30741571Y-29519409D01*
X30884428Y-30043219D02*
X30408238Y-30043219D01*
X30408238Y-30043219D02*
X30408238Y-29043219D01*
X30408238Y-29043219D02*
X30884428Y-29043219D01*
X31884428Y-30043219D02*
X31551095Y-29567028D01*
X31313000Y-30043219D02*
X31313000Y-29043219D01*
X31313000Y-29043219D02*
X31693952Y-29043219D01*
X31693952Y-29043219D02*
X31789190Y-29090838D01*
X31789190Y-29090838D02*
X31836809Y-29138457D01*
X31836809Y-29138457D02*
X31884428Y-29233695D01*
X31884428Y-29233695D02*
X31884428Y-29376552D01*
X31884428Y-29376552D02*
X31836809Y-29471790D01*
X31836809Y-29471790D02*
X31789190Y-29519409D01*
X31789190Y-29519409D02*
X31693952Y-29567028D01*
X31693952Y-29567028D02*
X31313000Y-29567028D01*
X32836809Y-29090838D02*
X32741571Y-29043219D01*
X32741571Y-29043219D02*
X32598714Y-29043219D01*
X32598714Y-29043219D02*
X32455857Y-29090838D01*
X32455857Y-29090838D02*
X32360619Y-29186076D01*
X32360619Y-29186076D02*
X32313000Y-29281314D01*
X32313000Y-29281314D02*
X32265381Y-29471790D01*
X32265381Y-29471790D02*
X32265381Y-29614647D01*
X32265381Y-29614647D02*
X32313000Y-29805123D01*
X32313000Y-29805123D02*
X32360619Y-29900361D01*
X32360619Y-29900361D02*
X32455857Y-29995600D01*
X32455857Y-29995600D02*
X32598714Y-30043219D01*
X32598714Y-30043219D02*
X32693952Y-30043219D01*
X32693952Y-30043219D02*
X32836809Y-29995600D01*
X32836809Y-29995600D02*
X32884428Y-29947980D01*
X32884428Y-29947980D02*
X32884428Y-29614647D01*
X32884428Y-29614647D02*
X32693952Y-29614647D01*
X33503476Y-29567028D02*
X33503476Y-30043219D01*
X33170143Y-29043219D02*
X33503476Y-29567028D01*
X33503476Y-29567028D02*
X33836809Y-29043219D01*
X36419048Y-21828742D02*
X36419048Y-22209695D01*
X36152381Y-21409695D02*
X36419048Y-21828742D01*
X36419048Y-21828742D02*
X36685714Y-21409695D01*
X37371428Y-22209695D02*
X36914285Y-22209695D01*
X37142857Y-22209695D02*
X37142857Y-21409695D01*
X37142857Y-21409695D02*
X37066666Y-21523980D01*
X37066666Y-21523980D02*
X36990476Y-21600171D01*
X36990476Y-21600171D02*
X36914285Y-21638266D01*
X40366667Y-38283504D02*
X40328571Y-38321600D01*
X40328571Y-38321600D02*
X40214286Y-38359695D01*
X40214286Y-38359695D02*
X40138095Y-38359695D01*
X40138095Y-38359695D02*
X40023809Y-38321600D01*
X40023809Y-38321600D02*
X39947619Y-38245409D01*
X39947619Y-38245409D02*
X39909524Y-38169219D01*
X39909524Y-38169219D02*
X39871428Y-38016838D01*
X39871428Y-38016838D02*
X39871428Y-37902552D01*
X39871428Y-37902552D02*
X39909524Y-37750171D01*
X39909524Y-37750171D02*
X39947619Y-37673980D01*
X39947619Y-37673980D02*
X40023809Y-37597790D01*
X40023809Y-37597790D02*
X40138095Y-37559695D01*
X40138095Y-37559695D02*
X40214286Y-37559695D01*
X40214286Y-37559695D02*
X40328571Y-37597790D01*
X40328571Y-37597790D02*
X40366667Y-37635885D01*
X41128571Y-38359695D02*
X40671428Y-38359695D01*
X40900000Y-38359695D02*
X40900000Y-37559695D01*
X40900000Y-37559695D02*
X40823809Y-37673980D01*
X40823809Y-37673980D02*
X40747619Y-37750171D01*
X40747619Y-37750171D02*
X40671428Y-37788266D01*
X46885714Y-36333504D02*
X46847618Y-36371600D01*
X46847618Y-36371600D02*
X46733333Y-36409695D01*
X46733333Y-36409695D02*
X46657142Y-36409695D01*
X46657142Y-36409695D02*
X46542856Y-36371600D01*
X46542856Y-36371600D02*
X46466666Y-36295409D01*
X46466666Y-36295409D02*
X46428571Y-36219219D01*
X46428571Y-36219219D02*
X46390475Y-36066838D01*
X46390475Y-36066838D02*
X46390475Y-35952552D01*
X46390475Y-35952552D02*
X46428571Y-35800171D01*
X46428571Y-35800171D02*
X46466666Y-35723980D01*
X46466666Y-35723980D02*
X46542856Y-35647790D01*
X46542856Y-35647790D02*
X46657142Y-35609695D01*
X46657142Y-35609695D02*
X46733333Y-35609695D01*
X46733333Y-35609695D02*
X46847618Y-35647790D01*
X46847618Y-35647790D02*
X46885714Y-35685885D01*
X47647618Y-36409695D02*
X47190475Y-36409695D01*
X47419047Y-36409695D02*
X47419047Y-35609695D01*
X47419047Y-35609695D02*
X47342856Y-35723980D01*
X47342856Y-35723980D02*
X47266666Y-35800171D01*
X47266666Y-35800171D02*
X47190475Y-35838266D01*
X47952380Y-35685885D02*
X47990476Y-35647790D01*
X47990476Y-35647790D02*
X48066666Y-35609695D01*
X48066666Y-35609695D02*
X48257142Y-35609695D01*
X48257142Y-35609695D02*
X48333333Y-35647790D01*
X48333333Y-35647790D02*
X48371428Y-35685885D01*
X48371428Y-35685885D02*
X48409523Y-35762076D01*
X48409523Y-35762076D02*
X48409523Y-35838266D01*
X48409523Y-35838266D02*
X48371428Y-35952552D01*
X48371428Y-35952552D02*
X47914285Y-36409695D01*
X47914285Y-36409695D02*
X48409523Y-36409695D01*
X28809695Y-41783332D02*
X28428742Y-42049999D01*
X28809695Y-42240475D02*
X28009695Y-42240475D01*
X28009695Y-42240475D02*
X28009695Y-41935713D01*
X28009695Y-41935713D02*
X28047790Y-41859523D01*
X28047790Y-41859523D02*
X28085885Y-41821428D01*
X28085885Y-41821428D02*
X28162076Y-41783332D01*
X28162076Y-41783332D02*
X28276361Y-41783332D01*
X28276361Y-41783332D02*
X28352552Y-41821428D01*
X28352552Y-41821428D02*
X28390647Y-41859523D01*
X28390647Y-41859523D02*
X28428742Y-41935713D01*
X28428742Y-41935713D02*
X28428742Y-42240475D01*
X28009695Y-41516666D02*
X28009695Y-41021428D01*
X28009695Y-41021428D02*
X28314457Y-41288094D01*
X28314457Y-41288094D02*
X28314457Y-41173809D01*
X28314457Y-41173809D02*
X28352552Y-41097618D01*
X28352552Y-41097618D02*
X28390647Y-41059523D01*
X28390647Y-41059523D02*
X28466838Y-41021428D01*
X28466838Y-41021428D02*
X28657314Y-41021428D01*
X28657314Y-41021428D02*
X28733504Y-41059523D01*
X28733504Y-41059523D02*
X28771600Y-41097618D01*
X28771600Y-41097618D02*
X28809695Y-41173809D01*
X28809695Y-41173809D02*
X28809695Y-41402380D01*
X28809695Y-41402380D02*
X28771600Y-41478571D01*
X28771600Y-41478571D02*
X28733504Y-41516666D01*
X50585714Y-33083503D02*
X50547618Y-33121599D01*
X50547618Y-33121599D02*
X50433333Y-33159694D01*
X50433333Y-33159694D02*
X50357142Y-33159694D01*
X50357142Y-33159694D02*
X50242856Y-33121599D01*
X50242856Y-33121599D02*
X50166666Y-33045408D01*
X50166666Y-33045408D02*
X50128571Y-32969218D01*
X50128571Y-32969218D02*
X50090475Y-32816837D01*
X50090475Y-32816837D02*
X50090475Y-32702551D01*
X50090475Y-32702551D02*
X50128571Y-32550170D01*
X50128571Y-32550170D02*
X50166666Y-32473979D01*
X50166666Y-32473979D02*
X50242856Y-32397789D01*
X50242856Y-32397789D02*
X50357142Y-32359694D01*
X50357142Y-32359694D02*
X50433333Y-32359694D01*
X50433333Y-32359694D02*
X50547618Y-32397789D01*
X50547618Y-32397789D02*
X50585714Y-32435884D01*
X51347618Y-33159694D02*
X50890475Y-33159694D01*
X51119047Y-33159694D02*
X51119047Y-32359694D01*
X51119047Y-32359694D02*
X51042856Y-32473979D01*
X51042856Y-32473979D02*
X50966666Y-32550170D01*
X50966666Y-32550170D02*
X50890475Y-32588265D01*
X51842857Y-32359694D02*
X51919047Y-32359694D01*
X51919047Y-32359694D02*
X51995238Y-32397789D01*
X51995238Y-32397789D02*
X52033333Y-32435884D01*
X52033333Y-32435884D02*
X52071428Y-32512075D01*
X52071428Y-32512075D02*
X52109523Y-32664456D01*
X52109523Y-32664456D02*
X52109523Y-32854932D01*
X52109523Y-32854932D02*
X52071428Y-33007313D01*
X52071428Y-33007313D02*
X52033333Y-33083503D01*
X52033333Y-33083503D02*
X51995238Y-33121599D01*
X51995238Y-33121599D02*
X51919047Y-33159694D01*
X51919047Y-33159694D02*
X51842857Y-33159694D01*
X51842857Y-33159694D02*
X51766666Y-33121599D01*
X51766666Y-33121599D02*
X51728571Y-33083503D01*
X51728571Y-33083503D02*
X51690476Y-33007313D01*
X51690476Y-33007313D02*
X51652380Y-32854932D01*
X51652380Y-32854932D02*
X51652380Y-32664456D01*
X51652380Y-32664456D02*
X51690476Y-32512075D01*
X51690476Y-32512075D02*
X51728571Y-32435884D01*
X51728571Y-32435884D02*
X51766666Y-32397789D01*
X51766666Y-32397789D02*
X51842857Y-32359694D01*
X38585714Y-29483504D02*
X38547618Y-29521600D01*
X38547618Y-29521600D02*
X38433333Y-29559695D01*
X38433333Y-29559695D02*
X38357142Y-29559695D01*
X38357142Y-29559695D02*
X38242856Y-29521600D01*
X38242856Y-29521600D02*
X38166666Y-29445409D01*
X38166666Y-29445409D02*
X38128571Y-29369219D01*
X38128571Y-29369219D02*
X38090475Y-29216838D01*
X38090475Y-29216838D02*
X38090475Y-29102552D01*
X38090475Y-29102552D02*
X38128571Y-28950171D01*
X38128571Y-28950171D02*
X38166666Y-28873980D01*
X38166666Y-28873980D02*
X38242856Y-28797790D01*
X38242856Y-28797790D02*
X38357142Y-28759695D01*
X38357142Y-28759695D02*
X38433333Y-28759695D01*
X38433333Y-28759695D02*
X38547618Y-28797790D01*
X38547618Y-28797790D02*
X38585714Y-28835885D01*
X39347618Y-29559695D02*
X38890475Y-29559695D01*
X39119047Y-29559695D02*
X39119047Y-28759695D01*
X39119047Y-28759695D02*
X39042856Y-28873980D01*
X39042856Y-28873980D02*
X38966666Y-28950171D01*
X38966666Y-28950171D02*
X38890475Y-28988266D01*
X40033333Y-29026361D02*
X40033333Y-29559695D01*
X39842857Y-28721600D02*
X39652380Y-29293028D01*
X39652380Y-29293028D02*
X40147619Y-29293028D01*
X44185714Y-24583504D02*
X44147618Y-24621600D01*
X44147618Y-24621600D02*
X44033333Y-24659695D01*
X44033333Y-24659695D02*
X43957142Y-24659695D01*
X43957142Y-24659695D02*
X43842856Y-24621600D01*
X43842856Y-24621600D02*
X43766666Y-24545409D01*
X43766666Y-24545409D02*
X43728571Y-24469219D01*
X43728571Y-24469219D02*
X43690475Y-24316838D01*
X43690475Y-24316838D02*
X43690475Y-24202552D01*
X43690475Y-24202552D02*
X43728571Y-24050171D01*
X43728571Y-24050171D02*
X43766666Y-23973980D01*
X43766666Y-23973980D02*
X43842856Y-23897790D01*
X43842856Y-23897790D02*
X43957142Y-23859695D01*
X43957142Y-23859695D02*
X44033333Y-23859695D01*
X44033333Y-23859695D02*
X44147618Y-23897790D01*
X44147618Y-23897790D02*
X44185714Y-23935885D01*
X44947618Y-24659695D02*
X44490475Y-24659695D01*
X44719047Y-24659695D02*
X44719047Y-23859695D01*
X44719047Y-23859695D02*
X44642856Y-23973980D01*
X44642856Y-23973980D02*
X44566666Y-24050171D01*
X44566666Y-24050171D02*
X44490475Y-24088266D01*
X45709523Y-24659695D02*
X45252380Y-24659695D01*
X45480952Y-24659695D02*
X45480952Y-23859695D01*
X45480952Y-23859695D02*
X45404761Y-23973980D01*
X45404761Y-23973980D02*
X45328571Y-24050171D01*
X45328571Y-24050171D02*
X45252380Y-24088266D01*
X49185714Y-37259695D02*
X49185714Y-36459695D01*
X49185714Y-36459695D02*
X49642857Y-37259695D01*
X49642857Y-37259695D02*
X49642857Y-36459695D01*
X49909523Y-36459695D02*
X50366666Y-36459695D01*
X50138094Y-37259695D02*
X50138094Y-36459695D01*
X51052380Y-37259695D02*
X50595237Y-37259695D01*
X50823809Y-37259695D02*
X50823809Y-36459695D01*
X50823809Y-36459695D02*
X50747618Y-36573980D01*
X50747618Y-36573980D02*
X50671428Y-36650171D01*
X50671428Y-36650171D02*
X50595237Y-36688266D01*
X31609695Y-41783332D02*
X31228742Y-42049999D01*
X31609695Y-42240475D02*
X30809695Y-42240475D01*
X30809695Y-42240475D02*
X30809695Y-41935713D01*
X30809695Y-41935713D02*
X30847790Y-41859523D01*
X30847790Y-41859523D02*
X30885885Y-41821428D01*
X30885885Y-41821428D02*
X30962076Y-41783332D01*
X30962076Y-41783332D02*
X31076361Y-41783332D01*
X31076361Y-41783332D02*
X31152552Y-41821428D01*
X31152552Y-41821428D02*
X31190647Y-41859523D01*
X31190647Y-41859523D02*
X31228742Y-41935713D01*
X31228742Y-41935713D02*
X31228742Y-42240475D01*
X30809695Y-41097618D02*
X30809695Y-41249999D01*
X30809695Y-41249999D02*
X30847790Y-41326190D01*
X30847790Y-41326190D02*
X30885885Y-41364285D01*
X30885885Y-41364285D02*
X31000171Y-41440475D01*
X31000171Y-41440475D02*
X31152552Y-41478571D01*
X31152552Y-41478571D02*
X31457314Y-41478571D01*
X31457314Y-41478571D02*
X31533504Y-41440475D01*
X31533504Y-41440475D02*
X31571600Y-41402380D01*
X31571600Y-41402380D02*
X31609695Y-41326190D01*
X31609695Y-41326190D02*
X31609695Y-41173809D01*
X31609695Y-41173809D02*
X31571600Y-41097618D01*
X31571600Y-41097618D02*
X31533504Y-41059523D01*
X31533504Y-41059523D02*
X31457314Y-41021428D01*
X31457314Y-41021428D02*
X31266838Y-41021428D01*
X31266838Y-41021428D02*
X31190647Y-41059523D01*
X31190647Y-41059523D02*
X31152552Y-41097618D01*
X31152552Y-41097618D02*
X31114457Y-41173809D01*
X31114457Y-41173809D02*
X31114457Y-41326190D01*
X31114457Y-41326190D02*
X31152552Y-41402380D01*
X31152552Y-41402380D02*
X31190647Y-41440475D01*
X31190647Y-41440475D02*
X31266838Y-41478571D01*
X44285714Y-42709695D02*
X44019047Y-42328742D01*
X43828571Y-42709695D02*
X43828571Y-41909695D01*
X43828571Y-41909695D02*
X44133333Y-41909695D01*
X44133333Y-41909695D02*
X44209523Y-41947790D01*
X44209523Y-41947790D02*
X44247618Y-41985885D01*
X44247618Y-41985885D02*
X44285714Y-42062076D01*
X44285714Y-42062076D02*
X44285714Y-42176361D01*
X44285714Y-42176361D02*
X44247618Y-42252552D01*
X44247618Y-42252552D02*
X44209523Y-42290647D01*
X44209523Y-42290647D02*
X44133333Y-42328742D01*
X44133333Y-42328742D02*
X43828571Y-42328742D01*
X45047618Y-42709695D02*
X44590475Y-42709695D01*
X44819047Y-42709695D02*
X44819047Y-41909695D01*
X44819047Y-41909695D02*
X44742856Y-42023980D01*
X44742856Y-42023980D02*
X44666666Y-42100171D01*
X44666666Y-42100171D02*
X44590475Y-42138266D01*
X45352380Y-41985885D02*
X45390476Y-41947790D01*
X45390476Y-41947790D02*
X45466666Y-41909695D01*
X45466666Y-41909695D02*
X45657142Y-41909695D01*
X45657142Y-41909695D02*
X45733333Y-41947790D01*
X45733333Y-41947790D02*
X45771428Y-41985885D01*
X45771428Y-41985885D02*
X45809523Y-42062076D01*
X45809523Y-42062076D02*
X45809523Y-42138266D01*
X45809523Y-42138266D02*
X45771428Y-42252552D01*
X45771428Y-42252552D02*
X45314285Y-42709695D01*
X45314285Y-42709695D02*
X45809523Y-42709695D01*
X36166667Y-34483504D02*
X36128571Y-34521600D01*
X36128571Y-34521600D02*
X36014286Y-34559695D01*
X36014286Y-34559695D02*
X35938095Y-34559695D01*
X35938095Y-34559695D02*
X35823809Y-34521600D01*
X35823809Y-34521600D02*
X35747619Y-34445409D01*
X35747619Y-34445409D02*
X35709524Y-34369219D01*
X35709524Y-34369219D02*
X35671428Y-34216838D01*
X35671428Y-34216838D02*
X35671428Y-34102552D01*
X35671428Y-34102552D02*
X35709524Y-33950171D01*
X35709524Y-33950171D02*
X35747619Y-33873980D01*
X35747619Y-33873980D02*
X35823809Y-33797790D01*
X35823809Y-33797790D02*
X35938095Y-33759695D01*
X35938095Y-33759695D02*
X36014286Y-33759695D01*
X36014286Y-33759695D02*
X36128571Y-33797790D01*
X36128571Y-33797790D02*
X36166667Y-33835885D01*
X36433333Y-33759695D02*
X36928571Y-33759695D01*
X36928571Y-33759695D02*
X36661905Y-34064457D01*
X36661905Y-34064457D02*
X36776190Y-34064457D01*
X36776190Y-34064457D02*
X36852381Y-34102552D01*
X36852381Y-34102552D02*
X36890476Y-34140647D01*
X36890476Y-34140647D02*
X36928571Y-34216838D01*
X36928571Y-34216838D02*
X36928571Y-34407314D01*
X36928571Y-34407314D02*
X36890476Y-34483504D01*
X36890476Y-34483504D02*
X36852381Y-34521600D01*
X36852381Y-34521600D02*
X36776190Y-34559695D01*
X36776190Y-34559695D02*
X36547619Y-34559695D01*
X36547619Y-34559695D02*
X36471428Y-34521600D01*
X36471428Y-34521600D02*
X36433333Y-34483504D01*
X57021600Y-35266667D02*
X57059695Y-35152381D01*
X57059695Y-35152381D02*
X57059695Y-34961905D01*
X57059695Y-34961905D02*
X57021600Y-34885714D01*
X57021600Y-34885714D02*
X56983504Y-34847619D01*
X56983504Y-34847619D02*
X56907314Y-34809524D01*
X56907314Y-34809524D02*
X56831123Y-34809524D01*
X56831123Y-34809524D02*
X56754933Y-34847619D01*
X56754933Y-34847619D02*
X56716838Y-34885714D01*
X56716838Y-34885714D02*
X56678742Y-34961905D01*
X56678742Y-34961905D02*
X56640647Y-35114286D01*
X56640647Y-35114286D02*
X56602552Y-35190476D01*
X56602552Y-35190476D02*
X56564457Y-35228571D01*
X56564457Y-35228571D02*
X56488266Y-35266667D01*
X56488266Y-35266667D02*
X56412076Y-35266667D01*
X56412076Y-35266667D02*
X56335885Y-35228571D01*
X56335885Y-35228571D02*
X56297790Y-35190476D01*
X56297790Y-35190476D02*
X56259695Y-35114286D01*
X56259695Y-35114286D02*
X56259695Y-34923809D01*
X56259695Y-34923809D02*
X56297790Y-34809524D01*
X56259695Y-34542857D02*
X57059695Y-34352381D01*
X57059695Y-34352381D02*
X56488266Y-34200000D01*
X56488266Y-34200000D02*
X57059695Y-34047619D01*
X57059695Y-34047619D02*
X56259695Y-33857143D01*
X57059695Y-33133333D02*
X57059695Y-33590476D01*
X57059695Y-33361904D02*
X56259695Y-33361904D01*
X56259695Y-33361904D02*
X56373980Y-33438095D01*
X56373980Y-33438095D02*
X56450171Y-33514285D01*
X56450171Y-33514285D02*
X56488266Y-33590476D01*
X35309695Y-39383332D02*
X34928742Y-39649999D01*
X35309695Y-39840475D02*
X34509695Y-39840475D01*
X34509695Y-39840475D02*
X34509695Y-39535713D01*
X34509695Y-39535713D02*
X34547790Y-39459523D01*
X34547790Y-39459523D02*
X34585885Y-39421428D01*
X34585885Y-39421428D02*
X34662076Y-39383332D01*
X34662076Y-39383332D02*
X34776361Y-39383332D01*
X34776361Y-39383332D02*
X34852552Y-39421428D01*
X34852552Y-39421428D02*
X34890647Y-39459523D01*
X34890647Y-39459523D02*
X34928742Y-39535713D01*
X34928742Y-39535713D02*
X34928742Y-39840475D01*
X35309695Y-38621428D02*
X35309695Y-39078571D01*
X35309695Y-38849999D02*
X34509695Y-38849999D01*
X34509695Y-38849999D02*
X34623980Y-38926190D01*
X34623980Y-38926190D02*
X34700171Y-39002380D01*
X34700171Y-39002380D02*
X34738266Y-39078571D01*
X38566667Y-42759695D02*
X38300000Y-42378742D01*
X38109524Y-42759695D02*
X38109524Y-41959695D01*
X38109524Y-41959695D02*
X38414286Y-41959695D01*
X38414286Y-41959695D02*
X38490476Y-41997790D01*
X38490476Y-41997790D02*
X38528571Y-42035885D01*
X38528571Y-42035885D02*
X38566667Y-42112076D01*
X38566667Y-42112076D02*
X38566667Y-42226361D01*
X38566667Y-42226361D02*
X38528571Y-42302552D01*
X38528571Y-42302552D02*
X38490476Y-42340647D01*
X38490476Y-42340647D02*
X38414286Y-42378742D01*
X38414286Y-42378742D02*
X38109524Y-42378742D01*
X39176190Y-42340647D02*
X39290476Y-42378742D01*
X39290476Y-42378742D02*
X39328571Y-42416838D01*
X39328571Y-42416838D02*
X39366667Y-42493028D01*
X39366667Y-42493028D02*
X39366667Y-42607314D01*
X39366667Y-42607314D02*
X39328571Y-42683504D01*
X39328571Y-42683504D02*
X39290476Y-42721600D01*
X39290476Y-42721600D02*
X39214286Y-42759695D01*
X39214286Y-42759695D02*
X38909524Y-42759695D01*
X38909524Y-42759695D02*
X38909524Y-41959695D01*
X38909524Y-41959695D02*
X39176190Y-41959695D01*
X39176190Y-41959695D02*
X39252381Y-41997790D01*
X39252381Y-41997790D02*
X39290476Y-42035885D01*
X39290476Y-42035885D02*
X39328571Y-42112076D01*
X39328571Y-42112076D02*
X39328571Y-42188266D01*
X39328571Y-42188266D02*
X39290476Y-42264457D01*
X39290476Y-42264457D02*
X39252381Y-42302552D01*
X39252381Y-42302552D02*
X39176190Y-42340647D01*
X39176190Y-42340647D02*
X38909524Y-42340647D01*
X40128571Y-42759695D02*
X39671428Y-42759695D01*
X39900000Y-42759695D02*
X39900000Y-41959695D01*
X39900000Y-41959695D02*
X39823809Y-42073980D01*
X39823809Y-42073980D02*
X39747619Y-42150171D01*
X39747619Y-42150171D02*
X39671428Y-42188266D01*
X34685714Y-31609695D02*
X34419047Y-31228742D01*
X34228571Y-31609695D02*
X34228571Y-30809695D01*
X34228571Y-30809695D02*
X34533333Y-30809695D01*
X34533333Y-30809695D02*
X34609523Y-30847790D01*
X34609523Y-30847790D02*
X34647618Y-30885885D01*
X34647618Y-30885885D02*
X34685714Y-30962076D01*
X34685714Y-30962076D02*
X34685714Y-31076361D01*
X34685714Y-31076361D02*
X34647618Y-31152552D01*
X34647618Y-31152552D02*
X34609523Y-31190647D01*
X34609523Y-31190647D02*
X34533333Y-31228742D01*
X34533333Y-31228742D02*
X34228571Y-31228742D01*
X35447618Y-31609695D02*
X34990475Y-31609695D01*
X35219047Y-31609695D02*
X35219047Y-30809695D01*
X35219047Y-30809695D02*
X35142856Y-30923980D01*
X35142856Y-30923980D02*
X35066666Y-31000171D01*
X35066666Y-31000171D02*
X34990475Y-31038266D01*
X35942857Y-30809695D02*
X36019047Y-30809695D01*
X36019047Y-30809695D02*
X36095238Y-30847790D01*
X36095238Y-30847790D02*
X36133333Y-30885885D01*
X36133333Y-30885885D02*
X36171428Y-30962076D01*
X36171428Y-30962076D02*
X36209523Y-31114457D01*
X36209523Y-31114457D02*
X36209523Y-31304933D01*
X36209523Y-31304933D02*
X36171428Y-31457314D01*
X36171428Y-31457314D02*
X36133333Y-31533504D01*
X36133333Y-31533504D02*
X36095238Y-31571600D01*
X36095238Y-31571600D02*
X36019047Y-31609695D01*
X36019047Y-31609695D02*
X35942857Y-31609695D01*
X35942857Y-31609695D02*
X35866666Y-31571600D01*
X35866666Y-31571600D02*
X35828571Y-31533504D01*
X35828571Y-31533504D02*
X35790476Y-31457314D01*
X35790476Y-31457314D02*
X35752380Y-31304933D01*
X35752380Y-31304933D02*
X35752380Y-31114457D01*
X35752380Y-31114457D02*
X35790476Y-30962076D01*
X35790476Y-30962076D02*
X35828571Y-30885885D01*
X35828571Y-30885885D02*
X35866666Y-30847790D01*
X35866666Y-30847790D02*
X35942857Y-30809695D01*
X27066667Y-35459695D02*
X26800000Y-35078742D01*
X26609524Y-35459695D02*
X26609524Y-34659695D01*
X26609524Y-34659695D02*
X26914286Y-34659695D01*
X26914286Y-34659695D02*
X26990476Y-34697790D01*
X26990476Y-34697790D02*
X27028571Y-34735885D01*
X27028571Y-34735885D02*
X27066667Y-34812076D01*
X27066667Y-34812076D02*
X27066667Y-34926361D01*
X27066667Y-34926361D02*
X27028571Y-35002552D01*
X27028571Y-35002552D02*
X26990476Y-35040647D01*
X26990476Y-35040647D02*
X26914286Y-35078742D01*
X26914286Y-35078742D02*
X26609524Y-35078742D01*
X27790476Y-34659695D02*
X27409524Y-34659695D01*
X27409524Y-34659695D02*
X27371428Y-35040647D01*
X27371428Y-35040647D02*
X27409524Y-35002552D01*
X27409524Y-35002552D02*
X27485714Y-34964457D01*
X27485714Y-34964457D02*
X27676190Y-34964457D01*
X27676190Y-34964457D02*
X27752381Y-35002552D01*
X27752381Y-35002552D02*
X27790476Y-35040647D01*
X27790476Y-35040647D02*
X27828571Y-35116838D01*
X27828571Y-35116838D02*
X27828571Y-35307314D01*
X27828571Y-35307314D02*
X27790476Y-35383504D01*
X27790476Y-35383504D02*
X27752381Y-35421600D01*
X27752381Y-35421600D02*
X27676190Y-35459695D01*
X27676190Y-35459695D02*
X27485714Y-35459695D01*
X27485714Y-35459695D02*
X27409524Y-35421600D01*
X27409524Y-35421600D02*
X27371428Y-35383504D01*
X39985714Y-22133504D02*
X39947618Y-22171600D01*
X39947618Y-22171600D02*
X39833333Y-22209695D01*
X39833333Y-22209695D02*
X39757142Y-22209695D01*
X39757142Y-22209695D02*
X39642856Y-22171600D01*
X39642856Y-22171600D02*
X39566666Y-22095409D01*
X39566666Y-22095409D02*
X39528571Y-22019219D01*
X39528571Y-22019219D02*
X39490475Y-21866838D01*
X39490475Y-21866838D02*
X39490475Y-21752552D01*
X39490475Y-21752552D02*
X39528571Y-21600171D01*
X39528571Y-21600171D02*
X39566666Y-21523980D01*
X39566666Y-21523980D02*
X39642856Y-21447790D01*
X39642856Y-21447790D02*
X39757142Y-21409695D01*
X39757142Y-21409695D02*
X39833333Y-21409695D01*
X39833333Y-21409695D02*
X39947618Y-21447790D01*
X39947618Y-21447790D02*
X39985714Y-21485885D01*
X40747618Y-22209695D02*
X40290475Y-22209695D01*
X40519047Y-22209695D02*
X40519047Y-21409695D01*
X40519047Y-21409695D02*
X40442856Y-21523980D01*
X40442856Y-21523980D02*
X40366666Y-21600171D01*
X40366666Y-21600171D02*
X40290475Y-21638266D01*
X41014285Y-21409695D02*
X41509523Y-21409695D01*
X41509523Y-21409695D02*
X41242857Y-21714457D01*
X41242857Y-21714457D02*
X41357142Y-21714457D01*
X41357142Y-21714457D02*
X41433333Y-21752552D01*
X41433333Y-21752552D02*
X41471428Y-21790647D01*
X41471428Y-21790647D02*
X41509523Y-21866838D01*
X41509523Y-21866838D02*
X41509523Y-22057314D01*
X41509523Y-22057314D02*
X41471428Y-22133504D01*
X41471428Y-22133504D02*
X41433333Y-22171600D01*
X41433333Y-22171600D02*
X41357142Y-22209695D01*
X41357142Y-22209695D02*
X41128571Y-22209695D01*
X41128571Y-22209695D02*
X41052380Y-22171600D01*
X41052380Y-22171600D02*
X41014285Y-22133504D01*
X31609695Y-38783332D02*
X31228742Y-39049999D01*
X31609695Y-39240475D02*
X30809695Y-39240475D01*
X30809695Y-39240475D02*
X30809695Y-38935713D01*
X30809695Y-38935713D02*
X30847790Y-38859523D01*
X30847790Y-38859523D02*
X30885885Y-38821428D01*
X30885885Y-38821428D02*
X30962076Y-38783332D01*
X30962076Y-38783332D02*
X31076361Y-38783332D01*
X31076361Y-38783332D02*
X31152552Y-38821428D01*
X31152552Y-38821428D02*
X31190647Y-38859523D01*
X31190647Y-38859523D02*
X31228742Y-38935713D01*
X31228742Y-38935713D02*
X31228742Y-39240475D01*
X30809695Y-38516666D02*
X30809695Y-37983332D01*
X30809695Y-37983332D02*
X31609695Y-38326190D01*
X34766667Y-35459695D02*
X34500000Y-35078742D01*
X34309524Y-35459695D02*
X34309524Y-34659695D01*
X34309524Y-34659695D02*
X34614286Y-34659695D01*
X34614286Y-34659695D02*
X34690476Y-34697790D01*
X34690476Y-34697790D02*
X34728571Y-34735885D01*
X34728571Y-34735885D02*
X34766667Y-34812076D01*
X34766667Y-34812076D02*
X34766667Y-34926361D01*
X34766667Y-34926361D02*
X34728571Y-35002552D01*
X34728571Y-35002552D02*
X34690476Y-35040647D01*
X34690476Y-35040647D02*
X34614286Y-35078742D01*
X34614286Y-35078742D02*
X34309524Y-35078742D01*
X35147619Y-35459695D02*
X35300000Y-35459695D01*
X35300000Y-35459695D02*
X35376190Y-35421600D01*
X35376190Y-35421600D02*
X35414286Y-35383504D01*
X35414286Y-35383504D02*
X35490476Y-35269219D01*
X35490476Y-35269219D02*
X35528571Y-35116838D01*
X35528571Y-35116838D02*
X35528571Y-34812076D01*
X35528571Y-34812076D02*
X35490476Y-34735885D01*
X35490476Y-34735885D02*
X35452381Y-34697790D01*
X35452381Y-34697790D02*
X35376190Y-34659695D01*
X35376190Y-34659695D02*
X35223809Y-34659695D01*
X35223809Y-34659695D02*
X35147619Y-34697790D01*
X35147619Y-34697790D02*
X35109524Y-34735885D01*
X35109524Y-34735885D02*
X35071428Y-34812076D01*
X35071428Y-34812076D02*
X35071428Y-35002552D01*
X35071428Y-35002552D02*
X35109524Y-35078742D01*
X35109524Y-35078742D02*
X35147619Y-35116838D01*
X35147619Y-35116838D02*
X35223809Y-35154933D01*
X35223809Y-35154933D02*
X35376190Y-35154933D01*
X35376190Y-35154933D02*
X35452381Y-35116838D01*
X35452381Y-35116838D02*
X35490476Y-35078742D01*
X35490476Y-35078742D02*
X35528571Y-35002552D01*
X49785714Y-39909695D02*
X49519047Y-39528742D01*
X49328571Y-39909695D02*
X49328571Y-39109695D01*
X49328571Y-39109695D02*
X49633333Y-39109695D01*
X49633333Y-39109695D02*
X49709523Y-39147790D01*
X49709523Y-39147790D02*
X49747618Y-39185885D01*
X49747618Y-39185885D02*
X49785714Y-39262076D01*
X49785714Y-39262076D02*
X49785714Y-39376361D01*
X49785714Y-39376361D02*
X49747618Y-39452552D01*
X49747618Y-39452552D02*
X49709523Y-39490647D01*
X49709523Y-39490647D02*
X49633333Y-39528742D01*
X49633333Y-39528742D02*
X49328571Y-39528742D01*
X50547618Y-39909695D02*
X50090475Y-39909695D01*
X50319047Y-39909695D02*
X50319047Y-39109695D01*
X50319047Y-39109695D02*
X50242856Y-39223980D01*
X50242856Y-39223980D02*
X50166666Y-39300171D01*
X50166666Y-39300171D02*
X50090475Y-39338266D01*
X51309523Y-39909695D02*
X50852380Y-39909695D01*
X51080952Y-39909695D02*
X51080952Y-39109695D01*
X51080952Y-39109695D02*
X51004761Y-39223980D01*
X51004761Y-39223980D02*
X50928571Y-39300171D01*
X50928571Y-39300171D02*
X50852380Y-39338266D01*
X40109695Y-39383332D02*
X39728742Y-39649999D01*
X40109695Y-39840475D02*
X39309695Y-39840475D01*
X39309695Y-39840475D02*
X39309695Y-39535713D01*
X39309695Y-39535713D02*
X39347790Y-39459523D01*
X39347790Y-39459523D02*
X39385885Y-39421428D01*
X39385885Y-39421428D02*
X39462076Y-39383332D01*
X39462076Y-39383332D02*
X39576361Y-39383332D01*
X39576361Y-39383332D02*
X39652552Y-39421428D01*
X39652552Y-39421428D02*
X39690647Y-39459523D01*
X39690647Y-39459523D02*
X39728742Y-39535713D01*
X39728742Y-39535713D02*
X39728742Y-39840475D01*
X39385885Y-39078571D02*
X39347790Y-39040475D01*
X39347790Y-39040475D02*
X39309695Y-38964285D01*
X39309695Y-38964285D02*
X39309695Y-38773809D01*
X39309695Y-38773809D02*
X39347790Y-38697618D01*
X39347790Y-38697618D02*
X39385885Y-38659523D01*
X39385885Y-38659523D02*
X39462076Y-38621428D01*
X39462076Y-38621428D02*
X39538266Y-38621428D01*
X39538266Y-38621428D02*
X39652552Y-38659523D01*
X39652552Y-38659523D02*
X40109695Y-39116666D01*
X40109695Y-39116666D02*
X40109695Y-38621428D01*
X50666667Y-27483504D02*
X50628571Y-27521600D01*
X50628571Y-27521600D02*
X50514286Y-27559695D01*
X50514286Y-27559695D02*
X50438095Y-27559695D01*
X50438095Y-27559695D02*
X50323809Y-27521600D01*
X50323809Y-27521600D02*
X50247619Y-27445409D01*
X50247619Y-27445409D02*
X50209524Y-27369219D01*
X50209524Y-27369219D02*
X50171428Y-27216838D01*
X50171428Y-27216838D02*
X50171428Y-27102552D01*
X50171428Y-27102552D02*
X50209524Y-26950171D01*
X50209524Y-26950171D02*
X50247619Y-26873980D01*
X50247619Y-26873980D02*
X50323809Y-26797790D01*
X50323809Y-26797790D02*
X50438095Y-26759695D01*
X50438095Y-26759695D02*
X50514286Y-26759695D01*
X50514286Y-26759695D02*
X50628571Y-26797790D01*
X50628571Y-26797790D02*
X50666667Y-26835885D01*
X51047619Y-27559695D02*
X51200000Y-27559695D01*
X51200000Y-27559695D02*
X51276190Y-27521600D01*
X51276190Y-27521600D02*
X51314286Y-27483504D01*
X51314286Y-27483504D02*
X51390476Y-27369219D01*
X51390476Y-27369219D02*
X51428571Y-27216838D01*
X51428571Y-27216838D02*
X51428571Y-26912076D01*
X51428571Y-26912076D02*
X51390476Y-26835885D01*
X51390476Y-26835885D02*
X51352381Y-26797790D01*
X51352381Y-26797790D02*
X51276190Y-26759695D01*
X51276190Y-26759695D02*
X51123809Y-26759695D01*
X51123809Y-26759695D02*
X51047619Y-26797790D01*
X51047619Y-26797790D02*
X51009524Y-26835885D01*
X51009524Y-26835885D02*
X50971428Y-26912076D01*
X50971428Y-26912076D02*
X50971428Y-27102552D01*
X50971428Y-27102552D02*
X51009524Y-27178742D01*
X51009524Y-27178742D02*
X51047619Y-27216838D01*
X51047619Y-27216838D02*
X51123809Y-27254933D01*
X51123809Y-27254933D02*
X51276190Y-27254933D01*
X51276190Y-27254933D02*
X51352381Y-27216838D01*
X51352381Y-27216838D02*
X51390476Y-27178742D01*
X51390476Y-27178742D02*
X51428571Y-27102552D01*
X56233333Y-46259695D02*
X56233333Y-46831123D01*
X56233333Y-46831123D02*
X56195238Y-46945409D01*
X56195238Y-46945409D02*
X56119047Y-47021600D01*
X56119047Y-47021600D02*
X56004762Y-47059695D01*
X56004762Y-47059695D02*
X55928571Y-47059695D01*
X57033333Y-47059695D02*
X56576190Y-47059695D01*
X56804762Y-47059695D02*
X56804762Y-46259695D01*
X56804762Y-46259695D02*
X56728571Y-46373980D01*
X56728571Y-46373980D02*
X56652381Y-46450171D01*
X56652381Y-46450171D02*
X56576190Y-46488266D01*
X43566667Y-36583504D02*
X43528571Y-36621600D01*
X43528571Y-36621600D02*
X43414286Y-36659695D01*
X43414286Y-36659695D02*
X43338095Y-36659695D01*
X43338095Y-36659695D02*
X43223809Y-36621600D01*
X43223809Y-36621600D02*
X43147619Y-36545409D01*
X43147619Y-36545409D02*
X43109524Y-36469219D01*
X43109524Y-36469219D02*
X43071428Y-36316838D01*
X43071428Y-36316838D02*
X43071428Y-36202552D01*
X43071428Y-36202552D02*
X43109524Y-36050171D01*
X43109524Y-36050171D02*
X43147619Y-35973980D01*
X43147619Y-35973980D02*
X43223809Y-35897790D01*
X43223809Y-35897790D02*
X43338095Y-35859695D01*
X43338095Y-35859695D02*
X43414286Y-35859695D01*
X43414286Y-35859695D02*
X43528571Y-35897790D01*
X43528571Y-35897790D02*
X43566667Y-35935885D01*
X43871428Y-35935885D02*
X43909524Y-35897790D01*
X43909524Y-35897790D02*
X43985714Y-35859695D01*
X43985714Y-35859695D02*
X44176190Y-35859695D01*
X44176190Y-35859695D02*
X44252381Y-35897790D01*
X44252381Y-35897790D02*
X44290476Y-35935885D01*
X44290476Y-35935885D02*
X44328571Y-36012076D01*
X44328571Y-36012076D02*
X44328571Y-36088266D01*
X44328571Y-36088266D02*
X44290476Y-36202552D01*
X44290476Y-36202552D02*
X43833333Y-36659695D01*
X43833333Y-36659695D02*
X44328571Y-36659695D01*
X38066667Y-31133504D02*
X38028571Y-31171600D01*
X38028571Y-31171600D02*
X37914286Y-31209695D01*
X37914286Y-31209695D02*
X37838095Y-31209695D01*
X37838095Y-31209695D02*
X37723809Y-31171600D01*
X37723809Y-31171600D02*
X37647619Y-31095409D01*
X37647619Y-31095409D02*
X37609524Y-31019219D01*
X37609524Y-31019219D02*
X37571428Y-30866838D01*
X37571428Y-30866838D02*
X37571428Y-30752552D01*
X37571428Y-30752552D02*
X37609524Y-30600171D01*
X37609524Y-30600171D02*
X37647619Y-30523980D01*
X37647619Y-30523980D02*
X37723809Y-30447790D01*
X37723809Y-30447790D02*
X37838095Y-30409695D01*
X37838095Y-30409695D02*
X37914286Y-30409695D01*
X37914286Y-30409695D02*
X38028571Y-30447790D01*
X38028571Y-30447790D02*
X38066667Y-30485885D01*
X38752381Y-30676361D02*
X38752381Y-31209695D01*
X38561905Y-30371600D02*
X38371428Y-30943028D01*
X38371428Y-30943028D02*
X38866667Y-30943028D01*
X43390476Y-27209695D02*
X43390476Y-27857314D01*
X43390476Y-27857314D02*
X43428571Y-27933504D01*
X43428571Y-27933504D02*
X43466666Y-27971600D01*
X43466666Y-27971600D02*
X43542857Y-28009695D01*
X43542857Y-28009695D02*
X43695238Y-28009695D01*
X43695238Y-28009695D02*
X43771428Y-27971600D01*
X43771428Y-27971600D02*
X43809523Y-27933504D01*
X43809523Y-27933504D02*
X43847619Y-27857314D01*
X43847619Y-27857314D02*
X43847619Y-27209695D01*
X44647618Y-28009695D02*
X44190475Y-28009695D01*
X44419047Y-28009695D02*
X44419047Y-27209695D01*
X44419047Y-27209695D02*
X44342856Y-27323980D01*
X44342856Y-27323980D02*
X44266666Y-27400171D01*
X44266666Y-27400171D02*
X44190475Y-27438266D01*
X28809695Y-38783332D02*
X28428742Y-39049999D01*
X28809695Y-39240475D02*
X28009695Y-39240475D01*
X28009695Y-39240475D02*
X28009695Y-38935713D01*
X28009695Y-38935713D02*
X28047790Y-38859523D01*
X28047790Y-38859523D02*
X28085885Y-38821428D01*
X28085885Y-38821428D02*
X28162076Y-38783332D01*
X28162076Y-38783332D02*
X28276361Y-38783332D01*
X28276361Y-38783332D02*
X28352552Y-38821428D01*
X28352552Y-38821428D02*
X28390647Y-38859523D01*
X28390647Y-38859523D02*
X28428742Y-38935713D01*
X28428742Y-38935713D02*
X28428742Y-39240475D01*
X28276361Y-38097618D02*
X28809695Y-38097618D01*
X27971600Y-38288094D02*
X28543028Y-38478571D01*
X28543028Y-38478571D02*
X28543028Y-37983332D01*
X29766667Y-33109695D02*
X29500000Y-32728742D01*
X29309524Y-33109695D02*
X29309524Y-32309695D01*
X29309524Y-32309695D02*
X29614286Y-32309695D01*
X29614286Y-32309695D02*
X29690476Y-32347790D01*
X29690476Y-32347790D02*
X29728571Y-32385885D01*
X29728571Y-32385885D02*
X29766667Y-32462076D01*
X29766667Y-32462076D02*
X29766667Y-32576361D01*
X29766667Y-32576361D02*
X29728571Y-32652552D01*
X29728571Y-32652552D02*
X29690476Y-32690647D01*
X29690476Y-32690647D02*
X29614286Y-32728742D01*
X29614286Y-32728742D02*
X29309524Y-32728742D01*
X30223809Y-32652552D02*
X30147619Y-32614457D01*
X30147619Y-32614457D02*
X30109524Y-32576361D01*
X30109524Y-32576361D02*
X30071428Y-32500171D01*
X30071428Y-32500171D02*
X30071428Y-32462076D01*
X30071428Y-32462076D02*
X30109524Y-32385885D01*
X30109524Y-32385885D02*
X30147619Y-32347790D01*
X30147619Y-32347790D02*
X30223809Y-32309695D01*
X30223809Y-32309695D02*
X30376190Y-32309695D01*
X30376190Y-32309695D02*
X30452381Y-32347790D01*
X30452381Y-32347790D02*
X30490476Y-32385885D01*
X30490476Y-32385885D02*
X30528571Y-32462076D01*
X30528571Y-32462076D02*
X30528571Y-32500171D01*
X30528571Y-32500171D02*
X30490476Y-32576361D01*
X30490476Y-32576361D02*
X30452381Y-32614457D01*
X30452381Y-32614457D02*
X30376190Y-32652552D01*
X30376190Y-32652552D02*
X30223809Y-32652552D01*
X30223809Y-32652552D02*
X30147619Y-32690647D01*
X30147619Y-32690647D02*
X30109524Y-32728742D01*
X30109524Y-32728742D02*
X30071428Y-32804933D01*
X30071428Y-32804933D02*
X30071428Y-32957314D01*
X30071428Y-32957314D02*
X30109524Y-33033504D01*
X30109524Y-33033504D02*
X30147619Y-33071600D01*
X30147619Y-33071600D02*
X30223809Y-33109695D01*
X30223809Y-33109695D02*
X30376190Y-33109695D01*
X30376190Y-33109695D02*
X30452381Y-33071600D01*
X30452381Y-33071600D02*
X30490476Y-33033504D01*
X30490476Y-33033504D02*
X30528571Y-32957314D01*
X30528571Y-32957314D02*
X30528571Y-32804933D01*
X30528571Y-32804933D02*
X30490476Y-32728742D01*
X30490476Y-32728742D02*
X30452381Y-32690647D01*
X30452381Y-32690647D02*
X30376190Y-32652552D01*
%TO.C,Y1*%
D11*
X34740000Y-22790000D02*
X34740000Y-26210000D01*
X34740000Y-26210000D02*
X38860000Y-26210000D01*
%TO.C,C1*%
X39690000Y-36240580D02*
X39690000Y-35959420D01*
X40710000Y-36240580D02*
X40710000Y-35959420D01*
%TO.C,C12*%
X47259420Y-34190000D02*
X47540580Y-34190000D01*
X47259420Y-35210000D02*
X47540580Y-35210000D01*
%TO.C,R3*%
X29227500Y-41887258D02*
X29227500Y-41412742D01*
X30272500Y-41887258D02*
X30272500Y-41412742D01*
%TO.C,C10*%
X48265000Y-32261252D02*
X48265000Y-31738748D01*
X49735000Y-32261252D02*
X49735000Y-31738748D01*
%TO.C,C14*%
X39990000Y-27440580D02*
X39990000Y-27159420D01*
X41010000Y-27440580D02*
X41010000Y-27159420D01*
%TO.C,C11*%
X46065000Y-24561252D02*
X46065000Y-24038748D01*
X47535000Y-24561252D02*
X47535000Y-24038748D01*
%TO.C,R6*%
X32027500Y-41887258D02*
X32027500Y-41412742D01*
X33072500Y-41887258D02*
X33072500Y-41412742D01*
D12*
%TO.C,LOGO_W*%
X25724536Y-26208900D02*
X25795145Y-26271879D01*
X25823401Y-26319257D01*
X25845952Y-26420673D01*
X25814510Y-26509903D01*
X25744902Y-26576877D01*
X25652953Y-26611527D01*
X25554489Y-26603784D01*
X25467325Y-26545806D01*
X25415639Y-26445801D01*
X25420095Y-26341491D01*
X25472113Y-26252568D01*
X25563119Y-26198721D01*
X25621825Y-26191110D01*
X25724536Y-26208900D01*
G36*
X25724536Y-26208900D02*
G01*
X25795145Y-26271879D01*
X25823401Y-26319257D01*
X25845952Y-26420673D01*
X25814510Y-26509903D01*
X25744902Y-26576877D01*
X25652953Y-26611527D01*
X25554489Y-26603784D01*
X25467325Y-26545806D01*
X25415639Y-26445801D01*
X25420095Y-26341491D01*
X25472113Y-26252568D01*
X25563119Y-26198721D01*
X25621825Y-26191110D01*
X25724536Y-26208900D01*
G37*
X25160396Y-25162901D02*
X25263421Y-25224766D01*
X25338902Y-25282678D01*
X25366335Y-25316489D01*
X25401520Y-25376826D01*
X25463500Y-25454775D01*
X25473566Y-25465881D01*
X25526605Y-25530969D01*
X25527695Y-25556213D01*
X25475302Y-25541516D01*
X25367889Y-25486777D01*
X25312280Y-25455430D01*
X25218320Y-25394194D01*
X25160431Y-25341789D01*
X25150202Y-25313219D01*
X25142575Y-25267639D01*
X25096509Y-25196993D01*
X25072821Y-25169756D01*
X24972962Y-25062664D01*
X25160396Y-25162901D01*
G36*
X25160396Y-25162901D02*
G01*
X25263421Y-25224766D01*
X25338902Y-25282678D01*
X25366335Y-25316489D01*
X25401520Y-25376826D01*
X25463500Y-25454775D01*
X25473566Y-25465881D01*
X25526605Y-25530969D01*
X25527695Y-25556213D01*
X25475302Y-25541516D01*
X25367889Y-25486777D01*
X25312280Y-25455430D01*
X25218320Y-25394194D01*
X25160431Y-25341789D01*
X25150202Y-25313219D01*
X25142575Y-25267639D01*
X25096509Y-25196993D01*
X25072821Y-25169756D01*
X24972962Y-25062664D01*
X25160396Y-25162901D01*
G37*
X26885160Y-28044647D02*
X26907834Y-28062077D01*
X26920869Y-28106319D01*
X26926928Y-28189804D01*
X26928674Y-28324964D01*
X26928763Y-28408313D01*
X26928109Y-28571546D01*
X26924375Y-28677363D01*
X26914894Y-28738192D01*
X26897004Y-28766465D01*
X26868041Y-28774612D01*
X26850181Y-28775025D01*
X26815202Y-28771977D01*
X26792528Y-28754548D01*
X26779493Y-28710306D01*
X26773434Y-28626820D01*
X26771688Y-28491661D01*
X26771600Y-28408313D01*
X26772253Y-28245078D01*
X26775987Y-28139262D01*
X26785468Y-28078432D01*
X26803358Y-28050160D01*
X26832321Y-28042013D01*
X26850181Y-28041600D01*
X26885160Y-28044647D01*
G36*
X26885160Y-28044647D02*
G01*
X26907834Y-28062077D01*
X26920869Y-28106319D01*
X26926928Y-28189804D01*
X26928674Y-28324964D01*
X26928763Y-28408313D01*
X26928109Y-28571546D01*
X26924375Y-28677363D01*
X26914894Y-28738192D01*
X26897004Y-28766465D01*
X26868041Y-28774612D01*
X26850181Y-28775025D01*
X26815202Y-28771977D01*
X26792528Y-28754548D01*
X26779493Y-28710306D01*
X26773434Y-28626820D01*
X26771688Y-28491661D01*
X26771600Y-28408313D01*
X26772253Y-28245078D01*
X26775987Y-28139262D01*
X26785468Y-28078432D01*
X26803358Y-28050160D01*
X26832321Y-28042013D01*
X26850181Y-28041600D01*
X26885160Y-28044647D01*
G37*
X26261212Y-25095147D02*
X26219175Y-25150550D01*
X26181680Y-25191287D01*
X26113419Y-25272958D01*
X26102190Y-25317822D01*
X26111791Y-25324526D01*
X26104034Y-25345876D01*
X26051940Y-25389147D01*
X25972780Y-25443335D01*
X25883819Y-25497435D01*
X25802326Y-25540443D01*
X25745568Y-25561356D01*
X25739258Y-25561925D01*
X25742794Y-25540101D01*
X25785310Y-25485201D01*
X25810813Y-25457514D01*
X25867326Y-25387745D01*
X25889260Y-25337814D01*
X25886305Y-25328563D01*
X25901493Y-25301185D01*
X25959646Y-25251638D01*
X26042861Y-25192022D01*
X26133236Y-25134437D01*
X26212868Y-25090982D01*
X26263307Y-25073764D01*
X26261212Y-25095147D01*
G36*
X26261212Y-25095147D02*
G01*
X26219175Y-25150550D01*
X26181680Y-25191287D01*
X26113419Y-25272958D01*
X26102190Y-25317822D01*
X26111791Y-25324526D01*
X26104034Y-25345876D01*
X26051940Y-25389147D01*
X25972780Y-25443335D01*
X25883819Y-25497435D01*
X25802326Y-25540443D01*
X25745568Y-25561356D01*
X25739258Y-25561925D01*
X25742794Y-25540101D01*
X25785310Y-25485201D01*
X25810813Y-25457514D01*
X25867326Y-25387745D01*
X25889260Y-25337814D01*
X25886305Y-25328563D01*
X25901493Y-25301185D01*
X25959646Y-25251638D01*
X26042861Y-25192022D01*
X26133236Y-25134437D01*
X26212868Y-25090982D01*
X26263307Y-25073764D01*
X26261212Y-25095147D01*
G37*
X27518879Y-28054611D02*
X27587990Y-28093732D01*
X27609800Y-28150777D01*
X27597003Y-28202628D01*
X27549561Y-28198375D01*
X27548681Y-28198007D01*
X27404331Y-28162713D01*
X27288658Y-28184764D01*
X27210131Y-28259516D01*
X27177217Y-28382322D01*
X27176730Y-28402076D01*
X27203999Y-28536404D01*
X27277040Y-28627959D01*
X27382702Y-28668508D01*
X27507833Y-28649821D01*
X27545031Y-28632605D01*
X27596282Y-28613073D01*
X27607426Y-28644330D01*
X27603854Y-28676262D01*
X27588706Y-28724725D01*
X27548683Y-28751174D01*
X27465416Y-28764275D01*
X27409211Y-28768110D01*
X27291901Y-28769304D01*
X27215547Y-28750725D01*
X27152283Y-28704555D01*
X27139963Y-28692537D01*
X27046552Y-28557634D01*
X27021031Y-28411621D01*
X27063618Y-28260699D01*
X27121604Y-28170810D01*
X27203251Y-28102327D01*
X27308611Y-28059643D01*
X27419787Y-28043493D01*
X27518879Y-28054611D01*
G36*
X27518879Y-28054611D02*
G01*
X27587990Y-28093732D01*
X27609800Y-28150777D01*
X27597003Y-28202628D01*
X27549561Y-28198375D01*
X27548681Y-28198007D01*
X27404331Y-28162713D01*
X27288658Y-28184764D01*
X27210131Y-28259516D01*
X27177217Y-28382322D01*
X27176730Y-28402076D01*
X27203999Y-28536404D01*
X27277040Y-28627959D01*
X27382702Y-28668508D01*
X27507833Y-28649821D01*
X27545031Y-28632605D01*
X27596282Y-28613073D01*
X27607426Y-28644330D01*
X27603854Y-28676262D01*
X27588706Y-28724725D01*
X27548683Y-28751174D01*
X27465416Y-28764275D01*
X27409211Y-28768110D01*
X27291901Y-28769304D01*
X27215547Y-28750725D01*
X27152283Y-28704555D01*
X27139963Y-28692537D01*
X27046552Y-28557634D01*
X27021031Y-28411621D01*
X27063618Y-28260699D01*
X27121604Y-28170810D01*
X27203251Y-28102327D01*
X27308611Y-28059643D01*
X27419787Y-28043493D01*
X27518879Y-28054611D01*
G37*
X25037201Y-28092272D02*
X25082538Y-28179727D01*
X25143808Y-28302956D01*
X25202831Y-28424781D01*
X25370659Y-28775025D01*
X25272220Y-28775025D01*
X25199166Y-28762654D01*
X25163198Y-28711473D01*
X25152399Y-28668115D01*
X25131798Y-28598212D01*
X25092446Y-28571054D01*
X25010190Y-28571320D01*
X25000982Y-28572071D01*
X24909535Y-28588975D01*
X24864667Y-28629160D01*
X24850723Y-28670250D01*
X24810819Y-28741901D01*
X24732031Y-28768981D01*
X24666650Y-28768549D01*
X24647933Y-28751518D01*
X24668184Y-28709909D01*
X24711904Y-28619576D01*
X24772232Y-28494713D01*
X24820302Y-28395112D01*
X24957780Y-28395112D01*
X24985788Y-28424254D01*
X25004618Y-28425775D01*
X25038810Y-28400177D01*
X25034697Y-28352973D01*
X25014001Y-28306179D01*
X24987889Y-28324032D01*
X24986114Y-28326779D01*
X24957780Y-28395112D01*
X24820302Y-28395112D01*
X24828400Y-28378333D01*
X24896844Y-28241729D01*
X24955428Y-28134588D01*
X24997323Y-28068790D01*
X25014750Y-28054283D01*
X25037201Y-28092272D01*
G36*
X25037201Y-28092272D02*
G01*
X25082538Y-28179727D01*
X25143808Y-28302956D01*
X25202831Y-28424781D01*
X25370659Y-28775025D01*
X25272220Y-28775025D01*
X25199166Y-28762654D01*
X25163198Y-28711473D01*
X25152399Y-28668115D01*
X25131798Y-28598212D01*
X25092446Y-28571054D01*
X25010190Y-28571320D01*
X25000982Y-28572071D01*
X24909535Y-28588975D01*
X24864667Y-28629160D01*
X24850723Y-28670250D01*
X24810819Y-28741901D01*
X24732031Y-28768981D01*
X24666650Y-28768549D01*
X24647933Y-28751518D01*
X24668184Y-28709909D01*
X24711904Y-28619576D01*
X24772232Y-28494713D01*
X24820302Y-28395112D01*
X24957780Y-28395112D01*
X24985788Y-28424254D01*
X25004618Y-28425775D01*
X25038810Y-28400177D01*
X25034697Y-28352973D01*
X25014001Y-28306179D01*
X24987889Y-28324032D01*
X24986114Y-28326779D01*
X24957780Y-28395112D01*
X24820302Y-28395112D01*
X24828400Y-28378333D01*
X24896844Y-28241729D01*
X24955428Y-28134588D01*
X24997323Y-28068790D01*
X25014750Y-28054283D01*
X25037201Y-28092272D01*
G37*
X27825727Y-28046362D02*
X27847799Y-28073346D01*
X27844974Y-28141597D01*
X27838028Y-28190031D01*
X27815641Y-28338463D01*
X27921331Y-28216225D01*
X27984592Y-28138065D01*
X28022864Y-28081166D01*
X28027960Y-28067794D01*
X28059115Y-28049577D01*
X28133145Y-28041613D01*
X28136643Y-28041600D01*
X28244386Y-28041600D01*
X28101617Y-28203794D01*
X28022112Y-28305254D01*
X27985540Y-28377777D01*
X27987626Y-28404613D01*
X28023899Y-28451381D01*
X28088331Y-28532895D01*
X28149096Y-28609131D01*
X28281789Y-28775025D01*
X28175655Y-28775025D01*
X28091331Y-28759122D01*
X28025648Y-28700110D01*
X27996401Y-28656713D01*
X27933829Y-28566898D01*
X27874142Y-28498455D01*
X27865541Y-28490820D01*
X27831950Y-28468784D01*
X27818974Y-28485128D01*
X27822994Y-28552021D01*
X27830369Y-28609131D01*
X27841585Y-28708790D01*
X27834885Y-28757573D01*
X27803274Y-28773596D01*
X27766294Y-28775025D01*
X27679650Y-28775025D01*
X27679650Y-28041600D01*
X27770032Y-28041600D01*
X27825727Y-28046362D01*
G36*
X27825727Y-28046362D02*
G01*
X27847799Y-28073346D01*
X27844974Y-28141597D01*
X27838028Y-28190031D01*
X27815641Y-28338463D01*
X27921331Y-28216225D01*
X27984592Y-28138065D01*
X28022864Y-28081166D01*
X28027960Y-28067794D01*
X28059115Y-28049577D01*
X28133145Y-28041613D01*
X28136643Y-28041600D01*
X28244386Y-28041600D01*
X28101617Y-28203794D01*
X28022112Y-28305254D01*
X27985540Y-28377777D01*
X27987626Y-28404613D01*
X28023899Y-28451381D01*
X28088331Y-28532895D01*
X28149096Y-28609131D01*
X28281789Y-28775025D01*
X28175655Y-28775025D01*
X28091331Y-28759122D01*
X28025648Y-28700110D01*
X27996401Y-28656713D01*
X27933829Y-28566898D01*
X27874142Y-28498455D01*
X27865541Y-28490820D01*
X27831950Y-28468784D01*
X27818974Y-28485128D01*
X27822994Y-28552021D01*
X27830369Y-28609131D01*
X27841585Y-28708790D01*
X27834885Y-28757573D01*
X27803274Y-28773596D01*
X27766294Y-28775025D01*
X27679650Y-28775025D01*
X27679650Y-28041600D01*
X27770032Y-28041600D01*
X27825727Y-28046362D01*
G37*
X24525245Y-28044052D02*
X24549191Y-28059704D01*
X24562957Y-28101000D01*
X24569361Y-28180382D01*
X24571219Y-28310294D01*
X24571325Y-28408313D01*
X24570769Y-28571488D01*
X24567226Y-28677258D01*
X24557877Y-28738064D01*
X24539905Y-28766350D01*
X24510493Y-28774559D01*
X24488302Y-28775025D01*
X24437982Y-28769414D01*
X24417005Y-28740219D01*
X24417665Y-28668888D01*
X24422994Y-28617863D01*
X24440709Y-28460700D01*
X24143141Y-28460700D01*
X24160855Y-28617863D01*
X24168763Y-28714317D01*
X24158518Y-28760255D01*
X24122412Y-28774225D01*
X24095547Y-28775025D01*
X24058605Y-28772573D01*
X24034659Y-28756920D01*
X24020893Y-28715624D01*
X24014488Y-28636242D01*
X24012630Y-28506331D01*
X24012525Y-28408313D01*
X24013080Y-28245136D01*
X24016624Y-28139367D01*
X24025972Y-28078561D01*
X24043944Y-28050275D01*
X24073356Y-28042065D01*
X24095547Y-28041600D01*
X24145868Y-28047210D01*
X24166844Y-28076406D01*
X24166184Y-28147736D01*
X24160855Y-28198763D01*
X24143141Y-28355925D01*
X24440709Y-28355925D01*
X24422994Y-28198763D01*
X24415086Y-28102308D01*
X24425331Y-28056370D01*
X24461437Y-28042399D01*
X24488302Y-28041600D01*
X24525245Y-28044052D01*
G36*
X24525245Y-28044052D02*
G01*
X24549191Y-28059704D01*
X24562957Y-28101000D01*
X24569361Y-28180382D01*
X24571219Y-28310294D01*
X24571325Y-28408313D01*
X24570769Y-28571488D01*
X24567226Y-28677258D01*
X24557877Y-28738064D01*
X24539905Y-28766350D01*
X24510493Y-28774559D01*
X24488302Y-28775025D01*
X24437982Y-28769414D01*
X24417005Y-28740219D01*
X24417665Y-28668888D01*
X24422994Y-28617863D01*
X24440709Y-28460700D01*
X24143141Y-28460700D01*
X24160855Y-28617863D01*
X24168763Y-28714317D01*
X24158518Y-28760255D01*
X24122412Y-28774225D01*
X24095547Y-28775025D01*
X24058605Y-28772573D01*
X24034659Y-28756920D01*
X24020893Y-28715624D01*
X24014488Y-28636242D01*
X24012630Y-28506331D01*
X24012525Y-28408313D01*
X24013080Y-28245136D01*
X24016624Y-28139367D01*
X24025972Y-28078561D01*
X24043944Y-28050275D01*
X24073356Y-28042065D01*
X24095547Y-28041600D01*
X24145868Y-28047210D01*
X24166844Y-28076406D01*
X24166184Y-28147736D01*
X24160855Y-28198763D01*
X24143141Y-28355925D01*
X24440709Y-28355925D01*
X24422994Y-28198763D01*
X24415086Y-28102308D01*
X24425331Y-28056370D01*
X24461437Y-28042399D01*
X24488302Y-28041600D01*
X24525245Y-28044052D01*
G37*
X23927018Y-28052042D02*
X23933923Y-28096721D01*
X23927874Y-28120181D01*
X23908394Y-28189745D01*
X23876896Y-28305200D01*
X23839267Y-28444922D01*
X23828047Y-28486894D01*
X23777030Y-28652688D01*
X23729606Y-28749691D01*
X23683750Y-28778735D01*
X23637438Y-28740651D01*
X23588643Y-28636271D01*
X23573057Y-28591669D01*
X23512151Y-28408313D01*
X23453750Y-28582938D01*
X23401196Y-28709089D01*
X23350979Y-28765439D01*
X23302690Y-28751975D01*
X23255915Y-28668685D01*
X23225949Y-28576453D01*
X23184762Y-28432744D01*
X23141332Y-28288054D01*
X23119545Y-28218735D01*
X23089949Y-28124989D01*
X23072015Y-28063947D01*
X23069550Y-28052841D01*
X23099566Y-28044418D01*
X23157958Y-28041600D01*
X23212252Y-28046382D01*
X23246677Y-28070552D01*
X23269257Y-28128846D01*
X23288014Y-28236000D01*
X23296196Y-28295482D01*
X23314596Y-28387844D01*
X23336871Y-28439283D01*
X23348900Y-28443268D01*
X23374416Y-28401831D01*
X23408981Y-28314071D01*
X23436301Y-28228386D01*
X23470397Y-28129562D01*
X23501470Y-28070658D01*
X23519732Y-28063137D01*
X23543876Y-28110802D01*
X23579962Y-28203551D01*
X23613447Y-28301036D01*
X23680737Y-28508084D01*
X23732146Y-28274842D01*
X23762111Y-28150481D01*
X23788850Y-28080076D01*
X23820982Y-28048744D01*
X23867123Y-28041600D01*
X23867188Y-28041600D01*
X23927018Y-28052042D01*
G36*
X23927018Y-28052042D02*
G01*
X23933923Y-28096721D01*
X23927874Y-28120181D01*
X23908394Y-28189745D01*
X23876896Y-28305200D01*
X23839267Y-28444922D01*
X23828047Y-28486894D01*
X23777030Y-28652688D01*
X23729606Y-28749691D01*
X23683750Y-28778735D01*
X23637438Y-28740651D01*
X23588643Y-28636271D01*
X23573057Y-28591669D01*
X23512151Y-28408313D01*
X23453750Y-28582938D01*
X23401196Y-28709089D01*
X23350979Y-28765439D01*
X23302690Y-28751975D01*
X23255915Y-28668685D01*
X23225949Y-28576453D01*
X23184762Y-28432744D01*
X23141332Y-28288054D01*
X23119545Y-28218735D01*
X23089949Y-28124989D01*
X23072015Y-28063947D01*
X23069550Y-28052841D01*
X23099566Y-28044418D01*
X23157958Y-28041600D01*
X23212252Y-28046382D01*
X23246677Y-28070552D01*
X23269257Y-28128846D01*
X23288014Y-28236000D01*
X23296196Y-28295482D01*
X23314596Y-28387844D01*
X23336871Y-28439283D01*
X23348900Y-28443268D01*
X23374416Y-28401831D01*
X23408981Y-28314071D01*
X23436301Y-28228386D01*
X23470397Y-28129562D01*
X23501470Y-28070658D01*
X23519732Y-28063137D01*
X23543876Y-28110802D01*
X23579962Y-28203551D01*
X23613447Y-28301036D01*
X23680737Y-28508084D01*
X23732146Y-28274842D01*
X23762111Y-28150481D01*
X23788850Y-28080076D01*
X23820982Y-28048744D01*
X23867123Y-28041600D01*
X23867188Y-28041600D01*
X23927018Y-28052042D01*
G37*
X26315139Y-28286075D02*
X26398818Y-28395709D01*
X26467185Y-28479907D01*
X26509604Y-28525796D01*
X26517094Y-28530550D01*
X26524342Y-28498728D01*
X26524515Y-28414954D01*
X26517636Y-28296763D01*
X26516760Y-28286075D01*
X26507333Y-28158509D01*
X26508156Y-28085371D01*
X26522688Y-28051570D01*
X26554391Y-28042014D01*
X26572813Y-28041600D01*
X26606898Y-28044957D01*
X26628994Y-28063308D01*
X26641696Y-28109073D01*
X26647595Y-28194673D01*
X26649284Y-28332526D01*
X26649363Y-28408313D01*
X26648560Y-28571749D01*
X26644521Y-28677727D01*
X26634794Y-28738630D01*
X26616931Y-28766845D01*
X26588482Y-28774758D01*
X26576835Y-28775025D01*
X26508950Y-28743672D01*
X26416956Y-28648963D01*
X26349823Y-28561413D01*
X26195338Y-28347802D01*
X26184939Y-28561413D01*
X26176278Y-28680501D01*
X26161217Y-28745316D01*
X26134027Y-28771427D01*
X26106358Y-28775025D01*
X26073846Y-28769348D01*
X26053680Y-28743456D01*
X26042955Y-28684052D01*
X26038769Y-28577841D01*
X26038175Y-28462761D01*
X26032171Y-28287171D01*
X26014883Y-28169863D01*
X25987398Y-28114101D01*
X25950801Y-28123150D01*
X25933070Y-28146909D01*
X25880923Y-28175025D01*
X25832199Y-28172115D01*
X25797301Y-28166702D01*
X25775678Y-28181134D01*
X25764162Y-28228009D01*
X25759584Y-28319921D01*
X25758775Y-28463969D01*
X25757958Y-28611870D01*
X25753107Y-28703423D01*
X25740622Y-28752132D01*
X25716904Y-28771498D01*
X25678353Y-28775022D01*
X25675847Y-28775025D01*
X25636879Y-28772626D01*
X25613447Y-28756527D01*
X25602819Y-28713373D01*
X25602259Y-28629810D01*
X25609035Y-28492482D01*
X25610985Y-28458182D01*
X25629050Y-28141338D01*
X25504195Y-28164762D01*
X25422992Y-28176308D01*
X25393001Y-28163543D01*
X25397547Y-28118597D01*
X25398505Y-28114892D01*
X25411938Y-28081806D01*
X25440228Y-28060508D01*
X25496617Y-28048427D01*
X25594346Y-28042987D01*
X25746656Y-28041614D01*
X25775509Y-28041600D01*
X26133345Y-28041600D01*
X26315139Y-28286075D01*
G36*
X26315139Y-28286075D02*
G01*
X26398818Y-28395709D01*
X26467185Y-28479907D01*
X26509604Y-28525796D01*
X26517094Y-28530550D01*
X26524342Y-28498728D01*
X26524515Y-28414954D01*
X26517636Y-28296763D01*
X26516760Y-28286075D01*
X26507333Y-28158509D01*
X26508156Y-28085371D01*
X26522688Y-28051570D01*
X26554391Y-28042014D01*
X26572813Y-28041600D01*
X26606898Y-28044957D01*
X26628994Y-28063308D01*
X26641696Y-28109073D01*
X26647595Y-28194673D01*
X26649284Y-28332526D01*
X26649363Y-28408313D01*
X26648560Y-28571749D01*
X26644521Y-28677727D01*
X26634794Y-28738630D01*
X26616931Y-28766845D01*
X26588482Y-28774758D01*
X26576835Y-28775025D01*
X26508950Y-28743672D01*
X26416956Y-28648963D01*
X26349823Y-28561413D01*
X26195338Y-28347802D01*
X26184939Y-28561413D01*
X26176278Y-28680501D01*
X26161217Y-28745316D01*
X26134027Y-28771427D01*
X26106358Y-28775025D01*
X26073846Y-28769348D01*
X26053680Y-28743456D01*
X26042955Y-28684052D01*
X26038769Y-28577841D01*
X26038175Y-28462761D01*
X26032171Y-28287171D01*
X26014883Y-28169863D01*
X25987398Y-28114101D01*
X25950801Y-28123150D01*
X25933070Y-28146909D01*
X25880923Y-28175025D01*
X25832199Y-28172115D01*
X25797301Y-28166702D01*
X25775678Y-28181134D01*
X25764162Y-28228009D01*
X25759584Y-28319921D01*
X25758775Y-28463969D01*
X25757958Y-28611870D01*
X25753107Y-28703423D01*
X25740622Y-28752132D01*
X25716904Y-28771498D01*
X25678353Y-28775022D01*
X25675847Y-28775025D01*
X25636879Y-28772626D01*
X25613447Y-28756527D01*
X25602819Y-28713373D01*
X25602259Y-28629810D01*
X25609035Y-28492482D01*
X25610985Y-28458182D01*
X25629050Y-28141338D01*
X25504195Y-28164762D01*
X25422992Y-28176308D01*
X25393001Y-28163543D01*
X25397547Y-28118597D01*
X25398505Y-28114892D01*
X25411938Y-28081806D01*
X25440228Y-28060508D01*
X25496617Y-28048427D01*
X25594346Y-28042987D01*
X25746656Y-28041614D01*
X25775509Y-28041600D01*
X26133345Y-28041600D01*
X26315139Y-28286075D01*
G37*
X25443881Y-25607546D02*
X25470178Y-25670513D01*
X25478984Y-25793187D01*
X25479375Y-25843678D01*
X25478233Y-25971676D01*
X25471608Y-26043467D01*
X25454697Y-26072695D01*
X25422700Y-26072998D01*
X25400794Y-26066943D01*
X25315433Y-26027653D01*
X25272796Y-25996462D01*
X25229139Y-25970903D01*
X25175713Y-25986425D01*
X25124520Y-26019940D01*
X25025662Y-26090334D01*
X25236370Y-26367131D01*
X25375915Y-26535188D01*
X25496223Y-26639559D01*
X25606297Y-26680215D01*
X25715139Y-26657127D01*
X25831753Y-26570267D01*
X25965142Y-26419609D01*
X26007690Y-26364715D01*
X26099524Y-26242309D01*
X26154061Y-26162052D01*
X26176704Y-26110814D01*
X26172858Y-26075468D01*
X26147928Y-26042884D01*
X26142506Y-26037217D01*
X26098100Y-25998087D01*
X26053210Y-25989494D01*
X25981798Y-26010357D01*
X25935190Y-26028621D01*
X25844463Y-26061606D01*
X25797471Y-26065634D01*
X25774657Y-26041292D01*
X25771456Y-26033547D01*
X25723782Y-25989261D01*
X25685188Y-25981025D01*
X25630648Y-25958157D01*
X25619075Y-25928637D01*
X25648191Y-25885973D01*
X25688925Y-25876250D01*
X25745677Y-25861624D01*
X25758775Y-25841325D01*
X25729523Y-25812949D01*
X25688925Y-25806400D01*
X25632039Y-25784562D01*
X25619075Y-25754012D01*
X25648191Y-25711348D01*
X25688925Y-25701625D01*
X25747035Y-25678192D01*
X25758775Y-25645451D01*
X25783256Y-25608264D01*
X25846515Y-25610538D01*
X25933277Y-25647498D01*
X26028266Y-25714366D01*
X26054353Y-25737889D01*
X26144521Y-25821152D01*
X26255074Y-25919752D01*
X26311373Y-25968717D01*
X26479125Y-26154319D01*
X26588529Y-26364492D01*
X26641884Y-26589161D01*
X26641495Y-26818250D01*
X26589663Y-27041686D01*
X26488692Y-27249393D01*
X26340883Y-27431296D01*
X26148540Y-27577322D01*
X25921346Y-27675231D01*
X25657950Y-27721497D01*
X25402492Y-27699849D01*
X25312496Y-27675945D01*
X25086788Y-27569869D01*
X24887132Y-27404361D01*
X24723442Y-27187947D01*
X24702267Y-27151013D01*
X24661216Y-27061265D01*
X24637267Y-26961808D01*
X24626414Y-26830156D01*
X24624478Y-26714450D01*
X24634065Y-26582958D01*
X24785569Y-26582958D01*
X24788275Y-26798949D01*
X24839301Y-27011255D01*
X24934005Y-27201252D01*
X25067744Y-27350314D01*
X25079567Y-27359590D01*
X25288887Y-27478880D01*
X25517174Y-27538458D01*
X25750148Y-27537260D01*
X25973530Y-27474226D01*
X26055719Y-27432210D01*
X26234769Y-27290562D01*
X26367376Y-27110040D01*
X26449274Y-26904158D01*
X26476200Y-26686431D01*
X26443887Y-26470374D01*
X26396662Y-26351824D01*
X26345903Y-26251136D01*
X26258492Y-26404211D01*
X26142150Y-26616081D01*
X26057830Y-26791932D01*
X25996913Y-26952558D01*
X25950783Y-27118751D01*
X25937006Y-27179892D01*
X25905616Y-27319041D01*
X25879266Y-27404954D01*
X25849416Y-27452910D01*
X25807525Y-27478189D01*
X25762833Y-27491520D01*
X25652425Y-27503776D01*
X25526551Y-27496118D01*
X25505178Y-27492405D01*
X25360981Y-27463888D01*
X25316541Y-27223101D01*
X25263913Y-27023267D01*
X25178053Y-26793535D01*
X25069201Y-26558680D01*
X24963428Y-26368911D01*
X24890782Y-26250384D01*
X24835828Y-26381907D01*
X24785569Y-26582958D01*
X24634065Y-26582958D01*
X24642735Y-26464047D01*
X24702751Y-26259709D01*
X24810240Y-26087667D01*
X24936888Y-25961812D01*
X25043136Y-25872073D01*
X25147105Y-25783620D01*
X25182512Y-25753277D01*
X25307801Y-25651288D01*
X25392340Y-25601924D01*
X25443881Y-25607546D01*
G36*
X25443881Y-25607546D02*
G01*
X25470178Y-25670513D01*
X25478984Y-25793187D01*
X25479375Y-25843678D01*
X25478233Y-25971676D01*
X25471608Y-26043467D01*
X25454697Y-26072695D01*
X25422700Y-26072998D01*
X25400794Y-26066943D01*
X25315433Y-26027653D01*
X25272796Y-25996462D01*
X25229139Y-25970903D01*
X25175713Y-25986425D01*
X25124520Y-26019940D01*
X25025662Y-26090334D01*
X25236370Y-26367131D01*
X25375915Y-26535188D01*
X25496223Y-26639559D01*
X25606297Y-26680215D01*
X25715139Y-26657127D01*
X25831753Y-26570267D01*
X25965142Y-26419609D01*
X26007690Y-26364715D01*
X26099524Y-26242309D01*
X26154061Y-26162052D01*
X26176704Y-26110814D01*
X26172858Y-26075468D01*
X26147928Y-26042884D01*
X26142506Y-26037217D01*
X26098100Y-25998087D01*
X26053210Y-25989494D01*
X25981798Y-26010357D01*
X25935190Y-26028621D01*
X25844463Y-26061606D01*
X25797471Y-26065634D01*
X25774657Y-26041292D01*
X25771456Y-26033547D01*
X25723782Y-25989261D01*
X25685188Y-25981025D01*
X25630648Y-25958157D01*
X25619075Y-25928637D01*
X25648191Y-25885973D01*
X25688925Y-25876250D01*
X25745677Y-25861624D01*
X25758775Y-25841325D01*
X25729523Y-25812949D01*
X25688925Y-25806400D01*
X25632039Y-25784562D01*
X25619075Y-25754012D01*
X25648191Y-25711348D01*
X25688925Y-25701625D01*
X25747035Y-25678192D01*
X25758775Y-25645451D01*
X25783256Y-25608264D01*
X25846515Y-25610538D01*
X25933277Y-25647498D01*
X26028266Y-25714366D01*
X26054353Y-25737889D01*
X26144521Y-25821152D01*
X26255074Y-25919752D01*
X26311373Y-25968717D01*
X26479125Y-26154319D01*
X26588529Y-26364492D01*
X26641884Y-26589161D01*
X26641495Y-26818250D01*
X26589663Y-27041686D01*
X26488692Y-27249393D01*
X26340883Y-27431296D01*
X26148540Y-27577322D01*
X25921346Y-27675231D01*
X25657950Y-27721497D01*
X25402492Y-27699849D01*
X25312496Y-27675945D01*
X25086788Y-27569869D01*
X24887132Y-27404361D01*
X24723442Y-27187947D01*
X24702267Y-27151013D01*
X24661216Y-27061265D01*
X24637267Y-26961808D01*
X24626414Y-26830156D01*
X24624478Y-26714450D01*
X24634065Y-26582958D01*
X24785569Y-26582958D01*
X24788275Y-26798949D01*
X24839301Y-27011255D01*
X24934005Y-27201252D01*
X25067744Y-27350314D01*
X25079567Y-27359590D01*
X25288887Y-27478880D01*
X25517174Y-27538458D01*
X25750148Y-27537260D01*
X25973530Y-27474226D01*
X26055719Y-27432210D01*
X26234769Y-27290562D01*
X26367376Y-27110040D01*
X26449274Y-26904158D01*
X26476200Y-26686431D01*
X26443887Y-26470374D01*
X26396662Y-26351824D01*
X26345903Y-26251136D01*
X26258492Y-26404211D01*
X26142150Y-26616081D01*
X26057830Y-26791932D01*
X25996913Y-26952558D01*
X25950783Y-27118751D01*
X25937006Y-27179892D01*
X25905616Y-27319041D01*
X25879266Y-27404954D01*
X25849416Y-27452910D01*
X25807525Y-27478189D01*
X25762833Y-27491520D01*
X25652425Y-27503776D01*
X25526551Y-27496118D01*
X25505178Y-27492405D01*
X25360981Y-27463888D01*
X25316541Y-27223101D01*
X25263913Y-27023267D01*
X25178053Y-26793535D01*
X25069201Y-26558680D01*
X24963428Y-26368911D01*
X24890782Y-26250384D01*
X24835828Y-26381907D01*
X24785569Y-26582958D01*
X24634065Y-26582958D01*
X24642735Y-26464047D01*
X24702751Y-26259709D01*
X24810240Y-26087667D01*
X24936888Y-25961812D01*
X25043136Y-25872073D01*
X25147105Y-25783620D01*
X25182512Y-25753277D01*
X25307801Y-25651288D01*
X25392340Y-25601924D01*
X25443881Y-25607546D01*
G37*
%TO.C,R12*%
D11*
X44562742Y-40477500D02*
X45037258Y-40477500D01*
X44562742Y-41522500D02*
X45037258Y-41522500D01*
%TO.C,C3*%
X37490000Y-35940580D02*
X37490000Y-35659420D01*
X38510000Y-35940580D02*
X38510000Y-35659420D01*
%TO.C,SW1*%
X52350000Y-31140000D02*
X56050000Y-31140000D01*
X52350000Y-37260000D02*
X52350000Y-31140000D01*
X56050000Y-31140000D02*
X56050000Y-37260000D01*
X56050000Y-37260000D02*
X52350000Y-37260000D01*
%TO.C,R1*%
X35677500Y-39487258D02*
X35677500Y-39012742D01*
X36722500Y-39487258D02*
X36722500Y-39012742D01*
%TO.C,RB1*%
X36192742Y-41927500D02*
X36667258Y-41927500D01*
X36192742Y-42972500D02*
X36667258Y-42972500D01*
%TO.C,R10*%
X34962742Y-32177500D02*
X35437258Y-32177500D01*
X34962742Y-33222500D02*
X35437258Y-33222500D01*
%TO.C,R5*%
X26962742Y-35927500D02*
X27437258Y-35927500D01*
X26962742Y-36972500D02*
X27437258Y-36972500D01*
%TO.C,C13*%
X39990000Y-23740580D02*
X39990000Y-23459420D01*
X41010000Y-23740580D02*
X41010000Y-23459420D01*
%TO.C,R7*%
X32027500Y-38887258D02*
X32027500Y-38412742D01*
X33072500Y-38887258D02*
X33072500Y-38412742D01*
%TO.C,R9*%
X34662742Y-35927500D02*
X35137258Y-35927500D01*
X34662742Y-36972500D02*
X35137258Y-36972500D01*
%TO.C,R11*%
X50062742Y-37677500D02*
X50537258Y-37677500D01*
X50062742Y-38722500D02*
X50537258Y-38722500D01*
%TO.C,R2*%
X37977500Y-39487258D02*
X37977500Y-39012742D01*
X39022500Y-39487258D02*
X39022500Y-39012742D01*
%TO.C,C9*%
X48265000Y-28261252D02*
X48265000Y-27738748D01*
X49735000Y-28261252D02*
X49735000Y-27738748D01*
%TO.C,J1*%
X23620000Y-46680000D02*
X23620000Y-45300000D01*
X25000000Y-46680000D02*
X23620000Y-46680000D01*
X26270000Y-43920000D02*
X54320000Y-43920000D01*
X26270000Y-46680000D02*
X26270000Y-43920000D01*
X26270000Y-46680000D02*
X54320000Y-46680000D01*
X54320000Y-46680000D02*
X54320000Y-43920000D01*
%TO.C,C2*%
X41490000Y-36440580D02*
X41490000Y-36159420D01*
X42510000Y-36440580D02*
X42510000Y-36159420D01*
%TO.C,C4*%
X37690000Y-32940580D02*
X37690000Y-32659420D01*
X38710000Y-32940580D02*
X38710000Y-32659420D01*
%TO.C,U1*%
X41890000Y-28790000D02*
X42365000Y-28790000D01*
X41890000Y-29265000D02*
X41890000Y-28790000D01*
X41890000Y-33010000D02*
X41890000Y-32535000D01*
X42365000Y-33010000D02*
X41890000Y-33010000D01*
X45635000Y-28790000D02*
X46110000Y-28790000D01*
X46110000Y-28790000D02*
X46110000Y-29265000D01*
X46110000Y-32535000D02*
X46110000Y-33010000D01*
X46110000Y-33010000D02*
X45635000Y-33010000D01*
X41360000Y-29650000D02*
X41030000Y-29890000D01*
X41030000Y-29410000D01*
X41360000Y-29650000D01*
G36*
X41360000Y-29650000D02*
G01*
X41030000Y-29890000D01*
X41030000Y-29410000D01*
X41360000Y-29650000D01*
G37*
%TO.C,R4*%
X29227500Y-38887258D02*
X29227500Y-38412742D01*
X30272500Y-38887258D02*
X30272500Y-38412742D01*
%TO.C,R8*%
X29662742Y-33627500D02*
X30137258Y-33627500D01*
X29662742Y-34672500D02*
X30137258Y-34672500D01*
%TD*%
%LPC*%
D13*
%TO.C,Y1*%
X35700000Y-25350000D03*
X37900000Y-25350000D03*
X37900000Y-23650000D03*
X35700000Y-23650000D03*
%TD*%
D14*
%TO.C,C1*%
X40200000Y-36875000D03*
X40200000Y-35325000D03*
%TD*%
D15*
%TO.C,C12*%
X46625000Y-34700000D03*
X48175000Y-34700000D03*
%TD*%
D16*
%TO.C,R3*%
X29750000Y-42475000D03*
X29750000Y-40825000D03*
%TD*%
D17*
%TO.C,C10*%
X49000000Y-32950000D03*
X49000000Y-31050000D03*
%TD*%
D14*
%TO.C,C14*%
X40500000Y-28075000D03*
X40500000Y-26525000D03*
%TD*%
D17*
%TO.C,C11*%
X46800000Y-25250000D03*
X46800000Y-23350000D03*
%TD*%
D16*
%TO.C,R6*%
X32550000Y-42475000D03*
X32550000Y-40825000D03*
%TD*%
D18*
%TO.C,R12*%
X43975000Y-41000000D03*
X45625000Y-41000000D03*
%TD*%
D14*
%TO.C,C3*%
X38000000Y-36575000D03*
X38000000Y-35025000D03*
%TD*%
D19*
%TO.C,SW1*%
X54200000Y-38100000D03*
X54200000Y-30300000D03*
%TD*%
D16*
%TO.C,R1*%
X36200000Y-40075000D03*
X36200000Y-38425000D03*
%TD*%
D18*
%TO.C,RB1*%
X35605000Y-42450000D03*
X37255000Y-42450000D03*
%TD*%
%TO.C,R10*%
X34375000Y-32700000D03*
X36025000Y-32700000D03*
%TD*%
%TO.C,R5*%
X26375000Y-36450000D03*
X28025000Y-36450000D03*
%TD*%
D14*
%TO.C,C13*%
X40500000Y-24375000D03*
X40500000Y-22825000D03*
%TD*%
D16*
%TO.C,R7*%
X32550000Y-39475000D03*
X32550000Y-37825000D03*
%TD*%
D18*
%TO.C,R9*%
X34075000Y-36450000D03*
X35725000Y-36450000D03*
%TD*%
%TO.C,R11*%
X49475000Y-38200000D03*
X51125000Y-38200000D03*
%TD*%
D16*
%TO.C,R2*%
X38500000Y-40075000D03*
X38500000Y-38425000D03*
%TD*%
D17*
%TO.C,C9*%
X49000000Y-28950000D03*
X49000000Y-27050000D03*
%TD*%
D20*
%TO.C,J1*%
X25000000Y-45300000D03*
D21*
X27540000Y-45300000D03*
X30080000Y-45300000D03*
X32620000Y-45300000D03*
X35160000Y-45300000D03*
X37700000Y-45300000D03*
X40240000Y-45300000D03*
X42780000Y-45300000D03*
X45320000Y-45300000D03*
X47860000Y-45300000D03*
X50400000Y-45300000D03*
X52940000Y-45300000D03*
%TD*%
D14*
%TO.C,C2*%
X42000000Y-37075000D03*
X42000000Y-35525000D03*
%TD*%
%TO.C,C4*%
X38200000Y-33575000D03*
X38200000Y-32025000D03*
%TD*%
D22*
%TO.C,U1*%
X42012500Y-29650000D03*
X42012500Y-30150000D03*
X42012500Y-30650000D03*
X42012500Y-31150000D03*
X42012500Y-31650000D03*
X42012500Y-32150000D03*
D23*
X42750000Y-32887500D03*
X43250000Y-32887500D03*
X43750000Y-32887500D03*
X44250000Y-32887500D03*
X44750000Y-32887500D03*
X45250000Y-32887500D03*
D22*
X45987500Y-32150000D03*
X45987500Y-31650000D03*
X45987500Y-31150000D03*
X45987500Y-30650000D03*
X45987500Y-30150000D03*
X45987500Y-29650000D03*
D23*
X45250000Y-28912500D03*
X44750000Y-28912500D03*
X44250000Y-28912500D03*
X43750000Y-28912500D03*
X43250000Y-28912500D03*
X42750000Y-28912500D03*
D24*
X44000000Y-30900000D03*
%TD*%
D16*
%TO.C,R4*%
X29750000Y-39475000D03*
X29750000Y-37825000D03*
%TD*%
D18*
%TO.C,R8*%
X29075000Y-34150000D03*
X30725000Y-34150000D03*
%TD*%
%LPD*%
M02*
